<svg width="323" height="247" viewBox="0 0 323 247" fill="none" xmlns="http://www.w3.org/2000/svg">
<path d="M291.491 46.086C291.778 46.086 291.988 45.8758 292.043 45.5774C292.827 39.5241 293.678 38.6069 299.665 37.9442C299.974 37.9112 300.185 37.6793 300.185 37.3918C300.185 37.1043 299.974 36.8837 299.665 36.8394C293.678 36.1767 292.827 35.26 292.043 29.2062C291.988 28.9079 291.778 28.709 291.491 28.709C291.203 28.709 290.994 28.9079 290.949 29.2062C290.165 35.26 289.304 36.1767 283.327 36.8394C283.007 36.8837 282.797 37.1048 282.797 37.3918C282.797 37.6793 283.007 37.9112 283.327 37.9442C289.292 38.7285 290.121 39.535 290.949 45.5774C290.994 45.8758 291.204 46.086 291.491 46.086Z" fill="#1E1E1E"/>
<path d="M8.61906 243.696C8.80389 243.696 8.93873 243.561 8.97418 243.369C9.47837 239.478 10.0253 238.888 13.8743 238.462C14.073 238.441 14.2082 238.292 14.2082 238.107C14.2082 237.922 14.073 237.781 13.8743 237.752C10.0253 237.326 9.47837 236.737 8.97418 232.845C8.93873 232.653 8.80389 232.525 8.61906 232.525C8.43424 232.525 8.29971 232.653 8.27122 232.845C7.76704 236.737 7.21316 237.326 3.37115 237.752C3.16511 237.781 3.03027 237.923 3.03027 238.107C3.03027 238.292 3.16511 238.441 3.37115 238.462C7.20588 238.967 7.73855 239.485 8.27122 243.369C8.29971 243.561 8.43454 243.696 8.61906 243.696Z" fill="#1E1E1E"/>
<mask id="path-3-inside-1_407_1782" fill="white">
<path d="M26.3945 106.007C26.3945 79.3444 26.3945 66.0132 34.6775 57.7302C42.9604 49.4473 56.2917 49.4473 82.9541 49.4473H246.034C272.697 49.4473 286.028 49.4473 294.311 57.7302C302.594 66.0132 302.594 79.3444 302.594 106.007V188.961C302.594 215.623 302.594 228.954 294.311 237.237C286.028 245.52 272.697 245.52 246.034 245.52H82.9541C56.2917 245.52 42.9604 245.52 34.6775 237.237C26.3945 228.954 26.3945 215.623 26.3945 188.961V106.007Z"/>
</mask>
<path d="M26.3945 106.007C26.3945 79.3444 26.3945 66.0132 34.6775 57.7302C42.9604 49.4473 56.2917 49.4473 82.9541 49.4473H246.034C272.697 49.4473 286.028 49.4473 294.311 57.7302C302.594 66.0132 302.594 79.3444 302.594 106.007V188.961C302.594 215.623 302.594 228.954 294.311 237.237C286.028 245.52 272.697 245.52 246.034 245.52H82.9541C56.2917 245.52 42.9604 245.52 34.6775 237.237C26.3945 228.954 26.3945 215.623 26.3945 188.961V106.007Z" fill="#E3EEFF"/>
<path d="M26.3945 49.4473H302.594H26.3945ZM303.536 217.241C303.536 233.38 290.453 246.463 274.314 246.463H55.617C39.4779 246.463 26.3945 233.38 26.3945 217.241C26.3945 232.338 39.0558 244.578 54.6743 244.578H274.314C289.412 244.578 301.651 232.338 301.651 217.241H303.536ZM26.3945 245.52V49.4473V245.52ZM274.314 49.4473C290.453 49.4473 303.536 62.5306 303.536 78.6697V217.241C303.536 233.38 290.453 246.463 274.314 246.463V244.578C289.412 244.578 301.651 232.338 301.651 217.241V77.727C301.651 62.1086 289.412 49.4473 274.314 49.4473Z" fill="#1A1A1A" mask="url(#path-3-inside-1_407_1782)"/>
<rect x="19.3239" y="42.3776" width="271.486" height="193.245" rx="27.8084" stroke="#1A1A1A" stroke-width="0.942659"/>
<path d="M75.9783 121.949H73.6263V110.693L69.0483 113.192V110.756L74.0673 108.005H75.9783V121.949ZM82.3495 119.261C83.1895 119.261 83.7985 119.891 83.7985 120.71C83.7985 121.529 83.1895 122.159 82.3495 122.159C81.5305 122.159 80.9005 121.529 80.9005 120.71C80.9005 119.891 81.5305 119.261 82.3495 119.261ZM86.6696 108.005H92.1716C96.8756 108.005 99.5846 110.588 99.5846 114.977C99.5846 119.366 96.8756 121.949 92.1716 121.949H86.6696V108.005ZM89.1896 119.702H92.0456C95.2586 119.702 97.0436 118.001 97.0436 114.977C97.0436 111.953 95.2586 110.252 92.0456 110.252H89.1896V119.702ZM102.706 107.606C103.567 107.606 104.134 108.194 104.134 109.034C104.134 109.874 103.567 110.441 102.706 110.441C101.866 110.441 101.299 109.874 101.299 109.034C101.299 108.194 101.866 107.606 102.706 107.606ZM101.593 112.1H103.819V121.949H101.593V112.1ZM109.918 111.89C111.199 111.89 112.354 112.142 113.068 112.604V114.893H112.963C112.291 114.2 111.262 113.843 109.981 113.843C108.91 113.843 108.154 114.326 108.154 115.019C108.154 115.586 108.595 115.838 110.044 115.922C112.669 116.069 113.698 117.035 113.698 119.03C113.698 120.962 112.207 122.159 109.75 122.159C108.112 122.159 106.831 121.823 106.012 121.193V118.862H106.117C106.936 119.744 108.133 120.206 109.645 120.206C110.8 120.206 111.514 119.744 111.514 119.03C111.514 118.379 111.073 118.085 109.477 117.959C106.915 117.749 105.97 116.951 105.97 115.082C105.97 113.15 107.545 111.89 109.918 111.89ZM120.325 111.89C121.69 111.89 122.698 112.184 123.475 112.751V115.166H123.37C122.677 114.284 121.732 113.885 120.535 113.885C118.498 113.885 117.238 115.145 117.238 117.035C117.238 118.883 118.498 120.164 120.535 120.164C121.753 120.164 122.698 119.723 123.37 118.862H123.475V121.319C122.74 121.886 121.69 122.159 120.325 122.159C117.112 122.159 114.991 120.038 114.991 117.035C114.991 114.011 117.112 111.89 120.325 111.89ZM130.351 111.89C133.417 111.89 135.601 114.011 135.601 117.035C135.601 120.038 133.417 122.159 130.351 122.159C127.285 122.159 125.122 120.038 125.122 117.035C125.122 114.011 127.285 111.89 130.351 111.89ZM130.351 113.885C128.587 113.885 127.369 115.166 127.369 117.035C127.369 118.862 128.587 120.164 130.351 120.164C132.136 120.164 133.354 118.862 133.354 117.035C133.354 115.166 132.136 113.885 130.351 113.885ZM142.379 121.949H140.111L136.121 112.1H138.515L141.266 119.534H141.308L144.08 112.1H146.369L142.379 121.949ZM156.982 117.707H149.149C149.422 119.282 150.766 120.206 152.719 120.206C154.168 120.206 155.386 119.765 156.268 118.925H156.373V121.13C155.533 121.781 154.189 122.159 152.635 122.159C149.191 122.159 146.881 120.101 146.881 117.035C146.881 114.011 149.002 111.89 152.005 111.89C155.05 111.89 156.982 113.738 156.982 116.615V117.707ZM152.068 113.843C150.661 113.843 149.422 114.725 149.149 116.048H154.924C154.735 114.704 153.601 113.843 152.068 113.843ZM164.014 111.89C164.644 111.89 165.169 112.058 165.484 112.268V114.473H165.379C164.959 114.179 164.434 114.011 163.825 114.011C162.061 114.011 161.2 115.187 161.2 117.581V121.949H158.974V112.1H160.843L160.927 113.612H160.969C161.536 112.478 162.544 111.89 164.014 111.89ZM180.468 121.949L179.649 121.046C178.557 121.76 177.213 122.159 175.785 122.159C172.929 122.159 171.207 120.731 171.207 118.337C171.207 116.636 172.005 115.397 173.727 114.452C172.677 113.297 172.236 112.352 172.236 111.281C172.236 109.139 173.769 107.795 176.184 107.795C178.62 107.795 180.132 109.034 180.132 111.05C180.132 112.709 179.208 113.906 176.982 114.935L179.88 118.106C180.342 117.35 180.573 116.405 180.573 115.334C180.573 115.082 180.552 114.83 180.531 114.578H182.673C182.694 114.809 182.715 115.04 182.715 115.271C182.715 116.972 182.211 118.463 181.245 119.597L183.387 121.949H180.468ZM175.512 113.339L175.68 113.528C177.507 112.73 178.116 112.1 178.116 111.197C178.116 110.378 177.381 109.79 176.331 109.79C175.218 109.79 174.462 110.399 174.462 111.281C174.462 111.953 174.735 112.499 175.512 113.339ZM175.932 120.185C176.877 120.185 177.696 119.996 178.347 119.597L175.029 115.901C173.937 116.51 173.475 117.161 173.475 118.106C173.475 119.429 174.357 120.185 175.932 120.185ZM199.984 121.949H189.967V108.005H192.487V119.702H199.984V121.949ZM211.43 117.707H203.597C203.87 119.282 205.214 120.206 207.167 120.206C208.616 120.206 209.834 119.765 210.716 118.925H210.821V121.13C209.981 121.781 208.637 122.159 207.083 122.159C203.639 122.159 201.329 120.101 201.329 117.035C201.329 114.011 203.45 111.89 206.453 111.89C209.498 111.89 211.43 113.738 211.43 116.615V117.707ZM206.516 113.843C205.109 113.843 203.87 114.725 203.597 116.048H209.372C209.183 114.704 208.049 113.843 206.516 113.843ZM223.208 121.949H221.36L221.297 120.542H221.255C220.541 121.55 219.302 122.159 217.706 122.159C214.892 122.159 212.834 120.017 212.834 117.035C212.834 114.053 214.892 111.89 217.706 111.89C219.302 111.89 220.52 112.499 221.234 113.507H221.276L221.36 112.1H223.208V121.949ZM218.063 120.164C219.827 120.164 221.045 118.862 221.045 117.035C221.045 115.166 219.827 113.885 218.063 113.885C216.299 113.885 215.081 115.166 215.081 117.035C215.081 118.862 216.299 120.164 218.063 120.164ZM230.849 111.89C231.479 111.89 232.004 112.058 232.319 112.268V114.473H232.214C231.794 114.179 231.269 114.011 230.66 114.011C228.896 114.011 228.035 115.187 228.035 117.581V121.949H225.809V112.1H227.678L227.762 113.612H227.804C228.371 112.478 229.379 111.89 230.849 111.89ZM239.161 111.89C241.618 111.89 243.109 113.486 243.109 116.174V121.949H240.883V116.426C240.883 114.809 240.022 113.885 238.594 113.885C237.019 113.885 236.074 114.956 236.074 116.783V121.949H233.848V112.1H235.717L235.801 113.612H235.843C236.473 112.499 237.607 111.89 239.161 111.89Z" fill="#1A1A1A"/>
<path d="M65.7647 145.425H71.4887V146.955H65.7647V150.699H72.7847V152.229H64.0367V140.277H72.7847V141.807H65.7647V145.425ZM78.9278 152.229H77.3618L73.8158 143.805H75.4718L78.1538 150.627H78.1898L80.8898 143.805H82.4738L78.9278 152.229ZM91.6438 148.521H84.5338C84.7498 150.087 86.0098 151.041 87.9178 151.041C89.1598 151.041 90.2398 150.645 91.0318 149.889H91.1038V151.437C90.3478 152.049 89.1958 152.409 87.8818 152.409C84.9118 152.409 82.9858 150.663 82.9858 148.017C82.9858 145.443 84.8038 143.625 87.3778 143.625C89.9698 143.625 91.6438 145.227 91.6438 147.675V148.521ZM87.3958 144.993C85.9558 144.993 84.8218 145.893 84.5338 147.243H90.2218C90.0058 145.875 88.9258 144.993 87.3958 144.993ZM97.4894 143.625C98.0474 143.625 98.4794 143.769 98.7674 143.949V145.479H98.6954C98.3354 145.227 97.8854 145.083 97.3814 145.083C95.7614 145.083 94.9874 146.199 94.9874 148.395V152.229H93.4574V143.805H94.7534L94.7894 145.155H94.8254C95.3294 144.147 96.2114 143.625 97.4894 143.625ZM102.618 155.649H101.034L102.744 151.923L99.2162 143.805H100.872L103.554 150.321H103.59L106.29 143.805H107.874L102.618 155.649ZM117.158 143.625C118.328 143.625 119.264 143.895 119.912 144.453V146.127H119.84C119.192 145.353 118.364 144.993 117.302 144.993C115.376 144.993 114.17 146.217 114.17 148.017C114.17 149.799 115.376 151.041 117.302 151.041C118.382 151.041 119.228 150.663 119.84 149.907H119.912V151.599C119.264 152.139 118.346 152.409 117.158 152.409C114.422 152.409 112.622 150.573 112.622 148.017C112.622 145.443 114.422 143.625 117.158 143.625ZM125.876 143.625C128.486 143.625 130.34 145.443 130.34 148.017C130.34 150.591 128.486 152.409 125.876 152.409C123.266 152.409 121.412 150.591 121.412 148.017C121.412 145.443 123.266 143.625 125.876 143.625ZM125.876 144.993C124.148 144.993 122.96 146.235 122.96 148.017C122.96 149.799 124.148 151.041 125.876 151.041C127.586 151.041 128.792 149.799 128.792 148.017C128.792 146.235 127.586 144.993 125.876 144.993ZM142.118 143.625C144.17 143.625 145.322 144.939 145.322 147.279V152.229H143.792V147.441C143.792 145.839 143.072 144.993 141.74 144.993C140.3 144.993 139.526 145.983 139.526 147.855V152.229H137.996V147.441C137.996 145.839 137.294 144.993 135.944 144.993C134.486 144.993 133.712 145.983 133.712 147.765V152.229H132.182V143.805H133.46L133.514 145.029H133.55C134.072 144.129 134.99 143.625 136.322 143.625C137.582 143.625 138.536 144.183 139.04 145.245H139.076C139.598 144.165 140.57 143.625 142.118 143.625ZM152.101 143.625C154.549 143.625 156.331 145.461 156.331 148.017C156.331 150.573 154.549 152.409 152.101 152.409C150.751 152.409 149.707 151.941 149.041 151.149H149.005V155.649H147.475V143.805H148.771L148.807 145.137H148.843C149.491 144.201 150.625 143.625 152.101 143.625ZM151.867 151.041C153.577 151.041 154.783 149.799 154.783 148.017C154.783 146.235 153.577 144.993 151.867 144.993C150.139 144.993 148.951 146.235 148.951 148.017C148.951 149.799 150.139 151.041 151.867 151.041ZM158.162 152.229V139.629H159.692V152.229H158.162ZM170.183 148.521H163.073C163.289 150.087 164.549 151.041 166.457 151.041C167.699 151.041 168.779 150.645 169.571 149.889H169.643V151.437C168.887 152.049 167.735 152.409 166.421 152.409C163.451 152.409 161.525 150.663 161.525 148.017C161.525 145.443 163.343 143.625 165.917 143.625C168.509 143.625 170.183 145.227 170.183 147.675V148.521ZM165.935 144.993C164.495 144.993 163.361 145.893 163.073 147.243H168.761C168.545 145.875 167.465 144.993 165.935 144.993ZM176.786 150.555V152.103C176.408 152.301 175.904 152.409 175.256 152.409C173.492 152.409 172.502 151.365 172.502 149.475V145.137H170.954V143.805H172.538L172.772 141.519H174.032V143.805H176.75V145.137H174.032V149.439C174.032 150.447 174.572 151.041 175.472 151.041C175.94 151.041 176.372 150.915 176.714 150.555H176.786ZM186.636 148.521H179.526C179.742 150.087 181.002 151.041 182.91 151.041C184.152 151.041 185.232 150.645 186.024 149.889H186.096V151.437C185.34 152.049 184.188 152.409 182.874 152.409C179.904 152.409 177.978 150.663 177.978 148.017C177.978 145.443 179.796 143.625 182.37 143.625C184.962 143.625 186.636 145.227 186.636 147.675V148.521ZM182.388 144.993C180.948 144.993 179.814 145.893 179.526 147.243H185.214C184.998 145.875 183.918 144.993 182.388 144.993ZM196.766 152.229H195.47L195.416 150.897H195.38C194.75 151.833 193.598 152.409 192.122 152.409C189.674 152.409 187.91 150.573 187.91 148.017C187.91 145.461 189.674 143.625 192.122 143.625C193.49 143.625 194.534 144.093 195.2 144.903H195.236V139.629H196.766V152.229ZM192.374 151.041C194.084 151.041 195.29 149.799 195.29 148.017C195.29 146.235 194.084 144.993 192.374 144.993C190.646 144.993 189.458 146.235 189.458 148.017C189.458 149.799 190.646 151.041 192.374 151.041ZM203.092 152.229V139.629H204.622V152.229H203.092ZM215.113 148.521H208.003C208.219 150.087 209.479 151.041 211.387 151.041C212.629 151.041 213.709 150.645 214.501 149.889H214.573V151.437C213.817 152.049 212.665 152.409 211.351 152.409C208.381 152.409 206.455 150.663 206.455 148.017C206.455 145.443 208.273 143.625 210.847 143.625C213.439 143.625 215.113 145.227 215.113 147.675V148.521ZM210.865 144.993C209.425 144.993 208.291 145.893 208.003 147.243H213.691C213.475 145.875 212.395 144.993 210.865 144.993ZM219.734 143.625C220.85 143.625 221.858 143.859 222.488 144.273V145.893H222.416C221.84 145.299 220.94 144.993 219.77 144.993C218.69 144.993 217.988 145.497 217.988 146.253C217.988 146.865 218.438 147.153 219.842 147.225C222.146 147.351 222.992 148.125 222.992 149.781C222.992 151.401 221.714 152.409 219.662 152.409C218.258 152.409 217.16 152.103 216.458 151.527V149.871H216.53C217.214 150.645 218.258 151.041 219.608 151.041C220.76 151.041 221.48 150.555 221.48 149.781C221.48 149.097 221.012 148.773 219.5 148.683C217.286 148.539 216.476 147.837 216.476 146.307C216.476 144.705 217.772 143.625 219.734 143.625ZM227.451 143.625C228.567 143.625 229.575 143.859 230.205 144.273V145.893H230.133C229.557 145.299 228.657 144.993 227.487 144.993C226.407 144.993 225.705 145.497 225.705 146.253C225.705 146.865 226.155 147.153 227.559 147.225C229.863 147.351 230.709 148.125 230.709 149.781C230.709 151.401 229.431 152.409 227.379 152.409C225.975 152.409 224.877 152.103 224.175 151.527V149.871H224.247C224.931 150.645 225.975 151.041 227.325 151.041C228.477 151.041 229.197 150.555 229.197 149.781C229.197 149.097 228.729 148.773 227.217 148.683C225.003 148.539 224.193 147.837 224.193 146.307C224.193 144.705 225.489 143.625 227.451 143.625ZM236.336 143.625C238.946 143.625 240.8 145.443 240.8 148.017C240.8 150.591 238.946 152.409 236.336 152.409C233.726 152.409 231.872 150.591 231.872 148.017C231.872 145.443 233.726 143.625 236.336 143.625ZM236.336 144.993C234.608 144.993 233.42 146.235 233.42 148.017C233.42 149.799 234.608 151.041 236.336 151.041C238.046 151.041 239.252 149.799 239.252 148.017C239.252 146.235 238.046 144.993 236.336 144.993ZM247.035 143.625C249.177 143.625 250.491 145.029 250.491 147.333V152.229H248.961V147.513C248.961 145.929 248.097 144.993 246.675 144.993C245.109 144.993 244.173 146.073 244.173 147.855V152.229H242.643V143.805H243.939L243.975 145.137H244.011C244.587 144.183 245.613 143.625 247.035 143.625ZM67.2339 174.229H65.9379L65.9019 172.897H65.8659C65.2899 173.851 64.2639 174.409 62.8419 174.409C60.6999 174.409 59.3859 173.023 59.3859 170.701V165.805H60.9159V170.539C60.9159 172.123 61.7799 173.041 63.2019 173.041C64.7679 173.041 65.7039 171.961 65.7039 170.179V165.805H67.2339V174.229ZM73.9959 165.625C76.1379 165.625 77.4519 167.029 77.4519 169.333V174.229H75.9219V169.513C75.9219 167.929 75.0579 166.993 73.6359 166.993C72.0699 166.993 71.1339 168.073 71.1339 169.855V174.229H69.6039V165.805H70.8999L70.9359 167.137H70.9719C71.5479 166.183 72.5739 165.625 73.9959 165.625ZM79.6059 174.229V161.629H81.1359V174.229H79.6059ZM87.4322 165.625C90.0422 165.625 91.8962 167.443 91.8962 170.017C91.8962 172.591 90.0422 174.409 87.4322 174.409C84.8222 174.409 82.9682 172.591 82.9682 170.017C82.9682 167.443 84.8222 165.625 87.4322 165.625ZM87.4322 166.993C85.7042 166.993 84.5162 168.235 84.5162 170.017C84.5162 171.799 85.7042 173.041 87.4322 173.041C89.1422 173.041 90.3482 171.799 90.3482 170.017C90.3482 168.235 89.1422 166.993 87.4322 166.993ZM97.7347 165.625C98.9047 165.625 99.8407 165.895 100.489 166.453V168.127H100.417C99.7687 167.353 98.9407 166.993 97.8787 166.993C95.9527 166.993 94.7467 168.217 94.7467 170.017C94.7467 171.799 95.9527 173.041 97.8787 173.041C98.9587 173.041 99.8047 172.663 100.417 171.907H100.489V173.599C99.8407 174.139 98.9227 174.409 97.7347 174.409C94.9987 174.409 93.1987 172.573 93.1987 170.017C93.1987 167.443 94.9987 165.625 97.7347 165.625ZM104.058 170.467V174.229H102.528V161.629H104.058V169.477L107.838 165.805H109.836L105.516 169.927L110.016 174.229H107.928L104.058 170.467ZM114.125 165.625C115.241 165.625 116.249 165.859 116.879 166.273V167.893H116.807C116.231 167.299 115.331 166.993 114.161 166.993C113.081 166.993 112.379 167.497 112.379 168.253C112.379 168.865 112.829 169.153 114.233 169.225C116.537 169.351 117.383 170.125 117.383 171.781C117.383 173.401 116.105 174.409 114.053 174.409C112.649 174.409 111.551 174.103 110.849 173.527V171.871H110.921C111.605 172.645 112.649 173.041 113.999 173.041C115.151 173.041 115.871 172.555 115.871 171.781C115.871 171.097 115.403 170.773 113.891 170.683C111.677 170.539 110.867 169.837 110.867 168.307C110.867 166.705 112.163 165.625 114.125 165.625ZM131.357 174.229H130.061L130.007 172.897H129.971C129.341 173.833 128.189 174.409 126.713 174.409C124.265 174.409 122.501 172.573 122.501 170.017C122.501 167.461 124.265 165.625 126.713 165.625C128.189 165.625 129.341 166.201 129.971 167.155H130.007L130.061 165.805H131.357V174.229ZM126.965 173.041C128.675 173.041 129.881 171.799 129.881 170.017C129.881 168.235 128.675 166.993 126.965 166.993C125.237 166.993 124.049 168.235 124.049 170.017C124.049 171.799 125.237 173.041 126.965 173.041ZM142.076 165.625C144.218 165.625 145.532 167.029 145.532 169.333V174.229H144.002V169.513C144.002 167.929 143.138 166.993 141.716 166.993C140.15 166.993 139.214 168.073 139.214 169.855V174.229H137.684V165.805H138.98L139.016 167.137H139.052C139.628 166.183 140.654 165.625 142.076 165.625ZM155.804 170.521H148.694C148.91 172.087 150.17 173.041 152.078 173.041C153.32 173.041 154.4 172.645 155.192 171.889H155.264V173.437C154.508 174.049 153.356 174.409 152.042 174.409C149.072 174.409 147.146 172.663 147.146 170.017C147.146 167.443 148.964 165.625 151.538 165.625C154.13 165.625 155.804 167.227 155.804 169.675V170.521ZM151.556 166.993C150.116 166.993 148.982 167.893 148.694 169.243H154.382C154.166 167.875 153.086 166.993 151.556 166.993ZM166.783 174.229H165.289L163.111 168.055H163.075L160.879 174.229H159.385L156.415 165.805H158.053L160.159 172.303H160.195L162.499 165.805H163.741L166.045 172.285H166.081L168.205 165.805H169.753L166.783 174.229ZM177.845 165.625C178.961 165.625 179.969 165.859 180.599 166.273V167.893H180.527C179.951 167.299 179.051 166.993 177.881 166.993C176.801 166.993 176.099 167.497 176.099 168.253C176.099 168.865 176.549 169.153 177.953 169.225C180.257 169.351 181.103 170.125 181.103 171.781C181.103 173.401 179.825 174.409 177.773 174.409C176.369 174.409 175.271 174.103 174.569 173.527V171.871H174.641C175.325 172.645 176.369 173.041 177.719 173.041C178.871 173.041 179.591 172.555 179.591 171.781C179.591 171.097 179.123 170.773 177.611 170.683C175.397 170.539 174.587 169.837 174.587 168.307C174.587 166.705 175.883 165.625 177.845 165.625ZM184.337 170.467V174.229H182.807V161.629H184.337V169.477L188.117 165.805H190.115L185.795 169.927L190.295 174.229H188.207L184.337 170.467ZM192.475 162.151C193.069 162.151 193.483 162.565 193.483 163.159C193.483 163.753 193.069 164.167 192.475 164.167C191.881 164.167 191.467 163.753 191.467 163.159C191.467 162.565 191.881 162.151 192.475 162.151ZM191.719 174.229V165.805H193.249V174.229H191.719ZM195.604 174.229V161.629H197.134V174.229H195.604ZM199.506 174.229V161.629H201.036V174.229H199.506ZM203.121 169.999V168.631H219.321V169.999H203.121ZM229.848 174.229H228.552L228.498 172.897H228.462C227.832 173.833 226.68 174.409 225.204 174.409C222.756 174.409 220.992 172.573 220.992 170.017C220.992 167.461 222.756 165.625 225.204 165.625C226.68 165.625 227.832 166.201 228.462 167.155H228.498L228.552 165.805H229.848V174.229ZM225.456 173.041C227.166 173.041 228.372 171.799 228.372 170.017C228.372 168.235 227.166 166.993 225.456 166.993C223.728 166.993 222.54 168.235 222.54 170.017C222.54 171.799 223.728 173.041 225.456 173.041ZM236.611 165.625C238.753 165.625 240.067 167.029 240.067 169.333V174.229H238.537V169.513C238.537 167.929 237.673 166.993 236.251 166.993C234.685 166.993 233.749 168.073 233.749 169.855V174.229H232.219V165.805H233.515L233.551 167.137H233.587C234.163 166.183 235.189 165.625 236.611 165.625ZM250.537 174.229H249.241L249.187 172.897H249.151C248.521 173.833 247.369 174.409 245.893 174.409C243.445 174.409 241.681 172.573 241.681 170.017C241.681 167.461 243.445 165.625 245.893 165.625C247.261 165.625 248.305 166.093 248.971 166.903H249.007V161.629H250.537V174.229ZM246.145 173.041C247.855 173.041 249.061 171.799 249.061 170.017C249.061 168.235 247.855 166.993 246.145 166.993C244.417 166.993 243.229 168.235 243.229 170.017C243.229 171.799 244.417 173.041 246.145 173.041ZM61.5773 187.625C62.1353 187.625 62.5673 187.769 62.8553 187.949V189.479H62.7833C62.4233 189.227 61.9733 189.083 61.4693 189.083C59.8493 189.083 59.0753 190.199 59.0753 192.395V196.229H57.5453V187.805H58.8413L58.8773 189.155H58.9133C59.4173 188.147 60.2993 187.625 61.5773 187.625ZM72.1848 192.521H65.0748C65.2908 194.087 66.5508 195.041 68.4588 195.041C69.7008 195.041 70.7808 194.645 71.5728 193.889H71.6448V195.437C70.8888 196.049 69.7368 196.409 68.4228 196.409C65.4528 196.409 63.5268 194.663 63.5268 192.017C63.5268 189.443 65.3448 187.625 67.9188 187.625C70.5108 187.625 72.1848 189.227 72.1848 191.675V192.521ZM67.9368 188.993C66.4968 188.993 65.3628 189.893 65.0748 191.243H70.7628C70.5468 189.875 69.4668 188.993 67.9368 188.993ZM83.1642 196.229H81.6702L79.4922 190.055H79.4562L77.2602 196.229H75.7662L72.7962 187.805H74.4342L76.5402 194.303H76.5762L78.8802 187.805H80.1222L82.4262 194.285H82.4622L84.5862 187.805H86.1342L83.1642 196.229ZM95.5683 196.229H94.2723L94.2183 194.897H94.1823C93.5523 195.833 92.4003 196.409 90.9243 196.409C88.4763 196.409 86.7123 194.573 86.7123 192.017C86.7123 189.461 88.4763 187.625 90.9243 187.625C92.4003 187.625 93.5523 188.201 94.1823 189.155H94.2183L94.2723 187.805H95.5683V196.229ZM91.1763 195.041C92.8863 195.041 94.0923 193.799 94.0923 192.017C94.0923 190.235 92.8863 188.993 91.1763 188.993C89.4483 188.993 88.2603 190.235 88.2603 192.017C88.2603 193.799 89.4483 195.041 91.1763 195.041ZM101.972 187.625C102.53 187.625 102.962 187.769 103.25 187.949V189.479H103.178C102.818 189.227 102.368 189.083 101.864 189.083C100.244 189.083 99.4698 190.199 99.4698 192.395V196.229H97.9398V187.805H99.2358L99.2718 189.155H99.3078C99.8118 188.147 100.694 187.625 101.972 187.625ZM112.777 196.229H111.481L111.427 194.897H111.391C110.761 195.833 109.609 196.409 108.133 196.409C105.685 196.409 103.921 194.573 103.921 192.017C103.921 189.461 105.685 187.625 108.133 187.625C109.501 187.625 110.545 188.093 111.211 188.903H111.247V183.629H112.777V196.229ZM108.385 195.041C110.095 195.041 111.301 193.799 111.301 192.017C111.301 190.235 110.095 188.993 108.385 188.993C106.657 188.993 105.469 190.235 105.469 192.017C105.469 193.799 106.657 195.041 108.385 195.041ZM117.957 187.625C119.073 187.625 120.081 187.859 120.711 188.273V189.893H120.639C120.063 189.299 119.163 188.993 117.993 188.993C116.913 188.993 116.211 189.497 116.211 190.253C116.211 190.865 116.661 191.153 118.065 191.225C120.369 191.351 121.215 192.125 121.215 193.781C121.215 195.401 119.937 196.409 117.885 196.409C116.481 196.409 115.383 196.103 114.681 195.527V193.871H114.753C115.437 194.645 116.481 195.041 117.831 195.041C118.983 195.041 119.703 194.555 119.703 193.781C119.703 193.097 119.235 192.773 117.723 192.683C115.509 192.539 114.699 191.837 114.699 190.307C114.699 188.705 115.995 187.625 117.957 187.625ZM131.733 194.555V196.103C131.355 196.301 130.851 196.409 130.203 196.409C128.439 196.409 127.449 195.365 127.449 193.475V189.137H125.901V187.805H127.485L127.719 185.519H128.979V187.805H131.697V189.137H128.979V193.439C128.979 194.447 129.519 195.041 130.419 195.041C130.887 195.041 131.319 194.915 131.661 194.555H131.733ZM137.945 187.625C140.087 187.625 141.401 189.029 141.401 191.333V196.229H139.871V191.513C139.871 189.929 139.007 188.993 137.585 188.993C136.019 188.993 135.083 190.073 135.083 191.855V196.229H133.553V183.629H135.083V188.849H135.119C135.713 188.057 136.703 187.625 137.945 187.625ZM151.871 196.229H150.575L150.521 194.897H150.485C149.855 195.833 148.703 196.409 147.227 196.409C144.779 196.409 143.015 194.573 143.015 192.017C143.015 189.461 144.779 187.625 147.227 187.625C148.703 187.625 149.855 188.201 150.485 189.155H150.521L150.575 187.805H151.871V196.229ZM147.479 195.041C149.189 195.041 150.395 193.799 150.395 192.017C150.395 190.235 149.189 188.993 147.479 188.993C145.751 188.993 144.563 190.235 144.563 192.017C144.563 193.799 145.751 195.041 147.479 195.041ZM159.103 194.555V196.103C158.725 196.301 158.221 196.409 157.573 196.409C155.809 196.409 154.819 195.365 154.819 193.475V189.137H153.271V187.805H154.855L155.089 185.519H156.349V187.805H159.067V189.137H156.349V193.439C156.349 194.447 156.889 195.041 157.789 195.041C158.257 195.041 158.689 194.915 159.031 194.555H159.103ZM174.813 187.625C176.865 187.625 178.017 188.939 178.017 191.279V196.229H176.487V191.441C176.487 189.839 175.767 188.993 174.435 188.993C172.995 188.993 172.221 189.983 172.221 191.855V196.229H170.691V191.441C170.691 189.839 169.989 188.993 168.639 188.993C167.181 188.993 166.407 189.983 166.407 191.765V196.229H164.877V187.805H166.155L166.209 189.029H166.245C166.767 188.129 167.685 187.625 169.017 187.625C170.277 187.625 171.231 188.183 171.735 189.245H171.771C172.293 188.165 173.265 187.625 174.813 187.625ZM188.486 196.229H187.19L187.136 194.897H187.1C186.47 195.833 185.318 196.409 183.842 196.409C181.394 196.409 179.63 194.573 179.63 192.017C179.63 189.461 181.394 187.625 183.842 187.625C185.318 187.625 186.47 188.201 187.1 189.155H187.136L187.19 187.805H188.486V196.229ZM184.094 195.041C185.804 195.041 187.01 193.799 187.01 192.017C187.01 190.235 185.804 188.993 184.094 188.993C182.366 188.993 181.178 190.235 181.178 192.017C181.178 193.799 182.366 195.041 184.094 195.041ZM192.388 192.467V196.229H190.858V183.629H192.388V191.477L196.168 187.805H198.166L193.846 191.927L198.346 196.229H196.258L192.388 192.467ZM207.29 192.521H200.18C200.396 194.087 201.656 195.041 203.564 195.041C204.806 195.041 205.886 194.645 206.678 193.889H206.75V195.437C205.994 196.049 204.842 196.409 203.528 196.409C200.558 196.409 198.632 194.663 198.632 192.017C198.632 189.443 200.45 187.625 203.024 187.625C205.616 187.625 207.29 189.227 207.29 191.675V192.521ZM203.042 188.993C201.602 188.993 200.468 189.893 200.18 191.243H205.868C205.652 189.875 204.572 188.993 203.042 188.993ZM217.919 194.555V196.103C217.541 196.301 217.037 196.409 216.389 196.409C214.625 196.409 213.635 195.365 213.635 193.475V189.137H212.087V187.805H213.671L213.905 185.519H215.165V187.805H217.883V189.137H215.165V193.439C215.165 194.447 215.705 195.041 216.605 195.041C217.073 195.041 217.505 194.915 217.847 194.555H217.919ZM224.131 187.625C226.273 187.625 227.587 189.029 227.587 191.333V196.229H226.057V191.513C226.057 189.929 225.193 188.993 223.771 188.993C222.205 188.993 221.269 190.073 221.269 191.855V196.229H219.739V183.629H221.269V188.849H221.305C221.899 188.057 222.889 187.625 224.131 187.625ZM237.859 192.521H230.749C230.965 194.087 232.225 195.041 234.133 195.041C235.375 195.041 236.455 194.645 237.247 193.889H237.319V195.437C236.563 196.049 235.411 196.409 234.097 196.409C231.127 196.409 229.201 194.663 229.201 192.017C229.201 189.443 231.019 187.625 233.593 187.625C236.185 187.625 237.859 189.227 237.859 191.675V192.521ZM233.611 188.993C232.171 188.993 231.037 189.893 230.749 191.243H236.437C236.221 189.875 235.141 188.993 233.611 188.993ZM249.608 187.625C251.66 187.625 252.812 188.939 252.812 191.279V196.229H251.282V191.441C251.282 189.839 250.562 188.993 249.23 188.993C247.79 188.993 247.016 189.983 247.016 191.855V196.229H245.486V191.441C245.486 189.839 244.784 188.993 243.434 188.993C241.976 188.993 241.202 189.983 241.202 191.765V196.229H239.672V187.805H240.95L241.004 189.029H241.04C241.562 188.129 242.48 187.625 243.812 187.625C245.072 187.625 246.026 188.183 246.53 189.245H246.566C247.088 188.165 248.06 187.625 249.608 187.625ZM86.4162 218.229H84.9222L82.7442 212.055H82.7082L80.5122 218.229H79.0182L76.0482 209.805H77.6862L79.7922 216.303H79.8282L82.1322 209.805H83.3742L85.6782 216.285H85.7142L87.8382 209.805H89.3862L86.4162 218.229ZM98.8203 218.229H97.5243L97.4703 216.897H97.4343C96.8043 217.833 95.6523 218.409 94.1763 218.409C91.7283 218.409 89.9643 216.573 89.9643 214.017C89.9643 211.461 91.7283 209.625 94.1763 209.625C95.6523 209.625 96.8043 210.201 97.4343 211.155H97.4703L97.5243 209.805H98.8203V218.229ZM94.4283 217.041C96.1383 217.041 97.3443 215.799 97.3443 214.017C97.3443 212.235 96.1383 210.993 94.4283 210.993C92.7003 210.993 91.5123 212.235 91.5123 214.017C91.5123 215.799 92.7003 217.041 94.4283 217.041ZM105.584 209.625C107.726 209.625 109.04 211.029 109.04 213.333V218.229H107.51V213.513C107.51 211.929 106.646 210.993 105.224 210.993C103.658 210.993 102.722 212.073 102.722 213.855V218.229H101.192V209.805H102.488L102.524 211.137H102.56C103.136 210.183 104.162 209.625 105.584 209.625ZM116.036 216.555V218.103C115.658 218.301 115.154 218.409 114.506 218.409C112.742 218.409 111.752 217.365 111.752 215.475V211.137H110.204V209.805H111.788L112.022 207.519H113.282V209.805H116V211.137H113.282V215.439C113.282 216.447 113.822 217.041 114.722 217.041C115.19 217.041 115.622 216.915 115.964 216.555H116.036ZM126.671 216.555V218.103C126.293 218.301 125.789 218.409 125.141 218.409C123.377 218.409 122.387 217.365 122.387 215.475V211.137H120.839V209.805H122.423L122.657 207.519H123.917V209.805H126.635V211.137H123.917V215.439C123.917 216.447 124.457 217.041 125.357 217.041C125.825 217.041 126.257 216.915 126.599 216.555H126.671ZM132.327 209.625C134.937 209.625 136.791 211.443 136.791 214.017C136.791 216.591 134.937 218.409 132.327 218.409C129.717 218.409 127.863 216.591 127.863 214.017C127.863 211.443 129.717 209.625 132.327 209.625ZM132.327 210.993C130.599 210.993 129.411 212.235 129.411 214.017C129.411 215.799 130.599 217.041 132.327 217.041C134.037 217.041 135.243 215.799 135.243 214.017C135.243 212.235 134.037 210.993 132.327 210.993ZM144.118 214.467V218.229H142.588V205.629H144.118V213.477L147.898 209.805H149.896L145.576 213.927L150.076 218.229H147.988L144.118 214.467ZM159.021 214.521H151.911C152.127 216.087 153.387 217.041 155.295 217.041C156.537 217.041 157.617 216.645 158.409 215.889H158.481V217.437C157.725 218.049 156.573 218.409 155.259 218.409C152.289 218.409 150.363 216.663 150.363 214.017C150.363 211.443 152.181 209.625 154.755 209.625C157.347 209.625 159.021 211.227 159.021 213.675V214.521ZM154.773 210.993C153.333 210.993 152.199 211.893 151.911 213.243H157.599C157.383 211.875 156.303 210.993 154.773 210.993ZM168.952 214.521H161.842C162.058 216.087 163.318 217.041 165.226 217.041C166.468 217.041 167.548 216.645 168.34 215.889H168.412V217.437C167.656 218.049 166.504 218.409 165.19 218.409C162.22 218.409 160.294 216.663 160.294 214.017C160.294 211.443 162.112 209.625 164.686 209.625C167.278 209.625 168.952 211.227 168.952 213.675V214.521ZM164.704 210.993C163.264 210.993 162.13 211.893 161.842 213.243H167.53C167.314 211.875 166.234 210.993 164.704 210.993ZM175.392 209.625C177.84 209.625 179.622 211.461 179.622 214.017C179.622 216.573 177.84 218.409 175.392 218.409C174.042 218.409 172.998 217.941 172.332 217.149H172.296V221.649H170.766V209.805H172.062L172.098 211.137H172.134C172.782 210.201 173.916 209.625 175.392 209.625ZM175.158 217.041C176.868 217.041 178.074 215.799 178.074 214.017C178.074 212.235 176.868 210.993 175.158 210.993C173.43 210.993 172.242 212.235 172.242 214.017C172.242 215.799 173.43 217.041 175.158 217.041ZM193.725 209.805V217.563C193.725 220.227 192.033 221.829 189.171 221.829C187.695 221.829 186.435 221.415 185.661 220.713V219.111H185.733C186.417 219.957 187.623 220.461 189.009 220.461C191.043 220.461 192.195 219.399 192.195 217.473V217.059H192.159C191.493 217.869 190.449 218.337 189.081 218.337C186.633 218.337 184.869 216.537 184.869 213.981C184.869 211.425 186.633 209.625 189.081 209.625C190.557 209.625 191.709 210.201 192.339 211.155H192.375L192.429 209.805H193.725ZM189.333 216.969C191.043 216.969 192.249 215.763 192.249 213.981C192.249 212.199 191.043 210.993 189.333 210.993C187.605 210.993 186.417 212.199 186.417 213.981C186.417 215.763 187.605 216.969 189.333 216.969ZM200.02 209.625C202.63 209.625 204.484 211.443 204.484 214.017C204.484 216.591 202.63 218.409 200.02 218.409C197.41 218.409 195.556 216.591 195.556 214.017C195.556 211.443 197.41 209.625 200.02 209.625ZM200.02 210.993C198.292 210.993 197.104 212.235 197.104 214.017C197.104 215.799 198.292 217.041 200.02 217.041C201.73 217.041 202.936 215.799 202.936 214.017C202.936 212.235 201.73 210.993 200.02 210.993ZM207.083 206.151C207.677 206.151 208.091 206.565 208.091 207.159C208.091 207.753 207.677 208.167 207.083 208.167C206.489 208.167 206.075 207.753 206.075 207.159C206.075 206.565 206.489 206.151 207.083 206.151ZM206.327 218.229V209.805H207.857V218.229H206.327ZM214.603 209.625C216.745 209.625 218.059 211.029 218.059 213.333V218.229H216.529V213.513C216.529 211.929 215.665 210.993 214.243 210.993C212.677 210.993 211.741 212.073 211.741 213.855V218.229H210.211V209.805H211.507L211.543 211.137H211.579C212.155 210.183 213.181 209.625 214.603 209.625ZM228.529 209.805V217.563C228.529 220.227 226.837 221.829 223.975 221.829C222.499 221.829 221.239 221.415 220.465 220.713V219.111H220.537C221.221 219.957 222.427 220.461 223.813 220.461C225.847 220.461 226.999 219.399 226.999 217.473V217.059H226.963C226.297 217.869 225.253 218.337 223.885 218.337C221.437 218.337 219.673 216.537 219.673 213.981C219.673 211.425 221.437 209.625 223.885 209.625C225.361 209.625 226.513 210.201 227.143 211.155H227.179L227.233 209.805H228.529ZM224.137 216.969C225.847 216.969 227.053 215.763 227.053 213.981C227.053 212.199 225.847 210.993 224.137 210.993C222.409 210.993 221.221 212.199 221.221 213.981C221.221 215.763 222.409 216.969 224.137 216.969ZM231.279 214.881L231.063 206.277H232.881L232.683 214.881H231.279ZM231.981 216.321C232.575 216.321 233.007 216.771 233.007 217.365C233.007 217.959 232.575 218.409 231.981 218.409C231.387 218.409 230.937 217.959 230.937 217.365C230.937 216.771 231.387 216.321 231.981 216.321Z" fill="#1A1A1A"/>
<path d="M172.14 16.271L144.426 80.4886L104.002 66.5483L133.415 1.33454L134.024 1.10742C134.027 1.10886 134.032 1.1103 134.036 1.1103C138.199 2.37812 169.426 11.9917 172.036 16.087C172.076 16.1502 172.111 16.2106 172.14 16.271Z" fill="#D6E7FA"/>
<path d="M134.04 1.10352L134.035 1.1107L119.329 34.2178L114.242 45.6685L113.286 47.8175L111.588 51.6411L105.251 65.9062L104 66.5487L110.693 51.71L112.697 47.2612L112.908 46.7911L118.961 33.3683L133.401 1.33926L133.416 1.33494L134.025 1.10783L134.04 1.10352Z" fill="#A1BEF2"/>
<path d="M145.121 79.0079L144.931 77.4325C143.853 75.5465 108.568 63.83 108.568 63.83L106.55 65.312L118.427 38.1961L118.853 37.2258L118.956 36.9872L118.958 36.9857L119.413 35.9465L119.507 35.7337L122.147 29.7037L123.427 26.7842L135.161 -0.00390625C135.161 -0.00390625 159.321 6.788 172.242 15.5061C174.081 16.748 145.121 79.0079 145.121 79.0079Z" fill="url(#paint0_linear_407_1782)"/>
<path d="M217.349 21.9542L194.09 83.8907L144.425 80.4882L172.242 15.5059L217.349 21.9542Z" fill="#2A497C"/>
<path d="M216.872 20.9954L193.615 82.9319L144.765 79.4303L172.243 15.5059L216.872 20.9954Z" fill="#D6E7FA"/>
<path d="M194.09 83.8918L193.614 82.933L144.592 79.4199L144.425 80.4894L194.09 83.8918Z" fill="#749DED"/>
<path d="M217.351 21.9549L212.878 33.8669L212.205 35.6565L211.304 38.0542L210.631 39.8481L208.784 44.7685L208.048 46.7306L207.314 48.6841L206.573 50.6548L206.464 50.9409L205.78 52.7693L204.263 56.8056L203.578 58.6326L194.091 83.8913L193.613 82.9325L203.037 57.8449L203.723 56.0179L205.223 52.0189L205.504 51.2729L205.911 50.1876L206.235 49.3209L206.994 47.3013L207.726 45.3521L210.224 38.7054L210.9 36.9042L211.78 34.5612L212.458 32.7544L216.874 20.9961L217.351 21.9549Z" fill="#A1BEF2"/>
<path d="M193.128 80.7769L144.592 79.4199C144.592 79.4185 180.9 81.5861 193.128 80.7769Z" fill="#749DED"/>
<path d="M214.994 22.1548L193.13 80.7765L192.12 79.2916C192.12 79.2916 192.12 79.2916 192.113 79.2916L191.198 78.4967L190.606 77.9879L187.336 75.1489L186.465 74.3957L208.3 15.9824L213.264 19.8951L214.994 22.1548Z" fill="url(#paint1_linear_407_1782)"/>
<path d="M208.296 15.9821V15.9835L206.381 21.1008L206.022 22.0682H206.02L204.186 26.9785L203.748 28.1486L186.464 74.3954H186.463C186.463 74.3954 186.457 74.3939 186.448 74.3939C185.793 74.3436 166.242 72.8127 153.457 73.3906C152.704 73.4251 151.971 73.5315 151.262 73.6896C149.952 73.9814 148.73 74.4399 147.646 74.9143C147.606 74.9301 147.568 74.9473 147.528 74.9646C147.295 75.0681 147.068 75.1701 146.85 75.2722C146.85 75.2736 146.85 75.2736 146.85 75.2736C146.827 75.2837 146.805 75.2938 146.782 75.3038C146.732 75.3268 146.681 75.3513 146.632 75.3728C146.598 75.3915 146.565 75.4059 146.533 75.4217C146.405 75.4835 146.279 75.5424 146.155 75.6014C145.922 75.7149 145.698 75.8242 145.485 75.9248C145.254 76.0369 145.033 76.139 144.828 76.2324C144.801 76.2453 144.772 76.2583 144.745 76.2698L147.012 71.2862C147.018 71.2718 147.025 71.256 147.034 71.2387L164.573 32.6593L172.077 16.1531L172.314 15.6328L172.519 15.1786C172.519 15.1786 173.149 14.9903 174.272 14.7214C174.305 14.7099 174.322 14.7085 174.322 14.7085C174.331 14.7071 174.338 14.7042 174.348 14.7028C175.966 14.3132 178.568 13.7627 181.774 13.3458C185.288 12.8887 189.53 12.5912 193.992 12.8499C198.712 13.123 203.677 14.0128 208.296 15.9821Z" fill="url(#paint2_linear_407_1782)"/>
<path d="M193.13 80.7784L146.656 79.4947L144.766 79.4387H144.641C144.682 79.4315 144.724 79.4315 144.766 79.4243C145.414 79.3682 146.057 79.3122 146.69 79.2633C147.674 79.1799 144.172 79.1023 145.119 79.0333L146.725 79.0117L145.128 79.0046H145.121L145.065 78.6064L146.439 74.813C146.879 74.5413 147.373 74.3041 147.911 74.0813C149.117 73.5926 150.54 73.216 152.13 72.9371C157.478 71.9884 164.627 72.135 171.015 72.6022C178.944 73.1887 185.708 74.2696 186.405 74.3875C186.44 74.3875 186.462 74.3947 186.462 74.3947L187.333 75.1479L190.603 77.9869L191.195 78.4957L192.109 79.2906C192.116 79.2906 192.116 79.2906 192.116 79.2906L193.13 80.7784Z" fill="url(#paint3_linear_407_1782)"/>
<path d="M145.47 78.9275L144.639 79.4364L106.55 65.3121L108.569 63.8301C108.569 63.8301 129.773 67.7802 144.745 76.2697L145.47 78.9275Z" fill="url(#paint4_linear_407_1782)"/>
<path d="M104.002 66.5493L105.251 65.9082L144.765 79.4316L144.426 80.4896L104.002 66.5493Z" fill="#749DED"/>
<path d="M213.904 20.7383L192.117 79.2953L192.199 79.429L213.969 20.8102L213.904 20.7383Z" fill="url(#paint5_linear_407_1782)"/>
<path d="M214.416 21.3633L192.594 80.008L192.664 80.1L214.48 21.4366L214.416 21.3633Z" fill="url(#paint6_linear_407_1782)"/>
<path d="M212.626 19.4297L190.839 77.9867L190.922 78.1204L212.691 19.5016L212.626 19.4297Z" fill="url(#paint7_linear_407_1782)"/>
<path d="M211.679 18.627L189.892 77.184L189.975 77.3191L211.744 18.7003L211.679 18.627Z" fill="url(#paint8_linear_407_1782)"/>
<path d="M209.925 17.3047L188.138 75.8617L188.221 75.9954L209.99 17.3766L209.925 17.3047Z" fill="url(#paint9_linear_407_1782)"/>
<path opacity="0.5" d="M147.913 74.0859C147.913 74.0859 147.421 75.4716 147.019 77.3705C146.91 77.888 146.808 78.4414 146.724 79.0164C146.711 79.0983 146.701 79.1788 146.69 79.2622C146.684 79.3038 146.678 79.3441 146.671 79.3858C146.667 79.4217 146.664 79.4562 146.658 79.4921L144.768 79.439C144.767 79.4347 144.767 79.4332 144.764 79.4318C144.764 79.4303 144.764 79.4303 144.764 79.4303L144.765 79.4246L144.82 79.278V79.2765L145.064 78.6053L146.438 74.8147V74.8133C146.882 74.5474 147.376 74.3044 147.913 74.0859Z" fill="#58585F"/>
<path opacity="0.3" d="M174.323 14.7077C174.323 14.7077 173.59 14.8055 172.86 16.6368C172.189 18.3157 151.732 65.3804 147.913 74.0841C147.376 74.3026 146.883 74.5455 146.441 74.8129V74.8143C146.211 74.9523 145.994 75.0961 145.793 75.2484C146.562 73.5753 157.047 49.7597 164.573 32.6585C168.727 23.2275 171.977 15.8404 172.206 15.3359C172.407 14.8874 173.053 14.6804 173.612 14.7006C173.797 14.7063 174.072 14.7077 174.323 14.7077Z" fill="#757480"/>
<path d="M191.196 78.4966L190.608 77.9863L145.175 78.5038L191.196 78.4966Z" fill="url(#paint10_linear_407_1782)"/>
<path d="M189.975 77.3187L189.892 77.1836L144.953 77.2325L189.975 77.3187Z" fill="url(#paint11_linear_407_1782)"/>
<path d="M188.138 75.8613L144.746 76.271L188.221 75.995L188.138 75.8613Z" fill="url(#paint12_linear_407_1782)"/>
<path d="M192.583 79.97L145.157 79.4338L192.199 79.4266L192.117 79.293L145.055 79.4324L144.765 79.4295L145.008 79.4324L144.64 79.4338H145.081L192.666 80.1051L192.583 79.97Z" fill="url(#paint13_linear_407_1782)"/>
<path d="M175.285 14.4807C175.285 14.4807 173.935 14.587 173.205 16.4169C172.473 18.2468 148.216 74.0396 147.661 75.2226C145.965 78.8291 146.971 84.7183 146.971 84.7183L145.633 83.7308L144.65 84.4179C144.65 84.4179 143.452 78.6882 145.212 75.339C145.534 74.7252 171.014 16.7849 171.664 15.3374C171.865 14.8889 172.518 14.7883 173.07 14.702C174.094 14.541 175.489 14.4203 175.285 14.4807Z" fill="url(#paint14_linear_407_1782)"/>
<path d="M144.695 9.88942C145.331 10.1194 145.966 10.3508 146.597 10.5909C147.231 10.8252 147.869 11.0451 148.515 11.242C149.161 11.439 149.81 11.6287 150.462 11.8055C151.116 11.9795 151.773 12.1519 152.445 12.2828L152.469 12.2152C151.868 11.8889 151.254 11.5957 150.632 11.3254C150.011 11.0494 149.38 10.8022 148.749 10.5578C147.484 10.0705 146.17 9.72986 144.875 9.34032C143.577 8.95508 142.279 8.5756 140.978 8.20186C139.673 7.84106 138.371 7.47595 137.06 7.13672L137.038 7.20572L140.867 8.54541C142.147 8.98814 143.423 9.43662 144.695 9.88942Z" fill="#CECCD8"/>
<path d="M149.619 15.762C147.22 14.8334 144.8 13.9493 142.333 13.2076L140.477 12.6715C139.855 12.5047 139.232 12.3437 138.607 12.1914C137.362 11.8636 136.096 11.6207 134.835 11.3691L134.822 11.4223C137.279 12.1899 139.738 12.9115 142.17 13.7265C144.604 14.5315 147.053 15.2977 149.467 16.1702C151.882 17.037 154.281 17.9541 156.658 18.9258C159.037 19.8903 161.402 20.8994 163.732 21.9803L163.757 21.9315C161.457 20.7829 159.119 19.7077 156.765 18.6757C154.405 17.6508 152.021 16.6819 149.619 15.762Z" fill="#CECCD8"/>
<path d="M147.73 19.6428C145.331 18.7142 142.91 17.8302 140.443 17.0885L138.588 16.5523C137.965 16.3856 137.343 16.2246 136.717 16.0722C135.473 15.7445 134.206 15.5016 132.946 15.25L132.933 15.3032C135.389 16.0708 137.849 16.7924 140.281 17.6074C142.714 18.4124 145.164 19.1785 147.577 20.0511C149.992 20.9178 152.391 21.8349 154.769 22.8066C157.148 23.7711 159.512 24.7802 161.842 25.8612L161.867 25.8123C159.567 24.6638 157.23 23.5886 154.875 22.5565C152.515 21.5331 150.133 20.5628 147.73 19.6428Z" fill="#CECCD8"/>
<path d="M146.383 23.5256C143.984 22.597 141.563 21.713 139.097 20.9713L137.241 20.4351C136.618 20.2684 135.996 20.1074 135.371 19.955C134.126 19.6273 132.86 19.3844 131.599 19.1328L131.586 19.186C134.043 19.9536 136.502 20.6752 138.934 21.4902C141.368 22.2952 143.817 23.0613 146.231 23.9339C148.645 24.8006 151.045 25.7177 153.422 26.6894C155.801 27.654 158.166 28.663 160.496 29.744L160.52 29.6951C158.22 28.5466 155.883 27.4714 153.528 26.4393C151.168 25.4159 148.785 24.447 146.383 23.5256Z" fill="#CECCD8"/>
<path d="M144.855 27.7698C142.456 26.8412 140.035 25.9572 137.568 25.2154L135.713 24.6793C135.09 24.5125 134.468 24.3515 133.842 24.1992C132.598 23.8714 131.331 23.6285 130.071 23.377L130.058 23.4301C132.514 24.1977 134.974 24.9193 137.406 25.7344C139.839 26.5393 142.289 27.3055 144.702 28.178C147.117 29.0448 149.516 29.9619 151.894 30.9336C154.273 31.8981 156.637 32.9072 158.967 33.9881L158.992 33.9393C156.692 32.7908 154.355 31.7155 152 30.6835C149.64 29.6586 147.257 28.6897 144.855 27.7698Z" fill="#CECCD8"/>
<path d="M143.146 31.8323C140.747 30.9037 138.326 30.0197 135.859 29.2779L134.004 28.7418C133.381 28.575 132.759 28.414 132.133 28.2617C130.889 27.9339 129.622 27.691 128.362 27.4395L128.349 27.4926C130.805 28.2602 133.265 28.9818 135.697 29.7969C138.13 30.6018 140.58 31.368 142.993 32.2405C145.408 33.1073 147.807 34.0244 150.185 34.9961C152.564 35.9606 154.928 36.9697 157.258 38.0506L157.283 38.0018C154.983 36.8532 152.646 35.778 150.291 34.746C147.931 33.7225 145.548 32.7522 143.146 31.8323Z" fill="#CECCD8"/>
<path d="M140.619 35.6409C138.22 34.7123 135.8 33.8282 133.333 33.0865L131.477 32.5504C130.855 32.3836 130.232 32.2226 129.607 32.0703C128.362 31.7425 127.096 31.4996 125.835 31.248L125.822 31.3012C128.279 32.0688 130.738 32.7904 133.17 33.6054C135.604 34.4104 138.053 35.1766 140.467 36.0491C142.882 36.9159 145.281 37.833 147.658 38.8047C150.037 39.7692 152.402 40.7783 154.732 41.8592L154.757 41.8104C152.457 40.6618 150.119 39.5866 147.765 38.5546C145.405 37.5311 143.021 36.5608 140.619 35.6409Z" fill="#CECCD8"/>
<path d="M138.73 39.5217C136.331 38.5931 133.91 37.7091 131.443 36.9674L129.588 36.4312C128.965 36.2645 128.343 36.1035 127.717 35.9511C126.473 35.6234 125.206 35.3805 123.946 35.1289L123.933 35.1821C126.389 35.9497 128.849 36.6713 131.281 37.4863C133.714 38.2913 136.164 39.0574 138.577 39.93C140.992 40.7967 143.391 41.7138 145.769 42.6855C148.148 43.6501 150.512 44.6591 152.842 45.7401L152.867 45.6912C150.567 44.5427 148.23 43.4675 145.875 42.4354C143.515 41.412 141.133 40.4431 138.73 39.5217Z" fill="#CECCD8"/>
<path d="M137.383 43.4045C134.984 42.476 132.563 41.5919 130.097 40.8502L128.241 40.314C127.618 40.1473 126.996 39.9863 126.371 39.8339C125.126 39.5062 123.86 39.2633 122.599 39.0117L122.586 39.0649C125.043 39.8325 127.502 40.5541 129.934 41.3691C132.368 42.1741 134.817 42.9402 137.231 43.8128C139.645 44.6796 142.045 45.5966 144.422 46.5683C146.801 47.5329 149.166 48.542 151.496 49.6229L151.52 49.574C149.22 48.4255 146.883 47.3503 144.528 46.3182C142.168 45.2948 139.785 44.3245 137.383 43.4045Z" fill="#CECCD8"/>
<path d="M135.855 47.6467C133.456 46.7181 131.035 45.8341 128.568 45.0924L126.713 44.5562C126.09 44.3895 125.468 44.2285 124.842 44.0761C123.598 43.7484 122.331 43.5055 121.071 43.2539L121.058 43.3071C123.514 44.0747 125.974 44.7963 128.406 45.6113C130.839 46.4163 133.289 47.1824 135.702 48.055C138.117 48.9217 140.516 49.8388 142.894 50.8105C145.273 51.7751 147.637 52.7841 149.967 53.8651L149.992 53.8162C147.692 52.6677 145.355 51.5925 143 50.5604C140.64 49.537 138.257 48.5667 135.855 47.6467Z" fill="#CECCD8"/>
<path d="M134.146 51.7092C131.747 50.7806 129.326 49.8966 126.859 49.1549L125.004 48.6187C124.381 48.452 123.759 48.291 123.133 48.1386C121.889 47.8109 120.622 47.568 119.362 47.3164L119.349 47.3696C121.805 48.1372 124.265 48.8588 126.697 49.6738C129.13 50.4788 131.58 51.2449 133.993 52.1175C136.408 52.9842 138.807 53.9013 141.185 54.873C143.564 55.8376 145.928 56.8466 148.258 57.9276L148.283 57.8787C145.983 56.7302 143.646 55.655 141.291 54.6229C138.931 53.5995 136.548 52.6292 134.146 51.7092Z" fill="#CECCD8"/>
<path d="M132.015 55.303C129.616 54.3744 127.195 53.4904 124.728 52.7486L122.873 52.2125C122.25 52.0457 121.628 51.8847 121.003 51.7324C119.758 51.4046 118.491 51.1617 117.231 50.9102L117.218 50.9633C119.674 51.7309 122.134 52.4525 124.566 53.2676C127 54.0725 129.449 54.8387 131.862 55.7112C134.277 56.578 136.676 57.4951 139.054 58.4668C141.433 59.4313 143.797 60.4404 146.128 61.5213L146.152 61.4725C143.852 60.324 141.515 59.2488 139.16 58.2167C136.8 57.1932 134.417 56.2229 132.015 55.303Z" fill="#CECCD8"/>
<path d="M130.487 59.5471C128.088 58.6185 125.668 57.7345 123.201 56.9928L121.345 56.4566C120.723 56.2899 120.1 56.1289 119.475 55.9765C118.23 55.6488 116.964 55.4058 115.703 55.1543L115.69 55.2075C118.147 55.9751 120.606 56.6967 123.039 57.5117C125.472 58.3167 127.922 59.0828 130.335 59.9553C132.75 60.8221 135.149 61.7392 137.527 62.7109C139.906 63.6754 142.27 64.6845 144.6 65.7655L144.625 65.7166C142.325 64.5681 139.987 63.4929 137.633 62.4608C135.273 61.4373 132.889 60.4685 130.487 59.5471Z" fill="#CECCD8"/>
<path d="M128.778 63.6096C126.379 62.681 123.959 61.797 121.492 61.0553L119.636 60.5191C119.014 60.3524 118.392 60.1914 117.766 60.039C116.521 59.7113 115.255 59.4683 113.994 59.2168L113.981 59.27C116.438 60.0376 118.897 60.7592 121.33 61.5742C123.763 62.3792 126.213 63.1453 128.626 64.0179C131.041 64.8846 133.44 65.8017 135.818 66.7734C138.197 67.7379 140.561 68.747 142.891 69.828L142.916 69.7791C140.616 68.6306 138.279 67.5554 135.924 66.5233C133.564 65.4999 131.18 64.531 128.778 63.6096Z" fill="#CECCD8"/>
<path d="M200.79 18.9674L199.086 18.6411C197.949 18.4312 196.804 18.2788 195.659 18.1078C194.514 17.954 193.361 17.8519 192.21 17.7441C191.633 17.6967 191.055 17.6708 190.477 17.6334L189.612 17.5817C189.323 17.563 189.036 17.5472 188.745 17.5414L187.012 17.4825L186.579 17.4681L186.145 17.4667L185.277 17.4638L184.41 17.4609C184.121 17.4652 183.832 17.4767 183.543 17.4854C182.965 17.5055 182.386 17.5112 181.81 17.5572C181.232 17.5989 180.655 17.6291 180.08 17.701L179.218 17.7944L178.36 17.9224C178.074 17.9597 177.789 18.0172 177.505 18.0733L177.079 18.1552C176.938 18.1854 176.797 18.2228 176.656 18.2558C176.516 18.2903 176.375 18.322 176.235 18.3593L175.818 18.4815C175.541 18.5663 175.268 18.6612 175.002 18.7834L175.026 18.8323C175.288 18.7216 175.564 18.6353 175.841 18.5606L176.258 18.4528C176.398 18.4197 176.54 18.3938 176.681 18.3636C176.822 18.3349 176.963 18.3033 177.103 18.2774L177.529 18.2084C177.814 18.1624 178.097 18.1135 178.383 18.0862L179.24 17.9856L180.101 17.9195C180.673 17.8663 181.249 17.8548 181.824 17.8304C182.398 17.7973 182.974 17.8059 183.549 17.7987C183.836 17.7973 184.124 17.793 184.411 17.7959L185.274 17.8189L186.136 17.8419L186.568 17.8534L186.999 17.8778L188.722 17.977C189.01 17.9914 189.296 18.0158 189.583 18.0431L190.443 18.1207C191.016 18.1753 191.59 18.217 192.162 18.2817L193.878 18.4715C194.451 18.5304 195.025 18.5735 195.596 18.6497L197.314 18.838C197.887 18.8998 198.461 18.9487 199.033 19.0177L200.752 19.2132C201.327 19.2678 201.901 19.3325 202.477 19.3785L202.486 19.3253C201.922 19.1959 201.355 19.0867 200.79 18.9674Z" fill="#CECCD8"/>
<path d="M197.347 22.1318C196.21 21.922 195.064 21.7696 193.92 21.6C192.775 21.4462 191.622 21.3441 190.47 21.2363C189.894 21.1889 189.316 21.163 188.738 21.1256L187.873 21.0739C187.584 21.0552 187.296 21.0394 187.006 21.0336L185.273 20.9747L184.84 20.9603L184.406 20.9589L183.538 20.956L182.671 20.9531C182.382 20.9574 182.093 20.9689 181.804 20.9776C181.226 20.9977 180.647 21.0034 180.07 21.0494C179.493 21.0911 178.916 21.1213 178.341 21.1932L177.479 21.2866L176.621 21.4145C176.335 21.4519 176.05 21.5094 175.765 21.5655L175.34 21.6474C175.199 21.6776 175.058 21.715 174.917 21.748C174.776 21.7825 174.635 21.8142 174.496 21.8515L174.079 21.9737C173.802 22.0585 173.529 22.1534 173.263 22.2741L173.287 22.323C173.549 22.2123 173.825 22.1261 174.102 22.0513L174.519 21.9435C174.658 21.9105 174.801 21.8846 174.942 21.8544C175.082 21.8257 175.223 21.794 175.364 21.7682L175.79 21.6992C176.074 21.6532 176.358 21.6043 176.644 21.577L177.5 21.4764L178.361 21.4102C178.933 21.357 179.51 21.3455 180.085 21.3211C180.658 21.288 181.235 21.2967 181.81 21.2895C182.097 21.288 182.385 21.2837 182.672 21.2866L183.535 21.3096L184.397 21.3326L184.828 21.3441L185.26 21.3685L186.983 21.4677C187.271 21.4821 187.557 21.5065 187.844 21.5339L188.704 21.6115C189.277 21.6661 189.851 21.7078 190.423 21.7725L192.139 21.9622C192.711 22.0211 193.286 22.0643 193.857 22.1405L195.575 22.3288C196.148 22.3906 196.722 22.4394 197.294 22.5084L199.013 22.7039C199.588 22.7585 200.162 22.8232 200.738 22.8692L200.747 22.816C200.183 22.6881 199.615 22.5789 199.05 22.4596L197.347 22.1318Z" fill="#CECCD8"/>
<path d="M195.607 25.6201C194.47 25.4102 193.324 25.2579 192.18 25.0883C191.034 24.9344 189.881 24.8324 188.73 24.7246C188.154 24.6771 187.576 24.6513 186.998 24.6139L186.133 24.5622C185.844 24.5435 185.556 24.5277 185.266 24.5219L183.532 24.463L183.1 24.4486L182.665 24.4472L181.797 24.4443L180.931 24.4414C180.642 24.4457 180.353 24.4572 180.064 24.4658C179.486 24.486 178.907 24.4917 178.33 24.5377C177.752 24.5794 177.176 24.6096 176.601 24.6815L175.738 24.7749L174.88 24.9028C174.594 24.9402 174.31 24.9977 174.025 25.0538L173.6 25.1357C173.459 25.1659 173.318 25.2032 173.177 25.2363C173.036 25.2708 172.895 25.3024 172.756 25.3398L172.339 25.462C172.062 25.5468 171.788 25.6417 171.522 25.7624L171.547 25.8113C171.809 25.7006 172.084 25.6144 172.362 25.5396L172.779 25.4318C172.918 25.3987 173.061 25.3729 173.201 25.3427C173.342 25.3139 173.483 25.2823 173.624 25.2564L174.049 25.1874C174.333 25.1414 174.617 25.0926 174.903 25.0653L175.76 24.9646L176.621 24.8985C177.193 24.8453 177.77 24.8338 178.345 24.8094C178.918 24.7763 179.495 24.785 180.069 24.7778C180.357 24.7763 180.644 24.772 180.932 24.7749L181.794 24.7979L182.657 24.8209L183.088 24.8324L183.519 24.8568L185.243 24.956C185.53 24.9704 185.816 24.9948 186.104 25.0221L186.963 25.0998C187.537 25.1544 188.111 25.1961 188.683 25.2607L190.399 25.4505C190.971 25.5094 191.546 25.5525 192.117 25.6287L193.834 25.817C194.407 25.8788 194.981 25.9277 195.554 25.9967L197.273 26.1922C197.848 26.2468 198.421 26.3115 198.998 26.3575L199.006 26.3043C198.443 26.1764 197.875 26.0671 197.31 25.9478L195.607 25.6201Z" fill="#CECCD8"/>
<path d="M193.867 29.1098C192.73 28.9 191.584 28.7476 190.44 28.5765C189.294 28.4227 188.141 28.3207 186.99 28.2129C186.413 28.1654 185.836 28.1396 185.258 28.1022L184.392 28.0504C184.103 28.0317 183.816 28.0159 183.526 28.0102L181.792 27.9512L181.359 27.9369L180.925 27.9354L180.057 27.9326L179.19 27.9297C178.901 27.934 178.612 27.9455 178.324 27.9541C177.746 27.9743 177.166 27.98 176.59 28.026C176.012 28.0677 175.436 28.0979 174.861 28.1697L173.998 28.2632L173.14 28.3911C172.854 28.4285 172.569 28.486 172.285 28.542L171.859 28.624C171.718 28.6542 171.578 28.6915 171.437 28.7246C171.296 28.7591 171.155 28.7907 171.016 28.8281L170.599 28.9503C170.321 29.0351 170.048 29.13 169.782 29.2507L169.807 29.2996C170.068 29.1889 170.344 29.1026 170.622 29.0279L171.039 28.9201C171.178 28.887 171.32 28.8612 171.461 28.831C171.602 28.8022 171.743 28.7706 171.884 28.7447L172.309 28.6757C172.592 28.6297 172.877 28.5808 173.163 28.5535L174.02 28.4529L174.881 28.3868C175.453 28.3336 176.029 28.3221 176.604 28.2977C177.178 28.2646 177.754 28.2732 178.329 28.266C178.617 28.2646 178.904 28.2603 179.192 28.2632L180.054 28.2862L180.917 28.3092L181.348 28.3207L181.779 28.3451L183.503 28.4443C183.79 28.4587 184.076 28.4831 184.364 28.5104L185.223 28.588C185.797 28.6427 186.37 28.6843 186.942 28.749L188.659 28.9388C189.231 28.9977 189.806 29.0408 190.376 29.117L192.094 29.3053C192.668 29.3671 193.241 29.416 193.813 29.485L195.533 29.6805C196.108 29.7351 196.681 29.7998 197.257 29.8458L197.266 29.7926C196.703 29.6647 196.135 29.5554 195.57 29.4361L193.867 29.1098Z" fill="#CECCD8"/>
<path d="M192.128 32.5981C190.991 32.3882 189.846 32.2359 188.701 32.0648C187.556 31.911 186.403 31.809 185.252 31.7011C184.675 31.6537 184.097 31.6278 183.519 31.5905L182.654 31.5387C182.365 31.52 182.078 31.5042 181.787 31.4985L180.054 31.4395L179.621 31.4252L179.187 31.4237L178.319 31.4208L177.452 31.418C177.163 31.4223 176.874 31.4338 176.585 31.4424C176.007 31.4625 175.428 31.4683 174.852 31.5143C174.274 31.556 173.697 31.5861 173.122 31.658L172.26 31.7515L171.402 31.8794C171.116 31.9168 170.831 31.9743 170.547 32.0303L170.121 32.1123C169.98 32.1424 169.839 32.1798 169.698 32.2129C169.558 32.2474 169.417 32.279 169.277 32.3164L168.86 32.4385C168.583 32.5234 168.31 32.6182 168.044 32.7404L168.068 32.7893C168.33 32.6786 168.606 32.5924 168.883 32.5176L169.3 32.4098C169.44 32.3767 169.582 32.3509 169.723 32.3207C169.864 32.2919 170.005 32.2603 170.145 32.2344L170.571 32.1654C170.856 32.1194 171.139 32.0706 171.425 32.0433L172.282 31.9426L173.143 31.8765C173.715 31.8233 174.291 31.8118 174.866 31.7874C175.44 31.7543 176.016 31.763 176.591 31.7558C176.878 31.7543 177.166 31.75 177.453 31.7529L178.316 31.7759L179.178 31.7989L179.61 31.8104L180.041 31.8348L181.764 31.934C182.052 31.9484 182.338 31.9728 182.625 32.0001L183.485 32.0778C184.058 32.1324 184.632 32.1741 185.204 32.2387L186.92 32.4271C187.493 32.486 188.067 32.5291 188.638 32.6053L190.356 32.7936C190.929 32.8554 191.503 32.9043 192.075 32.9733L193.794 33.1688C194.369 33.2234 194.943 33.2881 195.519 33.3341L195.528 33.2809C194.964 33.153 194.397 33.0437 193.832 32.9244L192.128 32.5981Z" fill="#CECCD8"/>
<path d="M178.035 36.1288H177.601L176.733 36.1245L175.866 36.123C175.577 36.1274 175.287 36.1389 174.998 36.146C174.421 36.1662 173.842 36.1719 173.264 36.2179C172.688 36.2596 172.11 36.2898 171.535 36.3602L170.673 36.4537L169.813 36.5845C169.527 36.6204 169.244 36.6779 168.959 36.734L168.532 36.8159C168.391 36.8461 168.252 36.8835 168.111 36.9165C167.97 36.951 167.829 36.9812 167.69 37.02L167.272 37.1408C166.994 37.2256 166.721 37.3219 166.455 37.4426L166.481 37.4915C166.741 37.3808 167.019 37.2946 167.295 37.2198L167.713 37.1106C167.852 37.0775 167.993 37.0502 168.134 37.02C168.275 36.9913 168.414 36.9596 168.557 36.9352L168.982 36.8662C169.267 36.8188 169.55 36.7728 169.836 36.7426L170.694 36.642L171.554 36.5773C172.127 36.5227 172.702 36.5126 173.277 36.4882C173.852 36.4537 174.427 36.4623 175.004 36.458C175.291 36.4565 175.579 36.4508 175.866 36.4551L176.728 36.4767L177.591 36.4997L178.021 36.5097L178.453 36.5356L179.846 36.6146L179.977 36.1935L178.466 36.1417L178.035 36.1288Z" fill="#CECCD8"/>
<path d="M176.363 40.8449L175.931 40.8305L175.497 40.829L174.628 40.8276L173.762 40.8262C173.473 40.8305 173.182 40.842 172.893 40.8492C172.317 40.8693 171.738 40.875 171.16 40.921C170.583 40.9627 170.004 40.9929 169.431 41.0633L168.568 41.1568L167.708 41.2833C167.422 41.3207 167.139 41.3796 166.855 41.4356L166.428 41.5176C166.287 41.5478 166.147 41.5851 166.007 41.6168C165.866 41.6527 165.725 41.6843 165.585 41.7217L165.167 41.8424C164.89 41.9273 164.617 42.0221 164.351 42.1443L164.376 42.1917C164.637 42.0825 164.914 41.9963 165.19 41.9201L165.608 41.8108C165.748 41.7778 165.889 41.7533 166.03 41.7217C166.17 41.693 166.31 41.6613 166.451 41.6355L166.878 41.5665C167.162 41.5219 167.445 41.473 167.731 41.4457L168.59 41.3451L169.449 41.2804C170.023 41.2258 170.598 41.2157 171.173 41.1913C171.746 41.1568 172.323 41.1654 172.899 41.1582C173.187 41.1582 173.474 41.1525 173.762 41.1539L175.488 41.2013L175.919 41.2128L176.352 41.2387L178.074 41.3365C178.179 41.3422 178.284 41.3494 178.389 41.3566L178.524 40.9182C178.381 40.911 178.239 40.9052 178.098 40.9038L176.363 40.8449Z" fill="#CECCD8"/>
<defs>
<linearGradient id="paint0_linear_407_1782" x1="107.419" y1="24.9405" x2="184.207" y2="61.1089" gradientUnits="userSpaceOnUse">
<stop stop-color="white"/>
<stop offset="1" stop-color="#EDEEFF"/>
</linearGradient>
<linearGradient id="paint1_linear_407_1782" x1="191.214" y1="22.2213" x2="210.307" y2="74.5036" gradientUnits="userSpaceOnUse">
<stop stop-color="#CEE5DE"/>
<stop offset="1" stop-color="#B2B6F2"/>
</linearGradient>
<linearGradient id="paint2_linear_407_1782" x1="192.735" y1="51.0769" x2="170.058" y2="44.0217" gradientUnits="userSpaceOnUse">
<stop stop-color="white"/>
<stop offset="1" stop-color="#EDEEFF"/>
</linearGradient>
<linearGradient id="paint3_linear_407_1782" x1="206.138" y1="71.332" x2="141.521" y2="81.9877" gradientUnits="userSpaceOnUse">
<stop offset="0.00121702" stop-color="#C2D5E4"/>
<stop offset="1" stop-color="#C0C0D3"/>
</linearGradient>
<linearGradient id="paint4_linear_407_1782" x1="106.55" y1="71.633" x2="145.47" y2="71.633" gradientUnits="userSpaceOnUse">
<stop offset="0.00121702" stop-color="#C2D5E4"/>
<stop offset="1" stop-color="#C0C0D3"/>
</linearGradient>
<linearGradient id="paint5_linear_407_1782" x1="187.148" y1="13.9015" x2="213.286" y2="73.3517" gradientUnits="userSpaceOnUse">
<stop offset="0.00121702" stop-color="#C2D5E4"/>
<stop offset="0.3123" stop-color="#A8BACF"/>
<stop offset="1" stop-color="#7283A3"/>
</linearGradient>
<linearGradient id="paint6_linear_407_1782" x1="187.626" y1="14.5325" x2="213.776" y2="74.0119" gradientUnits="userSpaceOnUse">
<stop offset="0.00121702" stop-color="#C2D5E4"/>
<stop offset="0.3123" stop-color="#A8BACF"/>
<stop offset="1" stop-color="#7283A3"/>
</linearGradient>
<linearGradient id="paint7_linear_407_1782" x1="185.871" y1="12.5929" x2="212.008" y2="72.0431" gradientUnits="userSpaceOnUse">
<stop offset="0.00121702" stop-color="#C2D5E4"/>
<stop offset="0.3123" stop-color="#A8BACF"/>
<stop offset="1" stop-color="#7283A3"/>
</linearGradient>
<linearGradient id="paint8_linear_407_1782" x1="184.923" y1="11.7903" x2="211.06" y2="71.2405" gradientUnits="userSpaceOnUse">
<stop offset="0.00121702" stop-color="#C2D5E4"/>
<stop offset="0.3123" stop-color="#A8BACF"/>
<stop offset="1" stop-color="#7283A3"/>
</linearGradient>
<linearGradient id="paint9_linear_407_1782" x1="183.169" y1="10.4677" x2="209.307" y2="69.918" gradientUnits="userSpaceOnUse">
<stop offset="0.00121702" stop-color="#C2D5E4"/>
<stop offset="0.3123" stop-color="#A8BACF"/>
<stop offset="1" stop-color="#7283A3"/>
</linearGradient>
<linearGradient id="paint10_linear_407_1782" x1="177.847" y1="62.3586" x2="162.265" y2="88.3929" gradientUnits="userSpaceOnUse">
<stop offset="0.00121702" stop-color="#C2D5E4"/>
<stop offset="0.3123" stop-color="#A8BACF"/>
<stop offset="1" stop-color="#7283A3"/>
</linearGradient>
<linearGradient id="paint11_linear_407_1782" x1="176.843" y1="61.6036" x2="161.691" y2="86.9194" gradientUnits="userSpaceOnUse">
<stop offset="0.00121702" stop-color="#C2D5E4"/>
<stop offset="0.3123" stop-color="#A8BACF"/>
<stop offset="1" stop-color="#7283A3"/>
</linearGradient>
<linearGradient id="paint12_linear_407_1782" x1="175.667" y1="60.7894" x2="160.832" y2="85.5746" gradientUnits="userSpaceOnUse">
<stop offset="0.00121702" stop-color="#C2D5E4"/>
<stop offset="0.3123" stop-color="#A8BACF"/>
<stop offset="1" stop-color="#7283A3"/>
</linearGradient>
<linearGradient id="paint13_linear_407_1782" x1="178.68" y1="63.0158" x2="162.622" y2="89.8462" gradientUnits="userSpaceOnUse">
<stop offset="0.00121702" stop-color="#C2D5E4"/>
<stop offset="0.3123" stop-color="#A8BACF"/>
<stop offset="1" stop-color="#7283A3"/>
</linearGradient>
<linearGradient id="paint14_linear_407_1782" x1="144.249" y1="49.5919" x2="175.305" y2="49.5919" gradientUnits="userSpaceOnUse">
<stop stop-color="#475B80"/>
<stop offset="0.6559" stop-color="#2C3D51"/>
<stop offset="1" stop-color="#21313E"/>
</linearGradient>
</defs>
</svg>
