<svg width="323" height="247" viewBox="0 0 323 247" fill="none" xmlns="http://www.w3.org/2000/svg">
<path d="M291.493 46.086C291.78 46.086 291.99 45.8758 292.045 45.5774C292.829 39.5241 293.68 38.6069 299.667 37.9442C299.976 37.9112 300.187 37.6793 300.187 37.3918C300.187 37.1043 299.976 36.8837 299.667 36.8394C293.68 36.1767 292.829 35.26 292.045 29.2062C291.99 28.9079 291.78 28.709 291.493 28.709C291.205 28.709 290.996 28.9079 290.951 29.2062C290.167 35.26 289.306 36.1767 283.329 36.8394C283.009 36.8837 282.799 37.1048 282.799 37.3918C282.799 37.6793 283.009 37.9112 283.329 37.9442C289.294 38.7285 290.123 39.535 290.951 45.5774C290.996 45.8758 291.205 46.086 291.493 46.086Z" fill="#1E1E1E"/>
<path d="M8.61906 243.696C8.80389 243.696 8.93873 243.561 8.97418 243.369C9.47837 239.478 10.0253 238.888 13.8743 238.462C14.073 238.441 14.2082 238.292 14.2082 238.107C14.2082 237.922 14.073 237.781 13.8743 237.752C10.0253 237.326 9.47837 236.737 8.97418 232.845C8.93873 232.653 8.80389 232.525 8.61906 232.525C8.43424 232.525 8.29971 232.653 8.27122 232.845C7.76704 236.737 7.21316 237.326 3.37115 237.752C3.16511 237.781 3.03027 237.923 3.03027 238.107C3.03027 238.292 3.16511 238.441 3.37115 238.462C7.20588 238.967 7.73855 239.485 8.27122 243.369C8.29971 243.561 8.43454 243.696 8.61906 243.696Z" fill="#1E1E1E"/>
<mask id="path-3-inside-1_407_1845" fill="white">
<path d="M26.3945 106.007C26.3945 79.3444 26.3945 66.0132 34.6775 57.7302C42.9604 49.4473 56.2917 49.4473 82.9541 49.4473H246.034C272.697 49.4473 286.028 49.4473 294.311 57.7302C302.594 66.0132 302.594 79.3444 302.594 106.007V188.961C302.594 215.623 302.594 228.954 294.311 237.237C286.028 245.52 272.697 245.52 246.034 245.52H82.9541C56.2917 245.52 42.9604 245.52 34.6775 237.237C26.3945 228.954 26.3945 215.623 26.3945 188.961V106.007Z"/>
</mask>
<path d="M26.3945 106.007C26.3945 79.3444 26.3945 66.0132 34.6775 57.7302C42.9604 49.4473 56.2917 49.4473 82.9541 49.4473H246.034C272.697 49.4473 286.028 49.4473 294.311 57.7302C302.594 66.0132 302.594 79.3444 302.594 106.007V188.961C302.594 215.623 302.594 228.954 294.311 237.237C286.028 245.52 272.697 245.52 246.034 245.52H82.9541C56.2917 245.52 42.9604 245.52 34.6775 237.237C26.3945 228.954 26.3945 215.623 26.3945 188.961V106.007Z" fill="#F5E7FF"/>
<path d="M26.3945 49.4473H302.594H26.3945ZM303.536 217.241C303.536 233.38 290.453 246.463 274.314 246.463H55.617C39.4779 246.463 26.3945 233.38 26.3945 217.241C26.3945 232.338 39.0558 244.578 54.6743 244.578H274.314C289.412 244.578 301.651 232.338 301.651 217.241H303.536ZM26.3945 245.52V49.4473V245.52ZM274.314 49.4473C290.453 49.4473 303.536 62.5306 303.536 78.6697V217.241C303.536 233.38 290.453 246.463 274.314 246.463V244.578C289.412 244.578 301.651 232.338 301.651 217.241V77.727C301.651 62.1086 289.412 49.4473 274.314 49.4473Z" fill="#1A1A1A" mask="url(#path-3-inside-1_407_1845)"/>
<rect x="19.3248" y="42.3776" width="271.486" height="193.245" rx="27.8084" stroke="#1A1A1A" stroke-width="0.942659"/>
<path d="M76.4085 114.809V114.851C77.8365 115.46 78.6345 116.594 78.6345 118.169C78.6345 120.689 76.5555 122.159 73.1115 122.159C71.1165 122.159 69.3105 121.613 68.3445 120.731V118.211H68.4705C69.4155 119.345 71.1795 120.038 73.0695 120.038C75.0855 120.038 76.2405 119.261 76.2405 117.833C76.2405 116.51 75.2745 115.922 73.0905 115.922H71.0535V113.864H72.8175C75.0225 113.864 75.9885 113.297 75.9885 112.037C75.9885 110.651 74.8965 109.916 72.9645 109.916C71.3895 109.916 69.7725 110.567 68.7645 111.638H68.6385V109.118C69.7095 108.278 71.4315 107.795 73.1955 107.795C76.4085 107.795 78.3615 109.244 78.3615 111.68C78.3615 113.129 77.6685 114.2 76.4085 114.809ZM82.8427 119.261C83.6827 119.261 84.2917 119.891 84.2917 120.71C84.2917 121.529 83.6827 122.159 82.8427 122.159C82.0237 122.159 81.3937 121.529 81.3937 120.71C81.3937 119.891 82.0237 119.261 82.8427 119.261ZM93.079 107.795C95.032 107.795 96.376 108.194 97.489 109.034V111.785H97.363C96.418 110.651 94.948 110.042 93.184 110.042C90.202 110.042 88.207 112.037 88.207 114.977C88.207 117.917 90.202 119.912 93.184 119.912C94.927 119.912 96.397 119.324 97.363 118.169H97.489V120.92C96.355 121.739 94.99 122.159 93.079 122.159C88.648 122.159 85.666 119.177 85.666 114.977C85.666 110.777 88.648 107.795 93.079 107.795ZM104.43 111.89C107.496 111.89 109.68 114.011 109.68 117.035C109.68 120.038 107.496 122.159 104.43 122.159C101.364 122.159 99.2012 120.038 99.2012 117.035C99.2012 114.011 101.364 111.89 104.43 111.89ZM104.43 113.885C102.666 113.885 101.448 115.166 101.448 117.035C101.448 118.862 102.666 120.164 104.43 120.164C106.215 120.164 107.433 118.862 107.433 117.035C107.433 115.166 106.215 113.885 104.43 113.885ZM117.017 111.89C119.474 111.89 120.965 113.486 120.965 116.174V121.949H118.739V116.426C118.739 114.809 117.878 113.885 116.45 113.885C114.875 113.885 113.93 114.956 113.93 116.783V121.949H111.704V112.1H113.573L113.657 113.612H113.699C114.329 112.499 115.463 111.89 117.017 111.89ZM133.139 125.939H130.913V120.92H130.871C130.136 121.697 129.044 122.159 127.637 122.159C124.823 122.159 122.765 120.017 122.765 117.035C122.765 114.053 124.823 111.89 127.637 111.89C129.233 111.89 130.472 112.499 131.186 113.507H131.228L131.291 112.1H133.139V125.939ZM127.994 120.164C129.758 120.164 130.976 118.862 130.976 117.035C130.976 115.166 129.758 113.885 127.994 113.885C126.23 113.885 125.012 115.166 125.012 117.035C125.012 118.862 126.23 120.164 127.994 120.164ZM144.769 121.949H142.9L142.816 120.458H142.774C142.144 121.55 141.031 122.159 139.477 122.159C136.999 122.159 135.529 120.563 135.529 117.875V112.1H137.755V117.623C137.755 119.219 138.595 120.164 140.044 120.164C141.619 120.164 142.543 119.072 142.543 117.266V112.1H144.769V121.949ZM156.901 117.707H149.068C149.341 119.282 150.685 120.206 152.638 120.206C154.087 120.206 155.305 119.765 156.187 118.925H156.292V121.13C155.452 121.781 154.108 122.159 152.554 122.159C149.11 122.159 146.8 120.101 146.8 117.035C146.8 114.011 148.921 111.89 151.924 111.89C154.969 111.89 156.901 113.738 156.901 116.615V117.707ZM151.987 113.843C150.58 113.843 149.341 114.725 149.068 116.048H154.843C154.654 114.704 153.52 113.843 151.987 113.843ZM163.933 111.89C164.563 111.89 165.088 112.058 165.403 112.268V114.473H165.298C164.878 114.179 164.353 114.011 163.744 114.011C161.98 114.011 161.119 115.187 161.119 117.581V121.949H158.893V112.1H160.762L160.846 113.612H160.888C161.455 112.478 162.463 111.89 163.933 111.89ZM185.532 114.977C185.532 117.287 184.629 119.24 183.075 120.521L185.448 123.545H182.697L181.206 121.634C180.303 121.97 179.316 122.159 178.245 122.159C173.961 122.159 170.958 119.177 170.958 114.977C170.958 110.777 173.961 107.795 178.245 107.795C182.529 107.795 185.532 110.777 185.532 114.977ZM178.245 119.912C178.77 119.912 179.253 119.849 179.715 119.723L177.258 116.573H180.009L181.605 118.61C182.487 117.749 182.991 116.468 182.991 114.977C182.991 112.058 181.059 110.042 178.245 110.042C175.431 110.042 173.499 112.058 173.499 114.977C173.499 117.896 175.431 119.912 178.245 119.912ZM196.531 121.949H194.662L194.578 120.458H194.536C193.906 121.55 192.793 122.159 191.239 122.159C188.761 122.159 187.291 120.563 187.291 117.875V112.1H189.517V117.623C189.517 119.219 190.357 120.164 191.806 120.164C193.381 120.164 194.305 119.072 194.305 117.266V112.1H196.531V121.949ZM200.263 107.606C201.124 107.606 201.691 108.194 201.691 109.034C201.691 109.874 201.124 110.441 200.263 110.441C199.423 110.441 198.856 109.874 198.856 109.034C198.856 108.194 199.423 107.606 200.263 107.606ZM199.15 112.1H201.376V121.949H199.15V112.1ZM203.569 121.949V120.164L209.092 114.032H203.884V112.1H212.095V113.885L206.572 120.017H212.2V121.949H203.569ZM213.884 121.949V120.164L219.407 114.032H214.199V112.1H222.41V113.885L216.887 120.017H222.515V121.949H213.884ZM233.887 117.707H226.054C226.327 119.282 227.671 120.206 229.624 120.206C231.073 120.206 232.291 119.765 233.173 118.925H233.278V121.13C232.438 121.781 231.094 122.159 229.54 122.159C226.096 122.159 223.786 120.101 223.786 117.035C223.786 114.011 225.907 111.89 228.91 111.89C231.955 111.89 233.887 113.738 233.887 116.615V117.707ZM228.973 113.843C227.566 113.843 226.327 114.725 226.054 116.048H231.829C231.64 114.704 230.506 113.843 228.973 113.843ZM239.344 111.89C240.625 111.89 241.78 112.142 242.494 112.604V114.893H242.389C241.717 114.2 240.688 113.843 239.407 113.843C238.336 113.843 237.58 114.326 237.58 115.019C237.58 115.586 238.021 115.838 239.47 115.922C242.095 116.069 243.124 117.035 243.124 119.03C243.124 120.962 241.633 122.159 239.176 122.159C237.538 122.159 236.257 121.823 235.438 121.193V118.862H235.543C236.362 119.744 237.559 120.206 239.071 120.206C240.226 120.206 240.94 119.744 240.94 119.03C240.94 118.379 240.499 118.085 238.903 117.959C236.341 117.749 235.396 116.951 235.396 115.082C235.396 113.15 236.971 111.89 239.344 111.89Z" fill="#1A1A1A"/>
<path d="M52.3394 140.277H57.5054C60.3134 140.277 61.7714 141.555 61.7714 144.039C61.7714 146.523 60.3134 147.819 57.5054 147.819H54.0674V152.229H52.3394V140.277ZM54.0674 146.289H57.4334C59.1614 146.289 60.0254 145.533 60.0254 144.039C60.0254 142.545 59.1614 141.807 57.4334 141.807H54.0674V146.289ZM71.1285 152.229H69.8325L69.7965 150.897H69.7605C69.1845 151.851 68.1585 152.409 66.7365 152.409C64.5945 152.409 63.2805 151.023 63.2805 148.701V143.805H64.8105V148.539C64.8105 150.123 65.6745 151.041 67.0965 151.041C68.6625 151.041 69.5985 149.961 69.5985 148.179V143.805H71.1285V152.229ZM78.3584 150.555V152.103C77.9804 152.301 77.4764 152.409 76.8284 152.409C75.0644 152.409 74.0744 151.365 74.0744 149.475V145.137H72.5264V143.805H74.1104L74.3444 141.519H75.6044V143.805H78.3224V145.137H75.6044V149.439C75.6044 150.447 76.1444 151.041 77.0444 151.041C77.5124 151.041 77.9444 150.915 78.2864 150.555H78.3584ZM88.9932 150.555V152.103C88.6152 152.301 88.1112 152.409 87.4632 152.409C85.6992 152.409 84.7092 151.365 84.7092 149.475V145.137H83.1612V143.805H84.7452L84.9792 141.519H86.2392V143.805H88.9572V145.137H86.2392V149.439C86.2392 150.447 86.7792 151.041 87.6792 151.041C88.1472 151.041 88.5792 150.915 88.9212 150.555H88.9932ZM95.2049 143.625C97.3469 143.625 98.6609 145.029 98.6609 147.333V152.229H97.1309V147.513C97.1309 145.929 96.2669 144.993 94.8449 144.993C93.2789 144.993 92.3429 146.073 92.3429 147.855V152.229H90.8129V139.629H92.3429V144.849H92.3789C92.9729 144.057 93.9629 143.625 95.2049 143.625ZM108.933 148.521H101.823C102.039 150.087 103.299 151.041 105.207 151.041C106.449 151.041 107.529 150.645 108.321 149.889H108.393V151.437C107.637 152.049 106.485 152.409 105.171 152.409C102.201 152.409 100.275 150.663 100.275 148.017C100.275 145.443 102.093 143.625 104.667 143.625C107.259 143.625 108.933 145.227 108.933 147.675V148.521ZM104.685 144.993C103.245 144.993 102.111 145.893 101.823 147.243H107.511C107.295 145.875 106.215 144.993 104.685 144.993ZM111.502 140.151C112.096 140.151 112.51 140.565 112.51 141.159C112.51 141.753 112.096 142.167 111.502 142.167C110.908 142.167 110.494 141.753 110.494 141.159C110.494 140.565 110.908 140.151 111.502 140.151ZM110.746 152.229V143.805H112.276V152.229H110.746ZM118.663 143.625C119.221 143.625 119.653 143.769 119.941 143.949V145.479H119.869C119.509 145.227 119.059 145.083 118.555 145.083C116.935 145.083 116.161 146.199 116.161 148.395V152.229H114.631V143.805H115.927L115.963 145.155H115.999C116.503 144.147 117.385 143.625 118.663 143.625ZM126.831 148.467V152.229H125.301V139.629H126.831V147.477L130.611 143.805H132.609L128.289 147.927L132.789 152.229H130.701L126.831 148.467ZM138.605 143.625C140.747 143.625 142.061 145.029 142.061 147.333V152.229H140.531V147.513C140.531 145.929 139.667 144.993 138.245 144.993C136.679 144.993 135.743 146.073 135.743 147.855V152.229H134.213V143.805H135.509L135.545 145.137H135.581C136.157 144.183 137.183 143.625 138.605 143.625ZM148.139 143.625C150.749 143.625 152.603 145.443 152.603 148.017C152.603 150.591 150.749 152.409 148.139 152.409C145.529 152.409 143.675 150.591 143.675 148.017C143.675 145.443 145.529 143.625 148.139 143.625ZM148.139 144.993C146.411 144.993 145.223 146.235 145.223 148.017C145.223 149.799 146.411 151.041 148.139 151.041C149.849 151.041 151.055 149.799 151.055 148.017C151.055 146.235 149.849 144.993 148.139 144.993ZM163.559 152.229H162.065L159.887 146.055H159.851L157.655 152.229H156.161L153.191 143.805H154.829L156.935 150.303H156.971L159.275 143.805H160.517L162.821 150.285H162.857L164.981 143.805H166.529L163.559 152.229ZM167.858 152.229V139.629H169.388V152.229H167.858ZM179.878 148.521H172.768C172.984 150.087 174.244 151.041 176.152 151.041C177.394 151.041 178.474 150.645 179.266 149.889H179.338V151.437C178.582 152.049 177.43 152.409 176.116 152.409C173.146 152.409 171.22 150.663 171.22 148.017C171.22 145.443 173.038 143.625 175.612 143.625C178.204 143.625 179.878 145.227 179.878 147.675V148.521ZM175.63 144.993C174.19 144.993 173.056 145.893 172.768 147.243H178.456C178.24 145.875 177.16 144.993 175.63 144.993ZM190.008 152.229H188.712L188.658 150.897H188.622C187.992 151.833 186.84 152.409 185.364 152.409C182.916 152.409 181.152 150.573 181.152 148.017C181.152 145.461 182.916 143.625 185.364 143.625C186.732 143.625 187.776 144.093 188.442 144.903H188.478V139.629H190.008V152.229ZM185.616 151.041C187.326 151.041 188.532 149.799 188.532 148.017C188.532 146.235 187.326 144.993 185.616 144.993C183.888 144.993 182.7 146.235 182.7 148.017C182.7 149.799 183.888 151.041 185.616 151.041ZM200.695 143.805V151.563C200.695 154.227 199.003 155.829 196.141 155.829C194.665 155.829 193.405 155.415 192.631 154.713V153.111H192.703C193.387 153.957 194.593 154.461 195.979 154.461C198.013 154.461 199.165 153.399 199.165 151.473V151.059H199.129C198.463 151.869 197.419 152.337 196.051 152.337C193.603 152.337 191.839 150.537 191.839 147.981C191.839 145.425 193.603 143.625 196.051 143.625C197.527 143.625 198.679 144.201 199.309 145.155H199.345L199.399 143.805H200.695ZM196.303 150.969C198.013 150.969 199.219 149.763 199.219 147.981C199.219 146.199 198.013 144.993 196.303 144.993C194.575 144.993 193.387 146.199 193.387 147.981C193.387 149.763 194.575 150.969 196.303 150.969ZM211.185 148.521H204.075C204.291 150.087 205.551 151.041 207.459 151.041C208.701 151.041 209.781 150.645 210.573 149.889H210.645V151.437C209.889 152.049 208.737 152.409 207.423 152.409C204.453 152.409 202.527 150.663 202.527 148.017C202.527 145.443 204.345 143.625 206.919 143.625C209.511 143.625 211.185 145.227 211.185 147.675V148.521ZM206.937 144.993C205.497 144.993 204.363 145.893 204.075 147.243H209.763C209.547 145.875 208.467 144.993 206.937 144.993ZM221.814 150.555V152.103C221.436 152.301 220.932 152.409 220.284 152.409C218.52 152.409 217.53 151.365 217.53 149.475V145.137H215.982V143.805H217.566L217.8 141.519H219.06V143.805H221.778V145.137H219.06V149.439C219.06 150.447 219.6 151.041 220.5 151.041C220.968 151.041 221.4 150.915 221.742 150.555H221.814ZM227.469 143.625C230.079 143.625 231.933 145.443 231.933 148.017C231.933 150.591 230.079 152.409 227.469 152.409C224.859 152.409 223.005 150.591 223.005 148.017C223.005 145.443 224.859 143.625 227.469 143.625ZM227.469 144.993C225.741 144.993 224.553 146.235 224.553 148.017C224.553 149.799 225.741 151.041 227.469 151.041C229.179 151.041 230.385 149.799 230.385 148.017C230.385 146.235 229.179 144.993 227.469 144.993ZM242.591 150.555V152.103C242.213 152.301 241.709 152.409 241.061 152.409C239.297 152.409 238.307 151.365 238.307 149.475V145.137H236.759V143.805H238.343L238.577 141.519H239.837V143.805H242.555V145.137H239.837V149.439C239.837 150.447 240.377 151.041 241.277 151.041C241.745 151.041 242.177 150.915 242.519 150.555H242.591ZM248.803 143.625C250.945 143.625 252.259 145.029 252.259 147.333V152.229H250.729V147.513C250.729 145.929 249.865 144.993 248.443 144.993C246.877 144.993 245.941 146.073 245.941 147.855V152.229H244.411V139.629H245.941V144.849H245.977C246.571 144.057 247.561 143.625 248.803 143.625ZM262.53 148.521H255.42C255.636 150.087 256.896 151.041 258.804 151.041C260.046 151.041 261.126 150.645 261.918 149.889H261.99V151.437C261.234 152.049 260.082 152.409 258.768 152.409C255.798 152.409 253.872 150.663 253.872 148.017C253.872 145.443 255.69 143.625 258.264 143.625C260.856 143.625 262.53 145.227 262.53 147.675V148.521ZM258.282 144.993C256.842 144.993 255.708 145.893 255.42 147.243H261.108C260.892 145.875 259.812 144.993 258.282 144.993ZM59.5323 172.555V174.103C59.1543 174.301 58.6503 174.409 58.0023 174.409C56.2383 174.409 55.2483 173.365 55.2483 171.475V167.137H53.7003V165.805H55.2843L55.5183 163.519H56.7783V165.805H59.4963V167.137H56.7783V171.439C56.7783 172.447 57.3183 173.041 58.2183 173.041C58.6863 173.041 59.1183 172.915 59.4603 172.555H59.5323ZM69.3821 170.521H62.2721C62.4881 172.087 63.7481 173.041 65.6561 173.041C66.8981 173.041 67.9781 172.645 68.7701 171.889H68.8421V173.437C68.0861 174.049 66.9341 174.409 65.6201 174.409C62.6501 174.409 60.7241 172.663 60.7241 170.017C60.7241 167.443 62.5421 165.625 65.1161 165.625C67.7081 165.625 69.3821 167.227 69.3821 169.675V170.521ZM65.1341 166.993C63.6941 166.993 62.5601 167.893 62.2721 169.243H67.9601C67.7441 167.875 66.6641 166.993 65.1341 166.993ZM74.0037 165.625C75.1197 165.625 76.1277 165.859 76.7577 166.273V167.893H76.6857C76.1097 167.299 75.2097 166.993 74.0397 166.993C72.9597 166.993 72.2577 167.497 72.2577 168.253C72.2577 168.865 72.7077 169.153 74.1117 169.225C76.4157 169.351 77.2617 170.125 77.2617 171.781C77.2617 173.401 75.9837 174.409 73.9317 174.409C72.5277 174.409 71.4297 174.103 70.7277 173.527V171.871H70.7997C71.4837 172.645 72.5277 173.041 73.8777 173.041C75.0297 173.041 75.7497 172.555 75.7497 171.781C75.7497 171.097 75.2817 170.773 73.7697 170.683C71.5557 170.539 70.7457 169.837 70.7457 168.307C70.7457 166.705 72.0417 165.625 74.0037 165.625ZM83.7022 172.555V174.103C83.3242 174.301 82.8202 174.409 82.1722 174.409C80.4082 174.409 79.4182 173.365 79.4182 171.475V167.137H77.8702V165.805H79.4542L79.6882 163.519H80.9482V165.805H83.6662V167.137H80.9482V171.439C80.9482 172.447 81.4882 173.041 82.3882 173.041C82.8562 173.041 83.2882 172.915 83.6302 172.555H83.7022ZM84.6219 176.497L86.0259 172.501H87.6099L85.8639 176.497H84.6219ZM102.113 170.521H95.0025C95.2185 172.087 96.4785 173.041 98.3865 173.041C99.6285 173.041 100.709 172.645 101.501 171.889H101.573V173.437C100.817 174.049 99.6645 174.409 98.3505 174.409C95.3805 174.409 93.4545 172.663 93.4545 170.017C93.4545 167.443 95.2725 165.625 97.8465 165.625C100.439 165.625 102.113 167.227 102.113 169.675V170.521ZM97.8645 166.993C96.4245 166.993 95.2905 167.893 95.0025 169.243H100.691C100.475 167.875 99.3945 166.993 97.8645 166.993ZM112.242 174.229H110.946L110.892 172.897H110.856C110.226 173.833 109.074 174.409 107.598 174.409C105.15 174.409 103.386 172.573 103.386 170.017C103.386 167.461 105.15 165.625 107.598 165.625C109.074 165.625 110.226 166.201 110.856 167.155H110.892L110.946 165.805H112.242V174.229ZM107.85 173.041C109.56 173.041 110.766 171.799 110.766 170.017C110.766 168.235 109.56 166.993 107.85 166.993C106.122 166.993 104.934 168.235 104.934 170.017C104.934 171.799 106.122 173.041 107.85 173.041ZM118.646 165.625C119.204 165.625 119.636 165.769 119.924 165.949V167.479H119.852C119.492 167.227 119.042 167.083 118.538 167.083C116.918 167.083 116.144 168.199 116.144 170.395V174.229H114.614V165.805H115.91L115.946 167.155H115.982C116.486 166.147 117.368 165.625 118.646 165.625ZM125.721 165.625C127.863 165.625 129.177 167.029 129.177 169.333V174.229H127.647V169.513C127.647 167.929 126.783 166.993 125.361 166.993C123.795 166.993 122.859 168.073 122.859 169.855V174.229H121.329V165.805H122.625L122.661 167.137H122.697C123.273 166.183 124.299 165.625 125.721 165.625ZM139.912 165.625C142.36 165.625 144.142 167.461 144.142 170.017C144.142 172.573 142.36 174.409 139.912 174.409C138.562 174.409 137.518 173.941 136.852 173.149H136.816V177.649H135.286V165.805H136.582L136.618 167.137H136.654C137.302 166.201 138.436 165.625 139.912 165.625ZM139.678 173.041C141.388 173.041 142.594 171.799 142.594 170.017C142.594 168.235 141.388 166.993 139.678 166.993C137.95 166.993 136.762 168.235 136.762 170.017C136.762 171.799 137.95 173.041 139.678 173.041ZM149.897 165.625C152.507 165.625 154.361 167.443 154.361 170.017C154.361 172.591 152.507 174.409 149.897 174.409C147.287 174.409 145.433 172.591 145.433 170.017C145.433 167.443 147.287 165.625 149.897 165.625ZM149.897 166.993C148.169 166.993 146.981 168.235 146.981 170.017C146.981 171.799 148.169 173.041 149.897 173.041C151.607 173.041 152.813 171.799 152.813 170.017C152.813 168.235 151.607 166.993 149.897 166.993ZM156.96 162.151C157.554 162.151 157.968 162.565 157.968 163.159C157.968 163.753 157.554 164.167 156.96 164.167C156.366 164.167 155.952 163.753 155.952 163.159C155.952 162.565 156.366 162.151 156.96 162.151ZM156.204 174.229V165.805H157.734V174.229H156.204ZM164.48 165.625C166.622 165.625 167.936 167.029 167.936 169.333V174.229H166.406V169.513C166.406 167.929 165.542 166.993 164.12 166.993C162.554 166.993 161.618 168.073 161.618 169.855V174.229H160.088V165.805H161.384L161.42 167.137H161.456C162.032 166.183 163.058 165.625 164.48 165.625ZM174.933 172.555V174.103C174.555 174.301 174.051 174.409 173.403 174.409C171.639 174.409 170.649 173.365 170.649 171.475V167.137H169.101V165.805H170.685L170.919 163.519H172.179V165.805H174.897V167.137H172.179V171.439C172.179 172.447 172.719 173.041 173.619 173.041C174.087 173.041 174.519 172.915 174.861 172.555H174.933ZM179.508 165.625C180.624 165.625 181.632 165.859 182.262 166.273V167.893H182.19C181.614 167.299 180.714 166.993 179.544 166.993C178.464 166.993 177.762 167.497 177.762 168.253C177.762 168.865 178.212 169.153 179.616 169.225C181.92 169.351 182.766 170.125 182.766 171.781C182.766 173.401 181.488 174.409 179.436 174.409C178.032 174.409 176.934 174.103 176.232 173.527V171.871H176.304C176.988 172.645 178.032 173.041 179.382 173.041C180.534 173.041 181.254 172.555 181.254 171.781C181.254 171.097 180.786 170.773 179.274 170.683C177.06 170.539 176.25 169.837 176.25 168.307C176.25 166.705 177.546 165.625 179.508 165.625ZM183.569 176.497L184.973 172.501H186.557L184.811 176.497H183.569ZM201.258 174.229H199.962L199.908 172.897H199.872C199.242 173.833 198.09 174.409 196.614 174.409C194.166 174.409 192.402 172.573 192.402 170.017C192.402 167.461 194.166 165.625 196.614 165.625C198.09 165.625 199.242 166.201 199.872 167.155H199.908L199.962 165.805H201.258V174.229ZM196.866 173.041C198.576 173.041 199.782 171.799 199.782 170.017C199.782 168.235 198.576 166.993 196.866 166.993C195.138 166.993 193.95 168.235 193.95 170.017C193.95 171.799 195.138 173.041 196.866 173.041ZM208.021 165.625C210.163 165.625 211.477 167.029 211.477 169.333V174.229H209.947V169.513C209.947 167.929 209.083 166.993 207.661 166.993C206.095 166.993 205.159 168.073 205.159 169.855V174.229H203.629V165.805H204.925L204.961 167.137H204.997C205.573 166.183 206.599 165.625 208.021 165.625ZM221.947 174.229H220.651L220.597 172.897H220.561C219.931 173.833 218.779 174.409 217.303 174.409C214.855 174.409 213.091 172.573 213.091 170.017C213.091 167.461 214.855 165.625 217.303 165.625C218.671 165.625 219.715 166.093 220.381 166.903H220.417V161.629H221.947V174.229ZM217.555 173.041C219.265 173.041 220.471 171.799 220.471 170.017C220.471 168.235 219.265 166.993 217.555 166.993C215.827 166.993 214.639 168.235 214.639 170.017C214.639 171.799 215.827 173.041 217.555 173.041ZM231.676 161.449C232.378 161.449 232.972 161.575 233.332 161.755V163.195H233.26C232.9 162.961 232.378 162.817 231.892 162.817C230.938 162.817 230.398 163.393 230.398 164.473V165.805H233.098V167.137H230.398V174.229H228.85V167.137H227.302V165.805H228.85V164.437C228.85 162.529 229.858 161.449 231.676 161.449ZM242.193 170.521H235.083C235.299 172.087 236.559 173.041 238.467 173.041C239.709 173.041 240.789 172.645 241.581 171.889H241.653V173.437C240.897 174.049 239.745 174.409 238.431 174.409C235.461 174.409 233.535 172.663 233.535 170.017C233.535 167.443 235.353 165.625 237.927 165.625C240.519 165.625 242.193 167.227 242.193 169.675V170.521ZM237.945 166.993C236.505 166.993 235.371 167.893 235.083 169.243H240.771C240.555 167.875 239.475 166.993 237.945 166.993ZM252.124 170.521H245.014C245.23 172.087 246.49 173.041 248.398 173.041C249.64 173.041 250.72 172.645 251.512 171.889H251.584V173.437C250.828 174.049 249.676 174.409 248.362 174.409C245.392 174.409 243.466 172.663 243.466 170.017C243.466 167.443 245.284 165.625 247.858 165.625C250.45 165.625 252.124 167.227 252.124 169.675V170.521ZM247.876 166.993C246.436 166.993 245.302 167.893 245.014 169.243H250.702C250.486 167.875 249.406 166.993 247.876 166.993ZM253.938 174.229V161.629H255.468V174.229H253.938ZM78.8946 194.555V196.103C78.5166 196.301 78.0126 196.409 77.3646 196.409C75.6006 196.409 74.6106 195.365 74.6106 193.475V189.137H73.0626V187.805H74.6466L74.8806 185.519H76.1406V187.805H78.8586V189.137H76.1406V193.439C76.1406 194.447 76.6806 195.041 77.5806 195.041C78.0486 195.041 78.4806 194.915 78.8226 194.555H78.8946ZM85.1063 187.625C87.2483 187.625 88.5623 189.029 88.5623 191.333V196.229H87.0323V191.513C87.0323 189.929 86.1683 188.993 84.7463 188.993C83.1803 188.993 82.2443 190.073 82.2443 191.855V196.229H80.7143V183.629H82.2443V188.849H82.2803C82.8743 188.057 83.8643 187.625 85.1063 187.625ZM98.8342 192.521H91.7242C91.9402 194.087 93.2002 195.041 95.1082 195.041C96.3502 195.041 97.4302 194.645 98.2222 193.889H98.2942V195.437C97.5382 196.049 96.3862 196.409 95.0722 196.409C92.1022 196.409 90.1762 194.663 90.1762 192.017C90.1762 189.443 91.9942 187.625 94.5682 187.625C97.1602 187.625 98.8342 189.227 98.8342 191.675V192.521ZM94.5862 188.993C93.1462 188.993 92.0122 189.893 91.7242 191.243H97.4122C97.1962 189.875 96.1162 188.993 94.5862 188.993ZM109.463 194.555V196.103C109.085 196.301 108.581 196.409 107.933 196.409C106.169 196.409 105.179 195.365 105.179 193.475V189.137H103.631V187.805H105.215L105.449 185.519H106.709V187.805H109.427V189.137H106.709V193.439C106.709 194.447 107.249 195.041 108.149 195.041C108.617 195.041 109.049 194.915 109.391 194.555H109.463ZM115.675 187.625C117.817 187.625 119.131 189.029 119.131 191.333V196.229H117.601V191.513C117.601 189.929 116.737 188.993 115.315 188.993C113.749 188.993 112.813 190.073 112.813 191.855V196.229H111.283V183.629H112.813V188.849H112.849C113.443 188.057 114.433 187.625 115.675 187.625ZM125.317 187.625C125.875 187.625 126.307 187.769 126.595 187.949V189.479H126.523C126.163 189.227 125.713 189.083 125.209 189.083C123.589 189.083 122.815 190.199 122.815 192.395V196.229H121.285V187.805H122.581L122.617 189.155H122.653C123.157 188.147 124.039 187.625 125.317 187.625ZM128.755 184.151C129.349 184.151 129.763 184.565 129.763 185.159C129.763 185.753 129.349 186.167 128.755 186.167C128.161 186.167 127.747 185.753 127.747 185.159C127.747 184.565 128.161 184.151 128.755 184.151ZM127.999 196.229V187.805H129.529V196.229H127.999ZM131.884 196.229V183.629H133.414V196.229H131.884ZM135.787 196.229V183.629H137.317V196.229H135.787ZM147.568 187.625C150.178 187.625 152.032 189.443 152.032 192.017C152.032 194.591 150.178 196.409 147.568 196.409C144.958 196.409 143.104 194.591 143.104 192.017C143.104 189.443 144.958 187.625 147.568 187.625ZM147.568 188.993C145.84 188.993 144.652 190.235 144.652 192.017C144.652 193.799 145.84 195.041 147.568 195.041C149.278 195.041 150.484 193.799 150.484 192.017C150.484 190.235 149.278 188.993 147.568 188.993ZM157.118 183.449C157.82 183.449 158.414 183.575 158.774 183.755V185.195H158.702C158.342 184.961 157.82 184.817 157.334 184.817C156.38 184.817 155.84 185.393 155.84 186.473V187.805H158.54V189.137H155.84V196.229H154.292V189.137H152.744V187.805H154.292V186.437C154.292 184.529 155.3 183.449 157.118 183.449ZM168.52 187.625C170.968 187.625 172.75 189.461 172.75 192.017C172.75 194.573 170.968 196.409 168.52 196.409C167.17 196.409 166.126 195.941 165.46 195.149H165.424V199.649H163.894V187.805H165.19L165.226 189.137H165.262C165.91 188.201 167.044 187.625 168.52 187.625ZM168.286 195.041C169.996 195.041 171.202 193.799 171.202 192.017C171.202 190.235 169.996 188.993 168.286 188.993C166.558 188.993 165.37 190.235 165.37 192.017C165.37 193.799 166.558 195.041 168.286 195.041ZM178.613 187.625C179.171 187.625 179.603 187.769 179.891 187.949V189.479H179.819C179.459 189.227 179.009 189.083 178.505 189.083C176.885 189.083 176.111 190.199 176.111 192.395V196.229H174.581V187.805H175.877L175.913 189.155H175.949C176.453 188.147 177.335 187.625 178.613 187.625ZM185.027 187.625C187.637 187.625 189.491 189.443 189.491 192.017C189.491 194.591 187.637 196.409 185.027 196.409C182.417 196.409 180.563 194.591 180.563 192.017C180.563 189.443 182.417 187.625 185.027 187.625ZM185.027 188.993C183.299 188.993 182.111 190.235 182.111 192.017C182.111 193.799 183.299 195.041 185.027 195.041C186.737 195.041 187.943 193.799 187.943 192.017C187.943 190.235 186.737 188.993 185.027 188.993ZM199.649 187.805V195.563C199.649 198.227 197.957 199.829 195.095 199.829C193.619 199.829 192.359 199.415 191.585 198.713V197.111H191.657C192.341 197.957 193.547 198.461 194.933 198.461C196.967 198.461 198.119 197.399 198.119 195.473V195.059H198.083C197.417 195.869 196.373 196.337 195.005 196.337C192.557 196.337 190.793 194.537 190.793 191.981C190.793 189.425 192.557 187.625 195.005 187.625C196.481 187.625 197.633 188.201 198.263 189.155H198.299L198.353 187.805H199.649ZM195.257 194.969C196.967 194.969 198.173 193.763 198.173 191.981C198.173 190.199 196.967 188.993 195.257 188.993C193.529 188.993 192.341 190.199 192.341 191.981C192.341 193.763 193.529 194.969 195.257 194.969ZM206.053 187.625C206.611 187.625 207.043 187.769 207.331 187.949V189.479H207.259C206.899 189.227 206.449 189.083 205.945 189.083C204.325 189.083 203.551 190.199 203.551 192.395V196.229H202.021V187.805H203.317L203.353 189.155H203.389C203.893 188.147 204.775 187.625 206.053 187.625ZM216.66 192.521H209.55C209.766 194.087 211.026 195.041 212.934 195.041C214.176 195.041 215.256 194.645 216.048 193.889H216.12V195.437C215.364 196.049 214.212 196.409 212.898 196.409C209.928 196.409 208.002 194.663 208.002 192.017C208.002 189.443 209.82 187.625 212.394 187.625C214.986 187.625 216.66 189.227 216.66 191.675V192.521ZM212.412 188.993C210.972 188.993 209.838 189.893 209.55 191.243H215.238C215.022 189.875 213.942 188.993 212.412 188.993ZM221.282 187.625C222.398 187.625 223.406 187.859 224.036 188.273V189.893H223.964C223.388 189.299 222.488 188.993 221.318 188.993C220.238 188.993 219.536 189.497 219.536 190.253C219.536 190.865 219.986 191.153 221.39 191.225C223.694 191.351 224.54 192.125 224.54 193.781C224.54 195.401 223.262 196.409 221.21 196.409C219.806 196.409 218.708 196.103 218.006 195.527V193.871H218.078C218.762 194.645 219.806 195.041 221.156 195.041C222.308 195.041 223.028 194.555 223.028 193.781C223.028 193.097 222.56 192.773 221.048 192.683C218.834 192.539 218.024 191.837 218.024 190.307C218.024 188.705 219.32 187.625 221.282 187.625ZM228.999 187.625C230.115 187.625 231.123 187.859 231.753 188.273V189.893H231.681C231.105 189.299 230.205 188.993 229.035 188.993C227.955 188.993 227.253 189.497 227.253 190.253C227.253 190.865 227.703 191.153 229.107 191.225C231.411 191.351 232.257 192.125 232.257 193.781C232.257 195.401 230.979 196.409 228.927 196.409C227.523 196.409 226.425 196.103 225.723 195.527V193.871H225.795C226.479 194.645 227.523 195.041 228.873 195.041C230.025 195.041 230.745 194.555 230.745 193.781C230.745 193.097 230.277 192.773 228.765 192.683C226.551 192.539 225.741 191.837 225.741 190.307C225.741 188.705 227.037 187.625 228.999 187.625ZM234.338 192.881L234.122 184.277H235.94L235.742 192.881H234.338ZM235.04 194.321C235.634 194.321 236.066 194.771 236.066 195.365C236.066 195.959 235.634 196.409 235.04 196.409C234.446 196.409 233.996 195.959 233.996 195.365C233.996 194.771 234.446 194.321 235.04 194.321Z" fill="#1A1A1A"/>
<path d="M153.941 70.6908L153.961 70.6979L153.953 70.6651C153.949 70.673 153.946 70.683 153.941 70.6908Z" fill="#892FED"/>
<path d="M160.527 64.2567L160.536 64.2686L152.622 61.1583C151.932 60.8892 151.399 60.3265 151.175 59.6167L150.336 57.0104C146.797 42.4376 161.379 30.1985 158.868 19.8542C158.862 19.8216 158.854 19.7994 158.838 19.7653C160.439 19.077 161.955 18.8304 163.281 19.022C164.368 19.1792 165.338 19.6369 166.1 20.3599C166.285 20.5454 166.469 20.7412 166.636 20.9655C166.716 21.0723 166.796 21.1791 166.873 21.3066C167.019 21.5394 167.162 21.7929 167.282 22.0527C167.412 22.3254 167.519 22.6149 167.613 22.9143C167.656 23.0581 167.697 23.2122 167.737 23.3767C167.77 23.5086 167.803 23.6508 167.835 23.7931C167.851 23.9013 167.869 23.9991 167.885 24.1072C167.911 24.2169 167.926 24.3354 167.942 24.4436C167.952 24.5932 167.973 24.7444 167.983 24.894C168 25.0658 168.016 25.2481 168.022 25.4278C168.026 25.5448 168.028 25.6826 168.032 25.7996C168.027 25.9048 168.033 26.0114 168.028 26.1166C168.025 26.2855 168.022 26.4543 168.007 26.631C168.008 26.7688 167.999 26.9051 167.98 27.0398C167.199 35.7346 157.97 45.6709 158.694 57.12L158.688 57.1615C158.703 57.4282 158.728 57.6953 158.763 57.9649C158.786 58.2435 158.83 58.524 158.873 58.8159C158.95 59.3764 159.069 59.9439 159.207 60.5236L159.904 63.3835C159.995 63.7682 160.227 64.0653 160.527 64.2567Z" fill="url(#paint0_linear_407_1845)"/>
<path d="M158.762 57.965C158.727 57.6957 158.702 57.4289 158.687 57.1625L158.693 57.1211C158.717 57.3993 158.74 57.6765 158.762 57.965Z" fill="url(#paint1_linear_407_1845)"/>
<path d="M153.627 70.5684L153.63 70.5688L153.627 70.5712L153.627 70.5684Z" fill="#892FED"/>
<path d="M165.412 84.8297L157.241 81.587L156.569 81.3205C156.556 81.3133 156.546 81.3044 156.534 81.2943C156.333 81.1383 156.172 80.9277 156.078 80.6696C156.075 80.6682 156.075 80.6682 156.077 80.6673C156.056 80.6167 156.041 80.5637 156.028 80.5088L154.55 74.4162L153.864 71.5938C153.851 71.539 153.841 71.4846 153.834 71.4297C153.834 71.4286 153.832 71.4273 153.834 71.4255C153.803 71.1723 153.843 70.9198 153.94 70.6926L153.96 70.6997L162.498 74.0897L162.818 74.1549C162.693 74.4353 162.66 74.7555 162.737 75.0682L163.423 77.8905L163.433 77.9301L164.9 83.9832C164.979 84.3068 165.158 84.5718 165.393 84.7571L165.412 84.8297Z" fill="url(#paint2_linear_407_1845)"/>
<path d="M156.535 81.293C156.546 81.3028 156.556 81.3115 156.569 81.3184L156.54 81.3071L156.539 81.307L156.535 81.293Z" fill="#892FED"/>
<path d="M153.954 70.6651L153.963 70.6979L153.943 70.6908C153.947 70.6829 153.95 70.6729 153.954 70.6651Z" fill="#892FED"/>
<path d="M166.864 71.2272L166.864 71.2305L166.172 71.6819L166.173 71.6809L166.864 71.2272Z" fill="#892FED"/>
<path d="M139.142 28.0045L130.596 23.4766C130.596 23.4766 135.173 12.089 146.095 4.93204C151.298 1.52054 156.746 -0.000224516 161.247 0.831437C161.793 0.9347 162.326 1.0689 162.844 1.24115L162.857 1.24621L163.987 1.69411L171.899 4.82111C170.496 4.33054 168.968 4.10537 167.363 4.13263C166.708 4.14385 166.044 4.19815 165.365 4.29154C162.024 4.74108 158.446 6.17857 154.968 8.45511C144.047 15.61 139.469 26.9933 139.469 26.9933L139.632 27.0814" fill="url(#paint3_linear_407_1845)"/>
<path d="M170.719 54.0269C168.079 43.1782 183.591 30.8088 179.559 14.2291C178.334 9.16789 175.559 6.13352 171.98 4.85529L171.9 4.82256C170.501 4.33452 168.97 4.10268 167.358 4.13423L167.327 4.12973C166.68 4.14214 166.027 4.19587 165.369 4.29122C162.026 4.73838 158.445 6.17662 154.965 8.45493C144.045 15.6099 139.472 26.9907 139.472 26.9907L139.629 27.0769L146.767 30.8679C147.446 31.2199 148.295 30.9829 148.665 30.3178C149.925 28.1101 152.906 23.4345 156.808 20.8689C157.496 20.4191 158.174 20.0514 158.838 19.7664C160.439 19.0782 161.955 18.8315 163.281 19.0232C164.368 19.1804 165.338 19.6381 166.1 20.3611C166.285 20.5465 166.468 20.7424 166.636 20.9666C166.716 21.0734 166.796 21.1802 166.873 21.3077C167.029 21.542 167.162 21.7941 167.282 22.0538C167.412 22.3266 167.518 22.6161 167.613 22.9155C167.655 23.0592 167.697 23.2133 167.736 23.3778C167.77 23.5097 167.803 23.652 167.835 23.7943C167.851 23.9024 167.869 24.0002 167.885 24.1084C167.911 24.218 167.926 24.3366 167.942 24.4447C167.952 24.5944 167.973 24.7455 167.983 24.8951C168 25.067 168.016 25.2492 168.022 25.4289C168.026 25.546 168.028 25.6837 168.032 25.8008C168.027 25.9059 168.033 26.0126 168.028 26.1178C168.031 26.1711 168.025 26.2126 168.028 26.2659C168.02 26.3918 168.025 26.5088 168.007 26.6332C168.008 26.771 167.988 26.9058 167.979 27.042C167.199 35.7368 157.97 45.6731 158.694 57.1222L158.688 57.1637C158.703 57.4303 158.727 57.6975 158.763 57.9671C158.786 58.2457 158.83 58.5262 158.872 58.818C158.95 59.3786 159.069 59.9461 159.207 60.5258L159.903 63.3857C159.996 63.7695 160.228 64.0666 160.528 64.258L160.537 64.2699C160.985 64.5358 161.572 64.5677 162.064 64.2367L170.822 58.5038C171.337 58.1654 171.572 57.5549 171.435 56.9752L170.719 54.0269ZM176.429 77.5738L174.26 68.6539C174.123 68.0637 173.653 67.6675 173.115 67.5793C172.773 67.5298 172.417 67.5842 172.101 67.7925L166.869 71.2231L166.868 71.2335L166.169 71.6817L164.638 72.6871L163.34 73.5462C163.107 73.6925 162.928 73.9099 162.818 74.1576C162.803 74.1872 162.8 74.2079 162.785 74.2375C162.684 74.4981 162.663 74.7903 162.74 75.0659L163.42 77.8917L163.436 77.9258L164.898 83.9833C164.979 84.3019 165.162 84.5708 165.399 84.7532C165.852 85.1257 166.52 85.1905 167.068 84.8357L175.827 79.0924C176.331 78.7651 176.578 78.1552 176.429 77.5738Z" fill="url(#paint4_linear_407_1845)"/>
<path d="M173.115 67.5789C172.773 67.5295 172.417 67.5838 172.101 67.7922L166.869 71.2228L166.868 71.2331L166.169 71.6814L164.638 72.6868L163.34 73.5459C163.101 73.7028 162.839 74.0777 162.785 74.2372C162.771 74.2668 162.8 74.2076 162.785 74.2372L153.961 70.6989L153.955 70.6663C154.064 70.428 154.242 70.222 154.466 70.0638L154.746 69.8821L158.004 67.7515L163.225 64.3195C163.575 64.0949 163.974 64.0362 164.331 64.1301L164.325 64.0975L164.336 64.099L173.115 67.5789Z" fill="#CDA1F2"/>
<path d="M130.597 23.4746L139.143 28.0046L147.283 31.0724L139.469 26.9955L130.597 23.4746Z" fill="url(#paint5_linear_407_1845)"/>
<defs>
<linearGradient id="paint0_linear_407_1845" x1="154.768" y1="63.2975" x2="162.255" y2="18.8486" gradientUnits="userSpaceOnUse">
<stop stop-color="#D48FFF"/>
<stop offset="0.5478" stop-color="#A249EB"/>
<stop offset="1" stop-color="#790DDA"/>
</linearGradient>
<linearGradient id="paint1_linear_407_1845" x1="158.618" y1="57.922" x2="158.861" y2="57.0811" gradientUnits="userSpaceOnUse">
<stop stop-color="#D48FFF"/>
<stop offset="0.5478" stop-color="#A249EB"/>
<stop offset="1" stop-color="#790DDA"/>
</linearGradient>
<linearGradient id="paint2_linear_407_1845" x1="153.635" y1="77.5759" x2="165.616" y2="77.933" gradientUnits="userSpaceOnUse">
<stop stop-color="#D48FFF"/>
<stop offset="0.5478" stop-color="#A249EB"/>
<stop offset="1" stop-color="#790DDA"/>
</linearGradient>
<linearGradient id="paint3_linear_407_1845" x1="132.28" y1="11.8232" x2="170.096" y2="17.2894" gradientUnits="userSpaceOnUse">
<stop stop-color="#D48FFF"/>
<stop offset="0.5478" stop-color="#A249EB"/>
<stop offset="1" stop-color="#790DDA"/>
</linearGradient>
<linearGradient id="paint4_linear_407_1845" x1="137.551" y1="40.2841" x2="181.017" y2="46.5669" gradientUnits="userSpaceOnUse">
<stop stop-color="#C785FC"/>
<stop offset="0.2094" stop-color="#C785FC"/>
<stop offset="1" stop-color="white"/>
</linearGradient>
<linearGradient id="paint5_linear_407_1845" x1="130.491" y1="27.0182" x2="147.388" y2="27.5219" gradientUnits="userSpaceOnUse">
<stop stop-color="#C785FC"/>
<stop offset="0.2094" stop-color="#C785FC"/>
<stop offset="1" stop-color="white"/>
</linearGradient>
</defs>
</svg>
