<svg width="323" height="256" viewBox="0 0 323 256" fill="none" xmlns="http://www.w3.org/2000/svg">
<path d="M291.493 55.086C291.78 55.086 291.99 54.8758 292.045 54.5774C292.829 48.5241 293.68 47.6069 299.667 46.9442C299.976 46.9112 300.187 46.6793 300.187 46.3918C300.187 46.1043 299.976 45.8837 299.667 45.8394C293.68 45.1767 292.829 44.26 292.045 38.2062C291.99 37.9079 291.78 37.709 291.493 37.709C291.205 37.709 290.996 37.9079 290.951 38.2062C290.167 44.26 289.306 45.1767 283.329 45.8394C283.009 45.8837 282.799 46.1048 282.799 46.3918C282.799 46.6793 283.009 46.9112 283.329 46.9442C289.294 47.7285 290.123 48.535 290.951 54.5774C290.996 54.8758 291.205 55.086 291.493 55.086Z" fill="#1E1E1E"/>
<path d="M8.61906 252.696C8.80389 252.696 8.93873 252.561 8.97418 252.369C9.47837 248.478 10.0253 247.888 13.8743 247.462C14.073 247.441 14.2082 247.292 14.2082 247.107C14.2082 246.922 14.073 246.781 13.8743 246.752C10.0253 246.326 9.47837 245.737 8.97418 241.845C8.93873 241.653 8.80389 241.525 8.61906 241.525C8.43424 241.525 8.29971 241.653 8.27122 241.845C7.76704 245.737 7.21316 246.326 3.37115 246.752C3.16511 246.781 3.03027 246.923 3.03027 247.107C3.03027 247.292 3.16511 247.441 3.37115 247.462C7.20588 247.967 7.73855 248.485 8.27122 252.369C8.29971 252.561 8.43454 252.696 8.61906 252.696Z" fill="#1E1E1E"/>
<mask id="path-3-inside-1_407_1912" fill="white">
<path d="M26.3945 115.007C26.3945 88.3444 26.3945 75.0132 34.6775 66.7302C42.9604 58.4473 56.2917 58.4473 82.9541 58.4473H246.034C272.697 58.4473 286.028 58.4473 294.311 66.7302C302.594 75.0132 302.594 88.3444 302.594 115.007V197.961C302.594 224.623 302.594 237.954 294.311 246.237C286.028 254.52 272.697 254.52 246.034 254.52H82.9541C56.2917 254.52 42.9604 254.52 34.6775 246.237C26.3945 237.954 26.3945 224.623 26.3945 197.961V115.007Z"/>
</mask>
<path d="M26.3945 115.007C26.3945 88.3444 26.3945 75.0132 34.6775 66.7302C42.9604 58.4473 56.2917 58.4473 82.9541 58.4473H246.034C272.697 58.4473 286.028 58.4473 294.311 66.7302C302.594 75.0132 302.594 88.3444 302.594 115.007V197.961C302.594 224.623 302.594 237.954 294.311 246.237C286.028 254.52 272.697 254.52 246.034 254.52H82.9541C56.2917 254.52 42.9604 254.52 34.6775 246.237C26.3945 237.954 26.3945 224.623 26.3945 197.961V115.007Z" fill="#FFF7E7"/>
<path d="M26.3945 58.4473H302.594H26.3945ZM303.536 226.241C303.536 242.38 290.453 255.463 274.314 255.463H55.617C39.4779 255.463 26.3945 242.38 26.3945 226.241C26.3945 241.338 39.0558 253.578 54.6743 253.578H274.314C289.412 253.578 301.651 241.338 301.651 226.241H303.536ZM26.3945 254.52V58.4473V254.52ZM274.314 58.4473C290.453 58.4473 303.536 71.5306 303.536 87.6697V226.241C303.536 242.38 290.453 255.463 274.314 255.463V253.578C289.412 253.578 301.651 241.338 301.651 226.241V86.727C301.651 71.1086 289.412 58.4473 274.314 58.4473Z" fill="#1A1A1A" mask="url(#path-3-inside-1_407_1912)"/>
<rect x="19.3248" y="51.3776" width="271.486" height="193.245" rx="27.8084" stroke="#1A1A1A" stroke-width="0.942659"/>
<path d="M80.4088 128.828V130.949H70.5598V128.723L73.6888 126.245C77.0488 123.62 78.0358 122.486 78.0358 121.121C78.0358 119.693 77.0068 118.916 75.1378 118.916C73.5208 118.916 71.9668 119.546 70.8748 120.638H70.7488V118.118C71.8828 117.278 73.4998 116.795 75.0958 116.795C78.5188 116.795 80.4088 118.286 80.4088 120.995C80.4088 123.221 79.2118 124.817 75.3478 127.631L73.7518 128.786V128.828H80.4088ZM85.037 128.261C85.877 128.261 86.486 128.891 86.486 129.71C86.486 130.529 85.877 131.159 85.037 131.159C84.218 131.159 83.588 130.529 83.588 129.71C83.588 128.891 84.218 128.261 85.037 128.261ZM89.3571 117.005H94.8591C99.5631 117.005 102.272 119.588 102.272 123.977C102.272 128.366 99.5631 130.949 94.8591 130.949H89.3571V117.005ZM91.8771 128.702H94.7331C97.9461 128.702 99.7311 127.001 99.7311 123.977C99.7311 120.953 97.9461 119.252 94.7331 119.252H91.8771V128.702ZM105.393 116.606C106.254 116.606 106.821 117.194 106.821 118.034C106.821 118.874 106.254 119.441 105.393 119.441C104.553 119.441 103.986 118.874 103.986 118.034C103.986 117.194 104.553 116.606 105.393 116.606ZM104.28 121.1H106.506V130.949H104.28V121.1ZM114.244 130.949H111.976L107.986 121.1H110.38L113.131 128.534H113.173L115.945 121.1H118.234L114.244 130.949ZM128.846 126.707H121.013C121.286 128.282 122.63 129.206 124.583 129.206C126.032 129.206 127.25 128.765 128.132 127.925H128.237V130.13C127.397 130.781 126.053 131.159 124.499 131.159C121.055 131.159 118.745 129.101 118.745 126.035C118.745 123.011 120.866 120.89 123.869 120.89C126.914 120.89 128.846 122.738 128.846 125.615V126.707ZM123.932 122.843C122.525 122.843 121.286 123.725 121.013 125.048H126.788C126.599 123.704 125.465 122.843 123.932 122.843ZM135.725 130.949V117.005H138.245V130.949H135.725ZM146.425 120.89C148.882 120.89 150.373 122.486 150.373 125.174V130.949H148.147V125.426C148.147 123.809 147.286 122.885 145.858 122.885C144.283 122.885 143.338 123.956 143.338 125.783V130.949H141.112V121.1H142.981L143.065 122.612H143.107C143.737 121.499 144.871 120.89 146.425 120.89ZM158.725 128.597V130.802C158.263 131.033 157.654 131.159 156.877 131.159C154.651 131.159 153.454 129.899 153.454 127.568V123.032H151.711V121.1H153.517L153.832 118.391H155.68V121.1H158.683V123.032H155.68V127.484C155.68 128.555 156.247 129.185 157.213 129.185C157.738 129.185 158.221 129.038 158.62 128.597H158.725ZM165.297 120.89C168.363 120.89 170.547 123.011 170.547 126.035C170.547 129.038 168.363 131.159 165.297 131.159C162.231 131.159 160.068 129.038 160.068 126.035C160.068 123.011 162.231 120.89 165.297 120.89ZM165.297 122.885C163.533 122.885 162.315 124.166 162.315 126.035C162.315 127.862 163.533 129.164 165.297 129.164C167.082 129.164 168.3 127.862 168.3 126.035C168.3 124.166 167.082 122.885 165.297 122.885ZM182.247 116.795C184.074 116.795 185.775 117.236 186.678 117.908V120.575H186.552C185.649 119.609 184.053 119.042 182.205 119.042C180.441 119.042 179.307 119.798 179.307 120.974C179.307 121.961 180.042 122.465 182.394 122.696C186.111 123.074 187.476 124.355 187.476 126.917C187.476 129.584 185.46 131.159 182.016 131.159C179.727 131.159 177.921 130.697 176.787 129.836V127.148H176.913C178.173 128.303 179.916 128.912 181.953 128.912C183.885 128.912 184.977 128.219 184.977 126.98C184.977 125.909 184.221 125.405 181.743 125.132C178.11 124.733 176.808 123.557 176.808 121.121C176.808 118.433 178.887 116.795 182.247 116.795ZM195.434 128.597V130.802C194.972 131.033 194.363 131.159 193.586 131.159C191.36 131.159 190.163 129.899 190.163 127.568V123.032H188.42V121.1H190.226L190.541 118.391H192.389V121.1H195.392V123.032H192.389V127.484C192.389 128.555 192.956 129.185 193.922 129.185C194.447 129.185 194.93 129.038 195.329 128.597H195.434ZM202.006 120.89C205.072 120.89 207.256 123.011 207.256 126.035C207.256 129.038 205.072 131.159 202.006 131.159C198.94 131.159 196.777 129.038 196.777 126.035C196.777 123.011 198.94 120.89 202.006 120.89ZM202.006 122.885C200.242 122.885 199.024 124.166 199.024 126.035C199.024 127.862 200.242 129.164 202.006 129.164C203.791 129.164 205.009 127.862 205.009 126.035C205.009 124.166 203.791 122.885 202.006 122.885ZM214.32 120.89C214.95 120.89 215.475 121.058 215.79 121.268V123.473H215.685C215.265 123.179 214.74 123.011 214.131 123.011C212.367 123.011 211.506 124.187 211.506 126.581V130.949H209.28V121.1H211.149L211.233 122.612H211.275C211.842 121.478 212.85 120.89 214.32 120.89ZM218.432 116.606C219.293 116.606 219.86 117.194 219.86 118.034C219.86 118.874 219.293 119.441 218.432 119.441C217.592 119.441 217.025 118.874 217.025 118.034C217.025 117.194 217.592 116.606 218.432 116.606ZM217.319 121.1H219.545V130.949H217.319V121.1ZM231.693 126.707H223.86C224.133 128.282 225.477 129.206 227.43 129.206C228.879 129.206 230.097 128.765 230.979 127.925H231.084V130.13C230.244 130.781 228.9 131.159 227.346 131.159C223.902 131.159 221.592 129.101 221.592 126.035C221.592 123.011 223.713 120.89 226.716 120.89C229.761 120.89 231.693 122.738 231.693 125.615V126.707ZM226.779 122.843C225.372 122.843 224.133 123.725 223.86 125.048H229.635C229.446 123.704 228.312 122.843 226.779 122.843ZM237.15 120.89C238.431 120.89 239.586 121.142 240.3 121.604V123.893H240.195C239.523 123.2 238.494 122.843 237.213 122.843C236.142 122.843 235.386 123.326 235.386 124.019C235.386 124.586 235.827 124.838 237.276 124.922C239.901 125.069 240.93 126.035 240.93 128.03C240.93 129.962 239.439 131.159 236.982 131.159C235.344 131.159 234.063 130.823 233.244 130.193V127.862H233.349C234.168 128.744 235.365 129.206 236.877 129.206C238.032 129.206 238.746 128.744 238.746 128.03C238.746 127.379 238.305 127.085 236.709 126.959C234.147 126.749 233.202 125.951 233.202 124.082C233.202 122.15 234.777 120.89 237.15 120.89Z" fill="#1A1A1A"/>
<path d="M67.0044 149.277V156.189C67.0044 159.609 65.2404 161.409 61.8744 161.409C58.5264 161.409 56.7624 159.609 56.7624 156.189V149.277H58.4904V156.081C58.4904 158.547 59.6784 159.879 61.9104 159.879C64.1424 159.879 65.3484 158.547 65.3484 156.081V149.277H67.0044ZM73.7068 152.625C75.8488 152.625 77.1628 154.029 77.1628 156.333V161.229H75.6328V156.513C75.6328 154.929 74.7688 153.993 73.3468 153.993C71.7808 153.993 70.8448 155.073 70.8448 156.855V161.229H69.3148V152.805H70.6108L70.6468 154.137H70.6828C71.2588 153.183 72.2848 152.625 73.7068 152.625ZM79.3168 161.229V148.629H80.8468V161.229H79.3168ZM91.3371 157.521H84.2271C84.4431 159.087 85.7031 160.041 87.6111 160.041C88.8531 160.041 89.9331 159.645 90.7251 158.889H90.7971V160.437C90.0411 161.049 88.8891 161.409 87.5751 161.409C84.6051 161.409 82.6791 159.663 82.6791 157.017C82.6791 154.443 84.4971 152.625 87.0711 152.625C89.6631 152.625 91.3371 154.227 91.3371 156.675V157.521ZM87.0891 153.993C85.6491 153.993 84.5151 154.893 84.2271 156.243H89.9151C89.6991 154.875 88.6191 153.993 87.0891 153.993ZM101.467 161.229H100.171L100.117 159.897H100.081C99.4508 160.833 98.2988 161.409 96.8228 161.409C94.3748 161.409 92.6108 159.573 92.6108 157.017C92.6108 154.461 94.3748 152.625 96.8228 152.625C98.2988 152.625 99.4508 153.201 100.081 154.155H100.117L100.171 152.805H101.467V161.229ZM97.0748 160.041C98.7848 160.041 99.9908 158.799 99.9908 157.017C99.9908 155.235 98.7848 153.993 97.0748 153.993C95.3468 153.993 94.1588 155.235 94.1588 157.017C94.1588 158.799 95.3468 160.041 97.0748 160.041ZM106.646 152.625C107.762 152.625 108.77 152.859 109.4 153.273V154.893H109.328C108.752 154.299 107.852 153.993 106.682 153.993C105.602 153.993 104.9 154.497 104.9 155.253C104.9 155.865 105.35 156.153 106.754 156.225C109.058 156.351 109.904 157.125 109.904 158.781C109.904 160.401 108.626 161.409 106.574 161.409C105.17 161.409 104.072 161.103 103.37 160.527V158.871H103.442C104.126 159.645 105.17 160.041 106.52 160.041C107.672 160.041 108.392 159.555 108.392 158.781C108.392 158.097 107.924 157.773 106.412 157.683C104.198 157.539 103.388 156.837 103.388 155.307C103.388 153.705 104.684 152.625 106.646 152.625ZM116 152.625C118.142 152.625 119.456 154.029 119.456 156.333V161.229H117.926V156.513C117.926 154.929 117.062 153.993 115.64 153.993C114.074 153.993 113.138 155.073 113.138 156.855V161.229H111.608V148.629H113.138V153.849H113.174C113.768 153.057 114.758 152.625 116 152.625ZM126.321 149.151C126.915 149.151 127.329 149.565 127.329 150.159C127.329 150.753 126.915 151.167 126.321 151.167C125.727 151.167 125.313 150.753 125.313 150.159C125.313 149.565 125.727 149.151 126.321 149.151ZM125.565 161.229V152.805H127.095V161.229H125.565ZM139.386 152.625C141.438 152.625 142.59 153.939 142.59 156.279V161.229H141.06V156.441C141.06 154.839 140.34 153.993 139.008 153.993C137.568 153.993 136.794 154.983 136.794 156.855V161.229H135.264V156.441C135.264 154.839 134.562 153.993 133.212 153.993C131.754 153.993 130.98 154.983 130.98 156.765V161.229H129.45V152.805H130.728L130.782 154.029H130.818C131.34 153.129 132.258 152.625 133.59 152.625C134.85 152.625 135.804 153.183 136.308 154.245H136.344C136.866 153.165 137.838 152.625 139.386 152.625ZM153.059 161.229H151.763L151.709 159.897H151.673C151.043 160.833 149.891 161.409 148.415 161.409C145.967 161.409 144.203 159.573 144.203 157.017C144.203 154.461 145.967 152.625 148.415 152.625C149.891 152.625 151.043 153.201 151.673 154.155H151.709L151.763 152.805H153.059V161.229ZM148.667 160.041C150.377 160.041 151.583 158.799 151.583 157.017C151.583 155.235 150.377 153.993 148.667 153.993C146.939 153.993 145.751 155.235 145.751 157.017C145.751 158.799 146.939 160.041 148.667 160.041ZM163.746 152.805V160.563C163.746 163.227 162.054 164.829 159.192 164.829C157.716 164.829 156.456 164.415 155.682 163.713V162.111H155.754C156.438 162.957 157.644 163.461 159.03 163.461C161.064 163.461 162.216 162.399 162.216 160.473V160.059H162.18C161.514 160.869 160.47 161.337 159.102 161.337C156.654 161.337 154.89 159.537 154.89 156.981C154.89 154.425 156.654 152.625 159.102 152.625C160.578 152.625 161.73 153.201 162.36 154.155H162.396L162.45 152.805H163.746ZM159.354 159.969C161.064 159.969 162.27 158.763 162.27 156.981C162.27 155.199 161.064 153.993 159.354 153.993C157.626 153.993 156.438 155.199 156.438 156.981C156.438 158.763 157.626 159.969 159.354 159.969ZM166.874 149.151C167.468 149.151 167.882 149.565 167.882 150.159C167.882 150.753 167.468 151.167 166.874 151.167C166.28 151.167 165.866 150.753 165.866 150.159C165.866 149.565 166.28 149.151 166.874 149.151ZM166.118 161.229V152.805H167.648V161.229H166.118ZM174.394 152.625C176.536 152.625 177.85 154.029 177.85 156.333V161.229H176.32V156.513C176.32 154.929 175.456 153.993 174.034 153.993C172.468 153.993 171.532 155.073 171.532 156.855V161.229H170.002V152.805H171.298L171.334 154.137H171.37C171.946 153.183 172.972 152.625 174.394 152.625ZM188.32 161.229H187.024L186.97 159.897H186.934C186.304 160.833 185.152 161.409 183.676 161.409C181.228 161.409 179.464 159.573 179.464 157.017C179.464 154.461 181.228 152.625 183.676 152.625C185.152 152.625 186.304 153.201 186.934 154.155H186.97L187.024 152.805H188.32V161.229ZM183.928 160.041C185.638 160.041 186.844 158.799 186.844 157.017C186.844 155.235 185.638 153.993 183.928 153.993C182.2 153.993 181.012 155.235 181.012 157.017C181.012 158.799 182.2 160.041 183.928 160.041ZM195.552 159.555V161.103C195.174 161.301 194.67 161.409 194.022 161.409C192.258 161.409 191.268 160.365 191.268 158.475V154.137H189.72V152.805H191.304L191.538 150.519H192.798V152.805H195.516V154.137H192.798V158.439C192.798 159.447 193.338 160.041 194.238 160.041C194.706 160.041 195.138 159.915 195.48 159.555H195.552ZM198.127 149.151C198.721 149.151 199.135 149.565 199.135 150.159C199.135 150.753 198.721 151.167 198.127 151.167C197.533 151.167 197.119 150.753 197.119 150.159C197.119 149.565 197.533 149.151 198.127 149.151ZM197.371 161.229V152.805H198.901V161.229H197.371ZM205.18 152.625C207.79 152.625 209.644 154.443 209.644 157.017C209.644 159.591 207.79 161.409 205.18 161.409C202.57 161.409 200.716 159.591 200.716 157.017C200.716 154.443 202.57 152.625 205.18 152.625ZM205.18 153.993C203.452 153.993 202.264 155.235 202.264 157.017C202.264 158.799 203.452 160.041 205.18 160.041C206.89 160.041 208.096 158.799 208.096 157.017C208.096 155.235 206.89 153.993 205.18 153.993ZM215.879 152.625C218.021 152.625 219.335 154.029 219.335 156.333V161.229H217.805V156.513C217.805 154.929 216.941 153.993 215.519 153.993C213.953 153.993 213.017 155.073 213.017 156.855V161.229H211.487V152.805H212.783L212.819 154.137H212.855C213.431 153.183 214.457 152.625 215.879 152.625ZM234.768 161.229H233.274L231.096 155.055H231.06L228.864 161.229H227.37L224.4 152.805H226.038L228.144 159.303H228.18L230.484 152.805H231.726L234.03 159.285H234.066L236.19 152.805H237.738L234.768 161.229ZM239.823 149.151C240.417 149.151 240.831 149.565 240.831 150.159C240.831 150.753 240.417 151.167 239.823 151.167C239.229 151.167 238.815 150.753 238.815 150.159C238.815 149.565 239.229 149.151 239.823 149.151ZM239.067 161.229V152.805H240.597V161.229H239.067ZM247.812 159.555V161.103C247.434 161.301 246.93 161.409 246.282 161.409C244.518 161.409 243.528 160.365 243.528 158.475V154.137H241.98V152.805H243.564L243.798 150.519H245.058V152.805H247.776V154.137H245.058V158.439C245.058 159.447 245.598 160.041 246.498 160.041C246.966 160.041 247.398 159.915 247.74 159.555H247.812ZM254.023 152.625C256.165 152.625 257.479 154.029 257.479 156.333V161.229H255.949V156.513C255.949 154.929 255.085 153.993 253.663 153.993C252.097 153.993 251.161 155.073 251.161 156.855V161.229H249.631V148.629H251.161V153.849H251.197C251.791 153.057 252.781 152.625 254.023 152.625ZM64.1026 181.555V183.103C63.7246 183.301 63.2206 183.409 62.5726 183.409C60.8086 183.409 59.8186 182.365 59.8186 180.475V176.137H58.2706V174.805H59.8546L60.0886 172.519H61.3486V174.805H64.0666V176.137H61.3486V180.439C61.3486 181.447 61.8886 182.041 62.7886 182.041C63.2566 182.041 63.6886 181.915 64.0306 181.555H64.1026ZM74.1504 183.229H72.8544L72.8004 181.897H72.7644C72.1344 182.833 70.9824 183.409 69.5064 183.409C67.0584 183.409 65.2944 181.573 65.2944 179.017C65.2944 176.461 67.0584 174.625 69.5064 174.625C70.9824 174.625 72.1344 175.201 72.7644 176.155H72.8004L72.8544 174.805H74.1504V183.229ZM69.7584 182.041C71.4684 182.041 72.6744 180.799 72.6744 179.017C72.6744 177.235 71.4684 175.993 69.7584 175.993C68.0304 175.993 66.8424 177.235 66.8424 179.017C66.8424 180.799 68.0304 182.041 69.7584 182.041ZM76.5219 183.229V170.629H78.0519V183.229H76.5219ZM88.5422 179.521H81.4322C81.6482 181.087 82.9082 182.041 84.8162 182.041C86.0582 182.041 87.1382 181.645 87.9302 180.889H88.0022V182.437C87.2462 183.049 86.0942 183.409 84.7802 183.409C81.8102 183.409 79.8842 181.663 79.8842 179.017C79.8842 176.443 81.7022 174.625 84.2762 174.625C86.8682 174.625 88.5422 176.227 88.5422 178.675V179.521ZM84.2942 175.993C82.8542 175.993 81.7202 176.893 81.4322 178.243H87.1202C86.9042 176.875 85.8242 175.993 84.2942 175.993ZM93.1639 174.625C94.2799 174.625 95.2879 174.859 95.9179 175.273V176.893H95.8459C95.2699 176.299 94.3699 175.993 93.1999 175.993C92.1199 175.993 91.4179 176.497 91.4179 177.253C91.4179 177.865 91.8679 178.153 93.2719 178.225C95.5759 178.351 96.4219 179.125 96.4219 180.781C96.4219 182.401 95.1439 183.409 93.0919 183.409C91.6879 183.409 90.5899 183.103 89.8879 182.527V180.871H89.9599C90.6439 181.645 91.6879 182.041 93.0379 182.041C94.1899 182.041 94.9099 181.555 94.9099 180.781C94.9099 180.097 94.4419 179.773 92.9299 179.683C90.7159 179.539 89.9059 178.837 89.9059 177.307C89.9059 175.705 91.2019 174.625 93.1639 174.625ZM106.94 181.555V183.103C106.562 183.301 106.058 183.409 105.41 183.409C103.646 183.409 102.656 182.365 102.656 180.475V176.137H101.108V174.805H102.692L102.926 172.519H104.186V174.805H106.904V176.137H104.186V180.439C104.186 181.447 104.726 182.041 105.626 182.041C106.094 182.041 106.526 181.915 106.868 181.555H106.94ZM113.152 174.625C115.294 174.625 116.608 176.029 116.608 178.333V183.229H115.078V178.513C115.078 176.929 114.214 175.993 112.792 175.993C111.226 175.993 110.29 177.073 110.29 178.855V183.229H108.76V170.629H110.29V175.849H110.326C110.92 175.057 111.91 174.625 113.152 174.625ZM127.078 183.229H125.782L125.728 181.897H125.692C125.062 182.833 123.91 183.409 122.434 183.409C119.986 183.409 118.222 181.573 118.222 179.017C118.222 176.461 119.986 174.625 122.434 174.625C123.91 174.625 125.062 175.201 125.692 176.155H125.728L125.782 174.805H127.078V183.229ZM122.686 182.041C124.396 182.041 125.602 180.799 125.602 179.017C125.602 177.235 124.396 175.993 122.686 175.993C120.958 175.993 119.77 177.235 119.77 179.017C119.77 180.799 120.958 182.041 122.686 182.041ZM134.31 181.555V183.103C133.932 183.301 133.428 183.409 132.78 183.409C131.016 183.409 130.026 182.365 130.026 180.475V176.137H128.478V174.805H130.062L130.296 172.519H131.556V174.805H134.274V176.137H131.556V180.439C131.556 181.447 132.096 182.041 132.996 182.041C133.464 182.041 133.896 181.915 134.238 181.555H134.31ZM140.84 171.151C141.434 171.151 141.848 171.565 141.848 172.159C141.848 172.753 141.434 173.167 140.84 173.167C140.246 173.167 139.832 172.753 139.832 172.159C139.832 171.565 140.246 171.151 140.84 171.151ZM140.084 183.229V174.805H141.614V183.229H140.084ZM148.361 174.625C150.503 174.625 151.817 176.029 151.817 178.333V183.229H150.287V178.513C150.287 176.929 149.423 175.993 148.001 175.993C146.435 175.993 145.499 177.073 145.499 178.855V183.229H143.969V174.805H145.265L145.301 176.137H145.337C145.913 175.183 146.939 174.625 148.361 174.625ZM156.779 174.625C157.895 174.625 158.903 174.859 159.533 175.273V176.893H159.461C158.885 176.299 157.985 175.993 156.815 175.993C155.735 175.993 155.033 176.497 155.033 177.253C155.033 177.865 155.483 178.153 156.887 178.225C159.191 178.351 160.037 179.125 160.037 180.781C160.037 182.401 158.759 183.409 156.707 183.409C155.303 183.409 154.205 183.103 153.503 182.527V180.871H153.575C154.259 181.645 155.303 182.041 156.653 182.041C157.805 182.041 158.525 181.555 158.525 180.781C158.525 180.097 158.057 179.773 156.545 179.683C154.331 179.539 153.521 178.837 153.521 177.307C153.521 175.705 154.817 174.625 156.779 174.625ZM166.367 174.625C168.815 174.625 170.597 176.461 170.597 179.017C170.597 181.573 168.815 183.409 166.367 183.409C165.017 183.409 163.973 182.941 163.307 182.149H163.271V186.649H161.741V174.805H163.037L163.073 176.137H163.109C163.757 175.201 164.891 174.625 166.367 174.625ZM166.133 182.041C167.843 182.041 169.049 180.799 169.049 179.017C169.049 177.235 167.843 175.993 166.133 175.993C164.405 175.993 163.217 177.235 163.217 179.017C163.217 180.799 164.405 182.041 166.133 182.041ZM173.184 171.151C173.778 171.151 174.192 171.565 174.192 172.159C174.192 172.753 173.778 173.167 173.184 173.167C172.59 173.167 172.176 172.753 172.176 172.159C172.176 171.565 172.59 171.151 173.184 171.151ZM172.428 183.229V174.805H173.958V183.229H172.428ZM180.345 174.625C180.903 174.625 181.335 174.769 181.623 174.949V176.479H181.551C181.191 176.227 180.741 176.083 180.237 176.083C178.617 176.083 177.843 177.199 177.843 179.395V183.229H176.313V174.805H177.609L177.645 176.155H177.681C178.185 175.147 179.067 174.625 180.345 174.625ZM190.952 179.521H183.842C184.058 181.087 185.318 182.041 187.226 182.041C188.468 182.041 189.548 181.645 190.34 180.889H190.412V182.437C189.656 183.049 188.504 183.409 187.19 183.409C184.22 183.409 182.294 181.663 182.294 179.017C182.294 176.443 184.112 174.625 186.686 174.625C189.278 174.625 190.952 176.227 190.952 178.675V179.521ZM186.704 175.993C185.264 175.993 184.13 176.893 183.842 178.243H189.53C189.314 176.875 188.234 175.993 186.704 175.993ZM191.761 185.497L193.165 181.501H194.749L193.003 185.497H191.761ZM209.251 179.521H202.141C202.357 181.087 203.617 182.041 205.525 182.041C206.767 182.041 207.847 181.645 208.639 180.889H208.711V182.437C207.955 183.049 206.803 183.409 205.489 183.409C202.519 183.409 200.593 181.663 200.593 179.017C200.593 176.443 202.411 174.625 204.985 174.625C207.577 174.625 209.251 176.227 209.251 178.675V179.521ZM205.003 175.993C203.563 175.993 202.429 176.893 202.141 178.243H207.829C207.613 176.875 206.533 175.993 205.003 175.993ZM211.756 183.229H209.938L213.304 178.909L210.118 174.805H212.008L214.348 177.955L216.652 174.805H218.488L215.32 178.909L218.668 183.229H216.76L214.258 179.827L211.756 183.229ZM223.657 174.625C224.827 174.625 225.763 174.895 226.411 175.453V177.127H226.339C225.691 176.353 224.863 175.993 223.801 175.993C221.875 175.993 220.669 177.217 220.669 179.017C220.669 180.799 221.875 182.041 223.801 182.041C224.881 182.041 225.727 181.663 226.339 180.907H226.411V182.599C225.763 183.139 224.845 183.409 223.657 183.409C220.921 183.409 219.121 181.573 219.121 179.017C219.121 176.443 220.921 174.625 223.657 174.625ZM229.206 171.151C229.8 171.151 230.214 171.565 230.214 172.159C230.214 172.753 229.8 173.167 229.206 173.167C228.612 173.167 228.198 172.753 228.198 172.159C228.198 171.565 228.612 171.151 229.206 171.151ZM228.45 183.229V174.805H229.98V183.229H228.45ZM237.194 181.555V183.103C236.816 183.301 236.312 183.409 235.664 183.409C233.9 183.409 232.91 182.365 232.91 180.475V176.137H231.362V174.805H232.946L233.18 172.519H234.44V174.805H237.158V176.137H234.44V180.439C234.44 181.447 234.98 182.041 235.88 182.041C236.348 182.041 236.78 181.915 237.122 181.555H237.194ZM247.044 179.521H239.934C240.15 181.087 241.41 182.041 243.318 182.041C244.56 182.041 245.64 181.645 246.432 180.889H246.504V182.437C245.748 183.049 244.596 183.409 243.282 183.409C240.312 183.409 238.386 181.663 238.386 179.017C238.386 176.443 240.204 174.625 242.778 174.625C245.37 174.625 247.044 176.227 247.044 178.675V179.521ZM242.796 175.993C241.356 175.993 240.222 176.893 239.934 178.243H245.622C245.406 176.875 244.326 175.993 242.796 175.993ZM247.852 185.497L249.256 181.501H250.84L249.094 185.497H247.852ZM72.0146 205.229H70.7186L70.6646 203.897H70.6286C69.9986 204.833 68.8466 205.409 67.3706 205.409C64.9226 205.409 63.1586 203.573 63.1586 201.017C63.1586 198.461 64.9226 196.625 67.3706 196.625C68.8466 196.625 69.9986 197.201 70.6286 198.155H70.6646L70.7186 196.805H72.0146V205.229ZM67.6226 204.041C69.3326 204.041 70.5386 202.799 70.5386 201.017C70.5386 199.235 69.3326 197.993 67.6226 197.993C65.8946 197.993 64.7066 199.235 64.7066 201.017C64.7066 202.799 65.8946 204.041 67.6226 204.041ZM78.7781 196.625C80.9201 196.625 82.2341 198.029 82.2341 200.333V205.229H80.7041V200.513C80.7041 198.929 79.8401 197.993 78.4181 197.993C76.8521 197.993 75.9161 199.073 75.9161 200.855V205.229H74.3861V196.805H75.6821L75.7181 198.137H75.7541C76.3301 197.183 77.3561 196.625 78.7781 196.625ZM92.7041 205.229H91.4081L91.3541 203.897H91.3181C90.6881 204.833 89.5361 205.409 88.0601 205.409C85.6121 205.409 83.8481 203.573 83.8481 201.017C83.8481 198.461 85.6121 196.625 88.0601 196.625C89.4281 196.625 90.4721 197.093 91.1381 197.903H91.1741V192.629H92.7041V205.229ZM88.3121 204.041C90.0221 204.041 91.2281 202.799 91.2281 201.017C91.2281 199.235 90.0221 197.993 88.3121 197.993C86.5841 197.993 85.3961 199.235 85.3961 201.017C85.3961 202.799 86.5841 204.041 88.3121 204.041ZM103.063 196.625C103.621 196.625 104.053 196.769 104.341 196.949V198.479H104.269C103.909 198.227 103.459 198.083 102.955 198.083C101.335 198.083 100.561 199.199 100.561 201.395V205.229H99.0307V196.805H100.327L100.363 198.155H100.399C100.903 197.147 101.785 196.625 103.063 196.625ZM113.67 201.521H106.56C106.776 203.087 108.036 204.041 109.944 204.041C111.186 204.041 112.266 203.645 113.058 202.889H113.13V204.437C112.374 205.049 111.222 205.409 109.908 205.409C106.938 205.409 105.012 203.663 105.012 201.017C105.012 198.443 106.83 196.625 109.404 196.625C111.996 196.625 113.67 198.227 113.67 200.675V201.521ZM109.422 197.993C107.982 197.993 106.848 198.893 106.56 200.243H112.248C112.032 198.875 110.952 197.993 109.422 197.993ZM124.65 205.229H123.156L120.978 199.055H120.942L118.746 205.229H117.252L114.282 196.805H115.92L118.026 203.303H118.062L120.366 196.805H121.608L123.912 203.285H123.948L126.072 196.805H127.62L124.65 205.229ZM137.054 205.229H135.758L135.704 203.897H135.668C135.038 204.833 133.886 205.409 132.41 205.409C129.962 205.409 128.198 203.573 128.198 201.017C128.198 198.461 129.962 196.625 132.41 196.625C133.886 196.625 135.038 197.201 135.668 198.155H135.704L135.758 196.805H137.054V205.229ZM132.662 204.041C134.372 204.041 135.578 202.799 135.578 201.017C135.578 199.235 134.372 197.993 132.662 197.993C130.934 197.993 129.746 199.235 129.746 201.017C129.746 202.799 130.934 204.041 132.662 204.041ZM143.457 196.625C144.015 196.625 144.447 196.769 144.735 196.949V198.479H144.663C144.303 198.227 143.853 198.083 143.349 198.083C141.729 198.083 140.955 199.199 140.955 201.395V205.229H139.425V196.805H140.721L140.757 198.155H140.793C141.297 197.147 142.179 196.625 143.457 196.625ZM154.263 205.229H152.967L152.913 203.897H152.877C152.247 204.833 151.095 205.409 149.619 205.409C147.171 205.409 145.407 203.573 145.407 201.017C145.407 198.461 147.171 196.625 149.619 196.625C150.987 196.625 152.031 197.093 152.697 197.903H152.733V192.629H154.263V205.229ZM149.871 204.041C151.581 204.041 152.787 202.799 152.787 201.017C152.787 199.235 151.581 197.993 149.871 197.993C148.143 197.993 146.955 199.235 146.955 201.017C146.955 202.799 148.143 204.041 149.871 204.041ZM164.585 196.625C165.755 196.625 166.691 196.895 167.339 197.453V199.127H167.267C166.619 198.353 165.791 197.993 164.729 197.993C162.803 197.993 161.597 199.217 161.597 201.017C161.597 202.799 162.803 204.041 164.729 204.041C165.809 204.041 166.655 203.663 167.267 202.907H167.339V204.599C166.691 205.139 165.773 205.409 164.585 205.409C161.849 205.409 160.049 203.573 160.049 201.017C160.049 198.443 161.849 196.625 164.585 196.625ZM177.01 205.229H175.714L175.678 203.897H175.642C175.066 204.851 174.04 205.409 172.618 205.409C170.476 205.409 169.162 204.023 169.162 201.701V196.805H170.692V201.539C170.692 203.123 171.556 204.041 172.978 204.041C174.544 204.041 175.48 202.961 175.48 201.179V196.805H177.01V205.229ZM183.412 196.625C183.97 196.625 184.402 196.769 184.69 196.949V198.479H184.618C184.258 198.227 183.808 198.083 183.304 198.083C181.684 198.083 180.91 199.199 180.91 201.395V205.229H179.38V196.805H180.676L180.712 198.155H180.748C181.252 197.147 182.134 196.625 183.412 196.625ZM186.851 193.151C187.445 193.151 187.859 193.565 187.859 194.159C187.859 194.753 187.445 195.167 186.851 195.167C186.257 195.167 185.843 194.753 185.843 194.159C185.843 193.565 186.257 193.151 186.851 193.151ZM186.095 205.229V196.805H187.625V205.229H186.095ZM193.904 196.625C196.514 196.625 198.368 198.443 198.368 201.017C198.368 203.591 196.514 205.409 193.904 205.409C191.294 205.409 189.44 203.591 189.44 201.017C189.44 198.443 191.294 196.625 193.904 196.625ZM193.904 197.993C192.176 197.993 190.988 199.235 190.988 201.017C190.988 202.799 192.176 204.041 193.904 204.041C195.614 204.041 196.82 202.799 196.82 201.017C196.82 199.235 195.614 197.993 193.904 197.993ZM203.018 196.625C204.134 196.625 205.142 196.859 205.772 197.273V198.893H205.7C205.124 198.299 204.224 197.993 203.054 197.993C201.974 197.993 201.272 198.497 201.272 199.253C201.272 199.865 201.722 200.153 203.126 200.225C205.43 200.351 206.276 201.125 206.276 202.781C206.276 204.401 204.998 205.409 202.946 205.409C201.542 205.409 200.444 205.103 199.742 204.527V202.871H199.814C200.498 203.645 201.542 204.041 202.892 204.041C204.044 204.041 204.764 203.555 204.764 202.781C204.764 202.097 204.296 201.773 202.784 201.683C200.57 201.539 199.76 200.837 199.76 199.307C199.76 197.705 201.056 196.625 203.018 196.625ZM208.736 193.151C209.33 193.151 209.744 193.565 209.744 194.159C209.744 194.753 209.33 195.167 208.736 195.167C208.142 195.167 207.728 194.753 207.728 194.159C207.728 193.565 208.142 193.151 208.736 193.151ZM207.98 205.229V196.805H209.51V205.229H207.98ZM216.725 203.555V205.103C216.347 205.301 215.843 205.409 215.195 205.409C213.431 205.409 212.441 204.365 212.441 202.475V198.137H210.893V196.805H212.477L212.711 194.519H213.971V196.805H216.689V198.137H213.971V202.439C213.971 203.447 214.511 204.041 215.411 204.041C215.879 204.041 216.311 203.915 216.653 203.555H216.725ZM220.902 208.649H219.318L221.028 204.923L217.5 196.805H219.156L221.838 203.321H221.874L224.574 196.805H226.158L220.902 208.649ZM239.763 205.229H238.467L238.413 203.897H238.377C237.747 204.833 236.595 205.409 235.119 205.409C232.671 205.409 230.907 203.573 230.907 201.017C230.907 198.461 232.671 196.625 235.119 196.625C236.595 196.625 237.747 197.201 238.377 198.155H238.413L238.467 196.805H239.763V205.229ZM235.371 204.041C237.081 204.041 238.287 202.799 238.287 201.017C238.287 199.235 237.081 197.993 235.371 197.993C233.643 197.993 232.455 199.235 232.455 201.017C232.455 202.799 233.643 204.041 235.371 204.041ZM246.994 203.555V205.103C246.616 205.301 246.112 205.409 245.464 205.409C243.7 205.409 242.71 204.365 242.71 202.475V198.137H241.162V196.805H242.746L242.98 194.519H244.24V196.805H246.958V198.137H244.24V202.439C244.24 203.447 244.78 204.041 245.68 204.041C246.148 204.041 246.58 203.915 246.922 203.555H246.994ZM121.413 223.521H114.303C114.519 225.087 115.779 226.041 117.687 226.041C118.929 226.041 120.009 225.645 120.801 224.889H120.873V226.437C120.117 227.049 118.965 227.409 117.651 227.409C114.681 227.409 112.755 225.663 112.755 223.017C112.755 220.443 114.573 218.625 117.147 218.625C119.739 218.625 121.413 220.227 121.413 222.675V223.521ZM117.165 219.993C115.725 219.993 114.591 220.893 114.303 222.243H119.991C119.775 220.875 118.695 219.993 117.165 219.993ZM127.066 227.229H125.5L121.954 218.805H123.61L126.292 225.627H126.328L129.028 218.805H130.612L127.066 227.229ZM139.782 223.521H132.672C132.888 225.087 134.148 226.041 136.056 226.041C137.298 226.041 138.378 225.645 139.17 224.889H139.242V226.437C138.486 227.049 137.334 227.409 136.02 227.409C133.05 227.409 131.124 225.663 131.124 223.017C131.124 220.443 132.942 218.625 135.516 218.625C138.108 218.625 139.782 220.227 139.782 222.675V223.521ZM135.534 219.993C134.094 219.993 132.96 220.893 132.672 222.243H138.36C138.144 220.875 137.064 219.993 135.534 219.993ZM145.628 218.625C146.186 218.625 146.618 218.769 146.906 218.949V220.479H146.834C146.474 220.227 146.024 220.083 145.52 220.083C143.9 220.083 143.126 221.199 143.126 223.395V227.229H141.596V218.805H142.892L142.928 220.155H142.964C143.468 219.147 144.35 218.625 145.628 218.625ZM150.757 230.649H149.173L150.883 226.923L147.355 218.805H149.011L151.693 225.321H151.729L154.429 218.805H156.013L150.757 230.649ZM166.161 225.555V227.103C165.783 227.301 165.279 227.409 164.631 227.409C162.867 227.409 161.877 226.365 161.877 224.475V220.137H160.329V218.805H161.913L162.147 216.519H163.407V218.805H166.125V220.137H163.407V224.439C163.407 225.447 163.947 226.041 164.847 226.041C165.315 226.041 165.747 225.915 166.089 225.555H166.161ZM175.613 227.229H174.317L174.281 225.897H174.245C173.669 226.851 172.643 227.409 171.221 227.409C169.079 227.409 167.765 226.023 167.765 223.701V218.805H169.295V223.539C169.295 225.123 170.159 226.041 171.581 226.041C173.147 226.041 174.083 224.961 174.083 223.179V218.805H175.613V227.229ZM182.015 218.625C182.573 218.625 183.005 218.769 183.293 218.949V220.479H183.221C182.861 220.227 182.411 220.083 181.907 220.083C180.287 220.083 179.513 221.199 179.513 223.395V227.229H177.983V218.805H179.279L179.315 220.155H179.351C179.855 219.147 180.737 218.625 182.015 218.625ZM189.09 218.625C191.232 218.625 192.546 220.029 192.546 222.333V227.229H191.016V222.513C191.016 220.929 190.152 219.993 188.73 219.993C187.164 219.993 186.228 221.073 186.228 222.855V227.229H184.698V218.805H185.994L186.03 220.137H186.066C186.642 219.183 187.668 218.625 189.09 218.625ZM195.78 225.321C196.374 225.321 196.806 225.771 196.806 226.365C196.806 226.959 196.374 227.409 195.78 227.409C195.186 227.409 194.736 226.959 194.736 226.365C194.736 225.771 195.186 225.321 195.78 225.321Z" fill="#1A1A1A"/>
<path d="M168.552 24.3719L141.155 89.2779L140.708 90.3722L137.922 90.4056L137.541 90.4087L137.467 90.4098L137.525 90.4504C137.563 90.6998 137.608 90.924 137.667 91.1254C138.047 92.4262 138.844 92.7851 139.311 92.88C139.516 92.9259 139.659 92.9176 139.659 92.9176L140.741 92.903L185.177 92.4137L212.641 17.5703L168.552 24.3719Z" fill="#FADED6"/>
<path d="M209.679 15.0742L165.592 21.8727L136.695 90.4184L182.214 89.9208L209.679 15.0742Z" fill="#FFF7F3"/>
<path d="M140.35 93.9966C136.421 94.0279 136.042 90.1483 136.005 89.4504L136.001 89.3398L137.667 91.1268C138.047 92.4277 138.844 92.7865 139.311 92.8815L140.35 93.9966Z" fill="#FFF7F3"/>
<path d="M213.333 18.6509L203.557 45.2949L202.334 48.63L185.869 93.4964L185.174 92.4178L201.652 47.5096L202.662 44.7598L212.639 17.5723L213.333 18.6509Z" fill="#F2A4A1"/>
<path d="M208.986 13.9961L181.521 88.8416L171.975 88.948L161.984 89.0565L149.287 89.1973L136.002 89.3413L142.004 75.0986L147.742 61.4892L148.33 60.0955L164.897 20.7945L208.986 13.9961Z" fill="url(#paint0_linear_407_1912)"/>
<path d="M209.681 15.0767L209.175 16.4798L182.216 89.9201L181.519 88.8425L207.664 17.6628L208.984 13.998L209.681 15.0767Z" fill="#F2A4A1"/>
<path d="M185.869 93.4975L185.175 92.4189L139.656 92.9154L139.658 92.9175C139.656 92.9175 139.515 92.9259 139.311 92.88C138.844 92.785 138.047 92.4262 137.667 91.1253C137.608 90.924 137.563 90.6997 137.525 90.4504L137.467 90.4097L137.541 90.4087L137.922 90.4055L140.708 90.3722L182.215 89.9194L181.518 88.8418L141.154 89.2789L138.288 89.3123L136 89.3384L136.004 89.4489C136.04 90.1468 136.419 94.0254 140.348 93.9951L139.878 93.266L139.705 92.9937L140.348 93.9941L185.869 93.4975Z" fill="#B17758"/>
<path d="M211.246 18.7683L184.457 91.6432C183.608 90.2902 182.215 89.9188 182.215 89.9188L209.174 16.4785C209.374 16.5974 209.681 16.78 209.99 17.0168C210.03 17.0439 210.071 17.0783 210.113 17.1055C210.706 17.5666 211.289 18.1747 211.246 18.7683Z" fill="#F8F6F5"/>
<path d="M210.113 17.1052L183.224 90.3421L183.186 90.0198L209.99 17.0176C210.031 17.0447 210.072 17.0781 210.113 17.1052Z" fill="#C0C0D3"/>
<path d="M210.869 17.6941L183.98 90.93L183.941 90.6077L210.746 17.6055C210.788 17.6326 210.828 17.666 210.869 17.6941Z" fill="#C0C0D3"/>
<path d="M184.457 91.6443L139.531 92.1221C139.531 92.1221 137.352 92.4142 137.524 90.452C137.525 90.4394 137.533 90.428 137.54 90.4102L182.215 89.9199C182.215 89.9199 183.608 90.2913 184.457 91.6443Z" fill="#C0C0D3"/>
<path d="M151.552 21.3719L124.155 86.2779L123.708 87.3722L120.922 87.4056L120.541 87.4087L120.467 87.4098L120.525 87.4504C120.563 87.6998 120.608 87.924 120.667 88.1254C121.047 89.4262 121.844 89.7851 122.311 89.88C122.516 89.9259 122.659 89.9176 122.659 89.9176L123.741 89.903L168.177 89.4137L195.641 14.5703L151.552 21.3719Z" fill="#FADED6"/>
<path d="M192.679 12.0742L148.592 18.8727L119.695 87.4184L165.214 86.9208L192.679 12.0742Z" fill="#FFF7F3"/>
<path d="M123.35 90.9966C119.421 91.0279 119.042 87.1483 119.005 86.4504L119.001 86.3398L120.667 88.1268C121.047 89.4277 121.844 89.7865 122.311 89.8815L123.35 90.9966Z" fill="#FFF7F3"/>
<path d="M196.333 15.6509L186.557 42.2949L185.334 45.63L168.869 90.4964L168.174 89.4178L184.652 44.5096L185.662 41.7598L195.639 14.5723L196.333 15.6509Z" fill="#F2A4A1"/>
<path d="M191.986 10.9961L164.521 85.8416L154.975 85.948L144.984 86.0565L132.287 86.1973L119.002 86.3413L125.004 72.0986L130.742 58.4892L131.33 57.0955L147.897 17.7945L191.986 10.9961Z" fill="url(#paint1_linear_407_1912)"/>
<path d="M192.681 12.0767L192.175 13.4798L165.216 86.9201L164.519 85.8425L190.664 14.6628L191.984 10.998L192.681 12.0767Z" fill="#F2A4A1"/>
<path d="M168.869 90.4975L168.175 89.4189L122.656 89.9154L122.658 89.9175C122.656 89.9175 122.515 89.9259 122.311 89.88C121.844 89.785 121.047 89.4262 120.667 88.1253C120.608 87.924 120.563 87.6997 120.525 87.4504L120.467 87.4097L120.541 87.4087L120.922 87.4055L123.708 87.3722L165.215 86.9194L164.518 85.8418L124.154 86.2789L121.288 86.3123L119 86.3384L119.004 86.4489C119.04 87.1468 119.419 91.0254 123.348 90.9951L122.878 90.266L122.705 89.9937L123.348 90.9941L168.869 90.4975Z" fill="#B17758"/>
<path d="M194.246 15.7683L167.457 88.6432C166.608 87.2902 165.215 86.9188 165.215 86.9188L192.174 13.4785C192.374 13.5974 192.681 13.78 192.99 14.0168C193.03 14.0439 193.071 14.0783 193.113 14.1055C193.706 14.5666 194.289 15.1747 194.246 15.7683Z" fill="#F8F6F5"/>
<path d="M193.113 14.1052L166.224 87.3421L166.186 87.0198L192.99 14.0176C193.031 14.0447 193.072 14.0781 193.113 14.1052Z" fill="#C0C0D3"/>
<path d="M193.869 14.6941L166.98 87.93L166.941 87.6077L193.746 14.6055C193.788 14.6326 193.828 14.666 193.869 14.6941Z" fill="#C0C0D3"/>
<path d="M167.457 88.6443L122.531 89.1221C122.531 89.1221 120.352 89.4142 120.524 87.452C120.525 87.4394 120.533 87.428 120.54 87.4102L165.215 86.9199C165.215 86.9199 166.608 87.2913 167.457 88.6443Z" fill="#C0C0D3"/>
<g clip-path="url(#clip0_407_1912)">
<path d="M179.944 12.3974L178.333 12.262C177.365 11.073 175.932 10.2406 174.244 10.0985C172.044 9.9135 170.06 10.9332 168.887 12.654C167.503 11.707 165.739 11.519 164.177 12.2183C163.301 10.4043 161.515 9.06743 159.355 8.88574C157.705 8.74699 156.114 9.32511 154.961 10.3356L153.39 10.2035C153.037 10.1738 152.739 10.4256 152.709 10.779L152.504 13.2141C152.474 13.5676 152.726 13.8656 153.04 13.8921L153.011 14.2456C152.736 17.5054 155.147 20.3582 158.406 20.6324C161.666 20.9066 164.519 18.4965 164.793 15.2366C164.846 14.6082 164.817 14.0125 164.667 13.4461C165.823 12.8709 167.273 13.0324 168.316 13.7926C168.113 14.3292 167.946 14.9085 167.896 15.4976C167.622 18.7575 170.032 21.6102 173.292 21.8844C176.552 22.1586 179.404 19.7485 179.679 16.4886L179.708 16.1352C180.062 16.1649 180.363 15.8738 180.39 15.5596L180.594 13.1245C180.546 12.7645 180.297 12.4271 179.944 12.3974ZM158.499 19.5327C155.867 19.3113 153.889 16.9695 154.11 14.3381C154.127 14.1417 154.14 13.9846 154.196 13.7915L158.438 14.1483C159.616 14.2474 160.479 15.2693 160.38 16.4475C160.354 16.7617 160.569 17.0172 160.884 17.0436C161.198 17.0701 161.453 16.8542 161.48 16.54C161.628 14.7726 160.297 13.1972 158.53 13.0486L154.524 12.7116C155.347 10.9218 157.227 9.73512 159.308 9.91021C161.94 10.1315 163.918 12.4734 163.697 15.1048C163.469 17.8148 161.13 19.754 158.499 19.5327ZM173.345 20.7814C170.714 20.5601 168.735 18.2182 168.956 15.5868C169.178 12.9553 171.52 10.9769 174.151 11.1982C176.233 11.3733 177.888 12.8573 178.4 14.7594L174.315 14.4159C172.548 14.2672 170.973 15.5982 170.824 17.3656C170.798 17.6798 171.013 17.9352 171.328 17.9617C171.642 17.9881 171.897 17.7723 171.924 17.4581C172.023 16.2798 173.045 15.4165 174.223 15.5156L178.583 15.8823C178.605 16.0819 178.592 16.239 178.576 16.4354C178.315 19.0636 176.016 21.0061 173.345 20.7814Z" fill="#855033"/>
</g>
<defs>
<linearGradient id="paint0_linear_407_1912" x1="209.467" y1="2.80022" x2="160.727" y2="72.5477" gradientUnits="userSpaceOnUse">
<stop stop-color="#FADED6"/>
<stop offset="1" stop-color="#ED7B74"/>
</linearGradient>
<linearGradient id="paint1_linear_407_1912" x1="192.467" y1="-0.199776" x2="143.727" y2="69.5477" gradientUnits="userSpaceOnUse">
<stop stop-color="#FADED6"/>
<stop offset="1" stop-color="#EDA074"/>
</linearGradient>
<clipPath id="clip0_407_1912">
<rect width="28.3781" height="28.3781" fill="white" transform="translate(153.379 -0.00390625) rotate(4.80793)"/>
</clipPath>
</defs>
</svg>
