<svg width="150" height="150" viewBox="0 0 150 150" fill="none" xmlns="http://www.w3.org/2000/svg">
<path fill-rule="evenodd" clip-rule="evenodd" d="M106.197 77.4519C110.951 83.059 118.737 90.0146 120.01 97.3991C122.042 109.189 105.733 108.491 98.8482 106.907C97.0215 106.486 95.1962 106.044 93.395 105.521C91.2521 104.899 89.1169 104.238 87.0114 103.498C85.0016 110.485 81.4265 118.759 76.0952 123.834C71.6278 128.086 66.1763 127.706 62.69 122.491C58.5267 116.264 57.0496 107.71 55.8937 100.454C48.6034 97.8464 41.0873 95.256 34.6385 90.9662C28.4398 86.8417 28.7948 80.254 34.5751 75.9356C36.4423 74.5403 38.4665 73.3628 40.5484 72.3182C43.3503 70.9134 50.3311 68.0938 52.0846 67.3179C52.2288 67.1207 51.8885 65.2343 51.8633 64.8987C51.6943 62.6184 51.5716 60.3491 51.539 58.0619C51.5152 56.3359 51.5049 54.6087 51.5146 52.8831C51.5486 46.7416 50.5598 30.691 60.5803 32.5382C61.5986 32.7264 62.5536 33.1074 63.4741 33.5725C64.9939 34.3414 66.3977 35.4216 67.7197 36.4882C70.2019 38.491 72.4525 40.7559 74.7124 42.9986C78.0884 46.3475 81.2697 49.9484 84.7865 53.1541C84.8302 53.1934 84.869 53.238 84.9058 53.2844C87.5428 52.1944 90.1787 51.0814 92.8432 50.0581C98.6556 47.8248 106.893 42.41 111.897 46.9761C114.604 49.4446 114.546 53.35 113.815 56.6473C112.327 63.3448 109.018 69.4697 105.846 75.4868" fill="#D3EAFF"/>
<path d="M106.197 77.4519C110.951 83.059 118.737 90.0146 120.01 97.3991C122.042 109.189 105.733 108.491 98.8482 106.907C97.0215 106.486 95.1962 106.044 93.395 105.521C91.2521 104.899 89.1169 104.238 87.0114 103.498C85.0016 110.485 81.4265 118.759 76.0952 123.834C71.6278 128.086 66.1764 127.706 62.69 122.491C58.5267 116.264 57.0496 107.71 55.8937 100.454C48.6034 97.8464 41.0873 95.256 34.6385 90.9662C28.4398 86.8417 28.7948 80.254 34.5751 75.9356C36.4423 74.5403 38.4665 73.3628 40.5484 72.3182C43.3503 70.9134 50.3311 68.0938 52.0846 67.3179C52.2288 67.1207 51.8885 65.2343 51.8633 64.8987C51.6943 62.6184 51.5716 60.3491 51.539 58.0619C51.5152 56.3359 51.5049 54.6087 51.5146 52.8831C51.5486 46.7416 50.5598 30.691 60.5803 32.5382C61.5986 32.7264 62.5537 33.1074 63.4741 33.5725C64.9939 34.3414 66.3977 35.4216 67.7197 36.4882C70.2019 38.491 72.4525 40.7559 74.7124 42.9986C78.0884 46.3475 81.2697 49.9484 84.7865 53.1541C84.8302 53.1934 84.869 53.238 84.9058 53.2844C87.5428 52.1944 90.1787 51.0814 92.8432 50.0581C98.6556 47.8248 106.893 42.41 111.897 46.9761C114.604 49.4446 114.546 53.35 113.815 56.6473C112.327 63.3448 109.018 69.4697 105.846 75.4868" stroke="#D3EAFF" stroke-width="6.30993" stroke-miterlimit="1.5" stroke-linecap="round" stroke-linejoin="round"/>
</svg>
