<svg width="110" height="101" viewBox="0 0 110 101" fill="none" xmlns="http://www.w3.org/2000/svg">
<path d="M52.6418 25.6047C47.7915 26.7865 44.6794 31.4034 45.2617 36.2393C43.5542 31.6776 38.6672 29.0096 33.8169 30.1914C28.9665 31.3731 25.8545 35.9901 26.4367 40.8259C24.7293 36.2643 19.8422 33.5963 14.9919 34.7781C9.75614 36.0537 6.54587 41.3323 7.82156 46.5681C7.83073 46.6057 7.8401 46.6432 7.84969 46.6807L7.84903 46.6808C12.9244 67.5117 33.9256 80.284 54.7565 75.2086C75.5874 70.1332 88.3597 49.132 83.2843 28.3011L83.2836 28.3013C83.2749 28.2636 83.266 28.226 83.2568 28.1884C81.9811 22.9526 76.7025 19.7423 71.4668 21.018C66.6164 22.1998 63.5044 26.8168 64.0866 31.6526C62.3792 27.0909 57.4921 24.4229 52.6418 25.6047Z" fill="#FFA6C1"/>
</svg>
