<svg width="57" height="70" viewBox="0 0 57 70" fill="none" xmlns="http://www.w3.org/2000/svg">
<path d="M21.0838 4.53709C17.1741 13.6043 16.1747 23.5832 16.7284 33.4482C17.0458 39.1178 16.904 51.7891 23.8051 53.698C30.8412 55.6425 34.3592 46.2619 35.4464 40.7489C37.1885 31.8669 36.8644 22.3652 34.0486 13.761C32.6711 9.54435 30.6926 4.61544 27.5392 1.52418C24.7572 -1.20382 21.9616 0.0853945 19.5037 2.59971C19.1998 2.91311 19.6658 3.39746 19.9696 3.09118C29.018 -6.1541 34.9602 18.0133 35.5815 24.324C36.3377 32.045 36.0879 42.0097 31.9689 48.7406C30.8007 50.6495 29.0653 52.3946 26.9112 52.9573C22.7584 54.0328 20.4085 50.7991 19.2741 47.2448C17.8899 42.9142 17.6468 37.9853 17.3902 33.4553C16.8432 23.7257 17.7953 13.8393 21.651 4.89322C21.8266 4.48723 21.2594 4.13109 21.0838 4.53709Z" fill="#00477C"/>
<path d="M3.01434 24.2534C8.79449 30.3932 15.7496 35.2366 23.5555 37.9931C29.8691 40.2225 39.1741 42.1813 45.4539 38.8479C52.5913 35.0586 48.6006 26.8461 43.7928 23.0497C36.7972 17.5296 27.8028 15.5281 19.2474 14.9797C13.8926 14.6378 -2.40117 14.6805 0.299835 24.5455C0.414628 24.9728 1.04935 24.7876 0.934553 24.3603C-1.13172 16.8244 10.2733 15.6207 14.919 15.5424C19.1326 15.4711 23.4407 15.8914 27.5732 16.739C32.0974 17.6649 36.527 19.2105 40.5313 21.6465C44.5423 24.0825 50.9032 29.3462 48.2089 34.9873C44.4883 42.7796 30.3823 39.5957 24.2105 37.4945C16.3235 34.8093 9.29417 29.9587 3.4735 23.7691C3.17639 23.4486 2.71723 23.94 3.01434 24.2534Z" fill="#00477C"/>
<path d="M4.84354 41.3117C11.2247 32.0521 17.7746 22.8781 25.2024 14.5089C28.7339 10.5345 32.4613 6.61697 36.8977 3.76076C39.7608 1.91598 44.7441 -0.206591 46.277 4.75794C47.1818 7.67825 45.6693 11.1399 44.4538 13.6471C40.22 22.4009 33.6093 30.7558 26.8635 37.4725C23.3252 40.9911 19.4357 44.1251 15.1546 46.5682C12.9128 47.8503 9.61757 49.8304 7.01785 48.6908C1.84543 46.4258 7.21368 39.4099 8.75325 37.1449C8.99634 36.7816 8.42914 36.4397 8.18604 36.7959C6.57895 39.1535 2.09527 44.4955 4.16829 47.5797C6.0725 50.4145 10.1443 49.7307 12.69 48.6196C21.8396 44.6309 29.3957 36.5252 35.4797 28.5335C38.6061 24.4237 41.719 20.1287 44.2175 15.556C45.9799 12.3365 48.1339 7.94179 46.7564 4.15251C43.657 -4.39474 32.772 5.74087 29.524 8.92472C19.8882 18.3552 11.9742 29.7871 4.26957 40.9555C4.03324 41.3259 4.60045 41.6678 4.84354 41.3117Z" fill="#00477C"/>
<path d="M24.5612 24.9084C22.2653 27.3444 26.5397 31.4755 28.2953 28.6407C29.0583 27.4085 28.6329 25.3714 27.3567 24.7018C25.9454 23.9682 24.1695 25.0437 23.3525 26.2403C23.1026 26.6036 23.6698 26.9455 23.9197 26.5894C24.4869 25.7631 25.3782 25.2147 26.3573 25.2004C27.6606 25.1791 28.4236 26.9241 27.8429 28.0922C26.7287 30.3501 23.2985 27.2375 25.0271 25.3999C25.3242 25.0793 24.8583 24.595 24.5612 24.9084Z" fill="#00477C"/>
<path d="M0.325734 23.9972C0.0691381 25.3576 0.892959 26.9246 2.17594 27.3377C3.53319 27.7722 4.81617 26.5471 4.68787 25.0941C4.57308 23.7408 3.24282 22.3518 1.90582 22.5156C0.467534 22.6937 -0.00513128 24.453 0.460792 25.7066C0.6161 26.1126 1.25084 25.9345 1.09553 25.5214C0.778162 24.681 0.913205 23.3775 1.95309 23.2137C2.89169 23.0641 3.82355 24.0684 4.01262 24.973C4.24896 26.1126 3.1888 27.1169 2.16242 26.597C1.35212 26.191 0.784906 25.1154 0.960472 24.1824C1.0415 23.7408 0.406764 23.5556 0.325734 23.9972Z" fill="#00477C"/>
<path d="M11.2521 47.4091C10.8875 48.798 11.5358 50.3152 12.7445 50.9776C13.7843 51.5545 15.1956 51.3622 15.6751 50.1086C16.114 48.9761 15.3307 47.3948 14.1355 47.2524C12.9876 47.1171 12.5216 48.449 12.9335 49.3963C13.1091 49.8023 13.6763 49.4462 13.5007 49.0473C13.2779 48.5416 13.5142 47.8222 14.1557 47.9504C14.4731 48.0145 14.7837 48.3635 14.939 48.6413C15.3982 49.4604 15.0133 50.5146 14.0612 50.6143C12.5824 50.7639 11.5155 48.9761 11.8801 47.5872C12.0017 47.1598 11.3669 46.9817 11.2521 47.4091Z" fill="#00477C"/>
<path d="M43.8539 12.3793C42.2671 14.6728 45.7784 21.7315 47.8514 18.8681C48.736 17.6501 48.2971 14.8295 47.4327 13.6828C46.2308 12.0944 44.5292 13.0346 43.4353 14.1671C43.1314 14.4805 43.5973 14.9649 43.9012 14.6586C45.0424 13.4834 46.7305 12.9064 47.3314 15.0147C47.4597 15.4777 47.5273 16.0048 47.5678 16.4749C47.6016 16.7527 47.6151 17.0233 47.6151 17.3011C47.7299 17.9279 47.4733 18.2698 46.8453 18.3197C46.3861 18.7969 46.0012 18.7613 45.6906 18.2128C45.4677 17.935 45.2652 17.643 45.0896 17.3296C44.8803 16.9806 44.698 16.6102 44.5359 16.2327C44.07 15.1358 43.6783 13.7896 44.4143 12.7283C44.6709 12.3651 44.1038 12.0232 43.8539 12.3793Z" fill="#00477C"/>
<path d="M20.5704 1.61673C18.2611 2.0797 19.1051 5.46299 20.0302 6.87328C21.0229 8.39042 22.8866 8.66821 23.4132 6.5955C23.7644 5.20657 23.4403 1.41729 21.4955 1.41017C19.3685 1.40304 19.0849 4.77921 18.9836 6.33196C18.9566 6.77356 19.6116 6.77356 19.6386 6.33196C19.7061 5.29204 19.7601 4.10968 20.2531 3.1766C20.7122 2.30051 21.455 1.83753 22.2383 2.7065C22.6435 3.14811 22.7853 4.1809 22.8528 4.76496C22.9203 5.35615 22.9676 6.13252 22.6907 6.67385C22.164 7.72801 21.2254 7.38612 20.6717 6.61687C19.956 5.61969 18.9161 2.64952 20.7528 2.27914C21.1579 2.20079 20.9823 1.53838 20.5704 1.61673Z" fill="#00477C"/>
<path d="M30.6043 45.8774C30.4963 48.1709 31.8671 50.5641 33.8928 51.4687C35.6958 52.2736 37.6 51.4402 37.3839 49.1894C37.1813 47.1025 35.7633 43.9471 33.3459 44.1537C30.7867 44.3745 31.05 47.772 31.6577 49.5598C31.7995 49.9729 32.4343 49.7949 32.2925 49.3746C31.7658 47.8219 31.5159 43.94 34.2169 45.0155C35.662 45.5925 36.945 47.9501 36.7559 49.6097C36.479 51.9958 33.9536 51.02 32.8529 49.9231C31.8063 48.876 31.1851 47.4088 31.2526 45.8845C31.2796 45.4358 30.6246 45.4358 30.6043 45.8774Z" fill="#00477C"/>
<path d="M56.0447 42.1793C55.0791 51.2679 52.9115 60.0644 49.5825 68.5048C49.3462 69.1031 50.2712 69.3667 50.5008 68.7755C53.8636 60.2425 56.0177 51.3605 56.9968 42.1793C57.0643 41.5382 56.1122 41.5454 56.0447 42.1793Z" fill="#00477C"/>
<path d="M53.3976 40.9549C50.9127 50.364 48.421 59.766 45.9361 69.1751C45.774 69.8019 46.6924 70.0654 46.8544 69.4458C49.3393 60.0367 51.831 50.6347 54.3159 41.2256C54.4847 40.5988 53.5597 40.3281 53.3976 40.9549Z" fill="#00477C"/>
</svg>
