<svg width="77" height="77" viewBox="0 0 77 77" fill="none" xmlns="http://www.w3.org/2000/svg">
<path d="M66.1323 27.5524C67.3129 27.3048 69.4241 27.8299 69.5252 31.1164C69.5553 32.0937 69.7311 32.4286 69.5565 33.483C69.4637 34.0437 69.3445 34.6095 69.1723 35.1652C69.002 35.7147 68.8067 36.2584 68.5612 36.7779C67.881 38.2342 66.9294 39.6658 65.8152 41.0283C64.2888 42.8945 62.495 44.6496 60.787 46.1399C56.8895 49.969 52.701 53.0788 48.1115 55.5149C43.5568 57.9326 38.6076 59.6601 33.2085 60.8425C30.7552 61.3344 28.0976 61.819 25.486 61.9242C23.5866 62.0007 21.7103 61.8781 19.9388 61.4485C18.2217 61.0315 16.6466 60.348 15.1912 59.488C13.0672 58.233 11.2005 56.6015 9.51409 54.9254C8.65706 54.0766 7.84506 50.8181 8.69393 49.961C9.54273 49.104 10.9277 49.0973 11.7847 49.9461C12.996 51.1416 14.3071 52.3198 15.7702 53.2971C17.0932 54.1808 18.5435 54.8986 20.1667 55.2866C21.5502 55.6178 23.0161 55.6911 24.4983 55.6285C26.877 55.5282 29.2956 55.0739 31.5301 54.6238C36.5852 53.6984 41.2228 52.2178 45.5512 50.155C49.9457 48.0608 54.0298 45.3873 57.8629 41.9944C59.3383 40.5242 60.9007 38.8242 62.1674 37.0068C62.9833 35.8362 63.6479 34.6094 64.0941 33.3851C64.2688 32.1223 64.3717 30.9444 64.3843 29.6993C64.4002 28.1914 65.4981 27.6854 66.1323 27.5524Z" fill="#F518AB"/>
<path fill-rule="evenodd" clip-rule="evenodd" d="M46.7987 16.262C48.1692 16.5354 48.6131 19.0509 48.97 20.1791C50.0836 23.6993 51.2649 27.9883 50.8007 31.6992C50.6247 33.106 49.7976 36.4125 47.7804 36.2805C46.5931 36.2029 45.5661 34.2653 45.081 33.3851C43.1722 29.9209 43.5839 26.1944 42.9688 22.3492C42.4737 19.2535 42.9526 15.4946 46.7987 16.262Z" fill="#F518AB"/>
<path fill-rule="evenodd" clip-rule="evenodd" d="M21.6959 21.5276C20.5508 22.3286 21.1551 24.8105 21.2815 25.987C21.6761 29.658 22.3176 34.0602 24.2337 37.2719C24.9602 38.4894 27.0461 41.1849 28.8404 40.2536C29.8964 39.7055 30.0584 37.5185 30.1488 36.5176C30.5049 32.5783 28.6306 29.3313 27.6489 25.563C26.8585 22.5293 24.9096 19.2795 21.6959 21.5276Z" fill="#F518AB"/>
</svg>
