<?xml version="1.0" encoding="UTF-8" standalone="no"?>
<svg
   width="1482"
   height="892"
   viewBox="0 0 1482 892"
   fill="none"
   version="1.1"
   id="svg8"
   sodipodi:docname="about-us-bg.svg"
   inkscape:version="1.4.2 (f4327f4, 2025-05-13)"
   xmlns:inkscape="http://www.inkscape.org/namespaces/inkscape"
   xmlns:sodipodi="http://sodipodi.sourceforge.net/DTD/sodipodi-0.dtd"
   xmlns="http://www.w3.org/2000/svg"
   xmlns:svg="http://www.w3.org/2000/svg">
  <defs
     id="defs8" />
  <sodipodi:namedview
     id="namedview8"
     pagecolor="#ffffff"
     bordercolor="#000000"
     borderopacity="0.25"
     inkscape:showpageshadow="2"
     inkscape:pageopacity="0.0"
     inkscape:pagecheckerboard="0"
     inkscape:deskcolor="#d1d1d1"
     inkscape:zoom="0.91479821"
     inkscape:cx="741.14706"
     inkscape:cy="446"
     inkscape:window-width="1920"
     inkscape:window-height="1018"
     inkscape:window-x="-6"
     inkscape:window-y="-6"
     inkscape:window-maximized="1"
     inkscape:current-layer="svg8" />
  <rect
     x="42.002"
     y="76"
     width="1440"
     height="767"
     fill="#F6EFFF"
     id="rect1" />
  <rect
     x="42.002"
     y="76"
     width="1440"
     height="767"
     fill="#715496"
     id="rect2" />
  <path
     fill-rule="evenodd"
     clip-rule="evenodd"
     d="M1372.43 95.8044C1366.56 97.4309 1363.75 103.8 1365.53 111.406C1366.1 113.811 1368.34 113.88 1371.07 112.368C1373.95 110.741 1377.35 107.328 1379.85 102.952C1382.52 98.2098 1378.33 94.1549 1372.43 95.8044ZM1375.19 97.912C1378.1 99.4469 1377.35 102.082 1372.48 107.145L1369.65 110.1L1369.57 107.878C1369.34 100.844 1371.94 96.1938 1375.19 97.912ZM1389.14 100.066C1385.15 101.715 1379.05 108.771 1379.05 111.749C1379.05 113.697 1380.62 113.628 1388.34 111.337C1394.45 109.527 1397.38 108.496 1398.69 107.053C1403.05 102.311 1395.68 97.3622 1389.14 100.066ZM1395.17 102.219C1396.53 104.075 1393.18 107.901 1389.19 109.069C1385.92 110.031 1383.68 110.558 1383.91 110.26C1384.04 110.123 1384.84 109.183 1385.69 108.176C1389.71 103.433 1394.06 100.707 1395.17 102.219ZM1379.92 116.423C1374.28 117.293 1372.25 120.73 1379.02 122.792C1380.21 123.158 1382.76 124.212 1384.69 125.129C1390.33 127.855 1393.13 127.9 1395.5 125.335C1397.33 123.365 1396.87 120.203 1395.12 117.866C1390.82 112.116 1382.96 115.942 1379.92 116.423ZM1392.95 118.783C1394.42 119.447 1394.37 120.959 1392.82 122.494C1390.74 124.556 1388.99 124.441 1384.02 121.898L1380.41 120.066C1380.98 119.974 1383.01 119.676 1386.41 118.966C1389.53 118.279 1391.72 118.233 1392.95 118.783Z"
     fill="white"
     id="path2" />
  <path
     opacity="0.88"
     d="M 182.80396,879.97449 H -33.558939 c -0.5957,-0.996 -1.1168,-1.992 -1.5635,-3.041 -3.1271,-7.34 -1.7125,-15.572 -1.2658,-23.07 0.8935,-16.254 2.6059,-32.456 6.1797,-48.5 3.4993,-15.887 10.2747,-31.197 19.6559,-45.879 4.9139003,-7.655 11.09359977,-14.785 20.6982,-20.029 7.3709,-3.985 15.7097,-6.134 25.0165,-6.449 7.222,-0.262 14.6674,1.154 21.8149,2.097 12.881,1.731 25.687,3.356 37.525,7.551 10.497999,3.722 19.282999,9.857 26.951999,16.044 14.221,11.43 26.804,23.962 36.632,37.542 9.753,13.422 17.571,27.841 21.666,42.68 2.233,8.074 3.722,16.359 4.095,24.643 0.223,5.505 -0.224,10.958 -1.043,16.411 z"
     fill="#c6b6e0"
     id="path4" />
  <path
     d="m 140.78178,101.24394 c -4.226,11.186 -16.845,17.133 -28.162,13.274 -11.318,-3.86 -23.935996,2.088 -28.161996,13.273 -4.226,11.186 -16.845,17.134 -28.1625,13.274 -11.3174,-3.86 -23.9363,2.088 -28.1622,13.274 -4.226,11.186 -16.6407,17.203 -27.95799969,13.343 V 59.521341 H 197.02978 v 11.8686 c 0,2.3196 -0.341,4.6668 -1.497,6.6778 -5.21,9.0632 -16.396,13.3782 -26.589,9.9022 -11.317,-3.86 -23.936,2.088 -28.162,13.273999 z"
     fill="#533681"
     id="path8" />
</svg>
