<svg width="1482" height="892" viewBox="0 0 1482 892" fill="none" xmlns="http://www.w3.org/2000/svg">
<rect x="42.002" y="76" width="1440" height="767" fill="#F6EFFF"/>
<rect x="42.002" y="76" width="1440" height="767" fill="#715496"/>
<path fill-rule="evenodd" clip-rule="evenodd" d="M1372.43 95.8044C1366.56 97.4309 1363.75 103.8 1365.53 111.406C1366.1 113.811 1368.34 113.88 1371.07 112.368C1373.95 110.741 1377.35 107.328 1379.85 102.952C1382.52 98.2098 1378.33 94.1549 1372.43 95.8044ZM1375.19 97.912C1378.1 99.4469 1377.35 102.082 1372.48 107.145L1369.65 110.1L1369.57 107.878C1369.34 100.844 1371.94 96.1938 1375.19 97.912ZM1389.14 100.066C1385.15 101.715 1379.05 108.771 1379.05 111.749C1379.05 113.697 1380.62 113.628 1388.34 111.337C1394.45 109.527 1397.38 108.496 1398.69 107.053C1403.05 102.311 1395.68 97.3622 1389.14 100.066ZM1395.17 102.219C1396.53 104.075 1393.18 107.901 1389.19 109.069C1385.92 110.031 1383.68 110.558 1383.91 110.26C1384.04 110.123 1384.84 109.183 1385.69 108.176C1389.71 103.433 1394.06 100.707 1395.17 102.219ZM1379.92 116.423C1374.28 117.293 1372.25 120.73 1379.02 122.792C1380.21 123.158 1382.76 124.212 1384.69 125.129C1390.33 127.855 1393.13 127.9 1395.5 125.335C1397.33 123.365 1396.87 120.203 1395.12 117.866C1390.82 112.116 1382.96 115.942 1379.92 116.423ZM1392.95 118.783C1394.42 119.447 1394.37 120.959 1392.82 122.494C1390.74 124.556 1388.99 124.441 1384.02 121.898L1380.41 120.066C1380.98 119.974 1383.01 119.676 1386.41 118.966C1389.53 118.279 1391.72 118.233 1392.95 118.783Z" fill="white"/>
<path d="M418.985 183.653C417.218 181.58 414.416 177.134 413.073 174.97C411.729 172.806 406.479 177.653 406.479 177.653C402.468 180.609 398.486 184.576 396.518 186.647C395.885 187.378 394.778 187.457 394.047 186.824C393.317 186.191 393.238 185.084 393.871 184.353C396.042 181.608 400.802 175.928 405.394 172.388C408.105 170.298 410.864 169.063 413.073 168.977C414.266 168.934 415.452 169.409 416.605 170.357C418.337 171.781 420.102 174.895 422.065 177.788C422.76 178.813 423.473 179.814 424.287 180.608C424.908 181.214 425.548 181.74 426.341 181.872C428.171 182.185 429.672 181.288 431.099 180.063C433.644 177.88 435.931 174.712 438.362 172.241C440.665 169.901 443.126 168.148 445.904 167.741C448.525 167.307 450.395 168.242 451.941 169.931C453.338 171.455 454.395 173.859 455.644 176.263C456.775 178.441 458.057 180.725 460.804 181.29C462.983 181.771 464.782 181.096 466.428 179.994C469.35 178.038 471.853 174.881 474.542 172.359C476.97 170.083 479.553 168.285 482.457 167.655C483.845 167.353 485.521 167.822 487.225 169.379C488.914 170.921 491.009 173.959 494.235 175.434C495.93 176.208 497.979 176.458 500.503 175.634C501.941 175.154 503.498 175.933 503.978 177.371C504.457 178.81 503.678 180.367 502.24 180.846C498.109 182.25 494.741 181.775 491.941 180.537C488.597 179.058 486.112 176.34 484.179 174.39C481.995 172.185 478.969 176.117 477.24 177.887C474.807 180.377 472.403 183.085 469.699 184.888C466.734 186.865 463.438 187.862 459.526 186.963C457.524 186.477 455.92 185.563 454.612 184.345C451.909 181.827 450.585 177.931 449.063 174.97C448.447 173.771 447.999 172.577 446.676 172.761C444.114 173.182 442.198 175.614 440.186 178.071C437.691 181.117 435.205 184.357 432.316 186.136C430.255 187.404 427.994 187.99 425.453 187.642C422.982 187.292 420.81 185.795 418.985 183.653Z" fill="#895BAE"/>
<path opacity="0.88" d="M230.902 891.999H14.5391C13.9434 891.003 13.4223 890.007 12.9756 888.958C9.8485 881.618 11.2631 873.386 11.7098 865.888C12.6033 849.634 14.3157 833.432 17.8895 817.388C21.3888 801.501 28.1642 786.191 37.5454 771.509C42.4593 763.854 48.639 756.724 58.2436 751.48C65.6145 747.495 73.9533 745.346 83.2601 745.031C90.4821 744.769 97.9275 746.185 105.075 747.128C117.956 748.859 130.762 750.484 142.6 754.679C153.098 758.401 161.883 764.536 169.552 770.723C183.773 782.153 196.356 794.685 206.184 808.265C215.937 821.687 223.755 836.106 227.85 850.945C230.083 859.019 231.572 867.304 231.945 875.588C232.168 881.093 231.721 886.546 230.902 891.999Z" fill="#C6B6E0"/>
<path fill-rule="evenodd" clip-rule="evenodd" d="M579.943 285.774C579.331 284.375 574.072 283.786 558.266 283.295C543.518 282.829 526.349 281.479 496.351 282.215C473.422 282.78 444.872 285.038 444.872 286.29C444.872 287.198 445.985 287.222 456.615 286.412C466.438 285.676 471.474 285.504 477.624 285.308C452.969 287.222 447.71 288.474 434.576 289.676C426.339 290.437 431.153 292.622 434.158 292.401C434.186 292.401 472.504 289.652 476.121 289.799C476.455 289.824 472.81 290.265 467.996 290.781C454.556 292.253 457.143 294.707 467.217 293.578C501.11 289.774 532.999 288.596 557.571 290.241C565.334 290.756 566.197 290.756 566.197 290.118C566.197 288.989 564.082 288.13 560.771 287.958C555.595 287.664 535.671 286.829 526.655 286.584C525.959 286.559 526.293 286.093 526.905 286.044C530.578 285.725 559.741 285.97 571.206 286.314C579.637 286.559 580.249 286.535 579.943 285.774Z" fill="#A76FD6"/>
<path d="M336.002 317.999H746.282L765.002 415.999H350.042L336.002 317.999Z" fill="#EFFBEC"/>
<path d="M726.653 536.684C738.318 530.231 747.798 533.594 752.255 536.669L752.671 536.965L752.757 537.029L752.838 537.096L752.837 537.095C752.838 537.096 752.842 537.099 752.847 537.103C752.856 537.11 752.873 537.124 752.896 537.143C752.944 537.181 753.019 537.241 753.118 537.319C753.318 537.476 753.616 537.705 753.989 537.981C754.743 538.538 755.782 539.266 756.938 539.968C758.11 540.678 759.313 541.306 760.404 541.717C761.57 542.155 762.222 542.196 762.445 542.167C762.646 542.141 763.159 541.99 763.989 541.52C764.769 541.077 765.602 540.485 766.4 539.849C767.189 539.22 767.883 538.597 768.382 538.129C768.629 537.897 768.823 537.707 768.952 537.579C769.016 537.516 769.064 537.467 769.094 537.438C769.108 537.423 769.119 537.412 769.124 537.406L769.126 537.404C769.131 537.41 769.257 537.532 772.003 540.185C774.786 542.873 774.876 542.961 774.879 542.964L774.875 542.968C774.873 542.97 774.871 542.972 774.869 542.975C774.864 542.98 774.858 542.986 774.851 542.993C774.836 543.008 774.816 543.029 774.791 543.054C774.741 543.104 774.672 543.174 774.585 543.261C774.411 543.433 774.163 543.674 773.857 543.961C773.249 544.532 772.388 545.306 771.387 546.104C770.395 546.895 769.203 547.76 767.934 548.479C766.715 549.17 765.155 549.884 763.472 550.102C761.344 550.377 759.237 549.825 757.588 549.205C755.864 548.557 754.195 547.661 752.789 546.808C751.368 545.946 750.123 545.071 749.237 544.417C748.792 544.088 748.431 543.81 748.177 543.61C748.05 543.511 747.949 543.431 747.878 543.373C747.874 543.37 747.869 543.366 747.865 543.362C745.609 541.727 739.476 538.96 730.992 543.433C730.841 543.58 730.658 543.76 730.444 543.961C729.836 544.532 728.975 545.306 727.974 546.104C726.982 546.895 725.789 547.76 724.521 548.479C723.302 549.17 721.741 549.884 720.059 550.102C717.931 550.377 715.824 549.825 714.175 549.205C712.451 548.557 710.782 547.661 709.376 546.808C707.955 545.946 706.71 545.071 705.824 544.417C705.379 544.088 705.018 543.81 704.764 543.61C704.637 543.511 704.536 543.431 704.465 543.373C704.461 543.37 704.456 543.366 704.452 543.362C702.196 541.727 696.063 538.959 687.579 543.433C687.428 543.58 687.245 543.76 687.031 543.961C686.423 544.532 685.562 545.306 684.561 546.104C683.569 546.895 682.376 547.76 681.107 548.479C679.889 549.17 678.328 549.884 676.646 550.102C674.517 550.377 672.411 549.825 670.762 549.205C669.038 548.557 667.369 547.661 665.963 546.808C664.542 545.946 663.297 545.071 662.411 544.417C661.966 544.088 661.605 543.81 661.351 543.61C661.224 543.511 661.123 543.431 661.052 543.373C661.048 543.37 661.043 543.366 661.039 543.362C658.783 541.727 652.65 538.959 644.166 543.433C644.015 543.58 643.832 543.76 643.618 543.961C643.01 544.532 642.149 545.306 641.147 546.104C640.156 546.895 638.963 547.76 637.694 548.479C636.475 549.17 634.915 549.884 633.232 550.102C631.104 550.377 628.998 549.825 627.349 549.205C625.625 548.557 623.956 547.661 622.55 546.808C621.129 545.946 619.884 545.071 618.998 544.417C618.553 544.088 618.191 543.81 617.938 543.61C617.811 543.511 617.71 543.431 617.639 543.373C617.634 543.37 617.63 543.366 617.626 543.362C615.37 541.727 609.238 538.96 600.755 543.432C600.603 543.58 600.42 543.76 600.206 543.961C599.597 544.532 598.737 545.306 597.735 546.104C596.743 546.895 595.551 547.76 594.282 548.479C593.063 549.17 591.503 549.884 589.82 550.102C587.692 550.377 585.586 549.825 583.937 549.205C582.213 548.557 580.544 547.66 579.138 546.808C577.717 545.946 576.472 545.071 575.586 544.417C575.141 544.088 574.779 543.81 574.525 543.61C574.399 543.511 574.298 543.431 574.227 543.373C574.222 543.37 574.218 543.366 574.214 543.362C571.917 541.697 565.6 538.859 556.875 543.685L554.938 540.185L553.002 536.684C564.666 530.231 574.146 533.594 578.604 536.669L579.02 536.965L579.105 537.029L579.187 537.096L579.186 537.095C579.187 537.096 579.191 537.099 579.195 537.103C579.205 537.11 579.222 537.124 579.245 537.143C579.292 537.181 579.367 537.241 579.467 537.319C579.666 537.476 579.964 537.706 580.338 537.981C581.091 538.538 582.131 539.266 583.287 539.968C584.458 540.678 585.662 541.306 586.753 541.717C587.918 542.155 588.571 542.196 588.794 542.167C588.995 542.141 589.508 541.99 590.338 541.52C591.118 541.077 591.951 540.485 592.749 539.849C593.537 539.22 594.232 538.597 594.73 538.129C594.978 537.897 595.172 537.707 595.301 537.579C595.365 537.515 595.413 537.467 595.442 537.438C595.457 537.423 595.467 537.412 595.473 537.406C595.473 537.406 595.474 537.405 595.475 537.404C595.482 537.412 595.622 537.548 598.349 540.182L596.414 536.684C608.078 530.231 617.558 533.594 622.016 536.669L622.432 536.965L622.518 537.029L622.599 537.096L622.598 537.095C622.599 537.096 622.603 537.099 622.607 537.103C622.617 537.11 622.634 537.124 622.657 537.143C622.705 537.181 622.779 537.241 622.879 537.319C623.079 537.476 623.376 537.705 623.75 537.981C624.504 538.538 625.543 539.266 626.699 539.968C627.871 540.678 629.074 541.306 630.165 541.717C631.33 542.155 631.982 542.196 632.206 542.167C632.407 542.141 632.92 541.99 633.75 541.52C634.53 541.078 635.363 540.484 636.161 539.849C636.949 539.22 637.644 538.597 638.143 538.129C638.389 537.897 638.584 537.707 638.713 537.579C638.777 537.516 638.825 537.467 638.854 537.438C638.869 537.423 638.879 537.412 638.885 537.406L638.887 537.404C638.889 537.407 638.972 537.488 641.764 540.185L639.827 536.684C651.492 530.231 660.972 533.594 665.429 536.669L665.845 536.965L665.931 537.029L666.012 537.096L666.011 537.095C666.012 537.096 666.016 537.099 666.021 537.103C666.03 537.11 666.047 537.124 666.07 537.143C666.118 537.181 666.192 537.241 666.292 537.319C666.492 537.476 666.789 537.705 667.163 537.981C667.917 538.538 668.956 539.266 670.112 539.968C671.284 540.678 672.487 541.306 673.578 541.717C674.743 542.155 675.396 542.196 675.619 542.167C675.82 542.141 676.333 541.99 677.163 541.52C677.943 541.077 678.776 540.485 679.574 539.849C680.363 539.22 681.057 538.597 681.556 538.129C681.803 537.897 681.997 537.707 682.126 537.579C682.19 537.516 682.238 537.467 682.268 537.438C682.282 537.423 682.292 537.412 682.298 537.406L682.3 537.404C682.304 537.409 682.411 537.513 685.177 540.185L683.24 536.684C694.905 530.231 704.385 533.594 708.842 536.669L709.258 536.965L709.344 537.029L709.425 537.096L709.424 537.095C709.425 537.096 709.429 537.099 709.434 537.103C709.443 537.11 709.46 537.124 709.483 537.143C709.531 537.181 709.606 537.241 709.705 537.319C709.905 537.476 710.202 537.705 710.576 537.981C711.33 538.538 712.369 539.266 713.525 539.968C714.697 540.678 715.9 541.306 716.991 541.717C718.157 542.155 718.809 542.196 719.032 542.167C719.233 542.141 719.746 541.99 720.576 541.52C721.356 541.077 722.189 540.485 722.987 539.849C723.776 539.22 724.47 538.597 724.969 538.129C725.216 537.897 725.41 537.707 725.539 537.579C725.603 537.516 725.651 537.467 725.681 537.438C725.695 537.423 725.706 537.412 725.711 537.406L725.713 537.404C725.717 537.409 725.823 537.512 728.59 540.185L726.653 536.684Z" fill="#FFD900"/>
<rect x="921.48" y="152.906" width="387" height="629.489" rx="10" transform="rotate(-4.21935 921.48 152.906)" stroke="#F8F8F8" stroke-width="4"/>
<path d="M182.321 117.641C178.095 128.827 165.476 134.774 154.159 130.915C142.841 127.055 130.223 133.003 125.997 144.188C121.771 155.374 109.152 161.322 97.8345 157.462C86.5171 153.602 73.8982 159.55 69.6723 170.736C65.4463 181.922 53.0316 187.939 41.7143 184.079L41.7143 75.9184L238.569 75.9184L238.569 87.787C238.569 90.1066 238.228 92.4538 237.072 94.4648C231.862 103.528 220.676 107.843 210.483 104.367C199.166 100.507 186.547 106.455 182.321 117.641Z" fill="#533681"/>
</svg>
