<svg xmlns="http://www.w3.org/2000/svg" width="150" height="10" viewBox="0 0 150 10" fill="none">
  <path fill-rule="evenodd" clip-rule="evenodd" d="M149.957 3.13802C149.508 1.97486 145.651 1.48511 134.06 1.07699C123.245 0.689264 110.654 -0.43309 88.6563 0.179101C71.8415 0.648447 50.9046 2.52583 50.9046 3.56656C50.9046 4.32159 51.7208 4.342 59.516 3.66859C66.7195 3.0564 70.413 2.91355 74.9228 2.7503C56.8428 4.342 52.986 5.38272 43.3542 6.38264C37.3139 7.01523 40.8442 8.83139 43.0481 8.64774C43.0685 8.64774 71.1681 6.36223 73.8209 6.48467C74.0658 6.50507 71.3925 6.87239 67.8622 7.30092C58.006 8.5253 59.9038 10.5657 67.2909 9.62704C92.1458 6.46405 115.532 5.48455 133.55 6.85177C139.244 7.28031 139.876 7.28031 139.876 6.74974C139.876 5.81105 138.325 5.09704 135.897 4.95419C132.101 4.70932 117.491 4.01529 110.879 3.81123C110.369 3.79082 110.614 3.40331 111.063 3.36249C113.756 3.09721 135.142 3.30107 143.549 3.58676C149.733 3.79082 150.181 3.77062 149.957 3.13802Z" fill="#A76FD6"/>
</svg> 