<svg width="142" height="143" viewBox="0 0 142 143" fill="none" xmlns="http://www.w3.org/2000/svg">
<path d="M75.2029 1.77102C71.9847 0.693189 70.0153 0.693189 66.7971 1.77102C58.9461 4.4004 59.2866 21.0402 61.7127 37.4574C55.5703 22.0405 47.5125 7.47789 39.4024 9.14456C36.0779 9.82777 34.3747 10.8163 32.1322 13.3639C26.7394 19.4907 35.0663 33.3978 45.2088 46.228C32.3564 36.1137 18.431 27.8173 12.316 33.2236C9.77334 35.4717 8.78858 37.1771 8.11269 40.503C6.47505 48.5616 20.8464 56.5334 36.1596 62.6261C19.8517 60.245 3.41986 59.9622 0.808373 67.7597C-0.269458 70.978 -0.269458 72.9473 0.808373 76.1656C3.41986 83.9631 19.8517 83.6803 36.1596 81.2992C20.8464 87.3919 6.47499 95.3637 8.11262 103.422C8.78852 106.748 9.77327 108.454 12.316 110.702C18.4309 116.108 32.3561 107.812 45.2084 97.6976C35.0659 110.528 26.7392 124.435 32.132 130.561C34.3745 133.109 36.0777 134.098 39.4022 134.781C47.5124 136.447 55.5704 121.884 61.7128 106.467C59.2867 122.885 58.946 139.525 66.7971 142.154C70.0153 143.232 71.9847 143.232 75.2029 142.154C83.0542 139.525 82.7133 122.884 80.287 106.466C86.4295 121.884 94.4876 136.447 102.598 134.781C105.923 134.098 107.626 133.109 109.868 130.561C115.261 124.435 106.934 110.528 96.7919 97.6976C109.644 107.812 123.569 116.108 129.684 110.702C132.227 108.454 133.212 106.748 133.888 103.422C135.525 95.3638 121.154 87.392 105.841 81.2992C122.149 83.6803 138.58 83.9631 141.192 76.1656C142.269 72.9473 142.269 70.978 141.192 67.7597C138.58 59.9622 122.149 60.245 105.841 62.6261C121.154 56.5333 135.525 48.5615 133.888 40.503C133.212 37.1771 132.227 35.4717 129.684 33.2236C123.569 27.8173 109.644 36.1136 96.7914 46.228C106.934 33.3978 115.261 19.4907 109.868 13.3639C107.626 10.8163 105.922 9.82777 102.598 9.14456C94.4876 7.47785 86.4296 22.0411 80.2872 37.4584C82.7133 21.0408 83.054 4.40045 75.2029 1.77102Z" fill="#F6F7F9"/>
</svg>
