<svg width="150" height="50" viewBox="340 165 120 25" fill="none" xmlns="http://www.w3.org/2000/svg">
<path d="M368.985 183.653C367.218 181.58 364.416 177.134 363.073 174.97C361.729 172.806 356.479 177.653 356.479 177.653C352.468 180.609 348.486 184.576 346.518 186.647C345.885 187.378 344.778 187.457 344.047 186.824C343.317 186.191 343.238 185.084 343.871 184.353C346.042 181.608 350.802 175.928 355.394 172.388C358.105 170.298 360.864 169.063 363.073 168.977C364.266 168.934 365.452 169.409 366.605 170.357C368.337 171.781 370.102 174.895 372.065 177.788C372.76 178.813 373.473 179.814 374.287 180.608C374.908 181.214 375.548 181.74 376.341 181.872C378.171 182.185 379.672 181.288 381.099 180.063C383.644 177.88 385.931 174.712 388.362 172.241C390.665 169.901 393.126 168.148 395.904 167.741C398.525 167.307 400.395 168.242 401.941 169.931C403.338 171.455 404.395 173.859 405.644 176.263C406.775 178.441 408.057 180.725 410.804 181.29C412.983 181.771 414.782 181.096 416.428 179.994C419.35 178.038 421.853 174.881 424.542 172.359C426.97 170.083 429.553 168.285 432.457 167.655C433.845 167.353 435.521 167.822 437.225 169.379C438.914 170.921 441.009 173.959 444.235 175.434C445.93 176.208 447.979 176.458 450.503 175.634C451.941 175.154 453.498 175.933 453.978 177.371C454.457 178.81 453.678 180.367 452.24 180.846C448.109 182.25 444.741 181.775 441.941 180.537C438.597 179.058 436.112 176.34 434.179 174.39C431.995 172.185 428.969 176.117 427.24 177.887C424.807 180.377 422.403 183.085 419.699 184.888C416.734 186.865 413.438 187.862 409.526 186.963C407.524 186.477 405.92 185.563 404.612 184.345C401.909 181.827 400.585 177.931 399.063 174.97C398.447 173.771 397.999 172.577 396.676 172.761C394.114 173.182 392.198 175.614 390.186 178.071C387.691 181.117 385.205 184.357 382.316 186.136C380.255 187.404 377.994 187.99 375.453 187.642C372.982 187.292 370.81 185.795 368.985 183.653Z" fill="#895BAE"/>
</svg> 