<svg width="1522" height="505" viewBox="0 0 1522 505" fill="none" xmlns="http://www.w3.org/2000/svg">
<path d="M1395.17 1.22709C1437.4 -6.222 1479.64 21.5446 1521.88 49.3443H1522V455.656H1521.88C1519.28 457.369 1516.68 459.081 1514.07 460.786C1479.39 483.499 1444.71 504.728 1410.03 504.998C1409.37 505.003 1408.71 505 1408.05 504.99C1403.75 504.923 1399.46 504.53 1395.17 503.773C1357.51 497.132 1319.86 462.506 1282.21 456.422C1282.16 456.415 1282.12 456.409 1282.08 456.402L1260.28 456.477C1259.99 456.527 1259.7 456.577 1259.42 456.63C1220.77 463.792 1182.13 502.926 1143.48 503.764C1142.82 503.779 1142.16 503.781 1141.5 503.773C1104.18 503.301 1066.85 465.99 1029.53 457.349C1029.42 457.323 1029.3 457.298 1029.19 457.272L1000.13 457.372C1000.02 457.397 999.911 457.422 999.803 457.448C962.81 466.251 925.818 503.145 888.825 503.765C888.495 503.771 888.164 503.773 887.834 503.773C887.504 503.773 887.174 503.769 886.844 503.763C850.841 503.099 814.839 468.08 778.836 458.167C778.795 458.155 778.755 458.144 778.714 458.133L742.842 458.256C742.619 458.319 742.396 458.382 742.173 458.446C706.501 468.72 670.828 503.105 635.156 503.763C634.826 503.769 634.496 503.773 634.166 503.773C633.836 503.773 633.505 503.771 633.175 503.765C598.163 503.178 563.154 470.099 528.143 459.094C528.038 459.061 527.932 459.029 527.827 458.997L485.944 459.14C485.808 459.183 485.671 459.226 485.534 459.27C450.523 470.472 415.511 503.33 380.5 503.773C345.489 504.218 310.477 472.244 275.466 460.105C275.233 460.024 275.001 459.946 274.769 459.867L225.353 460.038C225.212 460.084 225.071 460.13 224.931 460.177C192.232 471.133 159.534 498.006 126.834 503.773C122.54 504.53 118.246 504.923 113.952 504.99C113.292 505 112.631 505.003 111.971 504.998C77.2894 504.728 42.6081 483.499 7.92676 460.786C5.32448 459.081 2.72239 457.369 0.120117 455.656H0V49.3443H0.120117C42.3581 21.5446 84.596 -6.22201 126.834 1.22709C159.673 7.01872 192.511 34.096 225.35 44.9615L274.769 45.1324C310.012 33.1796 345.256 0.779157 380.5 1.22709C415.647 1.67141 450.795 34.7832 485.942 45.8589L527.827 46.0025C563.273 34.9951 598.719 1.1956 634.166 1.22709C670.391 1.25697 706.617 36.6178 742.842 46.7427L778.714 46.8658C815.087 36.9077 851.461 1.25704 887.834 1.22709C925.266 1.19384 962.697 38.8876 1000.13 47.6275L1029.19 47.7271C1066.62 39.2361 1104.06 1.70035 1141.5 1.22709C1181.09 0.72392 1220.68 41.674 1260.28 48.522L1282.08 48.5972C1319.78 42.5705 1357.47 7.87519 1395.17 1.22709Z" fill="#F4F6FF"/>
<path fill-rule="evenodd" clip-rule="evenodd" d="M1408.06 67.9806C1407.93 68.1086 1407.83 68.2147 1407.69 68.3493C1407 68.2718 1406.28 68.1608 1405.56 68.1202C1404.85 68.0805 1404.13 68.1115 1403.42 68.1115C1402.85 68.1115 1402.23 67.9678 1401.74 68.15C1401.18 68.353 1400.58 68.1426 1400.14 68.377C1399.64 68.6496 1399.03 68.3393 1398.61 68.7896C1397.76 68.7055 1397.05 69.2332 1396.26 69.3574C1395.37 69.497 1394.57 69.8433 1393.76 70.154C1392.82 70.5131 1391.84 70.7856 1390.94 71.2603C1390.3 71.5983 1389.6 71.8555 1388.93 72.1413C1387.75 72.6499 1386.72 73.3864 1385.69 74.1075C1385.12 74.5018 1384.62 75.003 1384.09 75.4541C1383.59 75.8815 1383.04 76.256 1382.6 76.7414C1381.06 78.4595 1379.43 80.1122 1378.44 82.2408C1377.75 82.8554 1377.48 83.7369 1377.13 84.5247C1376.79 85.3125 1376.28 86.0609 1376.19 86.9556C1375.43 88.197 1375.13 89.6169 1374.72 90.9754C1374.4 92.0453 1373.91 93.1036 1373.93 94.265C1373.52 94.6034 1373.75 95.1369 1373.53 95.5718C1373.3 96.0134 1373.16 96.5783 1373.24 97.1479C1373.31 97.6884 1372.93 98.1734 1373.01 98.7496C1373.08 99.2437 1373 99.737 1372.83 100.246C1372.67 100.738 1372.85 101.321 1372.59 101.845C1372.53 101.972 1372.76 102.22 1372.79 102.421C1372.8 102.56 1372.6 102.779 1372.66 102.851C1372.96 103.269 1372.7 103.726 1372.8 104.073C1372.65 104.353 1372.53 104.57 1372.36 104.885C1372.5 104.957 1372.69 105.057 1372.86 105.147C1372.86 106.637 1372.85 108.019 1372.86 109.401C1372.86 109.455 1372.96 109.508 1373.02 109.562C1372.94 109.642 1372.87 109.723 1372.8 109.803C1372.98 110.524 1373.27 111.217 1373.26 111.987C1373.26 112.408 1373.37 112.836 1373.48 113.248C1373.71 114.1 1373.89 114.969 1374.05 115.829C1374.23 116.799 1374.74 117.588 1375.14 118.432C1375.53 119.266 1376.08 119.999 1376.93 120.51C1378.11 121.213 1379.26 121.966 1380.5 122.543C1381.09 122.818 1381.74 123.022 1382.33 123.284C1382.95 123.558 1383.62 123.677 1384.24 123.859C1384.79 124.021 1385.44 124.08 1386.05 124.135C1386.55 124.18 1387.04 124.145 1387.54 124.342C1388 124.518 1388.57 124.212 1389.02 124.591C1389.05 124.61 1389.1 124.594 1389.13 124.594C1390.99 124.581 1392.84 125.079 1394.68 124.786C1395.93 124.588 1397.24 124.574 1398.4 123.959C1400.19 123.733 1401.75 122.749 1403.49 122.334C1403.96 121.884 1404.63 121.833 1405.17 121.498C1405.7 121.169 1406.32 120.98 1406.87 120.68C1408.81 119.622 1410.76 118.581 1412.61 117.37C1412.97 117.133 1413.23 116.791 1413.64 116.585C1414.14 116.328 1414.57 115.893 1414.99 115.487C1415.38 115.107 1415.79 114.756 1416.06 114.242C1416.32 113.736 1416.83 113.388 1417.18 112.909C1418.01 111.792 1418.89 110.7 1419.44 109.428C1419.78 108.637 1420.11 107.82 1420.4 106.999C1420.68 106.206 1420.77 105.37 1421.11 104.586C1421.37 103.979 1421.3 103.234 1421.37 102.549C1421.45 101.715 1421.55 100.881 1421.59 100.045C1421.63 99.1808 1421.65 98.3097 1421.58 97.449C1421.52 96.597 1421.4 95.7487 1421.2 94.9062C1421.09 94.4278 1420.97 93.9266 1420.94 93.4358C1420.89 92.667 1420.58 92.0035 1420.29 91.3246C1419.72 89.9756 1418.9 88.8 1418.02 87.6225C1417.05 86.3223 1415.66 85.5279 1414.62 84.3279C1414.19 83.8271 1413.57 83.4627 1412.98 83.1296C1412.53 82.8757 1411.99 82.824 1411.51 82.5928C1410.92 82.3095 1410.25 82.1886 1409.61 81.9935C1409.55 81.9736 1409.49 81.9032 1409.43 81.897C1408.63 81.8158 1407.84 81.735 1407.04 81.6712C1406.74 81.6472 1406.43 81.6327 1406.14 81.6779C1405.89 81.716 1405.67 81.3096 1405.43 81.6493C1405.03 81.344 1404.66 81.7976 1404.25 81.6895C1403.88 81.5946 1403.49 81.7193 1403.09 81.8584C1402.64 82.0175 1402.09 81.8419 1401.61 82.1119C1401.31 82.2793 1400.98 82.3754 1400.64 82.5116C1400.55 82.418 1400.41 82.2847 1400.28 82.1471C1400.23 82.1819 1400.14 82.22 1400.14 82.2519C1400.17 82.6156 1400.05 82.8509 1399.7 83.0348C1399.07 83.3591 1398.49 83.7567 1397.85 84.1453C1397.74 84.0831 1397.59 83.9974 1397.31 83.84C1397.27 84.0144 1397.22 84.2128 1397.18 84.3615C1397.13 84.3354 1397.27 84.4054 1397.45 84.4919C1396.9 85.03 1396.36 85.5461 1395.84 86.0812C1394.6 87.3479 1393.57 88.7669 1392.72 90.3243C1392.29 91.1233 1391.83 91.9095 1391.46 92.7362C1391 93.7502 1390.53 94.7592 1390.18 95.8216C1389.92 96.5837 1389.64 97.3342 1389.41 98.1034C1389.26 98.581 1389.34 99.0685 1389.11 99.5614C1388.84 100.15 1389 100.931 1388.82 101.585C1388.6 102.348 1388.64 103.104 1388.6 103.869C1388.59 104.104 1388.46 104.334 1388.38 104.576C1388.45 104.654 1388.53 104.736 1388.6 104.82C1388.56 104.869 1388.51 104.922 1388.47 104.965C1388.52 105.272 1388.61 105.569 1388.61 105.867C1388.61 106.739 1388.83 107.563 1389.06 108.391C1389.42 109.694 1390.32 110.549 1391.51 111.013C1392.89 111.558 1394.36 111.814 1395.86 111.999C1397.08 112.149 1398.29 112.072 1399.49 112.183C1400.05 111.784 1400.71 111.642 1401.29 111.295C1401.48 111.179 1401.73 111.113 1401.93 110.945C1402.76 110.242 1403.68 109.642 1404.48 108.896C1404.85 108.562 1405.27 108.253 1405.64 107.903C1406.8 106.806 1407.52 105.438 1408.04 103.95C1408.21 103.456 1408.25 102.884 1408.52 102.461C1408.84 101.971 1408.51 101.354 1408.95 100.937C1409.02 100.028 1409.18 99.1141 1409.14 98.2086C1409.12 97.5679 1408.89 96.9316 1408.94 96.2677C1408.96 96.1215 1408.18 94.335 1408 94.1784C1407.63 93.838 1407.22 93.5331 1406.82 93.2134C1406.43 93.4254 1406.12 92.8973 1405.65 93.155C1405.26 93.3674 1404.66 93.406 1404.23 93.2842C1403.74 93.1467 1404.07 93.541 1403.91 93.6197C1402.57 94.2555 1401.71 95.5105 1400.51 96.3232C1400.45 96.3625 1400.41 96.4313 1400.47 96.3625C1400.33 96.8463 1400.32 97.2605 1400.12 97.5086C1399.51 98.2355 1399.38 99.1725 1398.92 99.9566C1398.82 100.13 1398.81 100.366 1398.78 100.576C1398.72 101.037 1398.93 101.532 1398.56 101.96C1398.49 102.047 1398.53 102.259 1398.56 102.401C1398.66 102.803 1398.78 103.198 1398.92 103.668C1400.39 102.665 1400.93 101 1402 99.7627H1402.82C1402.66 100.12 1402.51 100.444 1402.27 100.977C1402.61 100.829 1402.78 100.798 1402.89 100.702C1403.15 100.481 1403.38 100.229 1403.63 99.976C1403.96 100.2 1404.14 100.577 1404.46 100.839C1404.75 101.083 1404.84 101.564 1405.12 102.132C1405.13 102.974 1404.42 103.814 1404.2 104.808C1403.79 105.076 1403.33 105.236 1403.26 105.878C1403.22 106.259 1402.84 106.603 1402.67 106.875C1402.19 107.09 1401.8 106.896 1401.39 107.138C1400.82 107.478 1400.22 106.872 1399.59 106.971C1398.72 106.39 1397.67 106.166 1396.77 105.583C1396.1 105.144 1395.68 104.545 1395.22 103.956C1394.91 103.547 1394.76 103.017 1394.48 102.576C1394.21 102.14 1394.21 101.623 1394.08 101.165C1393.9 100.462 1393.92 99.6471 1394.06 98.9248C1394.28 97.9042 1394.46 96.8637 1394.93 95.9003C1395.51 94.6979 1396.25 93.6118 1397.18 92.6554C1398.04 91.7599 1398.91 90.8789 1400.01 90.2361C1400.72 89.8198 1401.52 89.6885 1402.24 89.353C1402.59 89.1956 1402.9 89.5924 1403.31 89.3787C1403.61 89.2254 1404.05 89.3195 1404.43 89.3567C1404.81 89.3961 1405.33 89.37 1405.55 89.6011C1406.03 90.1176 1406.87 89.8231 1407.24 90.466C1407.96 90.4672 1408.4 90.9999 1408.88 91.3954C1410.1 92.4065 1411.38 93.3906 1411.96 94.9634C1412.05 95.1924 1412.12 95.424 1412.2 95.6518C1412.31 95.675 1412.41 95.6977 1412.5 95.7184C1412.67 96.3447 1412.83 96.954 1413 97.5786C1412.97 97.6151 1412.92 97.6718 1412.84 97.7762C1412.98 97.9937 1413.13 98.2351 1413.33 98.5441C1413.02 98.5918 1412.82 98.6249 1412.59 98.6609C1412.58 98.774 1412.58 98.8759 1412.57 99.0213H1413.07C1413.15 99.0888 1413.17 99.1141 1413.2 99.1389C1412.89 99.4251 1413.39 99.6861 1413.24 99.9499C1412.86 100.568 1413.09 101.246 1413.01 101.891C1412.94 102.379 1412.84 102.87 1412.68 103.335C1412.58 103.63 1412.35 103.88 1412.18 104.148C1412.64 104.834 1411.77 105.508 1412.06 106.249C1411.98 106.266 1411.88 106.288 1411.76 106.312C1411.54 106.8 1411.31 107.307 1410.98 108.026V108.782C1410.73 109.387 1410.44 109.836 1409.86 110.001V110.5C1409.24 111.109 1408.64 111.799 1407.93 112.342C1407.65 112.557 1407.37 112.791 1407.09 113.008C1406.83 113.203 1406.53 113.349 1406.31 113.575C1405.57 114.328 1404.63 114.777 1403.71 115.231C1402.43 115.867 1400.6 116.149 1399.18 115.995C1398.67 115.939 1398.17 115.736 1397.6 115.584C1397.48 115.632 1397.26 115.81 1397.09 115.767C1395.3 115.29 1393.45 115.068 1391.71 114.313C1390.41 113.75 1389.15 113.132 1388.03 112.318C1387.21 111.724 1386.49 110.953 1385.92 110.058C1385.26 109.018 1384.59 107.994 1384.25 106.793C1384.22 106.694 1384.12 106.614 1384.1 106.518C1384.01 105.986 1383.89 105.453 1383.88 104.918C1383.85 103.45 1383.8 101.977 1383.89 100.514C1383.95 99.6728 1384.13 98.8225 1384.27 97.9816C1384.41 97.1719 1384.6 96.3791 1384.76 95.576C1384.93 94.6705 1385.28 93.8301 1385.57 92.9731C1385.81 92.2855 1386.03 91.5578 1386.38 90.9423C1387 89.8799 1387.4 88.7226 1388.07 87.673C1388.71 86.6669 1389.3 85.6231 1389.97 84.6328C1390.32 84.1279 1390.65 83.6055 1391.08 83.1748C1392.12 82.1182 1393.09 80.9721 1394.33 80.1358C1395.41 79.4126 1396.46 78.6877 1397.72 78.2334C1398.98 77.7815 1400.22 77.4472 1401.55 77.366C1401.78 77.3515 1402.01 77.224 1402.25 77.1448C1402.33 77.2128 1402.41 77.2844 1402.5 77.3582C1402.55 77.3176 1402.6 77.2737 1402.66 77.226C1402.88 77.2749 1403.12 77.2857 1403.31 77.3842C1403.59 77.5213 1403.73 77.067 1404.07 77.3072C1404.3 77.4687 1404.72 77.3528 1405.05 77.3776C1405.33 77.3983 1405.66 77.255 1405.87 77.5752C1406.19 77.0964 1406.49 77.6667 1406.8 77.6017C1407.22 77.5155 1407.58 77.7082 1407.95 77.8212C1408.29 77.9219 1408.64 77.977 1408.99 78.0524C1409.33 78.1277 1409.72 78.1306 1410.02 78.2909C1411.28 78.9669 1412.79 79.1761 1413.8 80.3015C1414.57 80.2791 1415.04 80.8379 1415.58 81.2069C1417.52 82.529 1419.15 84.2148 1420.74 85.9209C1422.3 87.5914 1423.59 89.4785 1424.4 91.6245C1424.83 92.7627 1425.31 93.8947 1425.47 95.1444C1425.58 95.9458 1425.81 96.7486 1425.88 97.5604C1425.94 98.383 1425.89 99.2156 1425.89 100.044C1425.89 100.646 1425.9 101.249 1425.89 101.851C1425.88 102.463 1425.93 103.056 1425.55 103.635C1425.32 103.968 1425.38 104.485 1425.31 104.92C1425.74 105.158 1424.92 105.581 1425.42 105.797C1425.1 106.42 1424.78 107.041 1424.45 107.669C1424.34 107.571 1424.27 107.481 1424.18 107.429C1424.12 107.399 1424.03 107.43 1423.92 107.435C1423.84 107.713 1424.17 107.739 1424.27 108.009V108.929C1424.17 109.03 1424.04 109.163 1423.88 109.324C1423.93 109.393 1423.99 109.467 1424.05 109.55C1423.57 110.03 1423.52 110.729 1423.18 111.294C1422.8 111.935 1422.47 112.605 1421.94 113.067C1421.57 112.969 1421.28 112.892 1420.99 112.814C1420.97 112.868 1420.95 112.923 1420.94 112.977C1421.07 113.036 1421.21 113.095 1421.42 113.189C1421.22 113.329 1421.04 113.451 1420.86 113.573C1420.89 113.624 1420.92 113.675 1420.94 113.725C1421.12 113.686 1421.3 113.646 1421.55 113.591C1421.56 113.726 1421.59 113.917 1421.61 114.117C1421.45 114.177 1421.32 114.225 1421.13 114.294C1421.18 114.517 1421.22 114.748 1421.3 115.09C1421.04 115.239 1420.68 115.44 1420.28 115.671C1420.11 116.047 1419.92 116.492 1419.72 116.936C1419.75 116.957 1419.79 116.977 1419.82 116.996C1419 117.818 1418.23 118.709 1417.34 119.443C1416.27 120.325 1415.11 121.118 1413.95 121.872C1412.29 122.942 1410.59 123.95 1408.9 124.96C1408.7 125.08 1408.41 125.041 1408.1 125.083C1407.73 125.767 1406.9 125.859 1406.27 126.233C1405.67 126.583 1405 126.802 1404.33 127.091C1404.26 126.943 1404.18 126.793 1404.11 126.642C1403.74 127.549 1402.79 127.562 1402.04 127.927C1401.94 127.871 1401.8 127.79 1401.6 127.678C1401.54 127.87 1401.5 127.999 1401.46 128.126C1401.43 128.153 1401.4 128.208 1401.38 128.202C1400.92 128.05 1400.52 128.345 1400.13 128.456C1398.21 128.988 1396.26 128.816 1394.32 128.905C1392.83 128.972 1391.37 128.703 1389.9 128.627C1389.34 128.598 1388.73 128.543 1388.19 128.392C1387.65 128.237 1387.1 128.322 1386.59 128.186C1385.94 128.015 1385.29 127.862 1384.64 127.713C1383.93 127.55 1383.22 127.335 1382.53 127.084C1381.84 126.834 1381.13 126.646 1380.44 126.395C1379.76 126.145 1379.1 125.824 1378.41 125.58C1376.4 124.87 1374.71 123.587 1372.89 122.54C1372.06 121.589 1371.07 120.802 1370.28 119.793C1369.66 118.998 1369.13 118.152 1368.61 117.307C1368.04 116.397 1367.68 115.362 1367.38 114.321C1367.06 113.228 1366.77 112.132 1366.69 110.988C1366.67 110.677 1366.54 110.375 1366.48 110.065C1366.41 109.753 1366.61 109.386 1366.27 109.129C1366.23 109.1 1366.25 108.989 1366.25 108.917C1366.17 107.63 1366.07 106.344 1366.03 105.057C1365.99 103.74 1366.01 102.421 1366.03 101.104C1366.03 100.983 1366.16 100.863 1366.22 100.742C1366.16 100.67 1366.09 100.588 1366 100.49C1366.08 100.3 1366.25 100.097 1366.23 99.918C1366.09 98.7997 1366.52 97.729 1366.48 96.621C1366.47 96.341 1366.36 96.0113 1366.68 95.8046C1366.33 95.5594 1366.74 95.339 1366.71 95.0938C1366.69 94.8184 1366.66 94.5458 1366.85 94.2484C1367.09 93.8661 1366.77 93.302 1367.15 92.9106C1367.15 91.7152 1367.71 90.6553 1367.97 89.5237C1368.16 88.6567 1368.49 87.8648 1368.84 87.0579C1369.13 86.394 1369.29 85.6716 1369.55 84.9811C1370.16 83.3446 1370.92 81.7764 1371.69 80.2215C1372.21 79.1873 1372.98 78.286 1373.5 77.2405C1374.18 76.917 1374.31 76.1412 1374.81 75.6367C1375.31 75.1215 1375.76 74.53 1376.28 74.0077C1376.81 73.4725 1377.32 72.9212 1377.88 72.4147C1378.79 71.5867 1379.82 70.9074 1380.75 70.1158C1381.69 69.316 1382.78 68.7834 1383.8 68.1442C1384.76 67.5412 1385.86 67.1245 1386.95 66.7844C1387.72 66.5454 1388.43 66.1755 1389.23 66.0045C1390.22 65.7924 1391.18 65.4445 1392.16 65.1806C1392.57 65.0696 1393.1 65.1533 1393.4 64.918C1393.83 64.5664 1394.35 64.9251 1394.74 64.59C1395.09 64.298 1395.65 64.7337 1395.97 64.2731C1395.98 64.2553 1396.04 64.2653 1396.08 64.2715C1397.01 64.4384 1397.88 63.9948 1398.81 64.0362C1399.71 64.0764 1400.64 63.9095 1401.51 64.076C1402.92 64.3448 1404.39 64.3597 1405.7 65.1483C1406.68 65.7423 1407.52 66.3938 1407.96 67.472C1408.03 67.6344 1408.03 67.822 1408.06 67.9806" fill="#E6EAFF"/>
<path d="M381.482 487.756C379.262 488.999 376.938 486.545 376.054 485.162C373.737 482.814 364.017 479.64 359.97 478.922C356.733 478.348 355.992 475.958 356.026 474.835C357.799 473.069 360.713 468.765 358.187 465.673C355.661 462.58 357.102 459.985 358.138 459.073C360.557 457.278 365.594 452.978 366.394 450.145C367.194 447.311 370.596 446.799 372.197 446.897C374.471 446.618 379.473 445.806 381.289 444.789C383.106 443.773 385.847 444.447 386.991 444.912C388.796 447.546 393.058 452.318 395.658 450.332C398.257 448.347 400.077 450.73 400.662 452.17C399.073 458.803 396.166 472.314 397.247 473.299C398.329 474.285 397.784 477.417 397.377 478.86L381.482 487.756Z" stroke="#E5EAFF" stroke-width="2"/>
<path d="M366.699 457.031L382.213 476.421" stroke="#E5EAFF" stroke-width="2.31308" stroke-linecap="round"/>
<path d="M378.514 450.658L386.85 474.049" stroke="#E5EAFF" stroke-width="2.31308" stroke-linecap="round"/>
<path d="M391.926 457.068L390.853 472.911" stroke="#E5EAFF" stroke-width="2.31308" stroke-linecap="round"/>
<path d="M365.182 472.038L379.247 479.407" stroke="#E5EAFF" stroke-width="2.31308" stroke-linecap="round"/>
<path d="M340.977 117.464C340.074 115.035 338.818 114.419 338.426 116.178C337.956 118.397 338.929 120.697 340.271 120.494C341.525 120.305 341.723 119.44 340.977 117.464Z" fill="#D4E1F5"/>
<path d="M407.251 156.727C405.11 156.185 396.612 154.632 393.384 154.194C389.546 153.669 389.676 153.739 389.269 151.831C387.077 140.855 386.184 138.692 385.222 140.03C384.975 140.366 385.848 145.962 386.793 150.056C387.976 155.129 388.244 155.327 394.735 156.228C398.878 156.796 400.521 157.205 402.155 157.555C391.945 159.095 371.618 162.189 371.6 162.073C371.592 162.014 373.754 160.525 376.376 158.727C382.22 154.744 381.757 155.828 380.523 149.033C378.725 139.28 378.763 139.334 374.287 138.338C371.14 137.649 367.461 136.205 365.411 134.873C363.792 133.834 363.604 133.773 363.338 134.38C362.513 136.235 357.621 137.42 354.735 136.483C342.579 132.438 342.76 111.677 354.95 113.18C356.683 113.396 357.125 113.359 357.515 112.972C359.449 111.159 375.21 107.858 384.482 106.43C385.299 106.307 393.015 106.039 387.407 104.856C381.765 103.648 365.062 106.047 357.965 110.22C357.333 110.583 356.962 107.924 357.532 107.152C358.631 105.734 368.677 102.518 379.083 101.487C384.402 100.953 389.387 101.365 392.072 101.765C392.929 101.905 393.626 102.575 393.758 103.45L393.877 104.238C394.22 106.513 395.386 108.307 396.407 108.153C396.873 108.082 397.058 107.13 396.732 106.552C396.128 105.51 400.442 101.876 402.689 101.537C410.769 100.319 412.218 113.495 408.681 121.696C405.431 129.227 402.682 130.775 394.541 129.616C390.089 128.974 385.548 129.331 373.301 132.788C369.812 133.792 371.098 135 375.665 134.222C386.685 132.322 392.754 131.615 392.288 132.282C391.752 133.079 389.072 135.094 387.219 136.06C384.29 137.605 386.288 139.78 388.729 138.159C390.543 136.931 393.531 134.392 394.762 132.864C395.82 131.571 395.928 131.495 396.598 131.782C404.176 135.144 410.888 129.209 412.754 117.442C414.754 104.79 405.419 95.308 397.224 101.705L395.781 102.817L395.315 101.903C394.548 100.378 393.118 99.4002 391.242 99.0267C382.217 97.3444 363.205 100.062 355.655 105.586C354.634 106.336 354.11 107.609 354.299 108.863C354.308 108.921 354.695 111.488 354.682 111.401L353.835 111.32C341.814 110.149 337.722 127.532 348.055 135.909C352.203 139.281 357.748 139.847 362.66 137.406L364.352 136.554L365.459 137.372C367.109 138.615 371.121 140.098 374.087 140.576L376.744 140.981C377.46 143.558 377.432 143.174 378.986 154.664C377.163 155.834 367.141 162.178 365.059 163.208C362.835 164.289 363.786 165.846 365.545 165.641C367.921 165.372 375.543 164.282 384.382 162.95C396.954 161.054 408.325 159.698 408.296 159.702C409.543 159.663 409.734 157.367 407.251 156.727Z" fill="#D4E1F5"/>
<path d="M364.972 144.634C364.411 143.287 362.542 143.956 362.991 145.351C363.445 146.774 362.511 149.092 360.766 148.401C358.996 147.743 358.594 144.88 361.857 144.358C362.207 144.305 362.681 144.085 362.892 143.904C363.916 142.974 360.884 142.655 359.406 143.534C357.355 144.768 357.493 148.656 359.601 149.382C362.68 150.41 366.103 147.387 364.972 144.634Z" fill="#D4E1F5"/>
<path d="M356.839 116.415C352.114 113.965 346.41 117.093 347.694 124.029C349.025 131.078 354.419 134.8 360.776 133.036C363.066 132.392 363.116 132.325 362.039 130.13C356.937 119.444 358.652 117.365 356.839 116.415ZM358.096 131.68C354.115 130.997 351.855 128.474 350.934 123.75C349.929 118.472 350.791 116.671 353.807 117.678L355.313 118.167L355.718 120.463C356.164 123.021 357.718 127.59 359.014 130.049C360.022 131.986 360.026 132.015 358.096 131.68Z" fill="#D4E1F5"/>
<path d="M338.159 109.655C339.717 110.494 340.351 109.355 339.924 106.525C339.326 102.558 337.935 100.65 336.884 102.389C336.336 103.307 337.379 109.236 338.159 109.655Z" fill="#D4E1F5"/>
<path d="M397.857 96.4178C399.934 95.7467 400.798 92.5734 399.175 91.5054C398.181 90.8497 397.828 91.082 398.2 92.1597C398.618 93.3496 397.699 95.3677 396.193 94.8787C394.658 94.3941 394.106 91.5238 397.456 90.9889C398.157 90.8833 398.357 90.4354 397.818 90.2184C396.097 89.4933 393.539 90.5353 392.959 92.6217C392.293 94.9298 394.615 97.4734 397.857 96.4178Z" fill="#D4E1F5"/>
<path d="M339.935 112.341C340.067 113.216 343.233 112.649 346.676 111.145C349.84 109.773 346.532 109.198 343.092 110.522C340.725 111.446 339.874 111.932 339.935 112.341Z" fill="#D4E1F5"/>
<path d="M331.215 112.88C330.113 113.285 330.041 114.19 331.13 114.295C332.433 114.426 337.602 113.289 338.061 112.772C339.078 111.605 334.319 111.696 331.215 112.88Z" fill="#D4E1F5"/>
<path d="M407.471 140.584C408.808 140.741 409.128 140.096 408.807 137.966C408.389 135.195 408.139 134.725 407.147 134.875C406.564 134.963 406.328 135.178 406.252 135.666C406.083 137.512 406.803 140.506 407.471 140.584Z" fill="#D4E1F5"/>
<path d="M398.846 126.908C406.103 129.334 412.086 113.217 406.267 106.874C404.698 105.172 402.082 104.641 400.233 105.636C398.58 106.542 395.827 110.447 396.309 111.269C396.842 112.233 396.977 118.866 396.518 121.56C395.827 125.483 396.048 125.957 398.846 126.908ZM398.466 123.594C398.894 121.292 398.941 116.064 398.55 113.467C397.899 109.15 401.704 104.907 404.394 106.918C406.946 108.801 406.102 118.445 403.009 123.058C401.182 125.78 397.989 126.172 398.466 123.594Z" fill="#D4E1F5"/>
<path d="M407.587 147.487C406.983 150.204 408.422 152.821 410.173 152.169C411.505 151.7 411.463 149.648 410.069 147.322C409.384 146.143 407.849 146.255 407.587 147.487Z" fill="#D4E1F5"/>
<path d="M416.296 142.326C415.002 142.252 410.525 142.838 409.948 143.164C407.854 144.315 413.123 144.833 415.973 143.747C417.129 143.304 417.347 142.376 416.296 142.326Z" fill="#D4E1F5"/>
<path d="M401.491 144.26C400.997 144.543 401.156 145.205 401.741 145.326C403.225 145.669 407.418 144.589 407.317 143.918C407.249 143.272 402.754 143.532 401.491 144.26Z" fill="#D4E1F5"/>
<path d="M385.666 110.727C385.072 109.951 378.05 110.473 372.661 111.733C368.163 112.769 363.978 114.295 362.005 115.457C360.145 116.573 360.801 117.757 362.732 117.108C365.428 116.194 375.896 113.602 378.988 113.136C384.905 112.214 386.379 111.693 385.666 110.727Z" fill="#D4E1F5"/>
<circle cx="6.21103" cy="6.21103" r="6.21103" transform="matrix(-0.951982 -0.306154 -0.306154 0.951982 1190.55 452.183)" fill="#CDD8FE"/>
<circle cx="6.21103" cy="6.21103" r="6.21103" transform="matrix(-0.951982 -0.306154 -0.306154 0.951982 1175.09 453.537)" fill="#CDD8FE"/>
<circle cx="3.95248" cy="3.95248" r="3.95248" transform="matrix(-0.951982 -0.306154 -0.306154 0.951982 1165.95 467.206)" fill="#CDD8FE"/>
</svg>
