<svg xmlns="http://www.w3.org/2000/svg" width="222" height="18" viewBox="0 0 222 18" fill="none">
  <path fill-rule="evenodd" clip-rule="evenodd" d="M21.1995 10.3537C18.8924 8.68771 12.5817 5.86736 3.87227 10.685L0 3.68457C12.0407 -2.97573 21.7534 0.821188 26.0168 3.9656L26.1033 4.0294L26.1834 4.09539L26.1839 4.09577L26.1846 4.09639L26.1854 4.097L26.1863 4.09776L26.1926 4.10291L26.2425 4.1433C26.2898 4.18145 26.3647 4.24131 26.4644 4.31962C26.6641 4.47647 26.9618 4.70603 27.336 4.9824C28.0896 5.53895 29.1281 6.26645 30.2846 6.96796C31.4561 7.67856 32.6588 8.3074 33.7502 8.71784C34.9159 9.15624 35.5683 9.1969 35.7916 9.16801C35.9925 9.14204 36.5051 8.99019 37.3351 8.51975C38.1152 8.07762 38.9487 7.48509 39.7468 6.84902C40.5353 6.22068 41.2292 5.59801 41.7277 5.12995C41.9751 4.89766 42.1698 4.70773 42.2988 4.57978C42.3632 4.51591 42.411 4.4678 42.4405 4.43791L42.4706 4.40718L42.4727 4.40504C42.4723 4.40544 42.4719 4.40586 45.349 7.18476L43.4128 3.68457C55.4535 -2.97573 65.1662 0.821188 69.4297 3.9656L69.5162 4.0294L69.5962 4.09539L69.5967 4.09577L69.5975 4.09639L69.5982 4.097L69.5991 4.09776L69.6054 4.10291L69.6553 4.1433C69.7027 4.18145 69.7776 4.24131 69.8773 4.31962C70.077 4.47647 70.3747 4.70603 70.7489 4.9824C71.5024 5.53895 72.5409 6.26645 73.6974 6.96796C74.8689 7.67856 76.0716 8.3074 77.163 8.71784C78.3288 9.15624 78.9811 9.1969 79.2045 9.16801C79.4053 9.14204 79.9179 8.99019 80.7479 8.51975C81.528 8.07762 82.3616 7.48509 83.1597 6.84902C83.9481 6.22068 84.642 5.59801 85.1405 5.12995C85.3879 4.89766 85.5826 4.70773 85.7117 4.57978C85.7761 4.51591 85.8238 4.4678 85.8533 4.43791L85.8835 4.40718L85.8856 4.40504C85.8852 4.40544 85.8848 4.40586 88.7619 7.18476L86.8257 3.68457C98.8664 -2.97573 108.579 0.821188 112.843 3.9656L112.929 4.0294L113.009 4.0956L113.01 4.09577L113.01 4.09639L113.011 4.097L113.012 4.09776L113.018 4.10291L113.068 4.1433C113.116 4.18145 113.19 4.24131 113.29 4.31962C113.49 4.47647 113.787 4.70603 114.162 4.9824C114.915 5.53895 115.954 6.26645 117.11 6.96796C118.282 7.67856 119.484 8.3074 120.576 8.71784C121.742 9.15624 122.394 9.1969 122.617 9.16801C122.818 9.14204 123.331 8.99019 124.161 8.51975C124.941 8.07762 125.774 7.48509 126.573 6.84902C127.361 6.22068 128.055 5.59801 128.553 5.12995C128.801 4.89766 128.995 4.70773 129.124 4.57978C129.189 4.51591 129.237 4.4678 129.266 4.43791L129.296 4.40718L129.298 4.40504C129.298 4.40544 129.298 4.40586 132.175 7.18476L130.239 3.68457C142.279 -2.97573 151.992 0.821188 156.256 3.9656L156.342 4.0294L156.422 4.0956L156.423 4.09577L156.423 4.09639L156.424 4.097L156.425 4.09776L156.431 4.10291L156.481 4.1433C156.529 4.18145 156.604 4.24131 156.703 4.31962C156.903 4.47647 157.201 4.70603 157.575 4.9824C158.328 5.53895 159.367 6.26645 160.523 6.96796C161.695 7.67856 162.898 8.3074 163.989 8.71784C165.155 9.15624 165.807 9.1969 166.03 9.16801C166.231 9.14204 166.744 8.99019 167.574 8.51975C168.354 8.07762 169.188 7.48509 169.986 6.84902C170.774 6.22068 171.468 5.59801 171.966 5.12995C172.214 4.89766 172.409 4.70773 172.538 4.57978C172.602 4.51591 172.65 4.4678 172.679 4.43791L172.709 4.40718L172.712 4.40504C172.711 4.40544 172.711 4.40586 175.588 7.18476L173.652 3.68457C185.692 -2.97573 195.405 0.821188 199.668 3.9656L199.755 4.0294L199.835 4.0956L199.835 4.09577L199.836 4.09639L199.837 4.097L199.838 4.09776L199.844 4.10291L199.894 4.1433C199.941 4.18145 200.016 4.24131 200.116 4.31962C200.316 4.47647 200.613 4.70603 200.988 4.9824C201.741 5.53895 202.78 6.26645 203.936 6.96796C205.108 7.67856 206.31 8.3074 207.402 8.71784C208.568 9.15624 209.22 9.1969 209.443 9.16801C209.644 9.14204 210.157 8.99019 210.987 8.51975C211.767 8.07762 212.6 7.48509 213.398 6.84902C214.187 6.22068 214.881 5.59801 215.379 5.12995C215.627 4.89766 215.821 4.70773 215.95 4.57978C216.015 4.51591 216.063 4.4678 216.092 4.43791L216.122 4.40718L216.124 4.40504C216.124 4.40544 216.124 4.40586 219.001 7.18476C221.878 9.96367 221.877 9.96413 221.877 9.96461L221.876 9.96568L221.873 9.96819L221.867 9.97473L221.849 9.99372L221.789 10.0546C221.739 10.1049 221.67 10.1747 221.583 10.2611C221.408 10.4338 221.162 10.6745 220.855 10.962C220.247 11.5334 219.386 12.3069 218.384 13.1052C217.392 13.8958 216.2 14.7604 214.931 15.4796C213.712 16.1705 212.152 16.8843 210.469 17.1019C208.341 17.3772 206.235 16.8261 204.586 16.2058C202.862 15.5576 201.193 14.6609 199.787 13.8079C198.366 12.9459 197.121 12.0718 196.235 11.4176C195.79 11.0886 195.429 10.8106 195.175 10.6111C195.048 10.5113 194.947 10.4309 194.875 10.3732L194.851 10.3537C192.586 8.71828 186.464 5.97046 178.001 10.4275C177.848 10.5769 177.66 10.7576 177.443 10.962C176.834 11.5334 175.973 12.3069 174.972 13.1052C173.98 13.8958 172.788 14.7604 171.519 15.4796C170.3 16.1705 168.74 16.8843 167.057 17.1019C164.928 17.3772 162.822 16.8261 161.173 16.2058C159.449 15.5576 157.78 14.6609 156.374 13.8079C154.953 12.9459 153.708 12.0718 152.822 11.4176C152.377 11.0886 152.016 10.8106 151.762 10.6111C151.635 10.5113 151.534 10.4309 151.463 10.3732L151.438 10.3537C149.173 8.71824 143.05 5.97034 134.587 10.4277C134.435 10.5771 134.247 10.7577 134.029 10.962C133.421 11.5334 132.56 12.3069 131.558 13.1052C130.566 13.8958 129.374 14.7604 128.105 15.4796C126.886 16.1705 125.326 16.8843 123.643 17.1019C121.515 17.3772 119.409 16.8261 117.76 16.2058C116.036 15.5576 114.367 14.6609 112.961 13.8079C111.54 12.9459 110.295 12.0718 109.409 11.4176C108.964 11.0886 108.603 10.8106 108.349 10.6111C108.222 10.5113 108.121 10.4309 108.049 10.3732L108.025 10.3537C105.76 8.71828 99.6376 5.97046 91.1749 10.4274C91.022 10.5769 90.8342 10.7576 90.6166 10.962C90.008 11.5334 89.1473 12.3069 88.1456 13.1052C87.1536 13.8958 85.9616 14.7604 84.6926 15.4796C83.4736 16.1705 81.9137 16.8843 80.2306 17.1019C78.1025 17.3772 75.9964 16.8261 74.347 16.2058C72.6234 15.5576 70.9546 14.6609 69.5484 13.8079C68.1272 12.9459 66.8819 12.0718 65.9962 11.4176C65.5508 11.0886 65.1899 10.8106 64.9359 10.6111C64.8088 10.5113 64.7081 10.4309 64.6366 10.3732L64.6124 10.3537C62.3475 8.71828 56.2247 5.97046 47.7621 10.4274C47.6091 10.5769 47.4214 10.7576 47.2038 10.962C46.5951 11.5334 45.7345 12.3069 44.7328 13.1052C43.7408 13.8958 42.5487 14.7604 41.2798 15.4796C40.0608 16.1705 38.5008 16.8843 36.8177 17.1019C34.6896 17.3772 32.5835 16.8261 30.9342 16.2058C29.2106 15.5576 27.5417 14.6609 26.1355 13.8079C24.7144 12.9459 23.4691 12.0718 22.5834 11.4176C22.1379 11.0886 21.777 10.8106 21.5231 10.6111C21.396 10.5113 21.2953 10.4309 21.2237 10.3732L21.1995 10.3537Z" fill="#FFD900"/>
</svg> 