<svg xmlns="http://www.w3.org/2000/svg" width="27" height="27" viewBox="0 0 27 27" fill="none">
  <path d="M13.4066 22.0899C13.6941 22.0899 13.9038 21.8797 13.959 21.5813C14.7433 15.528 15.594 14.6108 21.5813 13.9481C21.8905 13.9151 22.1007 13.6832 22.1007 13.3957C22.1007 13.1082 21.8905 12.8876 21.5813 12.8433C15.594 12.1806 14.7433 11.2639 13.959 5.21014C13.9038 4.91179 13.6941 4.71289 13.4066 4.71289C13.1191 4.71289 12.9098 4.91179 12.8655 5.21014C12.0812 11.2639 11.2196 12.1806 5.24314 12.8433C4.92263 12.8876 4.71289 13.1087 4.71289 13.3957C4.71289 13.6832 4.92263 13.9151 5.24314 13.9481C11.2083 14.7324 12.0369 15.5389 12.8655 21.5813C12.9098 21.8797 13.1195 22.0899 13.4066 22.0899Z" fill="#1E1E1E"/>
</svg> 