<svg width="89" height="107" viewBox="0 0 89 107" fill="none" xmlns="http://www.w3.org/2000/svg">
<path d="M86.5004 2.76347C73 5.26367 73.5004 5.2632 65.5001 6.76391C57.4999 8.26461 48.5234 12.8589 42.0487 17.544C33.1281 23.9991 26.2776 33.8949 28.3662 45.3539C29.2029 49.9442 30.7042 53.5045 32.5474 57.6845C33.9156 60.7874 37.269 63.0716 38.9288 65.895C39.3446 66.6024 41.5027 67.9313 42.2804 68.3369C43.4318 68.9374 44.5832 69.538 45.7347 70.1385C47.9369 71.2872 48.9995 71.2443 51.402 71.2443C56.1731 69.8926 59.3885 68.812 61.4995 64.7647C62.8935 62.0919 59.7247 52.5974 57.9525 50.5069C57.1289 49.5353 56.3506 48.4992 55.4995 47.508C54.5693 46.4248 53.6573 45.5943 52.4023 44.9397C48.0603 42.6751 43.9522 39.0763 39.0155 38.1888C35.9412 37.6362 32.021 37.7231 28.9098 38.0058C26.8754 38.1905 25.2425 37.9785 23.175 38.4579C21.438 38.8608 20.5239 39.1446 18.8983 40.056C17.4664 40.8587 16.0935 42.0819 14.9906 43.3112C13.6067 44.854 11.1583 45.64 10.1294 47.508C8.24808 50.9234 6.51714 54.4337 4.71388 57.8911C0.682458 65.6205 2.91685 74.9144 6.02486 82.5233C8.5834 88.787 13.8598 95.1408 19.96 98.3224C20.5474 98.6288 25.2066 101.518 25.6609 101.039C26.8721 99.7621 24.896 95.6748 24.7422 93.9816C24.6176 92.61 24.0192 91.588 24.011 90.2598C24.0038 89.0853 22.6602 87.8601 22.6036 86.7506C22.5905 86.4922 21.7247 84.1052 21.5828 84.4709C21.4761 84.746 22.4772 87.1004 22.6301 87.5867C22.9325 88.5483 23.5609 89.4858 23.6598 90.5391C23.701 90.9786 24.9753 93.5067 25.2568 93.6847C26.3378 94.3683 28.0699 97.5422 28.5552 98.6427C30.6239 103.334 23.823 102.987 21.1216 103.091C19.9398 103.136 18.8528 103.557 17.6685 103.603C16.6207 103.643 15.8026 103.059 14.7238 102.992C13.5701 102.92 12.7408 103.808 11.4199 103.119C10.752 102.77 9.58383 103.179 8.85112 103.166" stroke="#F4B400" stroke-width="5" stroke-linecap="round"/>
</svg>
