<svg width="1440" height="433" viewBox="0 0 1440 433" fill="none" xmlns="http://www.w3.org/2000/svg">
<path d="M0.0209203 21.3823C0.0209203 21.3823 -14.4791 -26.7279 720 21.3823C1454.48 69.4925 1439.98 21.3823 1439.98 21.3823C1439.98 172.197 1439.98 256.753 1439.98 407.568C1439.98 407.568 1439.98 464.79 720 407.568C0.0209351 350.346 0.0209203 407.568 0.0209203 407.568V21.3823Z" fill="#FFFBEA"/>
<path fill-rule="evenodd" clip-rule="evenodd" d="M261.188 121.19C264.329 124.896 269.475 129.493 270.317 134.374C271.659 142.166 260.881 141.705 256.33 140.658C255.123 140.38 253.917 140.088 252.726 139.742C251.31 139.331 249.899 138.894 248.507 138.405C247.179 143.023 244.816 148.491 241.292 151.846C238.34 154.656 234.737 154.405 232.433 150.958C229.681 146.842 228.705 141.189 227.941 136.393C223.123 134.67 218.155 132.958 213.893 130.122C209.796 127.396 210.031 123.042 213.851 120.188C215.085 119.266 216.423 118.488 217.799 117.798C219.651 116.869 224.264 115.005 225.423 114.493C225.519 114.362 225.294 113.116 225.277 112.894C225.165 111.387 225.084 109.887 225.063 108.375C225.047 107.234 225.04 106.093 225.047 104.952C225.069 100.893 224.416 90.2852 231.038 91.506C231.711 91.6305 232.343 91.8823 232.951 92.1897C233.955 92.6978 234.883 93.4118 235.757 94.1167C237.397 95.4404 238.885 96.9373 240.379 98.4196C242.61 100.633 244.712 103.013 247.037 105.132C247.066 105.157 247.091 105.187 247.116 105.218C248.858 104.497 250.601 103.762 252.362 103.085C256.203 101.609 261.648 98.0305 264.955 101.048C266.744 102.68 266.705 105.261 266.222 107.44C265.239 111.867 263.052 115.915 260.955 119.892" fill="#F5A883"/>
<path d="M261.188 121.19C264.329 124.896 269.475 129.493 270.317 134.374C271.659 142.166 260.881 141.705 256.33 140.658C255.123 140.38 253.917 140.088 252.726 139.742C251.31 139.331 249.899 138.894 248.507 138.405C247.179 143.023 244.816 148.491 241.292 151.846C238.34 154.656 234.737 154.405 232.433 150.958C229.681 146.842 228.705 141.189 227.941 136.393C223.123 134.67 218.155 132.958 213.893 130.122C209.796 127.396 210.031 123.042 213.851 120.188C215.085 119.266 216.423 118.488 217.799 117.798C219.651 116.869 224.264 115.005 225.423 114.493C225.519 114.362 225.294 113.116 225.277 112.894C225.165 111.387 225.084 109.887 225.063 108.375C225.047 107.234 225.04 106.093 225.047 104.952C225.069 100.893 224.416 90.2852 231.038 91.506C231.711 91.6305 232.343 91.8823 232.951 92.1897C233.955 92.6978 234.883 93.4118 235.757 94.1167C237.397 95.4404 238.885 96.9373 240.379 98.4196C242.61 100.633 244.712 103.013 247.037 105.132C247.066 105.157 247.091 105.187 247.116 105.218C248.858 104.497 250.601 103.762 252.362 103.085C256.203 101.609 261.648 98.0305 264.955 101.048C266.744 102.68 266.705 105.261 266.222 107.44C265.239 111.867 263.052 115.915 260.955 119.892" stroke="#F5A883" stroke-width="4.17036" stroke-miterlimit="1.5" stroke-linecap="round" stroke-linejoin="round"/>
<path fill-rule="evenodd" clip-rule="evenodd" d="M1258.92 225.018C1258.57 229.864 1259.02 236.749 1256.2 240.822C1251.7 247.324 1244.33 239.445 1241.82 235.511C1241.15 234.467 1240.49 233.413 1239.89 232.332C1239.16 231.047 1238.46 229.747 1237.81 228.423C1233.63 230.789 1228.11 233.037 1223.25 232.963C1219.17 232.901 1216.78 230.198 1217.55 226.124C1218.46 221.259 1221.73 216.54 1224.54 212.582C1222.31 207.977 1219.96 203.276 1218.91 198.267C1217.89 193.452 1221.11 190.509 1225.83 191.148C1227.36 191.354 1228.86 191.735 1230.33 192.206C1232.3 192.841 1236.9 194.742 1238.08 195.188C1238.24 195.162 1238.96 194.114 1239.1 193.944C1240.08 192.79 1241.07 191.663 1242.11 190.569C1242.9 189.744 1243.69 188.924 1244.5 188.115C1247.36 185.234 1254.32 177.204 1258.19 182.714C1258.58 183.275 1258.86 183.896 1259.08 184.542C1259.44 185.608 1259.6 186.768 1259.73 187.883C1259.97 189.977 1259.99 192.087 1260.02 194.191C1260.06 197.333 1259.89 200.505 1260.07 203.645C1260.07 203.684 1260.07 203.723 1260.06 203.762C1261.81 204.468 1263.57 205.163 1265.3 205.914C1269.08 207.551 1275.47 208.81 1275.72 213.281C1275.85 215.698 1274.01 217.514 1272.14 218.73C1268.34 221.201 1263.94 222.559 1259.66 223.928" fill="#F5A883"/>
<path d="M1258.92 225.018C1258.57 229.864 1259.02 236.749 1256.2 240.822C1251.7 247.324 1244.33 239.445 1241.82 235.511C1241.15 234.467 1240.49 233.413 1239.89 232.332C1239.16 231.047 1238.46 229.747 1237.81 228.423C1233.63 230.789 1228.11 233.037 1223.25 232.963C1219.17 232.901 1216.78 230.198 1217.55 226.124C1218.46 221.259 1221.73 216.54 1224.54 212.582C1222.31 207.977 1219.96 203.276 1218.91 198.267C1217.89 193.452 1221.11 190.509 1225.83 191.148C1227.36 191.354 1228.86 191.735 1230.33 192.206C1232.3 192.841 1236.9 194.742 1238.08 195.188C1238.24 195.162 1238.96 194.114 1239.1 193.944C1240.08 192.79 1241.07 191.663 1242.11 190.569C1242.9 189.744 1243.69 188.924 1244.5 188.115C1247.36 185.234 1254.32 177.204 1258.19 182.714C1258.58 183.275 1258.86 183.896 1259.08 184.542C1259.44 185.608 1259.6 186.768 1259.73 187.883C1259.97 189.977 1259.99 192.087 1260.02 194.191C1260.06 197.333 1259.89 200.505 1260.07 203.645C1260.07 203.684 1260.07 203.723 1260.06 203.762C1261.81 204.468 1263.57 205.163 1265.3 205.914C1269.08 207.551 1275.47 208.81 1275.72 213.281C1275.85 215.698 1274.01 217.514 1272.14 218.73C1268.34 221.201 1263.94 222.559 1259.66 223.928" stroke="#F5A883" stroke-width="4.17036" stroke-miterlimit="1.5" stroke-linecap="round" stroke-linejoin="round"/>
</svg>
