<svg xmlns="http://www.w3.org/2000/svg" width="28" height="50" viewBox="0 0 28 50" fill="none">
  <path d="M21.0719 0.217309C8.65926 -1.82264 -0.000911713 10.8228 -0.000911713 24.5786C-0.000911713 38.3345 8.65926 50.9799 21.0719 48.94C23.3843 48.5599 25.153 48.3299 26.7635 47.0389C27.4434 46.4939 27.4434 45.4593 26.7635 44.9143L26.182 44.4482C25.2038 43.664 25.2038 42.1755 26.182 41.3913C27.1603 40.6071 27.1603 39.1186 26.182 38.3345C25.2038 37.5503 25.2038 36.0618 26.182 35.2776C27.1603 34.4934 27.1603 33.0049 26.182 32.2208C25.2038 31.4366 25.2038 29.9481 26.182 29.1639C27.1603 28.3797 27.1603 26.8912 26.182 26.1071C25.2038 25.3229 25.2038 23.8344 26.182 23.0502C27.1603 22.266 27.1603 20.7775 26.182 19.9934C25.2038 19.2092 25.2038 17.7207 26.182 16.9365C27.1603 16.1523 27.1603 14.6638 26.182 13.8797C25.2038 13.0955 25.2038 11.607 26.182 10.8228C27.1603 10.0386 27.1603 8.55013 26.182 7.76596C25.2038 6.98179 25.2038 5.49328 26.182 4.70911L26.7635 4.24297C27.4434 3.69795 27.4434 2.66341 26.7635 2.1184C25.153 0.82737 23.3843 0.597344 21.0719 0.217309Z" fill="#FEF3CB"/>
</svg>
