<svg width="193" height="193" viewBox="0 0 193 193" fill="none" xmlns="http://www.w3.org/2000/svg">
<g opacity="0.5">
<path d="M124.475 183.051C78.9526 190.961 46.7195 144.806 46.2573 94.2821C45.7951 43.758 77.1784 -2.97871 122.837 4.09678C131.344 5.41492 137.848 6.20036 143.806 10.8881C146.322 12.867 146.357 16.6668 143.878 18.6915L141.758 20.4231C138.191 23.3362 138.241 28.8034 141.86 31.6507C145.48 34.498 145.53 39.9652 141.963 42.8783C138.397 45.7913 138.447 51.2585 142.066 54.1058C145.685 56.9532 145.735 62.4203 142.169 65.3334C138.602 68.2465 138.652 73.7137 142.271 76.561C145.89 79.4083 145.941 84.8755 142.374 87.7886C138.807 90.7016 138.857 96.1688 142.477 99.0161C146.096 101.863 146.146 107.331 142.579 110.244C139.013 113.157 139.063 118.624 142.682 121.471C146.301 124.319 146.351 129.786 142.785 132.699C139.218 135.612 139.268 141.079 142.887 143.926C146.507 146.774 146.557 152.241 142.99 155.154C139.424 158.067 139.474 163.534 143.093 166.382L145.244 168.074C147.76 170.053 147.795 173.853 145.316 175.878C139.444 180.673 132.955 181.578 124.475 183.051Z" fill="#FFA500"/>
</g>
</svg>
