<svg width="193" height="193" viewBox="0 0 193 193" fill="none" xmlns="http://www.w3.org/2000/svg">
<g opacity="0.5">
<path d="M68.2638 183.051C113.786 190.961 146.019 144.806 146.481 94.2821C146.943 43.758 115.56 -2.97871 69.9008 4.09678C61.3947 5.41492 54.8905 6.20036 48.9319 10.8881C46.4164 12.867 46.3817 16.6668 48.8605 18.6915L50.9806 20.4231C54.5472 23.3362 54.4972 28.8034 50.8779 31.6507C47.2586 34.498 47.2086 39.9652 50.7752 42.8783C54.3418 45.7913 54.2918 51.2585 50.6725 54.1058C47.0532 56.9532 47.0032 62.4203 50.5698 65.3334C54.1364 68.2465 54.0863 73.7137 50.4671 76.561C46.8478 79.4083 46.7978 84.8755 50.3644 87.7886C53.9309 90.7016 53.8809 96.1688 50.2616 99.0161C46.6424 101.863 46.5924 107.331 50.1589 110.244C53.7255 113.157 53.6755 118.624 50.0562 121.471C46.4369 124.319 46.3869 129.786 49.9535 132.699C53.5201 135.612 53.4701 141.079 49.8508 143.926C46.2315 146.774 46.1815 152.241 49.7481 155.154C53.3147 158.067 53.2647 163.534 49.6454 166.382L47.4939 168.074C44.9785 170.053 44.9437 173.853 47.4226 175.878C53.2944 180.673 59.7832 181.578 68.2638 183.051Z" fill="#FFA500"/>
</g>
</svg>
