<svg width="60" height="66" viewBox="0 0 60 66" fill="none" xmlns="http://www.w3.org/2000/svg">
<path fill-rule="evenodd" clip-rule="evenodd" d="M42.0609 4.58562C41.9333 4.71361 41.8269 4.81964 41.6922 4.95426C40.9985 4.8768 40.2819 4.7658 39.5612 4.7252C38.8483 4.68544 38.1309 4.71651 37.4156 4.71651C36.8511 4.71651 36.2335 4.57278 35.7356 4.75503C35.1822 4.95799 34.5779 4.74757 34.1422 4.98201C33.636 5.25455 33.0263 4.94432 32.6138 5.39455C31.7585 5.31047 31.0485 5.83816 30.2586 5.96242C29.3702 6.10201 28.5733 6.44828 27.7577 6.75893C26.8154 7.11805 25.8424 7.39059 24.9391 7.86526C24.2954 8.20325 23.6012 8.46047 22.9335 8.74627C21.7456 9.25491 20.7237 9.99136 19.6853 10.7125C19.1166 11.1068 18.6229 11.608 18.094 12.0591C17.594 12.4865 17.0353 12.8609 16.6008 13.3464C15.0645 15.0645 13.4342 16.7172 12.4376 18.8457C11.7525 19.4604 11.4767 20.3418 11.1325 21.1296C10.7883 21.9175 10.2767 22.6659 10.1869 23.5606C9.43302 24.8019 9.13438 26.2218 8.72183 27.5804C8.39669 28.6503 7.91497 29.7086 7.92781 30.87C7.51817 31.2084 7.75178 31.7419 7.52893 32.1768C7.30278 32.6183 7.15988 33.1833 7.23899 33.7528C7.31396 34.2934 6.92627 34.7784 7.00746 35.3546C7.07663 35.8487 7 36.342 6.83142 36.8506C6.66781 37.3427 6.8513 37.9255 6.59284 38.4503C6.5303 38.577 6.76101 38.8251 6.78503 39.026C6.8016 39.1652 6.60485 39.3843 6.65704 39.456C6.96231 39.8739 6.70467 40.3308 6.79911 40.6779C6.64959 40.9579 6.5332 41.1749 6.36462 41.4901C6.50006 41.5622 6.68728 41.6624 6.85586 41.7523C6.85586 43.2422 6.8542 44.6244 6.86249 46.0062C6.8629 46.0596 6.96231 46.1126 7.01698 46.1673C6.94408 46.2472 6.87118 46.3276 6.79828 46.4079C6.98426 47.1286 7.26675 47.8224 7.26385 48.5924C7.26219 49.0128 7.3732 49.4407 7.48172 49.8528C7.70663 50.7053 7.88763 51.5738 8.04669 52.4337C8.22645 53.4038 8.73799 54.1928 9.13894 55.0374C9.53408 55.8712 10.0788 56.6043 10.9308 57.1146C12.1063 57.8183 13.2565 58.5705 14.4979 59.1475C15.091 59.423 15.7421 59.6272 16.3344 59.8889C16.9549 60.1627 17.616 60.2816 18.2365 60.4643C18.7886 60.6262 19.4364 60.6854 20.0469 60.7401C20.5493 60.7853 21.0398 60.7496 21.5443 60.9468C21.9953 61.1228 22.5719 60.8172 23.0238 61.1962C23.0457 61.2148 23.0971 61.1986 23.1348 61.1986C24.9896 61.1858 26.8427 61.6837 28.683 61.3908C29.9273 61.1933 31.2374 61.1788 32.3976 60.5641C34.1944 60.3383 35.7489 59.3538 37.4852 58.9392C37.9607 58.4885 38.6334 58.438 39.1739 58.1025C39.7028 57.774 40.3159 57.5847 40.8651 57.2853C42.8065 56.227 44.7573 55.1857 46.6113 53.9746C46.9725 53.7385 47.2289 53.3963 47.6377 53.1896C48.1447 52.9333 48.5734 52.4983 48.9884 52.092C49.3761 51.7118 49.7866 51.3609 50.0562 50.8469C50.3213 50.3408 50.8275 49.9928 51.1828 49.514C52.0117 48.3973 52.8894 47.3047 53.4382 46.0327C53.7795 45.2424 54.1063 44.4251 54.397 43.6038C54.6775 42.811 54.7748 41.9747 55.1082 41.1906C55.3667 40.5843 55.3033 39.8391 55.3708 39.1544C55.4533 38.3202 55.5535 37.4864 55.5904 36.6502C55.628 35.7857 55.65 34.9147 55.5841 34.054C55.5187 33.202 55.3973 32.3537 55.2027 31.5112C55.0917 31.0328 54.9662 30.5316 54.938 30.0408C54.8945 29.272 54.5789 28.6085 54.2927 27.9296C53.7244 26.5805 52.8993 25.405 52.0204 24.2275C51.0499 22.9273 49.6561 22.1328 48.621 20.9329C48.1886 20.4321 47.5689 20.0676 46.9816 19.7346C46.5347 19.4807 45.9937 19.4289 45.5108 19.1978C44.9185 18.9145 44.2491 18.7935 43.6141 18.5985C43.5487 18.5786 43.4936 18.5082 43.4298 18.502C42.6333 18.4208 41.8364 18.34 41.0386 18.2762C40.7392 18.2522 40.431 18.2377 40.1369 18.2828C39.8901 18.3209 39.6718 17.9146 39.4266 18.2543C39.0298 17.949 38.6649 18.4025 38.2453 18.2944C37.8766 18.1996 37.486 18.3243 37.0896 18.4634C36.6365 18.6225 36.0877 18.4469 35.6101 18.7169C35.3144 18.8843 34.9785 18.9804 34.6409 19.1166C34.5473 19.023 34.4143 18.8896 34.2764 18.7521C34.23 18.7869 34.1397 18.825 34.1422 18.8569C34.1675 19.2206 34.0519 19.4559 33.6973 19.6398C33.0727 19.9641 32.4862 20.3617 31.8479 20.7502C31.7394 20.6881 31.5886 20.6024 31.3132 20.445C31.2693 20.6193 31.2192 20.8177 31.1819 20.9664C31.1285 20.9404 31.2726 21.0104 31.452 21.0969C30.904 21.635 30.3609 22.1511 29.8378 22.6862C28.5998 23.9528 27.5651 25.3719 26.7226 26.9293C26.2906 27.7283 25.8267 28.5144 25.4551 29.3412C24.9991 30.3551 24.5302 31.3641 24.1765 32.4266C23.9226 33.1887 23.6443 33.9392 23.4061 34.7084C23.2582 35.186 23.3444 35.6735 23.1124 36.1664C22.8353 36.7554 23.0002 37.5362 22.8167 38.1898C22.6025 38.9531 22.6373 39.709 22.603 40.4741C22.5926 40.7093 22.4625 40.9392 22.3843 41.1811C22.4538 41.2594 22.5272 41.3414 22.6013 41.4247C22.5574 41.4744 22.5102 41.5274 22.4725 41.5705C22.5201 41.877 22.6059 42.1744 22.6059 42.4722C22.6054 43.3441 22.8337 44.1675 23.0619 44.9963C23.4214 46.2994 24.3231 47.1535 25.5053 47.6182C26.8916 48.1629 28.3575 48.4193 29.8581 48.6036C31.0817 48.7535 32.2886 48.6765 33.4853 48.7879C34.0469 48.389 34.7134 48.2466 35.2887 47.8999C35.4817 47.7835 35.7311 47.718 35.9307 47.5503C36.7641 46.847 37.6757 46.2472 38.4843 45.5008C38.8459 45.167 39.2683 44.8576 39.637 44.5084C40.7967 43.4112 41.5208 42.0427 42.0393 40.5553C42.2121 40.0607 42.2469 39.4891 42.5202 39.0662C42.8371 38.5758 42.5082 37.9586 42.9469 37.5424C43.0218 36.6328 43.1821 35.7191 43.1436 34.8136C43.1167 34.1728 42.8856 33.5366 42.9427 32.8727C42.9556 32.7264 42.176 30.94 42.0029 30.7834C41.6268 30.443 41.2188 30.1381 40.8245 29.8183C40.4335 30.0304 40.1208 29.5023 39.6473 29.7599C39.2567 29.9724 38.6644 30.0109 38.2283 29.8892C37.7354 29.7517 38.0713 30.146 37.9056 30.2247C36.5669 30.8605 35.7124 32.1155 34.5071 32.9282C34.4483 32.9675 34.4089 33.0363 34.4694 32.9675C34.3302 33.4513 34.3244 33.8655 34.1182 34.1136C33.5147 34.8405 33.3801 35.7775 32.9174 36.5615C32.8155 36.7347 32.8105 36.9712 32.7824 37.1808C32.7211 37.6418 32.9265 38.1372 32.5649 38.5646C32.4904 38.6524 32.5251 38.8637 32.5595 39.0057C32.6573 39.4075 32.7811 39.8027 32.9153 40.2728C34.3891 39.27 34.93 37.6045 35.9953 36.3677H36.8188C36.6568 36.7247 36.5098 37.0486 36.2675 37.5817C36.6125 37.4343 36.7798 37.4032 36.8917 37.3071C37.1472 37.0863 37.3759 36.8337 37.6285 36.581C37.9636 36.8051 38.1434 37.1816 38.4565 37.4438C38.7489 37.6878 38.8438 38.1686 39.118 38.7369C39.1288 39.5794 38.4184 40.419 38.2022 41.4127C37.7946 41.6815 37.3349 41.8405 37.2644 42.4834C37.2226 42.8644 36.8428 43.2082 36.6709 43.4795C36.1871 43.6949 35.7957 43.5011 35.3906 43.7434C34.8231 44.083 34.2163 43.4775 33.5938 43.576C32.7153 42.9945 31.6694 42.7708 30.7727 42.1876C30.0983 41.749 29.6779 41.1501 29.2248 40.5606C28.9108 40.1522 28.7613 39.6217 28.4834 39.1805C28.2083 38.7448 28.2083 38.2279 28.0849 37.7698C27.896 37.0673 27.9151 36.2521 28.0642 35.5298C28.2759 34.5092 28.4618 33.4687 28.9299 32.5053C29.5139 31.3028 30.2537 30.2168 31.1765 29.2604C32.0405 28.3649 32.9099 27.4839 34.0088 26.8411C34.7208 26.4248 35.5161 26.2935 36.2443 25.958C36.5851 25.8006 36.8999 26.1974 37.3129 25.9837C37.6099 25.8304 38.0535 25.9244 38.4263 25.9617C38.8127 26.0011 39.3317 25.975 39.5475 26.2061C40.0296 26.7226 40.8701 26.4281 41.2395 27.0709C41.9594 27.0722 42.403 27.6048 42.8818 28.0004C44.105 29.0115 45.382 29.9956 45.9622 31.5683C46.0467 31.7974 46.1225 32.0289 46.2017 32.2567C46.3056 32.2799 46.4083 32.3027 46.5007 32.3234C46.668 32.9497 46.8304 33.559 46.9973 34.1836C46.9692 34.2201 46.9244 34.2768 46.8428 34.3812C46.9799 34.5986 47.132 34.8401 47.3266 35.1491C47.0247 35.1967 46.8176 35.2299 46.591 35.2659C46.584 35.379 46.5778 35.4809 46.5691 35.6263H47.0736C47.1469 35.6938 47.1742 35.7191 47.2015 35.7439C46.8884 36.0301 47.395 36.2911 47.2355 36.5549C46.8619 37.1729 47.0914 37.8514 47.0052 38.4959C46.9398 38.9838 46.8358 39.4746 46.6776 39.9398C46.5773 40.2351 46.3458 40.4853 46.1751 40.7528C46.6403 41.4392 45.7692 42.1131 46.065 42.8537C45.9813 42.8711 45.8786 42.8926 45.7638 42.9166C45.5398 43.405 45.307 43.9119 44.9769 44.6306V45.3869C44.7259 45.9917 44.4392 46.4415 43.8598 46.6063V47.1046C43.2389 47.7139 42.6408 48.4044 41.93 48.9466C41.6479 49.162 41.3717 49.3964 41.0863 49.613C40.8307 49.8077 40.5304 49.9543 40.3088 50.1801C39.5686 50.9331 38.6309 51.3817 37.7143 51.8356C36.4302 52.4718 34.5957 52.7543 33.1825 52.6002C32.6676 52.5443 32.1685 52.3409 31.6023 52.1889C31.4793 52.2366 31.2573 52.4151 31.0941 52.3716C29.3002 51.8953 27.4545 51.6733 25.7115 50.9182C24.413 50.3553 23.1543 49.7369 22.0322 48.9225C21.2141 48.3294 20.4868 47.5577 19.9177 46.6631C19.2562 45.623 18.5873 44.5991 18.2505 43.3975C18.2228 43.2993 18.1155 43.2194 18.0998 43.1225C18.0132 42.5906 17.8902 42.0576 17.879 41.5228C17.8488 40.0549 17.8015 38.582 17.8943 37.1195C17.9482 36.2778 18.1317 35.4275 18.2741 34.5866C18.4117 33.7769 18.6018 32.9841 18.755 32.1809C18.9278 31.2755 19.2761 30.4351 19.5735 29.5781C19.8125 28.8905 20.0258 28.1628 20.3824 27.5473C20.9975 26.4848 21.4034 25.3276 22.0686 24.278C22.7061 23.2719 23.3009 22.2281 23.9731 21.2377C24.3153 20.7328 24.6537 20.2105 25.0786 19.7798C26.1208 18.7231 27.0888 17.577 28.333 16.7408C29.4095 16.0176 30.4616 15.2927 31.7249 14.8383C32.9824 14.3864 34.2217 14.0522 35.5455 13.971C35.7812 13.9565 36.0107 13.8289 36.2546 13.7498C36.3321 13.8177 36.4149 13.8894 36.4994 13.9631C36.5479 13.9225 36.6009 13.8786 36.6585 13.831C36.8751 13.8799 37.1162 13.8906 37.3129 13.9892C37.5859 14.1263 37.7296 13.672 38.0701 13.9122C38.2987 14.0737 38.7175 13.9577 39.0501 13.9826C39.3325 14.0033 39.6593 13.86 39.871 14.1802C40.1949 13.7014 40.4894 14.2717 40.8025 14.2067C41.2159 14.1205 41.575 14.3131 41.9532 14.4262C42.2908 14.5269 42.642 14.582 42.987 14.6573C43.3325 14.7327 43.7169 14.7356 44.0163 14.8959C45.2801 15.5719 46.7944 15.7811 47.8021 16.9064C48.5672 16.8841 49.0414 17.4428 49.5836 17.8119C51.525 19.134 53.1528 20.8198 54.7408 22.5259C56.2957 24.1964 57.5947 26.0835 58.4015 28.2295C58.8298 29.3677 59.314 30.4997 59.4739 31.7493C59.5762 32.5508 59.8098 33.3535 59.8765 34.1654C59.9436 34.988 59.891 35.8205 59.891 36.6489C59.891 37.2512 59.8968 37.8538 59.8898 38.4561C59.8827 39.0679 59.9316 39.6614 59.5456 40.2401C59.3236 40.5727 59.3782 41.09 59.3082 41.5245C59.7411 41.7627 58.9238 42.186 59.4159 42.4018C59.0953 43.0251 58.7751 43.6464 58.4525 44.274C58.3448 44.1762 58.2719 44.0859 58.1779 44.0341C58.1228 44.0039 58.0337 44.035 57.9202 44.0399C57.8436 44.3179 58.1675 44.3444 58.2723 44.6144V45.534C58.1717 45.6346 58.0387 45.768 57.8776 45.9291C57.9306 45.9983 57.9873 46.0716 58.052 46.1553C57.5748 46.6349 57.5151 47.3337 57.1821 47.8995C56.8048 48.5402 56.4685 49.2096 55.9408 49.6718C55.5742 49.5741 55.2826 49.4966 54.991 49.4192C54.9728 49.4734 54.9546 49.5277 54.9363 49.582C55.0718 49.6408 55.2072 49.7 55.4234 49.794C55.2188 49.9344 55.0407 50.0562 54.863 50.178C54.8899 50.2289 54.9169 50.2799 54.9438 50.3304C55.1215 50.2907 55.2996 50.2513 55.546 50.1958C55.563 50.3312 55.587 50.5222 55.6123 50.7222C55.4495 50.7819 55.3191 50.8295 55.1285 50.8991C55.1757 51.1215 55.2242 51.3527 55.2963 51.6948C55.0353 51.8435 54.6837 52.0452 54.2798 52.2759C54.1129 52.6524 53.9153 53.0973 53.7182 53.5413C53.7517 53.5616 53.7857 53.5819 53.8196 53.6014C52.9979 54.4231 52.2333 55.3137 51.3402 56.0485C50.2683 56.9303 49.1147 57.7231 47.9467 58.4773C46.2907 59.5472 44.595 60.5554 42.9009 61.5648C42.7 61.6845 42.4051 61.646 42.1027 61.6882C41.727 62.3717 40.9028 62.464 40.2653 62.8385C39.6701 63.188 38.9975 63.4072 38.331 63.6959C38.2573 63.5476 38.1831 63.3985 38.1077 63.2469C37.7358 64.1535 36.7881 64.1668 36.0413 64.5321C35.9415 64.4762 35.7969 64.3954 35.5977 64.2832C35.5385 64.4754 35.4995 64.6038 35.4602 64.7314C35.4337 64.7583 35.3976 64.813 35.3815 64.8072C34.9172 64.6547 34.5249 64.9501 34.1252 65.0606C32.2124 65.5933 30.2615 65.4214 28.3214 65.5096C26.8303 65.5772 25.3723 65.3083 23.8978 65.2317C23.3369 65.2027 22.7264 65.148 22.1946 64.9973C21.6453 64.8415 21.0994 64.9273 20.5879 64.7914C19.9396 64.6195 19.2914 64.4671 18.6382 64.3176C17.927 64.1552 17.2217 63.9402 16.5304 63.6892C15.842 63.4391 15.1308 63.2514 14.4432 63.0004C13.7573 62.7502 13.0975 62.4288 12.4095 62.1853C10.4014 61.4745 8.71231 60.1921 6.89148 59.1454C6.06225 58.1936 5.07065 57.407 4.28201 56.3976C3.6603 55.6028 3.12639 54.7566 2.60615 53.9124C2.04491 53.0016 1.67669 51.9673 1.3768 50.926C1.0616 49.8334 0.770414 48.737 0.690059 47.5934C0.668107 47.2823 0.537633 46.9799 0.475089 46.6697C0.411716 46.3578 0.612189 45.9908 0.268402 45.734C0.229467 45.705 0.251006 45.594 0.24645 45.5215C0.171065 44.235 0.0654438 42.9493 0.0285799 41.6616C-0.00911243 40.3448 0.0149112 39.0264 0.0289941 37.7089C0.0306509 37.5875 0.156568 37.4678 0.224911 37.3473C0.16071 37.2752 0.0873965 37.1932 0 37.095C0.0815976 36.9045 0.253491 36.7019 0.231538 36.523C0.0948521 35.4047 0.51858 34.334 0.478402 33.226C0.468462 32.946 0.355385 32.6163 0.681361 32.4096C0.330118 32.1644 0.735621 31.944 0.713254 31.6988C0.687574 31.4234 0.659408 31.1508 0.846627 30.8534C1.08686 30.4711 0.773314 29.907 1.14982 29.5156C1.15479 28.3202 1.71314 27.2602 1.9687 26.1286C2.16462 25.2617 2.49059 24.4698 2.84142 23.6629C3.13053 22.9989 3.29083 22.2766 3.5497 21.5861C4.16355 19.9496 4.91864 18.3814 5.69154 16.8265C6.20598 15.7922 6.97805 14.8909 7.49746 13.8455C8.17882 13.522 8.31385 12.7462 8.80675 12.2417C9.31083 11.7264 9.76314 11.135 10.2796 10.6127C10.809 10.0775 11.3243 9.52621 11.8805 9.01964C12.7885 8.19165 13.824 7.51236 14.7534 6.72083C15.6924 5.921 16.778 5.38834 17.7962 4.74923C18.7567 4.14615 19.8601 3.72947 20.9503 3.38941C21.7178 3.15041 22.4344 2.78053 23.2313 2.60947C24.2212 2.39739 25.1814 2.04947 26.1614 1.78562C26.5722 1.67461 27.1049 1.75828 27.3969 1.52302C27.8339 1.17136 28.3492 1.53006 28.7435 1.19497C29.0877 0.902956 29.6464 1.3387 29.9675 0.878104C29.9799 0.860294 30.0404 0.870234 30.0768 0.876447C31.0071 1.04337 31.8827 0.599761 32.8076 0.641181C33.7093 0.681359 34.6401 0.514436 35.512 0.680945C36.9194 0.949761 38.3857 0.964672 39.6966 1.75331C40.6837 2.34728 41.5195 2.99881 41.9615 4.07698C42.0282 4.23935 42.0315 4.42698 42.0609 4.58562" fill="#00E1F0"/>
</svg>
