<svg width="76" height="135" viewBox="0 0 76 135" fill="none" xmlns="http://www.w3.org/2000/svg">
<path fill-rule="evenodd" clip-rule="evenodd" d="M57.2859 33.244C57.2256 33.2093 57.1653 33.175 57.1049 33.1403C56.959 33.3363 56.8466 33.5768 56.6593 33.7168C56.455 33.8694 56.1147 33.8671 55.9519 34.0417C55.6116 34.4069 55.1746 34.5713 54.7547 34.7819C54.6147 35.4381 54.0031 35.623 53.5598 35.9764C53.2124 36.2536 52.8532 36.5178 52.5219 36.8131C52.4241 36.9003 52.4048 37.0754 52.3496 37.2102C52.7112 37.0632 52.9096 36.7331 53.3193 36.8459C53.6233 36.9299 53.5922 36.6594 53.7069 36.5099C53.8027 36.3857 54.2286 36.4188 54.2404 36.3419C54.3047 35.9164 54.6498 35.8498 54.9282 35.6735C55.2433 35.4744 55.5792 35.2701 55.8115 34.9893C56.0461 34.7054 56.3517 34.7267 56.6266 34.6443C56.5584 34.472 56.4929 34.3056 56.386 34.0358H57.2859V33.244ZM-46.3302 12.2195C-47.0582 12.6127 -47.3109 13.3284 -47.6453 13.9853C-47.9604 14.6048 -48.1083 15.3056 -48.3934 15.9259C-48.7136 16.6231 -48.8761 17.3502 -48.9052 18.0612C-48.9356 18.8045 -49.436 19.5234 -49.0567 20.2983C-48.949 20.1137 -48.826 19.9497 -48.7558 19.7655C-48.7081 19.6409 -48.7546 19.4836 -48.7242 19.3487C-48.6146 18.8593 -48.49 18.3735 -48.3717 17.8865C-48.2435 17.3613 -47.9924 16.8593 -48.0704 16.295C-47.5136 15.1313 -47.3038 13.8233 -46.5798 12.7286C-46.4765 12.572 -46.4126 12.3895 -46.3302 12.2195ZM63.7787 40.9068C63.9194 40.921 64.0157 40.9609 64.0523 40.9297C64.6632 40.4135 65.2965 39.919 65.8663 39.3595C67.0465 38.1997 67.993 36.8393 68.8711 35.454C69.2666 34.8301 69.732 34.2004 69.9149 33.4227C69.9974 33.0722 69.7044 33.151 69.6677 32.9866C68.9307 34.4157 68.2741 35.8956 67.2315 37.1252C66.1392 38.4135 64.9558 39.6252 63.7787 40.9068ZM55.393 14.1435C55.5925 14.2733 55.7574 14.3849 55.9269 14.4898C56.0965 14.5951 56.2704 14.6932 56.4423 14.7946C56.162 15.308 56.1628 15.3033 56.5133 15.5572C56.6501 15.6566 56.8485 15.78 56.8666 15.9137C56.9388 16.4378 57.2586 16.131 57.4073 16.1554C57.3745 15.7769 57.3434 15.4196 57.3126 15.0627C57.772 14.7654 57.328 14.4641 57.298 14.1723C57.2791 13.9905 57.1368 13.8064 57.0054 13.664C56.9798 13.6368 56.7487 13.8001 56.5839 13.8912C56.4632 13.6317 56.3678 13.4262 56.2132 13.0938C56.5247 13.2212 56.6868 13.2874 56.8457 13.3525C57.0366 12.8844 56.5125 13.0638 56.4711 12.8702C56.4222 12.6411 56.4597 12.3935 56.4597 12.0808H55.0085C54.9399 11.8966 54.9025 11.7968 54.8102 11.55C54.7538 12.3805 54.7538 12.3805 55.1166 12.6959C55.1588 12.5713 55.2014 12.4467 55.2459 12.3154C55.4388 12.496 55.6099 12.6565 55.7625 12.7992C55.9545 12.6924 56.0717 12.6273 56.2771 12.513C56.1833 13.1747 55.7069 13.2981 55.393 13.5426V14.1435ZM41.3124 101.95C41.165 102.241 40.9654 102.522 41.0092 102.567C41.3132 102.88 41.1488 103.246 41.1744 103.582C41.202 103.938 41.2624 104.324 41.1582 104.649C41.0502 104.985 41.5542 105.253 41.1929 105.559C41.5321 105.829 41.3704 106.206 41.3909 106.54C41.413 106.897 41.396 107.256 41.396 107.615C41.396 108.976 41.3937 110.338 41.3992 111.7C41.3996 111.836 41.4469 111.971 41.4725 112.106C41.5522 111.537 41.7576 111.008 41.7975 110.48C41.8933 109.223 41.7829 107.956 42.0226 106.698C42.124 106.166 41.9016 105.599 41.8685 105.067C41.8042 104.029 41.5617 103.047 41.3124 101.95ZM41.5276 126.996C41.7997 126.595 42.0627 126.276 42.25 125.918C42.8648 124.742 43.8833 123.761 43.9937 122.337C43.9981 122.283 44.0955 122.24 44.1393 122.184C44.4614 121.769 44.6543 121.3 44.6172 120.772C44.5774 120.205 44.7552 119.698 44.9792 119.198C45.0837 118.965 45.1357 118.754 44.8203 118.511C44.6787 118.695 44.493 118.855 44.4188 119.055C44.3033 119.368 44.2891 119.716 44.1874 120.036C43.905 120.92 43.7378 121.846 43.2441 122.656C43.1771 122.767 43.1018 122.919 43.1262 123.031C43.2504 123.6 42.9397 124.103 42.6554 124.442C42.0678 125.143 41.9302 126.097 41.1798 126.649L41.5276 126.996ZM-38.104 10.9273C-38.5997 10.6698 -39.0067 10.4581 -39.4188 10.244C-39.4893 10.307 -39.5938 10.4009 -39.6948 10.4912C-39.6195 10.5768 -39.5536 10.6509 -39.5162 10.6935C-40.0024 11.0748 -40.4791 11.449 -40.9508 11.8193C-40.9117 11.867 -40.7788 11.9865 -40.7962 12.0149C-40.9543 12.2748 -41.1527 12.5102 -41.3131 12.7689C-41.6716 13.3478 -42.0833 13.9196 -41.7607 14.681C-41.2934 14.36 -41.0399 13.7177 -40.3671 13.7792C-40.4369 13.5998 -40.5891 13.3888 -40.5379 13.3095C-40.2966 12.9361 -40.0611 12.5015 -39.7047 12.2764C-39.3419 12.0465 -39.0307 11.7164 -38.9432 11.4155C-38.8083 10.9518 -38.4889 11.0953 -38.104 10.9273ZM-8.27106 85.978L-8.11925 85.8257C-8.17643 85.7753 -8.23833 85.6771 -8.28999 85.6822C-8.70563 85.7216 -9.20998 85.7165 -9.35391 85.5667C-9.92136 84.9759 -10.6256 85.209 -11.2384 85.3257C-11.8059 85.4338 -12.3237 85.8021 -12.8647 86.0533C-13.0358 86.1333 -13.2054 86.2402 -13.3852 86.2654C-13.4613 86.2761 -13.556 86.0359 -13.6853 86.2327C-13.7701 86.3624 -13.8391 86.5024 -14.0256 86.8352C-13.3765 86.5766 -12.9491 87.3234 -12.4372 86.7595C-12.4286 86.7501 -12.1833 86.8798 -12.175 86.9579C-12.1446 87.2454 -11.9037 87.2339 -11.7921 87.1681C-11.2448 86.8467 -10.6367 87.0293 -10.0578 86.9378C-10.0227 86.7201 -9.99117 86.5229 -9.98249 86.4681C-9.8354 86.6148 -9.65479 86.795 -9.50574 86.9433C-9.54714 86.9575 -9.67214 87.0013 -9.62798 86.9859C-9.48681 87.1271 -9.30541 87.3084 -9.14965 87.4646C-9.05659 87.1271 -9.38744 86.5198 -8.70839 86.306C-8.37596 86.5801 -8.02579 86.618 -7.59793 86.422C-7.844 86.2595 -8.05773 86.1183 -8.27106 85.978ZM-5.37207 89.5416C-5.6485 89.9707 -6.11618 89.4135 -6.39971 89.7609C-6.7349 89.406 -7.19627 89.6241 -7.59455 89.5034C-7.79093 89.5468 -7.39423 88.9651 -7.89858 89.2258C-8.21563 89.3898 -8.65137 89.3252 -9.08041 89.3677C-9.12891 89.1213 -9.17229 88.9024 -9.2413 88.5542C-9.33082 88.8109 -9.37459 88.936 -9.42664 89.0842C-9.69479 88.9068 -9.95979 88.7313 -10.2638 88.5306C-10.2058 88.3271 -10.1439 88.1094 -10.0785 87.8795C-10.4937 87.6181 -10.9716 87.4958 -11.6243 87.7301C-11.1826 87.9398 -10.8332 88.1055 -10.4555 88.2845C-10.5667 88.512 -10.6621 88.7072 -10.7575 88.9028C-10.9515 88.8094 -10.8127 88.221 -11.3266 88.5905C-11.2386 88.7869 -11.1456 88.9931 -11.0541 89.197C-11.1353 89.2404 -11.2023 89.3015 -11.2299 89.2869C-11.5841 89.1004 -11.9326 88.9032 -12.2828 88.7084C-12.6089 89.3039 -13.2083 89.5215 -13.9225 89.7376C-13.8531 89.5373 -13.803 89.3926 -13.7273 89.1741C-13.9307 89.0471 -14.0155 88.6445 -14.4544 88.6911C-14.3921 89.0262 -14.3334 89.3405 -14.277 89.6434C-14.6279 89.8007 -14.6776 89.895 -14.5656 90.1209C-15.0641 90.5137 -15.1496 89.7585 -15.5479 89.714C-15.587 89.9707 -15.6173 90.1679 -15.6489 90.3733C-15.865 90.3406 -15.9785 90.0614 -16.2759 90.2944C-16.6899 90.6182 -17.244 90.7625 -17.6553 91.0882C-18.0705 91.4171 -18.3986 91.2554 -18.8059 91.074C-18.8201 91.2653 -18.8327 91.4349 -18.8517 91.6896C-19.4144 91.5847 -19.8509 91.9522 -20.3549 92.1119C-21.5584 92.4937 -22.715 92.9952 -23.8945 93.4365C-24.9489 93.8308 -25.9789 94.2883 -27.0247 94.7059C-27.8863 95.0501 -28.7479 95.3952 -29.6214 95.7063C-30.808 96.1294 -31.95 96.6661 -33.1215 97.1259C-34.0368 97.4852 -34.954 97.8925 -35.8657 98.2876C-36.1666 98.4182 -36.4367 98.6832 -36.8216 98.5873C-36.9028 98.5672 -37.031 98.6193 -37.0992 98.6804C-37.9238 99.4221 -39.0973 99.4233 -39.9787 100.043C-40.0295 100.078 -40.1135 100.094 -40.1746 100.082C-41.0698 99.9048 -41.724 100.494 -42.4547 100.814C-43.6164 101.323 -44.8089 101.728 -46.0408 102.023C-46.3003 102.085 -46.5779 102.123 -46.8062 102.248C-47.0227 102.367 -47.2526 102.279 -47.4419 102.364C-47.6848 102.472 -47.932 102.623 -48.1087 102.817C-48.3571 103.092 -48.5184 102.53 -48.8094 102.815C-49.022 103.022 -49.4435 102.997 -49.7337 103.149C-50.2085 103.397 -50.8091 103.298 -51.2232 103.729C-51.3091 103.819 -51.5958 103.799 -51.7413 103.729C-52.0047 103.603 -52.1021 103.561 -52.2678 103.896C-52.3585 104.079 -52.8009 104.119 -53.0943 104.166C-54.0261 104.314 -54.8641 104.85 -55.8373 104.817C-56.5928 105.342 -57.5077 105.288 -58.3465 105.51C-58.5397 105.562 -58.7274 105.637 -58.923 105.674C-59.2881 105.745 -59.6564 105.586 -60.0366 105.864C-60.3039 106.06 -60.7906 105.741 -61.125 106.094C-61.1896 106.163 -61.4767 106.098 -61.606 106.012C-61.9456 105.786 -61.7799 106.15 -61.8561 106.189C-61.9771 106.253 -62.1656 106.183 -62.2934 106.24C-62.8738 106.503 -63.4827 106.612 -64.105 106.531C-65.2055 106.389 -66.2568 106.806 -67.3515 106.78C-67.6824 106.772 -68.0207 107.004 -68.3555 106.753C-68.9774 107.073 -69.6 106.618 -70.2203 106.756C-70.4802 106.813 -70.7894 107.025 -70.9814 106.943C-71.4897 106.728 -72.0015 106.789 -72.5158 106.747C-73.026 106.705 -73.532 106.61 -74.0403 106.538C-74.1081 106.528 -74.2134 106.544 -74.2378 106.507C-74.4571 106.171 -74.8096 106.371 -75.0502 106.286C-75.5979 106.092 -76.1993 106.214 -76.7194 105.903C-77.1086 105.67 -77.4698 105.482 -77.6611 105.241C-77.7324 105.393 -77.8003 105.539 -77.8973 105.745C-78.684 105.143 -79.8481 105.237 -80.5038 104.202H-81.3016C-81.4017 104.024 -81.481 103.761 -81.5591 103.761C-82.1072 103.765 -82.5623 103.735 -82.5224 102.985C-82.5165 102.87 -82.8142 102.738 -83.1739 102.454C-83.0319 102.869 -82.9712 103.047 -82.8635 103.362C-83.2811 103.084 -83.5816 102.898 -83.8667 102.69C-84.1357 102.494 -84.4393 102.314 -84.6349 102.056C-84.8632 101.756 -85.2465 101.666 -85.4449 101.341C-85.6223 101.051 -85.8148 100.757 -86.0561 100.523C-86.3096 100.277 -86.4386 99.9423 -86.7765 99.7356C-87.0009 99.5984 -87.0447 99.1654 -87.1725 98.8586C-87.1031 98.7841 -87.0068 98.68 -86.9138 98.5795C-86.831 98.6532 -86.7564 98.7194 -86.5837 98.8728C-86.6137 98.6492 -86.5912 98.5037 -86.6523 98.4154C-86.8944 98.0633 -87.275 97.8945 -87.6476 97.7151C-87.7983 97.6421 -87.9943 97.5486 -88.0475 97.4158C-88.122 97.2304 -88.029 96.9773 -88.1062 96.7947C-88.1686 96.6468 -88.501 96.5581 -88.499 96.4469C-88.4891 95.8857 -88.8811 95.3873 -88.7348 94.8151C-89.1386 93.9022 -88.8831 92.9389 -88.9489 92.0003C-89.0712 90.257 -88.5794 88.6134 -88.0057 87.0136C-87.3594 85.2103 -86.4078 83.5576 -85.2236 82.0323C-84.3987 80.9699 -83.6148 79.8828 -82.7141 78.8756C-81.4818 77.4978 -80.3989 75.9934 -79.3599 74.4626C-79.0416 73.9945 -78.8843 73.4409 -78.5392 72.9689C-78.2147 72.5248 -78.0195 71.968 -77.8472 71.4353C-77.6918 70.9562 -77.6307 70.4443 -77.5546 69.9431C-77.4939 69.5401 -77.6725 69.1044 -77.346 68.7329C-77.2817 68.6603 -77.3389 68.46 -77.3728 68.3271C-77.4138 68.1678 -77.5353 68.0199 -77.5435 67.8634C-77.6638 65.5565 -78.9174 63.6479 -80.6801 62.3825C-81.7558 61.61 -82.9065 60.9889 -84.0051 60.2736C-85.5537 59.2661 -87.1993 58.4261 -88.7392 57.4048C-89.9372 56.6106 -91.2061 55.9241 -92.442 55.1874C-93.8285 54.3613 -95.3033 53.6752 -96.5336 52.6022C-97.2107 52.4918 -97.5707 51.8671 -98.163 51.6033C-98.8251 51.3084 -99.2683 50.6991 -99.8752 50.2981C-100.57 49.8391 -101.148 49.2042 -101.779 48.6486C-102.142 48.3287 -102.418 47.9214 -102.899 47.7179C-103.143 47.6146 -103.401 47.3646 -103.496 47.1197C-103.686 46.6248 -104.11 46.3642 -104.429 46.001C-105.956 44.26 -107.163 42.3447 -107.902 40.1238C-108.207 39.2058 -108.313 38.231 -108.739 37.3536C-108.59 36.5736 -108.989 35.8488 -108.96 35.0763C-108.932 34.3247 -109.089 33.5395 -108.922 32.8258C-108.672 31.756 -108.703 30.6029 -108.094 29.6258C-107.894 28.1501 -106.454 25.5507 -105.8 24.5534C-105.033 23.3858 -103.993 22.4551 -102.958 21.5568C-102.434 21.1022 -101.798 20.6578 -101.047 20.4906C-100.562 20.3825 -100.123 20.1349 -99.6224 20.0162C-99.163 19.9073 -98.807 19.8123 -98.3578 19.9929C-98.1922 20.0595 -97.941 19.8762 -97.7257 19.8628C-97.3329 19.8383 -96.9343 19.8261 -96.5439 19.8655C-96.2517 19.8951 -95.9788 20.1794 -95.6692 19.9121C-95.3368 20.2461 -94.9113 19.9625 -94.5548 20.0793C-94.2421 20.1818 -93.9641 20.3888 -93.6522 20.4941C-93.147 20.6637 -92.6249 20.7828 -92.1131 20.9342C-91.9554 20.9807 -91.7929 21.0407 -91.6584 21.1325C-90.8461 21.6874 -89.8748 21.8498 -88.9829 22.2036C-88.0294 22.5821 -87.0266 22.8491 -86.1077 23.3093C-85.4516 23.6381 -84.7453 23.8416 -84.0742 24.1125C-83.3683 24.3976 -82.69 24.7541 -81.9708 25.0077C-80.4956 25.5278 -79.1315 26.2905 -77.7234 26.9561C-75.9244 27.8067 -74.129 28.6655 -72.3399 29.537C-69.2069 31.0623 -66.0845 32.6089 -62.948 34.1259C-62.1739 34.5005 -61.3809 34.8621 -60.5587 35.0988C-60.1604 35.2135 -59.8453 35.4643 -59.4549 35.5582C-58.8682 35.6989 -58.2861 35.8602 -57.6962 35.9825C-57.2289 36.0795 -56.7159 36.0432 -56.2888 36.2222C-55.5356 36.5373 -54.7225 36.5483 -53.9512 36.8003C-53.1369 37.0661 -52.2646 36.7151 -51.5745 36.1374C-51.2732 35.8851 -51.0228 35.5735 -50.7326 35.3074C-49.5942 34.2639 -49.3232 33.017 -49.7976 31.5655C-50.0066 30.9259 -50.2582 30.289 -50.2334 29.5946C-50.6652 29.1983 -50.2247 28.552 -50.6474 28.1529C-50.5563 27.3623 -50.7847 26.5807 -50.4992 25.7577C-50.3103 25.2135 -50.1395 24.5798 -50.2204 23.9272C-50.4254 22.2666 -50.0693 20.6167 -49.9676 18.966C-49.897 17.8201 -49.6044 16.6525 -49.2787 15.5113C-49.0567 14.734 -48.7037 14.0167 -48.4336 13.2726C-48.1312 12.439 -47.5377 11.7028 -47.0247 10.9559C-45.9446 9.38485 -44.506 8.19041 -42.9169 7.16553C-41.7662 6.42339 -40.5638 5.77352 -39.2606 5.35158C-38.7191 5.17649 -38.1221 5.11971 -37.5827 4.97104C-36.9852 4.80621 -36.3689 4.96473 -35.8436 4.76638C-35.2825 4.55423 -34.7415 4.55305 -34.2012 4.59997C-33.1803 4.6887 -32.1637 4.8488 -31.1526 5.02073C-30.1636 5.18911 -29.248 5.59962 -28.3142 5.95294C-27.0858 6.41865 -25.934 7.01213 -24.8886 7.80987C-24.7269 7.9333 -24.5167 8.01572 -24.3976 8.1699C-23.7497 9.00787 -23.0731 9.83006 -22.5009 10.7185C-21.5312 12.2245 -20.4338 13.2971 -19.0863 14.3425C-18.8679 14.5116 -18.7227 14.7746 -18.5425 14.9955C-18.1888 14.8705 -17.9392 14.7167 -17.6864 14.7104C-17.3922 14.7037 -17.1675 14.572 -16.9104 14.4958C-16.6466 14.4178 -16.3208 14.4126 -16.061 14.4962C-15.7818 14.5862 -15.6303 14.1693 -15.3322 14.3953C-15.2498 14.4572 -14.9998 14.2975 -14.8267 14.2391C-14.6378 14.1756 -14.4296 14.1433 -14.2652 14.0408C-14.0128 13.8834 -13.9174 14.3515 -13.6393 14.1508C-13.4919 14.0443 -13.2399 14.0928 -13.0415 14.0443C-12.816 13.9895 -12.6022 13.8827 -12.3759 13.8385C-12.0596 13.7766 -11.7808 13.971 -11.493 14.0148C-11.2922 14.0451 -11.0596 13.6961 -10.8119 13.6342C-10.487 13.5534 -10.1581 13.5782 -9.81546 13.4375C-9.50985 13.3121 -8.97315 13.2012 -8.81818 13.8172C-8.80793 13.8574 -8.50113 13.8227 -8.30081 13.8227C-8.39545 13.6263 -8.46209 13.4875 -8.53228 13.3424C-8.1829 13.1989 -7.92027 12.7438 -7.49597 13.1464C-7.34809 12.911 -7.21559 13.1669 -7.11898 13.1551C-6.84176 13.1208 -6.73963 12.4469 -6.29245 12.9276C-5.99709 12.8053 -5.70923 12.6519 -5.40244 12.5774C-5.27703 12.547 -5.08815 12.7667 -4.96827 12.7328C-4.79398 12.6835 -4.65872 12.381 -4.45012 12.631C-4.2561 12.8633 -4.1654 12.5104 -4.07195 12.5861C-3.98203 12.6594 -3.9639 12.8207 -3.91382 12.9437C-3.18745 12.7123 -3.18745 12.7123 -3.01196 12.0703C-2.82623 12.1586 -2.63025 12.219 -2.47567 12.3349C-2.33963 12.4362 -2.24932 12.5999 -2.15153 12.7202C-2.03362 12.525 -1.91255 12.3238 -1.79583 12.1306C-0.285522 12.5289 -0.172745 12.497 0.365524 11.5052H1.09466C1.14237 11.6062 1.2094 11.7493 1.28709 11.9145C1.42235 11.3743 1.42235 11.3743 1.96574 11.0766C2.19564 11.015 1.78593 11.6535 2.27608 11.3483C2.54147 11.183 2.8455 11.1862 3.15308 11.3786C3.2915 11.4654 3.55137 11.4421 3.72173 11.3778C4.06007 11.2497 4.54549 11.2536 4.48122 10.6519C4.46978 10.5485 4.64841 10.3608 4.9347 10.5588C5.21271 10.7504 5.64175 10.724 6.07513 10.8068C6.01163 10.6191 5.95052 10.4381 5.87165 10.2039C6.47419 10.4216 6.97145 10.5659 7.43479 10.0674C7.58307 9.90774 7.7964 10.2611 8.11661 10.0667C8.5555 9.7997 9.14622 9.78313 9.74521 9.64196C9.76138 9.53549 9.79135 9.33832 9.81935 9.15495C9.8718 9.13011 9.90334 9.10014 9.93134 9.10369C10.19 9.13524 11.1968 8.98105 11.4933 8.88957C12.0036 8.73302 12.519 8.59184 13.0352 8.45698C15.4505 7.82643 17.7652 6.87845 20.1549 6.18166C21.8525 5.68677 23.5509 5.17728 25.2754 4.75613C26.7261 4.40202 28.1868 4.03489 29.6202 3.58337C30.4207 3.331 31.2736 3.24622 32.1006 3.07586C32.3616 3.02184 32.6124 2.91852 32.8734 2.86726C33.3068 2.78169 33.7453 2.72017 34.1815 2.6484C34.618 2.57663 35.0731 2.56125 35.4867 2.42166C36.4185 2.10737 37.4142 2.1472 38.3528 1.81911C38.8796 1.63496 39.5062 1.79585 40.0878 1.59197C40.563 1.42596 41.1723 1.56043 41.5855 1.32343C42.0647 1.04897 42.5733 1.20158 43.0623 0.974837C43.5493 0.749277 44.2067 0.938558 44.7887 0.739812C45.0182 0.66134 45.3723 0.849044 45.6334 0.984695C46.0052 1.17831 46.3274 1.25284 46.6677 0.933826C46.8215 0.789499 48.7076 0.0339501 48.7798 0.104142C49.1797 0.494141 49.5267 0.141604 50.0046 -0.00390625C49.9478 0.229147 49.9163 0.370713 49.878 0.510309C49.8465 0.626638 49.8071 0.740996 49.7499 0.923179C50.2444 0.760712 50.2598 0.418823 50.2073 0.0386821C50.4092 0.155011 50.5744 0.300127 50.6206 0.26858C50.8678 0.10217 51.0614 0.174334 51.3201 0.257539C51.4999 0.315112 51.7511 0.123859 51.9771 0.0729894C52.1135 0.0422311 52.2661 0.0473575 52.4053 0.0718064C52.61 0.10848 52.7685 0.488226 53.0185 0.162898C53.2559 -0.145867 53.4637 0.35494 53.6057 0.204698C54.0111 -0.222763 54.3056 0.271735 54.6471 0.303282C54.9366 0.330097 55.3144 0.383727 55.3924 0.81592C55.3999 0.858508 55.6582 0.920419 55.7355 0.871521C55.8846 0.777274 56.0084 0.609287 56.1835 0.772542C56.6606 1.21893 57.3641 1.27769 57.8255 1.75286C57.9367 1.86762 58.1165 1.99775 58.2553 1.98749C58.5759 1.96423 58.7076 2.19531 58.85 2.37315C59.0519 2.62632 59.2652 2.84912 59.5255 3.04432C59.7995 3.24937 59.9766 3.51713 60.408 3.54473C60.7377 3.56563 60.9112 4.04909 61.3098 4.19538C62.4388 4.60983 63.4811 5.24747 64.459 5.91272C65.4137 6.5618 66.4197 7.16119 67.2919 7.95578C67.831 8.44712 68.4024 8.91323 68.9292 9.42547C69.7743 10.2473 70.3461 11.2883 71.0996 12.1736C72.1474 13.4039 72.748 14.8539 73.4456 16.2656C74.0706 17.5303 74.4503 18.8647 74.7721 20.2394C74.9693 21.0828 74.944 21.9902 75.3786 22.7781C75.394 22.8057 75.3861 22.8499 75.3798 22.8846C75.2197 23.7355 75.631 24.5341 75.6018 25.3768C75.5734 26.2002 75.6156 27.0263 75.586 27.8497C75.5738 28.1805 75.4318 28.5047 75.3865 28.8371C75.3455 29.1407 75.3746 29.427 75.1921 29.731C75.0548 29.9602 75.1294 30.308 74.9799 30.6084C74.8912 30.7859 75.1116 31.1049 75.1609 31.366C75.2149 31.655 75.1936 31.9267 74.7969 31.9468C74.7153 32.5269 74.2346 32.9835 74.1526 33.4981C73.9905 34.5112 73.1975 35.1894 72.972 36.1378C72.4861 36.4237 72.5993 37.0704 72.1545 37.4281C71.8067 37.7077 71.6478 38.2128 71.3698 38.5914C71.063 39.0094 70.7148 39.397 70.3875 39.8C70.324 39.8781 70.2124 39.9818 70.2281 40.0496C70.3701 40.6707 69.8823 40.9345 69.5479 41.2788C68.9978 41.8439 68.4552 42.4188 67.8724 42.9488C66.8771 43.8534 65.8672 44.7375 64.7307 45.4769C63.9835 45.9627 63.3773 46.6828 62.6037 47.1083C61.7432 47.5819 60.9664 48.1655 60.1371 48.6754C59.0854 49.3217 57.9982 49.9053 56.9209 50.5071C55.7856 51.1415 54.6085 51.6924 53.4819 52.3372C52.8135 52.7197 52.1971 53.224 51.4901 53.5005C50.5129 53.8822 49.6828 54.5033 48.777 54.993C47.6536 55.6007 46.6259 56.3862 45.5596 57.0988C44.6424 57.7116 43.9263 58.5464 43.1349 59.2992C42.8111 59.6072 42.5307 59.9463 42.1009 60.1667C41.7224 60.3615 41.4432 60.7602 41.2429 61.1877C40.8477 62.0292 40.4479 62.8699 40.1982 63.765C40.0973 64.1274 40.1576 64.532 40.0973 64.9098C40.0512 65.1981 40.3508 65.6583 39.7448 65.7273C39.7073 65.7316 39.6793 65.9785 39.6785 66.1129C39.6718 66.8653 39.6868 67.6185 39.671 68.3709C39.6608 68.8595 40.0508 69.2802 39.8903 69.7874C40.3304 70.2192 40.0038 70.8327 40.2846 71.3497C40.5291 71.7997 40.4238 72.427 40.5457 72.9594C40.7018 73.6396 41.0591 74.2966 41.0954 74.9764C41.1383 75.7848 41.5658 76.4493 41.6904 77.223C41.804 77.9288 42.2792 78.5767 42.3935 79.283C42.5457 80.2215 42.8545 81.1017 43.1049 82.0051C43.1305 82.0985 42.9909 82.2374 42.9188 82.373C43.0209 82.4081 43.1459 82.4511 43.3025 82.5047C43.3368 83.168 43.4653 83.8234 43.713 84.4614C43.8096 84.7102 43.7268 85.0237 43.769 85.301C43.8088 85.5628 43.9385 85.8124 43.9685 86.0742C44.0032 86.381 43.9965 86.6697 44.1759 86.9619C44.3266 87.2064 44.3845 87.536 44.394 87.831C44.4046 88.1512 44.4563 88.4407 44.6231 88.7088C44.7796 88.9604 44.2086 89.2317 44.6621 89.4872C44.9796 89.6666 44.7162 90.0574 44.8534 90.2597C45.1799 90.7424 45.0612 91.3114 45.2292 91.8256C45.3368 92.1565 45.4122 92.5425 45.4749 92.9081C45.5368 93.2681 45.3798 93.6652 45.6657 93.9874C45.3183 94.1716 45.6921 94.3076 45.7048 94.4673C45.7178 94.6306 45.8065 94.7867 45.827 94.9504C45.8515 95.142 45.8444 95.3384 45.8388 95.532C45.8365 95.6085 45.7631 95.7335 45.788 95.7532C46.355 96.2028 46.0557 96.9221 46.3231 97.4733C46.4457 97.7261 46.4386 98.0558 46.523 98.3527C46.6397 98.7648 46.8795 99.1725 46.7915 99.6548C46.7545 99.8563 46.8665 100.132 46.9994 100.307C47.2375 100.621 47.2159 100.96 47.1985 101.301C47.1725 101.818 47.2648 101.794 47.3878 102.35C47.5049 102.88 47.8271 103.353 47.8318 103.886C47.8365 104.368 48.4229 104.839 47.8843 105.343C47.8791 105.348 48.0432 105.534 48.1288 105.635C48.3512 105.896 48.3224 106.228 48.4079 106.527C48.5176 106.91 48.5247 107.227 48.305 107.563C48.4288 107.591 48.5262 107.614 48.624 107.636C48.6497 107.661 48.6938 107.684 48.6974 107.712C48.7755 108.326 48.8425 108.941 48.9265 109.555C49.0006 110.098 48.736 110.674 49.1276 111.195C49.2554 111.366 48.783 111.613 49.1209 111.891C49.195 111.952 49.0361 112.296 48.9841 112.511C49.1047 112.553 49.2293 112.596 49.3488 112.638C49.3173 113.255 48.6394 113.76 49.1067 114.421C48.7747 114.558 48.2368 114.459 48.2885 115.136C48.4817 115.041 48.6185 114.974 48.7455 114.912C48.8185 114.966 48.9186 115.009 48.9166 115.046C48.9032 115.286 48.8685 115.525 48.8397 115.764C48.8303 115.84 48.7968 115.979 48.8094 115.983C49.3615 116.168 48.7826 116.662 49.1075 116.996C49.4036 117.302 49.0089 117.788 48.889 118.157C48.7786 118.495 48.7396 118.814 48.7037 119.154C48.6536 119.628 48.6824 120.165 48.4624 120.553C48.2293 120.963 48.4119 121.389 48.2202 121.747C48.0258 122.11 47.7805 122.442 47.8488 122.885C47.3448 123.462 47.3878 124.275 46.98 124.888C46.9 125.009 46.7107 125.056 46.564 125.141V126.203C46.2793 126.372 45.8952 126.436 45.898 126.879C45.3767 127.16 46.0581 127.475 45.8637 127.797C45.7765 127.805 45.6405 127.859 45.588 127.814C45.4504 127.697 45.3716 127.58 45.1925 127.784C45.0671 127.928 45.1424 127.968 45.1929 128.102C45.325 128.454 45.0352 128.946 44.9713 128.882C44.5687 128.475 44.5308 129.001 44.3423 129.093C44.2686 129.129 44.1834 129.274 44.2012 129.344C44.3687 130.01 43.8265 130.176 43.4342 130.407C42.3115 131.067 42.304 131.054 41.3962 131.089C41.3962 131.291 41.3682 131.503 41.4025 131.703C41.4542 132.003 41.3008 132.197 41.0883 132.325C40.4309 132.721 39.7775 133.133 39.085 133.459C38.4281 133.769 37.7404 134.112 37.0357 134.201C35.9836 134.334 34.9997 134.801 33.905 134.729C32.8699 134.662 31.8269 134.705 30.7874 134.718C29.6805 134.731 28.643 134.398 27.5834 134.149C26.8614 133.979 26.1796 133.757 25.5049 133.446C25.0861 133.253 24.6003 133.124 24.0971 133.205C23.4251 133.313 22.8254 133.039 22.2339 132.777C20.6171 132.063 19.4041 131.178 18.0342 130.188C17.3342 129.682 16.6094 129.227 16.0053 128.59C15.0088 127.54 14.3211 126.384 13.6318 124.73C13.2753 123.874 12.7883 123.06 12.2765 122.282C11.2843 120.775 10.6577 119.328 9.73969 117.418C8.97428 115.825 8.41512 114.162 7.76682 112.534C7.42612 111.678 7.04204 110.826 6.74826 109.942C6.45684 109.065 6.15083 108.193 5.63031 107.388C5.31997 106.907 5.13345 106.299 4.81798 105.799C4.22923 104.864 3.79901 103.854 3.32896 102.864C2.75994 101.666 2.13373 100.484 1.64278 99.2613C1.20467 98.1697 0.513008 97.2308 0.0776596 96.1448C-0.353355 95.0698 -0.944069 94.058 -1.47958 93.0264C-1.99142 92.0402 -2.66259 91.2117 -3.73006 90.7645C-4.37125 90.4959 -4.93909 90.1059 -5.37207 89.5416Z" fill="#00E2C7"/>
</svg>
