<svg width="100%" height="100%" viewBox="0 0 1440 1023" fill="none" xmlns="http://www.w3.org/2000/svg" preserveAspectRatio="none">
<path d="M1440 476C1440 251.611 1440 139.417 1370.29 69.7086C1300.58 0 1188.39 0 964 0H0V547C0 771.389 0 883.583 69.7086 953.291C139.417 1023 251.611 1023 476 1023H1440V476Z" fill="#CAFEE8"/>
<path d="M1051 60C1207.51 60 1285.76 59.9998 1334.38 108.62C1383 157.24 1383 235.494 1383 392V631C1383 787.506 1383 865.76 1334.38 914.38C1285.76 963 1207.51 963 1051 963H389C232.494 963 154.24 963 105.62 914.38C56.9998 865.76 57 787.506 57 631V392C57 235.494 56.9998 157.24 105.62 108.62C154.24 59.9998 232.494 60 389 60H1051Z" fill="#FEFEFE"/>
<path d="M1051 60C1207.51 60 1285.76 59.9998 1334.38 108.62C1383 157.24 1383 235.494 1383 392V631C1383 787.506 1383 865.76 1334.38 914.38C1285.76 963 1207.51 963 1051 963H389C232.494 963 154.24 963 105.62 914.38C56.9998 865.76 57 787.506 57 631V392C57 235.494 56.9998 157.24 105.62 108.62C154.24 59.9998 232.494 60 389 60H1051Z" stroke="#6F0D96"/>
</svg>
