<?xml version="1.0" standalone="no"?>
<svg xmlns:xlink="http://www.w3.org/1999/xlink" id="wave" style="transform:rotate(0deg); transition: 0.3s" viewBox="0 0 1440 300" version="1.1" xmlns="http://www.w3.org/2000/svg"><defs><linearGradient id="sw-gradient-0" x1="0" x2="0" y1="1" y2="0"><stop stop-color="rgba(0, 0, 0, 1)" offset="0%"/><stop stop-color="rgba(0, 0, 0, 1)" offset="100%"/></linearGradient></defs><path style="transform:translate(0, 0px); opacity:1" fill="url(#sw-gradient-0)" d="M0,150L80,130C160,110,320,70,480,85C640,100,800,170,960,195C1120,220,1280,200,1440,180C1600,160,1760,140,1920,140C2080,140,2240,160,2400,180C2560,200,2720,220,2880,200C3040,180,3200,120,3360,90C3520,60,3680,60,3840,90C4000,120,4160,180,4320,170C4480,160,4640,80,4800,80C4960,80,5120,160,5280,180C5440,200,5600,160,5760,155C5920,150,6080,180,6240,165C6400,150,6560,90,6720,85C6880,80,7040,130,7200,125C7360,120,7520,60,7680,30C7840,0,8000,0,8160,5C8320,10,8480,20,8640,60C8800,100,8960,170,9120,180C9280,190,9440,140,9600,120C9760,100,9920,110,10080,110C10240,110,10400,100,10560,85C10720,70,10880,50,11040,45C11200,40,11360,50,11440,55L11520,60L11520,300L11440,300C11360,300,11200,300,11040,300C10880,300,10720,300,10560,300C10400,300,10240,300,10080,300C9920,300,9760,300,9600,300C9440,300,9280,300,9120,300C8960,300,8800,300,8640,300C8480,300,8320,300,8160,300C8000,300,7840,300,7680,300C7520,300,7360,300,7200,300C7040,300,6880,300,6720,300C6560,300,6400,300,6240,300C6080,300,5920,300,5760,300C5600,300,5440,300,5280,300C5120,300,4960,300,4800,300C4640,300,4480,300,4320,300C4160,300,4000,300,3840,300C3680,300,3520,300,3360,300C3200,300,3040,300,2880,300C2720,300,2560,300,2400,300C2240,300,2080,300,1920,300C1760,300,1600,300,1440,300C1280,300,1120,300,960,300C800,300,640,300,480,300C320,300,160,300,80,300L0,300Z"/></svg>