<svg width="1440" height="693" viewBox="0 0 1440 693" fill="none" xmlns="http://www.w3.org/2000/svg">
<g clip-path="url(#clip0_271_4161)">
<path d="M0 3C0 3 0 3 720 3C1440 3.00001 1440 3 1440 3C1440 243.911 1440 337.231 1440 578.142C1440 578.142 1235 647.572 686.5 578.142C138 508.713 0 600.327 0 600.327V3Z" fill="#502974"/>
<path d="M0 4.3053e-06C0 4.3053e-06 0 -2.70037e-06 720 1.16151e-06C1440 5.02338e-06 1440 4.3053e-06 1440 4.3053e-06C1440 221.624 1440 307.473 1440 529.097C1440 529.097 1282 667.782 855.5 562.591C429 457.399 0 588.725 0 588.725V4.3053e-06Z" fill="#331251"/>
<g filter="url(#filter0_d_271_4161)">
<path d="M986.793 504.487C921.377 478.841 870.754 424.116 836.719 364.192C790.859 284.012 805.869 187.588 874.887 124.831C966.549 41.3784 1112.92 38.6634 1216.46 100.456L1216.46 100.457C1296.95 148.385 1329.98 241.056 1309.3 331.536L1309.3 331.537C1298.03 380.673 1271.44 425.566 1235.94 461.03C1220.09 477.055 1199.55 497.114 1177.78 505.238L1177.78 505.239C1164.91 510.004 1150.41 512.145 1135.83 513.524C1121.18 514.909 1106.56 515.521 1093.11 517.22C1056.84 521.803 1020.91 517.876 986.793 504.487Z" stroke="white" stroke-width="2.12766" shape-rendering="crispEdges"/>
</g>
<g filter="url(#filter1_d_271_4161)">
<path d="M1100.03 514.584C1031.48 519.071 963.813 491.621 908.512 452.53H908.511C833.645 399.949 806.055 306.517 840.813 220.206C886.934 105.475 1016.03 40.0035 1134.42 51.167V51.168C1225.7 59.6806 1294.09 128.046 1314.71 217.515L1315.19 219.633C1326.03 268.802 1321.44 320.741 1304.91 368.008C1297.61 389.287 1287.85 416.223 1271.93 432.923L1271.93 432.925C1262.5 442.763 1250.51 450.935 1238.12 458.457C1225.67 466.016 1212.92 472.86 1201.68 480.182L1200.25 481.102C1170.3 500.3 1137.14 511.902 1101.65 514.472L1100.03 514.584Z" stroke="white" stroke-width="2.12766" shape-rendering="crispEdges"/>
</g>
<g filter="url(#filter2_d_271_4161)">
<path d="M1076.55 514.824C1006.47 519.856 937.21 492.273 880.683 452.854C804.758 400.248 776.77 306.761 812.025 220.396C858.802 105.6 989.727 40.1019 1109.79 51.27V51.271C1203.07 59.8539 1272.8 129.26 1293.11 219.823L1293.11 219.824C1304.1 269.022 1299.44 320.991 1282.68 368.286C1275.28 389.577 1265.38 416.528 1249.23 433.237L1249.23 433.239C1239.67 443.082 1227.51 451.257 1214.95 458.783C1202.32 466.345 1189.39 473.194 1177.98 480.52C1147.23 500.277 1113.11 512.213 1076.55 514.824Z" stroke="white" stroke-width="2.12766" shape-rendering="crispEdges"/>
</g>
<path d="M-9.72561 274.534C-3.95901 269.696 11.7599 260.13 28.503 260.572L48.3158 312.27C48.1991 312.295 48.0802 312.32 47.9594 312.345M-9.72561 274.534L6.69932 325.337M-9.72561 274.534C-11.3515 275.692 -14.5798 278.557 -14.4864 280.758L1.77292 330.656M6.69932 325.337C3.94938 326.611 2.26925 329.414 1.77292 330.656M6.69932 325.337C18.7141 319.371 38.9708 314.245 47.9594 312.345M1.77292 330.656L44.6578 318.002C44.9898 316.819 46.1149 314.032 47.9594 312.345" stroke="white" stroke-opacity="0.71" stroke-width="1.36627"/>
<path d="M2.62708 283.919L2.76537 284.367L1.36379 284.8L1.2255 284.352L2.62708 283.919ZM0.688798 281.958L1.54927 284.742L0.97563 284.92L0.115161 282.136L0.688798 281.958ZM3.31368 281.147L4.17415 283.931L3.60242 284.108L2.74196 281.324L3.31368 281.147ZM5.50834 280.469L6.3688 283.253L5.79708 283.43L4.93661 280.646L5.50834 280.469ZM6.36496 280.204L6.50385 280.653L4.23225 281.355L4.09337 280.906L6.36496 280.204ZM9.75218 281.717L9.89047 282.164L8.40858 282.622L8.27029 282.175L9.75218 281.717ZM7.7355 279.78L8.59596 282.565L8.02233 282.742L7.16186 279.958L7.7355 279.78ZM9.18733 280.574L9.32207 281.01L8.0333 281.408L7.89856 280.972L9.18733 280.574ZM9.02809 279.381L9.16697 279.83L7.68699 280.288L7.54811 279.838L9.02809 279.381ZM9.83455 279.132L10.8728 278.811C11.0857 278.745 11.2785 278.72 11.4512 278.737C11.6251 278.753 11.7728 278.811 11.8943 278.91C12.0157 279.009 12.1046 279.15 12.161 279.332C12.2071 279.481 12.2212 279.617 12.2033 279.74C12.1863 279.861 12.1429 279.972 12.0732 280.072C12.0044 280.17 11.9152 280.259 11.8059 280.339L11.6538 280.49L10.7513 280.769L10.6091 280.323L11.2803 280.116C11.381 280.084 11.459 280.041 11.5142 279.985C11.5695 279.928 11.6038 279.863 11.6173 279.789C11.632 279.715 11.6264 279.636 11.6004 279.552C11.5728 279.462 11.5324 279.39 11.4791 279.336C11.4259 279.281 11.3602 279.247 11.282 279.233C11.2038 279.22 11.1137 279.229 11.0117 279.26L10.5471 279.404L11.2686 281.738L10.695 281.916L9.83455 279.132ZM12.2515 281.435L11.2331 280.39L11.8381 280.199L12.857 281.218L12.8653 281.245L12.2515 281.435ZM14.0923 278.337L14.0484 280.879L13.4384 281.068L13.6124 277.964L14.0006 277.844L14.0923 278.337ZM15.4347 280.451L13.9623 278.378L13.7539 277.92L14.1459 277.799L16.0466 280.262L15.4347 280.451ZM15.08 279.425L15.2189 279.874L13.7484 280.329L13.6096 279.88L15.08 279.425ZM16.9219 276.941L17.7823 279.725L17.2106 279.902L16.3501 277.118L16.9219 276.941ZM17.7785 276.676L17.9174 277.126L15.6458 277.828L15.5069 277.379L17.7785 276.676ZM20.1127 275.955L20.6845 275.778L21.253 277.618C21.3192 277.832 21.329 278.026 21.2825 278.201C21.2374 278.376 21.1459 278.525 21.0081 278.649C20.8716 278.772 20.6995 278.866 20.4917 278.93C20.2839 278.994 20.0876 279.014 19.9029 278.99C19.7194 278.966 19.5591 278.895 19.4221 278.776C19.2862 278.658 19.1852 278.491 19.119 278.277L18.5505 276.438L19.1242 276.261L19.6927 278.1C19.7313 278.225 19.7826 278.321 19.8465 278.388C19.9105 278.454 19.9851 278.495 20.0705 278.509C20.1571 278.523 20.2514 278.514 20.3534 278.482C20.4579 278.45 20.5408 278.404 20.602 278.345C20.6646 278.285 20.7027 278.21 20.7165 278.119C20.7316 278.027 20.7199 277.919 20.6813 277.794L20.1127 275.955ZM21.6267 275.487L22.6649 275.166C22.8778 275.1 23.0706 275.076 23.2433 275.092C23.4172 275.108 23.5649 275.166 23.6864 275.265C23.8079 275.365 23.8968 275.505 23.9531 275.688C23.9992 275.837 24.0133 275.973 23.9954 276.096C23.9784 276.217 23.935 276.327 23.8653 276.427C23.7965 276.525 23.7074 276.614 23.598 276.694L23.4459 276.846L22.5434 277.125L22.4013 276.678L23.0724 276.471C23.1731 276.44 23.2511 276.396 23.3064 276.34C23.3616 276.284 23.396 276.219 23.4094 276.145C23.4241 276.07 23.4185 275.991 23.3925 275.907C23.3649 275.818 23.3245 275.746 23.2713 275.691C23.218 275.636 23.1523 275.602 23.0741 275.589C22.9959 275.575 22.9058 275.584 22.8038 275.616L22.3392 275.759L23.0608 278.094L22.4871 278.271L21.6267 275.487ZM24.0436 277.79L23.0252 276.745L23.6302 276.554L24.6491 277.574L24.6574 277.6L24.0436 277.79ZM27.1956 276.326L27.3339 276.773L25.852 277.231L25.7137 276.784L27.1956 276.326ZM25.1789 274.389L26.0394 277.173L25.4658 277.351L24.6053 274.566L25.1789 274.389ZM26.6308 275.183L26.7655 275.619L25.4767 276.017L25.342 275.581L26.6308 275.183ZM26.4715 273.99L26.6104 274.439L25.1304 274.896L24.9915 274.447L26.4715 273.99Z" fill="white" fill-opacity="0.71"/>
<path d="M67.4164 -12.7699C67.4164 -14.933 65.6628 -16.6865 63.4997 -16.6865C61.3366 -16.6865 59.5831 -14.933 59.5831 -12.7699V-8.47619L57.4617 -12.2092C56.393 -14.0899 54.002 -14.7481 52.1214 -13.6794C50.2407 -12.6106 49.5825 -10.2197 50.6512 -8.33901L53.0652 -4.09106L48.8172 -6.50505C46.9366 -7.57377 44.5456 -6.91556 43.4769 -5.0349C42.4082 -3.15424 43.0664 -0.763285 44.947 0.30544L48.6801 2.42681H44.3864C42.2233 2.42681 40.4697 4.18036 40.4697 6.34347C40.4697 8.50659 42.2233 10.2601 44.3864 10.2601H48.6801L44.947 12.3815C43.0664 13.4502 42.4082 15.8412 43.4769 17.7218C44.5456 19.6025 46.9366 20.2607 48.8172 19.192L53.0652 16.778L50.6512 21.026C49.5825 22.9066 50.2407 25.2976 52.1214 26.3663C54.002 27.435 56.393 26.7768 57.4617 24.8961L59.5831 21.1631V25.4568C59.5831 27.6199 61.3366 29.3735 63.4997 29.3735C65.6628 29.3735 67.4164 27.6199 67.4164 25.4568V21.1631L69.5378 24.8961C70.6065 26.7768 72.9974 27.435 74.8781 26.3663C76.7588 25.2976 77.417 22.9066 76.3482 21.026L73.9343 16.778L78.1822 19.192C80.0629 20.2607 82.4538 19.6025 83.5226 17.7218C84.5913 15.8412 83.9331 13.4502 82.0524 12.3815L78.3194 10.2601H82.6131C84.7762 10.2601 86.5297 8.50659 86.5297 6.34347C86.5297 4.18036 84.7762 2.42681 82.6131 2.42681H78.3194L82.0524 0.30544C83.9331 -0.763285 84.5913 -3.15424 83.5226 -5.0349C82.4538 -6.91556 80.0629 -7.57377 78.1822 -6.50505L73.9343 -4.09106L76.3482 -8.33901C77.417 -10.2197 76.7588 -12.6106 74.8781 -13.6794C72.9974 -14.7481 70.6065 -14.0899 69.5378 -12.2092L67.4164 -8.47619V-12.7699Z" fill="#591F88"/>
<path fill-rule="evenodd" clip-rule="evenodd" d="M1320.74 68.9023C1312.93 71.3368 1309.19 80.8694 1311.55 92.2537C1312.31 95.8542 1315.29 95.9571 1318.93 93.694C1322.77 91.2592 1327.29 86.1501 1330.62 79.6007C1334.19 72.5027 1328.6 66.4334 1320.74 68.9023ZM1324.41 72.0569C1328.29 74.3543 1327.29 78.2977 1320.81 85.8757L1317.04 90.2993L1316.94 86.9731C1316.63 76.446 1320.09 69.4852 1324.41 72.0569ZM1343 75.2802C1337.68 77.7491 1329.56 88.3103 1329.56 92.7681C1329.56 95.6828 1331.65 95.5799 1341.93 92.1508C1350.06 89.442 1353.97 87.8988 1355.72 85.7386C1361.51 78.6406 1351.71 71.234 1343 75.2802ZM1351.02 78.5035C1352.84 81.2809 1348.38 87.0074 1343.07 88.7561C1338.71 90.1964 1335.73 90.9849 1336.04 90.5393C1336.21 90.3336 1337.27 88.9276 1338.4 87.4189C1343.75 80.3208 1349.55 76.2403 1351.02 78.5035ZM1330.72 99.7631C1323.21 101.066 1320.5 106.21 1329.52 109.296C1331.1 109.844 1334.49 111.422 1337.07 112.793C1344.58 116.874 1348.31 116.942 1351.47 113.102C1353.9 110.153 1353.28 105.421 1350.95 101.924C1345.23 93.3168 1334.77 99.0432 1330.72 99.7631ZM1348.07 103.295C1350.03 104.29 1349.96 106.553 1347.9 108.85C1345.12 111.936 1342.79 111.765 1336.17 107.959L1331.37 105.215C1332.13 105.078 1334.84 104.632 1339.36 103.569C1343.51 102.541 1346.43 102.472 1348.07 103.295Z" fill="white"/>
<path d="M766.267 -3.54566C781.683 -3.05453 793 -1.42931 793 0.499879C793 2.42907 781.683 4.05429 766.267 4.54542C776.82 15.7935 783.674 24.9451 782.309 26.3093C780.945 27.6734 771.794 20.8202 760.546 10.2667C760.054 25.6827 758.429 36.9999 756.5 36.9999C754.571 36.9999 752.946 25.6827 752.454 10.2667C741.206 20.8202 732.055 27.6734 730.691 26.3093C729.326 24.9451 736.18 15.7935 746.733 4.54542C731.317 4.05428 720 2.42906 720 0.499875C720 -1.42931 731.317 -3.05453 746.733 -3.54566C736.18 -14.7937 729.326 -23.9454 730.691 -25.3095C732.055 -26.6737 741.206 -19.8204 752.454 -9.2669C752.946 -24.6829 754.571 -36.0001 756.5 -36.0001C758.429 -36.0001 760.054 -24.683 760.546 -9.26694C771.794 -19.8204 780.945 -26.6737 782.309 -25.3095C783.674 -23.9454 776.82 -14.7937 766.267 -3.54566Z" fill="#DDD6F1"/>
<circle cx="11.0361" cy="11.0361" r="9.69837" transform="matrix(-0.857907 -0.513805 -0.513805 0.857907 1297.89 553.4)" stroke="#895BAE" stroke-width="2.67541"/>
<circle cx="11.0361" cy="11.0361" r="9.69837" transform="matrix(-0.857907 -0.513805 -0.513805 0.857907 1270.59 549.522)" stroke="#895BAE" stroke-width="2.67541"/>
<circle cx="7.02296" cy="7.02296" r="5.68525" transform="matrix(-0.857907 -0.513805 -0.513805 0.857907 1249.27 569.5)" stroke="#895BAE" stroke-width="2.67541"/>
<circle cx="8.37388" cy="8.37388" r="7.35887" transform="matrix(-0.966622 -0.256208 -0.256208 0.966622 63.1035 532.232)" stroke="#895BAE" stroke-width="2.03003"/>
<circle cx="8.37388" cy="8.37388" r="7.35887" transform="matrix(-0.966622 -0.256208 -0.256208 0.966622 42.3809 535.14)" stroke="#895BAE" stroke-width="2.03003"/>
<circle cx="5.32884" cy="5.32884" r="4.31382" transform="matrix(-0.966622 -0.256208 -0.256208 0.966622 31.0332 554.185)" stroke="#895BAE" stroke-width="2.03003"/>
<path d="M1400.15 310.552C1400.46 310.393 1400.82 310.408 1401.12 310.592L1425.23 325.868C1425.52 326.052 1425.69 326.377 1425.68 326.721C1425.66 327.064 1425.47 327.374 1425.16 327.534L1399.87 340.78C1399.57 340.94 1399.2 340.925 1398.91 340.741C1398.62 340.557 1398.45 340.231 1398.47 339.888L1399.64 311.366L1399.65 311.238C1399.7 310.947 1399.89 310.692 1400.15 310.552Z" stroke="#502974" stroke-width="1.92528" stroke-linejoin="round"/>
<rect x="1412.58" y="341.657" width="29.6686" height="19.4943" transform="rotate(-28.7902 1412.58 341.657)" stroke="#502974" stroke-width="1.92528" stroke-linejoin="round"/>
<circle cx="1430.22" cy="310.696" r="9.73337" stroke="#502974" stroke-width="1.92528"/>
<path d="M653.13 142.791C654.304 142.791 656.21 143.713 655.65 146.863C655.483 147.799 655.584 148.153 655.207 149.123C655.007 149.638 654.78 150.153 654.505 150.648C654.233 151.137 653.938 151.616 653.601 152.062C652.662 153.313 651.47 154.486 650.137 155.561C648.31 157.033 646.252 158.346 644.327 159.425C639.851 162.293 635.241 164.418 630.384 165.821C625.563 167.214 620.505 167.87 615.127 167.918C612.693 167.896 610.065 167.827 607.557 167.405C605.733 167.099 603.97 166.607 602.369 165.844C600.817 165.104 599.454 164.139 598.239 163.029C596.467 161.41 595.015 159.483 593.744 157.55C593.098 156.571 592.975 153.305 593.955 152.659C594.934 152.012 596.255 152.282 596.901 153.262C597.816 154.642 598.829 156.026 600.027 157.249C601.111 158.355 602.349 159.328 603.817 160.022C605.068 160.614 606.45 160.976 607.874 161.213C610.159 161.592 612.553 161.643 614.771 161.66C619.77 161.789 624.482 161.305 629.016 160.205C633.619 159.088 638.043 157.358 642.371 154.893C644.069 153.787 645.897 152.48 647.466 151.003C648.477 150.051 649.355 149.015 650.024 147.938C650.443 146.771 650.776 145.67 651.037 144.486C651.353 143.053 652.5 142.791 653.13 142.791Z" fill="#895BAE"/>
<path fill-rule="evenodd" clip-rule="evenodd" d="M636.974 128.178C638.224 128.712 638.145 131.196 638.259 132.342C638.617 135.917 638.885 140.237 637.702 143.678C637.253 144.983 635.805 147.967 633.91 147.438C632.795 147.127 632.204 145.077 631.918 144.141C630.792 140.461 631.928 136.994 632.111 133.21C632.257 130.163 633.464 126.679 636.974 128.178Z" fill="#895BAE"/>
<path fill-rule="evenodd" clip-rule="evenodd" d="M612.016 128.178C610.766 128.712 610.846 131.196 610.731 132.342C610.374 135.917 610.105 140.237 611.289 143.678C611.737 144.983 613.185 147.967 615.08 147.438C616.195 147.127 616.786 145.077 617.072 144.141C618.198 140.461 617.062 136.994 616.88 133.21C616.733 130.163 615.526 126.679 612.016 128.178Z" fill="#895BAE"/>
</g>
<defs>
<filter id="filter0_d_271_4161" x="756.171" y="3.44633" width="613.4" height="569.861" filterUnits="userSpaceOnUse" color-interpolation-filters="sRGB">
<feFlood flood-opacity="0" result="BackgroundImageFix"/>
<feColorMatrix in="SourceAlpha" type="matrix" values="0 0 0 0 0 0 0 0 0 0 0 0 0 0 0 0 0 0 127 0" result="hardAlpha"/>
<feOffset/>
<feGaussianBlur stdDeviation="26.5957"/>
<feComposite in2="hardAlpha" operator="out"/>
<feColorMatrix type="matrix" values="0 0 0 0 1 0 0 0 0 1 0 0 0 0 1 0 0 0 0.15 0"/>
<feBlend mode="normal" in2="BackgroundImageFix" result="effect1_dropShadow_271_4161"/>
<feBlend mode="normal" in="SourceGraphic" in2="effect1_dropShadow_271_4161" result="shape"/>
</filter>
<filter id="filter1_d_271_4161" x="771.681" y="-4.31857" width="603.639" height="573.638" filterUnits="userSpaceOnUse" color-interpolation-filters="sRGB">
<feFlood flood-opacity="0" result="BackgroundImageFix"/>
<feColorMatrix in="SourceAlpha" type="matrix" values="0 0 0 0 0 0 0 0 0 0 0 0 0 0 0 0 0 0 127 0" result="hardAlpha"/>
<feOffset/>
<feGaussianBlur stdDeviation="26.5957"/>
<feComposite in2="hardAlpha" operator="out"/>
<feColorMatrix type="matrix" values="0 0 0 0 1 0 0 0 0 1 0 0 0 0 1 0 0 0 0.15 0"/>
<feBlend mode="normal" in2="BackgroundImageFix" result="effect1_dropShadow_271_4161"/>
<feBlend mode="normal" in="SourceGraphic" in2="effect1_dropShadow_271_4161" result="shape"/>
</filter>
<filter id="filter2_d_271_4161" x="742.681" y="-4.21603" width="610.639" height="573.888" filterUnits="userSpaceOnUse" color-interpolation-filters="sRGB">
<feFlood flood-opacity="0" result="BackgroundImageFix"/>
<feColorMatrix in="SourceAlpha" type="matrix" values="0 0 0 0 0 0 0 0 0 0 0 0 0 0 0 0 0 0 127 0" result="hardAlpha"/>
<feOffset/>
<feGaussianBlur stdDeviation="26.5957"/>
<feComposite in2="hardAlpha" operator="out"/>
<feColorMatrix type="matrix" values="0 0 0 0 1 0 0 0 0 1 0 0 0 0 1 0 0 0 0.15 0"/>
<feBlend mode="normal" in2="BackgroundImageFix" result="effect1_dropShadow_271_4161"/>
<feBlend mode="normal" in="SourceGraphic" in2="effect1_dropShadow_271_4161" result="shape"/>
</filter>
<clipPath id="clip0_271_4161">
<rect width="1440" height="693" fill="white"/>
</clipPath>
</defs>
</svg>
