<svg width="663" height="551" viewBox="0 0 663 551" fill="none" xmlns="http://www.w3.org/2000/svg">
<mask id="mask0_4035_48538" style="mask-type:alpha" maskUnits="userSpaceOnUse" x="505" y="456" width="158" height="95">
<rect x="505" y="456" width="158" height="95" fill="#D9D9D9"/>
</mask>
<g mask="url(#mask0_4035_48538)">
<path d="M505 550.954C509.92 531.334 526.44 515.094 546.14 510.514C561.02 507.054 577.61 509.624 590.82 501.944C602.56 495.114 609.32 481.334 621.65 475.644C646.91 464.004 676.56 492.794 702.78 483.494C720.21 477.314 727.68 457.504 737.48 441.814C752.23 418.204 776.52 400.744 803.61 394.304C823.04 389.684 843.32 390.584 863.26 391.724C870.67 392.154 878.84 392.374 884.6 387.694C892.27 381.464 891.92 369.984 893.87 360.294C898.78 336.004 921.84 318.704 945.95 312.994C970.06 307.274 995.28 310.874 1019.79 314.494V550.944H505V550.954Z" fill="#A1E7F4"/>
</g>
<path d="M0 278.003C26.0468 292.777 60.5687 291.034 84.9933 273.714C94.1961 267.183 102.808 258.349 114.042 257.288C127.611 256 139.012 266.425 150.611 273.563C181.494 292.565 223.399 289.034 253.403 268.668C283.407 248.302 301.722 213.283 306.118 177.309C308.241 159.928 307.392 142.305 308.696 124.848C309.06 119.984 309.954 114.483 313.987 111.74C317.034 109.664 321.037 109.801 324.706 110.165C377.239 115.347 427.028 151.351 478.576 139.956C499.423 135.349 520.315 119.363 520.406 98.0419C520.436 90.0258 517.525 82.2824 516.585 74.327C515.645 66.3715 517.313 57.1431 524.029 52.7487C527.016 50.7939 530.609 50.0665 534.096 49.3695C547.62 46.6873 561.128 44.0052 574.637 41.3231C582.885 39.6865 592.178 37.3074 596.196 29.9278C601.791 19.6538 593.406 7.30389 584.264 0H0V278.003Z" fill="#A1E7F4"/>
<path d="M222.422 265.257C219.372 265.422 216.274 264.634 213.68 263.01C211.568 261.686 209.739 259.715 209.156 257.303C208.407 254.205 209.834 250.926 211.97 248.561C214.106 246.204 216.897 244.548 219.537 242.775C223.124 240.363 226.514 237.651 229.887 234.955C232.189 233.118 234.562 231.242 237.368 230.359C240.174 229.469 243.548 229.768 245.629 231.849C247.419 233.654 247.923 236.398 249.539 238.368C250.178 239.141 250.998 239.787 251.967 240.008C254.04 240.481 256.121 238.802 256.839 236.8C257.532 234.86 257.28 232.74 256.981 230.69C259.251 229.855 261.829 229.863 264.052 230.785C266.022 231.605 267.646 233.039 269.246 234.45C271.178 236.169 273.109 237.887 275.04 239.598C276.83 241.182 278.643 242.798 279.991 244.769C281.339 246.748 282.206 249.16 281.875 251.533C281.717 252.676 281.275 253.795 280.487 254.638C279.376 255.844 277.681 256.388 276.033 256.436C274.386 256.491 272.762 256.105 271.162 255.726C266.503 262.679 262.735 270.231 259.976 278.137C259.353 279.942 257.706 281.243 255.909 281.889C254.119 282.528 252.164 282.591 250.257 282.551C238.968 282.354 227.247 278.665 219.734 270.238C220.499 268.52 221.398 266.849 222.422 265.257Z" fill="#85DAE1"/>
<path d="M364.312 244.95C359.362 245.463 354.128 245.368 349.004 244.493C347.987 244.32 346.962 244.115 345.961 243.878C343.628 243.327 338.528 241.915 338.528 241.915C338.528 241.915 334.586 243.342 332.482 243.981C285.776 258.304 236.579 264.429 187.785 262.048C180.895 323.329 173.919 385.052 167.36 446.837C167.36 446.837 169.93 448.745 173.911 449.825C172.981 448.863 172.019 447.972 171.034 447.137C179.508 388.733 186.752 330.156 192.483 271.366C193.169 271.429 193.87 271.492 194.556 271.539C212.576 273.037 230.714 271.776 248.703 269.781C277.215 266.628 306.003 261.481 332.34 247.292C332.34 247.292 339.757 245.581 347.349 246.149C347.829 246.188 348.279 246.235 348.736 246.298C355.539 247.181 359.89 250.681 359.89 250.681C366.449 256.625 374.591 260.472 382.616 264.232C415.251 279.524 448.611 295.038 484.809 298.869C484.612 299.752 484.431 300.65 484.233 301.533C470.241 366.511 457.188 431.686 445.75 497.366C444.496 497.933 443.259 498.493 442.013 499.061C446.877 500.755 449.872 500.022 449.872 500.022C464.708 431.521 479.551 363.019 494.402 294.517C448.351 286.65 403.892 269.71 364.312 244.95Z" fill="#E98107"/>
<path d="M348.728 246.29C355.531 247.173 359.882 250.673 359.882 250.673C355.941 253.078 351.259 254.055 346.655 253.692C341.311 253.298 336.108 251.099 332.332 247.284C332.332 247.284 339.75 245.573 347.341 246.141C347.814 246.18 348.271 246.227 348.728 246.29Z" fill="#FF9681"/>
<path d="M382.6 264.224C374.575 260.464 366.432 256.617 359.874 250.673C355.932 253.078 351.25 254.055 346.647 253.692C341.302 253.298 336.091 251.099 332.323 247.284C305.987 261.473 277.199 266.62 248.687 269.773C230.706 271.76 212.56 273.029 194.54 271.531C193.854 271.484 193.153 271.421 192.467 271.358C186.744 330.148 179.499 388.725 171.018 447.129C172.003 447.964 172.957 448.863 173.895 449.817C176.646 452.584 179.216 455.776 181.596 459.103C194.098 461.121 206.112 461.239 218.787 461.176C250.216 461.018 283.151 457.234 309.116 439.498C319.743 459.481 337.723 474.837 357.572 485.731C377.421 496.617 398.894 502.955 420.658 509.182C427.28 506.053 434.54 502.474 441.997 499.045C443.235 498.477 444.48 497.918 445.733 497.35C457.171 431.67 470.225 366.495 484.217 301.517C484.414 300.635 484.596 299.736 484.793 298.853C448.603 295.03 415.235 279.516 382.6 264.224Z" fill="url(#paint0_linear_4035_48538)"/>
<path d="M240.797 279.84C240.813 279.934 240.899 280.005 240.994 280.005C241.002 280.005 241.018 280.005 241.026 280.005C265.281 275.953 289.323 269.805 312.499 261.717C312.601 261.678 312.657 261.567 312.617 261.465C312.586 261.362 312.467 261.307 312.365 261.347C289.213 269.419 265.194 275.567 240.962 279.619C240.852 279.635 240.781 279.737 240.797 279.84ZM388.166 278.484C388.111 278.578 388.15 278.697 388.245 278.752C408.07 289.646 429.401 297.166 451.646 301.1C451.654 301.1 451.67 301.1 451.678 301.1C451.772 301.1 451.851 301.029 451.875 300.934C451.891 300.824 451.82 300.721 451.717 300.705C429.511 296.78 408.228 289.275 388.434 278.397C388.339 278.358 388.221 278.389 388.166 278.484ZM207.524 277.23C210.921 277.428 214.311 277.522 217.7 277.522C232.244 277.522 246.725 275.741 260.874 272.217C260.977 272.193 261.048 272.083 261.016 271.981C260.993 271.878 260.882 271.807 260.78 271.839C243.375 276.182 225.457 277.861 207.539 276.844C207.421 276.836 207.334 276.923 207.334 277.033C207.327 277.128 207.413 277.223 207.524 277.23ZM417.206 284.656C417.222 284.664 417.238 284.664 417.254 284.664C417.34 284.664 417.419 284.609 417.443 284.514C417.474 284.412 417.411 284.301 417.301 284.27C397.058 278.925 378.092 270.152 360.939 258.186C360.852 258.123 360.726 258.146 360.663 258.233C360.6 258.32 360.623 258.446 360.71 258.509C377.903 270.506 396.916 279.296 417.206 284.656ZM482.578 301.052C482.531 300.95 482.413 300.91 482.318 300.958C475.263 304.245 467.893 307.24 460.42 309.865C460.317 309.905 460.262 310.015 460.302 310.118C460.333 310.196 460.404 310.252 460.491 310.252C460.514 310.252 460.538 310.252 460.554 310.244C468.042 307.611 475.421 304.607 482.484 301.32C482.586 301.265 482.626 301.147 482.578 301.052ZM202.069 284.554C202.108 284.593 202.163 284.617 202.211 284.617C202.258 284.617 202.305 284.601 202.345 284.561C202.423 284.491 202.431 284.364 202.352 284.286C199.294 280.975 196.677 277.215 194.572 273.116C194.525 273.021 194.407 272.982 194.304 273.029C194.21 273.076 194.17 273.194 194.217 273.297C196.346 277.42 198.986 281.211 202.069 284.554ZM457.653 311.734C424.387 301.218 389.348 288.605 358.503 267.708C353.174 264.098 348.066 259.967 346.805 254.244C346.805 254.228 346.789 254.221 346.781 254.205C346.773 254.197 346.773 254.189 346.765 254.173C346.742 254.142 346.71 254.11 346.663 254.094H346.655C346.647 254.094 346.647 254.094 346.639 254.094C346.6 254.087 346.561 254.094 346.521 254.118C346.513 254.126 346.505 254.126 346.497 254.134C346.49 254.142 346.474 254.142 346.466 254.15C342.17 258.398 336.471 260.85 331.465 262.813C308.037 271.981 283.419 276.434 258.147 280.549C239.205 283.639 220.767 286.311 203.385 285.105C203.275 285.098 203.196 285.168 203.18 285.271C194.288 340.246 186.957 398.728 181.4 459.087C181.392 459.197 181.471 459.292 181.581 459.3C181.692 459.315 181.786 459.229 181.794 459.118C187.344 398.831 194.667 340.419 203.543 285.507C220.916 286.682 239.315 284.018 258.218 280.935C283.506 276.813 308.155 272.359 331.615 263.175C336.478 261.268 341.981 258.887 346.269 254.875C333.27 308.439 321.399 367.118 308.936 439.467C308.92 439.577 308.991 439.671 309.094 439.695C309.101 439.695 309.117 439.695 309.125 439.695C309.22 439.695 309.306 439.624 309.322 439.53C321.777 367.244 333.641 308.604 346.624 255.08C348.177 260.543 353.119 264.531 358.282 268.023C389.112 288.921 424.112 301.533 457.361 312.049C443.897 373.141 431.482 439.459 420.478 509.151C420.462 509.261 420.533 509.356 420.643 509.379C420.651 509.379 420.667 509.379 420.675 509.379C420.769 509.379 420.856 509.308 420.872 509.214C431.892 439.459 444.315 373.093 457.795 311.962C457.803 311.86 457.748 311.765 457.653 311.734Z" fill="black"/>
<path d="M299.532 309.794C296.04 330.14 292.54 350.493 288.196 370.681C285.721 382.19 282.962 393.707 282.489 406.02C266.313 410.008 250.028 413.516 233.143 416.961C235.531 385.729 238.858 354.569 243.106 323.455C260.512 318.079 278.027 313.081 299.532 309.794Z" fill="#744EC5"/>
<path d="M296.812 325.536C295.062 324.598 292.903 324.417 291.058 325.158C288.599 326.135 286.841 328.682 286.801 331.33C285.438 330.014 283.01 330.487 281.725 331.89C280.448 333.293 280.077 335.295 279.998 337.187C277.649 336.446 275.119 337.479 272.998 338.74C270.744 340.08 268.647 341.696 266.787 343.541C266.156 344.163 265.541 345.228 266.18 345.842C266.432 346.087 266.803 346.158 267.149 346.189C271.792 346.623 275.679 342.808 280.172 341.554C279.659 342.161 279.864 343.146 280.416 343.714C280.968 344.282 281.772 344.526 282.552 344.707C286.194 345.527 290.065 345.172 293.541 343.817C294.653 337.731 295.748 331.638 296.812 325.536Z" fill="url(#paint1_linear_4035_48538)"/>
<path d="M259.55 361.663C256.633 361.892 253.646 362.538 251.281 364.265C252.014 363.366 252.7 362.381 252.984 361.253C253.267 360.126 253.07 358.818 252.235 358.006C251.399 357.194 249.87 357.115 249.129 358.013C249.46 356.413 249.791 354.789 249.673 353.158C249.562 351.526 248.94 349.863 247.671 348.83C245.794 347.309 243.012 347.545 240.765 348.42C240.45 348.546 240.158 348.704 239.851 348.846C237.123 371.517 234.885 394.211 233.143 416.945C245.526 414.423 257.587 411.853 269.522 409.094C269.656 408.881 269.782 408.66 269.9 408.44C271.098 406.075 270.949 403.087 269.53 400.849C268.111 398.61 265.47 397.207 262.821 397.278C264.674 396.868 266.392 395.89 267.693 394.511C268.213 393.959 268.686 393.305 268.741 392.548C268.867 390.83 266.897 389.758 265.202 389.466C262.987 389.087 260.677 389.269 258.541 389.978C263.759 386.171 268.986 381.851 271.524 375.915C272.872 372.762 273.329 368.947 271.54 366.022C269.199 362.215 264.02 361.308 259.55 361.663Z" fill="#9CFEB8"/>
<path d="M276.947 403.103L282.489 406.028C266.313 410.008 250.027 413.524 233.15 416.961C233.245 415.621 233.355 414.273 233.474 412.933L276.947 403.103Z" fill="#F0898A"/>
<path d="M292.626 310.945C294.889 310.543 297.183 310.157 299.532 309.802C296.032 330.14 292.54 350.493 288.196 370.689C285.713 382.182 282.962 393.707 282.481 406.028L276.939 403.103C276.939 403.103 279.186 388.031 280.179 380.858C281.046 374.559 290.372 323.384 292.626 310.945Z" fill="#EF5255"/>
<path d="M377.596 388.481C377.611 374.969 379.834 361.529 383.224 348.46C385.234 340.719 387.694 332.97 392.061 326.269C395.971 320.263 401.583 315.1 408.449 313.018C415.307 310.93 423.458 312.396 428.306 317.677C430.103 319.64 431.396 322.021 432.373 324.496C436.898 335.894 435.061 348.712 432.909 360.788C429.969 377.279 426.556 393.683 422.677 409.977C412.044 407.967 401.717 404.396 392.116 399.406C386.874 396.687 381.734 393.431 377.596 388.481Z" fill="#392563"/>
<path d="M432.909 360.788C433.043 360.047 433.169 359.306 433.303 358.557C426.469 356.918 418.728 359.551 414.416 365.132C414.069 365.573 413.73 366.054 413.225 366.306C412.8 366.527 412.303 366.551 411.822 366.598C409.197 366.834 406.62 367.615 404.302 368.884C402.253 370.011 400.211 371.998 400.613 374.299C400.708 374.828 400.889 375.474 400.479 375.821C400.25 376.01 399.927 376.018 399.659 376.144C398.626 376.625 399.147 378.257 400.045 378.95C402.253 380.637 405.374 380.219 408.007 381.102C409.954 381.764 411.57 383.12 413.257 384.295C417.395 387.172 422.235 389.024 427.225 389.702C429.283 380.101 431.182 370.46 432.909 360.788Z" fill="#EF5255"/>
<path d="M405.359 350.895C406.589 350.69 408.079 350.194 408.268 348.964C408.402 348.113 407.81 347.222 408.078 346.402C408.228 345.929 408.638 345.59 409.056 345.33C410.987 344.124 413.754 343.888 414.763 341.846C415.512 340.324 414.826 338.409 413.604 337.234C412.383 336.06 410.743 335.445 409.151 334.854C407.558 334.263 405.927 333.624 404.744 332.41C403.798 331.433 403.215 330.164 402.379 329.099C400.204 326.332 396.672 325.308 393.101 324.772C392.746 325.268 392.4 325.765 392.061 326.277C387.694 332.978 385.226 340.727 383.224 348.467C383.058 349.114 382.909 349.76 382.743 350.407C383.145 350.509 383.547 350.604 383.941 350.682C391.004 351.991 398.288 352.07 405.359 350.895Z" fill="#85DAE1"/>
<path d="M382.042 387.227C394.142 396.576 408.023 405.05 423.434 406.761C423.19 407.841 422.945 408.913 422.685 409.993C412.051 407.975 401.717 404.404 392.116 399.414C386.882 396.687 381.734 393.447 377.596 388.496C377.596 388.425 377.596 388.339 377.596 388.26C379.054 387.771 380.544 387.361 382.057 387.022C382.057 387.085 382.042 387.148 382.042 387.227Z" fill="#F0898A"/>
<path d="M392.067 326.277C395.985 320.271 401.59 315.115 408.456 313.026C412.334 311.844 416.622 311.797 420.509 312.955C416.331 312.782 412.082 313.862 408.401 315.88C402.63 319.025 398.185 324.244 395.047 330.03C391.926 335.816 390.026 342.177 388.426 348.554C385.233 361.167 383.121 374.055 382.064 387.022C380.551 387.369 379.069 387.771 377.603 388.26C377.65 374.82 379.873 361.474 383.231 348.46C385.233 340.719 387.708 332.97 392.067 326.277Z" fill="#F0AAB5"/>
<path d="M374.268 420.248C371.501 435.833 368.301 451.338 364.675 466.741C377.721 472.188 390.325 478.707 402.307 486.212C406.004 470.856 409.701 455.5 413.406 440.144C400.045 434.264 386.944 427.784 374.268 420.248Z" fill="#F2B212"/>
<path d="M386.456 435.777C386.511 434.666 386.566 433.554 386.621 432.443C385.904 433.468 385.258 434.54 384.698 435.659C383.594 435.226 382.309 435.021 381.017 434.902C381.97 435.557 382.932 436.219 383.886 436.873C383.05 437.835 382.294 438.867 381.624 439.947C382.853 439.301 384.075 438.647 385.305 438C385.407 437.945 385.526 437.89 385.636 437.914C385.762 437.937 385.849 438.055 385.92 438.158C386.519 439.017 387.126 439.876 387.725 440.744C387.52 439.545 387.205 438.371 386.787 437.228C387.812 437.228 388.844 437.149 389.861 436.999C388.75 436.542 387.615 436.132 386.456 435.777ZM404.421 463.328C403.207 463.824 402.001 464.321 400.787 464.818C400.55 464.487 399.849 463.761 399.194 462.989C399.242 464.006 399.431 465.023 399.754 465.992C398.729 465.874 397.689 465.834 396.656 465.89C397.799 466.418 398.95 466.954 400.093 467.482C399.683 468.554 399.336 469.65 399.06 470.769C400.101 469.768 401.047 468.664 401.875 467.482C402.789 467.994 403.711 468.483 404.649 468.948C404.208 467.9 403.624 466.907 402.915 466.008C403.42 465.117 403.916 464.219 404.421 463.328ZM408.898 446.971C407.763 446.53 406.517 446.388 405.311 446.553C405.209 445.347 405.099 444.149 404.996 442.943C404.507 444.244 404.019 445.552 403.53 446.853C402.757 446.616 401.457 446.411 400.164 446.466C401.181 446.837 402.158 447.318 403.065 447.909C402.537 448.886 402.04 449.88 401.567 450.889C402.474 450.368 403.317 449.714 404.05 448.965C405.012 449.612 405.974 450.266 406.935 450.912C406.604 449.88 406.123 448.894 405.524 447.988C406.659 447.688 407.787 447.349 408.898 446.971Z" fill="url(#paint2_linear_4035_48538)"/>
<mask id="mask1_4035_48538" style="mask-type:luminance" maskUnits="userSpaceOnUse" x="364" y="420" width="50" height="67">
<path d="M374.268 420.248C371.501 435.833 368.301 451.338 364.675 466.741C377.721 472.188 390.325 478.707 402.307 486.212C406.004 470.856 409.701 455.5 413.406 440.144C400.045 434.264 386.944 427.784 374.268 420.248Z" fill="white"/>
</mask>
<g mask="url(#mask1_4035_48538)">
<path d="M385.966 470.768C391.606 465.129 391.606 455.985 385.966 450.346C380.327 444.706 371.183 444.706 365.543 450.346C359.904 455.985 359.904 465.129 365.543 470.768C371.183 476.408 380.327 476.408 385.966 470.768Z" fill="#198CBD"/>
<path d="M360.671 470.824C360.285 470.824 359.906 470.809 359.52 470.785C358.487 470.714 357.281 470.249 357.274 469.177C357.266 468.601 357.652 468.144 358.03 467.774C359.173 466.639 360.482 465.685 361.909 464.928C362.058 464.849 362.248 464.904 362.326 465.054C362.405 465.204 362.35 465.393 362.2 465.472C360.829 466.197 359.567 467.119 358.464 468.207C358.164 468.507 357.888 468.83 357.888 469.169C357.896 469.871 358.992 470.131 359.567 470.17C363.099 470.414 366.646 469.421 370.264 468.294C378.013 465.874 386.219 463.012 393.708 458.511C394.859 457.818 396.167 456.982 397.161 455.863C397.641 455.319 397.878 454.854 397.902 454.412C397.957 453.632 397.334 452.954 396.735 452.647C395.994 452.268 395.111 452.237 394.346 452.252C392.234 452.292 390.161 452.718 388.198 453.506C388.04 453.569 387.859 453.49 387.796 453.332C387.733 453.175 387.812 452.993 387.961 452.93C389.995 452.111 392.131 451.669 394.323 451.63C395.166 451.606 396.144 451.653 397.003 452.087C397.807 452.489 398.579 453.372 398.509 454.436C398.461 455.208 397.972 455.839 397.61 456.249C396.561 457.439 395.206 458.299 394.015 459.016C386.471 463.548 378.226 466.426 370.438 468.861C367.159 469.91 363.927 470.824 360.671 470.824Z" fill="black"/>
</g>
<path d="M255.774 189.046C250.492 186.775 244.501 185.774 238.936 187.232C233.371 188.683 228.365 192.869 226.836 198.41C225.89 201.839 226.245 205.655 224.589 208.8C222.532 212.702 217.755 214.822 216.336 219C215.674 220.947 215.855 223.091 216.447 225.062C217.053 227.096 218.165 229.074 219.97 230.186C222.232 231.581 225.204 231.408 227.427 232.858C229.138 233.978 230.163 235.901 231.81 237.107C233.15 238.092 234.877 238.542 236.532 238.337C238.337 238.108 240.024 237.139 241.853 237.154C243.776 237.178 245.51 238.297 247.394 238.691C250.327 239.314 253.582 237.966 255.222 235.452C256.247 233.883 256.72 231.896 258.202 230.746C259.282 229.91 260.716 229.681 261.859 228.933C263.57 227.805 264.342 225.732 264.973 223.785C265.88 220.979 266.715 218.015 266.132 215.122C265.485 211.921 263.152 209.17 262.916 205.907C262.726 203.25 263.972 200.641 263.735 197.985C263.365 194.02 259.944 190.835 255.774 189.046Z" fill="#463748"/>
<path d="M280.093 253.897C280.629 250.09 278.453 246.424 275.931 243.531C273.4 240.638 270.397 238.077 268.639 234.655C267.819 233.055 267.315 231.132 268.024 229.476C268.607 228.136 269.885 227.23 270.689 226.008C270.988 225.551 271.225 225.015 271.138 224.479C271.083 224.163 270.909 223.88 270.744 223.604C270.436 223.091 270.121 222.571 269.806 222.051C269.593 221.704 269.348 221.318 268.946 221.207C268.56 221.097 268.198 221.263 267.882 221.531C267.693 221.381 267.504 221.231 267.283 221.136C267.007 221.018 266.676 220.995 266.416 221.136C266.258 221.223 266.148 221.357 266.038 221.491C265.951 221.602 265.864 221.72 265.793 221.846C265.604 221.68 265.399 221.531 265.171 221.42C264.816 221.263 264.39 221.223 264.051 221.42C263.862 221.531 263.712 221.712 263.586 221.893C262.806 222.965 262.293 224.242 261.363 225.18C261.111 225.433 260.796 225.772 260.945 226.11C260.985 226.205 261.056 226.284 261.142 226.347C261.395 226.536 261.71 226.615 262.033 226.591C260.796 227.884 259.574 229.335 259.385 231.108C259.282 232.149 259.55 233.197 259.834 234.198C261.805 241.238 264.532 248.198 269.065 253.945C270.696 256.002 272.809 258.02 275.426 258.178C276.317 258.225 277.223 258.052 277.988 257.579C279.218 256.806 279.88 255.34 280.093 253.897Z" fill="#FEC8C8"/>
<path d="M268.978 221.097C268.6 220.987 268.213 221.105 267.819 221.444C267.583 221.633 267.394 221.87 267.252 222.059C266.865 222.555 266.471 223.052 266.085 223.549C265.683 224.069 265.281 224.581 264.871 225.101C264.761 225.235 264.556 225.551 264.619 225.827C264.272 225.913 263.909 225.874 263.586 225.701C263.468 225.638 263.334 225.527 263.318 225.369C263.31 225.267 263.35 225.157 263.452 225.023C263.633 224.778 263.87 224.565 264.099 224.368C264.24 224.242 264.382 224.116 264.516 223.974C264.903 223.572 265.186 223.083 265.462 222.618C265.604 222.382 265.746 222.145 265.896 221.917C265.927 221.862 265.919 221.799 265.864 221.759C265.817 221.728 265.746 221.736 265.707 221.791C265.549 222.019 265.407 222.272 265.265 222.5C264.997 222.957 264.713 223.43 264.351 223.817C264.225 223.951 264.083 224.077 263.949 224.195C263.712 224.408 263.468 224.621 263.279 224.889C263.145 225.07 263.082 225.235 263.097 225.393C263.113 225.543 263.2 225.685 263.358 225.803C263.09 226.071 262.814 226.268 262.546 226.378C262.38 226.442 262.207 226.481 262.033 226.489C261.97 226.489 261.923 226.544 261.923 226.607C261.923 226.67 261.978 226.717 262.033 226.717H262.041C262.238 226.71 262.435 226.662 262.624 226.591C262.94 226.465 263.255 226.237 263.555 225.929C263.775 226.04 264.028 226.103 264.272 226.103C264.422 226.103 264.571 226.079 264.721 226.04C264.832 226.15 264.981 226.189 265.123 226.189C265.202 226.189 265.281 226.181 265.352 226.166C265.439 226.15 265.517 226.126 265.604 226.103C263.823 227.332 262.553 229.335 262.333 231.479C262.325 231.542 262.372 231.597 262.435 231.605H262.443C262.498 231.605 262.546 231.565 262.553 231.502C262.845 228.633 265.092 226.016 267.882 225.283C267.945 225.267 267.977 225.204 267.961 225.149C267.945 225.086 267.882 225.054 267.827 225.07C267.535 225.149 267.26 225.243 266.984 225.362C267.394 224.991 267.725 224.534 267.914 224.014C267.937 223.958 267.906 223.888 267.851 223.872C267.788 223.848 267.725 223.88 267.709 223.935C267.33 224.967 266.392 225.756 265.312 225.961C265.194 225.984 264.981 226.008 264.879 225.906C264.871 225.898 264.863 225.89 264.855 225.866C264.753 225.716 264.895 225.448 265.037 225.259C265.439 224.739 265.848 224.226 266.251 223.706C266.637 223.21 267.023 222.713 267.417 222.216C267.551 222.043 267.74 221.814 267.953 221.641C268.292 221.349 268.607 221.247 268.907 221.334C268.97 221.349 269.025 221.318 269.049 221.255C269.073 221.176 269.033 221.113 268.978 221.097Z" fill="black"/>
<path d="M269.261 209.667C268.718 206.199 267.582 202.864 266.266 199.616C263.964 199.837 261.662 200.058 259.353 200.279C259.305 198.481 258.257 196.755 256.688 195.88C258.021 197.244 258.549 199.34 258.028 201.177C256.137 201.398 254.237 201.524 252.321 201.556C252.597 199.766 251.746 197.858 250.24 196.865C251.139 198.3 251.399 200.121 250.942 201.745C247.402 202.501 243.887 203.361 240.395 204.315C239.236 206.916 238.873 209.88 239.386 212.678C239.701 214.381 240.316 216.123 239.819 217.778C239.425 216.249 238.566 214.751 237.186 213.995C236.879 213.821 236.548 213.703 236.201 213.624C235.397 213.451 234.53 213.537 233.82 213.9C233.466 214.081 233.142 214.341 232.89 214.673C232.504 215.193 232.307 215.839 232.236 216.478C231.992 218.527 232.953 220.663 234.64 221.846C236.327 223.028 238.668 223.194 240.505 222.272C242.089 224.841 244.462 226.812 247.182 228.081C246.835 229.405 246.33 230.69 245.684 231.904C247.426 233.71 247.938 236.405 249.531 238.352C250.169 239.125 250.989 239.771 251.959 239.992C254.032 240.465 256.113 238.786 256.83 236.784C257.453 235.05 257.319 233.173 257.067 231.337C257.358 230.69 257.705 230.068 258.084 229.461C260.693 228.972 263.215 227.868 265.131 226.032C266.684 224.55 267.779 222.626 268.497 220.593C269.727 217.124 269.837 213.317 269.261 209.667Z" fill="#FEC8C8"/>
<path d="M257.381 187.461C260.448 188.557 263.167 190.843 264.46 193.799C262.86 192.569 260.905 191.828 258.919 191.426C254.906 190.606 250.626 191.127 246.937 192.892C243.248 194.674 240.165 197.701 238.376 201.39C236.547 205.15 236.082 209.43 236.208 213.624C235.404 213.451 234.537 213.537 233.828 213.9C232.913 210.061 232.551 206.057 233.221 202.17C233.906 198.134 235.767 194.232 238.802 191.489C240.946 189.55 243.618 188.241 246.401 187.437C249.972 186.413 253.866 186.223 257.381 187.461Z" fill="#F2B212"/>
<path d="M266.266 199.608C263.964 199.829 261.662 200.05 259.353 200.271C259.305 198.473 258.257 196.747 256.688 195.872C258.021 197.236 258.549 199.333 258.028 201.169C256.137 201.39 254.237 201.516 252.321 201.548C252.597 199.758 251.746 197.851 250.24 196.857C251.139 198.292 251.399 200.113 250.942 201.737C247.402 202.494 243.887 203.353 240.395 204.307C239.236 206.908 238.873 209.872 239.386 212.67C239.701 214.373 240.316 216.115 239.819 217.77C239.425 216.241 238.566 214.743 237.186 213.987C236.879 213.813 236.548 213.695 236.201 213.616C236.075 209.415 236.54 205.134 238.369 201.382C240.158 197.701 243.24 194.666 246.929 192.884C250.619 191.111 254.899 190.598 258.911 191.418C260.898 191.82 262.853 192.561 264.453 193.791C264.548 193.854 264.634 193.925 264.721 194.004C266.376 195.36 267.598 197.322 267.787 199.459C267.283 199.514 266.778 199.561 266.266 199.608Z" fill="#463748"/>
<path d="M236.674 220.742C236.619 220.742 236.571 220.719 236.548 220.663C236.153 219.97 236.351 219.016 236.981 218.527C237.265 218.306 237.62 218.18 237.982 218.18C237.99 218.18 237.99 218.18 237.998 218.18C238.219 218.18 238.439 218.228 238.621 218.322C238.282 217.644 237.722 217.077 237.036 216.754C236.697 216.596 236.193 216.43 235.696 216.564C235.247 216.683 234.908 217.077 234.908 217.479C234.908 217.558 234.845 217.621 234.758 217.629C234.679 217.629 234.608 217.558 234.608 217.479C234.608 216.943 235.034 216.438 235.617 216.281C236.201 216.123 236.776 216.304 237.162 216.493C238.1 216.943 238.834 217.802 239.117 218.795C239.141 218.866 239.102 218.945 239.031 218.977C238.968 219.008 238.881 218.984 238.841 218.921C238.684 218.661 238.345 218.496 237.982 218.496C237.974 218.496 237.974 218.496 237.974 218.496C237.675 218.496 237.383 218.598 237.155 218.779C236.65 219.174 236.485 219.97 236.8 220.529C236.839 220.6 236.816 220.695 236.745 220.734C236.721 220.742 236.697 220.742 236.674 220.742Z" fill="black"/>
<path d="M256.901 211.59C257.272 211.22 257.824 211.062 258.352 211.062C258.88 211.062 259.392 211.196 259.905 211.33C260.054 211.37 260.22 211.401 260.346 211.314C260.449 211.244 260.488 211.102 260.496 210.975C260.52 210.55 260.283 210.132 259.944 209.872C259.605 209.612 259.172 209.494 258.746 209.454C258.123 209.399 257.477 209.509 256.941 209.832C256.405 210.156 256.003 210.707 255.916 211.33C255.9 211.464 255.9 211.606 255.963 211.716C256.089 211.984 256.531 211.961 256.901 211.59Z" fill="#FF9681"/>
<path d="M256.878 218.984C256.453 218.984 256.051 218.89 255.783 218.803C255.349 218.669 255.002 218.496 254.718 218.275C254.135 217.818 253.765 217.069 253.765 216.32C253.765 216.218 253.843 216.115 253.954 216.131C254.056 216.131 254.143 216.218 254.143 216.32C254.143 216.951 254.458 217.589 254.955 217.975C255.199 218.165 255.515 218.322 255.901 218.448C256.366 218.598 257.257 218.779 257.927 218.322C258.013 218.267 258.132 218.283 258.187 218.37C258.242 218.456 258.226 218.575 258.14 218.63C257.738 218.898 257.296 218.984 256.878 218.984Z" fill="black"/>
<path d="M248.033 211.701C246.204 211.173 244.312 212.15 243.808 213.884C243.303 215.626 244.368 217.463 246.196 217.999C248.025 218.527 249.917 217.55 250.422 215.816C250.934 214.066 249.862 212.229 248.033 211.701ZM269.277 209.785C269.214 209.762 269.159 209.738 269.096 209.722C267.267 209.194 265.375 210.171 264.871 211.906C264.366 213.648 265.43 215.484 267.259 216.02C268.024 216.241 268.804 216.194 269.49 215.942C269.679 213.9 269.585 211.819 269.277 209.785Z" fill="#FF9681"/>
<path d="M268.316 221.129C268.268 221.105 268.221 221.136 268.197 221.176C267.433 223.123 266.384 224.739 265.076 225.984C263.31 227.679 260.89 228.862 258.076 229.39C257.713 229.461 257.422 229.508 257.154 229.539C254.623 229.886 251.967 229.658 249.468 228.877C249.42 228.862 249.373 228.893 249.357 228.94C249.342 228.988 249.365 229.035 249.413 229.051C249.523 229.082 249.641 229.122 249.752 229.153C252.179 229.863 254.733 230.052 257.177 229.721C257.453 229.681 257.745 229.634 258.115 229.563C260.961 229.027 263.412 227.837 265.21 226.11C266.534 224.849 267.598 223.21 268.371 221.239C268.386 221.199 268.363 221.144 268.316 221.129ZM256.184 233.97C256.452 233.055 256.775 232.188 257.161 231.392C257.185 231.345 257.161 231.297 257.122 231.274C257.075 231.25 257.019 231.274 257.004 231.313C256.617 232.117 256.286 232.992 256.018 233.922C255.782 234.766 255.561 235.751 255.774 236.713C255.782 236.744 255.806 236.768 255.837 236.776C255.853 236.784 255.869 236.784 255.884 236.776C255.932 236.768 255.963 236.721 255.955 236.666C255.735 235.751 255.947 234.789 256.184 233.97Z" fill="black"/>
<path d="M252.156 204.937C250.264 204.385 248.301 205.418 247.765 207.247C247.237 209.076 248.333 210.999 250.225 211.551C252.117 212.103 254.08 211.07 254.616 209.241C255.152 207.412 254.048 205.489 252.156 204.937ZM266.203 204.322C264.855 202.982 262.64 203.022 261.245 204.409C259.85 205.804 259.818 208.019 261.158 209.367C262.506 210.707 264.721 210.668 266.117 209.281C267.512 207.885 267.551 205.67 266.203 204.322Z" fill="url(#paint3_linear_4035_48538)"/>
<path d="M252.629 205.45C251.218 205.04 249.736 205.852 249.326 207.263C248.916 208.674 249.728 210.156 251.139 210.566C252.55 210.975 254.032 210.164 254.442 208.753C254.86 207.334 254.048 205.86 252.629 205.45ZM266.148 204.661C265.107 203.621 263.42 203.621 262.38 204.661C261.339 205.702 261.339 207.389 262.38 208.429C263.42 209.47 265.107 209.47 266.148 208.429C267.188 207.389 267.188 205.702 266.148 204.661Z" fill="black"/>
<path d="M246.456 206.293C246.409 206.23 246.315 206.214 246.244 206.262C246.181 206.309 246.165 206.403 246.212 206.474C246.393 206.719 246.685 206.9 247.024 207.003C247.048 207.01 247.071 207.018 247.103 207.026C247.339 207.081 247.576 207.097 247.812 207.097C247.844 206.995 247.883 206.892 247.931 206.798C247.678 206.798 247.418 206.79 247.174 206.735C246.882 206.656 246.614 206.498 246.456 206.293ZM267.188 202.903C267.204 202.825 267.141 202.746 267.062 202.73C266.983 202.714 266.904 202.777 266.889 202.856C266.849 203.108 266.692 203.376 266.463 203.589C266.282 203.763 266.053 203.889 265.832 204.015C265.919 204.078 265.998 204.149 266.077 204.22C266.282 204.102 266.487 203.976 266.66 203.81C266.676 203.794 266.699 203.771 266.715 203.755C266.975 203.503 267.141 203.203 267.188 202.903Z" fill="black"/>
<path d="M258.431 173.698C258.399 172.31 258.242 170.844 258.864 169.607C257.343 169.977 255.932 170.686 254.576 171.475C253.149 172.31 251.762 173.256 250.611 174.439C248.972 176.133 247.829 178.301 247.363 180.619C247.103 181.912 247.072 183.252 247.237 184.56C246.875 183.843 246.37 183.181 245.763 182.653C244.36 181.423 242.539 180.769 240.718 180.374C238.897 179.98 237.029 179.807 235.208 179.397C233.387 178.987 231.574 178.293 230.21 177.024C230.076 179.98 231.148 182.976 233.127 185.175C235.106 187.374 237.967 188.762 240.923 188.943C243.044 189.077 245.148 188.612 247.765 187.611C247.797 187.422 247.813 187.232 247.813 187.051C247.876 187.225 247.931 187.398 247.994 187.564C249.492 187.414 250.958 187.004 252.274 186.287C254.434 185.112 256.098 183.133 257.107 180.887C258.116 178.648 258.486 176.157 258.431 173.698Z" fill="#E98107"/>
<path d="M244.88 185.79C243.658 185.278 242.397 184.805 241.144 184.371C241.104 184.355 241.049 184.379 241.033 184.426C241.017 184.473 241.041 184.521 241.088 184.537C242.342 184.97 243.595 185.443 244.817 185.955C245.526 186.247 246.196 186.562 246.662 187.091C246.669 187.106 246.685 187.114 246.701 187.114C246.732 187.122 246.764 187.114 246.788 187.098C246.827 187.067 246.827 187.012 246.796 186.972C246.307 186.405 245.613 186.089 244.88 185.79ZM252.818 180.477C252.786 180.437 252.731 180.437 252.692 180.469C250.816 182.132 249.318 184.237 248.364 186.562C248.348 186.61 248.364 186.657 248.411 186.681H248.419C248.467 186.696 248.506 186.673 248.53 186.625C249.476 184.332 250.958 182.243 252.81 180.595C252.842 180.571 252.85 180.516 252.818 180.477Z" fill="black"/>
<path d="M251.084 251.154C249.704 247.323 248.333 243.484 247.197 239.574C246.977 238.818 246.764 237.99 247.024 237.249C247.103 237.028 247.229 236.807 247.418 236.673C247.71 236.476 248.104 236.5 248.459 236.555C248.947 236.634 249.483 236.792 249.712 237.225C249.799 237.383 249.83 237.564 249.862 237.746C250.634 242.168 251.407 246.59 252.172 251.012C252.203 251.186 252.203 251.406 252.045 251.477C251.967 251.509 251.88 251.493 251.801 251.477C251.565 251.422 251.194 251.454 251.084 251.154Z" fill="#198CBD"/>
<path d="M249.87 237.746C249.838 237.572 249.807 237.391 249.72 237.225C249.491 236.792 248.947 236.634 248.467 236.555C248.112 236.5 247.726 236.476 247.426 236.673C247.229 236.807 247.103 237.02 247.032 237.249C246.772 237.998 246.985 238.818 247.205 239.574C247.3 239.89 247.402 240.205 247.497 240.528C248.451 240.638 249.444 240.418 250.248 239.89C250.122 239.172 249.996 238.455 249.87 237.746Z" fill="#F2B212"/>
<path d="M259.275 257.121C259.212 257.492 258.92 257.791 258.636 258.052C255.885 260.535 252.023 261.757 248.341 261.315C246.954 261.15 245.598 260.763 244.203 260.732C242.406 260.684 240.648 261.236 238.913 261.717C233.9 263.12 228.768 264.027 223.605 264.65C222.352 264.799 221.075 264.925 219.837 264.689C218.599 264.46 217.378 263.798 216.755 262.71C216.4 262.096 216.258 261.394 216.235 260.692C216.148 258.335 217.441 256.057 219.285 254.599C221.13 253.133 223.471 252.408 225.812 252.155C228.153 251.895 230.526 252.084 232.875 252.266C235.35 252.455 237.818 252.652 240.293 252.841C242.516 253.015 245.07 253.07 246.583 251.43C247.048 250.926 247.372 250.295 247.853 249.806C248.333 249.31 249.066 248.963 249.705 249.231C250.485 249.554 250.832 250.673 251.573 250.705C252.511 250.799 253.449 250.673 254.387 250.626C255.325 250.579 256.303 250.618 257.138 251.028C257.343 251.131 257.548 251.257 257.675 251.446C257.793 251.619 257.832 251.856 257.745 252.037C257.753 252.037 257.761 252.037 257.777 252.037C258.163 252.092 258.565 252.289 258.739 252.652C258.802 252.786 258.825 252.944 258.786 253.085C258.739 253.267 258.605 253.401 258.447 253.511C258.573 253.519 258.699 253.535 258.818 253.566C258.928 253.59 259.038 253.621 259.133 253.692C259.251 253.779 259.338 253.905 259.393 254.047C259.551 254.465 259.456 254.946 259.227 255.324C259.022 255.655 258.739 255.923 258.431 256.16L258.699 256.294C259.078 256.278 259.354 256.743 259.275 257.121Z" fill="#FEC8C8"/>
<path d="M256.634 252.281C256.997 252.203 257.375 252.116 257.722 252.147C257.745 252.155 257.761 252.155 257.753 252.147C257.816 252.163 257.872 252.132 257.895 252.069C257.911 252.005 257.879 251.95 257.816 251.927C257.793 251.919 257.777 251.919 257.769 251.919C257.367 251.879 256.973 251.966 256.594 252.053C256.161 252.147 255.727 252.25 255.294 252.344C254.86 252.439 254.427 252.542 253.993 252.636C253.93 252.652 253.899 252.707 253.906 252.77C253.922 252.825 253.962 252.857 254.017 252.857C254.025 252.857 254.033 252.857 254.04 252.857C254.474 252.762 254.908 252.66 255.341 252.565C255.775 252.478 256.2 252.384 256.634 252.281ZM259.29 255.23C259.235 255.198 259.172 255.214 259.133 255.269C258.967 255.537 258.723 255.797 258.352 256.081C258.321 256.112 258.289 256.136 258.25 256.16L258.226 256.176C257.438 256.767 256.587 257.232 255.696 257.563C255.641 257.587 255.609 257.65 255.633 257.705C255.649 257.752 255.696 257.776 255.735 257.776C255.751 257.776 255.759 257.776 255.775 257.768C256.689 257.429 257.556 256.956 258.36 256.349L258.384 256.333C258.423 256.302 258.463 256.278 258.486 256.246C258.731 256.057 259.078 255.758 259.314 255.379C259.361 255.332 259.346 255.269 259.29 255.23ZM258.526 253.614C258.573 253.574 258.581 253.503 258.549 253.456C258.51 253.409 258.439 253.393 258.392 253.432L258.321 253.487C257.201 254.292 255.846 254.709 254.529 255.111C254.466 255.127 254.435 255.19 254.458 255.253C254.474 255.301 254.513 255.332 254.569 255.332C254.576 255.332 254.592 255.332 254.6 255.324C255.932 254.914 257.304 254.496 258.455 253.669L258.526 253.614Z" fill="black"/>
<path d="M431.522 227.096C432.499 222.074 435.747 217.629 439.964 214.728C444.181 211.827 449.313 210.408 454.429 210.187C460.317 209.935 466.442 211.322 471.03 215.011C473.647 217.116 475.681 219.883 477.281 222.831C480.568 228.877 482.153 236.161 480.095 242.735C478.732 247.11 475.823 250.925 472.205 253.748C467.412 257.484 461.429 259.51 455.375 260.054C452.458 260.314 449.487 260.243 446.649 259.526C440.067 257.862 434.651 252.731 431.853 246.551C429.07 240.37 430.229 233.733 431.522 227.096Z" fill="#198CBD"/>
<path d="M452.309 251.304C451.608 249.499 449.448 248.592 447.524 248.813C445.601 249.034 443.906 250.153 442.432 251.406C442.148 251.651 441.817 251.919 441.439 251.871C440.674 251.777 440.674 250.705 440.635 249.94C440.532 248.056 438.601 246.487 436.733 246.771C436.417 243.311 439.444 240.583 442.054 238.289C444.663 235.995 447.343 232.685 446.168 229.413C445.372 227.206 442.929 225.898 440.579 225.874C438.23 225.85 436 226.883 434.037 228.176C432.917 228.917 431.853 229.752 430.86 230.659C429.938 236.098 429.567 241.482 431.861 246.558C434.652 252.746 440.075 257.878 446.657 259.534C448.691 260.046 450.796 260.227 452.9 260.188C452.546 259.518 452.238 258.832 452.112 258.107C451.718 255.852 453.137 253.44 452.309 251.304ZM477.282 222.839C475.674 219.891 473.648 217.124 471.031 215.019C467.097 211.858 462.044 210.4 456.976 210.203C455.076 211.772 453.491 213.719 452.412 215.934C451.655 217.487 451.3 219.694 452.743 220.648C453.689 221.278 454.95 221.002 456.053 220.742C458.166 220.246 460.491 219.915 462.407 220.931C464.315 221.956 465.276 224.873 463.676 226.339C463.132 226.836 462.415 227.08 461.729 227.332C458.056 228.712 454.579 231.077 452.79 234.569C452.561 235.01 452.364 235.562 452.616 235.988C452.774 236.263 453.089 236.421 453.397 236.516C456.416 237.509 459.214 234.774 461.958 233.166C462.478 232.866 463.093 232.59 463.66 232.787C464.646 233.126 464.685 234.545 464.259 235.499C463.842 236.453 463.132 237.383 463.282 238.415C463.487 239.921 465.292 240.575 466.806 240.717C472.079 241.206 477.455 238.881 480.971 234.955C480.679 230.746 479.308 226.56 477.282 222.839Z" fill="#85DAE1"/>
<path d="M202.187 504.783C200.753 508.291 198.112 511.168 195.274 513.675C187.415 520.62 177.601 525.31 167.274 527.108C169.955 525.373 172.635 523.647 175.315 521.913C171.894 522.78 168.441 523.663 164.91 523.686C168.362 522.394 171.705 520.825 174.905 518.996C171.736 519.516 168.528 520.045 165.327 519.769C168.307 518.965 171.247 518.027 174.133 516.954C170.593 517.112 167.022 517.27 163.546 516.576C168.086 516.064 172.485 514.708 176.773 513.147C185.381 510.018 193.753 506.005 201.021 500.424C201.651 501.701 202.834 503.207 202.187 504.783Z" fill="#DB6501"/>
<path d="M198.907 498.926C198.418 496.664 198.016 494.378 197.693 492.084C199.088 493.519 200.326 495.103 201.366 496.806C201.761 494.607 202.297 492.431 202.967 490.295C203.597 492.234 204.023 494.236 204.244 496.254C206.002 494.63 207.83 493.085 209.722 491.635C208.934 493.881 208.012 496.081 206.971 498.225C209.344 497.594 211.756 497.09 214.184 496.727C211.866 498.28 209.549 499.825 207.231 501.378C209.226 503.01 211.196 504.689 213.128 506.399C210.865 506.013 208.603 505.627 206.348 505.248C206.798 507.984 207.255 510.727 207.704 513.462C206.009 511.515 204.685 509.245 203.842 506.809C202.911 509.111 201.981 511.421 201.051 513.723C200.854 511.184 200.862 508.63 201.083 506.1C199.277 507.519 197.441 508.882 195.565 510.207C196.913 508.023 198.332 505.887 199.829 503.798C197.669 503.94 195.509 504.074 193.35 504.216C195.194 503.16 197.094 502.19 199.033 501.315C197.133 500.069 195.383 498.588 193.838 496.924C195.423 497.429 196.984 498.004 198.907 498.926Z" fill="#F2B212"/>
<path d="M201.099 501.678C201.099 500.196 201.942 498.99 202.983 498.99C204.023 498.99 204.867 500.196 204.867 501.678C204.867 503.16 204.023 504.366 202.983 504.366C201.942 504.366 201.099 503.167 201.099 501.678Z" fill="#EF5255"/>
<path d="M352.827 210.439C377.65 201.24 403.939 194.201 430.323 196.345C422.417 192.443 413.58 190.433 404.759 190.535C411.657 188.234 419.011 187.745 426.271 187.272C421.936 184.734 416.568 185.049 411.562 185.435C415.385 184.237 419.287 183.299 423.236 182.645C418.144 181.305 412.768 181.896 407.542 182.487C413.351 179.499 419.673 177.513 426.153 176.63C417.261 174.391 407.865 175.629 398.902 177.576C389.593 179.594 380.401 182.377 371.919 186.712C363.437 191.048 355.673 196.983 349.974 204.606C350.967 206.191 351.968 207.775 352.827 210.439Z" fill="#EF5255"/>
<path d="M344.905 199.49C344.472 194.603 344.141 189.715 343.936 184.812C345.883 188.817 347.932 192.766 350.077 196.668C351.306 192.853 352.623 189.069 354.018 185.317C353.75 189.534 353.845 193.775 354.294 197.977C357.029 195.501 359.765 193.026 362.508 190.551C360.947 194.154 359.378 197.772 357.352 201.138C361.625 200.657 365.921 200.357 370.217 200.223C366.804 202.635 363.312 204.929 359.733 207.097C363.288 209.099 366.772 211.228 370.178 213.482C366.094 212.765 362.043 211.921 358.015 210.936C359.362 214.814 360.9 218.63 362.61 222.366C359.765 219.536 356.982 216.635 354.27 213.679C353.387 217.684 352.504 221.696 351.622 225.701C350.266 221.901 349.343 217.944 348.863 213.939C345.568 216.509 342.202 219.008 338.78 221.42C340.601 217.81 342.612 214.302 344.811 210.904C341.027 211.133 337.243 211.314 333.452 211.456C337.094 209.895 340.728 208.343 344.369 206.782C340.444 203.778 336.676 200.586 333.065 197.22C336.936 197.74 340.767 198.481 344.905 199.49Z" fill="#FAE5D2"/>
<path d="M347.593 205.789C347.593 203.652 349.083 201.918 350.927 201.918C352.772 201.918 354.262 203.652 354.262 205.789C354.262 207.925 352.772 209.659 350.927 209.659C349.083 209.659 347.593 207.925 347.593 205.789Z" fill="#DB6501"/>
<path d="M384.248 386.061C383.822 385.343 383.365 384.626 382.916 383.932C381.497 381.717 380.038 379.431 379.384 376.893C379.361 376.806 379.345 376.727 379.329 376.641C379.747 374.307 380.977 372.195 381.852 369.988C383.72 365.297 383.917 359.756 381.481 355.341C379.045 350.919 373.693 348.018 369.539 349.406C366.527 346.678 362.302 345.33 358.266 345.819C354.23 346.308 350.454 348.625 348.184 351.999C347.995 352.291 347.821 352.582 347.64 352.882C347.546 352.969 347.451 353.055 347.348 353.142C346.489 353.907 345.457 354.766 344.266 355.373C342.122 356.453 339.639 356.61 337.235 356.76C336.612 356.8 335.966 356.839 335.335 356.894C331.67 357.225 328.556 358.148 326.073 359.637C323.085 361.419 320.91 364.138 320.121 367.095C319.979 367.615 319.877 368.159 319.782 368.679C319.633 369.475 319.483 370.295 319.183 371.052C318.143 373.7 315.715 375.198 313.145 376.775C311.844 377.571 310.496 378.398 309.361 379.392C307.895 380.669 306.713 382.332 305.964 384.2C305.94 384.248 305.964 384.303 306.011 384.326C303.93 387.211 302.929 390.719 303.875 394.109C304.466 396.198 305.719 398.09 306.003 400.234C306.421 403.348 304.742 406.304 303.772 409.291C302.038 414.628 302.897 421.249 307.343 424.678C310.086 426.791 313.902 427.54 315.983 430.299C316.976 431.615 317.441 433.247 318.221 434.705C320.768 439.514 326.238 441.918 331.441 443.526C334.949 444.614 338.614 445.505 342.264 445.111C346.166 444.693 349.745 442.84 353.213 441.027C358.834 438.087 364.494 435.131 369.444 431.166C370.059 430.669 370.666 430.149 371.241 429.597C371.265 429.621 371.289 429.629 371.32 429.629C371.352 429.629 371.383 429.621 371.407 429.597C372.471 428.793 373.393 427.981 374.237 427.098C376.956 424.237 378.422 420.863 378.383 417.6C378.367 416.299 378.107 414.975 377.863 413.706C377.555 412.129 377.232 410.489 377.398 408.921C377.406 408.866 377.413 408.818 377.421 408.763C378.675 407.328 380.149 406.004 381.292 404.475C382.127 403.363 382.774 402.11 383.247 400.794C383.302 400.738 383.365 400.683 383.42 400.628C384.484 399.587 385.651 398.303 386.29 396.639C387.393 393.77 386.715 390.199 384.248 386.061ZM344.495 357.296C342.288 359.157 339.174 359.322 336.328 359.811C332.813 360.418 329.171 361.852 327.2 364.824C325.45 367.465 325.261 370.949 323.33 373.464C320.823 376.743 316.243 377.397 312.451 379.069C310.094 380.117 307.942 381.82 306.342 383.877C307.083 382.206 308.171 380.716 309.503 379.549C310.63 378.572 311.963 377.752 313.263 376.956C315.754 375.427 318.324 373.842 319.396 371.123C319.703 370.342 319.861 369.515 320.011 368.711C320.105 368.19 320.208 367.662 320.35 367.15C321.122 364.257 323.259 361.584 326.199 359.827C328.65 358.353 331.733 357.438 335.367 357.115C335.989 357.06 336.636 357.02 337.258 356.981C339.686 356.831 342.193 356.673 344.377 355.57C345.48 355.01 346.434 354.246 347.254 353.528C346.458 354.9 345.693 356.287 344.495 357.296ZM377.634 413.769C377.879 415.03 378.139 416.338 378.154 417.623C378.194 420.832 376.743 424.142 374.071 426.964C373.433 427.627 372.747 428.257 371.99 428.872C373.488 427.296 374.694 425.482 375.08 423.37C375.727 419.878 374.055 416.189 375.025 412.775C375.419 411.38 376.215 410.198 377.153 409.086C377.027 410.631 377.335 412.224 377.634 413.769ZM386.069 396.592C385.47 398.137 384.398 399.351 383.397 400.352C384.027 398.358 384.224 396.229 383.925 394.156C383.081 388.315 378.58 383.034 379.25 377.232C379.944 379.691 381.355 381.914 382.726 384.058C383.168 384.752 383.625 385.469 384.051 386.179C386.479 390.254 387.157 393.762 386.069 396.592Z" fill="#463748"/>
<path d="M366.353 386.557C365.541 388.268 364.115 392.832 363.886 394.708C363.886 394.708 356.949 393.967 351.707 389.332C353.441 387.109 354.647 384.476 355.199 381.701C353.544 382.009 351.77 381.804 350.304 380.984C348.83 380.172 347.695 378.706 347.419 377.043C347.135 375.379 347.774 373.558 349.129 372.549C350.477 371.548 352.503 371.485 353.835 372.51C354.356 372.928 354.766 373.472 355.049 374.071C355.317 374.631 355.499 375.245 355.98 375.632C356.452 376.01 357.343 375.923 357.477 375.324C357.532 375.08 357.43 374.82 357.351 374.583C356.957 373.432 356.886 372.108 357.454 371.028C358.226 369.57 359.96 368.876 360.867 367.504C361.411 366.677 361.616 365.636 361.427 364.667C361.3 364.068 361.04 363.492 360.961 362.877C360.764 361.246 361.978 359.748 363.397 358.912C364.808 358.069 366.448 357.69 367.914 356.957C368.576 356.626 369.223 356.216 369.664 355.625C370.113 355.034 370.334 354.238 370.09 353.536C374.473 354.435 377.862 357.848 379.525 361.829C381.204 365.818 381.339 370.295 380.763 374.583C380.393 377.311 379.738 380.03 378.469 382.474C377.484 384.382 375.86 385.95 373.85 386.746C371.39 387.724 368.962 387.125 366.472 386.589C366.424 386.573 366.385 386.565 366.353 386.557Z" fill="#FEC8C8"/>
<path d="M359.685 372.242C359.685 370.5 361.017 369.089 362.664 369.089C364.312 369.089 365.644 370.5 365.644 372.242C365.644 373.984 364.312 375.395 362.664 375.395C361.017 375.387 359.685 373.976 359.685 372.242Z" fill="#FF9681"/>
<path d="M377.886 372.439C377.886 370.697 379.36 369.207 381.007 369.207C381.346 370.91 380.865 374.118 380.59 375.576C379.076 375.435 377.886 374.079 377.886 372.439Z" fill="#FF9681"/>
<path d="M369.184 361.482C368.569 361.23 367.883 361.246 367.221 361.324C366.362 361.427 365.424 361.703 364.967 362.444C364.896 362.554 364.88 362.743 365.006 362.767C365.045 362.775 365.093 362.759 365.132 362.735C365.361 362.625 365.566 362.475 365.81 362.325C366.709 361.774 367.86 361.782 368.892 362.018C369.01 362.05 369.129 362.073 369.247 362.057C369.365 362.042 369.483 361.955 369.499 361.837C369.523 361.671 369.342 361.545 369.184 361.482ZM378.155 361.789C378.044 361.655 377.894 361.561 377.737 361.49C377.177 361.23 376.499 361.238 375.939 361.514C375.876 361.545 375.805 361.584 375.766 361.64C375.727 361.695 375.703 361.782 375.742 361.845C375.798 361.931 375.924 361.939 376.026 361.931C376.633 361.892 377.272 361.939 377.8 362.239C378.06 362.389 378.202 362.286 378.304 362.262C378.328 362.097 378.265 361.923 378.155 361.789Z" fill="#392563"/>
<path d="M366.267 386.25C363.91 385.714 361.774 384.374 360.26 382.474C360.197 382.387 360.071 382.371 359.984 382.442C359.898 382.513 359.882 382.632 359.953 382.718C361.522 384.689 363.729 386.076 366.18 386.628C366.196 386.628 366.212 386.636 366.228 386.636C366.314 386.636 366.401 386.573 366.417 386.486C366.44 386.384 366.377 386.273 366.267 386.25ZM352.188 374.315C351.802 374.158 351.463 374.102 351.164 374.15C350.856 374.197 350.549 374.355 350.218 374.631C349.792 374.985 349.445 375.435 349.193 375.923C349.146 376.018 349.185 376.136 349.28 376.191C349.374 376.239 349.492 376.199 349.548 376.105C349.768 375.663 350.092 375.253 350.47 374.938C350.738 374.709 350.99 374.583 351.219 374.544C351.455 374.512 351.723 374.552 352.039 374.686C352.898 375.04 353.599 375.774 353.93 376.649C353.749 376.578 353.544 376.546 353.308 376.546C352.677 376.562 352.062 376.869 351.676 377.374C351.29 377.878 351.14 378.54 351.282 379.163C351.305 379.258 351.384 379.313 351.471 379.313C351.487 379.313 351.503 379.313 351.518 379.305C351.621 379.281 351.692 379.179 351.668 379.069C351.558 378.572 351.676 378.012 351.991 377.61C352.307 377.2 352.811 376.948 353.323 376.94C353.678 376.94 353.978 377.051 354.112 377.263C354.167 377.342 354.262 377.374 354.348 377.334C354.435 377.295 354.482 377.208 354.466 377.114C354.238 375.876 353.339 374.78 352.188 374.315Z" fill="black"/>
<path d="M371.051 371.312C371.808 370.792 372.872 370.752 373.668 371.217C373.795 371.296 373.921 371.383 374.071 371.414C374.22 371.446 374.394 371.406 374.465 371.272C374.496 371.209 374.504 371.138 374.496 371.067C374.48 370.453 373.976 369.948 373.432 369.656C372.935 369.396 372.376 369.247 371.816 369.294C370.87 369.373 369.995 370.035 369.672 370.926C369.617 371.083 369.569 371.249 369.601 371.414C369.625 371.58 369.735 371.738 369.893 371.785C370.232 371.879 370.571 371.643 371.051 371.312Z" fill="#FF9681"/>
<path d="M367.204 374.883C367.938 375.301 368.781 375.482 369.593 375.608C371.784 375.939 373.96 375.892 375.939 375.466C376.278 376.759 376.073 378.052 375.371 379.061C374.662 380.07 373.463 380.787 372.029 381.055C371.493 381.157 370.917 381.197 370.326 381.079C368.931 380.811 367.733 379.699 367.22 378.564C366.708 377.429 366.763 376.262 367.204 374.883Z" fill="#DB6501"/>
<path d="M375.347 375.584C373.534 375.9 371.572 375.908 369.601 375.608C369.002 375.513 368.387 375.387 367.812 375.167C367.969 375.703 368.497 376.246 369.12 376.562C369.94 376.972 370.854 377.066 371.729 377.106C372.612 377.137 373.503 377.114 374.26 376.861C374.882 376.641 375.418 376.176 375.347 375.584Z" fill="url(#paint4_linear_4035_48538)"/>
<path d="M371.501 378.201C370.003 377.602 368.324 377.476 366.984 377.862C367.04 378.099 367.118 378.328 367.221 378.564C367.733 379.707 368.931 380.811 370.327 381.079C370.91 381.189 371.493 381.157 372.029 381.055C372.731 380.921 373.369 380.684 373.929 380.361C373.827 379.999 373.606 379.628 373.299 379.313C372.818 378.832 372.163 378.469 371.501 378.201Z" fill="#FF9681"/>
<path d="M367.094 364.146C365.502 364.146 364.209 365.479 364.209 367.118C364.209 368.758 365.502 370.09 367.094 370.09C368.686 370.09 369.979 368.758 369.979 367.118C369.971 365.471 368.686 364.146 367.094 364.146ZM377.097 364.146C375.505 364.146 374.212 365.479 374.212 367.118C374.212 368.758 375.505 370.09 377.097 370.09C378.69 370.09 379.982 368.758 379.982 367.118C379.982 365.471 378.69 364.146 377.097 364.146Z" fill="url(#paint5_linear_4035_48538)"/>
<path d="M363.901 364.872C363.862 364.793 363.76 364.761 363.681 364.801C363.602 364.84 363.57 364.943 363.61 365.021C363.791 365.376 364.185 365.597 364.579 365.597C364.587 365.597 364.595 365.597 364.603 365.589C364.674 365.463 364.753 365.352 364.839 365.242C364.824 365.242 364.8 365.234 364.784 365.234C364.461 365.345 364.067 365.179 363.901 364.872ZM367.74 364.533C366.637 364.533 365.738 365.486 365.738 366.661C365.738 367.836 366.637 368.789 367.74 368.789C368.844 368.789 369.743 367.836 369.743 366.661C369.735 365.486 368.844 364.533 367.74 364.533ZM379.257 365.187C379.265 365.187 379.281 365.187 379.289 365.179C379.628 364.974 379.848 364.588 379.825 364.194C379.817 364.107 379.746 364.036 379.651 364.044C379.565 364.052 379.494 364.123 379.501 364.217C379.517 364.533 379.297 364.848 379.005 364.958C378.674 364.698 378.272 364.548 377.83 364.548C376.727 364.548 375.828 365.502 375.828 366.677C375.828 367.851 376.727 368.805 377.83 368.805C378.934 368.805 379.833 367.851 379.833 366.677C379.825 366.093 379.604 365.573 379.257 365.187Z" fill="black"/>
<path d="M429.085 358.676C429.172 358.518 429.259 358.337 429.196 358.187C429.093 357.935 428.731 357.95 428.47 358.045C427.477 358.392 426.642 359.07 425.861 359.795C425.081 360.52 424.34 361.293 423.654 362.097C424.293 360.938 424.939 359.779 425.585 358.621C425.846 358.155 426.106 357.667 426.114 357.123C425.601 356.8 424.963 357.217 424.513 357.627C422.905 359.117 421.478 360.804 420.272 362.633C418.853 363.768 417.513 365.014 416.457 366.48C415.156 368.301 414.329 370.413 413.517 372.502C412.886 374.11 412.263 375.734 411.633 377.342C413.32 378.816 415.401 379.833 417.592 380.282C419.342 379.652 420.69 378.146 421.731 376.585C422.842 374.93 423.733 373.101 425.105 371.651C426.169 370.516 427.501 369.633 428.4 368.364C428.581 368.104 428.746 367.772 428.628 367.481C428.423 366.992 427.706 367.126 427.217 367.347C425.404 368.174 423.678 369.176 422.062 370.342C422.874 369.223 423.528 368.017 424.166 366.779C425.704 365.534 427.564 364.619 428.675 362.988C428.786 362.822 428.888 362.641 428.849 362.452C428.809 362.255 428.612 362.113 428.407 362.073C428.21 362.034 427.998 362.089 427.808 362.144C427.257 362.31 426.744 362.546 426.24 362.814C426.476 362.404 426.728 362.01 426.996 361.624C427.682 360.631 428.47 359.708 429.085 358.676Z" fill="#FEC8C8"/>
<path d="M421.518 361.222C421.581 361.135 421.565 361.009 421.478 360.946C421.392 360.883 421.265 360.899 421.202 360.985C420.824 361.49 420.453 362.002 420.107 362.523C419.232 363.839 418.467 365.25 417.829 366.708C417.789 366.811 417.829 366.921 417.931 366.968C417.955 366.976 417.986 366.984 418.01 366.984C418.089 366.984 418.16 366.937 418.191 366.866C418.814 365.423 419.571 364.036 420.43 362.735C420.777 362.231 421.139 361.718 421.518 361.222ZM425.995 359.929C426.074 359.858 426.082 359.732 426.003 359.653C425.932 359.574 425.806 359.566 425.727 359.645C424.939 360.371 424.19 361.151 423.504 361.963C422.156 363.532 420.99 365.258 420.028 367.095C419.981 367.189 420.012 367.307 420.115 367.363C420.146 367.378 420.178 367.386 420.209 367.386C420.28 367.386 420.351 367.347 420.383 367.284C421.328 365.471 422.479 363.768 423.804 362.223C424.489 361.419 425.223 360.646 425.995 359.929ZM426.342 362.649C426.247 362.593 426.129 362.625 426.074 362.72C425.506 363.681 424.994 364.69 424.505 365.676C424.332 366.015 424.166 366.354 423.993 366.693C423.425 367.796 422.755 369.065 421.904 370.232C421.841 370.319 421.857 370.445 421.943 370.508C421.975 370.531 422.022 370.547 422.062 370.547C422.125 370.547 422.18 370.516 422.219 370.468C423.086 369.286 423.764 367.993 424.34 366.874C424.513 366.535 424.687 366.196 424.852 365.857C425.341 364.887 425.845 363.878 426.405 362.932C426.468 362.822 426.437 362.704 426.342 362.649Z" fill="black"/>
<path d="M317.268 469.595C313.736 472.566 309.96 475.176 305.782 477.154C295.235 482.144 283.182 482.609 271.516 482.546C269.198 482.53 266.881 482.507 264.563 482.459C263.609 476.532 264.477 470.32 266.999 464.873C270.058 464.558 273.108 464.132 276.127 463.541C282.173 462.358 288.204 460.474 293.217 456.888C302.117 450.526 306.957 439.482 316.259 433.728C317.031 433.239 317.875 432.79 318.797 432.735C319.617 432.679 320.421 432.955 321.201 433.223C331.039 436.597 340.885 439.987 350.73 443.361C347.427 454.428 344.132 465.496 340.829 476.571C339.103 482.349 337.314 488.269 333.703 493.101C330.408 497.508 325.805 500.732 321.146 503.648C312.727 508.922 303.843 513.447 294.62 517.152C289.867 513.045 287.045 506.746 287.132 500.456C290.718 498.635 294.289 496.822 297.868 495.001C301.502 493.156 305.199 491.272 308.147 488.458C313.303 483.555 315.557 476.547 317.268 469.595Z" fill="#354A6A"/>
<path d="M267.006 464.873C259.329 465.685 251.564 465.827 243.847 466.205C242.317 466.276 240.694 466.402 239.464 467.309C238.518 468.01 237.935 469.082 237.414 470.139C234.332 476.445 232.637 483.437 232.495 490.453C232.456 492.573 233.307 495.419 235.42 495.237C236.161 495.174 236.807 494.693 237.383 494.213C240.615 491.485 243.177 487.977 244.777 484.06C245.045 483.39 245.321 482.68 245.896 482.262C246.566 481.774 247.465 481.805 248.285 481.845C253.716 482.144 259.139 482.341 264.571 482.444C263.609 476.532 264.476 470.32 267.006 464.873ZM287.155 500.44C281.637 503.238 276.119 506.045 270.601 508.835C269.419 509.434 268.181 510.081 267.424 511.176C266.817 512.051 266.573 513.131 266.399 514.18C265.122 521.345 265.548 528.787 267.605 535.763C267.889 536.717 268.236 537.726 269.009 538.372C271.011 540.067 274.195 538.057 275.11 535.597C276.032 533.138 275.733 530.355 276.639 527.896C278.389 523.174 283.805 521.148 288.55 519.453C290.592 518.72 292.625 517.956 294.643 517.144C289.882 513.029 287.068 506.731 287.155 500.44Z" fill="#FFCECE"/>
<path d="M317.268 469.792C317.213 469.792 317.158 469.768 317.118 469.721C317.047 469.634 317.055 469.516 317.142 469.445C321.761 465.574 325.876 461.168 330.401 456.218C330.472 456.139 330.598 456.131 330.677 456.202C330.755 456.273 330.763 456.399 330.692 456.478C326.16 461.436 322.037 465.85 317.402 469.737C317.363 469.776 317.315 469.792 317.268 469.792Z" fill="black"/>
<path d="M419.878 379.802C419.657 379.1 419.058 378.596 418.467 378.162C416.212 376.451 413.193 374.977 410.678 376.254C409.835 376.68 409.165 377.366 408.495 378.036C402.811 383.735 396.284 388.693 388.882 391.878C381.48 395.055 373.172 396.387 365.273 394.842C365.439 394.046 365.478 393.336 365.384 392.635C365.36 392.446 365.329 392.256 365.21 392.107C364.982 391.791 364.532 391.752 364.138 391.728C360.52 391.555 356.973 390.199 354.159 387.929C353.741 387.59 353.268 387.204 352.732 387.267C352.503 387.29 352.29 387.401 352.101 387.519C351.526 387.897 351.045 388.425 350.745 389.04L350.659 388.993C348.042 389.624 345.377 389.978 342.697 390.238C339.331 390.57 335.934 390.735 332.575 391.082C326.529 391.697 320.349 392.95 315.367 396.434C312.325 398.563 309.873 401.424 307.642 404.388C304.134 409.063 301.092 414.108 298.821 419.484C298.12 421.123 297.497 422.928 297.97 424.631C298.664 427.098 301.32 428.368 303.732 429.227C304.497 429.495 305.301 429.763 306.105 429.645C306.846 429.534 307.492 429.109 308.091 428.651C313.286 424.647 315.73 417.592 321.421 414.328C323.14 413.343 325.063 412.768 327.002 412.365C322.391 417.868 318.528 424.001 315.549 430.527C315.005 431.726 314.477 433.011 314.626 434.327C314.784 435.643 315.62 436.794 316.558 437.74C318.426 439.632 320.759 441.004 323.148 442.194C329.375 445.308 336.123 447.381 343.028 448.303C345.984 448.697 349.326 448.776 351.557 446.805C353.489 445.111 354.04 442.391 354.821 439.947C356.681 434.13 360.307 429.069 363.634 423.945C366.022 420.28 368.308 416.425 369.68 412.31C378.572 411.104 387.558 409.646 395.567 405.657C405.491 400.723 413.248 392.186 419.074 382.75C419.633 381.851 420.193 380.803 419.878 379.802Z" fill="#5FBE7A"/>
<path d="M328.919 419.791C329.463 420.296 329.999 420.8 330.543 421.305C328.501 425.175 324.891 428.005 322.423 431.891C320.555 434.516 318.687 437.133 316.811 439.758C316.267 440.523 315.707 441.303 314.935 441.847C314.541 442.123 314.06 442.336 313.595 442.218C313.027 442.076 312.672 441.485 312.625 440.909C312.586 440.334 312.791 439.766 313.019 439.23C313.981 436.999 315.352 434.981 316.779 433.018C320.248 428.281 324.095 423.827 328.919 419.791Z" fill="url(#paint6_linear_4035_48538)"/>
<path d="M331.433 421.084C327.192 425.963 323.251 431.095 319.633 436.447C318.364 438.324 317.134 440.231 315.746 442.013C315.478 442.352 315.171 442.714 314.753 442.809C314.391 442.888 314.012 442.754 313.665 442.628C303.552 438.812 293.485 434.879 284.026 430.969C283.309 430.827 282.899 430.007 282.946 429.282C282.993 428.557 283.388 427.902 283.774 427.28C287.494 421.249 291.365 415.235 296.355 410.198C296.56 409.993 296.78 409.78 297.048 409.677C297.395 409.543 297.782 409.606 298.144 409.67C309.133 411.601 319.869 414.99 329.975 419.728C326.278 423.386 322.802 427.264 319.554 431.324C317.433 433.988 315.392 436.755 313.949 439.837C313.807 440.144 313.665 440.476 313.697 440.822C313.728 441.161 314.012 441.5 314.351 441.485C314.643 441.469 314.848 441.217 315.029 440.988C320.216 434.169 325.411 427.343 330.606 420.524C330.834 420.721 331.071 420.934 331.433 421.084Z" fill="#85DAE1"/>
<path d="M300.99 440.783C300.509 440.925 299.95 440.775 299.492 440.531C299.114 440.326 298.775 440.058 298.475 439.75C298.121 439.916 297.695 439.932 297.301 439.821C296.812 439.687 296.379 439.372 296.008 439.017C295.764 438.781 295.535 438.521 295.338 438.245C294.715 438.308 294.077 438.048 293.612 437.614C293.052 437.094 292.729 436.361 292.555 435.612C291.933 432.947 293.06 430.141 294.739 427.973C295.819 426.578 297.135 425.356 298.609 424.387C298.712 424.324 298.814 424.261 298.933 424.253C299.051 424.253 299.161 424.308 299.264 424.363C301.487 425.609 303.71 426.87 305.909 428.17C306.067 428.257 306.232 428.368 306.303 428.533C306.421 428.833 306.177 429.179 306.287 429.479C306.161 431.749 306.5 434.043 307.265 436.195C307.43 436.652 307.604 437.117 307.588 437.598C307.572 438.087 307.288 438.592 306.815 438.702C306.303 438.828 305.814 438.442 305.46 438.056C304.443 436.944 303.781 435.509 303.568 434.02C303.245 436.187 302.921 438.442 303.568 440.531C303.694 440.948 303.82 441.516 303.45 441.76C303.331 441.839 303.189 441.855 303.048 441.863C302.299 441.894 301.581 441.492 301.093 440.933C301.061 440.878 301.022 440.83 300.99 440.783Z" fill="#FEC8C8"/>
<path d="M295.504 438.126C294.739 437.086 294.353 435.809 294.416 434.548C294.424 434.437 294.337 434.343 294.227 434.343C294.117 434.343 294.022 434.422 294.022 434.532C293.959 435.888 294.369 437.251 295.181 438.363C295.37 438.639 295.606 438.907 295.874 439.167C295.914 439.206 295.961 439.222 296.008 439.222C296.064 439.222 296.111 439.199 296.15 439.159C296.229 439.08 296.221 438.954 296.15 438.883C295.898 438.631 295.685 438.379 295.504 438.126ZM301.25 440.791C301.219 440.751 301.18 440.712 301.148 440.657C300.793 440.2 300.517 439.632 300.281 438.867C299.934 437.748 299.753 436.581 299.737 435.415C299.737 435.304 299.65 435.218 299.54 435.218C299.43 435.218 299.343 435.304 299.343 435.415C299.359 436.621 299.54 437.819 299.903 438.978C300.147 439.798 300.446 440.405 300.833 440.893C300.864 440.941 300.912 440.996 300.951 441.043C300.99 441.09 301.046 441.114 301.101 441.114C301.148 441.114 301.195 441.098 301.227 441.067C301.306 440.996 301.321 440.878 301.25 440.791ZM297.593 438.032C297.222 437.165 297.025 436.179 296.954 434.918C296.946 434.808 296.868 434.729 296.749 434.729C296.639 434.737 296.56 434.831 296.56 434.934C296.631 436.242 296.844 437.267 297.23 438.174C297.506 438.828 297.885 439.419 298.342 439.876C298.381 439.916 298.428 439.932 298.484 439.932C298.531 439.932 298.586 439.916 298.625 439.876C298.704 439.798 298.704 439.679 298.625 439.601C298.2 439.191 297.845 438.647 297.593 438.032Z" fill="black"/>
<path d="M349.366 394.188C351.983 399.288 349.035 404.049 349.035 404.049C346.852 407.336 343.084 409.244 339.276 410.245C335.469 411.246 331.504 411.483 327.633 412.231C325.481 412.649 323.329 413.233 321.43 414.32C315.738 417.584 313.294 424.639 308.1 428.643C307.501 429.101 306.854 429.526 306.113 429.637C305.309 429.763 304.505 429.495 303.74 429.219C301.328 428.368 298.672 427.091 297.978 424.623C297.497 422.913 298.128 421.107 298.829 419.476C301.108 414.092 304.15 409.055 307.65 404.38C309.881 401.408 312.333 398.555 315.375 396.426C320.357 392.942 326.545 391.689 332.584 391.074C335.95 390.735 339.347 390.562 342.705 390.231C345.385 390.759 348.176 391.87 349.366 394.188Z" fill="#4BA765"/>
<path d="M312.191 324.204C311.694 322.777 310.969 321.374 309.802 320.412C308.636 319.451 306.957 319.001 305.569 319.593C304.08 320.223 303.26 321.808 302.629 323.298C300.225 328.942 298.64 335.004 295.204 340.088C294.415 341.255 293.493 342.39 292.232 343.012C291.893 348.223 292.05 352.267 292.736 356.232C292.894 357.17 293.138 358.187 293.903 358.754C294.455 359.164 295.172 359.259 295.85 359.322C299.807 359.685 304.198 359.29 307.075 356.539C309.361 354.348 310.252 351.069 310.559 347.916C310.867 344.762 310.709 341.554 311.363 338.456C311.765 336.564 312.459 334.736 312.829 332.836C313.366 329.966 313.153 326.963 312.191 324.204ZM293.32 311.3C293.58 310.425 293.548 309.495 293.485 308.58C293.351 306.633 293.099 304.686 292.72 302.771C292.571 302.022 292.397 301.249 291.956 300.627C291.585 300.106 291.049 299.72 290.663 299.208C289.922 298.23 289.812 296.93 289.67 295.708C289.244 291.987 288.251 288.195 285.894 285.287C283.529 282.378 279.548 280.565 275.946 281.598C275.465 281.732 274.992 281.929 274.629 282.268C274.054 282.811 273.849 283.647 273.802 284.435C273.66 286.65 274.464 288.795 274.976 290.954C276.119 295.771 275.812 300.918 274.109 305.561C275.544 309.881 277.089 313.168 278.673 316.432C278.839 316.779 279.028 317.141 279.351 317.346C279.73 317.59 280.21 317.559 280.66 317.519C283.403 317.251 286.107 316.566 288.645 315.501C290.639 314.65 292.705 313.373 293.32 311.3Z" fill="#FEC8C8"/>
<path d="M302.417 339.465C301.226 339.079 300.004 338.779 298.783 338.559C298.68 338.535 298.586 338.606 298.57 338.708C298.554 338.811 298.617 338.906 298.72 338.921C299.926 339.134 301.14 339.434 302.306 339.812C302.89 340.001 303.181 340.23 303.229 340.522C303.244 340.608 303.323 340.679 303.41 340.679C303.418 340.679 303.426 340.679 303.441 340.679C303.544 340.663 303.607 340.569 303.599 340.466C303.504 339.875 302.882 339.607 302.417 339.465ZM305.294 336.501C304.198 335.563 302.74 335.082 301.297 335.193C301.195 335.201 301.116 335.287 301.124 335.39C301.132 335.492 301.203 335.571 301.321 335.563C302.669 335.469 304.025 335.91 305.049 336.785C305.081 336.817 305.128 336.832 305.168 336.832C305.223 336.832 305.27 336.809 305.31 336.769C305.38 336.683 305.373 336.564 305.294 336.501ZM280.889 298.459C279.619 297.939 278.169 297.946 276.908 298.498C276.813 298.538 276.774 298.648 276.813 298.743C276.845 298.814 276.908 298.853 276.979 298.853C277.002 298.853 277.026 298.845 277.05 298.837C278.201 298.341 279.58 298.325 280.747 298.806C280.841 298.845 280.952 298.798 280.983 298.703C281.031 298.609 280.983 298.498 280.889 298.459ZM280.755 295.053C280.857 295.061 280.944 294.99 280.96 294.888C280.967 294.785 280.897 294.699 280.794 294.683C279.391 294.541 277.956 294.754 276.648 295.282C276.553 295.322 276.506 295.424 276.545 295.519C276.577 295.59 276.64 295.629 276.719 295.629C276.742 295.629 276.766 295.621 276.79 295.613C278.043 295.124 279.407 294.919 280.755 295.053Z" fill="black"/>
<path d="M254.608 333.908C252.897 335.382 251.344 337.085 250.154 339C251.407 338.212 252.724 337.51 254.119 336.935C264.729 332.497 276.821 335.815 287.818 339.166C290.466 339.978 293.194 340.821 295.322 342.595C297.766 344.636 299.185 347.845 299.051 351.014C298.925 354.19 297.238 357.265 294.644 359.101C291.578 361.253 287.636 361.592 283.9 361.868C278.721 362.247 273.542 362.617 268.363 362.995C266.905 363.106 265.399 363.224 264.114 363.918C262.057 365.037 261.016 367.362 260.055 369.499C256.444 377.492 251.912 385.059 246.559 392.004C242.783 396.915 238.55 401.558 233.411 405.011C228.271 408.463 222.13 410.671 215.95 410.355C207.098 409.898 199.317 404.467 192.846 398.373C200.957 387.645 205.482 374.252 205.505 360.82C210.306 356.768 213.333 351.021 215.729 345.204C218.126 339.386 220.002 333.325 223.021 327.807C224.621 324.874 226.568 322.076 229.099 319.876C231.621 317.677 234.672 316.14 237.825 314.997C242.791 313.208 248.049 312.38 253.157 311.087C258.115 309.826 262.955 308.139 267.614 306.034C269.624 305.12 271.76 304.111 273.944 304.458C275.253 304.663 276.435 305.348 277.476 306.176C279.068 307.453 280.369 309.109 281.236 310.969C282.063 312.742 282.489 314.871 281.646 316.637C280.857 318.308 279.155 319.309 277.546 320.208C273.148 322.667 268.757 325.119 264.351 327.57C260.969 329.454 257.556 331.37 254.608 333.908Z" fill="#354A6A"/>
<path d="M251.983 333.246C251.998 333.309 252.054 333.34 252.117 333.34C252.132 333.34 252.148 333.34 252.156 333.332C252.227 333.309 252.266 333.23 252.243 333.159C251.896 332.071 251.36 331.038 250.643 330.1C250.595 330.037 250.509 330.029 250.446 330.077C250.382 330.124 250.375 330.211 250.422 330.274C251.123 331.188 251.644 332.189 251.983 333.246ZM247.521 330.684C249.121 331.299 250.469 332.615 251.123 334.207C251.147 334.263 251.194 334.294 251.25 334.294C251.265 334.294 251.281 334.294 251.305 334.286C251.376 334.255 251.407 334.176 251.384 334.105C250.706 332.45 249.303 331.07 247.624 330.432C247.553 330.408 247.474 330.439 247.442 330.51C247.419 330.581 247.45 330.66 247.521 330.684ZM260.181 354.001C260.126 353.946 260.039 353.938 259.984 353.993C259.929 354.048 259.929 354.135 259.976 354.19C260.733 355.01 261.292 356.114 261.639 357.477C261.931 358.636 262.033 359.803 262.144 361.206C262.152 361.277 262.207 361.332 262.278 361.332H262.286C262.364 361.324 262.42 361.261 262.412 361.182C262.301 359.763 262.199 358.589 261.899 357.406C261.552 355.995 260.969 354.852 260.181 354.001ZM254.072 336.801C252.732 337.36 251.391 338.054 250.083 338.882C244.841 342.169 240.624 347.104 236.54 351.889C233.726 355.184 230.817 358.589 227.585 361.45C225.496 361.647 222.406 362.034 219.616 363.161C219.545 363.192 219.513 363.271 219.537 363.342C219.561 363.397 219.608 363.429 219.663 363.429C219.679 363.429 219.695 363.429 219.718 363.421C222.501 362.302 225.575 361.915 227.656 361.726C227.688 361.726 227.712 361.71 227.735 361.695C230.999 358.81 233.923 355.388 236.753 352.078C240.821 347.316 245.03 342.39 250.233 339.134C251.525 338.322 252.858 337.629 254.182 337.077C254.253 337.045 254.284 336.966 254.253 336.895C254.221 336.801 254.135 336.769 254.072 336.801ZM263.499 354.261C263.476 354.19 263.397 354.151 263.326 354.175C263.255 354.198 263.216 354.277 263.239 354.348C263.815 356.082 263.972 357.958 263.704 359.771C263.697 359.85 263.744 359.913 263.823 359.929C263.831 359.929 263.838 359.929 263.846 359.929C263.917 359.929 263.972 359.882 263.98 359.811C264.256 357.95 264.091 356.035 263.499 354.261Z" fill="black"/>
<path d="M246.519 320.026C246.575 320.081 246.614 320.129 246.661 320.192C239.969 329.115 234.782 339.071 230.076 349.193C224.526 345.653 218.07 343.572 211.504 343.202V343.186C211.015 342.949 210.534 342.729 210.038 342.516C204.488 340.072 198.482 338.795 192.53 337.526C192.853 336.998 193.169 336.462 193.484 335.926C194.201 334.696 194.903 333.443 195.581 332.189C195.439 332.142 195.305 332.118 195.163 332.087C194.075 333.758 191.702 337.692 190.906 339.134C197.741 339.741 204.496 341.199 210.968 343.47C211.11 343.517 211.244 343.556 211.37 343.612C218.165 344.502 224.723 346.843 230.462 350.477C236.217 340.458 240.86 329.761 247.497 320.302C247.189 320.184 246.858 320.089 246.519 320.026Z" fill="#F2B212"/>
<path d="M246.52 320.026C246.126 319.593 245.558 319.348 244.951 319.246C244.943 319.238 244.943 319.238 244.935 319.246C244.604 319.183 244.265 319.159 243.934 319.167C243.548 319.175 243.169 319.206 242.791 319.238C242.957 318.994 243.13 318.749 243.296 318.513C241.475 317.717 239.433 317.63 237.454 317.709C232.094 317.945 226.371 319.411 223.242 320.838C220.964 316.132 217.432 313.42 212.663 311.261C211.228 310.606 209.699 309.999 208.635 308.833C207.382 311.828 205.671 314.603 203.945 317.346C200.862 322.265 197.717 327.144 194.517 331.984C194.73 332.016 194.95 332.047 195.155 332.087C195.297 332.118 195.431 332.142 195.573 332.189C194.895 333.451 194.194 334.696 193.476 335.926C193.161 336.462 192.846 336.998 192.522 337.526C198.466 338.795 204.481 340.072 210.03 342.516C210.527 342.729 211.008 342.949 211.496 343.186V343.202C218.063 343.572 224.519 345.653 230.068 349.193C234.766 339.071 239.953 329.115 246.654 320.192C246.614 320.129 246.575 320.081 246.52 320.026Z" fill="#FAE5D2"/>
<path d="M224.274 326.159C224.29 326.159 224.298 326.159 224.314 326.151C225.646 325.741 227.049 325.552 228.46 325.607C228.98 325.631 229.508 325.694 229.887 325.993C229.95 326.041 230.029 326.033 230.084 325.97C230.131 325.907 230.123 325.82 230.06 325.773C229.619 325.418 229.035 325.347 228.468 325.323C227.025 325.276 225.591 325.457 224.227 325.883C224.156 325.907 224.117 325.986 224.132 326.057C224.164 326.127 224.219 326.159 224.274 326.159ZM212.024 340.529C212.048 340.545 212.072 340.545 212.095 340.545C212.143 340.545 212.19 340.521 212.214 340.474C213.956 337.368 215.903 333.979 217.787 330.692C219.671 327.405 221.626 324.007 223.368 320.901C223.407 320.838 223.383 320.751 223.313 320.712C223.249 320.673 223.163 320.696 223.123 320.767C221.381 323.881 219.434 327.271 217.542 330.558C215.658 333.837 213.711 337.234 211.969 340.34C211.938 340.411 211.961 340.49 212.024 340.529ZM212.655 324.48C211.283 323.715 210.022 322.777 208.911 321.682C208.855 321.626 208.769 321.626 208.714 321.682C208.658 321.737 208.658 321.823 208.714 321.879C209.849 322.99 211.126 323.944 212.521 324.716C212.545 324.732 212.568 324.732 212.592 324.732C212.639 324.732 212.686 324.709 212.71 324.661C212.742 324.606 212.718 324.519 212.655 324.48ZM231.424 329.588C231.487 329.588 231.542 329.549 231.558 329.486C231.574 329.415 231.534 329.336 231.455 329.32C228.129 328.516 224.621 328.508 221.31 329.304C221.239 329.32 221.192 329.399 221.208 329.47C221.224 329.541 221.302 329.596 221.373 329.572C224.645 328.784 228.105 328.792 231.392 329.588C231.4 329.588 231.408 329.588 231.424 329.588ZM227.459 332.859C227.475 332.781 227.419 332.71 227.341 332.702C225.141 332.347 222.832 332.434 220.672 332.946C220.601 332.962 220.554 333.041 220.569 333.112C220.585 333.175 220.64 333.214 220.703 333.214C220.711 333.214 220.727 333.214 220.735 333.214C222.863 332.71 225.126 332.623 227.293 332.97C227.38 332.986 227.451 332.938 227.459 332.859ZM224.479 324.196C224.495 324.196 224.511 324.196 224.526 324.188C227.68 323.006 231.227 322.73 234.506 323.432C234.585 323.447 234.656 323.4 234.672 323.321C234.687 323.25 234.64 323.171 234.561 323.156C231.227 322.446 227.632 322.722 224.424 323.928C224.353 323.952 224.314 324.039 224.345 324.109C224.369 324.165 224.424 324.196 224.479 324.196ZM220.23 336.383C220.152 336.391 220.096 336.454 220.104 336.533C220.112 336.604 220.167 336.667 220.254 336.659C222.162 336.533 224.101 336.556 226.04 336.714H226.048C226.119 336.714 226.182 336.659 226.182 336.588C226.19 336.509 226.135 336.446 226.056 336.438C224.109 336.281 222.146 336.265 220.23 336.383ZM209.723 315.328C212.087 316.124 214.271 317.322 216.21 318.883C216.234 318.907 216.265 318.915 216.297 318.915C216.336 318.915 216.376 318.899 216.407 318.86C216.454 318.796 216.447 318.71 216.384 318.662C214.421 317.078 212.214 315.872 209.817 315.06C209.746 315.036 209.667 315.076 209.644 315.147C209.612 315.226 209.652 315.297 209.723 315.328ZM245.038 319.135C244.974 319.088 244.888 319.104 244.848 319.167C238.558 327.688 233.899 337.424 229.398 346.844L229.359 346.93C229.327 347.001 229.359 347.08 229.422 347.112C229.437 347.119 229.461 347.127 229.485 347.127C229.54 347.127 229.587 347.096 229.611 347.048L229.65 346.962C234.151 337.558 238.802 327.83 245.077 319.333C245.108 319.269 245.093 319.183 245.038 319.135ZM243.422 318.592C243.469 318.528 243.453 318.442 243.39 318.402C243.327 318.355 243.24 318.371 243.201 318.434L242.696 319.159C236.847 327.57 231.913 336.643 228.042 346.118C223.722 342.697 217.897 341.192 212.426 342.082C212.158 342.122 211.882 342.177 211.614 342.232C210.361 341.98 209.108 341.452 207.783 340.608C206.128 339.544 204.575 338.125 203.33 336.982C200.933 334.799 198.545 332.773 195.636 332.047C195.565 332.024 195.486 332.071 195.47 332.15C195.455 332.221 195.494 332.3 195.573 332.315C198.419 333.025 200.783 335.027 203.148 337.187C204.212 338.157 205.497 339.323 206.885 340.317C204.11 338.614 200.854 336.872 197.213 336.044C195.699 335.705 194.548 335.626 193.5 335.792C193.492 335.792 193.452 335.8 193.445 335.8C193.374 335.8 193.311 335.863 193.311 335.934C193.311 336.013 193.374 336.068 193.445 336.068C193.46 336.068 193.476 336.068 193.515 336.06C194.548 335.894 195.668 335.973 197.142 336.312C199.664 336.888 202.005 337.912 204.134 339.055C202.872 338.543 201.619 338.031 200.366 337.526C200.295 337.495 200.216 337.534 200.184 337.605C200.153 337.676 200.192 337.755 200.263 337.786C201.58 338.322 202.896 338.858 204.22 339.394C204.236 339.402 204.252 339.402 204.276 339.402C204.331 339.402 204.378 339.371 204.402 339.315C204.417 339.276 204.41 339.237 204.394 339.197C205.489 339.796 206.538 340.427 207.507 341.034C207.531 341.05 207.555 341.058 207.578 341.058C207.626 341.058 207.665 341.034 207.697 340.994C207.712 340.963 207.72 340.931 207.712 340.9C208.974 341.696 210.18 342.201 211.386 342.469C211.417 342.516 211.465 342.555 211.528 342.539L211.638 342.516C211.914 342.461 212.19 342.405 212.474 342.366C217.929 341.475 223.738 343.005 228.019 346.457C228.042 346.481 228.074 346.489 228.105 346.489C228.113 346.489 228.129 346.489 228.137 346.489C228.176 346.481 228.216 346.449 228.231 346.41C232.11 336.888 237.052 327.775 242.925 319.333L243.422 318.592ZM237.391 332.907C236.288 334.775 235.263 336.627 234.356 338.417C234.325 338.488 234.348 338.567 234.419 338.606C234.443 338.614 234.459 338.622 234.482 338.622C234.53 338.622 234.585 338.59 234.609 338.543C235.515 336.761 236.532 334.909 237.636 333.049C237.675 332.986 237.651 332.899 237.588 332.859C237.509 332.82 237.431 332.844 237.391 332.907ZM208.028 318.347C210.605 319.396 213.081 320.744 215.375 322.344C215.398 322.36 215.43 322.367 215.453 322.367C215.501 322.367 215.54 322.344 215.564 322.312C215.611 322.249 215.595 322.162 215.532 322.123C213.223 320.515 210.732 319.159 208.13 318.095C208.059 318.063 207.98 318.103 207.949 318.174C207.925 318.237 207.957 318.316 208.028 318.347ZM243.674 322.612C241.837 325.221 240.15 327.988 238.66 330.826C238.629 330.897 238.652 330.975 238.716 331.015C238.739 331.023 238.755 331.031 238.779 331.031C238.826 331.031 238.873 331.007 238.905 330.96C240.387 328.13 242.066 325.379 243.895 322.777C243.942 322.714 243.926 322.628 243.863 322.588C243.8 322.533 243.713 322.549 243.674 322.612ZM200.31 338.385C199.979 338.259 199.64 338.157 199.278 338.054L198.356 337.786C198.001 337.684 197.638 337.573 197.283 337.471C196.338 337.187 195.265 336.88 194.178 336.951C194.099 336.958 194.044 337.022 194.052 337.1C194.059 337.179 194.122 337.234 194.201 337.226C195.242 337.148 196.282 337.463 197.205 337.739C197.559 337.841 197.922 337.944 198.277 338.054L199.223 338.33C199.554 338.433 199.893 338.527 200.208 338.653C200.224 338.661 200.24 338.661 200.255 338.661C200.31 338.661 200.366 338.63 200.381 338.574C200.421 338.496 200.381 338.417 200.31 338.385ZM205.363 322.486C208.044 323.534 210.385 325.292 212.143 327.546C212.166 327.578 212.214 327.602 212.253 327.602C212.284 327.602 212.316 327.594 212.34 327.57C212.403 327.523 212.411 327.436 212.363 327.373C210.574 325.071 208.193 323.29 205.466 322.226C205.395 322.202 205.316 322.233 205.285 322.304C205.253 322.383 205.292 322.462 205.363 322.486ZM207.555 333.033C207.578 333.064 207.618 333.072 207.649 333.072C207.681 333.072 207.72 333.056 207.744 333.033C207.799 332.978 207.799 332.891 207.744 332.836C206.483 331.575 205.04 330.518 203.456 329.706C203.385 329.675 203.306 329.698 203.267 329.769C203.235 329.84 203.259 329.919 203.33 329.959C204.898 330.747 206.317 331.787 207.555 333.033ZM199.223 329.761C200.334 329.974 201.469 330.51 202.596 331.354C203.598 332.103 204.473 333.017 205.355 333.955C205.379 333.987 205.419 333.995 205.458 333.995C205.489 333.995 205.529 333.979 205.553 333.955C205.608 333.9 205.608 333.813 205.56 333.758C204.67 332.804 203.787 331.89 202.77 331.125C201.611 330.25 200.437 329.698 199.286 329.478C199.215 329.462 199.136 329.509 199.128 329.588C199.097 329.683 199.144 329.754 199.223 329.761Z" fill="black"/>
<path d="M212.521 343.769C212.324 343.391 212.048 343.052 211.732 342.752C212.229 341.649 212.631 340.482 212.718 339.268C212.804 338.062 212.56 336.793 211.874 335.792C211.78 335.65 211.661 335.508 211.496 335.469C211.291 335.413 211.086 335.547 210.968 335.729C210.857 335.902 210.818 336.115 210.786 336.32C210.416 338.275 209.667 340.159 208.587 341.822C208.43 342.059 208.272 342.295 208.114 342.532C207.807 342.981 207.507 343.43 207.287 343.919C206.553 345.559 206.672 347.529 205.71 349.066L211.07 351.936C211.07 351.936 214.988 349.934 217.786 344.896C216.068 344.423 214.302 344.045 212.521 343.769Z" fill="#FEC8C8"/>
<path d="M212.639 343.706C212.449 343.359 212.197 343.02 211.898 342.721C212.473 341.436 212.781 340.332 212.851 339.276C212.946 337.936 212.639 336.667 211.984 335.713C211.874 335.555 211.732 335.382 211.527 335.335C211.283 335.272 211.015 335.398 210.849 335.65C210.731 335.847 210.684 336.068 210.644 336.288C210.282 338.22 209.525 340.104 208.469 341.743C208.398 341.854 208.319 341.972 208.24 342.082C208.161 342.208 208.075 342.327 207.996 342.445C207.712 342.855 207.397 343.336 207.16 343.856C206.829 344.597 206.663 345.401 206.506 346.189C206.309 347.151 206.112 348.152 205.591 348.988C205.552 349.051 205.568 349.137 205.639 349.177C205.662 349.193 205.686 349.2 205.71 349.2C205.757 349.2 205.804 349.177 205.828 349.137C206.372 348.255 206.577 347.238 206.782 346.244C206.939 345.48 207.097 344.684 207.412 343.974C207.641 343.47 207.948 343.005 208.224 342.603C208.303 342.484 208.39 342.358 208.469 342.24C208.547 342.13 208.618 342.011 208.697 341.901C209.777 340.238 210.55 338.314 210.92 336.328C210.952 336.147 210.991 335.957 211.078 335.808C211.165 335.681 211.314 335.571 211.464 335.611C211.574 335.634 211.677 335.76 211.756 335.879C212.379 336.777 212.67 337.983 212.576 339.26C212.497 340.309 212.189 341.404 211.598 342.697C211.574 342.752 211.582 342.815 211.63 342.855C211.945 343.147 212.205 343.485 212.386 343.832C212.899 344.762 213.017 345.858 212.717 346.828C212.694 346.899 212.733 346.978 212.812 347.001C212.883 347.025 212.962 346.985 212.986 346.907C213.317 345.874 213.183 344.699 212.639 343.706Z" fill="black"/>
<path d="M202.912 350.422C203.275 349.673 203.732 348.846 204.536 348.649C204.93 348.554 205.348 348.633 205.742 348.72C207.216 349.066 208.643 349.595 209.983 350.304C210.858 350.769 211.709 351.321 212.324 352.093C212.458 352.267 212.584 352.448 212.632 352.661C212.726 353.047 212.553 353.441 212.356 353.788C211.977 354.466 211.512 355.105 210.976 355.664C208.249 354.041 205.569 352.338 202.912 350.422Z" fill="#392563"/>
<path d="M202.51 349.666C205.411 350.044 208.193 351.321 210.385 353.26C211.102 353.899 211.788 354.679 211.875 355.633C211.93 356.303 211.678 356.957 211.425 357.588C208.367 365.029 204.276 372.045 199.302 378.375C195.81 382.813 191.703 387.046 186.429 389.072C183.899 390.041 181.187 390.467 178.483 390.672C176.284 390.837 174.029 390.853 171.917 390.215C169.244 389.411 166.958 387.582 165.201 385.414C163.451 383.238 162.181 380.716 161.046 378.162C159.218 374.039 157.688 369.775 156.49 365.423C155.308 361.159 154.441 356.65 155.379 352.33C155.773 350.501 156.506 348.712 157.736 347.293C159.47 345.298 162.047 344.211 164.641 343.698C166.501 343.336 168.464 343.233 170.261 343.84C173.864 345.054 176 348.775 177.056 352.425C178.113 356.074 178.42 359.953 179.989 363.413C180.422 364.367 181.069 365.376 182.101 365.565C183.134 365.754 184.088 365.045 184.884 364.359C190.607 359.361 195.455 353.134 202.51 349.666Z" fill="#F0898A"/>
<path d="M161.851 329.848C161.456 330.045 161.023 330.156 160.629 330.006C160.203 329.84 159.998 329.241 160.187 328.894C160.266 328.839 160.353 328.76 160.439 328.682C160.329 328.729 160.242 328.8 160.187 328.894C159.107 329.769 157.933 329.47 157.625 328.752C157.294 327.988 157.515 327.105 157.405 326.277C157.105 324.117 154.764 322.998 152.88 321.91C146.069 317.961 142.23 309.589 143.365 301.793C144.5 294.005 150.381 287.179 157.807 284.585C159.848 283.868 162.048 283.45 164.16 283.876C164.956 284.041 165.768 284.317 166.557 284.12C167.037 283.994 167.447 283.718 167.865 283.45C172.784 280.328 179.287 279.863 184.608 282.252C189.929 284.64 193.902 289.804 194.84 295.558C195.084 297.04 195.132 298.569 194.738 300.012C194.548 300.705 194.241 301.383 193.689 301.833C193.145 302.29 192.31 302.448 191.703 302.085C191.687 302.109 191.671 302.14 191.648 302.156C189.574 305.285 185.192 306.31 181.565 305.293C179.744 304.781 178.05 303.835 176.189 303.488C174.329 303.133 172.106 303.583 171.152 305.222C170.435 306.436 170.608 307.95 170.671 309.361C170.727 310.772 170.561 312.38 169.442 313.247C169.221 313.413 168.945 313.554 168.669 313.531C168.204 313.491 167.881 313.05 167.692 312.624C166.943 310.914 167.132 308.588 165.579 307.548C164.003 306.499 161.701 307.8 161.165 309.605C160.629 311.418 161.37 313.365 162.371 314.965C163.364 316.566 164.641 318.024 165.335 319.774C166.706 323.235 165.343 327.562 162.237 329.612C162.126 329.706 161.992 329.785 161.851 329.848Z" fill="#463748"/>
<path d="M162.387 314.973C161.386 313.373 160.645 311.418 161.181 309.613C161.717 307.8 164.018 306.499 165.595 307.556C167.148 308.604 166.959 310.922 167.708 312.632C167.897 313.058 168.22 313.499 168.685 313.539C168.961 313.562 169.237 313.42 169.458 313.255C170.577 312.388 170.742 310.78 170.687 309.369C170.624 307.966 170.451 306.444 171.168 305.23C172.122 303.591 174.345 303.141 176.205 303.496C178.066 303.843 179.768 304.781 181.581 305.301C185.207 306.326 189.59 305.293 191.663 302.164C191.987 305.214 193.484 308.139 195.778 310.173C196.164 310.512 196.598 310.874 196.685 311.379C196.771 311.907 196.44 312.411 196.172 312.876C195.069 314.729 194.627 316.897 194.28 319.025C193.934 321.161 193.673 323.329 192.901 325.347C192.121 327.357 190.741 329.249 188.755 330.1C187.21 330.763 185.46 330.739 183.773 330.707C182.086 330.668 180.344 330.629 178.783 331.267C177.214 331.898 175.874 333.411 175.984 335.082L161.48 332.41L161.866 329.848C162.008 329.785 162.142 329.698 162.26 329.62C165.366 327.578 166.73 323.242 165.358 319.782C164.657 318.032 163.38 316.574 162.387 314.973Z" fill="#FEC8C8"/>
<path d="M165.611 310.914C165.178 310.252 164.531 309.849 163.869 309.842C163.475 309.842 163.065 310.023 162.781 310.322C162.545 310.583 162.419 310.898 162.442 311.213C162.45 311.292 162.513 311.339 162.592 311.339C162.671 311.331 162.726 311.268 162.718 311.19C162.702 310.953 162.797 310.709 162.986 310.512C163.215 310.267 163.554 310.118 163.869 310.118C164.531 310.125 165.083 310.614 165.383 311.063C165.651 311.473 165.816 311.954 165.942 312.419C165.674 312.262 165.335 312.199 165.012 312.277C164.563 312.388 164.176 312.735 163.972 313.208C163.798 313.625 163.79 314.114 163.932 314.595C163.948 314.658 164.003 314.697 164.066 314.697C164.082 314.697 164.09 314.697 164.106 314.69C164.176 314.666 164.224 314.587 164.2 314.516C164.074 314.098 164.09 313.665 164.232 313.31C164.389 312.924 164.72 312.632 165.075 312.545C165.469 312.459 165.887 312.616 166.084 312.924C166.124 312.979 166.194 313.003 166.258 312.979C166.321 312.955 166.352 312.884 166.336 312.821C166.179 312.206 166.005 311.513 165.611 310.914Z" fill="black"/>
<path d="M183.528 316.834C183.528 319.514 181.25 321.689 178.444 321.689C175.638 321.689 173.359 319.514 173.359 316.834C173.359 314.154 175.638 311.978 178.444 311.978C181.258 311.97 183.528 314.146 183.528 316.834Z" fill="#FF9681"/>
<path d="M191.245 309.384C191.142 309.085 190.985 308.817 190.796 308.565C190.212 307.8 189.361 307.232 188.415 307.051C187.469 306.87 186.444 307.098 185.687 307.69C184.734 308.438 184.284 309.156 184.111 309.952C183.938 310.748 184.072 311.631 184.537 312.301C184.773 312.64 185.081 312.916 185.419 313.152C186.066 313.602 186.823 313.909 187.603 313.972C188.391 314.035 189.203 313.838 189.834 313.365C190.433 312.916 190.851 312.254 191.103 311.552C191.363 310.859 191.481 310.078 191.245 309.384Z" fill="url(#paint7_linear_4035_48538)"/>
<path d="M191.111 311.552C191.293 311.048 191.403 310.504 191.364 309.976C191.364 309.952 191.364 309.92 191.356 309.897C191.324 309.708 191.285 309.518 191.222 309.329C191.119 309.053 190.969 308.801 190.788 308.565C190.512 308.202 190.173 307.879 189.787 307.627C189.007 307.382 188.14 307.398 187.391 307.713C186.602 308.052 185.956 308.722 185.696 309.542C185.436 310.362 185.586 311.308 186.122 311.978C186.342 312.254 186.626 312.482 186.933 312.679C187.698 313.16 188.668 313.397 189.527 313.105C189.905 312.979 190.252 312.743 190.536 312.459C190.725 312.262 190.891 312.041 191.017 311.797C191.048 311.718 191.08 311.631 191.111 311.552Z" fill="black"/>
<path d="M157.136 336.556C158.516 335.406 158.169 332.867 159.714 331.961C160.187 331.685 160.755 331.622 161.298 331.582C165.729 331.243 170.214 331.716 174.471 332.978C176.276 333.514 178.341 334.546 178.499 336.422C178.601 337.66 177.805 338.929 178.239 340.088C178.633 341.144 179.855 341.586 180.895 341.996C189.038 345.22 194.233 353.733 202.455 356.744C204.268 357.407 206.215 357.801 207.791 358.904C210.022 360.457 211.141 363.161 211.819 365.794C213.632 372.873 212.947 380.629 209.589 387.117C206.23 393.604 200.145 398.712 193.074 400.533C191.632 400.904 190.086 401.14 188.652 400.715C187.099 400.25 185.885 399.067 184.695 397.971C179.129 392.863 172.697 388.819 166.667 384.279C160.636 379.731 154.882 374.504 151.382 367.812C147.882 361.119 146.968 352.7 150.586 346.079C152.296 342.965 153.715 339.41 157.136 336.556Z" fill="#5FBE7A"/>
<path d="M215.391 409.504C215.17 409.07 215.194 408.558 215.099 408.077C214.823 406.777 213.633 405.831 212.372 405.413C211.111 404.987 209.755 404.971 208.431 404.822C207.106 404.68 205.735 404.372 204.733 403.489C204.087 402.922 203.646 402.157 202.991 401.597C201.777 400.565 200.067 400.423 198.482 400.32L198.679 390.428C200.035 390.538 201.375 390.814 202.652 391.239C203.188 391.413 203.724 391.626 204.292 391.689C204.836 391.744 205.388 391.673 205.94 391.657C206.925 391.618 207.918 391.768 208.903 391.728C210.717 391.665 212.459 391.011 214.256 390.861C214.532 390.83 214.847 390.837 215.028 391.035C215.328 391.358 215.06 391.878 214.753 392.193C214.193 392.792 213.531 393.281 212.805 393.652C214.39 394.322 215.903 395.22 217.378 396.095C219.403 397.301 221.5 398.578 222.746 400.573C222.84 400.73 222.935 400.888 222.951 401.069C222.998 401.566 222.407 401.929 221.902 401.866C221.406 401.802 220.988 401.463 220.594 401.148C219.805 400.541 218.946 400.037 218.04 399.635C218.292 400.462 218.063 401.732 217.827 402.654V402.662C217.843 403.04 217.795 403.411 217.716 403.781C217.551 404.498 217.236 405.168 216.897 405.823C217.007 407.013 217.125 408.227 216.826 409.386C216.778 409.559 216.723 409.756 216.589 409.882C216.234 410.237 215.612 409.945 215.391 409.504Z" fill="#FEC8C8"/>
<path d="M212.797 393.801C212.852 393.801 212.899 393.77 212.923 393.715C212.954 393.644 212.923 393.565 212.852 393.533C211.26 392.848 209.793 392.477 208.359 392.406C208.272 392.406 208.217 392.461 208.217 392.54C208.217 392.619 208.272 392.682 208.351 392.682C209.746 392.753 211.189 393.116 212.749 393.794C212.765 393.801 212.781 393.801 212.797 393.801ZM214.452 401.802C213.9 401.416 213.325 401.006 212.876 400.518C212.828 400.462 212.734 400.455 212.678 400.51C212.623 400.565 212.615 400.652 212.671 400.707C213.144 401.219 213.727 401.629 214.294 402.031C215.185 402.662 216.029 403.253 216.431 404.191C216.644 404.695 216.699 405.263 216.762 405.846C216.762 405.925 216.825 405.957 216.896 405.957C216.975 405.957 217.03 405.862 217.03 405.791C216.975 405.224 216.912 404.632 216.683 404.088C216.257 403.064 215.343 402.425 214.452 401.802ZM218.015 399.256C217.621 398.594 216.927 398.184 216.368 397.845C214.949 396.986 213.341 396.009 211.567 395.678C211.488 395.662 211.417 395.709 211.409 395.788C211.394 395.859 211.441 395.938 211.52 395.946C213.246 396.269 214.83 397.23 216.226 398.074C216.762 398.389 217.424 398.783 217.779 399.39C217.826 399.469 217.865 399.564 217.905 399.69C217.921 399.753 217.976 399.792 218.039 399.792C218.055 399.792 218.062 399.792 218.078 399.784C218.149 399.761 218.196 399.682 218.173 399.611C218.125 399.469 218.078 399.351 218.015 399.256ZM216.1 399.777C215.138 399.122 214.097 398.578 213.01 398.168C212.939 398.145 212.86 398.176 212.828 398.247C212.805 398.318 212.836 398.397 212.907 398.429C213.971 398.839 214.988 399.367 215.942 400.013C216.431 400.336 216.975 400.746 217.298 401.298C217.534 401.692 217.668 402.157 217.684 402.685H217.818L217.952 402.677C217.936 402.102 217.794 401.598 217.526 401.164C217.18 400.549 216.612 400.116 216.1 399.777Z" fill="black"/>
<path d="M198.127 389.521C198.127 389.521 200.571 389.584 201.083 390.435C201.588 391.287 202.179 394.708 202.013 397.238C201.848 399.769 201.548 400.549 201.059 400.667C200.579 400.786 199.057 400.667 199.057 400.667L198.127 389.521Z" fill="#392563"/>
<path d="M199.475 390.081C200.657 393.21 200.839 396.71 199.987 399.942C199.901 400.289 199.774 400.652 199.491 400.857C199.294 400.998 199.049 401.054 198.813 401.093C195.604 401.716 192.372 402.268 189.133 402.741C182.732 403.679 176.11 404.301 169.875 402.599C167.873 402.055 165.886 401.243 164.349 399.84C162.56 398.208 161.511 395.906 160.81 393.589C159.698 389.939 159.304 386.116 158.989 382.308C158.532 376.798 158.224 371.28 158.059 365.754C157.964 362.562 157.925 359.346 158.555 356.216C159.186 353.087 160.55 350.028 162.891 347.853C165.232 345.685 168.645 344.534 171.72 345.385C174.179 346.063 176.189 347.931 177.474 350.131C178.759 352.33 179.397 354.852 179.807 357.375C180.935 364.351 180.422 371.469 179.878 378.517C179.768 379.912 179.689 381.41 180.446 382.584C181.171 383.711 182.495 384.263 183.757 384.72C187.193 385.958 190.725 386.936 194.312 387.621C196.188 388.008 198.75 388.157 199.475 390.081Z" fill="#4BA765"/>
<path d="M190.867 321.942C190.418 321.942 190 321.839 189.716 321.753C189.259 321.611 188.896 321.421 188.597 321.193C187.982 320.712 187.596 319.924 187.588 319.135C187.588 319.025 187.667 318.915 187.785 318.938C187.895 318.938 187.982 319.025 187.982 319.135C187.982 319.806 188.313 320.476 188.841 320.885C189.101 321.09 189.425 321.248 189.834 321.382C190.331 321.54 191.261 321.729 191.971 321.248C192.057 321.185 192.184 321.209 192.247 321.303C192.31 321.39 192.286 321.516 192.191 321.579C191.774 321.847 191.309 321.942 190.867 321.942Z" fill="black"/>
<defs>
<linearGradient id="paint0_linear_4035_48538" x1="327.905" y1="247.284" x2="279.146" y2="478.218" gradientUnits="userSpaceOnUse">
<stop offset="0.663462" stop-color="white"/>
<stop offset="1" stop-color="#E5E5E5"/>
</linearGradient>
<linearGradient id="paint1_linear_4035_48538" x1="281.361" y1="324.7" x2="281.361" y2="346.223" gradientUnits="userSpaceOnUse">
<stop offset="0.663462" stop-color="white"/>
<stop offset="1" stop-color="#E1E1E1"/>
</linearGradient>
<linearGradient id="paint2_linear_4035_48538" x1="394.957" y1="432.443" x2="394.957" y2="470.769" gradientUnits="userSpaceOnUse">
<stop offset="0.663462" stop-color="white"/>
<stop offset="1" stop-color="#E1E1E1"/>
</linearGradient>
<linearGradient id="paint3_linear_4035_48538" x1="257.411" y1="203.342" x2="257.411" y2="211.7" gradientUnits="userSpaceOnUse">
<stop offset="0.663462" stop-color="white"/>
<stop offset="1" stop-color="#E1E1E1"/>
</linearGradient>
<linearGradient id="paint4_linear_4035_48538" x1="371.583" y1="375.167" x2="371.583" y2="377.117" gradientUnits="userSpaceOnUse">
<stop offset="0.663462" stop-color="white"/>
<stop offset="1" stop-color="#E1E1E1"/>
</linearGradient>
<linearGradient id="paint5_linear_4035_48538" x1="372.096" y1="364.146" x2="372.096" y2="370.09" gradientUnits="userSpaceOnUse">
<stop offset="0.663462" stop-color="white"/>
<stop offset="1" stop-color="#E1E1E1"/>
</linearGradient>
<linearGradient id="paint6_linear_4035_48538" x1="321.581" y1="419.791" x2="321.581" y2="442.251" gradientUnits="userSpaceOnUse">
<stop offset="0.663462" stop-color="white"/>
<stop offset="1" stop-color="#E1E1E1"/>
</linearGradient>
<linearGradient id="paint7_linear_4035_48538" x1="187.705" y1="306.99" x2="187.705" y2="313.984" gradientUnits="userSpaceOnUse">
<stop offset="0.663462" stop-color="white"/>
<stop offset="1" stop-color="#E1E1E1"/>
</linearGradient>
</defs>
</svg>
