<svg width="40" height="26" viewBox="0 0 40 26" fill="none" xmlns="http://www.w3.org/2000/svg">
<g clip-path="url(#clip0_4119_44413)">
<path d="M39.0557 0H0.0175781V26H39.0557V0Z" fill="white"/>
<path d="M39.0381 0H0V8.7303H39.0381V0Z" fill="#FF9933"/>
<path d="M39.0381 17.2699H0V26.0002H39.0381V17.2699Z" fill="#128807"/>
<path d="M21.9482 15.4914C23.303 14.1366 23.303 11.94 21.9482 10.5852C20.5934 9.2304 18.3968 9.23039 17.042 10.5852C15.6872 11.94 15.6872 14.1366 17.042 15.4914C18.3968 16.8463 20.5934 16.8463 21.9482 15.4914Z" fill="#000088"/>
<path d="M19.4358 9.99316L19.258 10.0159C19.2705 10.0538 19.2727 10.0964 19.2399 10.1458C19.2129 10.1867 19.1692 10.2159 19.121 10.2171C19.0369 10.2191 18.9679 10.1501 18.9679 10.0646C18.9679 10.0605 18.9688 10.0567 18.969 10.0526L18.769 10.0782C18.7427 10.0981 18.9422 10.6317 18.9614 10.6934C19.0283 10.908 19.093 11.1235 19.1484 11.3414C19.2403 11.7033 19.2856 12.0737 19.335 12.443C19.3779 12.4373 19.4207 12.4313 19.4636 12.4255C19.4189 12.4317 19.3516 11.0044 19.3637 10.874C19.371 10.798 19.3773 10.0006 19.4358 9.99316Z" fill="white"/>
<path d="M20.2161 15.9893L20.038 16.01C20.0412 15.9703 20.033 15.9284 19.9892 15.8881C19.953 15.8549 19.9036 15.837 19.8566 15.8474C19.7744 15.8657 19.7243 15.9492 19.7448 16.0322C19.7457 16.0361 19.7476 16.0396 19.7487 16.0434L19.5485 16.0667C19.5181 16.0536 19.5835 15.4876 19.5872 15.4231C19.6007 15.1987 19.6117 14.974 19.6128 14.749C19.6148 14.3746 19.5721 14.0072 19.5283 13.636C19.5283 13.636 19.6596 13.6207 19.6598 13.6207C19.6387 13.6233 19.7433 14.2794 19.75 14.326C19.799 14.6644 19.8749 14.9936 19.9821 15.3182C20.0005 15.3739 20.1674 15.9951 20.2161 15.9893Z" fill="white"/>
<path d="M18.6511 10.111L18.4854 10.179C18.5074 10.2122 18.5205 10.253 18.5016 10.3093C18.486 10.3557 18.4515 10.3953 18.4051 10.4089C18.3243 10.4327 18.2399 10.3837 18.2177 10.3013C18.2166 10.2974 18.2166 10.2935 18.2158 10.2896L18.0292 10.366C18.0089 10.3921 18.3398 10.8559 18.3743 10.9106C18.4945 11.1005 18.6127 11.2918 18.7227 11.4881C18.9051 11.814 19.0449 12.1598 19.1881 12.504C19.228 12.4872 19.2679 12.4704 19.3078 12.4536C19.2662 12.4712 18.8318 11.1099 18.8098 10.9808C18.7967 10.9053 18.5967 10.1333 18.6511 10.111Z" fill="white"/>
<path d="M20.9569 15.7009L20.7902 15.7669C20.783 15.7277 20.7641 15.6893 20.7116 15.6619C20.6681 15.6394 20.6157 15.6347 20.5729 15.6571C20.4981 15.6958 20.4713 15.7896 20.5126 15.8646C20.5147 15.8681 20.5173 15.8711 20.5194 15.8744L20.332 15.9488C20.2994 15.9442 20.2158 15.3806 20.203 15.3172C20.1579 15.097 20.1103 14.877 20.0533 14.6595C19.9584 14.2974 19.8221 13.9535 19.6836 13.6063C19.6836 13.6063 19.8065 13.5577 19.8066 13.5575C19.7869 13.5655 20.0578 14.1722 20.0764 14.2154C20.2114 14.5295 20.3698 14.828 20.5574 15.1136C20.5893 15.1621 20.9114 15.719 20.9569 15.7009Z" fill="white"/>
<path d="M17.9248 10.428L17.7822 10.5365C17.812 10.563 17.8353 10.5989 17.8316 10.658C17.8286 10.7069 17.8053 10.754 17.7641 10.7792C17.6923 10.823 17.5982 10.7977 17.5553 10.7237C17.5532 10.7201 17.5521 10.7164 17.5504 10.7128L17.3899 10.835C17.3771 10.8653 17.8167 11.2278 17.8642 11.2716C18.0294 11.4239 18.1932 11.5782 18.3502 11.7393C18.6107 12.0068 18.8351 12.3048 19.0626 12.6001C19.0969 12.5736 19.131 12.5469 19.1653 12.5205C19.1295 12.5481 18.3577 11.3456 18.3031 11.2268C18.271 11.1575 17.878 10.4636 17.9248 10.428Z" fill="white"/>
<path d="M21.5982 15.2303L21.4544 15.3373C21.4373 15.3014 21.4091 15.2691 21.3512 15.2562C21.3033 15.2456 21.2516 15.2548 21.216 15.2874C21.1539 15.3442 21.1522 15.4417 21.2115 15.5033C21.2143 15.5063 21.2177 15.5083 21.2207 15.5111L21.0588 15.6313C21.026 15.6353 20.7997 15.1125 20.7706 15.0547C20.67 14.8537 20.5672 14.6537 20.4557 14.4581C20.2704 14.133 20.0497 13.836 19.8262 13.5366L19.9322 13.4578C19.9153 13.4706 20.3338 13.9865 20.3631 14.0234C20.5747 14.2918 20.8051 14.5392 21.0601 14.7665C21.1038 14.8051 21.5588 15.2596 21.5982 15.2303Z" fill="white"/>
<path d="M17.3039 10.9221L17.1942 11.0638C17.2299 11.0817 17.2616 11.1104 17.2735 11.1686C17.2832 11.2167 17.2731 11.2681 17.2397 11.3032C17.1818 11.3641 17.0843 11.364 17.0237 11.3036C17.0209 11.3008 17.0186 11.2974 17.016 11.2942L16.8926 11.4538C16.8881 11.4866 17.4064 11.7228 17.4636 11.7528C17.6627 11.8572 17.8607 11.9639 18.0541 12.0789C18.3749 12.2698 18.6689 12.4997 18.965 12.726C18.9911 12.6915 19.0173 12.657 19.0434 12.6225C19.016 12.6585 17.9594 11.6967 17.8758 11.5961C17.8272 11.537 17.2679 10.9687 17.3039 10.9221Z" fill="white"/>
<path d="M22.096 14.6099L21.9847 14.7504C21.9588 14.7202 21.9234 14.6962 21.8641 14.6988C21.8151 14.7009 21.7675 14.7232 21.7416 14.7639C21.6963 14.8349 21.72 14.9294 21.7931 14.9736C21.7966 14.9757 21.8003 14.977 21.8039 14.9788L21.6788 15.1369C21.648 15.1492 21.2942 14.7027 21.2513 14.6544C21.102 14.4863 20.951 14.3196 20.7929 14.1597C20.5296 13.8936 20.2397 13.6639 19.9463 13.4324L20.0283 13.3287C20.0153 13.3455 20.5531 13.7353 20.591 13.7637C20.8648 13.9682 21.1514 14.1475 21.4567 14.3012C21.5082 14.3273 22.0656 14.6485 22.096 14.6099Z" fill="white"/>
<path d="M16.8329 11.5599L16.7638 11.7253C16.8027 11.7333 16.841 11.7527 16.8672 11.806C16.8891 11.8498 16.8926 11.9022 16.8695 11.9447C16.8292 12.0187 16.7349 12.0437 16.6609 12.001C16.6573 11.999 16.6545 11.9964 16.6512 11.9941L16.5732 12.1802C16.5773 12.213 17.1392 12.307 17.2023 12.3211C17.4215 12.3705 17.6406 12.4222 17.857 12.4833C18.2162 12.5847 18.5598 12.7305 18.9044 12.8726C18.9208 12.8325 18.9372 12.7924 18.9534 12.7523C18.9362 12.7941 17.6667 12.1386 17.5598 12.0631C17.4976 12.0186 16.8102 11.6142 16.8329 11.5599Z" fill="white"/>
<path d="M22.4166 13.8819L22.3456 14.0463C22.3128 14.0238 22.2723 14.0098 22.2156 14.0277C22.1688 14.0424 22.1288 14.0762 22.1142 14.1222C22.0889 14.2026 22.1362 14.2878 22.2182 14.3114C22.2222 14.3126 22.2261 14.3127 22.23 14.3137L22.15 14.4988C22.1235 14.5186 21.666 14.1791 21.6122 14.1435C21.4244 14.0197 21.2354 13.8978 21.0411 13.7842C20.718 13.5954 20.3786 13.4485 20.0352 13.3008C20.0352 13.3008 20.0875 13.1796 20.0875 13.1794C20.0793 13.199 20.6998 13.4363 20.7436 13.4539C21.0611 13.5805 21.3842 13.6796 21.719 13.749C21.7757 13.7609 22.3972 13.9268 22.4166 13.8819Z" fill="white"/>
<path d="M16.5434 12.298L16.5193 12.4756C16.559 12.4732 16.601 12.4822 16.6401 12.5267C16.6726 12.5634 16.6895 12.6132 16.6781 12.66C16.6584 12.7419 16.5739 12.7905 16.4913 12.7683C16.4874 12.7672 16.4839 12.7655 16.4802 12.764L16.4531 12.9639C16.4656 12.9945 17.0327 12.9398 17.0972 12.9372C17.3219 12.9281 17.5467 12.9214 17.7717 12.9244C18.1452 12.9294 18.5145 12.9812 18.8842 13.0293C18.8896 12.9865 18.895 12.9434 18.9006 12.9005C18.895 12.9453 17.4988 12.6408 17.3761 12.5953C17.304 12.5689 16.5355 12.3563 16.5434 12.298Z" fill="white"/>
<path d="M22.5373 13.0957L22.5112 13.273C22.4738 13.2598 22.4311 13.2568 22.3809 13.2887C22.3395 13.315 22.3095 13.358 22.3075 13.4063C22.3037 13.4904 22.3716 13.5605 22.457 13.5622C22.4611 13.5622 22.4648 13.5614 22.4689 13.5612L22.4397 13.7607C22.4191 13.7866 21.8895 13.5771 21.8282 13.5567C21.6149 13.4857 21.4007 13.4169 21.1837 13.3575C20.8228 13.2586 20.4568 13.2046 20.0869 13.1509C20.0869 13.1509 20.1061 13.0202 20.1061 13.02C20.1031 13.0411 20.7638 13.1099 20.8108 13.1153C21.1503 13.1554 21.4881 13.1675 21.8293 13.1479C21.8871 13.1447 22.5303 13.1442 22.5373 13.0957Z" fill="white"/>
<path d="M16.4541 13.0859L16.4768 13.2637C16.5147 13.2512 16.5574 13.249 16.6068 13.2818C16.6476 13.3089 16.6769 13.3525 16.678 13.4008C16.6801 13.4848 16.6111 13.5538 16.5255 13.5538C16.5214 13.5538 16.5177 13.5529 16.5136 13.5527L16.5391 13.7527C16.5591 13.779 17.0926 13.5795 17.1543 13.5603C17.3689 13.4934 17.5844 13.4287 17.8024 13.3734C18.1642 13.2814 18.5347 13.2361 18.904 13.1867C18.8982 13.1439 18.8922 13.101 18.8864 13.0581C18.8926 13.1028 17.4653 13.1702 17.335 13.158C17.2591 13.1508 16.4616 13.1442 16.4541 13.0859Z" fill="white"/>
<path d="M22.4506 12.3051L22.4713 12.4831C22.4316 12.4799 22.3897 12.4881 22.3494 12.5319C22.3162 12.5681 22.2983 12.6175 22.3087 12.6645C22.327 12.7467 22.4105 12.7969 22.4935 12.7763C22.4974 12.7754 22.501 12.7735 22.5047 12.7724L22.528 12.9727C22.5149 13.003 21.9489 12.9376 21.8844 12.9339C21.66 12.9205 21.4353 12.9095 21.2103 12.9083C20.836 12.9063 20.4685 12.949 20.0973 12.9928C20.0973 12.9928 20.082 12.8615 20.082 12.8614C20.0846 12.8824 20.7407 12.7778 20.7873 12.7711C21.1257 12.7221 21.4549 12.6462 21.7795 12.539C21.835 12.5208 22.4562 12.3537 22.4506 12.3051Z" fill="white"/>
<path d="M16.5723 13.8699L16.6403 14.0358C16.6735 14.0138 16.7143 14.0008 16.7706 14.0196C16.817 14.0353 16.8566 14.0698 16.8702 14.1162C16.894 14.1969 16.845 14.2814 16.7626 14.3036C16.7587 14.3047 16.7548 14.3047 16.7509 14.3054L16.8273 14.492C16.8534 14.5124 17.3172 14.1814 17.3719 14.147C17.5618 14.0267 17.7531 13.9085 17.9494 13.7985C18.2753 13.6162 18.6211 13.4764 18.9653 13.3332C18.9485 13.2933 18.9317 13.2534 18.9149 13.2135C18.9325 13.2551 17.5712 13.6895 17.4421 13.7115C17.3665 13.7241 16.5946 13.9244 16.5723 13.8699Z" fill="white"/>
<path d="M22.1621 11.5638L22.2281 11.7305C22.189 11.7378 22.1506 11.7566 22.123 11.8092C22.1004 11.8526 22.0958 11.905 22.1181 11.9479C22.1569 12.0226 22.2507 12.0495 22.3256 12.0081C22.3292 12.0061 22.3321 12.0034 22.3355 12.0014L22.4099 12.1888C22.4052 12.2216 21.8416 12.3049 21.7783 12.3178C21.5581 12.3629 21.3381 12.4104 21.1205 12.4675C20.7585 12.5624 20.4145 12.6986 20.0674 12.8372C20.0674 12.8372 20.0187 12.7143 20.0186 12.7141C20.0266 12.7339 20.6332 12.463 20.6765 12.4443C20.9906 12.3094 21.2891 12.1509 21.5747 11.9634C21.6235 11.9315 22.1802 11.6095 22.1621 11.5638Z" fill="white"/>
<path d="M16.8887 14.5968L16.9972 14.7394C17.0236 14.7096 17.0596 14.6863 17.1187 14.69C17.1676 14.693 17.2147 14.7163 17.2399 14.7575C17.2837 14.8293 17.2584 14.9234 17.1843 14.9663C17.1808 14.9684 17.1771 14.9695 17.1735 14.9712L17.2956 15.1317C17.326 15.1446 17.6885 14.705 17.7323 14.6574C17.8846 14.4922 18.0389 14.3284 18.2 14.1714C18.4675 13.911 18.7655 13.6865 19.0608 13.459C19.0343 13.4247 19.0076 13.3906 18.9812 13.3563C19.0089 13.3921 17.8063 14.1639 17.6875 14.2186C17.6182 14.2504 16.9245 14.6436 16.8887 14.5968Z" fill="white"/>
<path d="M21.6915 10.9225L21.7985 11.0662C21.7625 11.0834 21.7303 11.1115 21.7174 11.1695C21.7068 11.2174 21.7159 11.2691 21.7486 11.3047C21.8054 11.3667 21.9029 11.3684 21.9644 11.3091C21.9674 11.3063 21.9695 11.303 21.9723 11.3L22.0925 11.4618C22.0964 11.4946 21.5737 11.721 21.5159 11.75C21.3149 11.8507 21.1149 11.9534 20.9193 12.0649C20.5942 12.2502 20.2972 12.471 19.9978 12.6945L19.9189 12.5884C19.9318 12.6054 20.4477 12.1868 20.4846 12.1576C20.753 11.946 21.0004 11.7156 21.2277 11.4605C21.2663 11.4171 21.7208 10.9618 21.6915 10.9225Z" fill="white"/>
<path d="M17.3828 15.2169L17.5245 15.3265C17.5424 15.2909 17.5711 15.2592 17.6293 15.2473C17.6774 15.2376 17.7288 15.2476 17.7639 15.281C17.8248 15.339 17.8247 15.4365 17.7642 15.4971C17.7615 15.4999 17.7581 15.5021 17.7549 15.5047L17.9145 15.6281C17.9473 15.6326 18.1835 15.1143 18.2135 15.0571C18.3179 14.858 18.4246 14.66 18.5396 14.4667C18.7305 14.1458 18.9604 13.8518 19.1867 13.5558C19.1522 13.5297 19.1177 13.5034 19.0832 13.4773C19.1192 13.5047 18.1574 14.5614 18.0568 14.6449C17.9978 14.6936 17.4294 15.2528 17.3828 15.2169Z" fill="white"/>
<path d="M21.0712 10.4249L21.2117 10.5362C21.1815 10.5621 21.1575 10.5976 21.1601 10.6568C21.1622 10.7059 21.1845 10.7534 21.2252 10.7793C21.2962 10.8246 21.3907 10.801 21.4349 10.7277C21.437 10.7241 21.4383 10.7204 21.4401 10.7169L21.5982 10.842C21.6105 10.8727 21.164 11.2266 21.1157 11.2695C20.9476 11.4188 20.7809 11.5698 20.621 11.7279C20.3549 11.9911 20.1252 12.281 19.8937 12.5745L19.79 12.4924C19.8068 12.5055 20.1966 11.9676 20.225 11.9298C20.4295 11.6559 20.6088 11.3694 20.7625 11.064C20.7884 11.0126 21.1096 10.4553 21.0712 10.4249Z" fill="white"/>
<path d="M18.0205 15.6881L18.1859 15.7572C18.1939 15.7183 18.2133 15.6801 18.2666 15.6538C18.3104 15.632 18.3628 15.6284 18.4053 15.6515C18.4793 15.6918 18.5043 15.7861 18.4616 15.8601C18.4595 15.8637 18.4569 15.8665 18.4547 15.8698L18.6408 15.9478C18.6736 15.9437 18.7675 15.3818 18.7817 15.3188C18.8311 15.0995 18.8827 14.8805 18.9439 14.664C19.0453 14.3048 19.1911 13.9612 19.3332 13.6167C19.2931 13.6003 19.253 13.5838 19.2129 13.5676C19.2547 13.5848 18.5992 14.8544 18.5237 14.9612C18.4791 15.0235 18.0749 15.7108 18.0205 15.6881Z" fill="white"/>
<path d="M20.3431 10.1049L20.5075 10.1759C20.485 10.2087 20.471 10.2492 20.4889 10.3058C20.5036 10.3526 20.5373 10.3927 20.5834 10.4072C20.6637 10.4326 20.7489 10.3852 20.7726 10.3032C20.7737 10.2993 20.7739 10.2954 20.7749 10.2915L20.96 10.3715C20.9797 10.3979 20.6403 10.8554 20.6047 10.9093C20.4809 11.097 20.3589 11.2861 20.2454 11.4803C20.0564 11.8034 19.9096 12.1429 19.762 12.4863C19.762 12.4863 19.6408 12.4339 19.6406 12.4339C19.6602 12.4421 19.8975 11.8217 19.915 11.7779C20.0416 11.4604 20.1408 11.1373 20.2102 10.8025C20.2221 10.7456 20.3882 10.1242 20.3431 10.1049Z" fill="white"/>
<path d="M18.7588 15.9779L18.9365 16.002C18.934 15.9623 18.943 15.9203 18.9875 15.8812C19.0243 15.8487 19.074 15.8318 19.1208 15.8432C19.2027 15.8629 19.2513 15.9474 19.2291 16.03C19.228 16.0339 19.2264 16.0374 19.2249 16.0411L19.4247 16.0682C19.4553 16.0557 19.4007 15.4888 19.3981 15.4241C19.3889 15.1994 19.3822 14.9746 19.3852 14.7496C19.3902 14.3761 19.4421 14.0068 19.4902 13.6371C19.4473 13.6317 19.4042 13.6263 19.3613 13.6207C19.4061 13.6263 19.1016 15.0225 19.0561 15.1452C19.0297 15.2173 18.8171 15.9858 18.7588 15.9779Z" fill="white"/>
<path d="M19.5571 9.98401L19.7344 10.0101C19.7212 10.0476 19.7182 10.0903 19.7501 10.1404C19.7764 10.1818 19.8194 10.2118 19.8677 10.2139C19.9518 10.2176 20.0219 10.1497 20.0236 10.0644C20.0236 10.0603 20.0228 10.0565 20.0227 10.0524L20.2221 10.0817C20.248 10.1022 20.0385 10.6319 20.0182 10.6932C19.9471 10.9065 19.8784 11.1207 19.8189 11.3377C19.7201 11.6986 19.666 12.0646 19.6123 12.4344C19.6123 12.4344 19.4816 12.4152 19.4814 12.4152C19.5025 12.4182 19.5713 11.7575 19.5767 11.7105C19.6168 11.371 19.6289 11.0332 19.6093 10.6921C19.606 10.6343 19.6056 9.99109 19.5571 9.98401Z" fill="white"/>
</g>
<defs>
<clipPath id="clip0_4119_44413">
<rect width="39.0566" height="26" rx="2" fill="white"/>
</clipPath>
</defs>
</svg>
