<svg width="32" height="32" viewBox="0 0 32 32" fill="none" xmlns="http://www.w3.org/2000/svg">
<path d="M32.0027 16.0013C32.0027 13.74 30.856 11.7467 29.112 10.5707C29.5133 8.50667 28.9147 6.28667 27.316 4.68667C25.7173 3.088 23.4973 2.48933 21.432 2.89067C20.256 1.14667 18.2627 0 16.0013 0C13.74 0 11.7467 1.14667 10.5707 2.89067C8.50667 2.48933 6.28533 3.088 4.68667 4.68667C3.088 6.28533 2.48933 8.50533 2.89067 10.5707C1.14667 11.7467 0 13.74 0 16.0013C0 18.2627 1.14667 20.256 2.89067 21.432C2.48933 23.496 3.088 25.7173 4.68667 27.316C6.28533 28.9147 8.50533 29.5133 10.5707 29.112C11.7467 30.856 13.74 32.0027 16.0013 32.0027C18.2627 32.0027 20.256 30.856 21.432 29.112C23.496 29.5133 25.7173 28.9147 27.316 27.316C28.9147 25.7173 29.5133 23.4973 29.112 21.432C30.856 20.256 32.0027 18.2627 32.0027 16.0013ZM15.8813 20.56C15.3653 21.076 14.6867 21.3333 14.0053 21.3333C13.324 21.3333 12.6387 21.0733 12.1173 20.5533L8.408 16.9587L10.2653 15.0427L13.9893 18.652L21.7347 11.0507L23.6067 12.9507L15.8813 20.56Z" fill="#4ECB71"/>
</svg>
