<svg width="220" height="220" viewBox="0 0 220 220" fill="none" xmlns="http://www.w3.org/2000/svg">
<circle cx="110" cy="110" r="110" fill="#C7FFD7"/>
<mask id="mask0_4119_44745" style="mask-type:alpha" maskUnits="userSpaceOnUse" x="0" y="0" width="220" height="220">
<circle cx="110" cy="110" r="110" fill="#D9D9D9"/>
</mask>
<g mask="url(#mask0_4119_44745)">
<path d="M247.987 216.357C247.987 198.05 239.277 173.177 233.132 166.261L166.512 179.724L164.865 216.357H247.987Z" fill="#21BB7D"/>
<path d="M148.714 61.4899C145.454 52.4635 155.318 46.5902 161.894 46.0809C177.992 44.8335 190.556 57.8248 205.468 99.2045C216.602 130.098 199.038 122.354 199.038 122.354L172.427 99.363L148.714 61.4899Z" fill="#322734"/>
<path d="M212.918 131.725L231.788 170.589L165.357 180.796C165.357 180.796 136.741 134.213 135.763 134.213H136.741C139.105 117.845 146.721 107.121 160.608 99.0508C163.951 97.1142 167.652 95.3292 171.738 93.6544C177.252 91.3939 182.938 89.6089 188.548 88.5062C204.358 85.3841 219.555 87.6654 228.514 99.9536C237.074 111.697 239.927 120.23 239.927 120.23L212.918 131.725Z" fill="#78E6BA"/>
<g opacity="0.43">
<path d="M227.505 95.3753C227.505 99.0439 224.531 102.018 220.862 102.018C217.194 102.018 214.22 99.0439 214.22 95.3753C214.22 91.7068 217.194 88.7329 220.862 88.7329C224.531 88.7329 227.505 91.7068 227.505 95.3753ZM196.46 92.0231C192.791 92.0231 189.818 94.997 189.818 98.6655C189.818 102.334 192.791 105.308 196.46 105.308C200.129 105.308 203.102 102.334 203.102 98.6655C203.102 94.997 200.129 92.0231 196.46 92.0231ZM188.889 112.604C185.22 112.604 182.246 115.578 182.246 119.246C182.246 122.915 185.22 125.889 188.889 125.889C192.557 125.889 195.531 122.915 195.531 119.246C195.531 115.578 192.557 112.604 188.889 112.604ZM165.075 109.085C161.406 109.085 158.432 112.059 158.432 115.727C158.432 119.396 161.406 122.37 165.075 122.37C168.743 122.37 171.717 119.396 171.717 115.727C171.717 112.059 168.743 109.085 165.075 109.085ZM145.075 122.369C141.406 122.369 138.432 125.343 138.432 129.011C138.432 132.68 141.406 135.654 145.075 135.654C148.743 135.654 151.717 132.68 151.717 129.011C151.717 125.343 148.743 122.369 145.075 122.369ZM168.754 138.562C165.086 138.562 162.112 141.536 162.112 145.205C162.112 148.873 165.086 151.847 168.754 151.847C172.423 151.847 175.397 148.873 175.397 145.205C175.396 141.536 172.422 138.562 168.754 138.562ZM154.905 154.452C151.237 154.452 148.263 157.426 148.263 161.095C148.263 164.763 151.237 167.737 154.905 167.737C158.574 167.737 161.548 164.763 161.548 161.095C161.548 157.426 158.574 154.452 154.905 154.452ZM201.825 137.709C198.156 137.709 195.182 140.683 195.182 144.351C195.182 148.02 198.156 150.994 201.825 150.994C205.493 150.994 208.467 148.02 208.467 144.351C208.467 140.683 205.493 137.709 201.825 137.709ZM220.862 112.604C217.194 112.604 214.22 115.578 214.22 119.246C214.22 122.915 217.194 125.889 220.862 125.889C224.531 125.889 227.505 122.915 227.505 119.246C227.505 115.578 224.531 112.604 220.862 112.604ZM180.212 163.926C176.544 163.926 173.57 166.9 173.57 170.568C173.57 174.237 176.544 177.211 180.212 177.211C183.881 177.211 186.855 174.237 186.855 170.568C186.855 166.9 183.881 163.926 180.212 163.926ZM207.471 163.926C203.803 163.926 200.829 166.9 200.829 170.568C200.829 174.237 203.803 177.211 207.471 177.211C211.14 177.211 214.114 174.237 214.114 170.568C214.114 166.9 211.14 163.926 207.471 163.926Z" fill="white"/>
</g>
<path opacity="0.4" d="M207.506 120.232C204.637 120.841 210.063 133.399 210.936 135.681C212.4 139.506 215.118 145.26 211.568 148.673C210.841 149.371 209.995 149.935 209.204 150.56C207.629 151.804 206.042 153.034 204.45 154.256C201.283 156.688 198.092 159.089 194.918 161.512C191.868 163.84 188.781 166.143 185.902 168.684C183.224 171.047 180.664 173.544 177.874 175.776C176.064 177.224 174.127 178.51 172.165 179.75L231.787 170.59L213.241 132.393C212.333 131.067 208.268 121.658 207.506 120.232Z" fill="url(#paint0_linear_4119_44745)"/>
<path d="M163.454 103.574C161.911 98.6662 167.651 95.3291 171.738 93.6544C177.251 91.3938 182.879 87.433 186.245 90.511C194.773 98.3085 166.995 114.835 163.454 103.574Z" fill="#4CC997"/>
<path d="M177.93 80.6604L184.741 90.6985C185.423 97.7579 169.369 106.456 167.059 102.646L161.265 90.9852L177.93 80.6604Z" fill="url(#paint1_linear_4119_44745)"/>
<path opacity="0.5" d="M168.9 100.693C172.602 99.465 181.546 93.5331 181.866 86.462L177.93 80.6604L161.265 90.9852L166.411 101.342C167.251 101.168 168.085 100.964 168.9 100.693Z" fill="url(#paint2_linear_4119_44745)"/>
<path d="M141.83 63.7567C150.775 48.2926 168.197 50.7103 174.546 56.9406C182.801 65.0427 183.934 76.8672 179.078 83.132C177.485 85.1871 173.063 83.7247 170.773 82.4931" fill="#463748"/>
<path d="M167.811 62.3452C171.304 65.7664 173.803 68.9987 175.574 71.9973C175.702 71.8312 175.843 71.6741 176.005 71.5383C177.113 70.6107 178.878 70.5866 180.011 71.4839C180.983 72.2537 181.417 73.508 181.73 74.7079C182.003 75.7576 182.223 76.8472 182.079 77.9223C181.934 78.9975 181.367 80.0671 180.406 80.5681C179.992 80.7832 179.507 80.8528 179.043 80.7969C185.124 91.4029 169.297 101.342 161.266 98.3851C150.382 94.3775 144.049 77.2531 144.049 77.2531L167.811 62.3452Z" fill="url(#paint3_linear_4119_44745)"/>
<path d="M178.035 73.5714C178.613 73.8526 179.131 74.2544 179.548 74.743C179.88 75.1317 180.15 75.5866 180.241 76.0897C180.332 76.5921 180.223 77.1469 179.877 77.5225C179.531 77.8982 178.931 78.0477 178.482 77.8051C178.133 77.617 177.915 77.1883 178.017 76.8051C178.132 76.3723 178.6 76.1097 179.047 76.087C179.494 76.0649 179.927 76.2296 180.344 76.3923" stroke="black" stroke-width="0.627724" stroke-miterlimit="10" stroke-linecap="round" stroke-linejoin="round"/>
<path d="M164.969 81.9024C165.022 81.7314 165.161 81.5481 165.324 81.4682C165.5 81.3827 165.71 81.3434 165.9 81.411C165.958 81.4372 166.015 81.4633 166.073 81.4902C166.184 81.5598 166.271 81.6522 166.334 81.7666C166.631 82.1884 166.929 82.6102 167.226 83.0319C167.33 83.1794 167.334 83.4434 167.283 83.6074C167.23 83.7783 167.091 83.9617 166.928 84.0416C166.752 84.1271 166.542 84.1664 166.352 84.0988L166.179 84.0196C166.068 83.95 165.981 83.8576 165.918 83.7432C165.621 83.3214 165.323 82.8996 165.026 82.4778C164.922 82.331 164.918 82.0671 164.969 81.9024Z" fill="black"/>
<path d="M153.82 88.28C153.874 88.1091 154.012 87.9258 154.176 87.8459C154.352 87.7604 154.562 87.7211 154.752 87.7887C154.809 87.8148 154.867 87.8417 154.925 87.8679C155.035 87.9375 155.122 88.0299 155.186 88.1443C155.483 88.5661 155.781 88.9878 156.078 89.4096C156.182 89.5571 156.186 89.8211 156.135 89.9851C156.082 90.156 155.943 90.3394 155.779 90.4193C155.603 90.5048 155.393 90.544 155.204 90.4765L155.031 90.3972C154.92 90.3276 154.833 90.2353 154.769 90.1209C154.472 89.6991 154.175 89.2773 153.878 88.8555C153.774 88.7087 153.769 88.4441 153.82 88.28Z" fill="black"/>
<path d="M162.68 91.9603C162.69 91.9189 162.71 91.8803 162.742 91.8514C162.775 91.8211 162.819 91.8038 162.863 91.7949C162.945 91.779 163.074 91.7859 163.113 91.8755C163.489 92.737 164.528 92.981 165.311 92.5192C165.316 92.5165 165.32 92.5137 165.325 92.511C165.61 92.3387 165.811 92.0568 165.863 91.7253C165.915 91.389 165.798 91.0361 165.59 90.7721C165.482 90.6364 165.214 90.504 165.297 90.2904C165.327 90.2139 165.402 90.1649 165.479 90.136C165.604 90.0884 165.727 90.1939 165.809 90.2759C165.906 90.3724 165.998 90.4909 166.076 90.604C166.252 90.8562 166.356 91.1574 166.371 91.4641C166.39 91.839 166.274 92.2952 166.01 92.5757C165.718 92.8859 165.338 93.1057 164.922 93.2022C164.505 93.2994 164.065 93.267 163.671 93.0968C163.325 92.9479 163.023 92.6984 162.812 92.3869C162.748 92.2911 162.687 92.1808 162.675 92.063C162.67 92.0299 162.672 91.9941 162.68 91.9603Z" fill="black"/>
<path d="M160.764 87.4353C161.007 87.9908 161.25 88.5463 161.493 89.1011C161.637 89.4291 161.788 89.7682 162.059 90.0025C162.329 90.2369 162.755 90.3334 163.047 90.1252" stroke="black" stroke-width="0.627724" stroke-miterlimit="10" stroke-linecap="round" stroke-linejoin="round"/>
<path d="M177.305 68.4244C176.316 66.9054 175.328 65.3872 174.34 63.8682C173.63 62.7779 172.885 61.6531 171.78 60.9681C171.23 60.6269 170.331 60.3554 169.517 60.3567C168.814 59.192 168.197 58.2644 167.85 57.9611C160.635 51.6516 143.176 54.8942 140.706 67.0467C138.496 77.9229 145.137 85.1222 145.137 85.1222C145.137 85.1222 147.459 83.9202 150.775 82.1345C151.479 81.7555 149.953 76.9918 149.953 76.9918C149.953 76.9918 152.567 81.2944 153.239 80.9236C155.159 79.8643 158.621 77.9918 160.763 76.7464C161.437 76.3549 158.273 72.3266 158.273 72.3266C158.273 72.3266 162.564 75.5693 163.111 75.2391C166.002 73.4927 168.671 71.7849 170.584 70.3838C171.035 70.9007 171.458 71.4093 171.797 71.929C172.373 72.8125 174.096 77.4446 175.316 77.4156C176.411 77.3894 173.143 71.5644 177.756 70.7277C178.573 70.5788 177.758 69.1212 177.305 68.4244Z" fill="#463748"/>
<path d="M150.943 86.2946C150.569 85.5323 150.843 84.5137 151.549 84.0423C152.255 83.5709 153.302 83.7087 153.862 84.3469" stroke="black" stroke-width="0.84894" stroke-miterlimit="10" stroke-linecap="round" stroke-linejoin="round"/>
<path d="M162.078 80.0802C161.704 79.3187 161.978 78.2994 162.685 77.828C163.391 77.3565 164.437 77.4944 164.997 78.1326" stroke="black" stroke-width="0.84894" stroke-miterlimit="10" stroke-linecap="round" stroke-linejoin="round"/>
<path d="M155.381 130.815L163.205 149.145" stroke="black" stroke-width="0.87196" stroke-miterlimit="10" stroke-linecap="round" stroke-linejoin="round"/>
<path d="M212.916 131.723L207.506 120.232" stroke="black" stroke-width="0.87196" stroke-miterlimit="10" stroke-linecap="round" stroke-linejoin="round"/>
<path d="M-31.0483 135.321C-30.3729 122.403 -25.7105 91.1346 2.07903 90.0078C29.3324 88.903 56.958 102.003 63.9905 107.995C77.2429 119.287 88.5615 143.564 88.5615 143.564L60.7051 161.878L59.581 209.074H1.22374V137.712C-5.92111 134.476 -20.6919 133.66 -31.0483 135.321Z" fill="#3B9D8E"/>
<path opacity="0.4" d="M28.8872 189.921C25.7321 187.613 22.7072 185.12 19.9188 182.377C17.1337 179.637 14.5059 176.645 12.45 173.312C8.26729 166.531 6.5388 158.573 5.36235 150.789C4.24034 143.369 3.66005 135.831 1.93086 128.516C1.76339 129.057 1.69654 129.647 1.6352 130.169C1.52355 131.123 1.08936 137.651 1.22306 137.712V209.073H59.3688C56.0207 206.833 52.574 204.735 49.1184 202.674C42.2734 198.593 35.3291 194.633 28.8872 189.921Z" fill="#29413E"/>
<path d="M1.39024 132.959C-0.24659 131.819 -2.24456 131.256 -4.1805 130.882C-6.07164 130.516 -7.99241 130.331 -9.91181 130.189C-12.0972 130.027 -14.2875 129.924 -16.4791 129.889C-21.2497 129.814 -26.0575 130.083 -30.7254 131.119C-30.8818 132.66 -30.9838 134.076 -31.0493 135.32C-20.7624 133.67 -6.12264 134.467 1.07528 137.649C1.09733 136.074 0.917454 134.478 1.39024 132.959Z" fill="#187062"/>
<path d="M81.7515 141.934C79.3166 142.887 76.952 144.014 74.637 145.229C72.557 146.319 70.4791 147.441 68.5094 148.722C64.6065 151.26 60.8277 154.405 58.3921 158.43C59.1474 159.591 59.9772 160.7 60.7863 161.824L88.5608 143.564C88.5608 143.564 87.977 142.314 86.9274 140.262C85.1665 140.694 83.4401 141.273 81.7515 141.934Z" fill="#187062"/>
<path d="M-31.0488 135.321V201.324C-31.0488 205.604 -27.5794 209.073 -23.2996 209.073H9.90224C15.5171 209.073 9.41429 200.728 1.22256 200.127V137.711C-7.96574 133.763 -19.5566 133.622 -31.0488 135.321Z" fill="url(#paint4_linear_4119_44745)"/>
<path d="M58.3179 132.067V158.888" stroke="black" stroke-width="0.87196" stroke-miterlimit="10" stroke-linecap="round" stroke-linejoin="round"/>
<path d="M1.22314 137.712C1.22314 133.334 1.60565 129.083 2.36996 127.5" stroke="black" stroke-width="0.87196" stroke-miterlimit="10" stroke-linecap="round" stroke-linejoin="round"/>
<path d="M44.659 107.784C44.659 107.784 42.5631 114.779 37.4514 114.934C22.6228 115.383 27.6918 96.8652 27.6918 96.8652L44.659 107.784Z" fill="url(#paint5_linear_4119_44745)"/>
<path opacity="0.5" d="M43.0797 111.131C44.1658 109.423 44.6586 107.784 44.6586 107.784L27.6914 96.8652C27.6914 96.8652 26.5715 100.959 26.9257 105.25C31.2938 111.803 41.1162 112.334 43.0797 111.131Z" fill="url(#paint6_linear_4119_44745)"/>
<path d="M59.5813 209.073C59.5813 209.073 56.3338 167.506 62.2126 158.889C77.1267 137.026 113.89 138.085 133.203 138.804C162.968 139.913 172.368 156.216 176.189 183.981L145.729 186.272C145.729 186.272 147.235 209.074 146.558 209.074C145.88 209.073 59.5813 209.073 59.5813 209.073Z" fill="#5FBE7A"/>
<path opacity="0.4" d="M118.559 139.077C119.772 139.431 120.996 139.539 122.253 139.557C123.009 139.568 123.743 139.615 124.406 140.018C124.935 140.341 125.377 140.825 125.712 141.343C126.336 142.311 126.879 143.329 127.517 144.289C128.158 145.257 128.915 146.422 129.972 146.983C131.129 147.597 131.854 146.469 132.269 145.516C132.382 145.258 132.79 145.211 132.904 145.499C133.503 147.007 135.717 149.693 137.285 147.724C137.459 147.506 137.876 147.559 137.904 147.873C138.058 149.573 140.838 150.021 141.544 148.474C141.658 148.225 142.07 148.16 142.179 148.457C142.612 149.633 144.538 150.515 145.717 150.107C147.617 149.451 147.305 146.455 147.063 144.943C146.886 143.837 146.597 142.746 146.203 141.699C146.041 141.269 145.862 140.826 145.645 140.406C141.951 139.516 137.824 138.976 133.204 138.805C128.61 138.634 123.025 138.447 116.986 138.55C117.505 138.738 118.028 138.922 118.559 139.077Z" fill="url(#paint7_linear_4119_44745)"/>
<path opacity="0.4" d="M142.246 174.46C142.222 175.84 143.271 184.209 143.271 184.209C143.271 184.209 141.806 183.989 141.07 183.903C134.96 183.188 92.7706 180.198 70.6558 187.207C66.5386 188.511 62.6088 190.342 58.7734 192.323C58.9974 201.593 59.5819 209.073 59.5819 209.073C59.5819 209.073 145.88 209.073 146.559 209.073C147.102 209.073 146.239 194.388 145.878 188.591C144.647 183.866 144.31 178.914 142.246 174.46Z" fill="url(#paint8_linear_4119_44745)"/>
<path opacity="0.38" d="M102.449 159.849C104.101 160.85 106.118 161.306 108.036 161.348C109.946 161.39 111.872 160.925 113.508 159.927C115.138 158.933 116.414 157.427 117.194 155.691C118.142 153.58 118.293 151.229 118.399 148.946C118.564 145.389 118.202 141.746 116.731 138.554C109.548 138.686 101.738 139.242 94.169 140.738C93.0691 144.074 94.0498 147.939 95.4068 151.041C96.8941 154.44 99.2187 157.891 102.449 159.849Z" fill="url(#paint9_linear_4119_44745)"/>
<path d="M80.0425 199.947C80.6641 189.794 83.6807 185.279 108.281 185.257C132.881 185.235 145.729 186.271 145.729 186.271C156.925 184.068 167.242 183.079 176.189 183.981C176.189 183.981 177.946 204.931 172.485 210.337C167.025 215.744 80.8709 209.073 80.8709 209.073L80.0425 199.947Z" fill="url(#paint10_linear_4119_44745)"/>
<path opacity="0.3" d="M176.189 183.981C168.657 183.223 160.153 183.807 150.972 185.324C150.898 186.83 150.703 188.327 150.282 189.779C149.605 192.105 148.286 194.158 146.468 195.756C142.389 199.341 136.712 200.592 131.446 201.042C125.824 201.521 120.177 201.128 114.557 200.82C107.955 200.459 101.366 200.66 94.7686 201.067C89.9222 201.366 85.0799 201.751 80.2314 202.029L80.871 209.074C80.871 209.074 167.025 215.745 172.485 210.338C177.946 204.931 176.189 183.981 176.189 183.981Z" fill="url(#paint11_linear_4119_44745)"/>
<path d="M142.332 173.176C143.912 177.754 145.276 182.23 145.729 186.271" stroke="black" stroke-width="0.87196" stroke-miterlimit="10" stroke-linecap="round" stroke-linejoin="round"/>
<path d="M87.2021 170.237V187.523" stroke="black" stroke-width="0.87196" stroke-miterlimit="10" stroke-linecap="round" stroke-linejoin="round"/>
<path d="M99.1108 151.214C99.1108 151.214 101.012 157.558 105.649 157.698C119.097 158.106 114.5 141.311 114.5 141.311L99.1108 151.214Z" fill="url(#paint12_linear_4119_44745)"/>
<path opacity="0.5" d="M105.582 154.664C107.978 154.399 110.315 153.664 112.486 152.623C113.226 152.269 114.07 151.828 114.814 151.273C115.968 146.679 114.5 141.311 114.5 141.311L99.1113 151.214C99.1113 151.214 99.6909 153.133 100.981 154.884C102.517 154.853 104.054 154.833 105.582 154.664Z" fill="url(#paint13_linear_4119_44745)"/>
<path d="M247.333 219.887H-33.2661C-35.291 219.887 -36.9326 217.466 -36.9326 214.48C-36.9326 211.494 -35.291 209.073 -33.2661 209.073H247.333C249.358 209.073 251 211.494 251 214.48C251 217.466 249.358 219.887 247.333 219.887Z" fill="#5D918B"/>
<path opacity="0.37" d="M247.334 209.073H245.967C246.082 209.597 246.145 210.155 246.145 210.736C246.145 213.722 244.504 216.142 242.479 216.142H-36.7539C-36.2784 218.314 -34.8972 219.887 -33.2659 219.887H247.334C249.358 219.887 251 217.466 251 214.48C251 211.494 249.358 209.073 247.334 209.073Z" fill="#26524D"/>
<path d="M130.474 209.073H95.8815C94.3743 209.073 93.1523 207.851 93.1523 206.343C93.1523 204.836 94.3743 203.614 95.8815 203.614H130.474C131.981 203.614 133.203 204.835 133.203 206.343C133.203 207.851 131.981 209.073 130.474 209.073Z" fill="#7CC891"/>
<path d="M97.1554 209.073H23.7261C22.9542 209.073 22.2547 208.618 21.9418 207.913L1.39288 161.633C0.819471 160.343 1.76504 158.888 3.1772 158.888H76.6064C77.3783 158.888 78.0778 159.343 78.3907 160.048L98.939 206.328C99.5131 207.62 98.5682 209.073 97.1554 209.073Z" fill="#CCF3D7"/>
<path d="M99.062 208.944C98.3101 209.279 97.4287 208.942 97.0937 208.19L75.9404 160.782C75.6047 160.03 75.9424 159.149 76.6943 158.814C77.4462 158.478 78.3277 158.816 78.6627 159.568L99.816 206.975C100.151 207.726 99.8139 208.608 99.062 208.944Z" fill="#B3E5C1"/>
<path opacity="0.4" d="M56.356 185.257C58.826 190.197 56.8239 194.202 51.8831 194.202C46.943 194.202 40.9353 190.197 38.4653 185.257C35.9952 180.317 37.9973 176.312 42.9381 176.312C47.8782 176.312 53.8852 180.317 56.356 185.257Z" fill="#F2FFF6"/>
<path d="M31.7587 73.9027C29.0626 78.1392 27.3161 81.9552 26.2438 85.3681C26.0763 85.2316 25.8999 85.1076 25.7055 85.009C24.3802 84.3391 22.6097 84.7272 21.6854 85.8884C20.8922 86.885 20.7509 88.2407 20.7178 89.5143C20.6889 90.628 20.7226 91.7693 21.1182 92.8107C21.5138 93.852 22.3305 94.79 23.4098 95.0671C23.8736 95.1863 24.3754 95.1422 24.8268 94.9782C21.2168 107.006 41.1317 112.688 47.6328 109.129C56.7171 104.154 59.0052 83.2736 59.0052 83.2736L31.7587 73.9027Z" fill="url(#paint14_linear_4119_44745)"/>
<path d="M38.0683 81.2482C38.4046 83.0028 39.8505 84.4929 41.5935 84.8829C43.3371 85.2723 45.2793 84.5397 46.331 83.0952C46.3944 84.6176 47.546 86.0305 49.025 86.3992C50.5033 86.7679 52.1843 86.0608 52.9548 84.7458C52.247 85.5804 52.3449 86.9071 52.9927 87.79C53.6398 88.6728 54.7191 89.1546 55.8012 89.3248C58.3064 89.7183 60.9915 88.4895 62.3319 86.3365C64.6462 86.9691 67.3237 85.355 67.8448 83.0125C68.3651 80.6699 66.6235 78.0737 64.2589 77.6664C65.048 75.9345 64.3113 73.6588 62.6572 72.7173C61.0032 71.7759 58.6709 72.3045 57.5841 73.8669C58.7888 73.1874 59.0548 71.4161 58.3574 70.2225C57.6599 69.0288 56.2553 68.3899 54.8783 68.2652C53.5013 68.1404 52.1264 68.4533 50.779 68.7648C50.3035 67.128 48.923 65.7868 47.2731 65.3582C45.6239 64.9295 43.7644 65.4291 42.5521 66.627C41.9732 65.416 40.5569 64.6669 39.2309 64.8695C37.9042 65.0721 36.7767 66.21 36.5851 67.5381C35.0482 66.7875 33.3976 66.017 31.7008 66.2348C30.004 66.4526 28.3865 68.1204 28.8944 69.7538C25.8089 69.6484 23.0218 72.0764 22.0177 74.9965C21.0128 77.9159 20.4381 84.9822 23.5187 84.7685C28.3017 84.4377 25.343 91.3896 27.2273 90.8162C28.8848 90.3117 28.3851 84.2186 29.6153 83.1965C30.6815 82.3116 31.7194 82.2613 33.0606 82.3488C33.5871 82.3839 38.3253 82.5859 38.0683 81.2482Z" fill="#463748"/>
<path d="M24.1493 87.5162C23.6372 87.9325 23.212 88.4549 22.9094 89.0414C22.6689 89.5073 22.5035 90.0263 22.5297 90.5501C22.5559 91.0738 22.7943 91.6031 23.2285 91.8981C23.662 92.1931 24.2967 92.2027 24.6896 91.8554C24.9949 91.5859 25.1121 91.1062 24.9212 90.7465C24.7054 90.3405 24.1761 90.1862 23.7233 90.2689C23.2705 90.3509 22.8763 90.6169 22.4966 90.8767" stroke="black" stroke-width="0.644727" stroke-miterlimit="10" stroke-linecap="round" stroke-linejoin="round"/>
<path d="M39.1634 92.8032C39.0703 92.6447 38.8891 92.4931 38.7064 92.4517C38.5107 92.4069 38.2908 92.4166 38.1172 92.5289C38.0655 92.5689 38.0138 92.6089 37.9628 92.6481C37.8684 92.7432 37.8029 92.8563 37.7664 92.9858C37.5672 93.4772 37.3687 93.9686 37.1695 94.46C37.0999 94.6316 37.1578 94.897 37.2467 95.0493C37.3398 95.2078 37.521 95.3594 37.7036 95.4008C37.8994 95.4456 38.1192 95.4359 38.2929 95.3236L38.448 95.2044C38.5424 95.1092 38.6086 94.9962 38.6444 94.8666C38.8436 94.3753 39.0427 93.8839 39.2412 93.3925C39.3095 93.2209 39.2523 92.9555 39.1634 92.8032Z" fill="black"/>
<path d="M51.8014 96.5827C51.7084 96.4242 51.5271 96.2733 51.3445 96.2313C51.1487 96.1865 50.9289 96.1961 50.7552 96.3085C50.7035 96.3484 50.6518 96.3884 50.6001 96.4277C50.5057 96.5228 50.4402 96.6358 50.4037 96.7654C50.2045 97.2568 50.006 97.7482 49.8069 98.2396C49.7373 98.4112 49.7945 98.6765 49.8841 98.8288C49.9771 98.9873 50.1584 99.139 50.341 99.1803C50.5367 99.2251 50.7566 99.2155 50.9302 99.1031L51.0853 98.9839C51.1797 98.8888 51.2459 98.7764 51.2817 98.6462C51.4809 98.1548 51.6801 97.6634 51.8786 97.172C51.9482 97.0004 51.891 96.7351 51.8014 96.5827Z" fill="black"/>
<path d="M43.7971 102.331C43.7771 102.291 43.7481 102.258 43.7102 102.236C43.6696 102.213 43.6227 102.207 43.5765 102.208C43.4904 102.211 43.3636 102.249 43.345 102.346C43.1692 103.296 42.1878 103.782 41.296 103.503C41.2912 103.501 41.2857 103.499 41.2808 103.498C40.9555 103.393 40.6888 103.158 40.5593 102.837C40.4283 102.513 40.4635 102.133 40.6103 101.82C40.6861 101.659 40.9245 101.464 40.7908 101.27C40.7433 101.2 40.6564 101.169 40.573 101.158C40.4366 101.14 40.338 101.274 40.2753 101.375C40.2016 101.495 40.1361 101.634 40.0844 101.766C39.9679 102.059 39.9335 102.385 39.99 102.696C40.0589 103.075 40.2815 103.505 40.6103 103.723C40.9748 103.965 41.4063 104.096 41.8446 104.096C42.2843 104.096 42.7164 103.961 43.0714 103.699C43.3829 103.47 43.6262 103.15 43.7647 102.789C43.8074 102.678 43.8419 102.553 43.8274 102.433C43.8233 102.398 43.8136 102.363 43.7971 102.331Z" fill="black"/>
<path d="M44.6586 97.3567C44.5449 97.9687 44.4311 98.5814 44.3174 99.1934C44.2506 99.5545 44.1775 99.9294 43.9618 100.227C43.7461 100.525 43.3422 100.72 43.0024 100.581" stroke="black" stroke-width="0.644727" stroke-miterlimit="10" stroke-linecap="round" stroke-linejoin="round"/>
<path d="M51.9097 91.2979C49.2949 91.2979 47.044 92.8741 46.0488 95.125C45.6139 94.8279 45.0309 94.6542 44.423 94.606C44.5326 94.1201 44.5946 93.617 44.5946 93.098C44.5946 89.3096 41.5125 86.2268 37.7241 86.2268C33.9356 86.2268 30.8535 89.3089 30.8535 93.098C30.8535 96.8865 33.9356 99.9693 37.7241 99.9693C40.4257 99.9693 42.7607 98.3979 43.8827 96.125C44.605 96.0726 45.1735 96.3145 45.2576 96.4317C45.3114 96.6067 45.4251 96.7452 45.5664 96.839C45.5278 97.1229 45.5009 97.411 45.5009 97.7053C45.5009 101.239 48.3755 104.113 51.909 104.113C55.4425 104.113 58.3171 101.239 58.3171 97.7053C58.3171 94.1718 55.4432 91.2979 51.9097 91.2979ZM37.7241 98.44C34.7785 98.44 32.3821 96.0436 32.3821 93.098C32.3821 90.1524 34.7785 87.7561 37.7241 87.7561C40.6697 87.7561 43.066 90.1524 43.066 93.098C43.0667 96.0436 40.6704 98.44 37.7241 98.44ZM51.9097 102.688C49.1626 102.688 46.9275 100.453 46.9275 97.706C46.9275 94.9589 49.1626 92.7238 51.9097 92.7238C54.6568 92.7238 56.8919 94.9589 56.8919 97.706C56.8919 100.453 54.6568 102.688 51.9097 102.688Z" fill="url(#paint15_linear_4119_44745)"/>
<path d="M39.9302 85.9417C40.2603 85.1346 41.23 84.6501 42.0736 84.8713C42.9171 85.0926 43.525 85.9899 43.4168 86.8555M55.7837 91.1705C55.8919 90.3056 55.284 89.4076 54.4404 89.1864C53.5968 88.9651 52.6272 89.4496 52.297 90.2567" stroke="black" stroke-width="0.87196" stroke-miterlimit="10" stroke-linecap="round" stroke-linejoin="round"/>
<path d="M-2.25466 201.51C2.04245 200.875 10.5381 206.256 7.36439 209.074M3.01835 209.073C5.75237 205.584 -3.4759 202.095 -7.07211 202.095M-1.64335 209.073C0.479364 207.076 -2.99554 203.17 -12.1177 203.17" stroke="black" stroke-width="0.932474" stroke-miterlimit="10" stroke-linecap="round" stroke-linejoin="round"/>
<path d="M139.714 161.962C148.228 148.632 163.205 149.145 163.205 149.145C169.434 142.188 182.947 139.71 193.032 142.009L193.797 144.64C189.482 142.907 171.651 142.282 164.392 151.5C164.392 151.5 149.077 151.375 142.333 164.025L139.714 161.962Z" fill="white"/>
<path d="M162.026 172.16L142.332 164.025C146.163 157.114 152.782 152.369 164.391 151.5C171.854 144.025 181.941 142.373 193.796 144.64L204.637 155.606L173.92 164.91L162.026 172.16Z" fill="url(#paint16_linear_4119_44745)"/>
<path d="M203.909 153.333L193.032 142.01L193.796 144.641L204.637 155.606L203.909 153.333Z" fill="url(#paint17_linear_4119_44745)"/>
<path d="M239.929 120.232C246.538 136.566 257.491 161.482 233.65 169.943C210.159 178.28 185.934 178.778 171.025 173.795C161.03 170.454 158.145 168.294 155.879 166.26C152.9 163.587 154.269 162.126 156.198 163.038C152.646 161.8 154.216 158.951 157.243 160.112C155.364 158.951 154.157 155.628 159.292 156.941C155.214 155.804 157.944 152.601 168.358 154.482C170.771 154.917 177.824 155.084 177.824 155.084C177.824 155.084 173.484 148.153 176.188 148.045C179.218 147.925 181.583 151.298 183.273 152.072C190.029 155.167 206.655 152.85 219.072 147.699L212.915 131.724C220.979 126.243 229.715 121.945 239.929 120.232Z" fill="url(#paint18_linear_4119_44745)"/>
<path d="M219.072 147.697L224.613 145.752" stroke="black" stroke-width="0.87196" stroke-miterlimit="10" stroke-linecap="round" stroke-linejoin="round"/>
<path d="M158.891 156.845C163.122 158.155 167.233 158.751 171.674 159.201" stroke="black" stroke-width="0.87196" stroke-miterlimit="10" stroke-linecap="round" stroke-linejoin="round"/>
<path d="M157.163 160.109C161.353 161.636 165.696 162.744 170.106 163.411" stroke="black" stroke-width="0.87196" stroke-miterlimit="10" stroke-linecap="round" stroke-linejoin="round"/>
<path d="M155.766 162.826C159.982 164.629 163.961 165.977 168.709 167.443" stroke="black" stroke-width="0.87196" stroke-miterlimit="10" stroke-linecap="round" stroke-linejoin="round"/>
<path d="M225.168 206.716H192.58V199.704H225.168C224.422 202.041 224.422 204.379 225.168 206.716Z" fill="white"/>
<path d="M226.461 198.525C226.461 199.176 226.04 199.703 225.521 199.703H192.58V197.345H225.521C226.04 197.346 226.461 197.874 226.461 198.525ZM192.58 206.716V209.074H225.521C226.04 209.074 226.461 208.546 226.461 207.895C226.461 207.244 226.04 206.717 225.521 206.717L192.58 206.716Z" fill="url(#paint19_linear_4119_44745)"/>
<path d="M195.416 206.716H153.628C152.381 206.716 151.371 205.188 151.371 203.303V203.117C151.371 201.232 152.381 199.704 153.628 199.704H195.416C194.606 201.692 194.463 203.968 195.416 206.716Z" fill="url(#paint20_linear_4119_44745)"/>
<path d="M153.689 206.716C152.408 206.716 151.37 205.146 151.37 203.21C151.37 201.273 152.408 199.703 153.689 199.703H196.02C196.45 199.703 196.799 199.175 196.799 198.525C196.799 197.873 196.45 197.346 196.02 197.346H153.106C150.965 197.346 149.229 199.971 149.229 203.21C149.229 206.448 150.965 209.073 153.106 209.073H196.02C196.45 209.073 196.799 208.546 196.799 207.895C196.799 207.244 196.45 206.716 196.02 206.716H153.689Z" fill="url(#paint21_linear_4119_44745)"/>
<path d="M187.636 201.427H190.384V205.307L189.01 204.03L187.636 205.307V201.427Z" fill="url(#paint22_linear_4119_44745)"/>
<path d="M157.868 204.056H160.617V207.936L159.242 206.659L157.868 207.936V204.056Z" fill="url(#paint23_linear_4119_44745)"/>
<path d="M225.168 195.146H192.58V188.133H225.168C224.422 190.47 224.422 192.808 225.168 195.146Z" fill="white"/>
<path d="M226.461 186.954C226.461 187.606 226.04 188.133 225.521 188.133H192.58V185.775H225.521C226.04 185.776 226.461 186.303 226.461 186.954ZM192.58 195.145V197.503H225.521C226.04 197.503 226.461 196.975 226.461 196.324C226.461 195.673 226.04 195.146 225.521 195.146L192.58 195.145Z" fill="url(#paint24_linear_4119_44745)"/>
<path d="M195.416 195.146H153.628C152.381 195.146 151.371 193.617 151.371 191.732V191.547C151.371 189.661 152.381 188.133 153.628 188.133H195.416C194.606 190.122 194.463 192.397 195.416 195.146Z" fill="url(#paint25_linear_4119_44745)"/>
<path d="M153.689 195.146C152.408 195.146 151.37 193.576 151.37 191.64C151.37 189.703 152.408 188.133 153.689 188.133H196.02C196.45 188.133 196.799 187.605 196.799 186.954C196.799 186.303 196.45 185.776 196.02 185.776H153.106C150.965 185.776 149.229 188.401 149.229 191.64C149.229 194.878 150.965 197.503 153.106 197.503H196.02C196.45 197.503 196.799 196.975 196.799 196.325C196.799 195.673 196.45 195.146 196.02 195.146H153.689Z" fill="url(#paint26_linear_4119_44745)"/>
<path d="M183.274 191.797H186.022V195.676L184.648 194.4L183.274 195.676V191.797Z" fill="url(#paint27_linear_4119_44745)"/>
<path d="M166.336 189.699H169.084V193.58L167.71 192.303L166.336 193.58V189.699Z" fill="url(#paint28_linear_4119_44745)"/>
<path d="M117.762 137.874C116.387 136.097 121.268 132.594 128.031 132.436C128.957 131.789 132.512 131.922 133.307 133C134.08 132.337 138.009 133.193 139.283 134.929C140.682 133.95 145.078 136.885 145.939 140.89C147.024 145.935 146.709 150.056 144.646 149.441C142.583 148.826 142.238 143.067 142.238 143.067C142.238 143.067 142.123 148.856 140.446 148.613C138.15 148.281 137.543 141.575 137.543 141.575C137.543 141.575 138.448 146.698 136.602 147.078C134.756 147.458 132.014 139.829 132.014 139.829C132.014 139.829 133.7 145.571 130.949 145.854C128.199 146.138 128.383 139.377 124.495 138.595C120.992 137.89 119.138 139.652 117.762 137.874Z" fill="url(#paint29_linear_4119_44745)"/>
<path d="M128.032 132.436C130.025 134.005 131.459 137.528 132.006 139.514" stroke="black" stroke-width="0.833681" stroke-miterlimit="10" stroke-linecap="round" stroke-linejoin="round"/>
<path d="M133.307 133C135.456 135.046 137.293 139.656 137.542 141.575" stroke="black" stroke-width="0.833681" stroke-miterlimit="10" stroke-linecap="round" stroke-linejoin="round"/>
<path d="M139.283 134.929C140.195 136.47 142.265 141.121 142.238 143.067" stroke="black" stroke-width="0.833681" stroke-miterlimit="10" stroke-linecap="round" stroke-linejoin="round"/>
<path d="M109.188 113.537C112.244 112.166 113.739 110.91 117.759 113.368C121.779 115.826 122.954 126.663 122.12 129.878C121.287 133.093 120.178 135.302 120.178 135.302L112.822 129.853L109.188 113.537Z" fill="#322734"/>
<path d="M112.352 118.915C114.504 123.452 115.765 127.455 116.408 130.974C116.59 130.858 116.781 130.757 116.986 130.684C118.384 130.184 120.093 130.787 120.867 132.054C121.53 133.14 121.503 134.504 121.379 135.771C121.27 136.88 121.096 138.008 120.575 138.993C120.054 139.978 119.127 140.808 118.022 140.949C117.547 141.01 117.054 140.904 116.627 140.686C118.723 153.067 98.2586 156.246 92.2474 151.909C83.8476 145.85 84.1577 124.847 84.1577 124.847L112.352 118.915Z" fill="url(#paint30_linear_4119_44745)"/>
<path d="M118.221 133.364C118.678 133.841 119.035 134.412 119.263 135.031C119.444 135.523 119.544 136.058 119.453 136.575C119.362 137.092 119.06 137.587 118.593 137.826C118.126 138.065 117.496 137.996 117.149 137.603C116.879 137.298 116.822 136.808 117.056 136.474C117.319 136.098 117.864 136.01 118.303 136.148C118.742 136.286 119.1 136.598 119.445 136.903" stroke="black" stroke-width="0.644727" stroke-miterlimit="10" stroke-linecap="round" stroke-linejoin="round"/>
<path d="M102.669 136.755C102.78 136.609 102.979 136.481 103.166 136.463C103.365 136.443 103.582 136.479 103.74 136.612C103.787 136.659 103.833 136.704 103.879 136.75C103.961 136.856 104.012 136.976 104.033 137.109C104.169 137.621 104.306 138.133 104.443 138.646C104.49 138.824 104.401 139.08 104.293 139.22C104.181 139.366 103.982 139.494 103.796 139.513C103.596 139.533 103.38 139.496 103.221 139.364L103.083 139.226C103.001 139.12 102.949 139 102.929 138.867C102.793 138.355 102.656 137.843 102.519 137.331C102.472 137.151 102.562 136.895 102.669 136.755Z" fill="black"/>
<path d="M89.6592 138.944C89.7708 138.798 89.97 138.671 90.1561 138.652C90.3559 138.632 90.5723 138.668 90.7308 138.802C90.777 138.848 90.8232 138.893 90.8694 138.939C90.9514 139.045 91.0024 139.165 91.0231 139.298C91.1595 139.81 91.2967 140.323 91.4331 140.835C91.4807 141.013 91.3911 141.27 91.2836 141.409C91.1719 141.556 90.9727 141.683 90.7867 141.702C90.5868 141.722 90.3704 141.685 90.2119 141.552L90.0734 141.414C89.9913 141.308 89.9396 141.188 89.9197 141.055C89.7832 140.543 89.6461 140.031 89.5096 139.519C89.462 139.34 89.5523 139.084 89.6592 138.944Z" fill="black"/>
<path d="M96.8936 145.637C96.9184 145.601 96.9508 145.571 96.9915 145.555C97.0342 145.538 97.0824 145.536 97.1279 145.543C97.2127 145.557 97.3347 145.609 97.3402 145.71C97.3974 146.674 98.3113 147.278 99.23 147.11C99.2355 147.11 99.241 147.108 99.2458 147.107C99.5814 147.043 99.8757 146.843 100.043 146.541C100.213 146.235 100.225 145.854 100.118 145.525C100.063 145.356 99.8509 145.133 100.007 144.957C100.063 144.894 100.153 144.873 100.237 144.872C100.374 144.871 100.456 145.016 100.506 145.125C100.564 145.252 100.612 145.399 100.647 145.535C100.726 145.841 100.72 146.168 100.626 146.469C100.51 146.837 100.237 147.236 99.8826 147.412C99.4905 147.607 99.0466 147.684 98.6118 147.63C98.1755 147.575 97.7634 147.388 97.4436 147.084C97.1631 146.818 96.9605 146.47 96.8674 146.095C96.8385 145.979 96.8199 145.852 96.8495 145.734C96.8591 145.7 96.8736 145.666 96.8936 145.637Z" fill="black"/>
<path d="M96.6519 140.595C96.6891 141.216 96.7263 141.838 96.7628 142.46C96.7849 142.827 96.8104 143.207 96.9882 143.529C97.166 143.851 97.5423 144.095 97.8965 143.999" stroke="black" stroke-width="0.644727" stroke-miterlimit="10" stroke-linecap="round" stroke-linejoin="round"/>
<path d="M119.343 128.144C118.93 126.33 118.516 124.515 118.104 122.7C117.807 121.398 117.489 120.049 116.667 118.997C115.946 118.074 114.11 116.971 113.037 117.622L112.303 115.662C112.013 108.522 100.347 102.843 89.498 106.134C76.3289 110.129 76.5033 121.001 79.4861 123.157C77.8127 122.187 74.0787 125.485 76.8299 130.975C78.5701 134.447 81.8789 137.712 85.5771 138.901C84.9624 135.667 84.5151 132.406 84.4517 130.82C84.4517 130.82 83.899 129.918 85.0203 128.992C87.4793 126.961 94.0501 126.741 97.2396 126.736C100.429 126.732 103.64 127.14 106.795 126.67C108.339 126.44 109.898 125.949 111.256 125.175C111.748 126.723 112.478 128.193 112.792 129.567C113.034 130.623 113.05 135.699 114.235 136.104C115.301 136.468 114.219 129.693 118.962 130.524C119.802 130.671 119.533 128.976 119.343 128.144Z" fill="#463748"/>
<path d="M87.5912 136.009C87.5009 135.142 88.1274 134.257 88.9751 134.053C89.8228 133.849 90.7828 134.354 91.0957 135.167" stroke="black" stroke-width="0.87196" stroke-miterlimit="10" stroke-linecap="round" stroke-linejoin="round"/>
<path d="M100.531 133.972C100.44 133.105 101.067 132.22 101.915 132.016C102.762 131.813 103.722 132.318 104.035 133.131" stroke="black" stroke-width="0.87196" stroke-miterlimit="10" stroke-linecap="round" stroke-linejoin="round"/>
</g>
<defs>
<linearGradient id="paint0_linear_4119_44745" x1="169.042" y1="79.7044" x2="205.157" y2="184.39" gradientUnits="userSpaceOnUse">
<stop stop-color="#FFAAC6"/>
<stop offset="1" stop-color="#FF7CD8"/>
</linearGradient>
<linearGradient id="paint1_linear_4119_44745" x1="167.288" y1="77.0241" x2="176.738" y2="99.8714" gradientUnits="userSpaceOnUse">
<stop stop-color="#FFD0BF"/>
<stop offset="1" stop-color="#FFB490"/>
</linearGradient>
<linearGradient id="paint2_linear_4119_44745" x1="166.815" y1="77.2369" x2="176.245" y2="100.036" gradientUnits="userSpaceOnUse">
<stop stop-color="#FFD0BF"/>
<stop offset="1" stop-color="#FFB490"/>
</linearGradient>
<linearGradient id="paint3_linear_4119_44745" x1="159.993" y1="70.1378" x2="178.22" y2="106.712" gradientUnits="userSpaceOnUse">
<stop stop-color="#FFD0BF"/>
<stop offset="1" stop-color="#FFB490"/>
</linearGradient>
<linearGradient id="paint4_linear_4119_44745" x1="-9.48541" y1="133.785" x2="-9.48541" y2="200.539" gradientUnits="userSpaceOnUse">
<stop stop-color="#FFD0BF"/>
<stop offset="1" stop-color="#FFB490"/>
</linearGradient>
<linearGradient id="paint5_linear_4119_44745" x1="36.206" y1="102.229" x2="33.177" y2="111.749" gradientUnits="userSpaceOnUse">
<stop stop-color="#FFD0BF"/>
<stop offset="1" stop-color="#FFB490"/>
</linearGradient>
<linearGradient id="paint6_linear_4119_44745" x1="26.8564" y1="104.254" x2="44.6588" y2="104.254" gradientUnits="userSpaceOnUse">
<stop stop-color="#FFD0BF"/>
<stop offset="1" stop-color="#FFB490"/>
</linearGradient>
<linearGradient id="paint7_linear_4119_44745" x1="132.507" y1="216.069" x2="132.121" y2="143.895" gradientUnits="userSpaceOnUse">
<stop offset="0.0026" stop-color="#7973E7"/>
<stop offset="0.9947" stop-color="#448CFF"/>
</linearGradient>
<linearGradient id="paint8_linear_4119_44745" x1="102.842" y1="216.228" x2="102.456" y2="144.053" gradientUnits="userSpaceOnUse">
<stop offset="0.0026" stop-color="#7973E7"/>
<stop offset="0.9947" stop-color="#448CFF"/>
</linearGradient>
<linearGradient id="paint9_linear_4119_44745" x1="106.443" y1="216.209" x2="106.057" y2="144.034" gradientUnits="userSpaceOnUse">
<stop offset="0.0026" stop-color="#7973E7"/>
<stop offset="0.9947" stop-color="#448CFF"/>
</linearGradient>
<linearGradient id="paint10_linear_4119_44745" x1="122.186" y1="191.488" x2="154.21" y2="216.925" gradientUnits="userSpaceOnUse">
<stop stop-color="#FFD0BF"/>
<stop offset="1" stop-color="#FFB490"/>
</linearGradient>
<linearGradient id="paint11_linear_4119_44745" x1="122.186" y1="191.488" x2="154.21" y2="216.925" gradientUnits="userSpaceOnUse">
<stop stop-color="#FFD0BF"/>
<stop offset="1" stop-color="#FFB490"/>
</linearGradient>
<linearGradient id="paint12_linear_4119_44745" x1="106.687" y1="145.809" x2="109.116" y2="155.057" gradientUnits="userSpaceOnUse">
<stop stop-color="#FFD0BF"/>
<stop offset="1" stop-color="#FFB490"/>
</linearGradient>
<linearGradient id="paint13_linear_4119_44745" x1="106.686" y1="145.809" x2="109.116" y2="155.057" gradientUnits="userSpaceOnUse">
<stop stop-color="#FFD0BF"/>
<stop offset="1" stop-color="#FFB490"/>
</linearGradient>
<linearGradient id="paint14_linear_4119_44745" x1="43.0205" y1="79.7207" x2="31.1929" y2="111.742" gradientUnits="userSpaceOnUse">
<stop stop-color="#FFD0BF"/>
<stop offset="1" stop-color="#FFB490"/>
</linearGradient>
<linearGradient id="paint15_linear_4119_44745" x1="30.8536" y1="95.1704" x2="58.3178" y2="95.1704" gradientUnits="userSpaceOnUse">
<stop offset="0.0026" stop-color="#7973E7"/>
<stop offset="0.9947" stop-color="#448CFF"/>
</linearGradient>
<linearGradient id="paint16_linear_4119_44745" x1="159.378" y1="143.859" x2="167.363" y2="152.891" gradientUnits="userSpaceOnUse">
<stop stop-color="#FFD452"/>
<stop offset="1" stop-color="#FFAB20"/>
</linearGradient>
<linearGradient id="paint17_linear_4119_44745" x1="193.032" y1="148.808" x2="204.637" y2="148.808" gradientUnits="userSpaceOnUse">
<stop offset="0.0055" stop-color="#D2E7FF"/>
<stop offset="1" stop-color="#F7F7F7"/>
</linearGradient>
<linearGradient id="paint18_linear_4119_44745" x1="201.602" y1="147.11" x2="226.679" y2="173.171" gradientUnits="userSpaceOnUse">
<stop stop-color="#FFD0BF"/>
<stop offset="1" stop-color="#FFB490"/>
</linearGradient>
<linearGradient id="paint19_linear_4119_44745" x1="192.58" y1="203.21" x2="226.461" y2="203.21" gradientUnits="userSpaceOnUse">
<stop offset="0.0053" stop-color="#44C7FF"/>
<stop offset="0.9974" stop-color="#79AEE7"/>
</linearGradient>
<linearGradient id="paint20_linear_4119_44745" x1="151.371" y1="203.21" x2="195.416" y2="203.21" gradientUnits="userSpaceOnUse">
<stop offset="0.0055" stop-color="#D2E7FF"/>
<stop offset="1" stop-color="#F7F7F7"/>
</linearGradient>
<linearGradient id="paint21_linear_4119_44745" x1="149.229" y1="203.21" x2="196.799" y2="203.21" gradientUnits="userSpaceOnUse">
<stop stop-color="#C238DB"/>
<stop offset="1" stop-color="#846FF8"/>
</linearGradient>
<linearGradient id="paint22_linear_4119_44745" x1="189.01" y1="201.261" x2="189.01" y2="210.994" gradientUnits="userSpaceOnUse">
<stop stop-color="#FF7504"/>
<stop offset="1" stop-color="#FF4C01"/>
</linearGradient>
<linearGradient id="paint23_linear_4119_44745" x1="159.242" y1="201.261" x2="159.242" y2="210.994" gradientUnits="userSpaceOnUse">
<stop stop-color="#FF7504"/>
<stop offset="1" stop-color="#FF4C01"/>
</linearGradient>
<linearGradient id="paint24_linear_4119_44745" x1="192.58" y1="191.639" x2="226.461" y2="191.639" gradientUnits="userSpaceOnUse">
<stop stop-color="#FF7504"/>
<stop offset="1" stop-color="#FF4C01"/>
</linearGradient>
<linearGradient id="paint25_linear_4119_44745" x1="151.371" y1="191.639" x2="195.416" y2="191.639" gradientUnits="userSpaceOnUse">
<stop offset="0.0055" stop-color="#D2E7FF"/>
<stop offset="1" stop-color="#F7F7F7"/>
</linearGradient>
<linearGradient id="paint26_linear_4119_44745" x1="149.229" y1="191.639" x2="196.799" y2="191.639" gradientUnits="userSpaceOnUse">
<stop stop-color="#FF7504"/>
<stop offset="1" stop-color="#FF4C01"/>
</linearGradient>
<linearGradient id="paint27_linear_4119_44745" x1="184.648" y1="189.374" x2="184.648" y2="197.891" gradientUnits="userSpaceOnUse">
<stop offset="0.0053" stop-color="#448CFF"/>
<stop offset="0.9974" stop-color="#7973E7"/>
</linearGradient>
<linearGradient id="paint28_linear_4119_44745" x1="167.71" y1="189.374" x2="167.71" y2="197.891" gradientUnits="userSpaceOnUse">
<stop offset="0.0053" stop-color="#448CFF"/>
<stop offset="0.9974" stop-color="#7973E7"/>
</linearGradient>
<linearGradient id="paint29_linear_4119_44745" x1="131.349" y1="134.053" x2="132.384" y2="144.727" gradientUnits="userSpaceOnUse">
<stop stop-color="#FFD0BF"/>
<stop offset="1" stop-color="#FFB490"/>
</linearGradient>
<linearGradient id="paint30_linear_4119_44745" x1="100.174" y1="119.99" x2="107.669" y2="156.783" gradientUnits="userSpaceOnUse">
<stop stop-color="#FFD0BF"/>
<stop offset="1" stop-color="#FFB490"/>
</linearGradient>
</defs>
</svg>
