<svg width="221" height="220" viewBox="0 0 221 220" fill="none" xmlns="http://www.w3.org/2000/svg">
<circle cx="110.5" cy="110" r="108" fill="#C7FFD7" stroke="#C7FFD7" stroke-width="4"/>
<mask id="mask0_4119_44465" style="mask-type:alpha" maskUnits="userSpaceOnUse" x="0" y="0" width="221" height="220">
<circle cx="110.5" cy="110" r="110" fill="#D9D9D9"/>
</mask>
<g mask="url(#mask0_4119_44465)">
<path d="M130.606 105.359C130.606 105.359 125.546 120.046 114.784 123.578C104.022 127.111 98.9091 134.082 103.836 143.006C103.836 143.006 106.066 141.425 105.447 138.699C105.447 138.699 106.81 148.831 113.441 148.165C113.441 148.165 114.99 150.659 117.965 149.729C120.939 148.8 147.383 124.632 147.383 124.632L137.361 106.909L130.606 105.359Z" fill="#5B3C48"/>
<path d="M129.901 110.43C129.901 110.43 128.933 117.134 130.73 121.162C132.527 125.19 141.265 130.953 141.265 130.953L145.912 124.632L139.282 113.714L129.901 110.43Z" fill="#442A34"/>
<path d="M118.358 149.048C118.358 149.048 114.153 149.605 112.015 156.298C110.217 161.93 107.496 174.536 106.679 178.393C106.535 179.072 106.86 179.759 107.473 180.082L110.9 181.891L118.358 149.048Z" fill="#9E6944"/>
<path d="M123.188 132.502C123.188 132.502 119.142 138.637 115.548 158.467C111.954 178.297 116.787 184.99 116.787 184.99L123.542 187.902L138.756 155.369L123.188 132.502Z" fill="#8E5D3C"/>
<path d="M120.103 156.928C120.225 156.928 120.333 156.841 120.356 156.716C122.821 143.294 126.465 139.885 126.502 139.852C126.607 139.756 126.616 139.593 126.521 139.487C126.425 139.382 126.261 139.373 126.156 139.468C126.001 139.607 122.344 143.029 119.848 156.624C119.822 156.764 119.915 156.898 120.055 156.925C120.072 156.927 120.087 156.928 120.103 156.928Z" fill="#56341D"/>
<path d="M123.176 187.745L118.357 185.667L127.818 142.495L131.213 144.29L138.756 155.369L123.616 187.745H123.176Z" fill="#754A2D"/>
<path d="M172.993 187.097L173.116 187.912L178.015 220.436H111.458C111.458 220.436 119.544 188.646 124.657 181.489" fill="#3E4F6B"/>
<path d="M150.591 193.913C134.551 192.994 125.254 186.75 122.787 184.864C123.438 183.47 124.068 182.314 124.657 181.489L172.993 187.097L173.116 187.912L173.179 188.331C173.178 188.332 166.422 194.821 150.591 193.913Z" fill="#36465E"/>
<path d="M170.39 161.883C170.39 161.883 180.487 163.103 188.192 153.279C188.435 152.97 188.373 152.521 188.059 152.283C185.735 150.529 177.094 143.534 176.37 136.09C175.534 127.482 175.906 124.322 172.807 122.308H167.689L170.39 161.883Z" fill="#5B3C48"/>
<path d="M171.18 123.485L174.871 125.124C174.871 125.124 175.595 129.667 172.714 131.619C170.492 133.124 168.938 132.31 168.34 131.858L168.285 131.047L171.18 123.485Z" fill="#442A34"/>
<path d="M180.522 129.063L203.345 115.051L202.738 131.139L185.757 142.425L180.522 129.063Z" fill="#F6B994"/>
<path d="M185.757 142.425L180.522 129.063L183.15 127.449C188.005 132.827 188.535 138.194 188.985 140.28L185.757 142.425Z" fill="#EAA28C"/>
<path d="M170.39 131.077L181.322 126.657C181.72 126.497 182.172 126.687 182.335 127.084L188.56 142.251C188.733 142.671 188.581 143.154 188.201 143.401L173.86 152.704L170.39 131.077Z" fill="#5FBE7A"/>
<path d="M173.179 147.746L188.206 141.389L188.56 142.251C188.732 142.671 188.581 143.154 188.201 143.401L173.86 152.704L173.179 148.455V147.746Z" fill="#69D387"/>
<path d="M170.027 128.319C170.027 128.319 179.812 147.402 171.569 165.793H165.838L160.795 129.602L170.027 128.319Z" fill="#CC9252"/>
<path d="M163.883 132.917L164.846 132.795C164.622 131.862 164.565 130.905 164.565 130.905L169.184 128.436L170.027 128.319C170.027 128.319 170.583 129.409 171.316 131.302C170.212 132.325 168.709 133.176 167.555 133.744C169.006 138.401 173.771 154.956 170.7 162.456H165.372L163.666 150.205L163.883 132.917Z" fill="#C47D4D"/>
<path d="M116.291 124.632C109.18 112.703 102.441 105.824 102.441 105.824C102.441 105.824 97.8866 100.712 94.7262 98.6669C91.5658 96.6219 78.3663 91.0446 78.3663 91.0446C77.6692 89.4644 78.9705 88.5349 78.9705 88.5349C79.5747 88.5349 87.4293 90.7193 87.4293 90.7193C84.5478 86.5829 78.2734 84.4449 78.2734 84.4449C77.065 82.2605 79.1564 81.1915 79.1564 81.1915C81.7127 81.1451 89.6602 86.0251 89.6602 86.0251C86.7322 82.9112 80.0395 77.4734 80.0395 77.4734C79.5747 76.7762 80.2254 74.8242 82.131 75.0101C84.0365 75.196 88.6842 79.193 89.4278 79.8902C90.1715 80.5874 92.7277 83.376 93.0065 83.0041C93.2854 82.6323 92.9601 82.0746 92.3094 80.6803C91.6587 79.286 86.1744 72.7637 86.1744 72.7637C86.2364 70.5329 88.4673 70.6568 89.3968 71.0906C90.3264 71.5244 94.9121 76.6368 96.4923 79.1001C98.0725 81.5634 100.272 84.321 100.272 84.321C100.489 83.8562 100.954 83.0506 100.954 83.0506C100.954 83.0506 100.489 79.6113 102.023 76.9157C103.557 74.22 106.02 75.4284 105.695 76.0326C105.369 76.6368 105.183 83.0971 106.02 86.0251C106.857 88.9532 105.695 92.346 105.695 92.346L124.471 114.469L126.329 115.77C126.329 115.77 122.562 127.606 118.956 127.297C115.35 126.987 116.291 124.632 116.291 124.632Z" fill="#F6B994"/>
<path d="M99.4671 85.3124C98.5685 87.4193 98.0495 91.3745 98.0495 91.3745C96.5907 88.0622 98.2514 84.0776 98.9682 82.6255C99.4211 83.2297 99.7991 83.7182 100.03 84.0136C99.889 84.3317 99.7062 84.751 99.4671 85.3124Z" fill="#EAA28C"/>
<path d="M118.956 127.297C115.35 126.987 116.291 124.632 116.291 124.632C113.448 119.863 110.666 115.904 108.35 112.867L108.349 112.866C108.349 112.866 116.012 121.1 117.453 123.145C117.453 123.145 122.798 118.559 124.471 114.469L126.239 116.046C125.647 117.817 122.235 127.579 118.956 127.297Z" fill="#EAA28C"/>
<path d="M134.386 122.153L126.578 114.1C126.034 113.538 125.117 113.599 124.651 114.227L124.471 114.469L125.819 115.77C125.819 115.77 123.201 123.414 117.453 126.553L116.291 124.632C116.291 124.632 114.782 125.964 114.784 126.837C114.784 127.107 114.86 127.372 115.022 127.587L131.659 149.729C131.659 149.729 137.527 138.447 136.528 131.379C135.529 124.311 136.643 123.718 136.643 123.718L134.386 122.153Z" fill="#5FBE7A"/>
<path d="M116.066 128.976L128.389 138.834C129.26 139.53 130.559 139.105 130.849 138.029L134.932 122.856L136.358 124.233C136.173 124.811 136.001 126.018 136.202 128.514L134.64 142.721C133.255 146.659 131.66 149.729 131.66 149.729L116.066 128.976Z" fill="#69D387"/>
<path d="M140.06 127.918C140.06 127.918 137.485 123.482 135.564 121.826L134.387 122.153L135.564 123.671C135.564 123.671 134.418 149.141 127.353 153.509C127.353 153.509 125.463 161.689 128.314 166.895C128.314 166.895 136.811 159.243 140.06 145.841C143.31 132.44 140.06 127.918 140.06 127.918Z" fill="#CC9252"/>
<path d="M129.739 163.363C140.599 147.274 138.625 125.661 138.624 125.632C139.459 126.885 140.061 127.918 140.061 127.918C140.061 127.918 143.31 132.44 140.061 145.841C136.811 159.243 128.314 166.895 128.314 166.895C126.109 162.869 126.74 157.068 127.139 154.644C128.313 160.869 129.739 163.363 129.739 163.363Z" fill="#C47D4D"/>
<path d="M165.455 133.308C165.455 133.308 170.08 146.446 172.559 175.819C172.559 175.819 175.657 180.776 175.348 182.697C175.038 184.619 172.993 187.097 172.993 187.097C172.993 187.097 160.537 193.79 145.045 190.32C129.552 186.849 124.471 183.875 124.471 183.875C124.471 183.875 122.302 180.157 123.603 176.624C124.905 173.092 128.313 166.895 128.313 166.895C128.313 166.895 134.789 161.899 136.927 154.316C136.927 154.316 140.06 148.764 141.265 141.627C142.47 134.491 145.478 132.502 145.478 132.502L165.455 133.308Z" fill="#5FBE7A"/>
<path d="M172.993 187.097C172.993 187.097 160.537 193.789 145.045 190.319C129.553 186.849 124.471 183.874 124.471 183.874C124.471 183.874 122.302 180.156 123.604 176.624C124.25 174.87 125.416 172.459 126.426 170.476L124.719 178.669C124.719 178.669 134.214 187.531 148.825 189.111C160.624 190.387 171.426 185.422 175.149 183.462C174.543 185.216 172.993 187.097 172.993 187.097Z" fill="#69D387"/>
<path d="M160.683 181.767C160.683 181.767 143.929 180.652 138.476 168.506C138.476 168.506 145.336 178.545 160.683 181.767Z" fill="#69D387"/>
<path d="M155.053 182.418L147.105 170.892C147.105 170.892 149.343 156.608 149.58 151.217C149.817 145.825 149.538 143.316 151.66 142.495L152.481 171.976L154.522 178.421L155.053 182.418Z" fill="#69D387"/>
<path d="M165.455 133.308C165.455 133.308 165.596 133.711 165.837 134.513C165.833 134.515 161.696 136.685 156.865 135.942H155.752V132.917L165.455 133.308Z" fill="#69D387"/>
<path d="M149.817 138.802C149.817 138.802 144.209 142.107 142.35 140.775C142.35 140.775 139.716 152.89 136.927 154.315C136.927 154.315 142.756 137.585 140.06 127.918L141.265 127.297L150.591 136.778L149.817 138.802Z" fill="#69D387"/>
<path d="M154.557 187.077C155.285 184.573 153.479 176.854 153.46 176.776C153.395 176.499 153.567 176.221 153.845 176.155C154.121 176.092 154.4 176.261 154.466 176.539C154.543 176.867 156.352 184.601 155.549 187.365C155.091 188.94 153.877 190.346 152.875 191.294C152.385 191.28 151.89 191.256 151.389 191.223C152.317 190.459 154.041 188.853 154.557 187.077Z" fill="#359E53"/>
<path d="M157.144 142.495C157.144 142.495 161.187 167.453 160.63 176.004L155.982 182.139C155.982 182.139 150.498 172.937 148.36 170.613C148.36 170.613 150.374 161.318 150.622 154.811C150.87 148.304 150.839 143.192 151.66 142.495C151.66 142.495 155.192 140.542 157.144 142.495Z" fill="#36465E"/>
<path d="M158.47 138.399C158.47 138.399 159.274 139.071 159.917 140.334C160.114 140.722 160.622 140.828 160.962 140.557L161.734 139.944C161.734 139.944 161.282 137.15 158.772 136.128L158.47 138.399Z" fill="#69D387"/>
<path d="M159.032 136.662L157.144 142.495C157.144 142.495 155.61 141.147 151.66 142.495L148.894 136.953C148.894 136.953 153.499 132.208 159.032 136.662Z" fill="#3E4F6B"/>
<path d="M159.032 136.662L158.47 138.399C158.016 138.093 156.905 137.583 154.521 137.583C151.118 137.583 149.816 138.802 149.816 138.802L148.894 136.954C148.894 136.954 153.499 132.208 159.032 136.662Z" fill="#36465E"/>
<path d="M162.766 132.812L161.901 140.31C161.901 140.31 160.104 135.711 155.395 135.253C155.395 135.253 152.668 134.484 149.508 136.56C146.347 138.636 143.744 139.566 143.744 139.566C143.744 139.566 141.266 130.518 141.266 127.296C141.266 127.296 144.55 124.507 145.17 123.454L162.766 132.812Z" fill="#F7F7F7"/>
<path d="M142.348 126.348C143.363 125.439 144.783 124.11 145.168 123.454L146.239 124.024L147.616 125.205L147.466 129.602C147.466 129.602 145.741 127.599 144.881 125.771C144.737 125.465 144.374 125.339 144.072 125.489L142.348 126.348Z" fill="#EDEEEF"/>
<path d="M162.433 135.688C161.191 135.972 159.69 136.163 158.071 136.064C157.4 135.707 156.629 135.438 155.752 135.309V132.916L162.721 133.197L162.433 135.688Z" fill="#EDEEEF"/>
<path d="M145.913 123.95C145.913 123.95 146.318 133.308 154.915 136.282C154.915 136.282 157.253 136.468 158.182 132.254L145.913 123.95Z" fill="#EFAE8B"/>
<path d="M156.847 135.253C155.338 134.93 151.953 133.594 146.878 128.218C145.998 125.855 145.913 123.95 145.913 123.95L158.182 132.254C157.857 133.732 157.357 134.66 156.847 135.253Z" fill="#F38B82"/>
<path d="M131.124 101.883C131.124 101.883 127.954 103.834 131.124 107.695L133.348 105.36L131.124 101.883Z" fill="#F7527E"/>
<path d="M143.248 120.604C143.248 120.604 140.025 122.463 137.732 121.595C135.44 120.728 130.916 117.134 130.11 114.221C129.305 111.309 130.11 106.971 132.527 105.298C134.944 103.624 138.166 106.847 138.166 106.847C138.166 106.847 139.591 118.001 143.248 120.604Z" fill="#F6B994"/>
<path d="M132.636 107.939C132.636 107.939 135.129 111.557 135.346 111.867C135.346 111.867 134.633 111.216 134.293 111.557C133.952 111.898 135.346 113.912 135.346 113.912C135.346 113.912 133.515 112.011 132.481 111.993C132.369 111.991 132.302 112.119 132.361 112.214C132.703 112.766 133.749 114.382 134.569 114.841L137.291 117.013C137.291 117.013 136.262 114.508 136.098 113.652C135.935 112.796 137.524 113.268 137.524 113.268L134.445 108.415C134.445 108.415 133.55 107.512 132.636 107.939Z" fill="#F38B82"/>
<path d="M179.337 110.983C179.337 110.983 182.66 112.486 180.925 118.249C179.19 124.012 175.72 125.128 175.162 125.128C174.604 125.128 173.21 125.128 173.179 123.857C173.148 122.587 177.026 108.861 177.026 108.861L179.337 110.983Z" fill="#EFAE8B"/>
<path d="M177.455 122.567C177.548 122.567 177.639 122.516 177.684 122.427C177.75 122.3 177.7 122.144 177.573 122.079L175.404 120.964C175.277 120.899 175.121 120.948 175.056 121.075C174.991 121.202 175.041 121.358 175.168 121.423L177.337 122.538C177.374 122.557 177.415 122.567 177.455 122.567Z" fill="#D1937D"/>
<path d="M175.532 120.771C175.892 120.771 177.184 120.691 177.587 119.576C178.053 118.287 177.234 117.289 176.598 116.832C177.948 114.339 179.812 114.015 179.832 114.012C179.972 113.99 180.069 113.858 180.047 113.718C180.025 113.577 179.892 113.481 179.754 113.502C179.663 113.515 177.514 113.871 176.03 116.804C175.968 116.926 176.013 117.076 176.131 117.144C176.191 117.179 177.603 118.016 177.101 119.401C176.771 120.316 175.481 120.254 175.469 120.254C175.309 120.244 175.204 120.355 175.197 120.497C175.188 120.639 175.297 120.761 175.44 120.769C175.448 120.769 175.48 120.771 175.532 120.771Z" fill="#D1937D"/>
<path d="M177.455 110.379C177.455 110.379 175.596 133.432 162.025 133.989C148.695 134.537 137.795 116.08 137.361 106.909L147.524 92.1601L174.109 90.0531L177.455 110.379Z" fill="#F6B994"/>
<path d="M172.807 93.9262L177.455 110.379C177.455 110.379 178.756 110.658 179.337 110.983C179.337 110.983 183.915 101.177 179.337 91.7882C174.759 82.3999 154.34 74.065 143.062 81.9971C131.783 89.9292 128.933 101.579 132.527 105.298C132.527 105.298 134.634 103.748 137.36 106.909C137.36 106.909 146.222 106.847 151.056 98.3879C151.056 98.3879 160.723 101.739 164.255 94.9048L161.521 100.329C161.363 100.643 161.592 101.014 161.944 101.008C164.021 100.971 169.859 100.276 172.807 93.9262Z" fill="#5B3C48"/>
<path d="M175.642 96.3895C176.721 98.6963 180.029 101.623 181.307 102.702C180.962 107.502 179.337 110.983 179.337 110.983C178.756 110.658 177.455 110.379 177.455 110.379L172.807 93.9262C172.807 93.9262 174.418 89.5264 174.48 89.1855C174.48 89.1855 174.294 93.5079 175.642 96.3895Z" fill="#442A34"/>
<path d="M137.361 106.909C134.634 103.748 132.528 105.298 132.528 105.298C131.434 104.166 130.941 102.297 131.097 100.024C132.381 102.469 139.53 101.967 139.53 101.967C138.693 103.036 136.37 103.315 136.37 103.315C147.338 103.779 152.977 94.9048 152.977 94.9048L151.056 98.388C146.223 106.847 137.361 106.909 137.361 106.909Z" fill="#442A34"/>
<path d="M133.121 88.6851C135.166 86.9035 138.885 89.215 138.95 89.2553L138.95 89.2542C138.834 89.152 134.244 85.094 136.781 83.9058C139.223 82.7624 140.157 88.5504 140.157 88.5504L140.151 88.554L140.158 88.556C140.185 88.5111 142.365 84.826 143.945 86.304C145.628 87.8795 141.302 89.6937 140.647 89.6503C140.665 89.6539 144.302 90.334 144.487 91.1686C144.673 92.0051 144.023 93.2755 141.854 92.5009C141.155 92.2515 140.716 91.8858 140.439 91.5058C140.321 92.3093 140.008 93.4356 139.183 94.3125C138.946 94.5639 138.534 94.5319 138.331 94.2531C137.782 93.5012 137.11 91.9633 139.258 90.5659C139.257 90.5649 139.257 90.5638 139.256 90.5628C136.928 92.159 134.038 90.0195 133.123 89.2434C132.952 89.0983 132.952 88.8323 133.121 88.6851Z" fill="#FFE10B"/>
<path d="M174.108 103.624C174.108 103.624 170.39 101.207 167.973 104.678C167.973 104.678 168.159 101.951 170.638 101.827C173.64 101.677 174.108 103.624 174.108 103.624Z" fill="#5B3C48"/>
<path d="M159.979 103.248C159.979 103.248 156.323 100.216 151.799 102.137C151.799 102.137 153.141 100.16 155.889 100.402C158.709 100.65 159.979 103.248 159.979 103.248Z" fill="#5B3C48"/>
<path d="M168.917 109.081C169.173 110.378 169.878 111.332 170.492 111.21C171.106 111.089 171.396 109.939 171.139 108.642C170.883 107.345 170.178 106.391 169.564 106.512C168.95 106.633 168.66 107.784 168.917 109.081Z" fill="#5B3C48"/>
<path d="M153.612 107.776C153.612 109.111 154.196 110.193 154.915 110.193C155.635 110.193 156.218 109.111 156.218 107.776C156.218 106.441 155.635 105.359 154.915 105.359C154.195 105.359 153.612 106.442 153.612 107.776Z" fill="#5B3C48"/>
<path d="M165.26 116.524C165.26 116.524 164.596 115.957 162.52 116.019C160.444 116.081 160.269 116.735 160.27 117.107C160.27 117.874 164.22 118.454 165.26 116.524Z" fill="#F38B82"/>
<path d="M162.521 109.697C162.968 110.468 163.452 111.162 163.904 111.869C164.363 112.565 164.762 113.301 164.995 114.047C165.227 114.794 165.244 115.542 164.891 116.092C164.546 116.653 163.855 117.042 163.117 117.326L163.099 117.333C162.833 117.435 162.7 117.733 162.802 118C162.901 118.257 163.185 118.389 163.443 118.305C163.884 118.162 164.326 117.997 164.74 117.727C165.154 117.471 165.558 117.128 165.829 116.662C166.11 116.206 166.235 115.66 166.227 115.153C166.225 114.641 166.101 114.163 165.938 113.723C165.608 112.839 165.089 112.094 164.536 111.404C163.965 110.727 163.31 110.122 162.521 109.697Z" fill="#D1937D"/>
<path d="M137.798 106.275L140.599 105.359C138.926 107.776 138.65 112.841 138.65 112.841L138.649 112.84C137.889 110.661 137.442 108.623 137.361 106.909L137.798 106.275Z" fill="#442A34"/>
<path d="M168.037 122.669C167.068 123.275 166.009 123.76 164.925 124.06C164.65 124.121 164.378 124.192 164.104 124.246L163.275 124.367C162.997 124.376 162.719 124.378 162.442 124.395C162.165 124.399 161.889 124.357 161.613 124.342C161.333 124.34 161.067 124.248 160.793 124.203C160.518 124.155 160.244 124.103 159.984 123.996L159.186 123.728L158.42 123.362C158.291 123.302 158.157 123.249 158.03 123.182L157.666 122.955L156.92 122.51C156.44 122.184 155.983 121.818 155.474 121.492C155.837 121.959 156.217 122.428 156.636 122.861L157.322 123.454L157.673 123.746C157.796 123.834 157.929 123.911 158.057 123.994L158.846 124.468C159.124 124.6 159.413 124.714 159.701 124.828C159.983 124.957 160.285 125.031 160.589 125.101C160.893 125.169 161.193 125.259 161.507 125.27C162.745 125.437 164.021 125.273 165.178 124.854C166.337 124.433 167.4 123.8 168.271 122.935C168.34 122.866 168.341 122.754 168.272 122.685C168.213 122.625 168.121 122.616 168.053 122.659L168.037 122.669Z" fill="#D1937D"/>
<path d="M154.235 126.617C153.855 126.09 153.396 125.687 152.932 125.303C152.462 124.922 151.982 124.592 151.411 124.333L151.398 124.328C151.278 124.274 151.136 124.327 151.082 124.447C151.056 124.504 151.055 124.566 151.073 124.621C151.186 124.96 151.385 125.23 151.596 125.475C151.813 125.715 152.05 125.928 152.307 126.112C152.82 126.481 153.368 126.794 154.013 126.953C154.127 126.982 154.243 126.912 154.272 126.797C154.287 126.734 154.273 126.671 154.238 126.622L154.235 126.617Z" fill="#D1937D"/>
<path d="M137.36 117.423C137.417 117.423 137.475 117.404 137.522 117.366C137.614 117.291 137.643 117.164 137.594 117.056C136.903 115.564 136.241 113.759 136.357 113.453C136.486 113.258 137.157 113.39 137.571 113.56C137.672 113.602 137.792 113.574 137.864 113.49C137.937 113.407 137.948 113.286 137.892 113.191C137.381 112.315 134.782 107.924 133.866 107.538C132.81 107.096 131.925 108.22 131.888 108.269C131.801 108.382 131.821 108.543 131.934 108.63C132.047 108.717 132.208 108.698 132.296 108.585C132.303 108.576 132.978 107.725 133.665 108.014C134.197 108.238 135.935 110.918 137.111 112.885C136.68 112.8 136.167 112.802 135.92 113.18C135.644 113.601 136.173 115.082 136.704 116.328C135.678 115.509 133.977 114.08 133.427 113.186C133.354 113.065 133.195 113.026 133.073 113.102C132.951 113.176 132.913 113.335 132.988 113.457C133.84 114.845 137.068 117.269 137.205 117.372C137.251 117.406 137.306 117.423 137.36 117.423Z" fill="#D1937D"/>
<path d="M153.963 157.29C153.963 157.29 155.657 165.64 157.702 166.802C157.702 166.802 156.684 162.696 153.963 157.29Z" fill="#2E3E54"/>
<path d="M144.642 189.111C144.642 189.111 138.879 187.345 136.927 179.537C136.927 179.537 136.834 188.181 144.642 189.111Z" fill="#69D387"/>
<path d="M144.011 160.44C143.262 160.634 142.112 160.869 140.945 160.869C140.179 160.869 139.406 160.768 138.733 160.488C137.184 159.842 135.934 158.924 135.284 158.393C135.365 158.237 135.445 158.079 135.524 157.92C136.119 158.412 137.381 159.365 138.931 160.011C140.55 160.686 142.932 160.186 143.881 159.939C144.154 159.869 144.358 159.655 144.413 159.382L146.707 148.036C146.761 147.771 146.598 147.512 146.336 147.445L139.309 145.65C139.345 145.483 139.381 145.314 139.417 145.144L146.464 146.944C146.993 147.08 147.321 147.603 147.213 148.137L144.919 159.483C144.825 159.952 144.477 160.318 144.011 160.44Z" fill="#359E53"/>
<path d="M124.471 114.469L124.651 114.227C125.044 113.696 125.573 113.489 126.114 113.801C126.289 114.701 125.819 115.77 125.819 115.77L124.471 114.469Z" fill="#359E53"/>
<path d="M114.784 126.838C114.782 125.964 116.291 124.632 116.291 124.632L117.453 126.553C117.453 126.553 116.08 127.345 114.966 127.496C114.845 127.299 114.784 127.071 114.784 126.838Z" fill="#359E53"/>
<path d="M98.5034 89.9782C98.3376 90.7384 98.2157 91.5089 98.0722 92.284C98.0536 91.891 98.0479 91.497 98.0469 91.1024C98.068 90.7094 98.0722 90.3134 98.113 89.9204C98.1718 89.1313 98.3175 88.352 98.4698 87.5728C98.6599 86.8028 98.8752 86.0354 99.1665 85.2928C99.3715 84.7831 99.5946 84.2858 99.8672 83.8051C100.118 84.1288 100.272 84.3215 100.272 84.3215C100.33 84.1975 100.406 84.0493 100.485 83.8985C100.23 84.4268 99.9901 84.9758 99.7805 85.5299C99.5083 86.2477 99.262 86.9779 99.057 87.722C98.8396 88.4631 98.6619 89.217 98.5034 89.9782Z" fill="#D1937D"/>
<path d="M171.608 192.531C171.059 192.437 170.504 192.338 169.978 192.213C169.45 192.084 168.94 191.934 168.453 191.748C167.962 191.57 167.503 191.343 167.051 191.099C166.586 190.866 166.181 190.554 165.7 190.266L165.655 190.24C165.445 190.114 165.172 190.182 165.046 190.392C164.962 190.534 164.965 190.704 165.041 190.838C165.349 191.386 165.773 191.891 166.299 192.258C166.814 192.639 167.401 192.922 168.009 193.092C168.616 193.265 169.241 193.357 169.859 193.348C170.48 193.338 171.084 193.259 171.681 193.035C171.815 192.985 171.883 192.835 171.832 192.701C171.799 192.611 171.721 192.552 171.634 192.537L171.608 192.531Z" fill="#2A3A4C"/>
<path d="M135.527 190.293C134.654 190.65 133.589 190.788 132.581 190.866C132.326 190.886 132.069 190.901 131.81 190.907C131.552 190.919 131.294 190.93 131.033 190.92C130.773 190.921 130.514 190.933 130.252 190.926C129.99 190.918 129.729 190.898 129.467 190.9C128.942 190.898 128.415 190.838 127.885 190.825L126.289 190.71C125.757 190.652 125.215 190.633 124.675 190.588C124.133 190.546 123.589 190.505 123.029 190.506C123.524 190.758 124.033 190.967 124.544 191.177C125.059 191.371 125.586 191.535 126.115 191.691C126.644 191.85 127.188 191.947 127.729 192.07C128.276 192.161 128.825 192.239 129.381 192.292C130.491 192.391 131.628 192.369 132.751 192.167C133.867 191.947 135.003 191.627 135.908 190.718C136.017 190.608 136.016 190.431 135.907 190.322C135.825 190.241 135.705 190.221 135.604 190.261L135.527 190.293Z" fill="#2A3A4C"/>
<path d="M120.8 157.625C120.879 157.625 120.958 157.589 121.008 157.519C121.092 157.404 121.067 157.243 120.952 157.159L119.488 156.09C119.374 156.005 119.212 156.03 119.127 156.146C119.043 156.261 119.069 156.423 119.183 156.506L120.647 157.575C120.693 157.609 120.746 157.625 120.8 157.625Z" fill="#56341D"/>
<path d="M124.223 162.932L115.477 158.859L115.75 157.368L114.255 158.094C113.751 158.339 113.387 158.803 113.268 159.352L109.165 178.359C109.165 178.359 109.97 181.21 110.9 181.891L116.787 184.99C116.787 184.99 117.788 184.813 118.621 184.538C119.075 184.389 119.433 184.042 119.618 183.602C120.467 181.584 123.035 174.846 124.666 163.756C124.716 163.415 124.535 163.077 124.223 162.932Z" fill="#B27C57"/>
<path d="M111.312 147.98C111.105 146.757 111.318 145.283 111.318 145.283L113.44 148.165C112.659 148.243 111.954 148.168 111.312 147.98Z" fill="#442A34"/>
<path d="M206.34 129.451C215.073 118.652 222.721 112.8 222.721 112.8C222.721 112.8 227.956 108.387 231.375 106.811C234.793 105.236 248.651 101.59 248.651 101.59C249.566 100.125 248.41 99.0195 248.41 99.0195C247.812 98.9338 239.726 99.9806 239.726 99.9806C243.166 96.2955 249.681 95.07 249.681 95.07C251.187 93.0793 249.268 91.7242 249.268 91.7242C246.745 91.3152 238.185 95.0168 238.185 95.0168C241.525 92.3501 248.922 87.9183 248.922 87.9183C249.482 87.2944 249.115 85.2696 247.202 85.1828C245.29 85.0961 240.121 88.3928 239.286 88.9769C238.451 89.5615 235.525 91.9587 235.302 91.5512C235.079 91.1438 235.48 90.6377 236.322 89.3498C237.164 88.0618 243.519 82.3849 243.519 82.3849C243.774 80.168 241.548 79.9738 240.566 80.2713C239.585 80.5687 234.319 84.9778 232.406 87.1917C230.492 89.4055 227.922 91.8228 227.922 91.8228C227.773 91.3317 227.428 90.4683 227.428 90.4683C227.428 90.4683 228.377 87.1297 227.241 84.2435C226.105 81.3573 223.495 82.2037 223.732 82.8482C223.968 83.4926 223.235 89.9137 221.991 92.693C220.747 95.4723 221.415 98.9958 221.415 98.9958L199.686 118.228L197.663 119.252C197.663 119.252 199.711 131.503 203.324 131.709C206.938 131.915 206.34 129.451 206.34 129.451Z" fill="#F6B994"/>
<path d="M69.8979 220.681L70.8275 218.218L77.2878 214.36V220.681H69.8979Z" fill="#36465E"/>
<path d="M70.2669 220.681L71.1902 218.499L77.13 214.573C77.1749 214.543 77.1888 214.483 77.1609 214.436C77.132 214.388 77.0701 214.373 77.022 214.402L70.8453 218.108L70.7776 218.148L70.7451 218.226L69.7061 220.681H70.2669Z" fill="#2A3A4C"/>
<path d="M98.3582 193.783C98.3582 193.783 101.755 208.597 102.809 220.681H50.6885L51.932 195.15L98.3582 193.783Z" fill="#3E4F6B"/>
<path d="M98.3582 193.783C98.3582 193.783 101.755 208.597 102.809 220.681H50.6885" fill="#3E4F6B"/>
<path d="M81.4297 201.626C72.5061 202.927 60.8869 201.904 57.8659 201.161C54.8449 200.417 51.8027 197.811 51.8027 197.811L51.9324 195.15L98.3586 193.784C98.3586 193.784 98.5084 194.375 98.7516 195.401L97.5107 196.653C97.5107 196.653 90.3532 200.324 81.4297 201.626Z" fill="#36465E"/>
<path d="M49.0576 145.822L86.8671 143.53L90.0445 169.093L74.6127 176.807L49.495 167.283L49.0576 145.822Z" fill="#7180EA"/>
<path d="M97.132 201.198C95.7821 201.566 94.3826 201.783 92.9692 201.797C91.5589 201.806 90.1264 201.607 88.7858 201.113C87.4354 200.642 86.2161 199.842 85.1704 198.89C84.9896 198.726 84.9731 198.446 85.1348 198.262C85.2985 198.075 85.582 198.056 85.7689 198.22L85.7761 198.226C86.7589 199.087 87.8852 199.775 89.1137 200.198C90.3355 200.639 91.6482 200.813 92.9578 200.796C94.27 200.773 95.5843 200.561 96.8598 200.204C97.7615 199.958 98.6595 199.641 99.5235 199.281C99.587 199.597 99.6521 199.924 99.7187 200.261C98.8811 200.642 98.0202 200.949 97.132 201.198Z" fill="#2A3A4C"/>
<path d="M82.9702 145.592L83.3353 149.06L84.2649 169.556L94.0229 163.607L89.052 145.822C89.052 145.822 83.844 145.134 82.9702 145.592Z" fill="#4E62C6"/>
<path d="M87.3137 167.698H84.6826V165.141L88.4963 162.337V166.977L87.3137 167.698Z" fill="#354DA5"/>
<path d="M80.0663 149.479L83.3352 149.06L85.4731 168.627L79.71 170.904L80.0663 149.479Z" fill="#BF3C3C"/>
<path d="M49.404 152.833L51.7155 152.484L80.0664 149.479L81.4297 165.141L70.6471 178.759L45.1777 176.21L49.404 152.833Z" fill="#DD5858"/>
<path d="M98.626 187.311C98.626 187.311 101.601 190.75 100.578 192.144C99.5556 193.539 88.3061 199.766 81.6145 199.952C74.9228 200.138 59.5018 200.68 53.4505 197.164C46.5719 193.167 50.7548 189.502 50.7548 189.502V182.508L98.626 187.311Z" fill="#5FBE7A"/>
<path d="M100.289 189.76C98.3716 190.641 91.1997 193.524 83.5677 191.303C78.5627 189.846 84.4048 187.261 90.6048 186.506L98.6262 187.311C98.6262 187.311 99.6497 188.498 100.289 189.76Z" fill="#69D387"/>
<path d="M52.1419 193.521C52.4429 193.461 52.7466 193.576 52.949 193.808C53.877 194.871 57.7232 197.761 72.351 198.372C86.3907 198.959 96.6398 194.332 100.473 192.265C98.9658 193.863 88.131 199.771 81.6144 199.952C74.9228 200.138 59.5017 200.68 53.4504 197.163C51.5253 196.045 50.4677 194.953 49.9409 193.959L52.1419 193.521Z" fill="#69D387"/>
<path d="M67.1696 189.177C67.4216 189.311 67.5182 189.623 67.385 189.876C67.369 189.906 65.7686 192.964 66.0914 194.943C66.3026 196.238 68.0516 198.54 69.3122 200.031C68.8521 200.016 68.3904 199.997 67.9287 199.977C66.7529 198.518 65.2961 196.485 65.072 195.11C64.6929 192.788 66.3991 189.531 66.472 189.393C66.6052 189.14 66.9181 189.043 67.1696 189.177Z" fill="#359E53"/>
<path d="M51.9633 188.566C54.4782 186.773 57.7264 188.519 57.8658 189.634C57.8658 189.634 53.2182 192.191 52.2421 192.051C51.2661 191.912 49.4484 190.359 51.9633 188.566Z" fill="#69D387"/>
<path d="M54.4785 186.773L55.155 189.82C55.155 189.82 76.2256 194.234 85.1956 191.724L84.6833 187.311L54.4785 186.773Z" fill="#DD5858"/>
<path d="M90.7711 188.984L85.1949 191.724L84.6826 187.311" fill="#BF3C3C"/>
<path d="M40.4678 172.345C40.4678 172.345 37.7102 183.407 40.4678 187.078C43.2254 190.75 48.8956 190.239 50.104 189.867C51.3124 189.495 85.6433 177.322 85.6433 177.322C85.6433 177.322 93.374 175.692 92.7233 168.255C92.0726 160.819 88.0756 162.446 88.0756 162.446C88.0756 162.446 88.4474 163.7 87.7038 164.491C86.9602 165.281 81.1506 168.766 81.1506 168.766C81.1506 168.766 84.4969 165.978 84.5898 164.444C84.6373 163.664 84.4798 163.172 84.3141 162.877C84.185 162.648 83.872 162.604 83.6742 162.777C82.8273 163.52 80.3269 165.51 77.0621 166.283C76.5473 166.405 76.1063 166.735 75.8475 167.197L73.296 171.745L56.9826 176.714L48.9421 171.602C48.9421 171.602 43.4733 170.858 40.4678 172.345Z" fill="#F6B994"/>
<path d="M91.5308 171.137L88.4964 174.049L86.9761 174.638L91.5329 169.245C91.9997 170.11 91.5308 171.137 91.5308 171.137Z" fill="#F38B82"/>
<path d="M90.5142 164.774C90.5142 164.774 91.2362 165.281 91.0038 165.652C90.8215 165.944 88.6335 168.586 87.7014 169.707C87.5604 169.877 87.2856 169.777 87.2856 169.556V168.627C87.8898 168.302 90.5142 164.774 90.5142 164.774Z" fill="#F38B82"/>
<path d="M59.043 186.736C54.1753 188.454 50.4856 189.75 50.104 189.867C49.1254 190.168 45.2203 190.559 42.3057 188.747C47.54 188.695 54.478 185.854 54.478 185.854L59.043 186.736Z" fill="#EAA28C"/>
<path d="M49.9414 176.687C49.9414 176.687 47.9553 175.227 43.996 174.966C41.5993 174.808 40.6894 174.052 40.1792 173.644C40.346 172.838 40.4684 172.345 40.4684 172.345C43.2844 170.951 48.2631 171.517 48.8792 171.593L49.9414 176.687Z" fill="#EAA28C"/>
<path d="M104.234 171.354C104.234 171.354 105.873 183.595 101.508 187.218C95.6826 192.051 55.8984 187.713 55.8984 187.713L50.755 184.305C50.755 184.305 49.1747 183.035 48.6635 181.083C48.1523 179.131 48.3382 177.411 49.2212 176.946C49.2212 176.946 48.2607 175.134 47.9044 173.089C47.5481 171.044 46.3211 167.696 50.583 166.907V170.579C50.583 170.579 53.1253 172.299 54.9379 172.299C54.9379 172.299 54.8914 170.672 53.4971 169.464C52.1028 168.255 51.2662 166.117 52.1493 165.141C52.1493 165.141 56.611 166.954 59.1208 170.904C61.6305 174.855 62.0953 175.459 62.0953 175.459C62.0953 175.459 78.9509 175.506 81.1818 175.753L89.0519 173.708C89.0519 173.708 91.1743 172.578 91.5307 171.137C91.5307 171.137 96.922 166.396 104.234 171.354Z" fill="#F6B994"/>
<path d="M91.5305 171.137C91.5305 171.137 96.9218 166.396 104.234 171.354C104.234 171.354 104.399 172.592 104.485 174.396C102.348 172.932 97.5803 170.994 89.0518 173.708C89.0518 173.708 91.1742 172.577 91.5305 171.137Z" fill="#EAA28C"/>
<path d="M43.9959 174.966C44.2344 174.913 44.4782 174.863 44.724 174.83C44.9703 174.82 45.2203 174.783 45.4702 174.799C45.9727 174.8 46.4731 174.902 46.959 175.047C47.3159 175.16 47.6546 175.324 47.9789 175.514C47.5875 174.601 47.2756 173.271 47.4011 171.464C47.5849 171.474 47.7553 171.486 47.9123 171.499C47.7388 174.046 48.4995 175.569 48.9942 176.274C49.1512 176.431 49.2989 176.602 49.4316 176.798C49.4342 176.801 49.4342 176.805 49.4362 176.808C49.4481 176.827 49.4559 176.847 49.4626 176.867C49.4646 176.874 49.4677 176.879 49.4693 176.885C49.4843 176.947 49.4791 177.012 49.4471 177.07C47.1842 181.173 50.7582 183.982 50.8982 184.09L56.2911 187.706C56.0845 187.779 55.8821 187.85 55.6832 187.92L50.5971 184.51C50.5568 184.478 46.6177 181.398 48.9018 176.993C48.8749 176.964 48.8434 176.929 48.8114 176.892C48.563 176.649 48.2769 176.417 47.9831 176.22C47.5994 175.973 47.1981 175.75 46.7669 175.587C46.3352 175.432 45.8916 175.288 45.4268 175.216C44.9652 175.12 44.4906 175.095 44.0036 175.052L44.0005 175.052C43.9819 175.05 43.9659 175.037 43.9618 175.018C43.9571 174.995 43.9721 174.972 43.9959 174.966Z" fill="#D1937D"/>
<path d="M78.8271 134.978C78.8271 134.978 93.3279 137.271 98.0376 145.575C102.747 153.878 104.234 171.354 104.234 171.354C104.234 171.354 97.4024 169.278 91.5308 171.137C91.5308 171.137 91.8407 167.651 90.5858 165.978C90.5858 165.978 90.9576 162.864 88.076 162.446L85.6437 145.884L82.9703 145.593L51.4295 147.681L51.7162 152.484L49.4047 152.833C49.4047 152.833 50.7556 163.096 50.5697 168.534C50.5697 168.534 47.0994 169.309 47.905 173.089C47.905 173.089 43.8771 170.548 40.4688 172.345L45.3023 146.07C45.3023 146.07 49.1548 138.882 57.7907 136.837C66.4261 134.792 78.8271 134.978 78.8271 134.978Z" fill="#5FBE7A"/>
<path d="M61.8628 143.529C61.8628 143.529 70.7864 141.345 75.3416 142.711L72.8427 146.263L64.1102 146.842L61.8628 143.529Z" fill="#3E4F6B"/>
<path d="M78.8908 134.988C78.9105 134.991 78.9358 134.996 78.9647 135.001C78.9874 135.005 79.0173 135.01 79.0452 135.015C79.0731 135.02 79.1041 135.025 79.1372 135.032C79.1712 135.038 79.2105 135.045 79.2497 135.053C79.2885 135.06 79.3308 135.068 79.3742 135.076C79.4201 135.085 79.4682 135.095 79.5198 135.105C79.5668 135.114 79.6184 135.124 79.6701 135.135C79.7274 135.146 79.7842 135.158 79.8467 135.17C79.9061 135.183 79.9722 135.197 80.0362 135.21C80.0982 135.223 80.1581 135.236 80.2242 135.25C80.3548 135.278 80.4922 135.309 80.6378 135.342C80.7163 135.377 80.7933 135.406 80.8718 135.442C80.8718 135.442 78.0832 142.042 67.5794 142.042C59.5255 142.042 55.9013 139.202 54.6475 137.876C54.8891 137.773 55.1355 137.672 55.387 137.576L55.3885 137.576C55.624 137.486 55.8641 137.401 56.1084 137.319C56.128 137.312 56.1466 137.305 56.1662 137.299C56.3898 137.224 56.6191 137.154 56.8505 137.087C56.8907 137.075 56.929 137.062 56.9692 137.051C57.2378 136.974 57.5115 136.902 57.7903 136.836C66.4262 134.791 78.8273 134.977 78.8273 134.977C78.8273 134.977 78.8423 134.98 78.8645 134.983C78.8702 134.985 78.8826 134.987 78.8908 134.988Z" fill="#69D387"/>
<path d="M77.9736 134.973C77.9736 134.973 80.6858 138.076 80.8717 142.971C80.8717 142.971 72.9086 142.104 68.2454 143.529C68.2454 143.529 62.5908 143.095 58.5628 145.822C58.5628 145.822 56.3938 140.307 59.2444 137.208" fill="#F7F7F7"/>
<path d="M79.5038 137.452C77.7903 139.394 74.2349 142.042 67.5794 142.042C63.0882 142.042 59.9768 141.159 57.8838 140.148C58.0578 139.095 58.4611 138.061 59.2445 137.209L77.9732 134.974C77.9732 134.974 78.7524 135.871 79.5038 137.452Z" fill="#EDEEEF"/>
<path d="M74.117 137.209C74.117 137.209 71.9791 142.414 68.2454 143.529C68.2454 143.529 62.6527 141.794 61.0415 137.766L74.117 137.209Z" fill="#EFAE8B"/>
<path d="M71.0552 141.775C70.0028 141.944 68.8486 142.042 67.5792 142.042C66.6115 142.042 65.7093 142 64.866 141.926C63.37 140.989 61.7836 139.621 61.0415 137.766L74.117 137.209C74.117 137.209 73.0305 139.852 71.0552 141.775Z" fill="#E08F82"/>
<path d="M88.06 116.945C88.06 116.945 93.6992 111.925 94.0091 117.998C94.3189 124.071 89.222 131.508 86.658 131.26C84.094 131.012 83.5982 130.02 83.5982 130.02C83.5982 130.02 78.1759 139.564 67.5792 139.564C54.2868 139.564 51.0691 132.489 51.0691 132.489C51.0691 132.489 48.1519 131.879 46.9745 131.446C45.7971 131.012 41.5832 126.426 40.4057 121.902C39.2283 117.379 41.1742 117.063 45.8714 118.274C45.8714 118.274 42.6501 106.164 46.5474 98.9748C50.4447 91.7858 57.3853 89.9263 67.92 90.5459C78.4548 91.1656 82.6687 95.1317 82.6687 95.1317L88.06 116.945Z" fill="#F6B994"/>
<path d="M92.9262 118C92.9262 118 92.9247 119.486 91.5924 119.64C90.26 119.795 90.1671 122.894 89.7488 123.111C89.7488 123.111 91.0016 122.874 91.7204 122.432C91.8495 122.353 92.006 122.481 91.9554 122.624C91.4798 123.968 90.0235 127.198 87.1626 126.581C87.1626 126.581 88.8275 125.217 88.9551 123.018C89.0826 120.818 87.726 120.631 87.726 120.631C87.726 120.631 89.9812 116.852 92.9262 118Z" fill="#F38B82"/>
<path d="M47.1351 127.427C47.1351 127.427 42.5127 124.75 42.8231 120.057C42.8231 120.057 46.2314 121.407 47.037 122.336C47.037 122.336 44.5071 125.267 47.1351 127.427Z" fill="#F38B82"/>
<path d="M60.7373 117.239C60.7373 117.239 65.2089 117.595 65.999 118.385C65.999 118.385 62.5401 121.112 60.7373 117.239Z" fill="#F38B82"/>
<path d="M70.2025 110.423C70.25 110.727 71.524 110.78 73.0474 110.541C74.5708 110.302 75.7674 109.862 75.7193 109.557C75.6718 109.253 74.3979 109.2 72.8744 109.439C71.3516 109.678 70.155 110.119 70.2025 110.423Z" fill="#F38B82"/>
<path d="M51.1498 109.966C51.0874 110.268 52.2617 110.765 53.7717 111.077C55.2822 111.389 56.5567 111.397 56.6191 111.095C56.6816 110.794 55.5073 110.296 53.9973 109.985C52.4868 109.673 51.2118 109.664 51.1498 109.966Z" fill="#F38B82"/>
<path d="M86.8459 118.635C85.6607 116.279 81.8093 107.871 81.1819 96.9902C81.1819 96.9902 72.7541 89.7604 62.5912 91.5782C52.4282 93.3959 49.8255 101.08 47.3467 101.7C47.3467 101.7 44.3722 109.632 46.6031 118.803C46.6031 118.803 38.6711 114.094 42.2653 102.691C42.2653 102.691 39.6006 101.235 39.6936 96.6803C39.6936 96.6803 37.5071 94.9798 38.0472 90.9729C38.1035 90.5552 38.5637 90.329 38.9396 90.5206C40.683 91.4093 45.4221 92.9518 51.9325 88.1905C60.2363 82.1176 77.2159 79.8867 84.2804 93.8917C84.2804 93.8917 89.6763 94.3709 91.7167 102.815C93.5773 110.516 89.1873 116.838 87.6789 118.724C87.4511 119.009 87.0091 118.961 86.8459 118.635Z" fill="#5B3C48"/>
<path d="M92.1352 107.65C91.7907 113.076 88.8565 117.252 87.6791 118.724C87.4519 119.008 87.0098 118.96 86.8461 118.635C85.661 116.279 81.8096 107.871 81.1821 96.9901C87.4389 110.775 92.1326 107.652 92.1352 107.65Z" fill="#442A34"/>
<path d="M49.4646 99.9781C44.6305 102.185 42.5504 100.185 41.8078 99.0341C41.6694 98.8193 41.8837 98.5575 42.1207 98.6541C46.5572 100.461 49.2054 97.3625 49.2054 97.3625C47.1749 97.9626 45.5223 96.6034 44.8112 95.8706C44.7157 95.7725 44.8149 95.6191 44.9445 95.6625C46.8227 96.2905 50.3771 95.8247 53.4193 94.0782C56.7656 92.1571 62.5907 91.5787 62.5907 91.5787C55.1007 92.9183 51.7187 97.4421 49.4646 99.9781Z" fill="#442A34"/>
<path d="M43.1944 110.562C42.3888 107.711 46.3549 102.041 46.3549 102.041C44.4751 103.107 43.0989 102.001 42.5138 101.36C42.441 101.28 42.5309 101.164 42.6279 101.21C45.5209 102.602 48.4773 99.2834 48.4773 99.2834V101.002C48.0817 101.36 47.7125 101.609 47.3464 101.7C47.3464 101.7 44.3719 109.632 46.6027 118.804C46.6027 118.804 41.1892 115.581 41.3395 108.025C42.158 110.02 43.1944 110.562 43.1944 110.562Z" fill="#442A34"/>
<path d="M77.4013 100.275C77.4013 100.275 73.8484 97.1363 69.2312 98.4428C69.1026 98.4794 68.9895 98.3472 69.0566 98.2316C69.3515 97.7255 70.1617 96.7892 72.0719 96.9597C75.2014 97.2385 77.6956 99.5469 77.4013 100.275Z" fill="#5B3C48"/>
<path d="M59.2135 98.8652C59.2135 98.8652 57.1721 97.0221 54.3092 99.8598C54.1692 99.9987 53.9358 99.8763 53.9714 99.6827C54.1155 98.8936 54.6221 97.5509 56.3939 97.1461C58.5628 96.6498 59.2135 98.8652 59.2135 98.8652Z" fill="#5B3C48"/>
<path d="M71.2979 107.44C71.2979 108.942 71.8246 110.159 72.4737 110.159C73.1234 110.159 73.6496 108.942 73.6496 107.44C73.6496 105.938 73.1228 104.721 72.4737 104.721C71.8246 104.721 71.2979 105.938 71.2979 107.44Z" fill="#5B3C48"/>
<path d="M53.3267 107.928C53.3267 109.366 53.8534 110.531 54.5025 110.531C55.1522 110.531 55.6784 109.366 55.6784 107.928C55.6784 106.491 55.1522 105.326 54.5025 105.326C53.8534 105.326 53.3267 106.491 53.3267 107.928Z" fill="#5B3C48"/>
<path d="M62.6839 110.407C62.2249 111.156 61.8153 111.926 61.4415 112.719C61.0722 113.514 60.7355 114.326 60.4773 115.189C60.3493 115.62 60.2486 116.069 60.1954 116.556C60.1406 117.066 60.2568 117.635 60.5223 118.082C60.7872 118.535 61.1626 118.88 61.5654 119.132C61.9728 119.384 62.4025 119.552 62.8704 119.631C62.9737 119.648 63.0713 119.578 63.0883 119.476C63.1012 119.4 63.0671 119.328 63.0082 119.288L62.9933 119.277C62.3085 118.813 61.6749 118.255 61.3872 117.627C61.238 117.313 61.1957 116.993 61.2246 116.642C61.2659 116.27 61.3537 115.871 61.4688 115.472C61.6873 114.672 61.9806 113.868 62.2744 113.066L63.1792 110.654L63.1812 110.649C63.235 110.506 63.1621 110.345 63.0186 110.291C62.8921 110.244 62.7521 110.295 62.6839 110.407Z" fill="#D1937D"/>
<path d="M73.9509 118.851C73.3932 119.848 72.6986 120.784 71.8935 121.569C71.6818 121.755 71.4773 121.948 71.2635 122.127L70.5953 122.632C70.3557 122.774 70.1135 122.91 69.8785 123.057C69.6378 123.195 69.3755 123.291 69.1261 123.411C68.8803 123.544 68.6024 123.591 68.3406 123.684C68.0767 123.774 67.8118 123.86 67.5324 123.892L66.7036 124.041L65.8557 124.09C65.7136 124.099 65.5711 124.117 65.4281 124.12L64.9989 124.096L64.1308 124.065C63.553 124.011 62.9767 123.911 62.374 123.869C62.9168 124.104 63.476 124.332 64.0513 124.51L64.938 124.7L65.3862 124.786C65.537 124.804 65.6899 124.807 65.8422 124.818L66.7625 124.854C67.0692 124.836 67.377 124.796 67.6843 124.757C67.9946 124.735 68.2947 124.654 68.5947 124.569C68.8937 124.483 69.2004 124.417 69.4803 124.275C70.6459 123.825 71.6849 123.067 72.4967 122.142C73.3105 121.215 73.937 120.149 74.284 118.971C74.3113 118.877 74.2582 118.778 74.1642 118.751C74.0831 118.727 73.9989 118.764 73.9597 118.835L73.9509 118.851Z" fill="#D1937D"/>
<path d="M67.5794 139.563C56.6945 139.563 52.5674 134.822 51.4287 133.104C51.4287 133.104 56.63 137.952 66.5569 137.952C78.1761 137.952 84.497 127.82 84.497 127.82L83.5984 130.02C83.5984 130.02 78.1761 139.563 67.5794 139.563Z" fill="#F38B82"/>
<path d="M86.2632 123.849C86.3654 123.849 86.462 123.788 86.5028 123.688C88.1878 119.509 89.8832 118.293 91.009 118.009C92.2169 117.704 93.0349 118.369 93.0695 118.397C93.1779 118.488 93.3411 118.474 93.433 118.365C93.5244 118.256 93.5105 118.094 93.402 118.002C93.3597 117.967 92.3615 117.143 90.8959 117.505C89.0848 117.954 87.4458 119.969 86.0241 123.495C85.9709 123.627 86.0349 123.777 86.1671 123.831C86.1981 123.843 86.2312 123.849 86.2632 123.849Z" fill="#D1937D"/>
<path d="M87.1288 126.842C89.118 126.842 90.1782 123.992 90.2241 123.865C90.2732 123.73 90.204 123.583 90.0697 123.534C89.9365 123.484 89.7878 123.554 89.7387 123.688C89.7294 123.713 88.9326 125.852 87.5677 126.259C88.1998 125.6 89.1665 124.366 89.2197 122.945C89.2564 121.963 88.851 121.062 88.0139 120.268C87.9101 120.171 87.7469 120.173 87.6488 120.278C87.5507 120.382 87.5548 120.545 87.6586 120.643C88.3826 121.33 88.7343 122.097 88.7038 122.924C88.6362 124.764 86.7234 126.35 86.7038 126.365C86.6242 126.43 86.5907 126.536 86.6186 126.635C86.6465 126.733 86.7296 126.807 86.8313 126.821C86.9331 126.835 87.0317 126.842 87.1288 126.842Z" fill="#D1937D"/>
<path d="M47.7181 128.079C47.8069 128.079 47.8932 128.033 47.9412 127.95C48.013 127.828 47.9717 127.67 47.8488 127.597C46.8764 127.029 46.3166 126.323 46.1849 125.5C45.9422 123.982 47.2172 122.521 47.2301 122.507C47.2786 122.452 47.3019 122.379 47.2931 122.306C47.2848 122.233 47.2461 122.168 47.1862 122.125C47.0483 122.027 43.7831 119.72 41.9095 119.599C41.768 119.586 41.6441 119.697 41.6353 119.84C41.626 119.982 41.734 120.105 41.8765 120.114C43.3384 120.209 45.8916 121.868 46.6615 122.39C46.2794 122.897 45.4531 124.183 45.6747 125.578C45.8312 126.562 46.4746 127.391 47.588 128.042C47.6288 128.067 47.6737 128.079 47.7181 128.079Z" fill="#D1937D"/>
<path d="M87.4404 152.391C87.4404 152.391 87.9362 143.653 92.0881 142.042C92.0881 142.042 88.8038 147.217 87.4404 152.391Z" fill="#69D387"/>
<path d="M51.2869 152.518L50.3713 152.591L48.9424 145.226C48.9424 145.226 50.2076 145.767 51.2869 152.518Z" fill="#69D387"/>
<path d="M59.7173 188.092C98.0375 189.502 103.511 184.042 103.511 184.042C103.054 185.346 102.411 186.468 101.508 187.218C96.7914 191.131 69.8167 189.033 59.7173 188.092Z" fill="#EAA28C"/>
<path d="M54.9625 156.784L75.5352 154.406C75.875 154.366 76.1823 154.61 76.2215 154.95L76.8252 160.171C76.8645 160.511 76.6207 160.818 76.2809 160.857L55.7082 163.235C55.3684 163.274 55.0611 163.031 55.0219 162.691L54.4182 157.47C54.379 157.13 54.6227 156.823 54.9625 156.784Z" fill="white"/>
<path d="M60.5612 198.512C60.5612 198.512 56.7966 196.839 56.2388 192.934C56.2388 192.934 55.0304 194.933 56.7966 196.839C58.5627 198.744 60.5612 198.512 60.5612 198.512Z" fill="#69D387"/>
<path d="M70.4613 215.6C70.4561 215.02 70.4163 214.443 70.3952 213.865L70.2728 212.138C70.1876 210.986 70.0667 209.838 69.9382 208.692C69.8018 207.546 69.6645 206.401 69.4868 205.26C69.3169 204.118 69.1372 202.977 68.9043 201.842C68.9312 203.001 69.0107 204.153 69.1005 205.303C69.1826 206.455 69.3045 207.602 69.4274 208.75C69.5581 209.896 69.697 211.042 69.871 212.183L70.138 213.894C70.247 214.462 70.3368 215.033 70.4613 215.6Z" fill="#2A3A4C"/>
<path d="M64.0494 200.856C64.1196 201.841 64.2363 202.82 64.3608 203.796C64.4801 204.774 64.6329 205.746 64.7863 206.718C64.9495 207.688 65.1137 208.659 65.311 209.623C65.5041 210.589 65.704 211.553 65.9513 212.509C65.9586 212.537 65.987 212.554 66.0149 212.547C66.0396 212.541 66.0556 212.517 66.0541 212.493C65.9813 211.508 65.8599 210.53 65.7324 209.554C65.609 208.577 65.4525 207.606 65.295 206.634C65.1271 205.664 64.9598 204.695 64.7584 203.731C64.5617 202.766 64.3582 201.802 64.1078 200.846C64.1036 200.83 64.0871 200.821 64.0716 200.825C64.0571 200.829 64.0484 200.842 64.0494 200.856Z" fill="#2A3A4C"/>
<path d="M93.7012 172.602C91.8163 172.983 89.951 173.438 88.0893 173.907C86.2282 174.376 84.3707 174.859 82.5235 175.38L82.5932 175.371C80.8854 175.318 79.1777 175.275 77.4699 175.246L72.3461 175.178L67.2217 175.159C65.5135 175.16 63.8052 175.174 62.0969 175.2C61.9544 175.202 61.8402 175.32 61.8428 175.462C61.8449 175.601 61.9559 175.712 62.0928 175.716C63.8005 175.771 65.5083 175.813 67.2161 175.842L72.3399 175.908L77.4642 175.925C79.1725 175.925 80.8808 175.911 82.5891 175.886H82.5932C82.6154 175.886 82.6386 175.883 82.6593 175.877C84.5153 175.389 86.3609 174.863 88.2029 174.323C90.0455 173.784 91.8829 173.229 93.7012 172.602Z" fill="#D1937D"/>
<path d="M89.3581 174.006C89.4196 174.006 89.4805 173.984 89.5301 173.94L91.3385 172.329C91.3675 172.303 91.3902 172.271 91.4051 172.236L91.8234 171.236C91.8782 171.104 91.8162 170.953 91.6845 170.898C91.5534 170.843 91.4021 170.905 91.3468 171.037L90.9512 171.982L89.1867 173.555C89.0803 173.65 89.0705 173.813 89.1655 173.92C89.2161 173.976 89.2868 174.006 89.3581 174.006Z" fill="#D1937D"/>
</g>
</svg>
