<svg width="221" height="220" viewBox="0 0 221 220" fill="none" xmlns="http://www.w3.org/2000/svg">
<circle cx="110.5" cy="110" r="110" fill="#C7FFD7"/>
<mask id="mask0_4119_44855" style="mask-type:alpha" maskUnits="userSpaceOnUse" x="0" y="0" width="221" height="220">
<circle cx="110.5" cy="110" r="110" fill="#D9D9D9"/>
</mask>
<g mask="url(#mask0_4119_44855)">
<mask id="mask1_4119_44855" style="mask-type:luminance" maskUnits="userSpaceOnUse" x="79" y="45" width="142" height="176">
<path d="M221 45.0001H79.6538V220.065H221V45.0001Z" fill="white"/>
</mask>
<g mask="url(#mask1_4119_44855)">
<path d="M145.977 66.1089C145.977 66.1089 136.108 63.0774 130.021 73.6841C123.934 84.2903 128.822 86.043 120.982 87.7028C113.143 89.363 110.745 111.443 129.744 106.49C148.744 101.538 151.37 112.796 158.377 107.212C165.383 101.629 165.068 95.944 160.365 89.333C155.661 82.722 159.707 83.3411 157.157 75.7911C154.606 68.2421 145.977 66.1089 145.977 66.1089Z" fill="#463748"/>
<path d="M184.923 122.28C186.286 119.563 189.266 105.116 190.417 102.699C190.602 102.311 190.899 101.332 191.194 100.862C191.431 100.484 191.981 100.44 192.086 100.873C192.202 101.354 192.152 102.428 192.087 102.768C191.979 103.324 191.602 104.523 191.363 105.606C192.04 104.711 193.485 102.389 193.839 102.044C194.193 101.699 194.859 101.36 195.311 101.558C195.849 101.795 196.035 102.507 195.873 103.072C195.71 103.637 195.323 104.175 194.918 104.601C195.163 104.299 195.903 104.355 196.232 104.562C196.726 104.874 196.816 105.107 196.85 105.494C196.885 105.882 196.627 106.184 196.547 106.565C196.762 106.141 197.237 106.079 197.681 106.232C198.174 106.402 198.748 106.99 198.614 107.494C198.442 108.138 198.211 108.446 197.923 108.891C198.135 108.618 199.038 108.365 199.287 108.605C199.535 108.845 201.145 110.023 197.742 114.988C196.708 116.497 195.61 117.87 194.4 119.243C193.191 120.615 192.285 122.284 192.155 124.109C191.266 124.167 189.705 123.836 188.845 123.598C188.342 123.459 187.871 123.223 187.371 123.073C186.871 122.924 185.399 122.065 184.923 122.28Z" fill="#EFC3C2"/>
<path d="M203.207 57.6716L192.858 114.594L189.333 113.839L203.207 57.6716Z" fill="#54AE6E"/>
<path d="M196.229 101.738L195.251 101.096C195.001 100.933 194.663 101.003 194.499 101.253L191.781 105.402C191.617 105.653 191.687 105.991 191.938 106.155L192.916 106.796C193.166 106.959 193.504 106.889 193.668 106.639L196.386 102.49C196.55 102.24 196.479 101.901 196.229 101.738Z" fill="#EFC3C2"/>
<path d="M199.69 108.871L198.712 108.23C198.462 108.067 198.124 108.137 197.96 108.387L195.242 112.536C195.078 112.786 195.148 113.125 195.398 113.288L196.377 113.929C196.626 114.093 196.965 114.023 197.129 113.773L199.847 109.623C200.011 109.374 199.941 109.035 199.69 108.871Z" fill="#EFC3C2"/>
<path d="M197.385 104.269L196.342 103.585C196.075 103.411 195.714 103.486 195.54 103.752L192.816 107.91C192.641 108.177 192.716 108.537 192.983 108.712L194.026 109.395C194.293 109.57 194.653 109.495 194.828 109.228L197.552 105.071C197.727 104.804 197.652 104.444 197.385 104.269Z" fill="#EFC3C2"/>
<path d="M198.68 106.693L197.651 106.019C197.389 105.847 197.032 105.921 196.86 106.184L194.173 110.285C194 110.548 194.074 110.905 194.337 111.077L195.366 111.751C195.629 111.923 195.985 111.849 196.158 111.587L198.845 107.485C199.017 107.222 198.943 106.866 198.68 106.693Z" fill="#EFC3C2"/>
<path d="M195.444 103.904C194.535 104.95 193.761 106.114 193.146 107.357C192.989 107.676 192.839 108.011 192.834 108.367C192.829 108.722 193.004 109.102 193.333 109.236" stroke="#C87070" stroke-width="0.608279" stroke-miterlimit="10" stroke-linecap="round" stroke-linejoin="round"/>
<path d="M196.779 106.372C195.87 107.418 195.096 108.582 194.482 109.825C194.325 110.144 194.175 110.479 194.17 110.834C194.165 111.19 194.34 111.57 194.669 111.704" stroke="#C87070" stroke-width="0.608279" stroke-miterlimit="10" stroke-linecap="round" stroke-linejoin="round"/>
<path d="M198.315 108.277C197.405 109.324 196.631 110.487 196.017 111.731C195.86 112.049 195.71 112.385 195.705 112.74C195.699 113.095 195.875 113.476 196.204 113.609" stroke="#C87070" stroke-width="0.608279" stroke-miterlimit="10" stroke-linecap="round" stroke-linejoin="round"/>
<path d="M162.008 215.199C161.897 216.568 161.79 217.904 161.679 219.216H142.957L143.591 193.707L144.922 140.25H158.344C158.344 140.25 166.471 159.936 162.008 215.199Z" fill="#463748"/>
<path d="M158.194 150.846L143.591 193.707L134.902 219.216H113.067C116.838 203.964 120.667 188.954 123.547 178.765C131.17 151.78 135.478 140.25 135.478 140.25H154.046L158.194 150.846Z" fill="#463748"/>
<path d="M143.587 193.02C143.644 193.02 143.697 192.984 143.716 192.928L151.849 169.713C151.874 169.642 151.837 169.564 151.766 169.54C151.695 169.514 151.616 169.552 151.592 169.623L143.459 192.838C143.434 192.909 143.472 192.987 143.543 193.012C143.557 193.017 143.572 193.02 143.587 193.02Z" fill="#463748"/>
<path d="M152.286 96.8354C152.286 96.8354 145.061 116.757 169.391 145.717L180.147 133.733L164.526 101.246C163.285 98.8553 160.576 97.1322 157.885 97.0208L152.286 96.8354Z" fill="#5FBE7A"/>
<path d="M169.403 142.043L186.439 117.049L194.065 122.758L182.715 146.448C180.779 150.266 177.695 152.314 174.08 150.839C170.826 149.511 168.103 145.309 169.403 142.043Z" fill="#5FBE7A"/>
<path d="M154.363 101.713C150.805 98.1933 139.771 99.5031 140.75 104.418C143.685 119.148 142.81 139.077 142.947 153.409C148.714 152.443 154.478 151.462 160.238 150.453C163.155 137.193 165.599 112.83 154.363 101.713Z" fill="#354A6A"/>
<path d="M161.584 150.309C155.888 151.439 150.192 152.567 144.491 153.671C144.633 152.239 144.769 150.805 144.903 149.373C150.469 148.43 156.032 147.47 161.591 146.488C161.596 147.761 161.588 149.035 161.584 150.309Z" fill="#463748"/>
<path d="M139.273 104.364C141.889 105.498 151.725 113.346 151.725 113.346C151.725 113.346 154.136 105.054 154.363 101.713C151.654 99.3855 151.107 97.0597 147.323 97.4982C144.981 97.7693 142.865 98.8971 141.028 99.7122C139.192 100.527 138.65 101.253 137.107 102.114C135.742 103.831 134.568 105.68 133.006 107.334C135.754 108.514 135.306 102.644 139.273 104.364Z" fill="#EFC3C2"/>
<path d="M147.322 97.4981C152.754 104.655 155.424 107.049 159.365 117.072C161.54 122.602 160.414 137.401 159.694 145.552C158.973 153.703 159.108 163.64 158.552 171.962C160.839 170.649 163.086 169.866 165.3 167.951C165.563 155.646 166.085 134.576 164.518 124.131C162.951 113.685 160.253 103.324 154.398 97.5969C153.092 96.3195 150.956 96.9778 149.213 97.2363C148.747 97.305 147.322 97.4981 147.322 97.4981Z" fill="#5FBE7A"/>
<path d="M131.947 102.366C131.947 102.366 134.993 99.7315 139.381 103.119C143.769 106.506 149.289 118.55 149.289 132.475C149.289 146.4 145.152 172.934 145.152 172.934C145.152 172.934 130.047 178.747 119.509 171.22L135.41 144.402L127.7 122.972L131.947 102.366Z" fill="#5FBE7A"/>
<path d="M133.136 101.713C133.136 101.713 121.977 104.393 101.801 136.386L112.691 143.579L133.766 119.735L133.136 101.713Z" fill="#5FBE7A"/>
<path d="M146.752 141.467L139.494 139.824L139.728 138.209C139.814 137.621 139.507 137.039 138.978 136.789C138.432 136.53 137.793 136.69 137.435 137.176L132.547 143.96L128.841 149.185C133.096 151.312 137.079 150.965 138.213 150.026C138.378 150.038 143.862 150.453 143.862 150.453C144.409 150.541 144.92 150.175 145.028 149.617C145.105 149.212 145.013 148.623 143.851 148.361L145.012 148.623C145.591 148.715 146.128 148.319 146.228 147.727C146.33 147.199 145.885 146.659 145.179 146.416L146.043 146.523C146.675 146.625 147.261 146.159 147.305 145.481C147.343 144.896 146.91 144.377 146.352 144.252L145.07 143.964L146.494 143.941C147.168 144.001 147.762 143.476 147.784 142.754C147.803 142.136 147.341 141.6 146.752 141.467Z" fill="#EFC3C2"/>
<path d="M141.768 143.214L145.005 143.769" stroke="#C87070" stroke-width="0.608279" stroke-miterlimit="10" stroke-linecap="round" stroke-linejoin="round"/>
<path d="M141.749 145.767L144.986 146.322" stroke="#C87070" stroke-width="0.608279" stroke-miterlimit="10" stroke-linecap="round" stroke-linejoin="round"/>
<path d="M141.73 148.32L144.968 148.874" stroke="#C87070" stroke-width="0.608279" stroke-miterlimit="10" stroke-linecap="round" stroke-linejoin="round"/>
<path d="M132.547 143.96L120.497 140.742L118.519 147.984L130.917 150.045L132.547 143.96Z" fill="#EFC3C2"/>
<path d="M109.375 133.989L130.495 141.214L126.027 150.763L105.669 146.215C101.864 145.34 99.7217 141.293 101.138 137.654C102.412 134.378 106.089 132.742 109.375 133.989Z" fill="#5FBE7A"/>
<path d="M149.363 95.1634C149.675 96.6314 149.883 99.7399 150.195 101.208C149.016 103.554 148.372 104.109 147.193 106.455C143.461 104.488 140.571 103.68 136.839 101.713C137.265 97.6634 137.218 92.8468 137.645 88.7968C136.326 88.9382 134.942 88.6197 133.884 87.8195C132.826 87.0199 132.129 85.7241 132.156 84.3979C132.183 83.0716 132.98 81.7633 134.193 81.2265C135.406 80.6897 136.975 81.0198 137.792 82.0643C139.211 81.8451 140.438 80.8102 140.935 79.4636C141.278 78.5367 141.271 77.5192 141.513 76.5613C141.756 75.6034 142.376 74.6184 143.349 74.4446C144.637 75.1252 146.266 75.0342 147.508 74.2718C148.749 73.509 149.541 72.0651 149.517 70.6082C150.669 71.902 151.877 72.7336 153.029 74.0274C154.03 75.1513 155.821 81.5092 154.845 87.8166C154.248 91.6759 152.382 94.1604 149.363 95.1634Z" fill="#EFC3C2"/>
<path d="M143.524 94.4797C145.291 95.6792 147.614 96.0185 149.65 95.3742" stroke="#C87070" stroke-width="0.608279" stroke-miterlimit="10" stroke-linecap="round" stroke-linejoin="round"/>
<path d="M134.614 83.288C135.59 83.5803 137.124 84.2231 137.309 86.3689" stroke="#C87070" stroke-width="0.608279" stroke-miterlimit="10" stroke-linecap="round" stroke-linejoin="round"/>
<path d="M148.194 83.3048C148.425 82.4563 148.535 81.571 148.509 80.724C145.806 80.5976 143.085 80.7472 140.403 81.1698C140.471 81.8639 140.533 82.5865 140.639 83.2981C140.835 84.6035 142.01 85.5401 143.344 85.4453C144.212 85.3838 145.088 85.2787 145.95 85.1766C147.004 85.0513 147.918 84.3213 148.194 83.3048Z" stroke="#463748" stroke-width="0.608279" stroke-miterlimit="10" stroke-linecap="round" stroke-linejoin="round"/>
<path d="M151.619 83.3261C151.444 82.4805 151.356 81.5971 151.364 80.7505C153.292 80.6068 155.237 80.7384 157.157 81.1426C157.118 81.8362 157.082 82.5584 157.014 83.2695C156.89 84.5744 156.061 85.5173 155.108 85.4317C154.488 85.376 153.86 85.2768 153.243 85.18C152.49 85.0623 151.828 84.3392 151.619 83.3261Z" stroke="#463748" stroke-width="0.608279" stroke-miterlimit="10" stroke-linecap="round" stroke-linejoin="round"/>
<path d="M148.59 80.5037C148.943 80.086 149.499 79.844 150.043 79.8711C150.587 79.8982 151.106 80.1939 151.399 80.6441" stroke="#463748" stroke-width="0.608279" stroke-miterlimit="10" stroke-linecap="round" stroke-linejoin="round"/>
<path d="M149.482 81.4683C150.087 83.0181 150.692 84.5685 151.297 86.1184C150.747 86.2118 150.196 86.3052 149.646 86.3987" stroke="#C87070" stroke-width="0.608279" stroke-miterlimit="10" stroke-linecap="round" stroke-linejoin="round"/>
<path d="M143.767 77.5117C144.701 77.5272 145.635 77.5422 146.569 77.5572" stroke="#463748" stroke-width="0.608279" stroke-miterlimit="10" stroke-linecap="round" stroke-linejoin="round"/>
<path d="M151.302 76.5389C151.758 76.0926 152.382 75.822 153.019 75.7939C153.656 75.7659 154.3 75.9808 154.794 76.3854" stroke="#463748" stroke-width="0.608279" stroke-miterlimit="10" stroke-linecap="round" stroke-linejoin="round"/>
<path d="M145.109 83.0739C145.109 82.6562 144.77 82.3179 144.353 82.3179C143.935 82.3179 143.597 82.6567 143.597 83.0739C143.597 83.4917 143.935 83.83 144.353 83.83C144.77 83.83 145.109 83.4917 145.109 83.0739Z" fill="#2D2A26"/>
<path d="M153.804 82.8813C153.804 82.4636 153.466 82.1252 153.048 82.1252C152.63 82.1252 152.292 82.4641 152.292 82.8813C152.292 83.299 152.631 83.6374 153.048 83.6374C153.465 83.6379 153.804 83.299 153.804 82.8813Z" fill="#2D2A26"/>
<path d="M147.009 88.5315L150.734 88.8151C150.734 88.8151 150.255 90.6046 148.872 90.6046C147.489 90.6046 147.009 88.5315 147.009 88.5315Z" fill="white"/>
<path d="M128.985 124.993L134.682 118.112" stroke="#287D40" stroke-width="0.608279" stroke-miterlimit="10"/>
<path d="M112.336 135.426L118.551 137.276" stroke="#287D40" stroke-width="0.608279" stroke-miterlimit="10"/>
<path d="M163.54 108.419C163.54 108.419 167.757 114.117 168.201 122.256C168.645 130.395 166.055 139.127 166.055 139.127" stroke="#287D40" stroke-width="0.608279" stroke-miterlimit="10"/>
<path d="M178.043 129.433L173.677 137.498" stroke="#287D40" stroke-width="0.608279" stroke-miterlimit="10"/>
</g>
<path d="M37.9531 164.005L40.2581 167.27L39.73 175.881L37.6525 175.586L37.3413 172.38C37.2875 171.828 36.8538 171.39 36.3025 171.331C35.651 171.261 35.0697 171.74 35.014 172.393L34.71 175.956C34.62 177.012 35.1854 178.015 36.1355 178.485L39.7455 180.271C40.412 180.601 41.1661 180.711 41.8985 180.584L46.5239 179.784C48.1411 179.505 49.3478 178.142 49.4301 176.503L50.054 164.005L44.1633 159.011L37.9531 164.005Z" fill="#EFC3C2"/>
<path d="M78.4256 219.221L73.7836 191.394L74.9163 219.221H51.1791C49.5576 197.26 48.2894 179.259 48.3523 177.676C49.1849 157.003 57.8346 159.936 57.8346 159.936L76.2619 158.034L99.3263 167.182L105.004 219.221H78.4256Z" fill="#5FBE7A"/>
<path d="M73.7811 191.647C73.7622 191.647 73.7434 191.645 73.7245 191.641L64.762 189.486C64.627 189.454 64.5442 189.318 64.5762 189.184C64.6077 189.049 64.7451 188.964 64.8787 188.998L73.8411 191.153C73.9762 191.185 74.059 191.321 74.027 191.455C73.9994 191.57 73.8954 191.648 73.7811 191.647Z" fill="#444343"/>
<path d="M75.6134 103.594C75.6134 103.594 71.4434 113.927 64.4157 120.562C57.3884 127.196 44.6428 147.447 32.9387 149.771L24.6709 133.559L42.6984 107.038C46.7352 101.099 50.5606 98.0728 54.8206 97.6754L75.6134 103.594Z" fill="#354A6A"/>
<path d="M96.8907 101.613L86.8701 96.0001L63.5816 95.2203L57.689 96.6173C52.1216 97.9372 48.1234 102.815 47.9221 108.533L45.2725 183.852C45.2725 183.852 64.8203 181.789 64.0304 171.658C64.0304 171.658 67.4259 185.185 79.1681 185.537C90.9104 185.889 103.905 182.534 103.905 182.534L95.7086 151.447L101.129 117.693C102.445 111.777 101.556 105.48 96.8907 101.613Z" fill="#354A6A"/>
<path d="M62.2288 95.7L57.6968 105.714L60.2186 105.452L57.7839 109.265C57.7839 109.265 57.0859 120.275 62.5139 132.962L70.82 94.0843L67.9971 93.1578L62.2288 95.7Z" fill="#496792"/>
<path d="M84.3776 94.9719C84.3776 94.9719 66.4857 112.208 62.5137 132.962C62.5137 132.962 63.3753 117.54 69.72 92.0706L78.0982 91.2003L84.3776 94.9719Z" fill="white"/>
<path d="M84.3776 94.9719L88.7141 97.5765L84.1758 107.391L78.7967 107.949L82.8902 111.309C82.8902 111.309 69.6808 123.794 62.5132 132.962C62.5132 132.962 65.9072 112.001 84.3776 94.9719Z" fill="#496792"/>
<path d="M98.7162 180.194L75.6029 188.405C73.5216 189.144 71.235 188.056 70.4954 185.975L59.0774 153.833C58.3383 151.751 59.4259 149.465 61.5073 148.725L84.6205 140.514C85.486 140.207 86.4371 140.659 86.7445 141.525L99.7264 178.07C100.034 178.935 99.5816 179.887 98.7162 180.194Z" fill="#3B5E86"/>
<path d="M63.2107 153.601L86.7934 145.223L85.4638 141.48L61.881 149.857C60.8471 150.224 60.3069 151.36 60.6743 152.393C61.0417 153.428 62.1772 153.968 63.2107 153.601Z" fill="white"/>
<path d="M81.3183 153.565L70.8369 157.288L73.0972 163.651L83.5786 159.928L81.3183 153.565Z" fill="white"/>
<path d="M73.542 158.714C75.7347 157.766 77.9269 156.817 80.1196 155.87" stroke="#AACADD" stroke-width="0.608279" stroke-miterlimit="10" stroke-linecap="round" stroke-linejoin="round"/>
<path d="M74.4614 160.243C76.6067 159.43 78.7524 158.617 80.8977 157.804" stroke="#AACADD" stroke-width="0.608279" stroke-miterlimit="10" stroke-linecap="round" stroke-linejoin="round"/>
<path d="M59.2827 153.442C59.5151 154.6 60.7343 155.346 61.9125 155.429C63.0906 155.513 64.2378 155.086 65.3419 154.666C72.5037 151.943 79.666 149.221 86.8278 146.498C87.4624 146.257 88.1908 146.565 88.5069 147.166" stroke="#57937E" stroke-width="0.608279" stroke-miterlimit="10" stroke-linecap="round" stroke-linejoin="round"/>
<path d="M62.2603 150.743C66.6766 149.184 71.0925 147.625 75.5083 146.066" stroke="#AACADD" stroke-width="0.608279" stroke-miterlimit="10" stroke-linecap="round" stroke-linejoin="round"/>
<path d="M68.7188 150.135C74.2363 148.136 79.7543 146.137 85.2718 144.137" stroke="#AACADD" stroke-width="0.608279" stroke-miterlimit="10" stroke-linecap="round" stroke-linejoin="round"/>
<path d="M62.7158 152.17C63.7197 151.788 64.7236 151.405 65.7275 151.023" stroke="#AACADD" stroke-width="0.608279" stroke-miterlimit="10" stroke-linecap="round" stroke-linejoin="round"/>
<path d="M47.52 126.117C47.5166 126.117 47.5128 126.117 47.5089 126.118C47.3705 126.124 47.2529 126.017 47.2461 125.879C47.2437 125.814 46.9489 119.374 47.8685 114.285C47.8927 114.148 48.0244 114.054 48.1599 114.082C48.2969 114.107 48.3874 114.237 48.3627 114.374C47.4537 119.406 47.7451 125.791 47.7485 125.855C47.7543 125.99 47.6531 126.105 47.52 126.117Z" fill="#496792"/>
<path d="M89.215 97.9038C89.215 97.9038 97.6479 99.6391 102.878 107.766C108.109 115.892 123.472 134.904 127.208 147.629L108.242 147.159L87.6206 122.285L89.215 97.9038Z" fill="#354A6A"/>
<path d="M97.0796 133.916C97.0002 133.923 96.9184 133.893 96.8632 133.826L87.4279 122.445C87.3393 122.338 87.3543 122.18 87.4613 122.091C87.5668 122.003 87.7255 122.017 87.8146 122.125L97.2499 133.505C97.3385 133.612 97.3235 133.771 97.2165 133.859C97.1764 133.893 97.1284 133.911 97.0796 133.916Z" fill="#496792"/>
<path d="M97.4165 155.095L77.2061 168.542L80.33 176.576L101.964 166.825L97.4165 155.095Z" fill="#EFC3C2"/>
<path d="M77.2062 168.542C77.2062 168.542 61.8841 167.19 62.948 172.559C64.0114 177.928 67.889 190.477 80.3302 176.576L77.2062 168.542Z" fill="#EFC3C2"/>
<path d="M77.7548 169.111L75.5146 167.111C74.2227 165.958 72.6143 165.22 70.8979 164.991L67.7187 164.568C66.9564 164.466 66.224 164.9 65.9472 165.618C65.6451 166.401 65.9738 167.286 66.7134 167.683L71.4671 170.231L77.7548 169.111Z" fill="#EFC3C2"/>
<path d="M111.781 140.889L79.5786 162.042L87.6243 177.286L121.786 159.076C127.075 156.426 129.249 151.462 126.776 146.671C124.558 142.375 116.346 136.929 111.781 140.889Z" fill="#354A6A"/>
<path d="M106.175 144.837C106.086 144.845 105.995 144.805 105.942 144.725C105.866 144.609 105.898 144.453 106.014 144.377L111.643 140.68C111.759 140.603 111.916 140.636 111.991 140.751C112.068 140.867 112.035 141.023 111.92 141.099L106.29 144.797C106.255 144.82 106.215 144.833 106.175 144.837Z" fill="#496792"/>
<path d="M63.5806 95.2203L68.3023 91.0503C68.3023 91.0503 68.602 94.2183 72.0996 95.0799C76.3446 96.1249 84.0941 94.9928 86.3148 96.2881L65.54 113.504L63.5806 95.2203Z" fill="white"/>
<path d="M72.0999 95.0793L74.3618 99.8684L69.9072 101.748L67.624 97.8253L72.0999 95.0793Z" fill="#4EB46B"/>
<path d="M71.1169 100.215L70.5051 112.882L62.4575 133.103L63.5239 112.703L69.8241 99.9136L71.1169 100.215Z" fill="#4EB46B"/>
<path d="M74.4561 100.121L75.0291 101.658L80.6909 100.672" stroke="#DEDEDE" stroke-width="1.196" stroke-miterlimit="10" stroke-linecap="round" stroke-linejoin="round"/>
<path d="M67.6247 97.8253L66.1881 98.6584L63.9722 95.9608" stroke="#DEDEDE" stroke-width="1.196" stroke-miterlimit="10" stroke-linecap="round" stroke-linejoin="round"/>
<path d="M72.8091 95.1505L80.5818 89.2646L86.8699 96L84.6273 97.6869L72.8091 95.1505Z" fill="white"/>
<path d="M66.8145 55.1338C69.573 54.3918 72.5658 54.5486 75.2314 55.5753C77.897 56.6019 80.2218 58.4931 81.7697 60.8939" stroke="#463748" stroke-width="0.608279" stroke-miterlimit="10" stroke-linecap="round" stroke-linejoin="round"/>
<path d="M85.9874 78.2142C87.773 76.206 89.0765 73.7301 89.4851 71.0742C89.8936 68.4183 89.3616 65.5867 87.8209 63.3853C86.2803 61.1839 83.8373 59.8566 81.1504 59.8349C77.1199 56.3314 71.2325 54.934 66.1734 56.6431C65.0639 57.0178 63.9395 57.3997 62.969 58.0541C61.9981 58.7085 61.1825 59.6804 60.9782 60.8329C60.7739 61.9859 61.4041 63.4922 62.4782 63.9579C61.7696 64.5136 61.5218 65.5344 61.7575 66.4037C61.9932 67.273 62.6486 67.987 63.4245 68.4435C64.2004 68.8999 65.092 69.124 65.9822 69.262C66.7552 73.2829 69.6531 76.7805 73.3783 78.4795C77.1034 80.1784 83.2666 81.2738 85.9874 78.2142Z" fill="#463748"/>
<path d="M82.9456 92.7897C82.8348 89.0989 82.8077 85.5601 82.6963 81.8688C84.1712 81.485 85.5725 80.726 86.571 79.575C87.5696 78.4239 88.1311 76.861 87.9225 75.3513C87.7139 73.8416 86.6756 72.4345 85.2346 71.9388C83.7936 71.4432 82.0192 71.9838 81.2229 73.283C80.9751 71.6082 80.5617 69.992 80.3139 68.3172C79.3332 69.0157 77.8376 69.1614 76.8603 68.4586C75.8825 67.7558 75.4256 66.4053 75.7756 65.2533C72.4556 65.536 68.9831 65.5123 65.6631 65.7954C64.664 66.9014 63.9665 68.2688 63.7835 69.7476C63.3479 73.2651 62.8537 76.7197 62.8726 80.2638C62.8813 81.864 63.2424 83.3345 64.1388 84.6603C65.0353 85.9856 66.4003 86.987 67.9337 87.4445C67.8954 89.4261 67.8146 91.3603 67.7764 93.342C69.7503 95.3502 72.5824 96.3401 75.3975 96.2941C78.2127 96.2476 81.039 94.8618 82.9456 92.7897Z" fill="#EFC3C2"/>
<path d="M67.501 87.4839C69.5117 88.6131 72.0233 88.8077 74.1841 88.0013" stroke="#C87070" stroke-width="0.608279" stroke-miterlimit="10" stroke-linecap="round" stroke-linejoin="round"/>
<path d="M81.3804 82.3889C81.9472 82.3032 82.514 82.2175 83.0808 82.1313" stroke="#C87070" stroke-width="0.608279" stroke-miterlimit="10" stroke-linecap="round" stroke-linejoin="round"/>
<path d="M82.0249 79.2841C82.3579 76.7869 84.5448 75.1843 85.8304 74.5671" stroke="#C87070" stroke-width="0.608279" stroke-miterlimit="10" stroke-linecap="round" stroke-linejoin="round"/>
<path d="M68.0118 76.5791C68.6115 75.1207 69.3932 71.9551 69.3932 71.9551L62.2629 71.1647C62.2629 71.1647 62.0988 74.3482 62.1036 75.93C63.9952 76.1638 66.1202 76.3448 68.0118 76.5791Z" stroke="#463748" stroke-width="0.608279" stroke-miterlimit="10" stroke-linecap="round" stroke-linejoin="round"/>
<path d="M79.5485 77.7278C77.2252 77.4698 74.8708 77.1455 72.5474 76.8875C72.5126 75.3227 72.4777 73.7578 72.4429 72.1929C75.2033 72.5404 78.0093 72.7384 80.7698 73.0859C80.4527 74.6382 79.8651 76.176 79.5485 77.7278Z" stroke="#463748" stroke-width="0.608279" stroke-miterlimit="10" stroke-linecap="round" stroke-linejoin="round"/>
<path d="M69.356 71.8598C69.7945 71.4851 70.386 71.2954 70.9605 71.3447C71.5351 71.3941 72.0859 71.6816 72.4543 72.1255" stroke="#463748" stroke-width="0.608279" stroke-miterlimit="10" stroke-linecap="round" stroke-linejoin="round"/>
<path d="M70.1388 74.0059L68.5884 79.3332L70.1455 79.2964" stroke="#C87070" stroke-width="0.608279" stroke-miterlimit="10" stroke-linecap="round" stroke-linejoin="round"/>
<path d="M70.9517 81.2898C71.1879 81.9229 71.9067 82.3358 72.5727 82.2201C73.2387 82.1049 73.777 81.4742 73.7862 80.7985" stroke="#C87070" stroke-width="0.608279" stroke-miterlimit="10" stroke-linecap="round" stroke-linejoin="round"/>
<path d="M76.8501 74.6971C76.809 74.2499 76.4135 73.9207 75.9663 73.9618C75.519 74.003 75.1899 74.3985 75.231 74.8457C75.2722 75.293 75.6676 75.6221 76.1149 75.581C76.5621 75.5398 76.8912 75.1444 76.8501 74.6971Z" fill="#090B02"/>
<path d="M67.8926 73.8768C67.8515 73.4295 67.456 73.1004 67.0088 73.1415C66.5615 73.1827 66.2323 73.5781 66.2735 74.0254C66.3146 74.4726 66.7101 74.8018 67.1574 74.7606C67.6046 74.7195 67.9337 74.3236 67.8926 73.8768Z" fill="#090B02"/>
<path d="M65.1499 69.7362C65.7801 69.3344 66.5415 69.1568 67.2801 69.2386C68.0188 69.3204 68.7294 69.6621 69.2681 70.1936" stroke="#463748" stroke-width="0.608279" stroke-miterlimit="10" stroke-linecap="round" stroke-linejoin="round"/>
<path d="M74.4668 69.6057C75.9276 69.8022 77.3885 69.9988 78.8493 70.1953" stroke="#463748" stroke-width="0.608279" stroke-miterlimit="10" stroke-linecap="round" stroke-linejoin="round"/>
<path d="M70.4028 66.3288C72.4029 66.2262 74.3845 65.7784 76.2345 65.0117" stroke="#463748" stroke-width="0.608279" stroke-miterlimit="10" stroke-linecap="round" stroke-linejoin="round"/>
<path d="M24.6709 133.559L24.3282 134.067C20.7642 139.346 20.6205 146.222 23.9603 151.646L35.6241 167.984L47.759 161.768L39.2089 136.811L24.6709 133.559Z" fill="#354A6A"/>
</g>
</svg>
