<svg width="1251" height="426" viewBox="0 0 1251 426" fill="none" xmlns="http://www.w3.org/2000/svg">
<path d="M249.203 104.808C245.985 103.731 244.015 103.731 240.797 104.808C232.946 107.438 233.287 124.078 235.713 140.495C229.57 125.078 221.512 110.515 213.402 112.182C210.078 112.865 208.375 113.854 206.132 116.401C200.739 122.528 209.066 136.435 219.209 149.265C206.356 139.151 192.431 130.855 186.316 136.261C183.773 138.509 182.789 140.214 182.113 143.54C180.475 151.599 194.846 159.571 210.16 165.663C193.852 163.282 177.42 163 174.808 170.797C173.731 174.015 173.731 175.985 174.808 179.203C177.42 187 193.852 186.718 210.16 184.337C194.846 190.429 180.475 198.401 182.113 206.46C182.789 209.786 183.773 211.491 186.316 213.739C192.431 219.145 206.356 210.849 219.208 200.735C209.066 213.565 200.739 227.472 206.132 233.599C208.374 236.146 210.078 237.135 213.402 237.818C221.512 239.485 229.57 224.922 235.713 209.504C233.287 225.922 232.946 242.562 240.797 245.192C244.015 246.269 245.985 246.269 249.203 245.192C257.054 242.562 256.713 225.921 254.287 209.503C260.43 224.921 268.488 239.485 276.598 237.818C279.923 237.135 281.626 236.146 283.868 233.599C289.261 227.472 280.934 213.565 270.792 200.735C283.644 210.849 297.569 219.145 303.684 213.739C306.227 211.491 307.212 209.786 307.888 206.46C309.525 198.401 295.154 190.429 279.841 184.337C296.149 186.718 312.58 187 315.192 179.203C316.269 175.985 316.269 174.015 315.192 170.797C312.58 163 296.149 163.282 279.841 165.663C295.154 159.571 309.525 151.599 307.888 143.54C307.212 140.214 306.227 138.509 303.684 136.261C297.569 130.855 283.644 139.151 270.791 149.265C280.934 136.435 289.261 122.528 283.868 116.401C281.626 113.854 279.922 112.865 276.598 112.182C268.488 110.515 260.43 125.078 254.287 140.496C256.713 124.078 257.054 107.438 249.203 104.808Z" fill="#F6F7F9"/>
<path fill-rule="evenodd" clip-rule="evenodd" d="M42.0609 365.018C41.9333 365.146 41.8269 365.252 41.6922 365.386C40.9985 365.309 40.2819 365.198 39.5612 365.157C38.8483 365.117 38.1309 365.148 37.4156 365.148C36.8511 365.148 36.2335 365.005 35.7356 365.187C35.1822 365.39 34.5779 365.18 34.1422 365.414C33.636 365.686 33.0263 365.376 32.6138 365.826C31.7585 365.742 31.0485 366.27 30.2586 366.394C29.3702 366.534 28.5733 366.88 27.7577 367.191C26.8154 367.55 25.8424 367.823 24.9391 368.297C24.2954 368.635 23.6012 368.892 22.9335 369.178C21.7456 369.687 20.7237 370.423 19.6853 371.144C19.1166 371.539 18.6229 372.04 18.094 372.491C17.594 372.918 17.0353 373.293 16.6008 373.778C15.0645 375.496 13.4342 377.149 12.4376 379.278C11.7525 379.892 11.4767 380.774 11.1325 381.562C10.7883 382.349 10.2767 383.098 10.1869 383.993C9.43302 385.234 9.13438 386.654 8.72183 388.012C8.39669 389.082 7.91497 390.141 7.92781 391.302C7.51817 391.64 7.75178 392.174 7.52893 392.609C7.30278 393.05 7.15988 393.615 7.23899 394.185C7.31396 394.725 6.92627 395.21 7.00746 395.786C7.07663 396.281 7 396.774 6.83142 397.283C6.66781 397.775 6.8513 398.357 6.59284 398.882C6.5303 399.009 6.76101 399.257 6.78503 399.458C6.8016 399.597 6.60485 399.816 6.65704 399.888C6.96231 400.306 6.70467 400.763 6.79911 401.11C6.64959 401.39 6.5332 401.607 6.36462 401.922C6.50006 401.994 6.68728 402.094 6.85586 402.184C6.85586 403.674 6.8542 405.056 6.86249 406.438C6.8629 406.492 6.96231 406.545 7.01698 406.599C6.94408 406.679 6.87118 406.76 6.79828 406.84C6.98426 407.561 7.26675 408.254 7.26385 409.024C7.26219 409.445 7.3732 409.873 7.48172 410.285C7.70663 411.137 7.88763 412.006 8.04669 412.866C8.22645 413.836 8.73799 414.625 9.13894 415.469C9.53408 416.303 10.0788 417.036 10.9308 417.547C12.1063 418.25 13.2565 419.002 14.4979 419.579C15.091 419.855 15.7421 420.059 16.3344 420.321C16.9549 420.595 17.616 420.714 18.2365 420.896C18.7886 421.058 19.4364 421.117 20.0469 421.172C20.5493 421.217 21.0398 421.182 21.5443 421.379C21.9953 421.555 22.5719 421.249 23.0238 421.628C23.0457 421.647 23.0971 421.631 23.1348 421.631C24.9896 421.618 26.8427 422.116 28.683 421.823C29.9273 421.625 31.2374 421.611 32.3976 420.996C34.1944 420.77 35.7489 419.786 37.4852 419.371C37.9607 418.92 38.6334 418.87 39.1739 418.534C39.7028 418.206 40.3159 418.017 40.8651 417.717C42.8065 416.659 44.7573 415.618 46.6113 414.406C46.9725 414.17 47.2289 413.828 47.6377 413.622C48.1447 413.365 48.5734 412.93 48.9884 412.524C49.3761 412.144 49.7866 411.793 50.0562 411.279C50.3213 410.773 50.8275 410.425 51.1828 409.946C52.0117 408.829 52.8894 407.737 53.4382 406.465C53.7795 405.674 54.1063 404.857 54.397 404.036C54.6775 403.243 54.7748 402.407 55.1082 401.623C55.3667 401.016 55.3033 400.271 55.3708 399.586C55.4533 398.752 55.5535 397.918 55.5904 397.082C55.628 396.218 55.65 395.347 55.5841 394.486C55.5187 393.634 55.3973 392.786 55.2027 391.943C55.0917 391.465 54.9662 390.964 54.938 390.473C54.8945 389.704 54.5789 389.04 54.2927 388.362C53.7244 387.012 52.8993 385.837 52.0204 384.659C51.0499 383.359 49.6561 382.565 48.621 381.365C48.1886 380.864 47.5689 380.5 46.9816 380.167C46.5347 379.913 45.9937 379.861 45.5108 379.63C44.9185 379.346 44.2491 379.225 43.6141 379.03C43.5487 379.011 43.4936 378.94 43.4298 378.934C42.6333 378.853 41.8364 378.772 41.0386 378.708C40.7392 378.684 40.431 378.67 40.1369 378.715C39.8901 378.753 39.6718 378.347 39.4266 378.686C39.0298 378.381 38.6649 378.834 38.2453 378.726C37.8766 378.632 37.486 378.756 37.0896 378.895C36.6365 379.054 36.0877 378.879 35.6101 379.149C35.3144 379.316 34.9785 379.412 34.6409 379.549C34.5473 379.455 34.4143 379.322 34.2764 379.184C34.23 379.219 34.1397 379.257 34.1422 379.289C34.1675 379.653 34.0519 379.888 33.6973 380.072C33.0727 380.396 32.4862 380.794 31.8479 381.182C31.7394 381.12 31.5886 381.034 31.3132 380.877C31.2693 381.051 31.2192 381.25 31.1819 381.398C31.1285 381.372 31.2726 381.442 31.452 381.529C30.904 382.067 30.3609 382.583 29.8378 383.118C28.5998 384.385 27.5651 385.804 26.7226 387.361C26.2906 388.16 25.8267 388.946 25.4551 389.773C24.9991 390.787 24.5302 391.796 24.1765 392.859C23.9226 393.621 23.6443 394.371 23.4061 395.14C23.2582 395.618 23.3444 396.105 23.1124 396.598C22.8353 397.187 23.0002 397.968 22.8167 398.622C22.6025 399.385 22.6373 400.141 22.603 400.906C22.5926 401.141 22.4625 401.371 22.3843 401.613C22.4538 401.691 22.5272 401.773 22.6013 401.857C22.5574 401.906 22.5102 401.959 22.4725 402.002C22.5201 402.309 22.6059 402.606 22.6059 402.904C22.6054 403.776 22.8337 404.599 23.0619 405.428C23.4214 406.731 24.3231 407.585 25.5053 408.05C26.8916 408.595 28.3575 408.851 29.8581 409.036C31.0817 409.185 32.2886 409.108 33.4853 409.22C34.0469 408.821 34.7134 408.679 35.2887 408.332C35.4817 408.215 35.7311 408.15 35.9307 407.982C36.7641 407.279 37.6757 406.679 38.4843 405.933C38.8459 405.599 39.2683 405.29 39.637 404.94C40.7967 403.843 41.5208 402.475 42.0393 400.987C42.2121 400.493 42.2469 399.921 42.5202 399.498C42.8371 399.008 42.5082 398.391 42.9469 397.974C43.0218 397.065 43.1821 396.151 43.1436 395.246C43.1167 394.605 42.8856 393.969 42.9427 393.305C42.9556 393.158 42.176 391.372 42.0029 391.215C41.6268 390.875 41.2188 390.57 40.8245 390.25C40.4335 390.462 40.1208 389.934 39.6473 390.192C39.2567 390.404 38.6644 390.443 38.2283 390.321C37.7354 390.184 38.0713 390.578 37.9056 390.657C36.5669 391.292 35.7124 392.547 34.5071 393.36C34.4483 393.399 34.4089 393.468 34.4694 393.399C34.3302 393.883 34.3244 394.297 34.1182 394.546C33.5147 395.272 33.3801 396.209 32.9174 396.993C32.8155 397.167 32.8105 397.403 32.7824 397.613C32.7211 398.074 32.9265 398.569 32.5649 398.997C32.4904 399.084 32.5251 399.296 32.5595 399.438C32.6573 399.839 32.7811 400.235 32.9153 400.705C34.3891 399.702 34.93 398.036 35.9953 396.8H36.8188C36.6568 397.157 36.5098 397.481 36.2675 398.014C36.6125 397.866 36.7798 397.835 36.8917 397.739C37.1472 397.518 37.3759 397.266 37.6285 397.013C37.9636 397.237 38.1434 397.614 38.4565 397.876C38.7489 398.12 38.8438 398.601 39.118 399.169C39.1288 400.011 38.4184 400.851 38.2022 401.845C37.7946 402.113 37.3349 402.272 37.2644 402.915C37.2226 403.296 36.8428 403.64 36.6709 403.911C36.1871 404.127 35.7957 403.933 35.3906 404.175C34.8231 404.515 34.2163 403.909 33.5938 404.008C32.7153 403.426 31.6694 403.203 30.7727 402.62C30.0983 402.181 29.6779 401.582 29.2248 400.993C28.9108 400.584 28.7613 400.054 28.4834 399.612C28.2083 399.177 28.2083 398.66 28.0849 398.202C27.896 397.499 27.9151 396.684 28.0642 395.962C28.2759 394.941 28.4618 393.901 28.9299 392.937C29.5139 391.735 30.2537 390.649 31.1765 389.692C32.0405 388.797 32.9099 387.916 34.0088 387.273C34.7208 386.857 35.5161 386.725 36.2443 386.39C36.5851 386.233 36.8999 386.629 37.3129 386.416C37.6099 386.262 38.0535 386.356 38.4263 386.394C38.8127 386.433 39.3317 386.407 39.5475 386.638C40.0296 387.155 40.8701 386.86 41.2395 387.503C41.9594 387.504 42.403 388.037 42.8818 388.432C44.105 389.443 45.382 390.428 45.9622 392C46.0467 392.229 46.1225 392.461 46.2017 392.689C46.3056 392.712 46.4083 392.735 46.5007 392.755C46.668 393.382 46.8304 393.991 46.9973 394.616C46.9692 394.652 46.9244 394.709 46.8428 394.813C46.9799 395.031 47.132 395.272 47.3266 395.581C47.0247 395.629 46.8176 395.662 46.591 395.698C46.584 395.811 46.5778 395.913 46.5691 396.058H47.0736C47.1469 396.126 47.1742 396.151 47.2015 396.176C46.8884 396.462 47.395 396.723 47.2355 396.987C46.8619 397.605 47.0914 398.283 47.0052 398.928C46.9398 399.416 46.8358 399.907 46.6776 400.372C46.5773 400.667 46.3458 400.917 46.1751 401.185C46.6403 401.871 45.7692 402.545 46.065 403.286C45.9813 403.303 45.8786 403.325 45.7638 403.349C45.5398 403.837 45.307 404.344 44.9769 405.063V405.819C44.7259 406.424 44.4392 406.873 43.8598 407.038V407.537C43.2389 408.146 42.6408 408.836 41.93 409.379C41.6479 409.594 41.3717 409.828 41.0863 410.045C40.8307 410.24 40.5304 410.386 40.3088 410.612C39.5686 411.365 38.6309 411.814 37.7143 412.268C36.4302 412.904 34.5957 413.186 33.1825 413.032C32.6676 412.976 32.1685 412.773 31.6023 412.621C31.4793 412.669 31.2573 412.847 31.0941 412.804C29.3002 412.327 27.4545 412.105 25.7115 411.35C24.413 410.787 23.1543 410.169 22.0322 409.354C21.2141 408.761 20.4868 407.99 19.9177 407.095C19.2562 406.055 18.5873 405.031 18.2505 403.829C18.2228 403.731 18.1155 403.651 18.0998 403.554C18.0132 403.023 17.8902 402.49 17.879 401.955C17.8488 400.487 17.8015 399.014 17.8943 397.551C17.9482 396.71 18.1317 395.859 18.2741 395.019C18.4117 394.209 18.6018 393.416 18.755 392.613C18.9278 391.707 19.2761 390.867 19.5735 390.01C19.8125 389.322 20.0258 388.595 20.3824 387.979C20.9975 386.917 21.4034 385.76 22.0686 384.71C22.7061 383.704 23.3009 382.66 23.9731 381.67C24.3153 381.165 24.6537 380.642 25.0786 380.212C26.1208 379.155 27.0888 378.009 28.333 377.173C29.4095 376.45 30.4616 375.725 31.7249 375.27C32.9824 374.818 34.2217 374.484 35.5455 374.403C35.7812 374.388 36.0107 374.261 36.2546 374.182C36.3321 374.25 36.4149 374.321 36.4994 374.395C36.5479 374.354 36.6009 374.311 36.6585 374.263C36.8751 374.312 37.1162 374.323 37.3129 374.421C37.5859 374.558 37.7296 374.104 38.0701 374.344C38.2987 374.506 38.7175 374.39 39.0501 374.415C39.3325 374.435 39.6593 374.292 39.871 374.612C40.1949 374.133 40.4894 374.704 40.8025 374.639C41.2159 374.552 41.575 374.745 41.9532 374.858C42.2908 374.959 42.642 375.014 42.987 375.089C43.3325 375.165 43.7169 375.168 44.0163 375.328C45.2801 376.004 46.7944 376.213 47.8021 377.338C48.5672 377.316 49.0414 377.875 49.5836 378.244C51.525 379.566 53.1528 381.252 54.7408 382.958C56.2957 384.628 57.5947 386.515 58.4015 388.661C58.8298 389.8 59.314 390.932 59.4739 392.181C59.5762 392.983 59.8098 393.785 59.8765 394.597C59.9436 395.42 59.891 396.252 59.891 397.081C59.891 397.683 59.8968 398.286 59.8898 398.888C59.8827 399.5 59.9316 400.093 59.5456 400.672C59.3236 401.005 59.3782 401.522 59.3082 401.956C59.7411 402.195 58.9238 402.618 59.4159 402.834C59.0953 403.457 58.7751 404.078 58.4525 404.706C58.3448 404.608 58.2719 404.518 58.1779 404.466C58.1228 404.436 58.0337 404.467 57.9202 404.472C57.8436 404.75 58.1675 404.776 58.2723 405.046V405.966C58.1717 406.067 58.0387 406.2 57.8776 406.361C57.9306 406.43 57.9873 406.504 58.052 406.587C57.5748 407.067 57.5151 407.766 57.1821 408.331C56.8048 408.972 56.4685 409.642 55.9408 410.104C55.5742 410.006 55.2826 409.929 54.991 409.851C54.9728 409.905 54.9546 409.96 54.9363 410.014C55.0718 410.073 55.2072 410.132 55.4234 410.226C55.2188 410.366 55.0407 410.488 54.863 410.61C54.8899 410.661 54.9169 410.712 54.9438 410.762C55.1215 410.723 55.2996 410.683 55.546 410.628C55.563 410.763 55.587 410.954 55.6123 411.154C55.4495 411.214 55.3191 411.261 55.1285 411.331C55.1757 411.553 55.2242 411.785 55.2963 412.127C55.0353 412.275 54.6837 412.477 54.2798 412.708C54.1129 413.084 53.9153 413.529 53.7182 413.973C53.7517 413.994 53.7857 414.014 53.8196 414.033C52.9979 414.855 52.2333 415.746 51.3402 416.48C50.2683 417.362 49.1147 418.155 47.9467 418.909C46.2907 419.979 44.595 420.987 42.9009 421.997C42.7 422.116 42.4051 422.078 42.1027 422.12C41.727 422.804 40.9028 422.896 40.2653 423.27C39.6701 423.62 38.9975 423.839 38.331 424.128C38.2573 423.98 38.1831 423.83 38.1077 423.679C37.7358 424.585 36.7881 424.599 36.0413 424.964C35.9415 424.908 35.7969 424.827 35.5977 424.715C35.5385 424.907 35.4995 425.036 35.4602 425.163C35.4337 425.19 35.3976 425.245 35.3815 425.239C34.9172 425.087 34.5249 425.382 34.1252 425.493C32.2124 426.025 30.2615 425.853 28.3214 425.942C26.8303 426.009 25.3723 425.74 23.8978 425.664C23.3369 425.635 22.7264 425.58 22.1946 425.429C21.6453 425.273 21.0994 425.359 20.5879 425.223C19.9396 425.051 19.2914 424.899 18.6382 424.75C17.927 424.587 17.2217 424.372 16.5304 424.121C15.842 423.871 15.1308 423.683 14.4432 423.432C13.7573 423.182 13.0975 422.861 12.4095 422.617C10.4014 421.906 8.71231 420.624 6.89148 419.577C6.06225 418.626 5.07065 417.839 4.28201 416.83C3.6603 416.035 3.12639 415.189 2.60615 414.344C2.04491 413.434 1.67669 412.399 1.3768 411.358C1.0616 410.265 0.770414 409.169 0.690059 408.025C0.668107 407.714 0.537633 407.412 0.475089 407.102C0.411716 406.79 0.612189 406.423 0.268402 406.166C0.229467 406.137 0.251006 406.026 0.24645 405.953C0.171065 404.667 0.0654438 403.381 0.0285799 402.094C-0.00911243 400.777 0.0149112 399.458 0.0289941 398.141C0.0306509 398.019 0.156568 397.9 0.224911 397.779C0.16071 397.707 0.0873965 397.625 0 397.527C0.0815976 397.336 0.253491 397.134 0.231538 396.955C0.0948521 395.837 0.51858 394.766 0.478402 393.658C0.468462 393.378 0.355385 393.048 0.681361 392.842C0.330118 392.596 0.735621 392.376 0.713254 392.131C0.687574 391.855 0.659408 391.583 0.846627 391.285C1.08686 390.903 0.773314 390.339 1.14982 389.948C1.15479 388.752 1.71314 387.692 1.9687 386.561C2.16462 385.694 2.49059 384.902 2.84142 384.095C3.13053 383.431 3.29083 382.709 3.5497 382.018C4.16355 380.382 4.91864 378.813 5.69154 377.258C6.20598 376.224 6.97805 375.323 7.49746 374.277C8.17882 373.954 8.31385 373.178 8.80675 372.674C9.31083 372.158 9.76314 371.567 10.2796 371.045C10.809 370.509 11.3243 369.958 11.8805 369.452C12.7885 368.624 13.824 367.944 14.7534 367.153C15.6924 366.353 16.778 365.82 17.7962 365.181C18.7567 364.578 19.8601 364.161 20.9503 363.821C21.7178 363.582 22.4344 363.212 23.2313 363.041C24.2212 362.829 25.1814 362.481 26.1614 362.218C26.5722 362.107 27.1049 362.19 27.3969 361.955C27.8339 361.603 28.3492 361.962 28.7435 361.627C29.0877 361.335 29.6464 361.771 29.9675 361.31C29.9799 361.292 30.0404 361.302 30.0768 361.308C31.0071 361.475 31.8827 361.032 32.8076 361.073C33.7093 361.113 34.6401 360.946 35.512 361.113C36.9194 361.382 38.3857 361.397 39.6966 362.185C40.6837 362.779 41.5195 363.431 41.9615 364.509C42.0282 364.671 42.0315 364.859 42.0609 365.018" fill="#80D261"/>
<path d="M1218.19 5.55801C1214.3 6.50513 1211.81 10.2053 1212.27 14.0809C1210.91 10.425 1206.99 8.28682 1203.1 9.23394C1199.22 10.1811 1196.72 13.8812 1197.19 17.7569C1195.82 14.101 1191.9 11.9627 1188.02 12.9099C1183.82 13.9322 1181.25 18.1627 1182.27 22.3588C1182.28 22.389 1182.28 22.419 1182.29 22.449L1182.29 22.4492C1186.36 39.1437 1203.19 49.3799 1219.88 45.3123C1236.58 41.2447 1246.82 24.4136 1242.75 7.71901L1242.75 7.71914C1242.74 7.68898 1242.73 7.65881 1242.73 7.62865C1241.7 3.43253 1237.47 0.859705 1233.28 1.88209C1229.39 2.8292 1226.9 6.5294 1227.36 10.405C1225.99 6.74912 1222.08 4.6109 1218.19 5.55801Z" fill="#FFA6C1"/>
</svg>
