<svg width="1440" height="494" viewBox="0 0 1440 494" fill="none" xmlns="http://www.w3.org/2000/svg">
<g clip-path="url(#clip0_3625_42816)">
<path fill-rule="evenodd" clip-rule="evenodd" d="M21.0609 55.9802C20.9333 56.1081 20.8269 56.2142 20.6922 56.3488C19.9985 56.2713 19.2819 56.1603 18.5612 56.1197C17.8483 56.08 17.1309 56.111 16.4156 56.111C15.8511 56.111 15.2335 55.9673 14.7356 56.1496C14.1822 56.3525 13.5779 56.1421 13.1422 56.3765C12.636 56.6491 12.0263 56.3388 11.6138 56.7891C10.7585 56.705 10.0485 57.2327 9.25864 57.357C8.37018 57.4965 7.57325 57.8428 6.75769 58.1535C5.81538 58.5126 4.84243 58.7851 3.93905 59.2598C3.29538 59.5978 2.60118 59.855 1.93349 60.1408C0.745562 60.6494 -0.276272 61.3859 -1.31467 62.107C-1.88337 62.5013 -2.3771 63.0025 -2.90604 63.4536C-3.40598 63.881 -3.96473 64.2555 -4.39923 64.7409C-5.9355 66.459 -7.5658 68.1117 -8.56237 70.2403C-9.24746 70.8549 -9.52331 71.7364 -9.86751 72.5242C-10.2117 73.312 -10.7233 74.0604 -10.8131 74.9551C-11.567 76.1965 -11.8656 77.6164 -12.2782 78.9749C-12.6033 80.0448 -13.085 81.1031 -13.0722 82.2645C-13.4818 82.6029 -13.2482 83.1364 -13.4711 83.5713C-13.6972 84.0129 -13.8401 84.5778 -13.761 85.1474C-13.686 85.6879 -14.0737 86.1729 -13.9925 86.7491C-13.9234 87.2432 -14 87.7365 -14.1686 88.2452C-14.3322 88.7372 -14.1487 89.32 -14.4072 89.8448C-14.4697 89.9716 -14.239 90.2197 -14.215 90.4206C-14.1984 90.5597 -14.3951 90.7788 -14.343 90.8505C-14.0377 91.2684 -14.2953 91.7253 -14.2009 92.0724C-14.3504 92.3524 -14.4668 92.5694 -14.6354 92.8846C-14.4999 92.9567 -14.3127 93.057 -14.1441 93.1468C-14.1441 94.6367 -14.1458 96.0189 -14.1375 97.4007C-14.1371 97.4541 -14.0377 97.5071 -13.983 97.5618C-14.0559 97.6417 -14.1288 97.7221 -14.2017 97.8025C-14.0157 98.5232 -13.7333 99.217 -13.7362 99.987C-13.7378 100.407 -13.6268 100.835 -13.5183 101.247C-13.2934 102.1 -13.1124 102.968 -12.9533 103.828C-12.7736 104.798 -12.262 105.587 -11.8611 106.432C-11.4659 107.266 -10.9212 107.999 -10.0692 108.509C-8.89373 109.213 -7.74349 109.965 -6.50213 110.542C-5.90899 110.817 -5.25787 111.022 -4.66556 111.283C-4.04509 111.557 -3.38402 111.676 -2.76355 111.859C-2.21142 112.021 -1.56361 112.08 -0.953077 112.135C-0.450651 112.18 0.039763 112.144 0.54426 112.341C0.995325 112.517 1.57189 112.212 2.02379 112.591C2.04574 112.609 2.0971 112.593 2.13479 112.593C3.98959 112.58 5.84272 113.078 7.68302 112.785C8.92728 112.588 10.2374 112.573 11.3976 111.959C13.1944 111.733 14.7489 110.748 16.4852 110.334C16.9607 109.883 17.6334 109.833 18.1739 109.497C18.7028 109.169 19.3159 108.979 19.8651 108.68C21.8065 107.622 23.7573 106.58 25.6113 105.369C25.9725 105.133 26.2289 104.791 26.6377 104.584C27.1447 104.328 27.5734 103.893 27.9884 103.487C28.3761 103.106 28.7866 102.755 29.0562 102.241C29.3213 101.735 29.8275 101.387 30.1828 100.909C31.0117 99.7919 31.8894 98.6992 32.4382 97.4272C32.7795 96.6369 33.1063 95.8197 33.397 94.9983C33.6775 94.2055 33.7748 93.3693 34.1082 92.5852C34.3667 91.9788 34.3033 91.2336 34.3708 90.549C34.4533 89.7148 34.5535 88.881 34.5904 88.0447C34.628 87.1803 34.65 86.3092 34.5841 85.4485C34.5187 84.5965 34.3973 83.7482 34.2027 82.9057C34.0917 82.4273 33.9662 81.9261 33.938 81.4353C33.8945 80.6665 33.5789 80.003 33.2927 79.3241C32.7244 77.9751 31.8993 76.7996 31.0204 75.622C30.0499 74.3218 28.6561 73.5274 27.621 72.3274C27.1886 71.8267 26.5689 71.4622 25.9816 71.1291C25.5347 70.8752 24.9937 70.8235 24.5108 70.5923C23.9185 70.309 23.2491 70.1881 22.6141 69.993C22.5487 69.9731 22.4936 69.9027 22.4298 69.8965C21.6333 69.8153 20.8364 69.7345 20.0386 69.6707C19.7392 69.6467 19.431 69.6322 19.1369 69.6774C18.8901 69.7155 18.6718 69.3091 18.4266 69.6488C18.0298 69.3435 17.6649 69.7971 17.2453 69.689C16.8766 69.5941 16.486 69.7188 16.0896 69.858C15.6365 70.017 15.0877 69.8414 14.6101 70.1115C14.3144 70.2788 13.9785 70.3749 13.6409 70.5112C13.5473 70.4175 13.4143 70.2842 13.2764 70.1467C13.23 70.1815 13.1397 70.2196 13.1422 70.2515C13.1675 70.6151 13.0519 70.8504 12.6973 71.0343C12.0727 71.3586 11.4862 71.7562 10.8479 72.1448C10.7394 72.0826 10.5886 71.9969 10.3132 71.8395C10.2693 72.0139 10.2192 72.2123 10.1819 72.361C10.1285 72.3349 10.2726 72.4049 10.452 72.4915C9.90396 73.0295 9.36095 73.5456 8.83781 74.0807C7.59976 75.3474 6.56509 76.7664 5.7226 78.3238C5.29059 79.1228 4.82669 79.909 4.45515 80.7357C3.99911 81.7497 3.53024 82.7587 3.17651 83.8211C2.9226 84.5832 2.64426 85.3338 2.4061 86.1029C2.25823 86.5805 2.34438 87.068 2.11243 87.5609C1.83533 88.1499 2.00018 88.9307 1.81669 89.5843C1.60254 90.3477 1.63734 91.1036 1.60296 91.8686C1.5926 92.1039 1.46254 92.3338 1.38426 92.5757C1.45385 92.6539 1.52716 92.7359 1.6013 92.8192C1.5574 92.8689 1.51018 92.9219 1.47248 92.965C1.52012 93.2715 1.60586 93.5689 1.60586 93.8667C1.60544 94.7386 1.83367 95.562 2.06189 96.3909C2.42142 97.6939 3.32314 98.548 4.50527 99.0128C5.8916 99.5574 7.35746 99.8138 8.85811 99.9981C10.0817 100.148 11.2886 100.071 12.4853 100.182C13.0469 99.7836 13.7134 99.6411 14.2887 99.2944C14.4817 99.178 14.7311 99.1126 14.9307 98.9448C15.7641 98.2415 16.6757 97.6417 17.4843 96.8954C17.8459 96.5615 18.2683 96.2521 18.637 95.9029C19.7967 94.8057 20.5208 93.4372 21.0393 91.9498C21.2121 91.4552 21.2469 90.8836 21.5202 90.4607C21.8371 89.9703 21.5082 89.3532 21.9469 88.9369C22.0218 88.0273 22.1821 87.1136 22.1436 86.2081C22.1167 85.5674 21.8856 84.9312 21.9427 84.2672C21.9556 84.121 21.176 82.3345 21.0029 82.178C20.6268 81.8375 20.2188 81.5326 19.8245 81.2129C19.4335 81.4249 19.1208 80.8968 18.6473 81.1545C18.2567 81.367 17.6644 81.4055 17.2283 81.2837C16.7354 81.1462 17.0713 81.5405 16.9056 81.6192C15.5669 82.255 14.7124 83.51 13.5071 84.3227C13.4483 84.362 13.4089 84.4308 13.4694 84.362C13.3302 84.8458 13.3244 85.26 13.1182 85.5081C12.5147 86.2351 12.3801 87.172 11.9174 87.9561C11.8155 88.1292 11.8105 88.3657 11.7824 88.5753C11.7211 89.0363 11.9265 89.5317 11.5649 89.9591C11.4904 90.047 11.5251 90.2582 11.5595 90.4003C11.6573 90.802 11.7811 91.1972 11.9153 91.6673C13.3891 90.6645 13.93 88.999 14.9953 87.7622H15.8188C15.6568 88.1193 15.5098 88.4432 15.2675 88.9762C15.6125 88.8288 15.7798 88.7977 15.8917 88.7016C16.1472 88.4809 16.3759 88.2282 16.6285 87.9755C16.9636 88.1996 17.1434 88.5761 17.4565 88.8383C17.7489 89.0823 17.8438 89.5632 18.118 90.1315C18.1288 90.9739 17.4184 91.8135 17.2022 92.8072C16.7946 93.076 16.3349 93.2351 16.2644 93.8779C16.2226 94.259 15.8428 94.6028 15.6709 94.8741C15.1871 95.0894 14.7957 94.8956 14.3906 95.1379C13.8231 95.4775 13.2163 94.872 12.5938 94.9706C11.7153 94.389 10.6694 94.1654 9.77266 93.5822C9.09834 93.1435 8.67793 92.5446 8.22479 91.9552C7.91083 91.5468 7.7613 91.0162 7.48337 90.5751C7.20834 90.1393 7.20834 89.6224 7.08491 89.1643C6.89604 88.4618 6.91509 87.6467 7.0642 86.9243C7.27586 85.9037 7.46183 84.8632 7.92988 83.8998C8.51391 82.6974 9.25367 81.6113 10.1765 80.6549C11.0405 79.7594 11.9099 78.8784 13.0088 78.2356C13.7208 77.8193 14.5161 77.688 15.2443 77.3525C15.5851 77.1951 15.8999 77.5919 16.3129 77.3782C16.6099 77.2249 17.0535 77.319 17.4263 77.3562C17.8127 77.3956 18.3317 77.3695 18.5475 77.6006C19.0296 78.1171 19.8701 77.8226 20.2395 78.4655C20.9594 78.4667 21.403 78.9994 21.8818 79.3949C23.105 80.406 24.382 81.3901 24.9622 82.9629C25.0467 83.1919 25.1225 83.4235 25.2017 83.6513C25.3056 83.6745 25.4083 83.6973 25.5007 83.718C25.668 84.3442 25.8304 84.9535 25.9973 85.5781C25.9692 85.6146 25.9244 85.6713 25.8428 85.7757C25.9799 85.9932 26.132 86.2346 26.3266 86.5436C26.0247 86.5913 25.8176 86.6244 25.591 86.6604C25.584 86.7735 25.5778 86.8754 25.5691 87.0208H26.0736C26.1469 87.0883 26.1742 87.1136 26.2015 87.1384C25.8884 87.4246 26.395 87.6856 26.2355 87.9494C25.8619 88.5674 26.0914 89.2459 26.0052 89.8904C25.9398 90.3783 25.8358 90.8691 25.6776 91.3343C25.5773 91.6296 25.3458 91.8798 25.1751 92.1474C25.6403 92.8337 24.7692 93.5076 25.065 94.2482C24.9813 94.2656 24.8786 94.2871 24.7638 94.3112C24.5398 94.7995 24.307 95.3065 23.9769 96.0251V96.7815C23.7259 97.3862 23.4392 97.836 22.8598 98.0009V98.4991C22.2389 99.1084 21.6408 99.7989 20.93 100.341C20.6479 100.556 20.3717 100.791 20.0863 101.008C19.8307 101.202 19.5304 101.349 19.3088 101.575C18.5686 102.328 17.6309 102.776 16.7143 103.23C15.4302 103.866 13.5957 104.149 12.1825 103.995C11.6676 103.939 11.1685 103.735 10.6023 103.583C10.4793 103.631 10.2573 103.81 10.0941 103.766C8.30018 103.29 6.4545 103.068 4.71154 102.313C3.41302 101.75 2.15426 101.131 1.03219 100.317C0.214141 99.7239 -0.513195 98.9523 -1.08231 98.0576C-1.74379 97.0175 -2.41272 95.9936 -2.74947 94.792C-2.77722 94.6939 -2.8845 94.6139 -2.90024 94.517C-2.9868 93.9852 -3.10982 93.4521 -3.12101 92.9174C-3.15124 91.4494 -3.19846 89.9765 -3.10568 88.514C-3.05183 87.6723 -2.86834 86.822 -2.72586 85.9812C-2.58834 85.1714 -2.39822 84.3786 -2.24497 83.5755C-2.07225 82.67 -1.7239 81.8296 -1.42651 80.9726C-1.18751 80.2851 -0.974202 79.5573 -0.617575 78.9418C-0.00248593 77.8794 0.403433 76.7221 1.06864 75.6725C1.7061 74.6664 2.30089 73.6226 2.97314 72.6323C3.31527 72.1274 3.65367 71.6051 4.07864 71.1743C5.12077 70.1177 6.08876 68.9716 7.33302 68.1353C8.40953 67.4121 9.4616 66.6873 10.7249 66.2329C11.9824 65.781 13.2217 65.4467 14.5455 65.3655C14.7812 65.351 15.0107 65.2235 15.2546 65.1444C15.3321 65.2123 15.4149 65.2839 15.4994 65.3577C15.5479 65.3171 15.6009 65.2732 15.6585 65.2255C15.8751 65.2744 16.1162 65.2852 16.3129 65.3838C16.5859 65.5209 16.7296 65.0665 17.0701 65.3067C17.2987 65.4683 17.7175 65.3523 18.0501 65.3771C18.3325 65.3978 18.6593 65.2545 18.871 65.5747C19.1949 65.0959 19.4894 65.6662 19.8025 65.6012C20.2159 65.5151 20.575 65.7077 20.9532 65.8207C21.2908 65.9214 21.642 65.9765 21.987 66.0519C22.3325 66.1273 22.7169 66.1302 23.0163 66.2904C24.2801 66.9664 25.7944 67.1756 26.8021 68.301C27.5672 68.2786 28.0414 68.8374 28.5836 69.2064C30.525 70.5286 32.1528 72.2144 33.7408 73.9204C35.2957 75.5909 36.5947 77.478 37.4015 79.624C37.8298 80.7622 38.314 81.8942 38.4739 83.1439C38.5762 83.9454 38.8098 84.7481 38.8765 85.5599C38.9436 86.3825 38.891 87.2151 38.891 88.0435C38.891 88.6457 38.8968 89.2484 38.8898 89.8506C38.8827 90.4624 38.9316 91.0559 38.5456 91.6346C38.3236 91.9672 38.3782 92.4845 38.3082 92.919C38.7411 93.1572 37.9238 93.5805 38.4159 93.7963C38.0953 94.4197 37.7751 95.041 37.4525 95.6685C37.3448 95.5707 37.2719 95.4804 37.1779 95.4287C37.1228 95.3984 37.0337 95.4295 36.9202 95.4345C36.8436 95.7124 37.1675 95.7389 37.2723 96.009V96.9285C37.1717 97.0291 37.0387 97.1625 36.8776 97.3236C36.9306 97.3928 36.9873 97.4661 37.052 97.5498C36.5748 98.0294 36.5151 98.7282 36.1821 99.294C35.8048 99.9348 35.4685 100.604 34.9408 101.066C34.5742 100.969 34.2826 100.891 33.991 100.814C33.9728 100.868 33.9546 100.922 33.9363 100.976C34.0718 101.035 34.2072 101.095 34.4234 101.189C34.2188 101.329 34.0407 101.451 33.863 101.573C33.8899 101.623 33.9169 101.674 33.9438 101.725C34.1215 101.685 34.2996 101.646 34.546 101.59C34.563 101.726 34.587 101.917 34.6123 102.117C34.4495 102.176 34.3191 102.224 34.1285 102.294C34.1757 102.516 34.2242 102.747 34.2963 103.089C34.0353 103.238 33.6837 103.44 33.2798 103.67C33.1129 104.047 32.9153 104.492 32.7182 104.936C32.7517 104.956 32.7857 104.976 32.8196 104.996C31.9979 105.818 31.2333 106.708 30.3402 107.443C29.2683 108.325 28.1147 109.118 26.9467 109.872C25.2907 110.942 23.595 111.95 21.9009 112.959C21.7 113.079 21.4051 113.041 21.1027 113.083C20.727 113.766 19.9028 113.859 19.2653 114.233C18.6701 114.583 17.9975 114.802 17.331 115.09C17.2573 114.942 17.1831 114.793 17.1077 114.641C16.7358 115.548 15.7881 115.561 15.0413 115.927C14.9415 115.871 14.7969 115.79 14.5977 115.678C14.5385 115.87 14.4995 115.998 14.4602 116.126C14.4337 116.153 14.3976 116.207 14.3815 116.202C13.9172 116.049 13.5249 116.345 13.1252 116.455C11.2124 116.988 9.26154 116.816 7.32142 116.904C5.8303 116.972 4.37231 116.703 2.89775 116.626C2.33692 116.597 1.72639 116.543 1.19456 116.392C0.645325 116.236 0.0994081 116.322 -0.41213 116.186C-1.06036 116.014 -1.70858 115.862 -2.36177 115.712C-3.07296 115.55 -3.77834 115.335 -4.46964 115.084C-5.15805 114.834 -5.86923 114.646 -6.5568 114.395C-7.24272 114.145 -7.90254 113.823 -8.59053 113.58C-10.5986 112.869 -12.2877 111.587 -14.1085 110.54C-14.9378 109.588 -15.9293 108.802 -16.718 107.792C-17.3397 106.997 -17.8736 106.151 -18.3938 105.307C-18.9551 104.396 -19.3233 103.362 -19.6232 102.321C-19.9384 101.228 -20.2296 100.132 -20.3099 98.9879C-20.3319 98.6768 -20.4624 98.3745 -20.5249 98.0642C-20.5883 97.7523 -20.3878 97.3854 -20.7316 97.1286C-20.7705 97.0996 -20.749 96.9886 -20.7536 96.9161C-20.8289 95.6296 -20.9346 94.3439 -20.9714 93.0561C-21.0091 91.7394 -20.9851 90.421 -20.971 89.1034C-20.9693 88.982 -20.8434 88.8623 -20.7751 88.7418C-20.8393 88.6697 -20.9126 88.5877 -21 88.4896C-20.9184 88.299 -20.7465 88.0965 -20.7685 87.9175C-20.9051 86.7992 -20.4814 85.7285 -20.5216 84.6205C-20.5315 84.3405 -20.6446 84.0108 -20.3186 83.8041C-20.6699 83.5589 -20.2644 83.3386 -20.2867 83.0933C-20.3124 82.8179 -20.3406 82.5454 -20.1534 82.248C-19.9131 81.8657 -20.2267 81.3015 -19.8502 80.9101C-19.8452 79.7147 -19.2869 78.6548 -19.0313 77.5232C-18.8354 76.6562 -18.5094 75.8643 -18.1586 75.0574C-17.8695 74.3935 -17.7092 73.6711 -17.4503 72.9806C-16.8364 71.3441 -16.0814 69.776 -15.3085 68.221C-14.794 67.1868 -14.022 66.2855 -13.5025 65.24C-12.8212 64.9165 -12.6862 64.1407 -12.1933 63.6362C-11.6892 63.121 -11.2369 62.5295 -10.7204 62.0072C-10.191 61.472 -9.67574 60.9207 -9.11947 60.4142C-8.21154 59.5862 -7.17604 58.9069 -6.24657 58.1154C-5.30757 57.3155 -4.22195 56.7829 -3.20385 56.1438C-2.24331 55.5407 -1.13988 55.124 -0.0497036 54.7839C0.717811 54.5449 1.43438 54.1751 2.2313 54.004C3.22124 53.7919 4.18136 53.444 5.16136 53.1802C5.57225 53.0691 6.10491 53.1528 6.39692 52.9175C6.83391 52.5659 7.34917 52.9246 7.74349 52.5895C8.08769 52.2975 8.64645 52.7332 8.96745 52.2726C8.97988 52.2548 9.04036 52.2648 9.07681 52.271C10.0071 52.4379 10.8827 51.9943 11.8076 52.0357C12.7093 52.0759 13.6401 51.909 14.512 52.0755C15.9194 52.3443 17.3857 52.3592 18.6966 53.1478C19.6837 53.7418 20.5195 54.3933 20.9615 55.4715C21.0282 55.6339 21.0315 55.8215 21.0609 55.9802" fill="#00E1F0"/>
<path fill-rule="evenodd" clip-rule="evenodd" d="M1377.32 33.6424C1377.38 33.6077 1377.44 33.5734 1377.5 33.5387C1377.64 33.7347 1377.76 33.9753 1377.94 34.1153C1378.15 34.2679 1378.49 34.2655 1378.65 34.4402C1378.99 34.8053 1379.43 34.9698 1379.85 35.1804C1379.99 35.8365 1380.6 36.0215 1381.04 36.3748C1381.39 36.652 1381.75 36.9162 1382.08 37.2116C1382.18 37.2987 1382.2 37.4738 1382.25 37.6087C1381.89 37.4616 1381.69 37.1315 1381.28 37.2443C1380.98 37.3283 1381.01 37.0578 1380.9 36.9083C1380.8 36.7841 1380.37 36.8172 1380.36 36.7403C1380.3 36.3149 1379.95 36.2482 1379.68 36.0719C1379.36 35.8728 1379.02 35.6685 1378.79 35.3878C1378.56 35.1039 1378.25 35.1251 1377.98 35.0427C1378.05 34.8704 1378.11 34.704 1378.22 34.4343H1377.32V33.6424ZM1480.93 12.6179C1481.66 13.0111 1481.91 13.7268 1482.25 14.3838C1482.56 15.0033 1482.71 15.704 1483 16.3243C1483.32 17.0215 1483.48 17.7486 1483.51 18.4596C1483.54 19.203 1484.04 19.9218 1483.66 20.6967C1483.55 20.5122 1483.43 20.3481 1483.36 20.164C1483.31 20.0394 1483.36 19.882 1483.33 19.7471C1483.22 19.2578 1483.09 18.772 1482.98 18.2849C1482.85 17.7597 1482.6 17.2577 1482.67 16.6934C1482.12 15.5297 1481.91 14.2217 1481.18 13.127C1481.08 12.9705 1481.02 12.7879 1480.93 12.6179V12.6179ZM1370.82 41.3053C1370.68 41.3195 1370.59 41.3593 1370.55 41.3281C1369.94 40.812 1369.31 40.3175 1368.74 39.7579C1367.56 38.5982 1366.61 37.2377 1365.73 35.8524C1365.34 35.2286 1364.87 34.5988 1364.69 33.8212C1364.61 33.4706 1364.9 33.5495 1364.94 33.385C1365.67 34.8141 1366.33 36.294 1367.37 37.5236C1368.46 38.8119 1369.65 40.0237 1370.82 41.3053V41.3053ZM1379.21 14.542C1379.01 14.6717 1378.85 14.7833 1378.68 14.8882C1378.51 14.9935 1378.33 15.0917 1378.16 15.193C1378.44 15.7064 1378.44 15.7017 1378.09 15.9557C1377.95 16.055 1377.76 16.1785 1377.74 16.3122C1377.66 16.8362 1377.34 16.5294 1377.2 16.5539C1377.23 16.1753 1377.26 15.818 1377.29 15.4612C1376.83 15.1638 1377.28 14.8626 1377.31 14.5708C1377.32 14.389 1377.47 14.2048 1377.6 14.0625C1377.62 14.0353 1377.85 14.1985 1378.02 14.2896C1378.14 14.0301 1378.24 13.8247 1378.39 13.4923C1378.08 13.6196 1377.92 13.6859 1377.76 13.7509C1377.57 13.2829 1378.09 13.4623 1378.13 13.2687C1378.18 13.0396 1378.14 12.7919 1378.14 12.4792H1379.59C1379.66 12.295 1379.7 12.1953 1379.79 11.9484C1379.85 12.7789 1379.85 12.7789 1379.49 13.0944C1379.44 12.9698 1379.4 12.8451 1379.36 12.7138C1379.16 12.8944 1378.99 13.0549 1378.84 13.1977C1378.65 13.0908 1378.53 13.0257 1378.33 12.9114C1378.42 13.5731 1378.9 13.6965 1379.21 13.941V14.542ZM1393.29 102.348C1393.44 102.64 1393.64 102.921 1393.59 102.966C1393.29 103.279 1393.45 103.644 1393.43 103.98C1393.4 104.336 1393.34 104.722 1393.45 105.048C1393.55 105.384 1393.05 105.651 1393.41 105.957C1393.07 106.228 1393.23 106.605 1393.21 106.938C1393.19 107.295 1393.21 107.655 1393.21 108.013C1393.21 109.375 1393.21 110.737 1393.2 112.098C1393.2 112.234 1393.16 112.369 1393.13 112.504C1393.05 111.936 1392.85 111.406 1392.81 110.879C1392.71 109.621 1392.82 108.355 1392.58 107.096C1392.48 106.565 1392.7 105.998 1392.74 105.466C1392.8 104.427 1393.04 103.445 1393.29 102.348V102.348ZM1393.08 127.395C1392.8 126.994 1392.54 126.675 1392.35 126.316C1391.74 125.14 1390.72 124.159 1390.61 122.736C1390.61 122.681 1390.51 122.639 1390.46 122.582C1390.14 122.167 1389.95 121.699 1389.99 121.17C1390.03 120.603 1389.85 120.096 1389.62 119.597C1389.52 119.363 1389.47 119.152 1389.78 118.909C1389.92 119.094 1390.11 119.253 1390.18 119.453C1390.3 119.766 1390.31 120.115 1390.42 120.434C1390.7 121.318 1390.87 122.245 1391.36 123.055C1391.43 123.165 1391.5 123.317 1391.48 123.429C1391.35 123.998 1391.66 124.501 1391.95 124.84C1392.54 125.541 1392.67 126.495 1393.42 127.047L1393.08 127.395ZM1472.71 11.3258C1473.2 11.0683 1473.61 10.8565 1474.02 10.6424C1474.09 10.7055 1474.2 10.7993 1474.3 10.8896C1474.22 10.9752 1474.16 11.0493 1474.12 11.0919C1474.61 11.4733 1475.08 11.8475 1475.55 12.2178C1475.52 12.2655 1475.38 12.385 1475.4 12.4134C1475.56 12.6732 1475.76 12.9086 1475.92 13.1673C1476.28 13.7462 1476.69 14.318 1476.36 15.0795C1475.9 14.7585 1475.64 14.1161 1474.97 14.1776C1475.04 13.9982 1475.19 13.7872 1475.14 13.708C1474.9 13.3345 1474.66 12.9 1474.31 12.6748C1473.95 12.4449 1473.63 12.1148 1473.55 11.814C1473.41 11.3502 1473.09 11.4938 1472.71 11.3258V11.3258ZM1442.87 86.3764L1442.72 86.2242C1442.78 86.1737 1442.84 86.0755 1442.89 86.0806C1443.31 86.1201 1443.81 86.1149 1443.96 85.9651C1444.52 85.3744 1445.23 85.6074 1445.84 85.7242C1446.41 85.8322 1446.93 86.2005 1447.47 86.4517C1447.64 86.5318 1447.81 86.6386 1447.99 86.6639C1448.06 86.6745 1448.16 86.4344 1448.29 86.6311C1448.37 86.7609 1448.44 86.9009 1448.63 87.2337C1447.98 86.975 1447.55 87.7219 1447.04 87.158C1447.03 87.1485 1446.79 87.2782 1446.78 87.3563C1446.75 87.6438 1446.51 87.6324 1446.4 87.5665C1445.85 87.2451 1445.24 87.4277 1444.66 87.3362C1444.63 87.1185 1444.59 86.9214 1444.59 86.8666C1444.44 87.0132 1444.26 87.1935 1444.11 87.3417C1444.15 87.3559 1444.28 87.3997 1444.23 87.3843C1444.09 87.5255 1443.91 87.7069 1443.75 87.863C1443.66 87.5255 1443.99 86.9182 1443.31 86.7045C1442.98 86.9785 1442.63 87.0164 1442.2 86.8204C1442.45 86.6579 1442.66 86.5168 1442.87 86.3764V86.3764ZM1439.98 89.9401C1440.25 90.3691 1440.72 89.8119 1441 90.1593C1441.34 89.8044 1441.8 90.0225 1442.2 89.9018C1442.39 89.9452 1442 89.3636 1442.5 89.6242C1442.82 89.7883 1443.25 89.7236 1443.68 89.7662C1443.73 89.5197 1443.78 89.3009 1443.84 88.9527C1443.93 89.2094 1443.98 89.3344 1444.03 89.4827C1444.3 89.3052 1444.56 89.1297 1444.87 88.929C1444.81 88.7255 1444.75 88.5079 1444.68 88.278C1445.1 88.0165 1445.58 87.8943 1446.23 88.1285C1445.79 88.3383 1445.44 88.5039 1445.06 88.6829C1445.17 88.9105 1445.27 89.1057 1445.36 89.3013C1445.56 89.2078 1445.42 88.6194 1445.93 88.9889C1445.84 89.1853 1445.75 89.3916 1445.66 89.5954C1445.74 89.6388 1445.81 89.6999 1445.83 89.6853C1446.19 89.4988 1446.54 89.3017 1446.89 89.1069C1447.21 89.7023 1447.81 89.92 1448.53 90.1361C1448.46 89.9357 1448.41 89.791 1448.33 89.5726C1448.53 89.4456 1448.62 89.043 1449.06 89.0895C1449 89.4247 1448.94 89.739 1448.88 90.0418C1449.23 90.1992 1449.28 90.2934 1449.17 90.5194C1449.67 90.9121 1449.75 90.157 1450.15 90.1124C1450.19 90.3691 1450.22 90.5663 1450.25 90.7717C1450.47 90.739 1450.58 90.4598 1450.88 90.6929C1451.29 91.0166 1451.85 91.1609 1452.26 91.4867C1452.67 91.8155 1453 91.6539 1453.41 91.4725C1453.42 91.6637 1453.44 91.8333 1453.46 92.088C1454.02 91.9831 1454.45 92.3507 1454.96 92.5104C1456.16 92.8921 1457.32 93.3937 1458.5 93.8349C1459.55 94.2293 1460.58 94.6867 1461.63 95.1043C1462.49 95.4486 1463.35 95.7936 1464.22 96.1048C1465.41 96.5279 1466.55 97.0646 1467.73 97.5244C1468.64 97.8836 1469.56 98.291 1470.47 98.6861C1470.77 98.8166 1471.04 99.0816 1471.43 98.9858C1471.51 98.9657 1471.63 99.0177 1471.7 99.0788C1472.53 99.8206 1473.7 99.8218 1474.58 100.441C1474.63 100.477 1474.72 100.493 1474.78 100.48C1475.67 100.303 1476.33 100.892 1477.06 101.212C1478.22 101.721 1479.41 102.126 1480.64 102.421C1480.9 102.483 1481.18 102.522 1481.41 102.646C1481.63 102.765 1481.86 102.678 1482.05 102.762C1482.29 102.87 1482.54 103.021 1482.71 103.216C1482.96 103.49 1483.12 102.928 1483.41 103.213C1483.63 103.42 1484.05 103.395 1484.34 103.547C1484.81 103.796 1485.41 103.696 1485.83 104.128C1485.91 104.217 1486.2 104.198 1486.34 104.128C1486.61 104.001 1486.71 103.959 1486.87 104.294C1486.96 104.477 1487.4 104.518 1487.7 104.564C1488.63 104.713 1489.47 105.249 1490.44 105.216C1491.2 105.74 1492.11 105.686 1492.95 105.909C1493.14 105.96 1493.33 106.035 1493.53 106.073C1493.89 106.143 1494.26 105.984 1494.64 106.262C1494.91 106.458 1495.39 106.139 1495.73 106.492C1495.79 106.561 1496.08 106.497 1496.21 106.411C1496.55 106.184 1496.38 106.548 1496.46 106.588C1496.58 106.652 1496.77 106.581 1496.9 106.639C1497.48 106.901 1498.09 107.01 1498.71 106.93C1499.81 106.788 1500.86 107.205 1501.96 107.178C1502.29 107.17 1502.62 107.402 1502.96 107.152C1503.58 107.472 1504.2 107.017 1504.82 107.154C1505.08 107.211 1505.39 107.423 1505.58 107.342C1506.09 107.126 1506.61 107.187 1507.12 107.145C1507.63 107.103 1508.14 107.008 1508.64 106.937C1508.71 106.927 1508.82 106.943 1508.84 106.905C1509.06 106.57 1509.41 106.769 1509.65 106.684C1510.2 106.49 1510.8 106.613 1511.32 106.301C1511.71 106.068 1512.07 105.88 1512.26 105.64C1512.34 105.792 1512.4 105.937 1512.5 106.143C1513.29 105.541 1514.45 105.636 1515.11 104.6H1515.91C1516.01 104.422 1516.08 104.159 1516.16 104.16C1516.71 104.163 1517.17 104.133 1517.13 103.384C1517.12 103.268 1517.42 103.137 1517.78 102.853C1517.64 103.267 1517.57 103.446 1517.47 103.76C1517.88 103.483 1518.19 103.297 1518.47 103.089C1518.74 102.893 1519.04 102.713 1519.24 102.455C1519.47 102.155 1519.85 102.064 1520.05 101.739C1520.23 101.449 1520.42 101.156 1520.66 100.921C1520.91 100.675 1521.04 100.341 1521.38 100.134C1521.6 99.9969 1521.65 99.5639 1521.78 99.2571C1521.71 99.1825 1521.61 99.0784 1521.52 98.9779C1521.43 99.0516 1521.36 99.1179 1521.19 99.2713C1521.22 99.0477 1521.19 98.9022 1521.26 98.8138C1521.5 98.4617 1521.88 98.2929 1522.25 98.1135C1522.4 98.0405 1522.6 97.9471 1522.65 97.8142C1522.73 97.6289 1522.63 97.3757 1522.71 97.1931C1522.77 97.0452 1523.1 96.9565 1523.1 96.8453C1523.09 96.2842 1523.48 95.7857 1523.34 95.2136C1523.74 94.3007 1523.49 93.3373 1523.55 92.3988C1523.67 90.6554 1523.18 89.0118 1522.61 87.412C1521.96 85.6087 1521.01 83.956 1519.83 82.4307C1519 81.3684 1518.22 80.2812 1517.32 79.2741C1516.09 77.8963 1515 76.3919 1513.96 74.861C1513.65 74.393 1513.49 73.8393 1513.14 73.3673C1512.82 72.9233 1512.62 72.3665 1512.45 71.8337C1512.3 71.3546 1512.23 70.8428 1512.16 70.3416C1512.1 69.9385 1512.28 69.5028 1511.95 69.1313C1511.89 69.0588 1511.94 68.8585 1511.98 68.7256C1512.02 68.5663 1512.14 68.4184 1512.15 68.2618C1512.27 65.955 1513.52 64.0464 1515.28 62.7809C1516.36 62.0084 1517.51 61.3874 1518.61 60.672C1520.16 59.6645 1521.8 58.8246 1523.34 57.8032C1524.54 57.009 1525.81 56.3225 1527.05 55.5859C1528.43 54.7597 1529.91 54.0736 1531.14 53.0006C1531.81 52.8902 1532.17 52.2656 1532.77 52.0018C1533.43 51.7068 1533.87 51.0975 1534.48 50.6965C1535.17 50.2375 1535.75 49.6026 1536.38 49.047C1536.75 48.7272 1537.02 48.3198 1537.5 48.1164C1537.75 48.013 1538 47.763 1538.1 47.5181C1538.29 47.0233 1538.71 46.7626 1539.03 46.3994C1540.56 44.6584 1541.77 42.7431 1542.51 40.5222C1542.81 39.6042 1542.92 38.6294 1543.34 37.752C1543.19 36.972 1543.59 36.2472 1543.56 35.4747C1543.54 34.7231 1543.69 33.938 1543.53 33.2242C1543.28 32.1544 1543.31 31.0014 1542.7 30.0242C1542.5 28.5486 1541.06 25.9491 1540.4 24.9518C1539.64 23.7842 1538.6 22.8536 1537.56 21.9553C1537.04 21.5006 1536.4 21.0562 1535.65 20.889C1535.17 20.7809 1534.73 20.5333 1534.23 20.4146C1533.77 20.3058 1533.41 20.2107 1532.96 20.3913C1532.8 20.458 1532.54 20.2746 1532.33 20.2612C1531.94 20.2368 1531.54 20.2245 1531.15 20.264C1530.86 20.2935 1530.58 20.5779 1530.27 20.3105C1529.94 20.6445 1529.51 20.361 1529.16 20.4777C1528.85 20.5802 1528.57 20.7873 1528.26 20.8925C1527.75 21.0621 1527.23 21.1812 1526.72 21.3326C1526.56 21.3792 1526.4 21.4391 1526.26 21.531C1525.45 22.0858 1524.48 22.2483 1523.59 22.602C1522.63 22.9806 1521.63 23.2475 1520.71 23.7077C1520.06 24.0366 1519.35 24.2401 1518.68 24.511C1517.97 24.7961 1517.29 25.1526 1516.57 25.4061C1515.1 25.9262 1513.74 26.6889 1512.33 27.3545C1510.53 28.2051 1508.73 29.064 1506.94 29.9355C1503.81 31.4608 1500.69 33.0073 1497.55 34.5244C1496.78 34.899 1495.98 35.2606 1495.16 35.4972C1494.76 35.6119 1494.45 35.8627 1494.06 35.9566C1493.47 36.0974 1492.89 36.2587 1492.3 36.3809C1491.83 36.4779 1491.32 36.4416 1490.89 36.6207C1490.14 36.9357 1489.33 36.9468 1488.55 37.1988C1487.74 37.4645 1486.87 37.1136 1486.18 36.5359C1485.88 36.2835 1485.63 35.972 1485.34 35.7058C1484.2 34.6624 1483.93 33.4155 1484.4 31.9639C1484.61 31.3243 1484.86 30.6875 1484.84 29.993C1485.27 29.5967 1484.83 28.9504 1485.25 28.5513C1485.16 27.7607 1485.39 26.9791 1485.1 26.1561C1484.91 25.612 1484.74 24.9783 1484.82 24.3256C1485.03 22.6651 1484.67 21.0152 1484.57 19.3645C1484.5 18.2185 1484.21 17.0509 1483.88 15.9097C1483.66 15.1325 1483.31 14.4152 1483.04 13.6711C1482.73 12.8374 1482.14 12.1012 1481.63 11.3543C1480.55 9.78329 1479.11 8.58884 1477.52 7.56396C1476.37 6.82182 1475.17 6.17196 1473.86 5.75002C1473.32 5.57493 1472.73 5.51815 1472.19 5.36948C1471.59 5.20465 1470.97 5.36317 1470.45 5.16482C1469.89 4.95267 1469.34 4.95148 1468.8 4.99841C1467.78 5.08714 1466.77 5.24724 1465.76 5.41917C1464.77 5.58755 1463.85 5.99805 1462.92 6.35138C1461.69 6.81709 1460.54 7.41057 1459.49 8.20831C1459.33 8.33174 1459.12 8.41415 1459 8.56834C1458.35 9.4063 1457.68 10.2285 1457.1 11.1169C1456.13 12.6229 1455.04 13.6955 1453.69 14.7409C1453.47 14.9101 1453.33 15.1731 1453.15 15.3939C1452.79 15.2689 1452.54 15.1151 1452.29 15.1088C1452 15.1021 1451.77 14.9704 1451.51 14.8943C1451.25 14.8162 1450.92 14.8111 1450.66 14.8947C1450.39 14.9846 1450.23 14.5678 1449.94 14.7937C1449.85 14.8556 1449.6 14.6959 1449.43 14.6376C1449.24 14.5741 1449.03 14.5418 1448.87 14.4392C1448.62 14.2819 1448.52 14.75 1448.24 14.5492C1448.1 14.4428 1447.84 14.4913 1447.65 14.4428C1447.42 14.388 1447.21 14.2811 1446.98 14.2369C1446.66 14.175 1446.38 14.3694 1446.1 14.4132C1445.9 14.4436 1445.66 14.0946 1445.42 14.0327C1445.09 13.9518 1444.76 13.9767 1444.42 13.8359C1444.11 13.7105 1443.58 13.5997 1443.42 14.2156C1443.41 14.2559 1443.1 14.2212 1442.9 14.2212C1443 14.0248 1443.07 13.886 1443.14 13.7409C1442.79 13.5973 1442.52 13.1422 1442.1 13.5449C1441.95 13.3094 1441.82 13.5654 1441.72 13.5535C1441.45 13.5192 1441.34 12.8453 1440.9 13.326C1440.6 13.2038 1440.31 13.0504 1440.01 12.9758C1439.88 12.9455 1439.69 13.1651 1439.57 13.1312C1439.4 13.0819 1439.26 12.7795 1439.05 13.0295C1438.86 13.2617 1438.77 12.9088 1438.68 12.9845C1438.59 13.0579 1438.57 13.2191 1438.52 13.3422C1437.79 13.1107 1437.79 13.1107 1437.62 12.4687C1437.43 12.5571 1437.23 12.6174 1437.08 12.7333C1436.94 12.8347 1436.85 12.9983 1436.76 13.1186C1436.64 12.9234 1436.52 12.7223 1436.4 12.5291C1434.89 12.9273 1434.78 12.8954 1434.24 11.9036H1433.51C1433.46 12.0046 1433.39 12.1477 1433.32 12.313C1433.18 11.7727 1433.18 11.7727 1432.64 11.475C1432.41 11.4135 1432.82 12.0519 1432.33 11.7467C1432.06 11.5815 1431.76 11.5846 1431.45 11.7771C1431.31 11.8638 1431.05 11.8405 1430.88 11.7763C1430.54 11.6481 1430.06 11.6521 1430.12 11.0503C1430.13 10.947 1429.96 10.7593 1429.67 10.9572C1429.39 11.1489 1428.96 11.1225 1428.53 11.2053C1428.59 11.0176 1428.65 10.8366 1428.73 10.6023C1428.13 10.82 1427.63 10.9643 1427.17 10.4659C1427.02 10.3062 1426.81 10.6595 1426.49 10.4651C1426.05 10.1981 1425.46 10.1816 1424.86 10.0404C1424.84 9.93393 1424.81 9.73676 1424.78 9.55339C1424.73 9.52855 1424.7 9.49858 1424.67 9.50213C1424.41 9.53368 1423.41 9.37949 1423.11 9.288C1422.6 9.13145 1422.08 8.99028 1421.57 8.85542C1419.15 8.22487 1416.84 7.27689 1414.45 6.58009C1412.75 6.0852 1411.05 5.57572 1409.33 5.15457C1407.88 4.80045 1406.42 4.43333 1404.98 3.98181C1404.18 3.72944 1403.33 3.64465 1402.5 3.4743C1402.24 3.42028 1401.99 3.31696 1401.73 3.2657C1401.3 3.18012 1400.86 3.11861 1400.42 3.04684C1399.99 2.97507 1399.53 2.95969 1399.12 2.8201C1398.18 2.50581 1397.19 2.54564 1396.25 2.21755C1395.72 2.03339 1395.1 2.19428 1394.52 1.99041C1394.04 1.8244 1393.43 1.95886 1393.02 1.72187C1392.54 1.44741 1392.03 1.60002 1391.54 1.37327C1391.05 1.14771 1390.4 1.337 1389.81 1.13825C1389.59 1.05978 1389.23 1.24748 1388.97 1.38313C1388.6 1.57675 1388.28 1.65128 1387.94 1.33226C1387.78 1.18794 1385.9 0.432388 1385.82 0.502579C1385.42 0.892578 1385.08 0.540041 1384.6 0.394531C1384.66 0.627584 1384.69 0.769151 1384.73 0.908746C1384.76 1.02508 1384.8 1.13943 1384.85 1.32162C1384.36 1.15915 1384.34 0.81726 1384.4 0.43712C1384.19 0.553449 1384.03 0.698565 1383.98 0.667018C1383.74 0.500608 1383.54 0.572771 1383.28 0.655976C1383.1 0.71355 1382.85 0.522296 1382.63 0.471427C1382.49 0.440669 1382.34 0.445795 1382.2 0.470244C1381.99 0.506917 1381.84 0.886663 1381.58 0.561336C1381.35 0.25257 1381.14 0.753378 1381 0.603135C1380.59 0.175674 1380.3 0.670173 1379.96 0.701719C1379.67 0.728534 1379.29 0.782164 1379.21 1.21436C1379.2 1.25695 1378.95 1.31886 1378.87 1.26996C1378.72 1.17571 1378.6 1.00772 1378.42 1.17098C1377.94 1.61737 1377.24 1.67613 1376.78 2.1513C1376.67 2.26605 1376.49 2.39618 1376.35 2.38593C1376.03 2.36267 1375.9 2.59375 1375.75 2.77159C1375.55 3.02476 1375.34 3.24756 1375.08 3.44275C1374.8 3.64781 1374.63 3.91556 1374.2 3.94317C1373.87 3.96407 1373.69 4.44752 1373.29 4.59382C1372.16 5.00827 1371.12 5.64591 1370.14 6.31116C1369.19 6.96024 1368.18 7.55963 1367.31 8.35422C1366.77 8.84556 1366.2 9.31166 1365.67 9.82391C1364.83 10.6457 1364.26 11.6868 1363.5 12.572C1362.46 13.8024 1361.86 15.2523 1361.16 16.6641C1360.53 17.9287 1360.15 19.2631 1359.83 20.6378C1359.63 21.4813 1359.66 22.3887 1359.22 23.1765C1359.21 23.2041 1359.22 23.2483 1359.22 23.283C1359.38 24.134 1358.97 24.9325 1359 25.7752C1359.03 26.5986 1358.99 27.4247 1359.02 28.2481C1359.03 28.5789 1359.17 28.9031 1359.22 29.2355C1359.26 29.5392 1359.23 29.8254 1359.41 30.1295C1359.55 30.3586 1359.47 30.7064 1359.62 31.0069C1359.71 31.1843 1359.49 31.5033 1359.44 31.7644C1359.39 32.0534 1359.41 32.3251 1359.81 32.3453C1359.89 32.9253 1360.37 33.382 1360.45 33.8966C1360.61 34.9096 1361.41 35.5879 1361.63 36.5363C1362.12 36.8222 1362 37.4689 1362.45 37.8265C1362.8 38.1061 1362.96 38.6113 1363.23 38.9898C1363.54 39.4078 1363.89 39.7955 1364.22 40.1985C1364.28 40.2765 1364.39 40.3803 1364.38 40.4481C1364.23 41.0692 1364.72 41.333 1365.06 41.6772C1365.61 42.2423 1366.15 42.8173 1366.73 43.3472C1367.73 44.2519 1368.74 45.136 1369.87 45.8753C1370.62 46.3612 1371.23 47.0812 1372 47.5067C1372.86 47.9803 1373.64 48.5639 1374.47 49.0738C1375.52 49.7201 1376.61 50.3037 1377.68 50.9055C1378.82 51.54 1380 52.0909 1381.12 52.7356C1381.79 53.1181 1382.41 53.6225 1383.11 53.8989C1384.09 54.2806 1384.92 54.9017 1385.83 55.3915C1386.95 55.9991 1387.98 56.7847 1389.04 57.4972C1389.96 58.11 1390.68 58.9448 1391.47 59.6976C1391.79 60.0056 1392.07 60.3447 1392.5 60.5652C1392.88 60.76 1393.16 61.1586 1393.36 61.5861C1393.76 62.4276 1394.16 63.2683 1394.41 64.1635C1394.51 64.5259 1394.45 64.9305 1394.51 65.3082C1394.55 65.5965 1394.25 66.0567 1394.86 66.1257C1394.9 66.13 1394.92 66.3769 1394.93 66.5114C1394.93 67.2638 1394.92 68.0169 1394.93 68.7693C1394.94 69.2579 1394.55 69.6787 1394.71 70.1858C1394.27 70.6176 1394.6 71.2312 1394.32 71.7482C1394.07 72.1981 1394.18 72.8255 1394.06 73.3578C1393.9 74.0381 1393.54 74.695 1393.51 75.3749C1393.47 76.1833 1393.04 76.8477 1392.91 77.6214C1392.8 78.3273 1392.32 78.9752 1392.21 79.6814C1392.06 80.6199 1391.75 81.5001 1391.5 82.4035C1391.47 82.497 1391.61 82.6358 1391.68 82.7714C1391.58 82.8065 1391.46 82.8495 1391.3 82.9031C1391.27 83.5664 1391.14 84.2218 1390.89 84.8598C1390.79 85.1087 1390.88 85.4222 1390.83 85.6994C1390.79 85.9612 1390.66 86.2108 1390.64 86.4727C1390.6 86.7795 1390.61 87.0681 1390.43 87.3603C1390.28 87.6048 1390.22 87.9345 1390.21 88.2295C1390.2 88.5497 1390.15 88.8391 1389.98 89.1072C1389.82 89.3588 1390.39 89.6301 1389.94 89.8857C1389.62 90.0651 1389.89 90.4559 1389.75 90.6582C1389.42 91.1408 1389.54 91.7099 1389.37 92.2241C1389.27 92.5549 1389.19 92.941 1389.13 93.3065C1389.07 93.6666 1389.22 94.0637 1388.94 94.3858C1389.29 94.57 1388.91 94.706 1388.9 94.8657C1388.89 95.029 1388.8 95.1852 1388.78 95.3488C1388.75 95.5405 1388.76 95.7368 1388.76 95.9304C1388.77 96.007 1388.84 96.132 1388.82 96.1517C1388.25 96.6012 1388.55 97.3205 1388.28 97.8718C1388.16 98.1245 1388.16 98.4542 1388.08 98.7511C1387.96 99.1632 1387.72 99.571 1387.81 100.053C1387.85 100.255 1387.74 100.531 1387.6 100.705C1387.37 101.019 1387.39 101.358 1387.41 101.7C1387.43 102.216 1387.34 102.192 1387.22 102.749C1387.1 103.278 1386.78 103.752 1386.77 104.284C1386.77 104.767 1386.18 105.238 1386.72 105.741C1386.72 105.746 1386.56 105.932 1386.47 106.033C1386.25 106.294 1386.28 106.627 1386.2 106.926C1386.09 107.308 1386.08 107.625 1386.3 107.961C1386.17 107.99 1386.08 108.012 1385.98 108.035C1385.95 108.06 1385.91 108.083 1385.91 108.111C1385.83 108.725 1385.76 109.34 1385.68 109.953C1385.6 110.497 1385.87 111.072 1385.48 111.594C1385.35 111.765 1385.82 112.011 1385.48 112.29C1385.41 112.351 1385.57 112.695 1385.62 112.909C1385.5 112.951 1385.37 112.995 1385.25 113.036C1385.29 113.653 1385.96 114.158 1385.5 114.82C1385.83 114.956 1386.37 114.858 1386.32 115.535C1386.12 115.44 1385.99 115.372 1385.86 115.31C1385.79 115.365 1385.68 115.407 1385.69 115.444C1385.7 115.684 1385.73 115.923 1385.76 116.162C1385.77 116.239 1385.81 116.377 1385.79 116.382C1385.24 116.566 1385.82 117.06 1385.5 117.395C1385.2 117.7 1385.59 118.187 1385.71 118.555C1385.82 118.893 1385.86 119.212 1385.9 119.552C1385.95 120.027 1385.92 120.563 1386.14 120.951C1386.37 121.361 1386.19 121.788 1386.38 122.146C1386.58 122.508 1386.82 122.84 1386.75 123.283C1387.26 123.86 1387.22 124.673 1387.62 125.287C1387.7 125.407 1387.89 125.454 1388.04 125.54V126.602C1388.32 126.77 1388.71 126.835 1388.71 127.278C1389.23 127.558 1388.55 127.874 1388.74 128.196C1388.83 128.204 1388.96 128.257 1389.02 128.212C1389.15 128.095 1389.23 127.979 1389.41 128.183C1389.54 128.326 1389.46 128.366 1389.41 128.5C1389.28 128.852 1389.57 129.345 1389.63 129.28C1390.03 128.874 1390.07 129.4 1390.26 129.491C1390.33 129.527 1390.42 129.672 1390.4 129.743C1390.23 130.409 1390.78 130.574 1391.17 130.805C1392.29 131.465 1392.3 131.453 1393.21 131.487C1393.21 131.69 1393.24 131.901 1393.2 132.101C1393.15 132.401 1393.3 132.595 1393.52 132.723C1394.17 133.12 1394.83 133.532 1395.52 133.858C1396.18 134.167 1396.86 134.51 1397.57 134.599C1398.62 134.732 1399.6 135.199 1400.7 135.128C1401.73 135.061 1402.78 135.103 1403.82 135.116C1404.92 135.13 1405.96 134.796 1407.02 134.547C1407.74 134.378 1408.42 134.155 1409.1 133.844C1409.52 133.651 1410 133.523 1410.51 133.603C1411.18 133.711 1411.78 133.437 1412.37 133.176C1413.99 132.461 1415.2 131.577 1416.57 130.586C1417.27 130.081 1417.99 129.625 1418.6 128.988C1419.59 127.938 1420.28 126.782 1420.97 125.128C1421.33 124.272 1421.82 123.458 1422.33 122.681C1423.32 121.173 1423.95 119.727 1424.86 117.817C1425.63 116.224 1426.19 114.56 1426.84 112.932C1427.18 112.076 1427.56 111.224 1427.86 110.341C1428.15 109.463 1428.45 108.591 1428.97 107.786C1429.28 107.306 1429.47 106.698 1429.79 106.197C1430.37 105.262 1430.8 104.253 1431.27 103.262C1431.84 102.064 1432.47 100.883 1432.96 99.6597C1433.4 98.5682 1434.09 97.6293 1434.53 96.5432C1434.96 95.4683 1435.55 94.4564 1436.08 93.4248C1436.59 92.4386 1437.27 91.6101 1438.33 91.1629C1438.97 90.8944 1439.54 90.5044 1439.98 89.9401V89.9401Z" fill="#FDBC64"/>
</g>
<defs>
<clipPath id="clip0_3625_42816">
<rect width="1440" height="494" fill="white"/>
</clipPath>
</defs>
</svg>
