<svg width="1440" height="693" viewBox="0 0 1440 693" fill="none" xmlns="http://www.w3.org/2000/svg">
<g clip-path="url(#clip0_3625_42314)">
<path d="M1440 3C1440 3 1440 3 720 3C0 3.00001 0 3 0 3C0 242.719 0 335.576 0 575.295C0 575.295 205 644.381 753.5 575.295C1302 506.209 1440 597.37 1440 597.37V3Z" fill="#003E61"/>
<path d="M1440 4.28384e-06C1440 4.28384e-06 1440 -2.68691e-06 720 1.15572e-06C0 4.99835e-06 0 4.28384e-06 0 4.28384e-06C0 220.52 0 305.94 0 526.46C0 526.46 158 664.454 584.5 559.787C1011 455.12 1440 585.791 1440 585.791V4.28384e-06Z" fill="#002A42"/>
<path d="M449.593 63.9138C452.232 65.0199 454.876 66.1259 457.516 67.232C457.889 67.3883 457.73 68.2118 457.353 68.0495C454.713 66.9434 452.069 65.8374 449.43 64.7313C449.061 64.581 449.219 63.7575 449.593 63.9138Z" fill="#646464"/>
<path d="M457.589 67.1367C463.86 64.1557 470.135 61.1747 476.405 58.1936C476.74 58.0374 476.925 58.7225 476.637 58.9689C471.624 63.2482 466.615 67.5334 461.602 71.8126C461.267 72.1011 460.963 71.3619 461.297 71.0794C466.311 66.8002 471.319 62.5149 476.332 58.2357C476.41 58.4941 476.487 58.7526 476.564 59.011C470.293 61.9921 464.019 64.9731 457.748 67.9541C457.379 68.1344 457.22 67.311 457.589 67.1367Z" fill="#646464"/>
<path d="M449.221 62.7337C460.286 59.5303 471.393 56.6213 482.535 54.0069C482.917 53.9168 483.08 54.7342 482.698 54.8243C471.556 57.4387 460.449 60.3476 449.384 63.5511C448.998 63.6592 448.835 62.8419 449.221 62.7337Z" fill="#646464"/>
<path d="M461.414 71.3963C464.475 71.6728 467.526 72.0876 470.569 72.6406C470.951 72.7127 470.956 73.5603 470.569 73.4882C467.526 72.9351 464.479 72.5204 461.414 72.2438C461.028 72.2078 461.024 71.3602 461.414 71.3963Z" fill="#646464"/>
<path d="M483.505 54.8936C479.161 61.7392 474.564 68.2361 469.71 74.3785C469.423 74.7451 468.989 74.1441 469.281 73.7775C474.135 67.6411 478.732 61.1441 483.075 54.2926C483.333 53.8839 483.762 54.4849 483.505 54.8936Z" fill="#646464"/>
<path d="M457.1 68.3531C457.091 72.3018 456.932 76.2324 456.61 80.1571C456.567 80.692 455.958 80.698 456.005 80.1571C456.323 76.2324 456.486 72.3018 456.494 68.3531C456.494 67.8062 457.1 67.8062 457.1 68.3531Z" fill="#646464"/>
<path d="M461.323 71.6584C459.838 74.6334 458.357 77.6144 456.872 80.5895C456.649 81.0342 456.125 80.6135 456.349 80.1627C457.834 77.1877 459.314 74.2067 460.799 71.2316C461.018 70.7869 461.546 71.2076 461.323 71.6584Z" fill="#646464"/>
<path d="M456.576 80.0631C459.25 77.1662 462.001 74.4256 464.834 71.8472C465.165 71.5467 465.465 72.286 465.139 72.5805C462.349 75.1228 459.636 77.8153 457.001 80.6641C456.696 80.9947 456.267 80.3997 456.576 80.0631Z" fill="#646464"/>
<path d="M366.063 131.319C374.015 136.902 384.045 139.085 392.499 138.365C400.954 137.644 408.014 134.308 414.028 130.188C416.203 128.695 418.294 127.083 420.936 126.112C425.831 124.31 432.206 124.909 438.321 126.5C442.938 127.702 448.739 130.77 448.848 134.562C448.922 137.21 445.719 138.545 442.502 137.927C439.287 137.306 436.22 135.229 433.701 132.976C426.637 126.66 422.582 118.508 421.161 110.887C419.742 103.262 420.719 96.0523 422.243 89.1578C423.269 84.5078 424.569 79.8889 427.399 76.1789C430.229 72.4688 434.775 69.7172 440.579 69.6144C441.711 69.595 443.026 69.7273 444.021 70.5026C444.825 71.127 445.206 72.0006 445.537 72.8156C446.75 75.7771 447.967 78.7453 449.181 81.7068" stroke="#646464" stroke-width="0.6438" stroke-miterlimit="10" stroke-linecap="round" stroke-dasharray="4.18 4.18"/>
<path d="M423.068 69.7568C422.613 70.971 422.163 72.1793 421.708 73.3935C421.527 73.8804 421.004 73.4476 421.184 72.9667C421.639 71.7525 422.09 70.5442 422.545 69.33C422.725 68.8431 423.249 69.2759 423.068 69.7568Z" fill="#646464"/>
<path d="M420.769 70.0435C420.146 72.0393 419.524 74.029 418.902 76.0247C418.747 76.5236 418.224 76.0908 418.378 75.5979C419 73.6022 419.623 71.6125 420.245 69.6168C420.4 69.1118 420.923 69.5446 420.769 70.0435Z" fill="#646464"/>
<path d="M417.215 72.9474C416.627 74.7448 416.043 76.5482 415.455 78.3455C415.292 78.8444 414.769 78.4116 414.932 77.9187C415.52 76.1213 416.103 74.318 416.691 72.5206C416.854 72.0217 417.378 72.4545 417.215 72.9474Z" fill="#646464"/>
<path d="M414.446 74.455C413.806 77.1536 413.119 79.8281 412.39 82.4785C412.252 82.9834 411.664 82.7671 411.806 82.2502C412.536 79.5997 413.222 76.9252 413.862 74.2266C413.982 73.7097 414.57 73.9321 414.446 74.455Z" fill="#646464"/>
<path d="M412.194 76.6573C411.601 79.1816 411.013 81.7059 410.421 84.2301C410.301 84.747 409.713 84.5246 409.837 84.0018C410.43 81.4775 411.018 78.9532 411.61 76.429C411.73 75.9181 412.318 76.1405 412.194 76.6573Z" fill="#646464"/>
<path d="M410.093 76.9366C409.823 78.235 409.647 79.5514 409.574 80.904C409.544 81.445 408.939 81.451 408.969 80.904C409.046 79.4793 409.226 78.0847 409.51 76.7142C409.617 76.1912 410.205 76.4136 410.093 76.9366Z" fill="#646464"/>
<path d="M806.199 254.35C806.44 254.224 806.73 254.235 806.96 254.381L826.041 266.468C826.271 266.614 826.406 266.871 826.395 267.143C826.384 267.415 826.228 267.661 825.987 267.787L805.978 278.268C805.737 278.394 805.447 278.382 805.217 278.237C804.987 278.091 804.853 277.834 804.864 277.562L805.791 254.993L805.802 254.893C805.842 254.662 805.988 254.46 806.199 254.35Z" stroke="#003E61" stroke-width="1.52342" stroke-linejoin="round"/>
<rect x="816.032" y="278.962" width="23.4759" height="15.4253" transform="rotate(-28.7902 816.032 278.962)" stroke="#003E61" stroke-width="1.52342" stroke-linejoin="round"/>
<circle cx="829.991" cy="254.463" r="7.70172" stroke="#003E61" stroke-width="1.52342"/>
<path d="M-5.2091 129.066C-1.71361 125.368 8.09669 117.72 19.374 116.714L36.7035 149.886C36.627 149.912 36.5491 149.938 36.47 149.964M-5.2091 129.066L9.77575 161.901M-5.2091 129.066C-6.21073 129.97 -8.15547 132.145 -7.92136 133.615L6.88184 165.856M9.77575 161.901C8.02834 162.97 7.11839 164.983 6.88184 165.856M9.77575 161.901C17.3791 156.959 30.5821 151.939 36.47 149.964M6.88184 165.856L34.6935 154.02C34.8243 153.2 35.3628 151.24 36.47 149.964" stroke="#E8E8E8" stroke-width="0.923584"/>
<path d="M3.53386 133.763L3.66156 134.052L2.75414 134.452L2.62644 134.163L3.53386 133.763ZM2.07965 132.597L2.87422 134.4L2.50283 134.563L1.70826 132.761L2.07965 132.597ZM3.77907 131.848L4.57364 133.65L4.20349 133.814L3.40892 132.011L3.77907 131.848ZM5.19995 131.222L5.99452 133.024L5.62437 133.187L4.8298 131.385L5.19995 131.222ZM5.75456 130.977L5.8828 131.268L4.41211 131.916L4.28386 131.625L5.75456 130.977ZM8.14685 131.729L8.27455 132.019L7.31513 132.442L7.18743 132.152L8.14685 131.729ZM6.64188 130.586L7.43645 132.388L7.06506 132.552L6.27049 130.75L6.64188 130.586ZM7.67856 131.006L7.80298 131.288L6.9686 131.656L6.84417 131.374L7.67856 131.006ZM7.47874 130.217L7.60699 130.508L6.64881 130.93L6.52056 130.639L7.47874 130.217ZM8.00086 129.987L8.67308 129.691C8.8109 129.63 8.93843 129.598 9.05566 129.596C9.17371 129.593 9.27739 129.62 9.36669 129.678C9.45598 129.735 9.52665 129.822 9.57867 129.94C9.62124 130.037 9.64129 130.127 9.63884 130.211C9.63685 130.294 9.61633 130.371 9.57728 130.444C9.5387 130.515 9.48579 130.582 9.41857 130.644L9.32825 130.758L8.74393 131.015L8.61376 130.727L9.04828 130.535C9.11348 130.506 9.16244 130.471 9.19517 130.429C9.2279 130.387 9.2459 130.34 9.24917 130.29C9.25326 130.239 9.2433 130.186 9.21929 130.131C9.19382 130.074 9.16108 130.028 9.12107 129.996C9.08106 129.963 9.03427 129.945 8.9807 129.942C8.92714 129.939 8.86735 129.952 8.80132 129.981L8.5005 130.114L9.16682 131.626L8.79543 131.789L8.00086 129.987ZM9.80313 131.345L9.03796 130.723L9.4293 130.547L10.1929 131.153L10.2005 131.17L9.80313 131.345ZM10.7981 129.122L10.9665 130.832L10.5716 131.006L10.4468 128.909L10.6981 128.798L10.7981 129.122ZM11.864 130.437L10.7139 129.159L10.5384 128.868L10.7922 128.756L12.2602 130.262L11.864 130.437ZM11.546 129.776L11.6742 130.066L10.7222 130.486L10.594 130.195L11.546 129.776ZM12.5894 127.964L13.384 129.767L13.0138 129.93L12.2192 128.127L12.5894 127.964ZM13.144 127.72L13.2722 128.011L11.8015 128.659L11.6733 128.368L13.144 127.72ZM14.6553 127.054L15.0254 126.89L15.5504 128.081C15.6115 128.22 15.6333 128.35 15.6157 128.471C15.5989 128.592 15.5491 128.699 15.4662 128.793C15.3842 128.886 15.2759 128.962 15.1413 129.022C15.0068 129.081 14.8766 129.11 14.7507 129.108C14.6256 129.106 14.5124 129.071 14.4112 129.002C14.3107 128.933 14.2299 128.829 14.1688 128.69L13.6438 127.499L14.0152 127.336L14.5402 128.527C14.5759 128.607 14.6178 128.668 14.6659 128.708C14.714 128.748 14.7673 128.769 14.8257 128.772C14.885 128.774 14.9476 128.761 15.0136 128.732C15.0813 128.702 15.1334 128.665 15.1699 128.62C15.2072 128.575 15.227 128.521 15.2292 128.459C15.2322 128.397 15.2159 128.325 15.1802 128.244L14.6553 127.054ZM15.6354 126.621L16.3076 126.325C16.4455 126.264 16.573 126.233 16.6902 126.23C16.8083 126.228 16.9119 126.255 17.0012 126.312C17.0905 126.369 17.1612 126.457 17.2132 126.575C17.2558 126.672 17.2758 126.762 17.2734 126.846C17.2714 126.928 17.2509 127.006 17.2118 127.078C17.1733 127.15 17.1203 127.216 17.0531 127.278L16.9628 127.392L16.3785 127.65L16.2483 127.361L16.6828 127.17C16.748 127.141 16.797 127.105 16.8297 127.063C16.8625 127.021 16.8805 126.975 16.8837 126.924C16.8878 126.873 16.8779 126.82 16.8538 126.766C16.8284 126.708 16.7956 126.663 16.7556 126.63C16.7156 126.598 16.6688 126.58 16.6153 126.577C16.5617 126.574 16.5019 126.587 16.4359 126.616L16.1351 126.749L16.8014 128.26L16.43 128.424L15.6354 126.621ZM17.4377 127.98L16.6725 127.357L17.0639 127.182L17.8274 127.787L17.8351 127.805L17.4377 127.98ZM19.4402 126.751L19.5679 127.041L18.6085 127.464L18.4808 127.174L19.4402 126.751ZM17.9353 125.608L18.7298 127.41L18.3584 127.574L17.5639 125.771L17.9353 125.608ZM18.9719 126.027L19.0964 126.31L18.262 126.677L18.1375 126.395L18.9719 126.027ZM18.7721 125.239L18.9004 125.53L17.9422 125.952L17.8139 125.661L18.7721 125.239Z" fill="#E8E8E8"/>
<path d="M1328.16 467.293C1335.66 463.486 1353.19 455.775 1363.4 455.382M1328.16 467.293C1327.93 468.458 1330.45 479.315 1331.74 484.598C1332.17 485.705 1358.85 477.184 1372.14 472.784C1372.9 470.441 1366.63 460.207 1363.4 455.382M1328.16 467.293C1327.37 477.852 1328.12 502.099 1337.51 514.616L1342.68 516.661C1353.17 514.923 1374.84 510.493 1377.68 506.673C1379.3 501.899 1380.73 488.339 1373.42 472.295L1363.4 455.382M1348.72 502.142C1348.68 504.597 1349.03 509.835 1350.7 511.147C1358.05 510.366 1372.52 507.673 1371.57 503.154L1369.12 496.767C1364.64 496.857 1354.28 498.057 1348.72 502.142Z" stroke="white" stroke-opacity="0.75" stroke-width="0.683933"/>
<path d="M1342.54 491.444L1339.45 478.591C1340.37 477.165 1342.89 476.828 1344.03 476.838C1344.58 478.286 1345.93 486.484 1346.54 490.402C1346.73 491.404 1343.95 491.514 1342.54 491.444Z" fill="white" fill-opacity="0.75" stroke="white" stroke-opacity="0.75" stroke-width="0.683933"/>
<path d="M1362.01 484.868L1357.32 472.509C1358.05 470.978 1360.51 470.326 1361.64 470.191C1362.38 471.557 1364.75 479.52 1365.85 483.33C1366.16 484.3 1363.42 484.76 1362.01 484.868Z" fill="white" fill-opacity="0.75" stroke="white" stroke-opacity="0.75" stroke-width="0.683934"/>
<path d="M1330.36 518.576C1325.19 518.479 1313.15 511.253 1328.22 467.759L1327.95 480.436C1327.88 489.82 1328.03 509.312 1329.14 512.207C1330.25 515.103 1333.96 513.209 1335.72 511.88L1337.46 514.51L1339.5 515.683C1338.29 516.554 1334.49 518.654 1330.36 518.576Z" stroke="white" stroke-opacity="0.75" stroke-width="0.683933"/>
<path d="M1416.69 49.8257C1360.78 64.4598 1391.2 128.125 1429.3 121.646C1492.72 110.864 1463.48 37.5815 1416.69 49.8257Z" stroke="white" stroke-opacity="0.78" stroke-width="1.462"/>
<path d="M1434.06 126.927C1493.07 112.887 1479.73 34.2841 1415.96 43.796L1417.06 49.4612M1434.06 126.927C1435.09 133.939 1437.38 148.219 1438.26 149.242C1439.35 150.522 1444.84 150.704 1447.94 152.166C1450.43 153.336 1448.98 155.821 1447.94 156.918L1427.11 159.842C1426.38 160.268 1424.81 160.28 1424.37 156.918C1423.82 152.715 1431.5 151.984 1432.04 149.242C1432.48 147.049 1428.94 134.318 1427.11 128.226C1428.38 128.05 1429.61 127.846 1430.82 127.617M1434.06 126.927C1433 127.178 1431.92 127.408 1430.82 127.617M1429.85 121.647L1430.82 127.617" stroke="white" stroke-opacity="0.78" stroke-width="1.462"/>
<path d="M1424 74.864C1421.52 73.2558 1416.39 74.1939 1414.14 74.864L1411.21 75.595L1410.3 77.9707C1409.69 78.6408 1408.29 79.981 1407.56 79.981C1406.83 79.981 1406.16 82.2958 1405.91 83.4532L1408.47 86.0117C1409.08 87.1082 1410.63 89.0088 1411.94 87.8392C1413.59 86.3772 1415.23 87.4737 1416.69 87.8392C1418.16 88.2047 1418.52 90.946 1418.52 92.0425C1418.52 92.9196 1419.98 93.8699 1420.71 94.2354V97.5249L1422.91 99.9007L1424 103.19C1424.86 103.799 1426.56 104.835 1426.56 104.104C1426.56 103.19 1427.11 102.825 1427.84 103.19C1428.43 103.483 1429.79 101.119 1430.4 99.9007V95.1492V89.3012C1430.4 87.2544 1432.47 85.1589 1433.51 84.367C1434.06 83.2705 1434.82 80.8582 1433.51 79.981C1431.86 78.8845 1433.51 78.3362 1433.51 76.6915V73.9503L1430.4 74.864C1429.3 75.5341 1426.49 76.4722 1424 74.864Z" stroke="white" stroke-opacity="0.78" stroke-width="0.730998"/>
<path d="M1445.2 69.5636C1444.18 69.125 1442.95 70.9647 1442.46 71.9394C1441.79 73.4623 1440.27 76.5446 1439.54 76.6908C1438.63 76.8736 1440.82 81.0768 1442.46 81.2596C1444.11 81.4423 1445.2 86.3766 1446.67 87.4731C1448.13 88.5696 1448.86 89.3005 1450.69 89.666C1452.51 90.0315 1452.88 86.0111 1452.88 84.3663C1452.88 82.7216 1455.99 81.0768 1456.9 79.7976C1457.81 78.5183 1456.72 74.3151 1455.99 74.3151C1455.26 74.3151 1454.34 74.3151 1452.88 71.9394C1451.42 69.5636 1448.49 71.9394 1447.58 71.9394C1446.67 71.9394 1446.48 70.1119 1445.2 69.5636Z" stroke="white" stroke-opacity="0.78" stroke-width="0.730998"/>
<path d="M1413.77 71.9394L1409.57 69.5636H1407.01L1406.1 66.6396C1406.46 65.4822 1407.48 63.3867 1408.65 64.2639C1410.12 65.3604 1410.3 60.9744 1409.57 59.8779C1408.98 59.0007 1409.32 57.4412 1409.57 56.7711H1412.67C1413.41 56.0401 1415.2 54.3223 1416.51 53.2989C1417.83 52.2755 1422.91 52.8725 1425.28 53.2989C1427.62 52.2755 1429.67 53.7253 1430.4 54.5781L1432.78 56.7711C1436.87 56.3325 1437.89 58.6596 1437.89 59.8779L1439.54 61.7054C1439.54 62.3145 1439.03 63.4598 1436.98 63.1674C1434.93 62.875 1433.33 64.6294 1432.78 65.5431V67.5534H1430.4C1429.79 68.2234 1428.17 69.3809 1426.56 68.6499C1424.55 67.7361 1419.25 69.5636 1417.97 69.5636C1416.95 69.5636 1414.75 71.1474 1413.77 71.9394Z" stroke="white" stroke-opacity="0.78" stroke-width="0.730998"/>
<path d="M1398.24 61.5224C1396.92 61.23 1395.74 63.7154 1395.31 64.9946L1393.67 67.9186C1393.12 68.345 1391.73 69.673 1390.56 71.5736C1389.1 73.9494 1392.21 77.0561 1392.02 75.9596C1391.88 75.0824 1394.16 74.3758 1395.31 74.1321L1398.24 72.4874C1398.73 71.6955 1399.63 69.9289 1399.33 69.1979C1399.04 68.4669 1401.04 68.0405 1402.08 67.9186C1402.68 66.944 1403.83 64.9946 1403.54 64.9946C1403.25 64.9946 1404.51 62.6798 1405.18 61.5224L1407.74 59.6949V56.0399H1405.18L1402.08 57.5019L1400.8 59.6949C1400.49 60.4259 1399.55 61.8148 1398.24 61.5224Z" stroke="white" stroke-opacity="0.78" stroke-width="0.730998"/>
<path d="M1398.24 87.6556C1397.36 86.0474 1393.73 85.0362 1392.02 84.7316L1390.56 87.6556L1392.76 92.0416C1393.06 94.0518 1393.67 98.5109 1393.67 100.265C1393.67 102.02 1395.37 104.042 1396.23 104.834L1398.24 103.738C1398.6 102.397 1399.33 99.3881 1399.33 98.0723C1399.33 96.4275 1402.08 95.1483 1403.54 92.4071C1404.71 90.2141 1403.05 88.3257 1402.08 87.6556C1401.16 88.3257 1399.12 89.2638 1398.24 87.6556Z" stroke="white" stroke-opacity="0.78" stroke-width="0.730998"/>
</g>
<defs>
<clipPath id="clip0_3625_42314">
<rect width="1440" height="693" fill="white"/>
</clipPath>
</defs>
</svg>
