<svg width="1522" height="799" viewBox="0 0 1522 799" fill="none" xmlns="http://www.w3.org/2000/svg">
<path d="M1395.17 1.94166C1437.4 -9.84413 1479.64 34.0874 1521.88 78.0715H1522V720.929H1521.88C1479.64 764.913 1437.4 808.845 1395.17 797.059C1357.47 786.54 1319.78 731.644 1282.08 722.11L1260.27 722.228C1220.68 733.065 1181.09 797.855 1141.5 797.059C1104.06 796.31 1066.62 736.92 1029.19 723.486L1000.13 723.644C962.697 737.472 925.266 797.111 887.834 797.059C851.461 797.011 815.089 740.605 778.716 724.849L742.84 725.044C706.615 741.065 670.391 797.012 634.166 797.059C598.719 797.109 563.273 743.63 527.826 726.215L485.942 726.443C450.795 743.967 415.647 796.356 380.5 797.059C345.256 797.768 310.012 746.504 274.769 727.592L225.353 727.862C192.513 745.052 159.674 787.895 126.834 797.059C84.596 808.845 42.3581 764.913 0.120117 720.929H0V78.0715H0.120117C37.4037 39.2467 74.6871 0.462558 111.971 0.00416101C112.631 -0.00395948 113.292 -0.000267182 113.952 0.0158798C118.246 0.120855 122.54 0.743507 126.834 1.94166C159.533 11.0661 192.232 53.584 224.931 70.9182C225.071 70.9926 225.212 71.0645 225.353 71.138L274.771 71.4075C275.002 71.2833 275.234 71.1595 275.466 71.0325C309.817 52.1881 344.168 3.13537 378.519 1.95631C379.179 1.93364 379.84 1.92838 380.5 1.94166C415.511 2.64193 450.523 54.6303 485.534 72.3538C485.67 72.4225 485.807 72.4892 485.942 72.5569L527.826 72.7844C527.931 72.7328 528.038 72.6834 528.143 72.6311C563.153 55.2191 598.163 2.88284 633.175 1.95436C633.505 1.9456 633.836 1.9412 634.166 1.94166C634.496 1.94209 634.826 1.94764 635.156 1.95729C670.828 2.99921 706.501 57.4023 742.173 73.6575C742.395 73.7587 742.618 73.8571 742.84 73.9553L778.716 74.1506C778.756 74.1334 778.796 74.1172 778.836 74.0999C815.169 58.2716 851.501 1.98899 887.834 1.94166C925.158 1.8892 962.48 61.1845 999.803 75.2366C999.911 75.2774 1000.02 75.3157 1000.13 75.3557L1029.19 75.5139C1029.3 75.473 1029.42 75.4346 1029.53 75.3928C1066.85 61.7214 1104.18 2.68817 1141.5 1.94166C1142.16 1.92838 1142.82 1.93364 1143.48 1.95631C1182.13 3.2828 1220.77 65.1993 1259.42 76.5305C1259.7 76.6142 1259.99 76.6936 1260.27 76.7717L1282.08 76.8899C1282.12 76.8792 1282.16 76.8704 1282.21 76.8596C1319.86 67.235 1357.51 12.4485 1395.17 1.94166Z" fill="#FCF4FF"/>
<g filter="url(#filter0_d_3625_42770)">
<path d="M384 246C384 239.373 389.373 234 396 234H716C722.627 234 728 239.373 728 246V388C728 394.628 722.627 400 716 400H396C389.373 400 384 394.628 384 388V246Z" fill="white"/>
<path d="M396 235H716C722.075 235 727 239.925 727 246V388C727 394.075 722.075 399 716 399H396C389.925 399 385 394.075 385 388V246C385 239.925 389.925 235 396 235Z" stroke="#F5E7FF" stroke-width="2"/>
</g>
<g filter="url(#filter1_d_3625_42770)">
<path d="M798 246C798 239.373 803.373 234 810 234H1130C1136.63 234 1142 239.373 1142 246V388C1142 394.628 1136.63 400 1130 400H810C803.373 400 798 394.628 798 388V246Z" fill="white"/>
<path d="M810 235H1130C1136.08 235 1141 239.925 1141 246V388C1141 394.075 1136.08 399 1130 399H810C803.925 399 799 394.075 799 388V246C799 239.925 803.925 235 810 235Z" stroke="#F5E7FF" stroke-width="2"/>
</g>
<g filter="url(#filter2_d_3625_42770)">
<path d="M384 472C384 465.373 389.373 460 396 460H716C722.627 460 728 465.373 728 472V614C728 620.628 722.627 626 716 626H396C389.373 626 384 620.628 384 614V472Z" fill="white"/>
<path d="M396 461H716C722.075 461 727 465.925 727 472V614C727 620.075 722.075 625 716 625H396C389.925 625 385 620.075 385 614V472C385 465.925 389.925 461 396 461Z" stroke="#F5E7FF" stroke-width="2"/>
</g>
<g filter="url(#filter3_d_3625_42770)">
<path d="M798 472C798 465.373 803.373 460 810 460H1130C1136.63 460 1142 465.373 1142 472V614C1142 620.628 1136.63 626 1130 626H810C803.373 626 798 620.628 798 614V472Z" fill="white"/>
<path d="M810 461H1130C1136.08 461 1141 465.925 1141 472V614C1141 620.075 1136.08 625 1130 625H810C803.925 625 799 620.075 799 614V472C799 465.925 803.925 461 810 461Z" stroke="#F5E7FF" stroke-width="2"/>
</g>
<path opacity="0.85" fill-rule="evenodd" clip-rule="evenodd" d="M1294.88 256.276C1285.57 256.276 1278 248.709 1278 239.408C1278 230.118 1285.57 222.551 1294.88 222.551C1300.01 222.551 1304.81 224.851 1308.03 228.869L1311.76 233.536L1312.32 227.595C1313.99 209.574 1328.91 196 1347.01 196C1361.03 196 1373.63 204.324 1379.11 217.221L1380.29 219.992L1382.74 218.218C1386.34 215.636 1390.58 214.268 1394.98 214.268C1406.57 214.268 1416 223.683 1416 235.277C1416 246.86 1406.57 256.276 1394.98 256.276H1294.88Z" fill="#E4E3FF"/>
<path opacity="0.85" fill-rule="evenodd" clip-rule="evenodd" d="M153.365 494.995C143.788 494.995 136 487.212 136 477.645C136 468.091 143.788 460.308 153.365 460.308C158.639 460.308 163.57 462.674 166.884 466.806L170.72 471.607L171.294 465.495C173.013 446.961 188.358 433 206.98 433C221.393 433 234.356 441.561 239.993 454.826L241.207 457.676L243.726 455.851C247.427 453.195 251.787 451.789 256.317 451.789C268.239 451.789 277.935 461.473 277.935 473.397C277.935 485.31 268.239 494.995 256.317 494.995H153.365Z" fill="#E4E3FF"/>
<path opacity="0.85" fill-rule="evenodd" clip-rule="evenodd" d="M1325.27 263.087C1320.71 263.087 1317 259.373 1317 254.807C1317 250.247 1320.71 246.533 1325.27 246.533C1327.79 246.533 1330.14 247.662 1331.72 249.634L1333.54 251.925L1333.82 249.009C1334.64 240.163 1341.95 233.5 1350.82 233.5C1357.69 233.5 1363.86 237.586 1366.55 243.917L1367.13 245.277L1368.33 244.406C1370.09 243.138 1372.17 242.467 1374.33 242.467C1380.01 242.467 1384.63 247.089 1384.63 252.78C1384.63 258.465 1380.01 263.087 1374.33 263.087H1325.27Z" fill="#CBC7FF"/>
<path opacity="0.85" fill-rule="evenodd" clip-rule="evenodd" d="M184.621 502C179.928 502 176.111 498.18 176.111 493.484C176.111 488.794 179.928 484.974 184.621 484.974C187.206 484.974 189.622 486.135 191.246 488.164L193.126 490.52L193.407 487.52C194.25 478.422 201.77 471.57 210.896 471.57C217.959 471.57 224.311 475.772 227.074 482.283L227.669 483.682L228.903 482.786C230.717 481.483 232.854 480.792 235.073 480.792C240.916 480.792 245.667 485.546 245.667 491.399C245.667 497.246 240.916 502 235.073 502H184.621Z" fill="#CBC7FF"/>
<defs>
<filter id="filter0_d_3625_42770" x="379" y="234" width="356" height="179.11" filterUnits="userSpaceOnUse" color-interpolation-filters="sRGB">
<feFlood flood-opacity="0" result="BackgroundImageFix"/>
<feColorMatrix in="SourceAlpha" type="matrix" values="0 0 0 0 0 0 0 0 0 0 0 0 0 0 0 0 0 0 127 0" result="hardAlpha"/>
<feOffset dx="1" dy="7.11"/>
<feGaussianBlur stdDeviation="3"/>
<feColorMatrix type="matrix" values="0 0 0 0 0.345098 0 0 0 0 0.305882 0 0 0 0 0.796078 0 0 0 0.16 0"/>
<feBlend mode="normal" in2="BackgroundImageFix" result="effect1_dropShadow_3625_42770"/>
<feBlend mode="normal" in="SourceGraphic" in2="effect1_dropShadow_3625_42770" result="shape"/>
</filter>
<filter id="filter1_d_3625_42770" x="793" y="234" width="356" height="179.11" filterUnits="userSpaceOnUse" color-interpolation-filters="sRGB">
<feFlood flood-opacity="0" result="BackgroundImageFix"/>
<feColorMatrix in="SourceAlpha" type="matrix" values="0 0 0 0 0 0 0 0 0 0 0 0 0 0 0 0 0 0 127 0" result="hardAlpha"/>
<feOffset dx="1" dy="7.11"/>
<feGaussianBlur stdDeviation="3"/>
<feColorMatrix type="matrix" values="0 0 0 0 0.345098 0 0 0 0 0.305882 0 0 0 0 0.796078 0 0 0 0.16 0"/>
<feBlend mode="normal" in2="BackgroundImageFix" result="effect1_dropShadow_3625_42770"/>
<feBlend mode="normal" in="SourceGraphic" in2="effect1_dropShadow_3625_42770" result="shape"/>
</filter>
<filter id="filter2_d_3625_42770" x="379" y="460" width="356" height="179.11" filterUnits="userSpaceOnUse" color-interpolation-filters="sRGB">
<feFlood flood-opacity="0" result="BackgroundImageFix"/>
<feColorMatrix in="SourceAlpha" type="matrix" values="0 0 0 0 0 0 0 0 0 0 0 0 0 0 0 0 0 0 127 0" result="hardAlpha"/>
<feOffset dx="1" dy="7.11"/>
<feGaussianBlur stdDeviation="3"/>
<feColorMatrix type="matrix" values="0 0 0 0 0.345098 0 0 0 0 0.305882 0 0 0 0 0.796078 0 0 0 0.16 0"/>
<feBlend mode="normal" in2="BackgroundImageFix" result="effect1_dropShadow_3625_42770"/>
<feBlend mode="normal" in="SourceGraphic" in2="effect1_dropShadow_3625_42770" result="shape"/>
</filter>
<filter id="filter3_d_3625_42770" x="793" y="460" width="356" height="179.11" filterUnits="userSpaceOnUse" color-interpolation-filters="sRGB">
<feFlood flood-opacity="0" result="BackgroundImageFix"/>
<feColorMatrix in="SourceAlpha" type="matrix" values="0 0 0 0 0 0 0 0 0 0 0 0 0 0 0 0 0 0 127 0" result="hardAlpha"/>
<feOffset dx="1" dy="7.11"/>
<feGaussianBlur stdDeviation="3"/>
<feColorMatrix type="matrix" values="0 0 0 0 0.345098 0 0 0 0 0.305882 0 0 0 0 0.796078 0 0 0 0.16 0"/>
<feBlend mode="normal" in2="BackgroundImageFix" result="effect1_dropShadow_3625_42770"/>
<feBlend mode="normal" in="SourceGraphic" in2="effect1_dropShadow_3625_42770" result="shape"/>
</filter>
</defs>
</svg>
