<svg width="85" height="136" viewBox="0 0 85 136" fill="none" xmlns="http://www.w3.org/2000/svg">
<mask id="mask0_259_6291" style="mask-type:alpha" maskUnits="userSpaceOnUse" x="0" y="0" width="85" height="136">
<rect width="85" height="136" fill="#D9D9D9"/>
</mask>
<g mask="url(#mask0_259_6291)">
<path fill-rule="evenodd" clip-rule="evenodd" d="M65.2859 34.2479C65.2256 34.2132 65.1652 34.1789 65.1049 34.1442C64.959 34.3402 64.8466 34.5807 64.6593 34.7207C64.455 34.8733 64.1147 34.871 63.9519 35.0457C63.6116 35.4108 63.1746 35.5752 62.7547 35.7858C62.6147 36.442 62.0031 36.6269 61.5598 36.9803C61.2124 37.2575 60.8532 37.5217 60.5219 37.817C60.4241 37.9042 60.4048 38.0793 60.3496 38.2141C60.7112 38.0671 60.9096 37.737 61.3193 37.8498C61.6233 37.9338 61.5922 37.6633 61.7069 37.5138C61.8027 37.3896 62.2286 37.4227 62.2405 37.3458C62.3047 36.9203 62.6498 36.8537 62.9282 36.6774C63.2433 36.4783 63.5792 36.274 63.8115 35.9932C64.0461 35.7093 64.3517 35.7306 64.6266 35.6482C64.5584 35.4759 64.4929 35.3095 64.386 35.0397H65.2859V34.2479ZM-38.3302 13.2234C-39.0582 13.6166 -39.3109 14.3323 -39.6453 14.9892C-39.9604 15.6087 -40.1083 16.3095 -40.3934 16.9298C-40.7136 17.627 -40.8761 18.3541 -40.9052 19.0651C-40.9356 19.8084 -41.436 20.5273 -41.0567 21.3022C-40.949 21.1176 -40.826 20.9536 -40.7558 20.7694C-40.7081 20.6448 -40.7546 20.4875 -40.7242 20.3526C-40.6146 19.8632 -40.49 19.3774 -40.3717 18.8904C-40.2435 18.3652 -39.9924 17.8632 -40.0704 17.2989C-39.5136 16.1352 -39.3038 14.8272 -38.5798 13.7325C-38.4765 13.5759 -38.4126 13.3934 -38.3302 13.2234V13.2234ZM71.7787 41.9107C71.9194 41.9249 72.0157 41.9648 72.0523 41.9336C72.6632 41.4174 73.2965 40.9229 73.8663 40.3634C75.0465 39.2036 75.9929 37.8432 76.8711 36.4579C77.2667 35.834 77.732 35.2043 77.9149 34.4266C77.9974 34.0761 77.7044 34.1549 77.6677 33.9905C76.9307 35.4196 76.2741 36.8995 75.2315 38.1291C74.1392 39.4174 72.9558 40.6292 71.7787 41.9107V41.9107ZM63.393 15.1474C63.5925 15.2772 63.7574 15.3888 63.9269 15.4937C64.0965 15.599 64.2704 15.6971 64.4423 15.7985C64.162 16.3119 64.1627 16.3072 64.5133 16.5611C64.6501 16.6605 64.8485 16.7839 64.8666 16.9176C64.9388 17.4417 65.2586 17.1349 65.4073 17.1593C65.3745 16.7808 65.3434 16.4235 65.3126 16.0666C65.772 15.7693 65.328 15.468 65.298 15.1762C65.2791 14.9944 65.1368 14.8103 65.0054 14.6679C64.9798 14.6407 64.7487 14.804 64.5839 14.8951C64.4632 14.6356 64.3678 14.4301 64.2132 14.0977C64.5247 14.2251 64.6868 14.2913 64.8457 14.3564C65.0366 13.8883 64.5125 14.0677 64.4711 13.8741C64.4222 13.645 64.4597 13.3974 64.4597 13.0847H63.0085C62.9399 12.9005 62.9024 12.8007 62.8102 12.5539C62.7538 13.3844 62.7538 13.3844 63.1166 13.6998C63.1588 13.5752 63.2014 13.4506 63.2459 13.3193C63.4387 13.4999 63.6099 13.6604 63.7625 13.8031C63.9545 13.6963 64.0717 13.6312 64.2771 13.5169C64.1833 14.1786 63.7069 14.302 63.393 14.5465V15.1474ZM49.3124 102.954C49.165 103.245 48.9654 103.526 49.0092 103.571C49.3132 103.884 49.1488 104.25 49.1744 104.586C49.202 104.942 49.2624 105.328 49.1583 105.653C49.0502 105.989 49.5542 106.256 49.193 106.562C49.5321 106.833 49.3704 107.21 49.3909 107.544C49.413 107.9 49.396 108.26 49.396 108.619C49.396 109.98 49.3937 111.342 49.3992 112.704C49.3996 112.84 49.4469 112.975 49.4725 113.11C49.5522 112.541 49.7576 112.011 49.7975 111.484C49.8933 110.227 49.7829 108.96 50.0226 107.702C50.124 107.17 49.9016 106.603 49.8685 106.071C49.8042 105.033 49.5617 104.051 49.3124 102.954V102.954ZM49.5276 128C49.7997 127.599 50.0627 127.28 50.25 126.922C50.8648 125.746 51.8833 124.764 51.9937 123.341C51.9981 123.287 52.0955 123.244 52.1393 123.188C52.4614 122.773 52.6543 122.304 52.6172 121.776C52.5774 121.209 52.7552 120.702 52.9792 120.202C53.0837 119.968 53.1357 119.758 52.8203 119.515C52.6787 119.699 52.493 119.858 52.4188 120.059C52.3033 120.372 52.2891 120.72 52.1874 121.04C51.905 121.924 51.7378 122.85 51.2441 123.66C51.1771 123.771 51.1018 123.923 51.1262 124.034C51.2504 124.604 50.9397 125.107 50.6554 125.446C50.0678 126.147 49.9302 127.101 49.1798 127.653L49.5276 128ZM-30.104 11.9312C-30.5997 11.6737 -31.0067 11.462 -31.4188 11.2479C-31.4893 11.311 -31.5938 11.4048 -31.6948 11.4951C-31.6195 11.5807 -31.5536 11.6548 -31.5162 11.6974C-32.0024 12.0787 -32.4791 12.453 -32.9508 12.8232C-32.9117 12.871 -32.7788 12.9904 -32.7962 13.0188C-32.9543 13.2787 -33.1527 13.5141 -33.3132 13.7728C-33.6716 14.3517 -34.0833 14.9235 -33.7607 15.6849C-33.2934 15.3639 -33.0399 14.7216 -32.3671 14.7831C-32.4369 14.6037 -32.5892 14.3927 -32.5379 14.3134C-32.2966 13.94 -32.0611 13.5054 -31.7047 13.2803C-31.3419 13.0504 -31.0307 12.7203 -30.9432 12.4194C-30.8083 11.9557 -30.4889 12.0992 -30.104 11.9312V11.9312ZM-0.271067 86.9819L-0.119247 86.8296C-0.176426 86.7792 -0.238337 86.681 -0.289995 86.6861C-0.705626 86.7255 -1.20998 86.7204 -1.35391 86.5706C-1.92136 85.9799 -2.62565 86.2129 -3.23845 86.3296C-3.8059 86.4377 -4.32366 86.806 -4.86469 87.0572C-5.03583 87.1372 -5.2054 87.2441 -5.38522 87.2693C-5.46132 87.28 -5.55596 87.0398 -5.68531 87.2366C-5.77009 87.3663 -5.8391 87.5063 -6.02562 87.8391C-5.37654 87.5805 -4.94908 88.3273 -4.43723 87.7634C-4.42856 87.754 -4.18328 87.8837 -4.175 87.9618C-4.14463 88.2493 -3.90369 88.2378 -3.7921 88.172C-3.24476 87.8506 -2.63669 88.0332 -2.05781 87.9417C-2.02271 87.724 -1.99116 87.5268 -1.98249 87.472C-1.8354 87.6187 -1.65479 87.7989 -1.50573 87.9472C-1.54714 87.9614 -1.67214 88.0052 -1.62798 87.9898C-1.48681 88.131 -1.30541 88.3124 -1.14965 88.4685C-1.05658 88.131 -1.38743 87.5237 -0.708386 87.3099C-0.37596 87.584 -0.0257895 87.6219 0.402066 87.4259C0.156 87.2634 -0.0577306 87.1222 -0.271067 86.9819V86.9819ZM2.62793 90.5456C2.3515 90.9746 1.88382 90.4174 1.60029 90.7648C1.2651 90.4099 0.80373 90.628 0.40545 90.5073C0.209071 90.5507 0.605771 89.969 0.101415 90.2297C-0.215632 90.3937 -0.651376 90.3291 -1.08041 90.3716C-1.12892 90.1252 -1.17229 89.9063 -1.2413 89.5581C-1.33082 89.8149 -1.37459 89.9399 -1.42664 90.0881C-1.69479 89.9107 -1.95979 89.7352 -2.26382 89.5345C-2.20585 89.331 -2.14394 89.1133 -2.07848 88.8834C-2.49371 88.622 -2.97165 88.4997 -3.62428 88.734C-3.18262 88.9438 -2.83324 89.1094 -2.45547 89.2884C-2.56667 89.5159 -2.6621 89.7111 -2.75753 89.9067C-2.95154 89.8133 -2.81274 89.2249 -3.32656 89.5944C-3.23862 89.7908 -3.14555 89.997 -3.05407 90.2009C-3.1353 90.2443 -3.20234 90.3054 -3.22994 90.2908C-3.58406 90.1043 -3.93265 89.9071 -4.28282 89.7123C-4.60893 90.3078 -5.20833 90.5254 -5.92247 90.7415C-5.85307 90.5412 -5.80299 90.3965 -5.72727 90.178C-5.93075 90.0511 -6.01553 89.6484 -6.45443 89.695C-6.39212 90.0302 -6.33337 90.3444 -6.27698 90.6473C-6.62794 90.8046 -6.67762 90.8989 -6.56563 91.1248C-7.06407 91.5176 -7.14965 90.7624 -7.54793 90.7179C-7.58697 90.9746 -7.61733 91.1718 -7.64887 91.3772C-7.86497 91.3445 -7.97854 91.0653 -8.27587 91.2983C-8.68993 91.6221 -9.24397 91.7664 -9.65526 92.0921C-10.0705 92.421 -10.3986 92.2593 -10.8059 92.0779C-10.8201 92.2692 -10.8327 92.4388 -10.8517 92.6935C-11.4144 92.5886 -11.8509 92.9561 -12.3549 93.1158C-13.5584 93.4976 -14.715 93.9992 -15.8945 94.4404C-16.9489 94.8348 -17.9789 95.2922 -19.0247 95.7098C-19.8863 96.054 -20.7479 96.3991 -21.6214 96.7102C-22.808 97.1333 -23.95 97.67 -25.1215 98.1298C-26.0368 98.4891 -26.954 98.8964 -27.8657 99.2915C-28.1666 99.4221 -28.4367 99.6871 -28.8216 99.5912C-28.9028 99.5711 -29.031 99.6232 -29.0992 99.6843C-29.9238 100.426 -31.0973 100.427 -31.9787 101.047C-32.0295 101.082 -32.1135 101.098 -32.1746 101.086C-33.0698 100.909 -33.724 101.498 -34.4547 101.818C-35.6164 102.327 -36.8089 102.732 -38.0408 103.027C-38.3003 103.089 -38.5779 103.127 -38.8062 103.252C-39.0227 103.371 -39.2526 103.283 -39.4419 103.367C-39.6848 103.476 -39.932 103.626 -40.1087 103.821C-40.3571 104.096 -40.5184 103.534 -40.8094 103.819C-41.022 104.026 -41.4435 104.001 -41.7337 104.153C-42.2085 104.401 -42.8091 104.302 -43.2232 104.733C-43.3091 104.823 -43.5958 104.803 -43.7413 104.733C-44.0047 104.607 -44.1021 104.565 -44.2678 104.899C-44.3585 105.083 -44.8009 105.123 -45.0943 105.17C-46.0261 105.318 -46.8641 105.854 -47.8373 105.821C-48.5928 106.346 -49.5077 106.292 -50.3465 106.514C-50.5397 106.566 -50.7274 106.641 -50.923 106.678C-51.2881 106.749 -51.6564 106.59 -52.0366 106.868C-52.3039 107.064 -52.7906 106.745 -53.125 107.098C-53.1896 107.166 -53.4767 107.102 -53.606 107.016C-53.9456 106.789 -53.7799 107.153 -53.8561 107.193C-53.9771 107.257 -54.1656 107.187 -54.2934 107.244C-54.8738 107.507 -55.4827 107.616 -56.105 107.535C-57.2055 107.393 -58.2568 107.81 -59.3515 107.784C-59.6824 107.776 -60.0207 108.008 -60.3555 107.757C-60.9774 108.077 -61.6 107.622 -62.2203 107.76C-62.4802 107.817 -62.7894 108.029 -62.9814 107.947C-63.4897 107.732 -64.0015 107.793 -64.5158 107.751C-65.026 107.709 -65.532 107.614 -66.0403 107.542C-66.1081 107.532 -66.2134 107.548 -66.2378 107.511C-66.4571 107.175 -66.8096 107.375 -67.0502 107.29C-67.5979 107.096 -68.1993 107.218 -68.7194 106.907C-69.1086 106.674 -69.4698 106.485 -69.6611 106.245C-69.7324 106.397 -69.8003 106.543 -69.8973 106.748C-70.684 106.147 -71.8481 106.241 -72.5038 105.206H-73.3016C-73.4017 105.028 -73.481 104.765 -73.5591 104.765C-74.1072 104.768 -74.5623 104.739 -74.5224 103.989C-74.5165 103.874 -74.8142 103.742 -75.1739 103.458C-75.0319 103.873 -74.9712 104.051 -74.8635 104.366C-75.2811 104.088 -75.5816 103.902 -75.8667 103.694C-76.1357 103.498 -76.4393 103.318 -76.6349 103.06C-76.8632 102.76 -77.2465 102.669 -77.4449 102.345C-77.6223 102.055 -77.8148 101.761 -78.0561 101.527C-78.3096 101.281 -78.4386 100.946 -78.7765 100.74C-79.0009 100.602 -79.0447 100.169 -79.1725 99.8625C-79.1031 99.788 -79.0068 99.6839 -78.9138 99.5834C-78.831 99.6571 -78.7564 99.7233 -78.5837 99.8767C-78.6137 99.6532 -78.5912 99.5076 -78.6523 99.4193C-78.8944 99.0672 -79.275 98.8984 -79.6476 98.719C-79.7983 98.646 -79.9943 98.5526 -80.0475 98.4197C-80.122 98.2343 -80.029 97.9812 -80.1062 97.7986C-80.1686 97.6507 -80.501 97.562 -80.499 97.4508C-80.4891 96.8896 -80.8811 96.3912 -80.7348 95.819C-81.1386 94.9061 -80.8831 93.9428 -80.9489 93.0042C-81.0712 91.2609 -80.5794 89.6173 -80.0057 88.0175C-79.3594 86.2142 -78.4078 84.5615 -77.2236 83.0362C-76.3987 81.9739 -75.6148 80.8867 -74.7141 79.8795C-73.4818 78.5017 -72.3989 76.9973 -71.3599 75.4665C-71.0416 74.9984 -70.8843 74.4448 -70.5392 73.9728C-70.2147 73.5287 -70.0195 72.9719 -69.8472 72.4392C-69.6918 71.9601 -69.6307 71.4482 -69.5546 70.947C-69.4939 70.544 -69.6725 70.1083 -69.346 69.7368C-69.2817 69.6643 -69.3389 69.4639 -69.3728 69.331C-69.4138 69.1717 -69.5353 69.0238 -69.5435 68.8673C-69.6638 66.5604 -70.9174 64.6518 -72.6801 63.3864C-73.7558 62.6139 -74.9065 61.9928 -76.0051 61.2775C-77.5537 60.27 -79.1993 59.43 -80.7392 58.4087C-81.9372 57.6145 -83.2061 56.928 -84.442 56.1913C-85.8285 55.3652 -87.3033 54.6791 -88.5336 53.6061C-89.2107 53.4957 -89.5707 52.871 -90.163 52.6072C-90.8251 52.3123 -91.2683 51.703 -91.8752 51.302C-92.5696 50.843 -93.1477 50.2081 -93.7791 49.6525C-94.1419 49.3327 -94.4183 48.9253 -94.8986 48.7218C-95.1435 48.6185 -95.4014 48.3685 -95.4956 48.1236C-95.6857 47.6287 -96.1096 47.3681 -96.4286 47.0049C-97.9563 45.2639 -99.1626 43.3486 -99.9015 41.1277C-100.207 40.2097 -100.313 39.2349 -100.739 38.3575C-100.59 37.5775 -100.989 36.8527 -100.96 36.0802C-100.932 35.3286 -101.089 34.5435 -100.922 33.8297C-100.672 32.7599 -100.703 31.6068 -100.094 30.6297C-99.8941 29.1541 -98.4543 26.5546 -97.7997 25.5573C-97.0327 24.3897 -95.9933 23.459 -94.9581 22.5607C-94.4345 22.1061 -93.798 21.6617 -93.0468 21.4945C-92.5622 21.3864 -92.1233 21.1388 -91.6224 21.0201C-91.163 20.9112 -90.807 20.8162 -90.3578 20.9968C-90.1922 21.0635 -89.941 20.8801 -89.7257 20.8667C-89.3329 20.8422 -88.9343 20.83 -88.5439 20.8694C-88.2517 20.899 -87.9788 21.1833 -87.6692 20.916C-87.3368 21.25 -86.9113 20.9664 -86.5548 21.0832C-86.2421 21.1857 -85.9641 21.3927 -85.6522 21.498C-85.147 21.6676 -84.6249 21.7867 -84.1131 21.9381C-83.9554 21.9846 -83.7929 22.0446 -83.6584 22.1364C-82.8461 22.6913 -81.8748 22.8537 -80.9829 23.2075C-80.0293 23.586 -79.0266 23.853 -78.1077 24.3132C-77.4516 24.6421 -76.7453 24.8455 -76.0742 25.1164C-75.3683 25.4015 -74.69 25.758 -73.9708 26.0116C-72.4955 26.5317 -71.1315 27.2944 -69.7234 27.96C-67.9244 28.8106 -66.129 29.6695 -64.3399 30.5409C-61.2069 32.0662 -58.0845 33.6128 -54.948 35.1298C-54.1739 35.5045 -53.3809 35.8661 -52.5587 36.1027C-52.1604 36.2174 -51.8453 36.4682 -51.4549 36.5621C-50.8682 36.7028 -50.2861 36.8641 -49.6962 36.9864C-49.2289 37.0834 -48.7159 37.0471 -48.2888 37.2261C-47.5356 37.5412 -46.7225 37.5522 -45.9512 37.8042C-45.1369 38.07 -44.2646 37.719 -43.5745 37.1413C-43.2732 36.889 -43.0228 36.5774 -42.7326 36.3113C-41.5942 35.2678 -41.3232 34.021 -41.7976 32.5694C-42.0066 31.9298 -42.2582 31.2929 -42.2334 30.5985C-42.6652 30.2022 -42.2247 29.5559 -42.6474 29.1568C-42.5563 28.3662 -42.7847 27.5846 -42.4992 26.7616C-42.3103 26.2174 -42.1395 25.5837 -42.2204 24.9311C-42.4254 23.2706 -42.0693 21.6206 -41.9676 19.97C-41.897 18.824 -41.6044 17.6564 -41.2787 16.5152C-41.0567 15.7379 -40.7037 15.0206 -40.4336 14.2765C-40.1312 13.4429 -39.5377 12.7067 -39.0247 11.9598C-37.9446 10.3888 -36.506 9.19431 -34.9169 8.16943C-33.7662 7.42729 -32.5638 6.77742 -31.2606 6.35548C-30.7191 6.1804 -30.1221 6.12362 -29.5827 5.97495C-28.9852 5.81012 -28.3689 5.96864 -27.8436 5.77029C-27.2825 5.55814 -26.7415 5.55695 -26.2012 5.60388C-25.1803 5.69261 -24.1637 5.85271 -23.1526 6.02464C-22.1636 6.19302 -21.248 6.60352 -20.3142 6.95685C-19.0858 7.42256 -17.934 8.01604 -16.8886 8.81378C-16.7269 8.93721 -16.5167 9.01962 -16.3976 9.17381C-15.7497 10.0118 -15.073 10.834 -14.5009 11.7224C-13.5312 13.2284 -12.4338 14.301 -11.0863 15.3464C-10.8678 15.5155 -10.7227 15.7786 -10.5425 15.9994C-10.1888 15.8744 -9.93919 15.7206 -9.68642 15.7143C-9.39224 15.7076 -9.16747 15.5759 -8.91036 15.4998C-8.64655 15.4217 -8.32083 15.4166 -8.06096 15.5002C-7.78177 15.5901 -7.63034 15.1732 -7.33222 15.3992C-7.24981 15.4611 -6.9998 15.3014 -6.82668 15.243C-6.6378 15.1796 -6.42959 15.1472 -6.26515 15.0447C-6.01277 14.8874 -5.91735 15.3554 -5.63934 15.1547C-5.49186 15.0482 -5.23988 15.0967 -5.04153 15.0482C-4.81597 14.9934 -4.60223 14.8866 -4.37588 14.8424C-4.05963 14.7805 -3.78083 14.9749 -3.49296 15.0187C-3.29225 15.049 -3.05959 14.7 -2.81194 14.6381C-2.48701 14.5573 -2.15814 14.5821 -1.81546 14.4414C-1.50985 14.316 -0.973154 14.2051 -0.81818 14.8211C-0.807927 14.8613 -0.501132 14.8266 -0.300809 14.8266C-0.395449 14.6302 -0.46209 14.4914 -0.532282 14.3463C-0.182899 14.2028 0.0797244 13.7477 0.504031 14.1503C0.651907 13.9149 0.784408 14.1708 0.881021 14.159C1.15824 14.1247 1.26037 13.4508 1.70755 13.9315C2.00291 13.8092 2.29077 13.6558 2.59757 13.5813C2.72297 13.5509 2.91185 13.7706 3.03173 13.7367C3.20602 13.6874 3.34128 13.3849 3.54988 13.6349C3.7439 13.8672 3.8346 13.5143 3.92806 13.59C4.01797 13.6633 4.0361 13.8246 4.08618 13.9476C4.81255 13.7162 4.81255 13.7162 4.98803 13.0742C5.17377 13.1625 5.36975 13.2229 5.52433 13.3388C5.66037 13.4401 5.75068 13.6038 5.84848 13.7241C5.96638 13.5289 6.08745 13.3278 6.20417 13.1345C7.71448 13.5328 7.82725 13.5009 8.36552 12.5091H9.09466C9.14237 12.6101 9.2094 12.7532 9.28709 12.9184C9.42234 12.3782 9.42235 12.3782 9.96575 12.0805C10.1956 12.0189 9.78592 12.6574 10.2761 12.3522C10.5415 12.1869 10.8455 12.1901 11.1531 12.3825C11.2915 12.4693 11.5514 12.446 11.7217 12.3817C12.0601 12.2536 12.5455 12.2575 12.4812 11.6558C12.4698 11.5524 12.6484 11.3647 12.9347 11.5627C13.2127 11.7543 13.6418 11.7279 14.0751 11.8107C14.0116 11.623 13.9505 11.442 13.8716 11.2078C14.4742 11.4255 14.9714 11.5698 15.4348 11.0714C15.5831 10.9116 15.7964 11.265 16.1166 11.0706C16.5555 10.8036 17.1462 10.787 17.7452 10.6459C17.7614 10.5394 17.7914 10.3422 17.8194 10.1589C17.8718 10.134 17.9033 10.104 17.9313 10.1076C18.19 10.1391 19.1968 9.98496 19.4933 9.89347C20.0036 9.73692 20.519 9.59575 21.0352 9.46089C23.4505 8.83034 25.7652 7.88236 28.1549 7.18556C29.8525 6.69067 31.5509 6.18119 33.2754 5.76004C34.7261 5.40592 36.1868 5.0388 37.6202 4.58728C38.4207 4.3349 39.2736 4.25012 40.1005 4.07977C40.3616 4.02574 40.6124 3.92243 40.8734 3.87116C41.3068 3.78559 41.7453 3.72408 42.1815 3.65231C42.618 3.58054 43.0731 3.56516 43.4867 3.42556C44.4185 3.11128 45.4142 3.15111 46.3527 2.82302C46.8796 2.63886 47.5062 2.79975 48.0878 2.59588C48.563 2.42986 49.1723 2.56433 49.5855 2.32734C50.0646 2.05288 50.5733 2.20549 51.0623 1.97874C51.5493 1.75318 52.2067 1.94246 52.7887 1.74372C53.0182 1.66525 53.3723 1.85295 53.6334 1.9886C54.0052 2.18222 54.3274 2.25675 54.6677 1.93773C54.8215 1.79341 56.7076 1.03786 56.7798 1.10805C57.1797 1.49805 57.5267 1.14551 58.0046 1C57.9478 1.23305 57.9163 1.37462 57.878 1.51421C57.8465 1.63054 57.8071 1.7449 57.7499 1.92709C58.2444 1.76462 58.2597 1.42273 58.2073 1.04259C58.4092 1.15892 58.5744 1.30403 58.6206 1.27249C58.8678 1.10608 59.0614 1.17824 59.3201 1.26145C59.4999 1.31902 59.7511 1.12777 59.9771 1.0769C60.1135 1.04614 60.2661 1.05126 60.4053 1.07571C60.61 1.11239 60.7685 1.49213 61.0185 1.1668C61.2559 0.858039 61.4637 1.35885 61.6057 1.2086C62.0111 0.781143 62.3056 1.27564 62.6471 1.30719C62.9366 1.334 63.3144 1.38763 63.3924 1.81983C63.3999 1.86241 63.6582 1.92432 63.7355 1.87543C63.8846 1.78118 64.0084 1.61319 64.1835 1.77645C64.6606 2.22284 65.3641 2.28159 65.8255 2.75677C65.9367 2.87152 66.1165 3.00165 66.2553 2.9914C66.5759 2.96813 66.7076 3.19922 66.85 3.37706C67.0519 3.63022 67.2652 3.85303 67.5255 4.04822C67.7995 4.25328 67.9766 4.52103 68.408 4.54863C68.7377 4.56953 68.9112 5.05299 69.3098 5.19929C70.4388 5.61374 71.4811 6.25138 72.459 6.91663C73.4137 7.5657 74.4197 8.1651 75.2919 8.95968C75.831 9.45103 76.4024 9.91713 76.9292 10.4294C77.7743 11.2512 78.3461 12.2922 79.0996 13.1775C80.1474 14.4078 80.748 15.8578 81.4456 17.2695C82.0706 18.5342 82.4503 19.8686 82.7721 21.2433C82.9693 22.0868 82.944 22.9941 83.3786 23.782C83.394 23.8096 83.3861 23.8538 83.3798 23.8885C83.2197 24.7395 83.631 25.538 83.6018 26.3807C83.5734 27.2041 83.6156 28.0302 83.586 28.8536C83.5738 29.1844 83.4318 29.5086 83.3865 29.841C83.3455 30.1446 83.3747 30.4309 83.1921 30.7349C83.0548 30.9641 83.1294 31.3119 82.9799 31.6123C82.8912 31.7898 83.1116 32.1088 83.1609 32.3699C83.2149 32.6589 83.1936 32.9306 82.7969 32.9507C82.7153 33.5308 82.2346 33.9874 82.1526 34.502C81.9905 35.5151 81.1975 36.1934 80.972 37.1417C80.4861 37.4276 80.5993 38.0743 80.1545 38.432C79.8067 38.7116 79.6478 39.2167 79.3698 39.5953C79.063 40.0133 78.7148 40.4009 78.3875 40.8039C78.324 40.882 78.2124 40.9857 78.2282 41.0536C78.3701 41.6746 77.8823 41.9384 77.5479 42.2827C76.9978 42.8478 76.4552 43.4227 75.8724 43.9527C74.8771 44.8573 73.8672 45.7414 72.7307 46.4808C71.9835 46.9666 71.3774 47.6867 70.6037 48.1122C69.7432 48.5858 68.9664 49.1694 68.1371 49.6793C67.0854 50.3256 65.9982 50.9092 64.9209 51.511C63.7856 52.1455 62.6085 52.6963 61.4819 53.3411C60.8135 53.7236 60.1971 54.2279 59.4901 54.5044C58.5129 54.8861 57.6828 55.5072 56.777 55.9969C55.6536 56.6046 54.6259 57.3901 53.5596 58.1027C52.6424 58.7155 51.9263 59.5503 51.1349 60.3031C50.8111 60.6111 50.5307 60.9502 50.1009 61.1706C49.7224 61.3654 49.4432 61.7641 49.2429 62.1916C48.8477 63.0331 48.4479 63.8738 48.1982 64.769C48.0973 65.1313 48.1576 65.5359 48.0973 65.9137C48.0512 66.202 48.3509 66.6622 47.7448 66.7312C47.7073 66.7355 47.6793 66.9824 47.6785 67.1168C47.6718 67.8692 47.6868 68.6224 47.671 69.3748C47.6608 69.8634 48.0508 70.2841 47.8903 70.7913C48.3304 71.2231 48.0038 71.8366 48.2846 72.3536C48.5291 72.8036 48.4238 73.431 48.5457 73.9633C48.7018 74.6435 49.0591 75.3005 49.0954 75.9803C49.1383 76.7887 49.5658 77.4532 49.6904 78.2269C49.804 78.9327 50.2792 79.5806 50.3935 80.2869C50.5457 81.2254 50.8545 82.1056 51.1049 83.009C51.1305 83.1024 50.9909 83.2413 50.9188 83.3769C51.0209 83.412 51.1459 83.455 51.3025 83.5086C51.3368 84.1719 51.4653 84.8273 51.713 85.4653C51.8096 85.7141 51.7268 86.0276 51.769 86.3049C51.8088 86.5667 51.9385 86.8163 51.9685 87.0782C52.0032 87.3849 51.9965 87.6736 52.1759 87.9658C52.3266 88.2103 52.3845 88.54 52.394 88.8349C52.4046 89.1551 52.4563 89.4446 52.6231 89.7127C52.7796 89.9643 52.2087 90.2356 52.6621 90.4911C52.9796 90.6706 52.7162 91.0613 52.8534 91.2636C53.1799 91.7463 53.0612 92.3153 53.2292 92.8296C53.3368 93.1604 53.4122 93.5465 53.4749 93.912C53.5368 94.272 53.3798 94.6691 53.6657 94.9913C53.3183 95.1755 53.6921 95.3115 53.7048 95.4712C53.7178 95.6345 53.8065 95.7906 53.827 95.9543C53.8515 96.1459 53.8444 96.3423 53.8388 96.5359C53.8365 96.6124 53.7631 96.7374 53.788 96.7571C54.355 97.2067 54.0557 97.926 54.3231 98.4772C54.4457 98.73 54.4386 99.0597 54.523 99.3566C54.6397 99.7687 54.8795 100.176 54.7916 100.659C54.7545 100.86 54.8665 101.136 54.9994 101.311C55.2376 101.624 55.2159 101.964 55.1985 102.305C55.1725 102.822 55.2648 102.798 55.3878 103.354C55.5049 103.884 55.8271 104.357 55.8318 104.89C55.8365 105.372 56.4229 105.843 55.8843 106.347C55.8791 106.352 56.0432 106.538 56.1287 106.639C56.3512 106.9 56.3224 107.232 56.4079 107.531C56.5176 107.914 56.5247 108.231 56.305 108.567C56.4288 108.595 56.5262 108.618 56.624 108.64C56.6497 108.665 56.6938 108.688 56.6974 108.716C56.7755 109.33 56.8425 109.945 56.9265 110.559C57.0006 111.102 56.736 111.678 57.1276 112.199C57.2554 112.37 56.783 112.617 57.1209 112.895C57.195 112.956 57.0361 113.3 56.9841 113.514C57.1047 113.557 57.2293 113.6 57.3488 113.642C57.3173 114.259 56.6394 114.764 57.1067 115.425C56.7747 115.562 56.2368 115.463 56.2885 116.14C56.4817 116.045 56.6185 115.978 56.7455 115.916C56.8184 115.97 56.9186 116.013 56.9166 116.05C56.9032 116.29 56.8685 116.529 56.8397 116.768C56.8303 116.844 56.7968 116.983 56.8094 116.987C57.3615 117.172 56.7826 117.666 57.1075 118C57.4036 118.306 57.0089 118.792 56.889 119.161C56.7786 119.499 56.7396 119.818 56.7037 120.157C56.6536 120.632 56.6824 121.169 56.4624 121.557C56.2293 121.967 56.4119 122.393 56.2202 122.751C56.0258 123.114 55.7805 123.445 55.8488 123.889C55.3448 124.466 55.3878 125.279 54.98 125.892C54.9 126.013 54.7107 126.06 54.564 126.145V127.207C54.2793 127.375 53.8952 127.44 53.898 127.883C53.3767 128.164 54.0581 128.479 53.8637 128.801C53.7765 128.809 53.6405 128.863 53.588 128.818C53.4504 128.701 53.3716 128.584 53.1925 128.788C53.0671 128.932 53.1424 128.972 53.1929 129.106C53.325 129.458 53.0352 129.95 52.9713 129.886C52.5687 129.479 52.5308 130.005 52.3423 130.097C52.2686 130.133 52.1834 130.278 52.2012 130.348C52.3688 131.014 51.8265 131.18 51.4342 131.411C50.3115 132.071 50.304 132.058 49.3962 132.092C49.3962 132.295 49.3682 132.507 49.4025 132.707C49.4542 133.007 49.3008 133.201 49.0883 133.329C48.4309 133.725 47.7775 134.137 47.085 134.463C46.4281 134.773 45.7404 135.115 45.0357 135.205C43.9836 135.338 42.9997 135.805 41.905 135.733C40.8699 135.666 39.8269 135.709 38.7874 135.722C37.6805 135.735 36.643 135.402 35.5834 135.153C34.8614 134.983 34.1796 134.761 33.5049 134.45C33.0861 134.257 32.6003 134.128 32.0971 134.209C31.4251 134.317 30.8254 134.043 30.2339 133.781C28.6171 133.066 27.4041 132.182 26.0342 131.192C25.3342 130.686 24.6094 130.23 24.0053 129.594C23.0088 128.543 22.3211 127.388 21.6318 125.734C21.2753 124.878 20.7883 124.064 20.2765 123.286C19.2843 121.779 18.6577 120.332 17.7397 118.422C16.9743 116.829 16.4151 115.166 15.7668 113.538C15.4261 112.682 15.042 111.83 14.7483 110.946C14.4568 110.069 14.1508 109.196 13.6303 108.392C13.32 107.911 13.1334 107.303 12.818 106.803C12.2292 105.867 11.799 104.858 11.329 103.868C10.7599 102.669 10.1337 101.488 9.64278 100.265C9.20467 99.1736 8.513 98.2347 8.07766 97.1487C7.64665 96.0738 7.05593 95.0619 6.52042 94.0303C6.00857 93.0441 5.33741 92.2156 4.26994 91.7684C3.62875 91.4998 3.06091 91.1098 2.62793 90.5456V90.5456Z" fill="#00E2C7"/>
</g>
</svg>
