<svg width="99" height="154" viewBox="0 0 99 154" fill="none" xmlns="http://www.w3.org/2000/svg">
<path d="M54.6846 92.9511L59.9419 82.1925L69.2468 89.0389M54.6846 92.9511L69.2468 89.0389M54.6846 92.9511L53.4739 100.776M69.2468 89.0389L71.8549 95.3419M71.8549 95.3419L80.3314 138.376L90.3293 135.551L77.3706 77.5195L42.5132 86.8654L37.2969 152.721L49.6856 147.288L53.4739 100.776M71.8549 95.3419L53.4739 100.776" stroke="#1A1A1A" stroke-width="1.30408"/>
<path d="M92.2854 1.01358C89.8945 0.36154 2.73877 23.4002 1 25.3563C2.66632 47.9603 6.43365 93.3857 8.17242 94.2551C10.3459 95.3418 96.1976 72.9551 97.5017 70.5643C98.8057 68.1735 94.6762 1.66562 92.2854 1.01358Z" stroke="#1A1A1A" stroke-width="1.73877"/>
<path d="M89.5449 3.63461C87.2999 3.02091 5.45891 24.705 3.82617 26.546C5.39088 47.821 8.92848 90.5753 10.5612 91.3936C12.6021 92.4164 93.2186 71.3461 94.4431 69.0959C95.6677 66.8456 91.7899 4.24831 89.5449 3.63461Z" stroke="#1A1A1A" stroke-width="1.30408"/>
<path d="M27.082 48.1775L31.6463 33.1807L41.2095 44.9174L27.082 48.1775Z" stroke="#1A1A1A" stroke-width="0.652038" stroke-linejoin="round"/>
<circle cx="39.4702" cy="45.7869" r="4.89029" stroke="#1A1A1A" stroke-width="0.652038"/>
<path d="M66.5534 26.6006C66.4694 26.6231 66.3831 26.6301 66.2944 26.6214C66.2081 26.6086 66.1356 26.5866 66.0769 26.5555C66.0182 26.5244 65.9851 26.4883 65.9776 26.4471C65.9666 26.3925 65.9738 26.3455 65.9993 26.3063C66.0248 26.2671 66.0758 26.2426 66.1524 26.2329C66.2729 26.2258 66.3911 26.2031 66.5068 26.1649C66.6217 26.1233 66.7246 26.0705 66.8155 26.0066C66.9097 25.9417 66.9802 25.8689 67.0269 25.7879C67.0942 25.6763 67.1214 25.5898 67.1086 25.5284C67.0948 25.4637 67.0307 25.4125 66.9162 25.3748C66.8644 25.3562 66.803 25.3421 66.732 25.3323C66.661 25.3225 66.5917 25.3195 66.5243 25.3232C66.4594 25.3226 66.4038 25.3302 66.3577 25.3462C66.3284 25.3577 66.2901 25.3625 66.2428 25.3608C66.1946 25.3557 66.1456 25.3472 66.0956 25.3354C66.0691 25.3173 66.0403 25.2836 66.0091 25.2344C65.9779 25.1851 65.9572 25.1547 65.9468 25.1431C65.939 25.1272 65.9453 25.1039 65.9659 25.0732C65.9865 25.0424 66.0308 24.9928 66.0988 24.9241C66.1659 24.8522 66.2655 24.7535 66.3975 24.6281C66.5179 24.513 66.6096 24.4255 66.6727 24.3653C66.7383 24.301 66.788 24.2516 66.822 24.2173C66.8585 24.1787 66.8883 24.142 66.9113 24.107C66.939 24.0492 66.948 24.009 66.9384 23.9863C66.9287 23.9637 66.878 23.9557 66.7861 23.9623C66.7004 23.9781 66.6332 23.9961 66.5846 24.0163C66.5351 24.0332 66.5122 24.0483 66.5158 24.0618C66.5158 24.0618 66.5141 24.0622 66.5107 24.0631C66.5107 24.0631 66.5057 24.0645 66.4956 24.0672C66.477 24.065 66.4405 24.0765 66.3861 24.1019C66.3317 24.1273 66.2794 24.1539 66.2293 24.1817C66.1825 24.2087 66.1588 24.2276 66.1581 24.2386C66.1566 24.2462 66.1362 24.2643 66.097 24.2928C66.0603 24.317 66.0215 24.34 65.9805 24.3618C65.9429 24.3827 65.9191 24.3945 65.909 24.3972C65.8904 24.395 65.8639 24.3768 65.8296 24.3428C65.7987 24.3079 65.7706 24.2704 65.7455 24.2304C65.7194 24.1869 65.7075 24.1559 65.7098 24.1373C65.7129 24.1221 65.731 24.0956 65.7641 24.058C65.7997 24.016 65.8403 23.9728 65.8859 23.9281C65.9307 23.8801 65.9693 23.8428 66.0017 23.8161C66.0451 23.7901 66.1108 23.7599 66.1988 23.7255C66.2893 23.6868 66.379 23.652 66.4679 23.621C66.5592 23.5857 66.6255 23.5643 66.6667 23.5569C66.8257 23.5323 66.9608 23.5393 67.0719 23.5779C67.1822 23.6132 67.2688 23.6944 67.3316 23.8216C67.3543 23.8659 67.3674 23.9146 67.3708 23.9677C67.3742 24.0208 67.3659 24.077 67.3458 24.1364C67.3257 24.1958 67.2902 24.2647 67.2392 24.3432C67.1696 24.4194 67.1163 24.4823 67.0791 24.5319C67.0445 24.5771 66.9935 24.6286 66.9261 24.6863C66.9071 24.7094 66.8751 24.7377 66.8301 24.7714C66.7851 24.805 66.743 24.8361 66.7039 24.8646C66.6647 24.8931 66.646 24.9107 66.6478 24.9174C66.6478 24.9174 66.6638 24.9168 66.6959 24.9154C66.7304 24.9097 66.7674 24.907 66.8071 24.9072C66.8492 24.9031 66.8809 24.9072 66.9022 24.9195C67.0086 24.927 67.1134 24.9619 67.2165 25.0243C67.3221 25.0824 67.3979 25.1305 67.4441 25.1685C67.5191 25.26 67.5547 25.3729 67.5511 25.5071C67.5499 25.637 67.5188 25.7695 67.4578 25.9047C67.3993 26.0356 67.3207 26.152 67.222 26.2541C67.1423 26.333 67.0368 26.4027 66.9054 26.4631C66.7764 26.5193 66.6591 26.5651 66.5534 26.6006Z" fill="#1A1A1A"/>
<path d="M66.3542 28.1562C66.334 28.1616 66.3084 28.1666 66.2773 28.1714C66.247 28.1795 66.2116 28.1818 66.1711 28.1782C66.1207 28.1917 66.0772 28.1908 66.0407 28.1754C66.0084 28.1624 65.9824 28.146 65.9627 28.1261C65.9122 28.0856 65.904 28.0482 65.938 28.0139C65.9754 27.9787 66.0544 27.9377 66.1751 27.8909C66.2286 27.8622 66.3099 27.8296 66.4189 27.7932C66.5304 27.7525 66.6529 27.7125 66.7864 27.6731C66.919 27.6304 67.0436 27.5916 67.1602 27.5568C67.2803 27.521 67.3739 27.4941 67.441 27.4761C67.5284 27.4527 67.5957 27.4419 67.643 27.4436C67.6893 27.442 67.7359 27.4547 67.7828 27.4818C67.8467 27.5187 67.8728 27.5692 67.8613 27.6335C67.8488 27.6945 67.8021 27.7286 67.7213 27.7359C67.7045 27.7404 67.673 27.7506 67.6269 27.7666C67.5807 27.7825 67.5296 27.7998 67.4734 27.8185C67.4205 27.8362 67.3744 27.8522 67.335 27.8664C67.3148 27.8718 67.2632 27.8874 67.1802 27.9133C67.0971 27.9391 67.0006 27.9686 66.8906 28.0016C66.7807 28.0347 66.6753 28.0647 66.5745 28.0917C66.4747 28.1221 66.4012 28.1436 66.3542 28.1562Z" fill="#1A1A1A"/>
<path d="M66.9999 31.4581C66.9847 31.4549 66.9562 31.4428 66.9145 31.4215C66.8762 31.3994 66.837 31.3739 66.7968 31.3451C66.7558 31.3129 66.7276 31.288 66.7121 31.2706C66.6975 31.2565 66.6894 31.2262 66.6878 31.1799C66.6895 31.1326 66.6971 31.1072 66.7105 31.1036C66.7224 31.1076 66.7327 31.0922 66.7414 31.0575C66.7501 31.0228 66.7583 30.9864 66.7661 30.9483C66.773 30.9068 66.7756 30.8827 66.7738 30.876C66.7735 30.8617 66.7792 30.8494 66.7909 30.839C66.805 30.8245 66.8174 30.8103 66.8281 30.7967C66.8377 30.7653 66.8523 30.7326 66.872 30.6985C66.8941 30.6602 66.9109 30.6287 66.9223 30.604C66.9402 30.5632 66.9754 30.4998 67.0279 30.4137C67.0805 30.3276 67.1309 30.2403 67.1791 30.1518C67.229 30.0556 67.2731 29.9718 67.3116 29.9003C67.3491 29.8254 67.3664 29.7758 67.3635 29.7514C67.3635 29.7514 67.3672 29.745 67.3745 29.7322C67.3844 29.7152 67.3963 29.6993 67.4104 29.6848C67.4245 29.6702 67.4419 29.6475 67.4624 29.6168C67.4864 29.5852 67.5057 29.5566 67.5205 29.5311C67.52 29.5024 67.527 29.4681 67.5415 29.4282C67.5585 29.3841 67.5793 29.3407 67.6038 29.2981C67.6199 29.2506 67.6334 29.2002 67.6443 29.1469C67.6543 29.0902 67.6596 29.0492 67.66 29.0239C67.6601 28.9842 67.6509 28.9633 67.6323 28.9611C67.6128 28.9555 67.563 28.9508 67.4828 28.9471C67.395 28.9419 67.3181 28.9571 67.252 28.9928C67.186 29.0285 67.1054 29.1041 67.0104 29.2195C66.966 29.2422 66.926 29.2673 66.8902 29.2949C66.8577 29.3216 66.8276 29.3369 66.7998 29.3408C66.7846 29.3376 66.7654 29.3266 66.7423 29.3076C66.7192 29.2885 66.6949 29.2717 66.6694 29.2569L66.5609 29.0537L66.6942 28.9262C66.8085 28.802 66.9219 28.7014 67.0345 28.6244C67.1496 28.5432 67.2582 28.5051 67.3603 28.5101C67.3973 28.5002 67.4322 28.4963 67.4651 28.4982C67.4972 28.4969 67.5132 28.4962 67.5132 28.4962C67.5391 28.4856 67.5814 28.4887 67.6399 28.5054C67.7017 28.5213 67.7641 28.5459 67.8271 28.5795C67.8935 28.6121 67.943 28.6492 67.9758 28.6908C68.0511 28.7571 68.0974 28.8491 68.1145 28.9669C68.1317 29.0847 68.1149 29.217 68.0643 29.3638C68.0529 29.3884 68.0272 29.4403 67.9872 29.5194C67.9472 29.5986 67.901 29.6883 67.8487 29.7887C67.7989 29.8849 67.7518 29.9713 67.7076 30.048C67.6667 30.1237 67.6401 30.1723 67.6278 30.1936C67.607 30.2099 67.5752 30.2527 67.5325 30.3217C67.4932 30.3898 67.4506 30.4661 67.4047 30.5503C67.3614 30.6304 67.3246 30.7014 67.2945 30.7635C67.2667 30.8213 67.2563 30.8493 67.263 30.8475C67.2632 30.8619 67.28 30.8574 67.3134 30.834C67.3492 30.8064 67.3808 30.7836 67.4084 30.7654C67.4543 30.7351 67.509 30.7042 67.5726 30.6728C67.6386 30.6371 67.7055 30.6048 67.7734 30.5758C67.8412 30.5468 67.8999 30.5239 67.9494 30.507C68.0022 30.4893 68.035 30.4841 68.0478 30.4914C68.059 30.5064 68.0659 30.5118 68.0683 30.5075C68.0732 30.499 68.0757 30.4948 68.0757 30.4948C68.0761 30.4695 68.1163 30.4515 68.1963 30.4409C68.2796 30.4293 68.3558 30.4251 68.4251 30.4282C68.4647 30.4283 68.4969 30.4341 68.5215 30.4455C68.5495 30.456 68.5653 30.468 68.5689 30.4814C68.5689 30.4814 68.5746 30.4889 68.5858 30.5039C68.5995 30.5146 68.6195 30.5291 68.646 30.5472C68.7114 30.5764 68.724 30.6235 68.6838 30.6883C68.6469 30.7521 68.5581 30.7903 68.4175 30.8028C68.3301 30.8262 68.2593 30.8506 68.2048 30.876C68.1932 30.8863 68.1656 30.8973 68.1219 30.909C68.0782 30.9207 68.0367 30.9336 67.9973 30.9478C67.935 30.9573 67.8755 30.9768 67.8186 31.0065C67.7608 31.0328 67.6936 31.0706 67.6168 31.12C67.5893 31.1381 67.5463 31.1659 67.4879 31.2031C67.4294 31.2404 67.366 31.279 67.2975 31.3189C67.229 31.3589 67.1658 31.392 67.1081 31.4183C67.0537 31.4437 67.0176 31.4569 66.9999 31.4581Z" fill="#1A1A1A"/>
<path d="M71.5243 48.7051C71.5161 48.7146 71.4913 48.723 71.4501 48.7304C71.4123 48.737 71.3693 48.7377 71.3211 48.7326C71.2772 48.73 71.2408 48.7217 71.2119 48.7079C71.1948 48.698 71.1773 48.6865 71.1594 48.6733C71.1406 48.6568 71.1248 48.625 71.1122 48.578C71.103 48.53 71.0945 48.4513 71.0868 48.3418C71.0822 48.271 71.0801 48.1959 71.0804 48.1166C71.0808 48.0373 71.0822 47.9686 71.0846 47.9103C71.087 47.8521 71.0882 47.823 71.0882 47.823C71.1032 47.8117 71.1132 47.7551 71.1182 47.6529C71.1266 47.5499 71.1329 47.4257 71.1372 47.2806C71.1381 47.23 71.1404 47.1447 71.1443 47.0249C71.1482 46.905 71.153 46.7885 71.1587 46.6754C71.1628 46.5699 71.1711 46.4867 71.1836 46.4257C71.1961 46.3648 71.2023 46.3343 71.2023 46.3343C71.2023 46.3343 71.1853 46.3515 71.1513 46.3858C71.1173 46.4201 71.0738 46.4659 71.0207 46.5234C70.9677 46.5808 70.9131 46.6458 70.857 46.7184C70.8089 46.7673 70.756 46.8319 70.6983 46.9122C70.6431 46.9882 70.5902 47.0527 70.5396 47.1059C70.4678 47.2007 70.4178 47.2627 70.3896 47.2919C70.3648 47.3201 70.335 47.3299 70.3003 47.3212C70.2467 47.296 70.1903 47.2535 70.1311 47.1938C70.0744 47.1298 70.0516 47.0783 70.0627 47.0393C70.0685 47.0341 70.0863 47.0131 70.1161 46.9764C70.1492 46.9387 70.186 46.8946 70.2265 46.8442C70.2669 46.7937 70.3033 46.748 70.3355 46.707C70.3711 46.665 70.3959 46.6368 70.41 46.6222C70.4201 46.6195 70.4354 46.6028 70.456 46.5721C70.4765 46.5414 70.4992 46.5119 70.5241 46.4836C70.5355 46.459 70.5821 46.3979 70.664 46.3003C70.7458 46.2028 70.8339 46.0946 70.928 45.9758C71.0316 45.8652 71.1258 45.7734 71.2106 45.7002C71.2954 45.6271 71.345 45.5904 71.3593 45.5902C71.3694 45.5875 71.3961 45.5929 71.4393 45.6065C71.4859 45.6193 71.5318 45.6358 71.5768 45.6561C71.6219 45.6764 71.6488 45.6962 71.6575 45.7155C71.684 45.7336 71.6883 45.79 71.6705 45.8848C71.6652 45.9187 71.6582 45.9799 71.6495 46.0686C71.64 46.154 71.6307 46.2537 71.6217 46.3677C71.6151 46.4775 71.6085 46.5873 71.6019 46.697C71.5978 46.8026 71.5951 46.8933 71.5938 46.9692C71.5949 47.0806 71.5913 47.1679 71.5831 47.2313C71.5782 47.2938 71.5729 47.3547 71.5672 47.4138C71.5639 47.4687 71.5626 47.5446 71.5634 47.6416C71.5543 47.7017 71.5475 47.7773 71.5432 47.8685C71.5413 47.9554 71.541 48.0418 71.5425 48.1279C71.543 48.2105 71.545 48.2784 71.5484 48.3315C71.5414 48.4126 71.5389 48.4906 71.541 48.5657C71.5431 48.6407 71.5375 48.6872 71.5243 48.7051Z" fill="#1A1A1A"/>
<path d="M70.6999 50.3256C70.6797 50.331 70.6541 50.3361 70.623 50.3408C70.5927 50.3489 70.5573 50.3512 70.5168 50.3477C70.4664 50.3612 70.4229 50.3602 70.3864 50.3448C70.3541 50.3318 70.3281 50.3154 70.3084 50.2955C70.258 50.255 70.2497 50.2176 70.2837 50.1833C70.3211 50.1481 70.4001 50.1071 70.5208 50.0604C70.5743 50.0316 70.6556 49.9991 70.7646 49.9626C70.8762 49.922 70.9986 49.8819 71.1321 49.8426C71.2647 49.7999 71.3893 49.7611 71.5059 49.7262C71.626 49.6904 71.7196 49.6636 71.7867 49.6456C71.8741 49.6222 71.9414 49.6113 71.9887 49.6131C72.035 49.6114 72.0816 49.6242 72.1285 49.6512C72.1924 49.6881 72.2185 49.7387 72.207 49.803C72.1945 49.8639 72.1478 49.898 72.067 49.9053C72.0502 49.9098 72.0187 49.92 71.9726 49.936C71.9264 49.9519 71.8753 49.9693 71.8191 49.9879C71.7662 50.0057 71.7201 50.0216 71.6807 50.0358C71.6605 50.0412 71.6089 50.0568 71.5259 50.0827C71.4428 50.1085 71.3463 50.138 71.2363 50.1711C71.1264 50.2041 71.021 50.2342 70.9202 50.2612C70.8204 50.2915 70.7469 50.313 70.6999 50.3256Z" fill="#1A1A1A"/>
<path d="M71.3456 53.6275C71.3304 53.6244 71.3019 53.6122 71.2602 53.591C71.2219 53.5688 71.1827 53.5433 71.1425 53.5145C71.1015 53.4823 71.0733 53.4575 71.0578 53.44C71.0432 53.4259 71.0351 53.3957 71.0335 53.3493C71.0352 53.302 71.0428 53.2766 71.0562 53.273C71.0681 53.277 71.0784 53.2617 71.0871 53.2269C71.0958 53.1922 71.104 53.1558 71.1118 53.1177C71.1187 53.0763 71.1213 53.0522 71.1195 53.0455C71.1192 53.0311 71.1249 53.0188 71.1366 53.0085C71.1507 52.9939 71.1631 52.9798 71.1738 52.9661C71.1834 52.9347 71.198 52.902 71.2177 52.8679C71.2398 52.8296 71.2566 52.7981 71.268 52.7734C71.2859 52.7327 71.3211 52.6692 71.3736 52.5831C71.4262 52.4971 71.4766 52.4097 71.5248 52.3212C71.5747 52.225 71.6188 52.1412 71.6573 52.0697C71.6948 51.9948 71.7121 51.9452 71.7092 51.9208C71.7092 51.9208 71.7129 51.9144 71.7202 51.9016C71.7301 51.8846 71.742 51.8688 71.7561 51.8542C71.7702 51.8396 71.7876 51.817 71.8081 51.7863C71.8321 51.7547 71.8514 51.7261 71.8662 51.7005C71.8657 51.6718 71.8727 51.6376 71.8872 51.5977C71.9042 51.5535 71.925 51.5101 71.9496 51.4676C71.9656 51.42 71.9791 51.3696 71.99 51.3163C72 51.2596 72.0053 51.2186 72.0057 51.1933C72.0059 51.1537 71.9966 51.1327 71.978 51.1305C71.9586 51.1249 71.9087 51.1203 71.8285 51.1166C71.7407 51.1113 71.6638 51.1265 71.5977 51.1622C71.5317 51.1979 71.4511 51.2735 71.3561 51.389C71.3117 51.4116 71.2717 51.4368 71.2359 51.4644C71.2034 51.4911 71.1733 51.5063 71.1455 51.5102C71.1303 51.5071 71.1111 51.496 71.088 51.477C71.0649 51.458 71.0406 51.4411 71.0151 51.4263L70.9066 51.2232L71.0399 51.0957C71.1542 50.9714 71.2676 50.8708 71.3802 50.7939C71.4953 50.7126 71.6039 50.6745 71.706 50.6796C71.743 50.6697 71.7779 50.6657 71.8108 50.6677C71.8429 50.6663 71.8589 50.6656 71.8589 50.6656C71.8848 50.655 71.9271 50.6581 71.9856 50.6749C72.0474 50.6907 72.1098 50.7154 72.1728 50.7489C72.2392 50.7815 72.2887 50.8186 72.3215 50.8603C72.3968 50.9265 72.4431 51.0185 72.4602 51.1363C72.4774 51.2541 72.4606 51.3864 72.41 51.5332C72.3986 51.5579 72.3729 51.6097 72.3329 51.6889C72.2929 51.768 72.2467 51.8578 72.1944 51.9582C72.1446 52.0543 72.0975 52.1407 72.0533 52.2174C72.0124 52.2932 71.9858 52.3417 71.9735 52.363C71.9527 52.3794 71.9209 52.4221 71.8782 52.4911C71.8389 52.5593 71.7963 52.6355 71.7505 52.7198C71.7071 52.7998 71.6703 52.8709 71.6402 52.9329C71.6125 52.9908 71.602 53.0188 71.6087 53.017C71.6089 53.0313 71.6257 53.0268 71.6591 53.0035C71.6949 52.9759 71.7265 52.953 71.7541 52.9348C71.8 52.9045 71.8547 52.8737 71.9183 52.8422C71.9843 52.8065 72.0512 52.7742 72.1191 52.7452C72.1869 52.7162 72.2456 52.6933 72.2951 52.6764C72.3479 52.6587 72.3807 52.6535 72.3935 52.6609C72.4047 52.6759 72.4116 52.6812 72.414 52.677C72.4189 52.6685 72.4214 52.6642 72.4214 52.6642C72.4218 52.6389 72.462 52.6209 72.542 52.6103C72.6253 52.5988 72.7016 52.5945 72.7708 52.5976C72.8104 52.5978 72.8426 52.6036 72.8672 52.6149C72.8952 52.6254 72.9111 52.6374 72.9147 52.6508C72.9147 52.6508 72.9203 52.6583 72.9315 52.6733C72.9452 52.6841 72.9652 52.6985 72.9917 52.7166C73.0571 52.7459 73.0697 52.7929 73.0295 52.8577C72.9926 52.9216 72.9038 52.9598 72.7632 52.9723C72.6758 52.9957 72.605 53.02 72.5506 53.0454C72.5389 53.0557 72.5113 53.0667 72.4676 53.0784C72.4239 53.0902 72.3824 53.1031 72.343 53.1172C72.2807 53.1267 72.2212 53.1463 72.1643 53.1759C72.1065 53.2022 72.0393 53.24 71.9625 53.2894C71.935 53.3076 71.892 53.3353 71.8336 53.3725C71.7751 53.4098 71.7117 53.4484 71.6432 53.4884C71.5747 53.5283 71.5115 53.5614 71.4538 53.5877C71.3994 53.6131 71.3633 53.6264 71.3456 53.6275Z" fill="#1A1A1A"/>
<path d="M74.8587 24.0155C74.7865 23.988 74.7464 23.9591 74.7383 23.9289C74.7195 23.9124 74.7016 23.9063 74.6849 23.9108C74.6757 23.9169 74.6611 23.9028 74.6411 23.8686C74.6245 23.8334 74.607 23.7949 74.5886 23.753C74.5735 23.7103 74.5659 23.6817 74.5656 23.6674C74.5719 23.6369 74.5916 23.61 74.625 23.5867C74.6617 23.5624 74.699 23.547 74.7368 23.5405C74.7771 23.5297 74.8026 23.5373 74.8131 23.5632C74.827 23.5883 74.8581 23.6034 74.9063 23.6085C74.9578 23.6127 75.0201 23.6032 75.093 23.58C75.1862 23.5515 75.2678 23.5134 75.3379 23.4658C75.4113 23.4174 75.4732 23.3594 75.5235 23.2919C75.5772 23.2235 75.6214 23.1469 75.6563 23.0619C75.6672 23.0086 75.6724 22.9406 75.6718 22.8579C75.6713 22.7753 75.6662 22.7028 75.6568 22.6406C75.6473 22.5783 75.6341 22.5494 75.6173 22.5539C75.6173 22.5539 75.6108 22.5431 75.5978 22.5213C75.5882 22.4987 75.5747 22.4753 75.5574 22.4512C75.5271 22.4053 75.475 22.3652 75.401 22.3311C75.3262 22.2935 75.257 22.2706 75.1936 22.2624C75.1683 22.262 75.1196 22.2751 75.0475 22.3016C74.9754 22.3281 74.9151 22.3515 74.8665 22.3717C74.8136 22.3894 74.7817 22.398 74.7707 22.3973C74.7622 22.3924 74.758 22.39 74.758 22.39C74.7403 22.3911 74.7072 22.382 74.6588 22.3625C74.6138 22.3422 74.5699 22.3197 74.5273 22.2951C74.4881 22.2697 74.4662 22.2485 74.4617 22.2317C74.4622 22.2064 74.4698 22.1611 74.4848 22.0959C74.4997 22.0307 74.52 21.9587 74.5457 21.8798C74.5747 21.8 74.6042 21.7219 74.6341 21.6455C74.664 21.5691 74.6937 21.5053 74.7232 21.4542C74.7943 21.3164 74.8932 21.2017 75.0199 21.1101C75.1456 21.0152 75.2783 20.9527 75.4178 20.9225C75.5161 20.8997 75.5919 20.8938 75.6453 20.9047C75.7011 20.9114 75.7563 20.9362 75.811 20.9791C75.8505 21.019 75.8736 21.065 75.8804 21.1171C75.8872 21.1693 75.8807 21.2125 75.8611 21.2465C75.8414 21.2806 75.8087 21.293 75.763 21.2836C75.7079 21.266 75.6409 21.2713 75.5621 21.2996C75.4833 21.328 75.4021 21.3677 75.3186 21.4189C75.2553 21.4647 75.2045 21.5035 75.1662 21.5353C75.127 21.5638 75.104 21.5988 75.0971 21.6402C75.0864 21.6539 75.079 21.6667 75.075 21.6786C75.0743 21.6896 75.0668 21.6952 75.0525 21.6954C75.0525 21.6954 75.0492 21.7035 75.0428 21.7196C75.0354 21.7324 75.0335 21.7455 75.0371 21.7589C75.0257 21.7836 75.018 21.8018 75.014 21.8137C75.0124 21.8213 75.0031 21.8202 74.9861 21.8104C74.9861 21.8104 74.9874 21.8154 74.9901 21.8255C74.9928 21.8356 74.9943 21.8478 74.9946 21.8621C74.9975 21.8865 75.0087 21.9015 75.0282 21.9071C75.0502 21.9084 75.094 21.9039 75.1596 21.8935C75.2472 21.8845 75.3129 21.8812 75.3568 21.8839C75.4032 21.8823 75.4751 21.8954 75.5726 21.9233C75.681 21.9518 75.7715 22.014 75.844 22.1098C75.9189 22.2013 75.9768 22.31 76.0177 22.4358C76.0611 22.5574 76.0897 22.6776 76.1035 22.7963C76.1132 22.8729 76.1185 22.9327 76.1192 22.9757C76.1199 23.0187 76.1062 23.0818 76.0781 23.1649C76.0296 23.2931 75.9562 23.4154 75.8578 23.5318C75.7584 23.6448 75.6479 23.7428 75.5261 23.8258C75.4044 23.9089 75.2839 23.9699 75.1648 24.009C75.0481 24.0439 74.9461 24.046 74.8587 24.0155Z" fill="#1A1A1A"/>
<path d="M75.0475 25.548C75.0274 25.5534 75.0018 25.5585 74.9706 25.5632C74.9404 25.5713 74.905 25.5736 74.8644 25.5701C74.8141 25.5836 74.7706 25.5826 74.7341 25.5672C74.7018 25.5543 74.6758 25.5378 74.6561 25.5179C74.6056 25.4774 74.5974 25.44 74.6314 25.4057C74.6688 25.3705 74.7478 25.3295 74.8685 25.2828C74.922 25.254 75.0033 25.2215 75.1123 25.185C75.2238 25.1444 75.3463 25.1043 75.4798 25.065C75.6123 25.0223 75.7369 24.9835 75.8536 24.9486C75.9736 24.9129 76.0672 24.886 76.1344 24.868C76.2217 24.8446 76.289 24.8337 76.3363 24.8355C76.3827 24.8338 76.4293 24.8466 76.4761 24.8736C76.54 24.9105 76.5662 24.9611 76.5546 25.0254C76.5421 25.0863 76.4955 25.1204 76.4146 25.1277C76.3978 25.1322 76.3664 25.1424 76.3202 25.1584C76.2741 25.1744 76.2229 25.1917 76.1667 25.2103C76.1139 25.2281 76.0678 25.244 76.0284 25.2582C76.0082 25.2636 75.9566 25.2792 75.8735 25.3051C75.7904 25.331 75.6939 25.3604 75.584 25.3935C75.474 25.4265 75.3687 25.4566 75.2679 25.4836C75.168 25.5139 75.0946 25.5354 75.0475 25.548Z" fill="#1A1A1A"/>
<path d="M75.6933 28.8499C75.6781 28.8468 75.6496 28.8346 75.6079 28.8134C75.5696 28.7913 75.5303 28.7658 75.4902 28.7369C75.4492 28.7047 75.4209 28.6799 75.4054 28.6624C75.3909 28.6483 75.3828 28.6181 75.3811 28.5717C75.3829 28.5245 75.3905 28.499 75.4039 28.4954C75.4158 28.4994 75.4261 28.4841 75.4348 28.4494C75.4435 28.4146 75.4517 28.3782 75.4595 28.3401C75.4664 28.2987 75.4689 28.2746 75.4671 28.2679C75.4669 28.2535 75.4726 28.2412 75.4842 28.2309C75.4983 28.2163 75.5107 28.2022 75.5215 28.1885C75.5311 28.1571 75.5457 28.1244 75.5654 28.0903C75.5875 28.052 75.6043 28.0205 75.6157 27.9959C75.6335 27.9551 75.6687 27.8916 75.7213 27.8055C75.7738 27.7195 75.8242 27.6322 75.8725 27.5436C75.9223 27.4475 75.9665 27.3636 76.0049 27.2921C76.0425 27.2173 76.0598 27.1676 76.0568 27.1432C76.0568 27.1432 76.0605 27.1368 76.0679 27.124C76.0777 27.107 76.0897 27.0912 76.1038 27.0766C76.1179 27.062 76.1352 27.0394 76.1558 27.0087C76.1797 26.9771 76.1991 26.9485 76.2138 26.9229C76.2133 26.8943 76.2204 26.86 76.2349 26.8201C76.2518 26.7759 76.2726 26.7326 76.2972 26.69C76.3133 26.6425 76.3268 26.592 76.3377 26.5387C76.3477 26.482 76.3529 26.441 76.3533 26.4157C76.3535 26.3761 76.3443 26.3551 76.3257 26.3529C76.3062 26.3473 76.2564 26.3427 76.1762 26.339C76.0883 26.3337 76.0114 26.3489 75.9454 26.3846C75.8793 26.4203 75.7988 26.4959 75.7037 26.6114C75.6594 26.6341 75.6193 26.6592 75.5835 26.6868C75.5511 26.7135 75.521 26.7288 75.4932 26.7326C75.4779 26.7295 75.4588 26.7184 75.4357 26.6994C75.4126 26.6804 75.3883 26.6635 75.3627 26.6487L75.2543 26.4456L75.3875 26.3181C75.5018 26.1938 75.6153 26.0932 75.7279 26.0163C75.8429 25.935 75.9515 25.8969 76.0537 25.902C76.0906 25.8921 76.1256 25.8881 76.1585 25.8901C76.1905 25.8887 76.2065 25.888 76.2065 25.888C76.2325 25.8775 76.2747 25.8805 76.3332 25.8973C76.3951 25.9131 76.4575 25.9378 76.5205 25.9713C76.5868 26.0039 76.6364 26.0411 76.6691 26.0827C76.7445 26.1489 76.7907 26.2409 76.8079 26.3587C76.8251 26.4765 76.8083 26.6088 76.7576 26.7556C76.7462 26.7803 76.7205 26.8322 76.6805 26.9113C76.6405 26.9904 76.5944 27.0802 76.5421 27.1806C76.4922 27.2767 76.4452 27.3632 76.4009 27.4398C76.36 27.5156 76.3334 27.5641 76.3211 27.5854C76.3003 27.6018 76.2686 27.6445 76.2259 27.7135C76.1865 27.7817 76.1439 27.8579 76.0981 27.9422C76.0547 28.0222 76.018 28.0933 75.9878 28.1554C75.9601 28.2132 75.9496 28.2412 75.9563 28.2394C75.9566 28.2537 75.9734 28.2492 76.0067 28.2259C76.0425 28.1983 76.0742 28.1754 76.1017 28.1572C76.1476 28.1269 76.2023 28.0961 76.2659 28.0646C76.332 28.0289 76.3989 27.9966 76.4667 27.9676C76.5346 27.9386 76.5932 27.9157 76.6427 27.8989C76.6956 27.8811 76.7284 27.8759 76.7412 27.8833C76.7524 27.8983 76.7592 27.9037 76.7617 27.8994C76.7666 27.8909 76.7691 27.8866 76.7691 27.8866C76.7695 27.8613 76.8097 27.8433 76.8896 27.8327C76.9729 27.8212 77.0492 27.8169 77.1184 27.82C77.1581 27.8202 77.1902 27.826 77.2149 27.8374C77.2429 27.8479 77.2587 27.8598 77.2623 27.8733C77.2623 27.8733 77.2679 27.8808 77.2791 27.8957C77.2928 27.9065 77.3129 27.9209 77.3393 27.939C77.4048 27.9683 77.4174 28.0153 77.3771 28.0801C77.3403 28.144 77.2515 28.1822 77.1108 28.1947C77.0235 28.2181 76.9526 28.2425 76.8982 28.2678C76.8866 28.2782 76.8589 28.2892 76.8153 28.3009C76.7716 28.3126 76.73 28.3255 76.6906 28.3397C76.6284 28.3491 76.5688 28.3687 76.5119 28.3983C76.4542 28.4246 76.3869 28.4624 76.3101 28.5118C76.2826 28.53 76.2396 28.5577 76.1812 28.595C76.1228 28.6322 76.0593 28.6708 75.9908 28.7108C75.9223 28.7507 75.8592 28.7838 75.8014 28.8101C75.747 28.8355 75.711 28.8488 75.6933 28.8499Z" fill="#1A1A1A"/>
<path d="M80.0484 46.1097C80.0349 46.1133 79.995 46.0988 79.9287 46.0662C79.8657 46.0327 79.8216 45.9689 79.7964 45.8748C79.7719 45.7698 79.7594 45.6561 79.7591 45.5338C79.7611 45.4072 79.7651 45.2946 79.7711 45.1958C79.775 45.1299 79.7783 45.075 79.781 45.0311C79.787 44.9863 79.7886 44.9589 79.7859 44.9488C79.7825 44.9497 79.765 44.958 79.7332 44.9737C79.7047 44.9885 79.6684 45.0073 79.624 45.0299C79.4684 45.1076 79.347 45.1582 79.2597 45.1816C79.1757 45.2041 79.09 45.1731 79.0025 45.0885C78.9769 45.0737 78.9402 45.044 78.8922 44.9992C78.8442 44.9545 78.8049 44.902 78.7744 44.8418C78.7472 44.7807 78.7496 44.7224 78.7816 44.6671C78.7927 44.5741 78.8033 44.5064 78.8136 44.4641C78.8238 44.4217 78.8301 44.3912 78.8323 44.3726C78.8379 44.3532 78.8384 44.335 78.8339 44.3182C78.8355 44.3106 78.8378 44.2992 78.8409 44.2839C78.844 44.2687 78.8488 44.253 78.8553 44.2369C78.872 44.1784 78.8965 44.1016 78.9286 44.0066C78.9641 43.9107 79.0013 43.8143 79.0402 43.7175C79.0815 43.6164 79.1188 43.5272 79.1521 43.4499C79.1845 43.3692 79.2097 43.3157 79.2278 43.2892C79.2453 43.2737 79.2765 43.2492 79.3215 43.2155C79.3698 43.181 79.4057 43.1605 79.4293 43.1542C79.4561 43.147 79.4863 43.1588 79.5197 43.1894C79.5556 43.2158 79.5868 43.2452 79.6135 43.2777C79.6402 43.3101 79.6554 43.3331 79.659 43.3465C79.659 43.3465 79.6582 43.3503 79.6566 43.3579C79.6551 43.3655 79.6515 43.3791 79.6459 43.3986C79.6379 43.4223 79.625 43.4546 79.6071 43.4954C79.5926 43.5353 79.569 43.5884 79.5364 43.6548C79.5087 43.7126 79.4767 43.7949 79.4406 43.9018C79.4035 44.0054 79.3683 44.1156 79.3348 44.2326C79.3038 44.3453 79.2785 44.4457 79.2589 44.5338C79.2393 44.6218 79.2331 44.6793 79.2403 44.7062C79.2448 44.723 79.2534 44.735 79.2662 44.7424C79.2814 44.7455 79.3058 44.7426 79.3394 44.7336C79.3813 44.7152 79.4181 44.6981 79.4499 44.6824C79.4851 44.6658 79.5168 44.65 79.5453 44.6352C79.5804 44.6186 79.6105 44.6033 79.6356 44.5894C79.6598 44.5721 79.6827 44.557 79.7044 44.544C79.7286 44.5267 79.7499 44.512 79.7682 44.4999C79.789 44.4835 79.806 44.4664 79.8192 44.4484C79.8505 44.404 79.8686 44.3506 79.8735 44.2881C79.8783 44.2256 79.8895 44.1398 79.9071 44.0306C79.916 43.9563 79.9267 43.8886 79.9391 43.8277C79.9541 43.7625 79.967 43.7032 79.9779 43.6499C80.0205 43.4728 80.0609 43.3414 80.0991 43.2556C80.1364 43.1664 80.1584 43.1209 80.1651 43.1191C80.1752 43.1164 80.2023 43.1235 80.2464 43.1405C80.2906 43.1575 80.3335 43.1766 80.3752 43.1978C80.4084 43.2141 80.436 43.2301 80.4582 43.2457C80.4795 43.258 80.4911 43.2675 80.4929 43.2743C80.5037 43.3146 80.5049 43.3593 80.4964 43.4083C80.4904 43.4531 80.4778 43.5069 80.4586 43.5696C80.4394 43.6324 80.4193 43.7116 80.3981 43.8073C80.3738 43.9182 80.3529 44.0282 80.3353 44.1373C80.3169 44.2431 80.3001 44.3484 80.285 44.4532C80.269 44.5547 80.2559 44.6536 80.2457 44.75C80.2355 44.8463 80.2256 44.9372 80.2161 45.0225C80.1953 45.2405 80.1841 45.4001 80.1824 45.5014C80.1807 45.6026 80.1848 45.6717 80.1947 45.7087C80.2071 45.7414 80.2215 45.7681 80.2378 45.7889C80.2495 45.8326 80.2474 45.8782 80.2313 45.9257C80.2143 45.9699 80.1888 46.0091 80.1548 46.0434C80.1208 46.0777 80.0853 46.0998 80.0484 46.1097Z" fill="#1A1A1A"/>
<path d="M79.3933 47.7172C79.3731 47.7226 79.3475 47.7277 79.3163 47.7324C79.2861 47.7405 79.2507 47.7428 79.2102 47.7393C79.1598 47.7528 79.1163 47.7518 79.0798 47.7364C79.0475 47.7234 79.0215 47.707 79.0018 47.6871C78.9513 47.6466 78.9431 47.6092 78.9771 47.5749C79.0145 47.5397 79.0935 47.4987 79.2142 47.452C79.2677 47.4232 79.349 47.3907 79.458 47.3542C79.5695 47.3136 79.692 47.2735 79.8255 47.2342C79.958 47.1915 80.0826 47.1527 80.1993 47.1178C80.3193 47.082 80.4129 47.0552 80.4801 47.0372C80.5674 47.0138 80.6347 47.0029 80.682 47.0047C80.7284 47.003 80.775 47.0158 80.8218 47.0428C80.8857 47.0797 80.9119 47.1303 80.9003 47.1946C80.8878 47.2555 80.8412 47.2896 80.7603 47.2969C80.7435 47.3014 80.7121 47.3116 80.6659 47.3276C80.6198 47.3435 80.5686 47.3609 80.5124 47.3795C80.4596 47.3973 80.4135 47.4132 80.3741 47.4274C80.3539 47.4328 80.3023 47.4484 80.2192 47.4743C80.1361 47.5002 80.0396 47.5296 79.9297 47.5627C79.8197 47.5957 79.7144 47.6258 79.6136 47.6528C79.5137 47.6831 79.4403 47.7046 79.3933 47.7172Z" fill="#1A1A1A"/>
<path d="M80.4616 50.9437C80.3776 50.9662 80.2913 50.9731 80.2026 50.9645C80.1163 50.9516 80.0438 50.9296 79.9851 50.8985C79.9264 50.8675 79.8933 50.8313 79.8858 50.7901C79.8748 50.7355 79.882 50.6885 79.9075 50.6493C79.933 50.6101 79.984 50.5856 80.0606 50.5759C80.1811 50.5688 80.2993 50.5461 80.4151 50.5079C80.5299 50.4663 80.6328 50.4136 80.7237 50.3496C80.8179 50.2848 80.8884 50.2119 80.9351 50.1309C81.0024 50.0193 81.0296 49.9328 81.0168 49.8715C81.003 49.8067 80.9389 49.7555 80.8244 49.7178C80.7726 49.6993 80.7112 49.6851 80.6402 49.6753C80.5692 49.6656 80.4999 49.6625 80.4325 49.6662C80.3676 49.6656 80.312 49.6733 80.2659 49.6892C80.2366 49.7007 80.1983 49.7055 80.151 49.7038C80.1028 49.6987 80.0538 49.6903 80.0038 49.6784C79.9773 49.6603 79.9485 49.6267 79.9173 49.5774C79.8861 49.5282 79.8654 49.4977 79.855 49.4861C79.8472 49.4702 79.8535 49.4469 79.8741 49.4162C79.8947 49.3855 79.939 49.3358 80.007 49.2672C80.0741 49.1952 80.1737 49.0965 80.3057 48.9711C80.4261 48.8561 80.5178 48.7685 80.5809 48.7084C80.6465 48.644 80.6962 48.5947 80.7303 48.5603C80.7667 48.5218 80.7965 48.485 80.8195 48.45C80.8472 48.3922 80.8562 48.352 80.8466 48.3294C80.8369 48.3067 80.7862 48.2987 80.6943 48.3053C80.6086 48.3211 80.5414 48.3391 80.4928 48.3594C80.4433 48.3762 80.4204 48.3914 80.424 48.4048C80.424 48.4048 80.4223 48.4052 80.4189 48.4061C80.4189 48.4061 80.4139 48.4075 80.4038 48.4102C80.3852 48.408 80.3487 48.4196 80.2943 48.4449C80.2399 48.4703 80.1876 48.4969 80.1375 48.5248C80.0907 48.5517 80.067 48.5707 80.0663 48.5816C80.0648 48.5892 80.0444 48.6073 80.0052 48.6358C79.9685 48.66 79.9297 48.683 79.8887 48.7048C79.8511 48.7257 79.8273 48.7375 79.8172 48.7402C79.7986 48.738 79.7721 48.7199 79.7378 48.6859C79.7069 48.6509 79.6788 48.6135 79.6537 48.5734C79.6276 48.53 79.6157 48.499 79.618 48.4804C79.6211 48.4651 79.6392 48.4387 79.6723 48.401C79.7079 48.3591 79.7485 48.3158 79.7941 48.2711C79.8389 48.2232 79.8775 48.1858 79.9099 48.1591C79.9533 48.1331 80.019 48.1029 80.107 48.0685C80.1975 48.0299 80.2872 47.995 80.3761 47.964C80.4674 47.9287 80.5337 47.9074 80.5749 47.8999C80.7339 47.8753 80.869 47.8823 80.9802 47.9209C81.0904 47.9562 81.177 48.0374 81.2398 48.1646C81.2625 48.2089 81.2756 48.2576 81.279 48.3107C81.2824 48.3638 81.2741 48.42 81.254 48.4794C81.2339 48.5388 81.1984 48.6077 81.1474 48.6862C81.0778 48.7624 81.0245 48.8253 80.9873 48.8749C80.9527 48.9202 80.9017 48.9716 80.8343 49.0293C80.8153 49.0524 80.7833 49.0808 80.7383 49.1144C80.6933 49.1481 80.6512 49.1791 80.6121 49.2076C80.5729 49.2361 80.5542 49.2537 80.556 49.2605C80.556 49.2605 80.572 49.2598 80.6041 49.2584C80.6386 49.2527 80.6756 49.25 80.7153 49.2502C80.7574 49.2461 80.7891 49.2502 80.8104 49.2625C80.9168 49.27 81.0216 49.3049 81.1247 49.3673C81.2303 49.4254 81.3062 49.4735 81.3523 49.5115C81.4273 49.603 81.4629 49.7159 81.4593 49.8501C81.4581 49.98 81.427 50.1126 81.366 50.2477C81.3075 50.3786 81.2289 50.4951 81.1302 50.5971C81.0505 50.676 80.945 50.7457 80.8136 50.8061C80.6846 50.8623 80.5673 50.9081 80.4616 50.9437Z" fill="#1A1A1A"/>
<path d="M70.6363 25.8625C70.6159 25.8669 70.5904 25.8724 70.5598 25.879C70.5285 25.8821 70.4927 25.881 70.4524 25.8754C70.4014 25.8864 70.3584 25.885 70.3234 25.8711C70.2911 25.8532 70.2655 25.8338 70.2468 25.8129C70.1985 25.77 70.1917 25.7305 70.2267 25.6945C70.2643 25.6544 70.3445 25.614 70.4674 25.5734C70.5223 25.5473 70.6051 25.5188 70.7158 25.4879C70.8292 25.4528 70.9518 25.4193 71.0837 25.3874C71.2148 25.3521 71.3395 25.3199 71.4577 25.2909C71.576 25.2619 71.6691 25.2401 71.7371 25.2254C71.8255 25.2064 71.9055 25.1981 71.9772 25.2004C72.0522 25.2021 72.1125 25.2176 72.1579 25.2469C72.2199 25.2869 72.2435 25.3388 72.2287 25.4024C72.2133 25.4627 72.165 25.4944 72.0838 25.4976C72.0668 25.5013 72.0349 25.5099 71.988 25.5236C71.9412 25.5372 71.8892 25.552 71.8321 25.5678C71.7785 25.5829 71.7316 25.5966 71.6916 25.6087C71.6712 25.6131 71.6154 25.6269 71.5244 25.6501C71.4333 25.6732 71.3269 25.6996 71.2053 25.7294C71.087 25.7584 70.9739 25.7863 70.8658 25.8131C70.7604 25.8358 70.6839 25.8523 70.6363 25.8625ZM71.4909 26.511C71.4479 26.5593 71.4068 26.5664 71.3674 26.5322C71.3307 26.4939 71.292 26.4133 71.2513 26.2904C71.2253 26.2355 71.1951 26.1531 71.1607 26.0431C71.1291 25.929 71.0956 25.8064 71.0602 25.6752C71.0283 25.5434 70.9978 25.4183 70.9688 25.3001C70.9398 25.1818 70.918 25.0887 70.9034 25.0207C70.8844 24.9323 70.876 24.8523 70.8784 24.7806C70.88 24.7056 70.8938 24.6457 70.9198 24.601C70.9598 24.539 71.0116 24.5154 71.0753 24.5301C71.1389 24.5449 71.1724 24.5928 71.1756 24.674C71.1826 24.6902 71.1913 24.7222 71.2015 24.7698C71.2152 24.8166 71.2299 24.8686 71.2458 24.9257C71.2609 24.9793 71.2745 25.0262 71.2867 25.0662C71.2911 25.0866 71.3048 25.1424 71.328 25.2334C71.3511 25.3245 71.3776 25.4309 71.4073 25.5525C71.4363 25.6708 71.4625 25.7843 71.486 25.8931C71.512 25.9977 71.5302 26.0739 71.5404 26.1215C71.5448 26.1419 71.5486 26.1677 71.5518 26.1991C71.5584 26.2297 71.5589 26.2651 71.5534 26.3054C71.5643 26.3564 71.5612 26.3998 71.544 26.4355C71.5294 26.4671 71.5117 26.4923 71.4909 26.511Z" fill="#1A1A1A"/>
<path d="M76.3129 48.7275C76.2993 48.7304 76.2803 48.7327 76.2557 48.7344C76.2346 48.7354 76.2158 48.7306 76.1992 48.7199C76.1856 48.7229 76.1607 48.7229 76.1246 48.72C76.0884 48.7171 76.0552 48.7118 76.0251 48.704C75.9882 48.6978 75.9364 48.6804 75.8698 48.6521C75.8025 48.6203 75.7345 48.5852 75.6657 48.5466C75.597 48.508 75.5374 48.4711 75.4871 48.4356C75.4402 48.3995 75.4145 48.3712 75.4102 48.3508C75.4065 48.3338 75.3962 48.3272 75.3792 48.3308C75.3792 48.3308 75.373 48.3268 75.3606 48.3188C75.3475 48.3074 75.3394 48.2949 75.3365 48.2813C75.3292 48.2473 75.3085 48.234 75.2745 48.2413C75.2745 48.2413 75.2559 48.2702 75.2185 48.328C75.1846 48.3851 75.1409 48.455 75.0875 48.5376C75.0128 48.6533 74.9564 48.7384 74.9183 48.7928C74.8829 48.8431 74.8516 48.8712 74.8244 48.8771C74.7972 48.8829 74.759 48.8787 74.7096 48.8644C74.663 48.846 74.6179 48.8183 74.5744 48.7815C74.5343 48.7438 74.5077 48.6944 74.4945 48.6332C74.4945 48.6332 74.5201 48.5868 74.5712 48.494C74.6258 48.4005 74.6919 48.3026 74.7695 48.2006L74.9726 47.8794L74.8748 47.6977C74.8393 47.6484 74.8017 47.5978 74.7621 47.5459C74.7251 47.4898 74.6954 47.4428 74.673 47.405C74.6198 47.3559 74.59 47.325 74.5837 47.3121C74.58 47.2951 74.5874 47.2633 74.6058 47.2167C74.6272 47.1836 74.6655 47.1469 74.7209 47.1065C74.7789 47.062 74.8312 47.049 74.8779 47.0674C74.8983 47.063 74.9317 47.0861 74.9781 47.1366C75.0238 47.1836 75.0676 47.2382 75.1094 47.3004C75.1539 47.3584 75.1791 47.401 75.1849 47.4282C75.1966 47.4826 75.2131 47.5093 75.2342 47.5083C75.2587 47.5066 75.3059 47.4697 75.3758 47.3978C75.4086 47.3516 75.4343 47.3141 75.4529 47.2851C75.4709 47.2528 75.4799 47.2367 75.4799 47.2367C75.4879 47.2243 75.513 47.1922 75.5552 47.1404C75.5974 47.0886 75.641 47.0348 75.6858 46.9789C75.7307 46.923 75.7609 46.8898 75.7765 46.8794C75.7993 46.8531 75.8333 46.8458 75.8785 46.8574C75.9229 46.8656 75.9645 46.8852 76.0031 46.916C76.0444 46.9427 76.0691 46.9747 76.0772 47.0121C76.0859 47.0529 76.0839 47.1013 76.0711 47.1575C76.0575 47.2102 76.0208 47.2625 75.9608 47.3146C75.9092 47.3719 75.8692 47.4179 75.8411 47.4524C75.8164 47.4862 75.7906 47.5237 75.764 47.565C75.7365 47.603 75.6924 47.6623 75.6315 47.7429L75.522 47.8786L75.6332 47.9987C75.6519 48.0196 75.6765 48.0427 75.7068 48.0682C75.7406 48.093 75.7709 48.1096 75.7976 48.118C75.8238 48.1409 75.8672 48.1689 75.9277 48.2021C75.9875 48.2319 76.0448 48.2587 76.0998 48.2825C76.1547 48.3062 76.1855 48.3174 76.1923 48.3159C76.2059 48.313 76.2223 48.3148 76.2415 48.3213C76.2607 48.3279 76.2837 48.3354 76.3104 48.3438C76.3434 48.3652 76.3649 48.4068 76.3746 48.4688C76.3837 48.5273 76.3818 48.5846 76.3689 48.6407C76.3588 48.6927 76.3401 48.7216 76.3129 48.7275Z" fill="#1A1A1A"/>
</svg>
