<svg width="1187" height="403" viewBox="0 0 1187 403" fill="none" xmlns="http://www.w3.org/2000/svg">
<rect width="526.789" height="361.074" rx="10.4395" transform="matrix(0.999578 -0.0290554 0.0234774 0.999724 2 27.3066)" fill="#18406F"/>
<rect width="526.789" height="361.074" rx="10.4395" transform="matrix(0.999578 -0.0290554 0.0234774 0.999724 27.1211 42.0254)" fill="#D7EAFF"/>
<line y1="-0.521974" x2="25.2055" y2="-0.521974" transform="matrix(0.925326 -0.38405 0.378787 0.923471 514.528 57.4126)" stroke="#878787" stroke-width="1.04395"/>
<circle cx="5.21974" cy="5.21974" r="5.21974" transform="matrix(0.502209 -0.867616 0.864577 0.49753 534.62 47.0801)" fill="#C25E5F"/>
<rect width="526.77" height="344.972" rx="10.4395" transform="matrix(0.999615 -0.02776 0.0245732 0.999698 624 15.1221)" fill="#186E68"/>
<rect width="526.79" height="361.07" rx="10.4395" transform="matrix(0.99958 -0.0289684 0.0257817 0.999668 650.099 32.4458)" fill="#DAFFED"/>
<line y1="-0.521974" x2="25.2055" y2="-0.521974" transform="matrix(0.924505 -0.383948 0.38094 0.923449 1137.57 47.8735)" stroke="#878787" stroke-width="1.04395"/>
<circle cx="5.21974" cy="5.21974" r="5.21974" transform="matrix(0.500246 -0.867522 0.865783 0.497574 1157.64 37.543)" fill="#C25E5F"/>
</svg>
