<svg width="1440" height="783" viewBox="0 0 1440 783" fill="none" xmlns="http://www.w3.org/2000/svg">
<g clip-path="url(#clip0_253_73484)">
<path d="M1404.15 553.552C1404.46 553.393 1404.82 553.408 1405.12 553.592L1429.23 568.868C1429.52 569.052 1429.69 569.377 1429.68 569.721C1429.66 570.064 1429.47 570.374 1429.16 570.534L1403.87 583.78C1403.57 583.94 1403.2 583.925 1402.91 583.741C1402.62 583.557 1402.45 583.231 1402.47 582.888L1403.64 554.366L1403.65 554.238C1403.7 553.947 1403.89 553.692 1404.15 553.552Z" stroke="#423546" stroke-width="1.92528" stroke-linejoin="round"/>
<rect x="1416.58" y="584.657" width="29.6686" height="19.4943" transform="rotate(-28.7902 1416.58 584.657)" stroke="#423546" stroke-width="1.92528" stroke-linejoin="round"/>
<circle cx="1434.22" cy="553.696" r="9.73337" stroke="#423546" stroke-width="1.92528"/>
<path d="M772.92 701.159C784.674 699.93 811.58 698.627 825.172 703.243M772.92 701.159C772.023 702.57 769.875 718.096 768.913 725.682C768.913 727.349 808.236 729.582 827.897 730.491C830.077 727.798 826.989 711.203 825.172 703.243M772.92 701.159C766.562 714.623 755.353 746.839 761.38 767.997L767.15 773.286C781.789 776.278 812.478 781.364 818.12 777.774C822.661 772.324 831.359 755.238 829.82 730.491L825.172 703.243M782.377 757.258C781.095 760.463 778.915 767.516 780.453 770.08C790.498 772.752 810.843 776.492 811.869 770.08V760.463C805.938 758.326 791.737 754.693 782.377 757.258Z" stroke="white" stroke-opacity="0.75" stroke-width="0.961691"/>
<path d="M779.652 740.105L782.056 721.673C783.979 720.262 787.452 721.085 788.948 721.673C788.948 723.853 786.597 735.297 785.422 740.746C785.166 742.157 781.468 740.907 779.652 740.105Z" fill="white" fill-opacity="0.75" stroke="white" stroke-opacity="0.75" stroke-width="0.961691"/>
<path d="M808.523 741.264L808.582 722.676C810.312 721.034 813.861 721.412 815.419 721.806C815.694 723.968 814.806 735.618 814.328 741.172C814.252 742.603 810.426 741.83 808.523 741.264Z" fill="white" fill-opacity="0.75" stroke="white" stroke-opacity="0.75" stroke-width="0.961691"/>
<path d="M749.999 769.6C743.268 766.875 731.086 751.327 772.759 701.8L766.028 718.309C761.219 730.598 751.602 756.264 751.602 760.624C751.602 764.983 757.426 764.364 760.418 763.509L761.38 767.837L763.463 770.401C761.433 770.935 755.385 771.779 749.999 769.6Z" stroke="white" stroke-opacity="0.75" stroke-width="0.961691"/>
<path d="M935.004 122.335L937.74 112.829L946.068 118.77L957.965 117.226L952.849 126.494L956.656 136.119C955.133 135.929 949.835 134.693 947.377 134.099L935.004 144.674C932.815 145.72 934.806 137.109 936.075 132.673C936.075 132.102 929.016 130.217 925.487 129.346C924.154 128.49 931.276 124.315 935.004 122.335Z" stroke="white" stroke-opacity="0.81" stroke-width="1.41922"/>
<path d="M748.689 425.479C757.455 424.274 779.083 424.595 795.465 435.516L782.817 499.356C782.686 499.307 782.552 499.258 782.416 499.207M748.689 425.479L733.231 486.307M748.689 425.479C746.347 425.613 741.341 426.442 740.057 428.691L725 488.515M733.231 486.307C729.698 485.853 726.271 487.59 725 488.515M733.231 486.307C748.92 487.892 772.283 495.471 782.416 499.207M725 488.515L775.59 502.769C776.661 501.8 779.525 499.731 782.416 499.207" stroke="white" stroke-opacity="0.71" stroke-width="1.60603"/>
<path d="M755.028 442.837L754.886 443.368L753.22 442.922L753.363 442.39L755.028 442.837ZM754.327 439.672L753.441 442.981L752.759 442.798L753.645 439.49L754.327 439.672ZM757.447 440.508L756.56 443.817L755.881 443.635L756.767 440.326L757.447 440.508ZM760.055 441.207L759.168 444.516L758.489 444.334L759.375 441.025L760.055 441.207ZM761.073 441.48L760.93 442.014L758.23 441.291L758.373 440.757L761.073 441.48ZM763.496 445.106L763.354 445.637L761.592 445.165L761.735 444.634L763.496 445.106ZM762.702 441.916L761.815 445.225L761.133 445.042L762.02 441.734L762.702 441.916ZM763.65 443.615L763.511 444.133L761.979 443.722L762.118 443.204L763.65 443.615ZM764.238 442.328L764.095 442.862L762.336 442.391L762.479 441.857L764.238 442.328ZM765.196 442.585L766.43 442.915C766.683 442.983 766.89 443.079 767.052 443.204C767.215 443.329 767.326 443.479 767.384 443.653C767.443 443.828 767.443 444.024 767.385 444.241C767.338 444.418 767.267 444.562 767.172 444.673C767.079 444.783 766.967 444.866 766.835 444.921C766.705 444.976 766.561 445.009 766.402 445.02L766.156 445.075L765.083 444.788L765.221 444.255L766.019 444.469C766.139 444.501 766.243 444.506 766.334 444.485C766.424 444.464 766.499 444.42 766.558 444.355C766.62 444.29 766.664 444.208 766.69 444.108C766.719 444.002 766.724 443.905 766.705 443.817C766.686 443.729 766.642 443.654 766.573 443.592C766.504 443.529 766.408 443.482 766.287 443.449L765.735 443.302L764.991 446.076L764.31 445.893L765.196 442.585ZM766.159 446.389L765.8 444.712L766.522 444.901L766.897 446.553L766.889 446.585L766.159 446.389ZM769.93 444.46L768.295 446.961L767.57 446.767L769.686 443.788L770.147 443.911L769.93 444.46ZM769.942 447.403L769.775 444.418L769.854 443.833L770.32 443.958L770.67 447.598L769.942 447.403ZM770.232 446.16L770.089 446.694L768.341 446.226L768.484 445.692L770.232 446.16ZM773.619 444.842L772.732 448.15L772.053 447.968L772.94 444.66L773.619 444.842ZM774.637 445.114L774.494 445.648L771.794 444.925L771.937 444.391L774.637 445.114ZM777.411 445.858L778.091 446.04L777.505 448.226C777.437 448.48 777.325 448.68 777.169 448.825C777.015 448.971 776.83 449.062 776.616 449.098C776.403 449.135 776.173 449.121 775.926 449.055C775.679 448.989 775.471 448.886 775.302 448.746C775.135 448.607 775.02 448.436 774.958 448.233C774.897 448.03 774.901 447.801 774.969 447.546L775.555 445.36L776.236 445.543L775.651 447.729C775.611 447.878 775.602 448.005 775.624 448.112C775.645 448.218 775.694 448.305 775.77 448.373C775.848 448.44 775.947 448.491 776.069 448.523C776.193 448.556 776.304 448.563 776.402 448.542C776.502 448.521 776.587 448.47 776.658 448.389C776.73 448.307 776.786 448.192 776.825 448.044L777.411 445.858ZM779.21 446.34L780.444 446.671C780.697 446.738 780.905 446.834 781.066 446.959C781.229 447.084 781.34 447.234 781.399 447.408C781.457 447.583 781.458 447.779 781.4 447.996C781.352 448.173 781.281 448.317 781.186 448.428C781.093 448.538 780.981 448.621 780.849 448.676C780.719 448.731 780.575 448.764 780.416 448.775L780.17 448.83L779.097 448.543L779.235 448.01L780.033 448.224C780.153 448.256 780.258 448.261 780.348 448.24C780.438 448.219 780.513 448.175 780.572 448.11C780.634 448.045 780.678 447.963 780.704 447.863C780.733 447.757 780.738 447.66 780.719 447.572C780.7 447.484 780.656 447.409 780.587 447.347C780.518 447.284 780.422 447.237 780.301 447.205L779.749 447.057L779.006 449.831L778.324 449.649L779.21 446.34ZM780.174 450.144L779.814 448.467L780.536 448.656L780.912 450.308L780.903 450.34L780.174 450.144ZM784.226 450.66L784.084 451.192L782.323 450.72L782.465 450.188L784.226 450.66ZM783.432 447.471L782.545 450.78L781.864 450.597L782.75 447.288L783.432 447.471ZM784.38 449.169L784.241 449.687L782.709 449.277L782.848 448.759L784.38 449.169ZM784.968 447.883L784.825 448.417L783.066 447.945L783.209 447.411L784.968 447.883Z" fill="white" fill-opacity="0.71"/>
<circle cx="822.979" cy="252.969" r="6.36307" stroke="white" stroke-opacity="0.73" stroke-width="1.75533"/>
<circle cx="839.655" cy="259.991" r="6.36307" stroke="white" stroke-opacity="0.73" stroke-width="1.75533"/>
<circle cx="842.288" cy="275.79" r="3.73007" stroke="white" stroke-opacity="0.73" stroke-width="1.75533"/>
<path d="M1263.91 764.351L1325.59 742.999V788.805M1263.91 764.351V811.434M1263.91 764.351L1263 811.069C1263.18 811.191 1263.58 811.434 1263.73 811.434L1263.91 812.529C1264.06 812.675 1295.12 825.972 1310.63 832.603C1311 832.603 1370.12 806.689 1370.31 806.507C1370.45 806.361 1370.49 805.716 1370.49 805.412M1325.59 788.805L1370.49 805.412M1325.59 788.805L1263.91 811.434M1370.49 805.412L1310.81 831.691L1263.91 811.434" stroke="white" stroke-opacity="0.4" stroke-width="0.912461"/>
<path d="M1268.84 766.724L1322.67 747.745V784.79L1268.84 805.412V770.921" stroke="white" stroke-opacity="0.4" stroke-width="0.729969"/>
<path d="M1329.07 285.195C1273.15 299.829 1303.58 363.494 1341.68 357.015C1405.09 346.233 1375.85 272.951 1329.07 285.195Z" stroke="white" stroke-opacity="0.78" stroke-width="1.462"/>
<path d="M1346.43 362.296C1405.44 348.257 1392.1 269.653 1328.34 279.165L1329.43 284.83M1346.43 362.296C1347.47 369.308 1349.76 383.588 1350.63 384.612C1351.73 385.891 1357.21 386.074 1360.32 387.536C1362.8 388.705 1361.35 391.19 1360.32 392.287L1339.49 395.211C1338.75 395.637 1337.18 395.65 1336.74 392.287C1336.2 388.084 1343.87 387.353 1344.42 384.612C1344.86 382.419 1341.31 369.687 1339.49 363.595C1340.75 363.419 1341.99 363.216 1343.2 362.986M1346.43 362.296C1345.38 362.547 1344.3 362.777 1343.2 362.986M1342.23 357.016L1343.2 362.986" stroke="white" stroke-opacity="0.78" stroke-width="1.462"/>
<path d="M1336.38 310.233C1333.89 308.625 1328.76 309.563 1326.51 310.233L1323.59 310.964L1322.67 313.34C1322.06 314.01 1320.66 315.35 1319.93 315.35C1319.2 315.35 1318.53 317.665 1318.29 318.822L1320.84 321.381C1321.45 322.477 1323 324.378 1324.32 323.208C1325.96 321.746 1327.61 322.843 1329.07 323.208C1330.53 323.574 1330.9 326.315 1330.9 327.412C1330.9 328.289 1332.36 329.239 1333.09 329.605V332.894L1335.28 335.27L1336.38 338.559C1337.23 339.168 1338.94 340.204 1338.94 339.473C1338.94 338.559 1339.49 338.194 1340.22 338.559C1340.8 338.852 1342.17 336.488 1342.77 335.27V330.518V324.67C1342.77 322.623 1344.85 320.528 1345.88 319.736C1346.43 318.64 1347.2 316.227 1345.88 315.35C1344.24 314.254 1345.88 313.705 1345.88 312.061V309.319L1342.77 310.233C1341.68 310.903 1338.86 311.841 1336.38 310.233Z" stroke="white" stroke-opacity="0.78" stroke-width="0.730998"/>
<path d="M1357.58 304.933C1356.55 304.494 1355.32 306.334 1354.84 307.309C1354.17 308.831 1352.64 311.914 1351.91 312.06C1351 312.243 1353.19 316.446 1354.84 316.629C1356.48 316.812 1357.58 321.746 1359.04 322.842C1360.5 323.939 1361.23 324.67 1363.06 325.035C1364.89 325.401 1365.25 321.38 1365.25 319.736C1365.25 318.091 1368.36 316.446 1369.27 315.167C1370.19 313.888 1369.09 309.684 1368.36 309.684C1367.63 309.684 1366.71 309.684 1365.25 307.309C1363.79 304.933 1360.87 307.309 1359.95 307.309C1359.04 307.309 1358.86 305.481 1357.58 304.933Z" stroke="white" stroke-opacity="0.78" stroke-width="0.730998"/>
<path d="M1326.14 307.309L1321.94 304.933H1319.38L1318.47 302.009C1318.83 300.851 1319.86 298.756 1321.03 299.633C1322.49 300.73 1322.67 296.344 1321.94 295.247C1321.36 294.37 1321.7 292.81 1321.94 292.14H1325.05C1325.78 291.409 1327.57 289.691 1328.89 288.668C1330.2 287.645 1335.28 288.242 1337.66 288.668C1340 287.645 1342.04 289.095 1342.77 289.947L1345.15 292.14C1349.24 291.702 1350.27 294.029 1350.27 295.247L1351.91 297.075C1351.91 297.684 1351.4 298.829 1349.35 298.537C1347.31 298.244 1345.7 299.999 1345.15 300.912V302.923H1342.77C1342.17 303.593 1340.55 304.75 1338.94 304.019C1336.93 303.105 1331.63 304.933 1330.35 304.933C1329.32 304.933 1327.12 306.517 1326.14 307.309Z" stroke="white" stroke-opacity="0.78" stroke-width="0.730998"/>
<path d="M1310.61 296.892C1309.3 296.599 1308.11 299.085 1307.69 300.364L1306.04 303.288C1305.49 303.714 1304.11 305.042 1302.94 306.943C1301.47 309.319 1304.58 312.425 1304.4 311.329C1304.25 310.452 1306.53 309.745 1307.69 309.501L1310.61 307.857C1311.1 307.065 1312 305.298 1311.71 304.567C1311.42 303.836 1313.41 303.41 1314.45 303.288C1315.06 302.313 1316.2 300.364 1315.91 300.364C1315.62 300.364 1316.89 298.049 1317.56 296.892L1320.11 295.064V291.409H1317.56L1314.45 292.871L1313.17 295.064C1312.86 295.795 1311.93 297.184 1310.61 296.892Z" stroke="white" stroke-opacity="0.78" stroke-width="0.730998"/>
<path d="M1310.61 323.025C1309.73 321.417 1306.1 320.405 1304.4 320.101L1302.94 323.025L1305.13 327.411C1305.43 329.421 1306.04 333.88 1306.04 335.634C1306.04 337.389 1307.75 339.411 1308.6 340.203L1310.61 339.107C1310.98 337.767 1311.71 334.757 1311.71 333.441C1311.71 331.797 1314.45 330.517 1315.91 327.776C1317.08 325.583 1315.42 323.695 1314.45 323.025C1313.53 323.695 1311.49 324.633 1310.61 323.025Z" stroke="white" stroke-opacity="0.78" stroke-width="0.730998"/>
<path d="M1201.43 132.131L1202.14 113L1216.49 116.543L1216.32 137.091" stroke="#FFFDFD" stroke-opacity="0.6" stroke-width="1.77142" stroke-linejoin="bevel"/>
<circle cx="1199.66" cy="131.953" r="2.65712" fill="white"/>
<circle cx="1199.66" cy="131.953" r="2.47998" stroke="#FFFDFD" stroke-opacity="0.6" stroke-width="0.354283"/>
<circle cx="1214.54" cy="137.267" r="2.65712" fill="white"/>
<circle cx="1214.54" cy="137.267" r="2.47998" stroke="#FFFDFD" stroke-opacity="0.6" stroke-width="0.354283"/>
<circle cx="1225.52" cy="146.48" r="2.65712" fill="white"/>
<circle cx="1225.52" cy="146.48" r="2.47998" stroke="#FFFDFD" stroke-opacity="0.6" stroke-width="0.354283"/>
<path d="M1227.29 146.303L1229.24 127.526L1233.14 129.297" stroke="#FFFDFD" stroke-opacity="0.6" stroke-width="1.77142" stroke-linejoin="bevel"/>
<circle cx="1237.01" cy="149.168" r="1.74238" fill="white"/>
<circle cx="1237.01" cy="149.168" r="1.56523" stroke="#FFFDFD" stroke-opacity="0.6" stroke-width="0.354283"/>
<path d="M1238.17 149.051L1239.44 136.738L1242 137.9" stroke="#FFFDFD" stroke-opacity="0.6" stroke-width="1.77142" stroke-linejoin="bevel"/>
<path d="M520.166 454.428C439.28 451.581 283.746 452.063 203.91 454.554C167.551 455.688 100.505 458.976 141.302 462.079C148.498 462.626 157.245 463.071 166.294 463.456C265.888 467.691 404.794 467.259 511.68 464.726C527.621 464.348 543.307 463.899 557.739 463.289C568.533 462.833 578.968 462.268 587.373 461.608C611.979 459.677 605.551 457.734 579.078 456.097C548.385 454.199 506.412 453.611 466.808 453.288C432.177 453.007 397.589 452.953 362.794 453.068C297.539 453.283 222.336 453.626 167.606 456.221C143.702 457.355 118.019 459.777 138.51 461.737C160.714 463.861 213.069 464.549 248.283 464.997C343.281 466.207 493.592 465.607 580.123 462.434C589.454 462.092 598.907 461.773 607.254 461.323C613.85 460.967 620.165 460.562 625.644 460.123C664.467 457.013 577.835 455.058 547.282 454.722C451.168 453.666 308.914 452.142 220.397 454.952" stroke="#D2D2EA" stroke-width="1.07" stroke-miterlimit="1.5" stroke-linecap="round" stroke-linejoin="round"/>
<g clip-path="url(#clip1_253_73484)">
<path d="M319.535 454.581C319.73 454.691 319.971 454.236 320.568 452.646C321.198 450.962 321.276 450.568 321.011 450.523C320.645 450.466 319.224 454.394 319.535 454.581Z" fill="white"/>
<path d="M311.9 452.405C311.612 453.011 311.679 453.138 312.821 454.165C313.999 455.227 314.252 455.379 314.47 455.175C314.862 454.803 314.64 454.422 313.248 453.035C312.221 452.013 312.113 451.958 311.9 452.405Z" fill="white"/>
<path d="M315.574 450.047C315.361 450.48 315.372 450.68 315.644 451.438C316.461 453.686 316.866 455.356 317.263 454.505C317.427 454.159 317.319 453.726 316.451 451.065C315.965 449.596 315.862 449.47 315.574 450.047Z" fill="white"/>
</g>
<g filter="url(#filter0_d_253_73484)">
<path d="M331.746 465.33C331.746 465.545 331.853 464.732 332.191 464.195C332.462 463.389 333.334 462.957 334.139 463.228C334.944 463.499 335.377 464.371 335.106 465.177C335.106 466.174 335.106 466.128 335.106 466.803C335.106 467.478 335.106 468.077 335.106 468.644C335.051 469.542 334.928 470.435 334.738 471.314C334.492 472.094 334.141 472.838 333.694 473.524C332.949 474.352 332.334 475.288 331.868 476.301C331.755 476.804 331.703 477.319 331.715 477.835C331.714 478.312 331.775 478.787 331.899 479.247C331.272 479.313 330.639 479.313 330.012 479.247C329.413 479.155 328.677 477.958 328.477 477.59C328.379 477.392 328.177 477.267 327.956 477.267C327.735 477.267 327.533 477.392 327.434 477.59C327.096 478.173 326.345 479.232 325.9 479.293C324.872 479.416 322.739 479.293 321.082 479.293C321.082 479.293 321.358 477.759 320.729 477.206C320.1 476.654 319.455 476.009 318.979 475.58L317.706 474.168C316.807 473.335 316.15 472.275 315.803 471.099C315.481 469.657 315.512 468.951 315.803 468.383C316.101 467.902 316.565 467.547 317.108 467.386C317.558 467.306 318.022 467.337 318.458 467.478C318.759 467.603 319.02 467.811 319.21 468.077C319.563 468.552 319.67 468.782 319.532 468.261C319.394 467.739 319.225 466.956 318.903 465.882C318.581 464.808 318.381 464.563 318.182 463.995C317.982 463.427 317.721 462.89 317.414 462.184C317.134 461.463 316.898 460.725 316.709 459.975C316.572 459.347 316.718 458.691 317.108 458.18C317.658 457.642 318.453 457.438 319.194 457.643C319.776 457.896 320.268 458.318 320.606 458.855C321.059 459.579 321.429 460.351 321.711 461.156C322.218 462.473 322.578 463.842 322.785 465.238C322.755 464.414 322.827 463.589 323 462.783C323.17 462.285 323.561 461.895 324.058 461.724C324.515 461.584 324.999 461.552 325.47 461.632C325.946 461.732 326.367 462.005 326.651 462.399C327.006 463.295 327.203 464.245 327.235 465.207C327.256 464.388 327.374 463.574 327.587 462.783C327.845 462.423 328.219 462.162 328.646 462.046C329.154 461.955 329.673 461.955 330.181 462.046C330.597 462.185 330.96 462.448 331.224 462.798C331.55 463.612 331.746 464.471 331.807 465.345" fill="#FFCD5B"/>
<path d="M316.706 457.767C317.403 457.088 318.408 456.829 319.424 457.115C320.111 457.414 320.693 457.914 321.094 458.55C321.569 459.31 321.959 460.12 322.248 460.949C322.4 461.344 322.539 461.745 322.666 462.148C322.941 461.699 323.368 461.352 323.89 461.174C324.432 461.007 325.006 460.97 325.588 461.069C326.204 461.198 326.75 461.552 327.186 462.187C327.202 462.226 327.217 462.264 327.231 462.303C327.559 461.91 328.005 461.625 328.544 461.48C329.119 461.376 329.708 461.376 330.363 461.501C330.889 461.677 331.35 462.008 331.683 462.452L331.763 462.597C331.855 462.845 331.937 463.097 332.008 463.352C332.548 462.688 333.464 462.393 334.323 462.682C335.397 463.044 335.989 464.185 335.682 465.264V466.803C335.682 467.777 335.682 467.777 335.681 468.68C335.623 469.606 335.496 470.528 335.286 471.487C335.024 472.317 334.651 473.108 334.122 473.908C333.416 474.693 332.832 475.581 332.43 476.428C332.326 476.885 332.279 477.353 332.29 477.837C332.289 478.262 332.345 478.686 332.455 479.098C332.547 479.439 332.311 479.782 331.959 479.819C331.292 479.889 330.618 479.889 329.924 479.815C329.187 479.702 328.499 478.836 327.963 477.847C327.345 478.891 326.613 479.775 325.968 479.864C325.357 479.937 324.662 479.937 322.826 479.895C322.739 479.893 322.738 479.893 322.651 479.891C321.928 479.875 321.503 479.868 321.082 479.868C320.723 479.868 320.452 479.544 320.516 479.191C320.521 479.161 320.53 479.098 320.54 479.01C320.57 478.743 320.577 478.464 320.55 478.215C320.517 477.921 320.44 477.719 320.349 477.639C320.268 477.567 320.267 477.566 320.186 477.494C320.056 477.377 319.919 477.252 319.77 477.113C319.67 477.02 318.798 476.191 318.553 475.965L317.314 474.59C316.34 473.686 315.628 472.536 315.242 471.224C314.905 469.715 314.912 468.859 315.313 468.081C315.685 467.479 316.266 467.035 317.007 466.819C317.525 466.727 318.058 466.757 318.599 466.922C318.522 466.63 318.441 466.346 318.351 466.048C318.176 465.462 318.141 465.374 317.825 464.652C317.749 464.479 317.693 464.342 317.64 464.188C317.611 464.106 317.581 464.026 317.549 463.942C317.471 463.74 317.382 463.533 317.252 463.238C317.214 463.154 316.964 462.592 316.878 462.392C316.589 461.649 316.346 460.889 316.146 460.097C315.974 459.304 316.159 458.476 316.706 457.767ZM319.041 458.197C318.497 458.047 317.914 458.197 317.565 458.528C317.278 458.905 317.17 459.39 317.266 459.834C317.45 460.561 317.679 461.277 317.942 461.955C318.019 462.132 318.266 462.688 318.304 462.771C318.441 463.081 318.536 463.304 318.622 463.526C318.659 463.621 318.693 463.713 318.724 463.802C318.769 463.93 318.814 464.041 318.879 464.19C319.213 464.953 319.261 465.074 319.454 465.717C319.598 466.198 319.719 466.644 319.844 467.138C319.87 467.242 320.046 467.956 320.088 468.113C320.133 468.283 320.155 468.38 320.163 468.469C320.203 468.589 320.202 468.589 319.891 469.044C319.239 469.091 319.239 469.091 319.155 468.957C319.084 468.888 318.775 468.46 318.741 468.411C318.614 468.233 318.439 468.093 318.28 468.025C317.934 467.913 317.566 467.888 317.27 467.937C316.864 468.058 316.516 468.325 316.315 468.646C316.087 469.092 316.081 469.703 316.355 470.936C316.673 472.012 317.274 472.983 318.133 473.782L319.365 475.152C319.582 475.348 320.465 476.187 320.556 476.271C320.699 476.405 320.83 476.526 320.955 476.638C321.032 476.706 321.032 476.706 321.108 476.773C321.46 477.082 321.633 477.536 321.693 478.089C321.716 478.297 321.722 478.511 321.715 478.723C321.98 478.726 322.286 478.732 322.677 478.741C322.764 478.743 322.764 478.743 322.851 478.745C324.613 478.785 325.3 478.785 325.821 478.723C325.936 478.705 326.558 477.954 326.919 477.333C327.115 476.94 327.517 476.691 327.956 476.691C328.395 476.691 328.796 476.94 328.983 477.315C329.315 477.928 329.886 478.645 330.072 478.675C330.448 478.714 330.826 478.729 331.203 478.718C331.16 478.427 331.139 478.136 331.14 477.848C331.127 477.286 331.183 476.723 331.346 476.06C331.835 474.995 332.483 474.01 333.212 473.21C333.63 472.568 333.958 471.871 334.175 471.192C334.358 470.341 334.478 469.478 334.53 468.644V465.177L334.56 464.993C334.73 464.489 334.459 463.943 333.955 463.773C333.451 463.604 332.905 463.875 332.678 464.501C332.63 464.577 332.583 464.671 332.538 464.779C332.47 464.945 332.416 465.114 332.359 465.331C332.333 465.432 332.319 465.489 332.305 465.531C332.293 465.565 332.293 465.565 332.253 465.646C332.16 465.895 332.159 465.895 331.32 465.749C331.151 465.368 331.15 465.364 331.17 465.331C331.129 464.563 330.975 463.805 330.715 463.082C330.527 462.856 330.285 462.687 330.078 462.612C329.638 462.533 329.188 462.533 328.797 462.601C328.529 462.674 328.29 462.828 328.114 463.041C327.931 463.754 327.828 464.485 327.809 465.222C327.79 465.966 326.683 465.97 326.659 465.225C326.63 464.329 326.446 463.445 326.184 462.736C325.984 462.458 325.687 462.265 325.374 462.199C324.991 462.134 324.598 462.16 324.245 462.268C323.916 462.381 323.657 462.64 323.562 462.903C323.4 463.663 323.331 464.44 323.359 465.217C323.385 465.942 322.322 466.04 322.216 465.322C322.015 463.968 321.665 462.64 321.167 461.346C320.899 460.58 320.548 459.847 320.119 459.161C319.842 458.722 319.44 458.377 319.041 458.197Z" fill="white"/>
<path d="M330.81 474.561V469.264C330.81 468.947 330.552 468.69 330.234 468.69C329.917 468.69 329.659 468.947 329.659 469.264V474.561C329.659 474.878 329.917 475.135 330.234 475.135C330.552 475.135 330.81 474.878 330.81 474.561Z" fill="white"/>
<path d="M327.756 474.561L327.741 469.261C327.74 468.945 327.482 468.69 327.164 468.69C326.846 468.691 326.589 468.948 326.59 469.265L326.605 474.564C326.606 474.88 326.865 475.136 327.182 475.135C327.5 475.134 327.757 474.877 327.756 474.561Z" fill="white"/>
<path d="M323.521 469.273L323.552 474.559C323.554 474.879 323.813 475.137 324.131 475.135C324.448 475.133 324.705 474.872 324.703 474.552L324.672 469.267C324.67 468.947 324.411 468.689 324.093 468.69C323.775 468.692 323.519 468.953 323.521 469.273Z" fill="white"/>
</g>
<path d="M527.798 435.406L525.186 434.564C523.516 434.013 522.537 432.661 522.078 430.962L520.928 425.363C520.898 425.253 520.825 425.104 520.6 425.104C520.411 425.104 520.302 425.253 520.272 425.363L519.123 430.964C518.661 432.663 517.684 434.014 516.014 434.566L513.402 435.408C513.033 435.528 513.027 436.049 513.394 436.174L516.025 437.08C517.69 437.633 518.661 438.983 519.123 440.674L520.274 446.211C520.304 446.322 520.366 446.521 520.602 446.521C520.851 446.521 520.9 446.322 520.93 446.211L522.081 440.674C522.543 438.981 523.514 437.631 525.179 437.08L527.809 436.174C528.173 436.047 528.168 435.526 527.798 435.406Z" fill="#FDD835"/>
<path d="M528.045 435.641C528.004 435.537 527.924 435.447 527.798 435.406L525.186 434.564C523.515 434.013 522.537 432.661 522.077 430.962L520.928 425.364C520.911 425.3 520.851 425.184 520.782 425.15L521.153 430.769C521.429 433.334 521.665 434.542 523.712 434.894C525.471 435.198 527.505 435.547 528.045 435.641Z" fill="#FFEE58"/>
<path d="M528.051 435.933L523.521 436.971C521.926 437.376 521.046 438.301 521.046 440.719L520.602 446.521C520.754 446.506 520.877 446.423 520.93 446.211L522.081 440.674C522.542 438.981 523.514 437.631 525.179 437.08L527.809 436.174C527.933 436.129 528.012 436.038 528.051 435.933Z" fill="#F4B400"/>
<path d="M512.839 440.277C511.277 439.761 511.135 439.18 510.872 438.2L510.218 435.905C510.179 435.756 509.792 435.756 509.751 435.905L509.307 438.025C509.042 439.002 508.48 439.778 507.52 440.095L505.99 440.759C505.778 440.828 505.774 441.128 505.986 441.2L507.527 441.745C508.484 442.062 509.042 442.838 509.309 443.811L509.753 445.84C509.794 445.988 510.179 445.988 510.218 445.84L510.739 443.821C511.004 442.842 511.409 442.064 512.708 441.745L514.156 441.2C514.367 441.126 514.366 440.826 514.152 440.757L512.839 440.277Z" fill="#FDD835"/>
<path d="M510.342 438.166C510.501 439.64 510.582 440.048 511.776 440.354L514.264 440.84C514.238 440.804 514.201 440.774 514.15 440.759L512.837 440.277C511.467 439.808 511.088 439.212 510.831 438.02C510.574 436.827 510.301 436.049 510.301 436.049C510.205 435.792 510.068 435.805 510.068 435.805L510.342 438.166Z" fill="#FFEE58"/>
<path d="M510.387 443.311C510.387 441.921 511.146 441.233 512.354 441.233L514.232 441.156C514.232 441.156 514.124 441.301 513.934 441.346L512.708 441.745C511.667 442.163 511.193 442.373 510.871 443.796C510.871 443.796 510.454 445.452 510.376 445.626C510.267 445.87 510.137 445.921 510.137 445.921L510.387 443.311Z" fill="#F4B400"/>
<path d="M516.201 429.276C516.306 429.24 516.302 429.09 516.195 429.06L514.748 428.67C514.599 428.63 514.463 428.552 514.353 428.443C514.244 428.335 514.164 428.2 514.122 428.051L513.552 425.698C513.524 425.584 513.36 425.584 513.332 425.7L512.796 428.044C512.756 428.196 512.675 428.335 512.563 428.447C512.451 428.558 512.311 428.637 512.159 428.676L510.72 429.049C510.614 429.077 510.606 429.227 510.711 429.265L512.228 429.79C512.5 429.883 512.71 430.105 512.792 430.38L513.334 432.553C513.362 432.666 513.524 432.668 513.552 432.553L514.112 430.373C514.154 430.237 514.227 430.112 514.326 430.01C514.425 429.908 514.548 429.831 514.682 429.786L516.201 429.276Z" fill="#F4B400" stroke="#F4B400" stroke-width="0.1875" stroke-miterlimit="10"/>
<path d="M452.56 818.627C449.121 818.152 446.642 815.177 446.704 811.79C445.844 815.066 442.651 817.257 439.212 816.782C435.772 816.306 433.293 813.331 433.355 809.944C432.495 813.221 429.302 815.412 425.863 814.937C422.15 814.423 419.556 810.998 420.07 807.285C420.073 807.258 420.077 807.232 420.081 807.205L420.081 807.205C422.123 792.434 435.752 782.114 450.523 784.156C465.295 786.198 475.614 799.828 473.572 814.599L473.572 814.599C473.568 814.626 473.565 814.652 473.561 814.679C473.048 818.392 469.622 820.985 465.909 820.472C462.47 819.997 459.991 817.022 460.053 813.635C459.193 816.912 456 819.102 452.56 818.627Z" fill="#005637"/>
<path d="M714.167 -23.981C714.167 -26.8345 711.854 -29.1477 709 -29.1477C706.147 -29.1477 703.833 -26.8345 703.833 -23.981V-18.317L701.035 -23.2415C699.625 -25.7223 696.471 -26.5906 693.99 -25.1808C691.509 -23.771 690.641 -20.617 692.051 -18.1361L695.235 -12.5324L689.632 -15.7168C687.151 -17.1266 683.997 -16.2584 682.587 -13.7775C681.177 -11.2966 682.045 -8.14258 684.526 -6.73277L689.451 -3.93438H683.787C680.933 -3.93438 678.62 -1.62118 678.62 1.23229C678.62 4.08576 680.933 6.39896 683.787 6.39896H689.451L684.526 9.19734C682.045 10.6072 681.177 13.7612 682.587 16.242C683.997 18.7229 687.151 19.5912 689.632 18.1814L695.235 14.997L692.051 20.6007C690.641 23.0815 691.509 26.2356 693.99 27.6454C696.471 29.0552 699.625 28.1869 701.035 25.706L703.833 20.7816V26.4456C703.833 29.2991 706.147 31.6123 709 31.6123C711.854 31.6123 714.167 29.2991 714.167 26.4456V20.7816L716.965 25.706C718.375 28.1869 721.529 29.0552 724.01 27.6454C726.491 26.2356 727.359 23.0815 725.949 20.6007L722.765 14.997L728.369 18.1814C730.849 19.5912 734.003 18.7229 735.413 16.242C736.823 13.7612 735.955 10.6072 733.474 9.19734L728.549 6.39896H734.213C737.067 6.39896 739.38 4.08576 739.38 1.23229C739.38 -1.62118 737.067 -3.93437 734.213 -3.93437H728.549L733.474 -6.73277C735.955 -8.14258 736.823 -11.2966 735.413 -13.7775C734.003 -16.2584 730.849 -17.1266 728.369 -15.7168L722.765 -12.5324L725.949 -18.1361C727.359 -20.617 726.491 -23.771 724.01 -25.1808C721.529 -26.5906 718.375 -25.7223 716.965 -23.2415L714.167 -18.317V-23.981Z" fill="#DEC8FE"/>
<path d="M-3.2091 212.065C0.286387 208.367 10.0967 200.72 21.374 199.713L38.7035 232.886C38.627 232.911 38.5491 232.937 38.47 232.964M-3.2091 212.065L11.7758 244.9M-3.2091 212.065C-4.21073 212.969 -6.15547 215.144 -5.92136 216.615L8.88184 248.855M11.7758 244.9C10.0283 245.97 9.11839 247.982 8.88184 248.855M11.7758 244.9C19.3791 239.959 32.5821 234.939 38.47 232.964M8.88184 248.855L36.6935 237.019C36.8243 236.199 37.3628 234.24 38.47 232.964" stroke="#E8E8E8" stroke-width="0.923584"/>
<path d="M5.53337 216.762L5.66107 217.052L4.75365 217.452L4.62595 217.162L5.53337 216.762ZM4.07916 215.597L4.87373 217.399L4.50234 217.563L3.70777 215.76L4.07916 215.597ZM5.77858 214.848L6.57315 216.65L6.203 216.813L5.40843 215.011L5.77858 214.848ZM7.19947 214.221L7.99403 216.024L7.62388 216.187L6.82931 214.384L7.19947 214.221ZM7.75407 213.977L7.88232 214.268L6.41162 214.916L6.28337 214.625L7.75407 213.977ZM10.1464 214.729L10.2741 215.019L9.31464 215.441L9.18694 215.152L10.1464 214.729ZM8.64139 213.586L9.43596 215.388L9.06457 215.552L8.27 213.749L8.64139 213.586ZM9.67807 214.005L9.80249 214.288L8.96811 214.655L8.84368 214.373L9.67807 214.005ZM9.47825 213.217L9.6065 213.508L8.64832 213.93L8.52007 213.639L9.47825 213.217ZM10.0004 212.986L10.6726 212.69C10.8104 212.629 10.9379 212.598 11.0552 212.595C11.1732 212.593 11.2769 212.62 11.3662 212.677C11.4555 212.734 11.5262 212.822 11.5782 212.94C11.6207 213.037 11.6408 213.127 11.6384 213.211C11.6364 213.293 11.6158 213.371 11.5768 213.443C11.5382 213.515 11.4853 213.581 11.4181 213.643L11.3278 213.757L10.7434 214.015L10.6133 213.726L11.0478 213.535C11.113 213.506 11.162 213.47 11.1947 213.428C11.2274 213.386 11.2454 213.34 11.2487 213.289C11.2528 213.238 11.2428 213.185 11.2188 213.131C11.1933 213.073 11.1606 213.028 11.1206 212.995C11.0806 212.963 11.0338 212.945 10.9802 212.942C10.9267 212.939 10.8669 212.952 10.8008 212.981L10.5 213.114L11.1663 214.625L10.7949 214.789L10.0004 212.986ZM11.8026 214.345L11.0375 213.722L11.4288 213.547L12.1924 214.152L12.2 214.17L11.8026 214.345ZM12.7976 212.122L12.966 213.832L12.5711 214.006L12.4463 211.908L12.6976 211.797L12.7976 212.122ZM13.8636 213.436L12.7134 212.159L12.5379 211.868L12.7917 211.756L14.2597 213.262L13.8636 213.436ZM13.5455 212.775L13.6737 213.066L12.7217 213.486L12.5935 213.195L13.5455 212.775ZM14.5889 210.964L15.3835 212.766L15.0133 212.929L14.2188 211.127L14.5889 210.964ZM15.1435 210.719L15.2718 211.01L13.8011 211.659L13.6728 211.368L15.1435 210.719ZM16.6548 210.053L17.0249 209.89L17.5499 211.081C17.611 211.219 17.6328 211.349 17.6152 211.47C17.5984 211.591 17.5486 211.698 17.4657 211.792C17.3837 211.885 17.2754 211.962 17.1409 212.021C17.0063 212.08 16.8761 212.109 16.7502 212.108C16.6251 212.106 16.5119 212.07 16.4107 212.001C16.3102 211.932 16.2295 211.828 16.1683 211.69L15.6433 210.499L16.0147 210.335L16.5397 211.526C16.5754 211.607 16.6173 211.667 16.6654 211.707C16.7136 211.747 16.7668 211.769 16.8253 211.771C16.8845 211.774 16.9471 211.761 17.0132 211.731C17.0808 211.702 17.1329 211.664 17.1694 211.62C17.2067 211.575 17.2265 211.521 17.2287 211.459C17.2317 211.397 17.2154 211.325 17.1797 211.244L16.6548 210.053ZM17.6349 209.621L18.3071 209.325C18.445 209.264 18.5725 209.232 18.6897 209.23C18.8078 209.227 18.9115 209.254 19.0008 209.312C19.0901 209.369 19.1607 209.457 19.2127 209.575C19.2553 209.671 19.2754 209.761 19.2729 209.845C19.2709 209.928 19.2504 210.005 19.2114 210.078C19.1728 210.149 19.1199 210.216 19.0526 210.278L18.9623 210.392L18.378 210.649L18.2478 210.361L18.6823 210.169C18.7475 210.14 18.7965 210.105 18.8292 210.063C18.862 210.021 18.88 209.975 18.8832 209.924C18.8873 209.873 18.8774 209.82 18.8534 209.765C18.8279 209.708 18.7951 209.663 18.7551 209.63C18.7151 209.597 18.6683 209.579 18.6148 209.576C18.5612 209.573 18.5014 209.586 18.4354 209.616L18.1346 209.748L18.8009 211.26L18.4295 211.423L17.6349 209.621ZM19.4372 210.979L18.672 210.357L19.0634 210.182L19.8269 210.787L19.8346 210.804L19.4372 210.979ZM21.4397 209.751L21.5674 210.04L20.608 210.463L20.4803 210.173L21.4397 209.751ZM19.9348 208.607L20.7293 210.41L20.3579 210.573L19.5634 208.771L19.9348 208.607ZM20.9714 209.027L21.0959 209.309L20.2615 209.677L20.1371 209.395L20.9714 209.027ZM20.7716 208.238L20.8999 208.529L19.9417 208.952L19.8134 208.661L20.7716 208.238Z" fill="#E8E8E8"/>
<path d="M1363.01 71.3597L1355.04 85.1566L1363.53 90.0566L1371.5 76.2597L1379.46 90.0566L1387.95 85.1566L1379.98 71.3597H1395.92V61.5597H1379.98L1387.95 47.7628L1379.46 42.8628L1371.5 56.6597L1363.53 42.8628L1355.04 47.7628L1363.01 61.5597H1347.08V71.3597H1363.01Z" fill="#F5BD33"/>
<path d="M37.1206 722.37C39.7602 723.476 42.4041 724.582 45.0437 725.688C45.4171 725.844 45.2583 726.668 44.8806 726.505C42.241 725.399 39.5971 724.293 36.9575 723.187C36.5884 723.037 36.7472 722.213 37.1206 722.37Z" fill="#646464"/>
<path d="M45.1167 725.593C51.3874 722.612 57.6623 719.631 63.9329 716.65C64.2676 716.493 64.4522 717.179 64.1646 717.425C59.1516 721.704 54.1428 725.989 49.1298 730.269C48.795 730.557 48.4903 729.818 48.825 729.535C53.8381 725.256 58.8468 720.971 63.8599 716.692C63.9371 716.95 64.0144 717.209 64.0917 717.467C57.8211 720.448 51.5462 723.429 45.2756 726.41C44.9064 726.59 44.7476 725.767 45.1167 725.593Z" fill="#646464"/>
<path d="M36.7472 721.19C47.812 717.986 58.9196 715.077 70.0617 712.463C70.4436 712.373 70.6067 713.19 70.2248 713.28C59.0827 715.895 47.975 718.804 36.9103 722.007C36.524 722.115 36.3609 721.298 36.7472 721.19Z" fill="#646464"/>
<path d="M48.9408 729.852C52.001 730.129 55.0527 730.543 58.0957 731.097C58.4777 731.169 58.482 732.016 58.0957 731.944C55.0527 731.391 52.0053 730.976 48.9408 730.7C48.5546 730.664 48.5503 729.816 48.9408 729.852Z" fill="#646464"/>
<path d="M71.0317 713.35C66.6882 720.195 62.0915 726.692 57.2372 732.834C56.9496 733.201 56.5162 732.6 56.808 732.233C61.6623 726.097 66.259 719.6 70.6025 712.749C70.86 712.34 71.2892 712.941 71.0317 713.35Z" fill="#646464"/>
<path d="M44.6274 726.809C44.6189 730.758 44.46 734.688 44.1381 738.613C44.0952 739.148 43.4858 739.154 43.533 738.613C43.8506 734.688 44.0137 730.758 44.0223 726.809C44.0223 726.262 44.6274 726.262 44.6274 726.809Z" fill="#646464"/>
<path d="M48.8509 730.114C47.3658 733.089 45.8851 736.07 44.4001 739.045C44.1769 739.49 43.6533 739.069 43.8764 738.619C45.3615 735.644 46.8422 732.663 48.3272 729.688C48.5461 729.243 49.0741 729.664 48.8509 730.114Z" fill="#646464"/>
<path d="M44.1036 738.519C46.7775 735.622 49.5287 732.882 52.3614 730.303C52.6919 730.003 52.9923 730.742 52.6661 731.036C49.8763 733.579 47.1638 736.271 44.5285 739.12C44.2238 739.451 43.7946 738.856 44.1036 738.519Z" fill="#646464"/>
<path d="M125.875 784.551C126.682 774.869 123.506 765.109 118.617 758.173C113.729 751.237 107.286 746.826 100.694 743.712C98.3074 742.588 95.861 741.597 93.6893 739.806C89.6634 736.488 86.9637 730.682 85.2512 724.6C83.9593 720.008 83.6803 713.451 86.8993 711.444C89.1483 710.043 91.9167 712.135 93.0068 715.224C94.0927 718.313 93.8481 722.01 93.1742 725.321C91.2857 734.607 86.2942 742.222 80.4313 747.294C74.5641 752.367 67.8471 755.162 61.1259 757.325C56.5935 758.786 51.9496 759.994 47.3185 759.423C42.6875 758.852 38.0178 756.316 35.0005 751.357C34.4125 750.39 33.8631 749.188 34.0305 747.937C34.1636 746.928 34.7258 746.158 35.2623 745.461C37.2066 742.919 39.1552 740.371 41.0994 737.828" stroke="#646464" stroke-width="0.6438" stroke-miterlimit="10" stroke-linecap="round" stroke-dasharray="4.18 4.18"/>
<path d="M58.0702 719.757C57.6153 720.971 57.1646 722.179 56.7096 723.394C56.5294 723.88 56.0058 723.448 56.186 722.967C56.641 721.752 57.0916 720.544 57.5466 719.33C57.7268 718.843 58.2505 719.276 58.0702 719.757Z" fill="#646464"/>
<path d="M55.7694 720.044C55.1471 722.039 54.5247 724.029 53.9024 726.025C53.7479 726.524 53.2242 726.091 53.3788 725.598C54.0011 723.602 54.6234 721.612 55.2458 719.617C55.4003 719.112 55.9239 719.545 55.7694 720.044Z" fill="#646464"/>
<path d="M52.2155 722.947C51.6275 724.745 51.0438 726.548 50.4558 728.346C50.2927 728.844 49.769 728.412 49.9321 727.919C50.5201 726.121 51.1039 724.318 51.6919 722.521C51.855 722.022 52.3786 722.455 52.2155 722.947Z" fill="#646464"/>
<path d="M49.4476 724.455C48.8081 727.154 48.1214 729.828 47.3918 732.479C47.2544 732.983 46.6665 732.767 46.8081 732.25C47.5377 729.6 48.2244 726.925 48.8639 724.227C48.9841 723.71 49.5721 723.932 49.4476 724.455Z" fill="#646464"/>
<path d="M47.1942 726.657C46.6019 729.182 46.0139 731.706 45.4216 734.23C45.3015 734.747 44.7135 734.525 44.8379 734.002C45.4302 731.477 46.0182 728.953 46.6105 726.429C46.7307 725.918 47.3187 726.14 47.1942 726.657Z" fill="#646464"/>
<path d="M45.0954 726.937C44.825 728.235 44.649 729.551 44.576 730.904C44.546 731.445 43.9408 731.451 43.9709 730.904C44.0481 729.479 44.2284 728.085 44.5116 726.714C44.6189 726.191 45.2069 726.414 45.0954 726.937Z" fill="#646464"/>
<path d="M647.154 345.465C646.245 346.208 644.802 347.802 644.109 348.578C643.417 349.353 640.714 347.616 640.714 347.616C638.648 346.557 636.597 345.135 635.584 344.392C635.257 344.13 634.687 344.102 634.311 344.329C633.935 344.556 633.894 344.953 634.22 345.214C635.338 346.198 637.79 348.235 640.155 349.503C641.551 350.252 642.972 350.695 644.109 350.726C644.724 350.741 645.335 350.571 645.929 350.231C646.821 349.721 647.729 348.605 648.741 347.568C649.099 347.2 649.466 346.842 649.885 346.557C650.205 346.34 650.535 346.151 650.943 346.104C651.885 345.992 652.658 346.313 653.393 346.752C654.704 347.535 655.882 348.67 657.134 349.556C658.32 350.395 659.587 351.023 661.018 351.169C662.368 351.325 663.331 350.99 664.128 350.384C664.847 349.838 665.391 348.976 666.034 348.114C666.617 347.334 667.277 346.515 668.692 346.313C669.814 346.14 670.741 346.382 671.589 346.777C673.094 347.478 674.382 348.61 675.767 349.514C677.018 350.33 678.348 350.974 679.844 351.2C680.558 351.308 681.422 351.14 682.299 350.582C683.169 350.029 684.248 348.94 685.91 348.412C686.782 348.134 687.838 348.044 689.137 348.34C689.878 348.512 690.68 348.233 690.927 347.717C691.174 347.202 690.773 346.643 690.032 346.472C687.905 345.968 686.17 346.139 684.728 346.582C683.006 347.112 681.726 348.087 680.731 348.786C679.606 349.576 678.047 348.167 677.157 347.532C675.904 346.64 674.665 345.669 673.273 345.023C671.746 344.314 670.049 343.957 668.034 344.279C667.003 344.453 666.177 344.781 665.503 345.217C664.111 346.12 663.429 347.516 662.645 348.578C662.328 349.008 662.097 349.436 661.416 349.37C660.096 349.219 659.109 348.347 658.073 347.466C656.788 346.374 655.508 345.213 654.02 344.576C652.959 344.121 651.794 343.911 650.486 344.036C649.213 344.161 648.094 344.698 647.154 345.465Z" fill="#EDEDED"/>
</g>
<defs>
<filter id="filter0_d_253_73484" x="313.772" y="457" width="23.2175" height="25.6855" filterUnits="userSpaceOnUse" color-interpolation-filters="sRGB">
<feFlood flood-opacity="0" result="BackgroundImageFix"/>
<feColorMatrix in="SourceAlpha" type="matrix" values="0 0 0 0 0 0 0 0 0 0 0 0 0 0 0 0 0 0 127 0" result="hardAlpha"/>
<feOffset dy="1.53439"/>
<feGaussianBlur stdDeviation="0.613757"/>
<feColorMatrix type="matrix" values="0 0 0 0 0 0 0 0 0 0 0 0 0 0 0 0 0 0 0.5 0"/>
<feBlend mode="normal" in2="BackgroundImageFix" result="effect1_dropShadow_253_73484"/>
<feBlend mode="normal" in="SourceGraphic" in2="effect1_dropShadow_253_73484" result="shape"/>
</filter>
<clipPath id="clip0_253_73484">
<rect width="1440" height="785" fill="white"/>
</clipPath>
<clipPath id="clip1_253_73484">
<rect width="10.71" height="10.71" fill="white" transform="translate(311.215 457.922) rotate(-91.1483)"/>
</clipPath>
</defs>
</svg>
