<svg width="1440" height="785" viewBox="0 0 1440 785" fill="none" xmlns="http://www.w3.org/2000/svg">
<g clip-path="url(#clip0_3330_957)">
<path d="M0 110.215C0 110.215 177.057 -49.9802 738.775 131.776C1300.49 313.531 1440 110.215 1440 110.215V652H0V110.215Z" fill="#90CC8B" fill-opacity="0.69"/>
<path d="M1440 107.16C1440 107.16 899.042 100.261 853.963 177.037C808.883 253.813 3.34434e-05 162 3.34434e-05 162V641H1440V107.16Z" fill="#90CC8B"/>
<path d="M1440 119.199C1440 119.199 899.042 110.607 853.963 206.218C808.883 301.828 3.34434e-05 187.492 3.34434e-05 187.492V784H1440V119.199Z" fill="#63A75E"/>
<path d="M0 140.194C0 140.194 228.738 17.0706 774.307 123.004C1319.87 228.937 1440 140.194 1440 140.194V784H0V140.194Z" fill="#5EA76E" fill-opacity="0.56"/>
<path d="M0 147.897C0 147.897 309.543 49.1297 830 147.896C1350.46 246.662 1563 147.897 1563 147.897V784H0V147.897Z" fill="#2C753D" fill-opacity="0.47"/>
<path d="M0 162.46C0 162.46 362.414 64.6747 852.957 162.461C1343.5 260.247 1563 162.46 1563 162.46V784H0V162.46Z" fill="#331251"/>
<path d="M1404.15 553.552C1404.46 553.393 1404.82 553.408 1405.12 553.592L1429.23 568.868C1429.52 569.052 1429.69 569.377 1429.68 569.721C1429.66 570.064 1429.47 570.374 1429.16 570.534L1403.87 583.78C1403.57 583.94 1403.2 583.925 1402.91 583.741C1402.62 583.557 1402.45 583.231 1402.47 582.888L1403.64 554.366L1403.65 554.238C1403.7 553.947 1403.89 553.692 1404.15 553.552Z" stroke="#423546" stroke-width="1.92528" stroke-linejoin="round"/>
<rect x="1416.58" y="584.657" width="29.6686" height="19.4943" transform="rotate(-28.7902 1416.58 584.657)" stroke="#423546" stroke-width="1.92528" stroke-linejoin="round"/>
<circle cx="1434.22" cy="553.696" r="9.73337" stroke="#423546" stroke-width="1.92528"/>
<path d="M772.92 701.16C784.674 699.931 811.58 698.628 825.172 703.244M772.92 701.16C772.022 702.571 769.875 718.096 768.913 725.683C768.913 727.35 808.235 729.583 827.897 730.492C830.076 727.799 826.988 711.204 825.172 703.244M772.92 701.16C766.562 714.624 755.353 746.84 761.38 767.998L767.15 773.287C781.789 776.279 812.478 781.365 818.119 777.775C822.661 772.325 831.359 755.239 829.82 730.492L825.172 703.244M782.377 757.259C781.094 760.464 778.915 767.517 780.453 770.081C790.498 772.753 810.843 776.492 811.868 770.081V760.464C805.938 758.327 791.737 754.694 782.377 757.259Z" stroke="white" stroke-opacity="0.75" stroke-width="0.961691"/>
<path d="M779.652 740.106L782.057 721.673C783.98 720.263 787.453 721.086 788.949 721.673C788.949 723.853 786.598 735.297 785.422 740.747C785.166 742.157 781.469 740.907 779.652 740.106Z" fill="white" fill-opacity="0.75" stroke="white" stroke-opacity="0.75" stroke-width="0.961691"/>
<path d="M808.523 741.265L808.582 722.676C810.312 721.034 813.861 721.412 815.419 721.806C815.694 723.969 814.806 735.618 814.328 741.172C814.252 742.604 810.426 741.83 808.523 741.265Z" fill="white" fill-opacity="0.75" stroke="white" stroke-opacity="0.75" stroke-width="0.961691"/>
<path d="M749.999 769.6C743.268 766.875 731.086 751.328 772.759 701.801L766.028 718.31C761.219 730.598 751.602 756.265 751.602 760.624C751.602 764.984 757.426 764.364 760.418 763.509L761.38 767.837L763.463 770.401C761.433 770.936 755.385 771.78 749.999 769.6Z" stroke="white" stroke-opacity="0.75" stroke-width="0.961691"/>
<path d="M935.004 122.334L937.74 112.828L946.067 118.769L957.964 117.225L952.849 126.493L956.656 136.118C955.133 135.928 949.835 134.692 947.376 134.098L935.004 144.673C932.815 145.719 934.805 137.108 936.074 132.672C936.074 132.102 929.015 130.216 925.486 129.345C924.154 128.489 931.276 124.315 935.004 122.334Z" stroke="white" stroke-opacity="0.81" stroke-width="1.41922"/>
<path d="M748.689 425.479C757.455 424.274 779.083 424.595 795.465 435.516L782.817 499.356C782.686 499.307 782.552 499.258 782.416 499.207M748.689 425.479L733.231 486.307M748.689 425.479C746.347 425.613 741.341 426.442 740.057 428.691L725 488.515M733.231 486.307C729.698 485.853 726.271 487.59 725 488.515M733.231 486.307C748.92 487.892 772.283 495.471 782.416 499.207M725 488.515L775.59 502.769C776.661 501.8 779.525 499.731 782.416 499.207" stroke="white" stroke-opacity="0.71" stroke-width="1.60603"/>
<path d="M755.029 442.838L754.886 443.369L753.22 442.923L753.363 442.391L755.029 442.838ZM754.327 439.673L753.441 442.982L752.759 442.799L753.646 439.491L754.327 439.673ZM757.447 440.509L756.56 443.818L755.881 443.636L756.767 440.327L757.447 440.509ZM760.055 441.208L759.169 444.517L758.489 444.335L759.376 441.026L760.055 441.208ZM761.073 441.481L760.93 442.015L758.23 441.292L758.373 440.758L761.073 441.481ZM763.496 445.106L763.354 445.638L761.593 445.166L761.735 444.635L763.496 445.106ZM762.702 441.917L761.815 445.226L761.134 445.043L762.02 441.735L762.702 441.917ZM763.65 443.616L763.511 444.134L761.979 443.723L762.118 443.205L763.65 443.616ZM764.238 442.329L764.095 442.863L762.336 442.392L762.479 441.858L764.238 442.329ZM765.196 442.586L766.43 442.916C766.683 442.984 766.891 443.08 767.052 443.205C767.215 443.33 767.326 443.48 767.385 443.654C767.443 443.829 767.444 444.025 767.386 444.242C767.338 444.419 767.267 444.563 767.172 444.674C767.08 444.784 766.967 444.867 766.836 444.922C766.706 444.977 766.561 445.01 766.402 445.021L766.156 445.076L765.084 444.789L765.221 444.256L766.019 444.47C766.139 444.502 766.244 444.507 766.334 444.486C766.424 444.465 766.499 444.421 766.559 444.356C766.62 444.291 766.664 444.209 766.691 444.109C766.719 444.003 766.724 443.906 766.705 443.818C766.686 443.73 766.642 443.655 766.573 443.593C766.504 443.53 766.409 443.483 766.287 443.45L765.735 443.302L764.992 446.077L764.31 445.894L765.196 442.586ZM766.16 446.39L765.8 444.713L766.522 444.902L766.898 446.554L766.889 446.586L766.16 446.39ZM769.93 444.461L768.295 446.962L767.57 446.768L769.686 443.789L770.148 443.912L769.93 444.461ZM769.943 447.404L769.776 444.419L769.854 443.834L770.32 443.959L770.67 447.599L769.943 447.404ZM770.232 446.161L770.089 446.695L768.341 446.227L768.484 445.693L770.232 446.161ZM773.619 444.843L772.733 448.151L772.053 447.969L772.94 444.661L773.619 444.843ZM774.637 445.115L774.494 445.649L771.795 444.926L771.938 444.392L774.637 445.115ZM777.411 445.859L778.091 446.041L777.505 448.227C777.437 448.481 777.325 448.681 777.169 448.826C777.015 448.972 776.831 449.063 776.616 449.099C776.403 449.136 776.173 449.122 775.926 449.056C775.679 448.99 775.472 448.887 775.303 448.747C775.135 448.608 775.02 448.437 774.958 448.234C774.897 448.031 774.901 447.802 774.969 447.547L775.555 445.361L776.237 445.544L775.651 447.73C775.611 447.879 775.602 448.006 775.624 448.112C775.646 448.219 775.695 448.306 775.771 448.373C775.848 448.441 775.948 448.492 776.069 448.524C776.193 448.557 776.304 448.564 776.402 448.543C776.502 448.522 776.587 448.471 776.658 448.39C776.73 448.308 776.786 448.193 776.826 448.045L777.411 445.859ZM779.211 446.341L780.445 446.671C780.698 446.739 780.905 446.835 781.066 446.96C781.229 447.085 781.34 447.235 781.399 447.409C781.457 447.584 781.458 447.78 781.4 447.997C781.352 448.174 781.281 448.318 781.186 448.429C781.094 448.539 780.981 448.622 780.85 448.677C780.72 448.732 780.575 448.765 780.417 448.776L780.17 448.831L779.098 448.544L779.236 448.011L780.033 448.225C780.153 448.257 780.258 448.262 780.348 448.241C780.438 448.22 780.513 448.176 780.573 448.111C780.634 448.046 780.678 447.964 780.705 447.864C780.733 447.758 780.738 447.661 780.719 447.573C780.701 447.485 780.657 447.41 780.587 447.348C780.518 447.285 780.423 447.238 780.301 447.206L779.749 447.058L779.006 449.832L778.324 449.65L779.211 446.341ZM780.174 450.145L779.815 448.468L780.536 448.657L780.912 450.309L780.903 450.341L780.174 450.145ZM784.227 450.661L784.084 451.193L782.323 450.721L782.465 450.189L784.227 450.661ZM783.432 447.472L782.546 450.781L781.864 450.598L782.75 447.289L783.432 447.472ZM784.38 449.17L784.241 449.688L782.71 449.278L782.848 448.76L784.38 449.17ZM784.968 447.884L784.825 448.418L783.066 447.946L783.21 447.412L784.968 447.884Z" fill="white" fill-opacity="0.71"/>
<circle cx="822.98" cy="252.969" r="6.36307" stroke="white" stroke-opacity="0.73" stroke-width="1.75533"/>
<circle cx="839.656" cy="259.991" r="6.36307" stroke="white" stroke-opacity="0.73" stroke-width="1.75533"/>
<circle cx="842.288" cy="275.789" r="3.73007" stroke="white" stroke-opacity="0.73" stroke-width="1.75533"/>
<path d="M1263.91 764.352L1325.59 743V788.806M1263.91 764.352V811.435M1263.91 764.352L1263 811.07C1263.18 811.191 1263.58 811.435 1263.73 811.435L1263.91 812.53C1264.06 812.676 1295.12 825.973 1310.63 832.604C1311 832.604 1370.12 806.69 1370.31 806.507C1370.45 806.361 1370.49 805.716 1370.49 805.412M1325.59 788.806L1370.49 805.412M1325.59 788.806L1263.91 811.435M1370.49 805.412L1310.81 831.691L1263.91 811.435" stroke="white" stroke-opacity="0.4" stroke-width="0.912461"/>
<path d="M1268.84 766.723L1322.68 747.744V784.79L1268.84 805.412V770.921" stroke="white" stroke-opacity="0.4" stroke-width="0.729969"/>
<path d="M1329.07 285.195C1273.15 299.829 1303.58 363.494 1341.68 357.016C1405.09 346.233 1375.85 272.951 1329.07 285.195Z" stroke="white" stroke-opacity="0.78" stroke-width="1.462"/>
<path d="M1346.43 362.296C1405.44 348.257 1392.1 269.653 1328.34 279.165L1329.43 284.83M1346.43 362.296C1347.47 369.308 1349.76 383.588 1350.63 384.612C1351.73 385.891 1357.21 386.074 1360.32 387.536C1362.8 388.705 1361.35 391.19 1360.32 392.287L1339.49 395.211C1338.75 395.637 1337.18 395.65 1336.74 392.287C1336.2 388.084 1343.87 387.353 1344.42 384.612C1344.86 382.419 1341.31 369.687 1339.49 363.595C1340.75 363.419 1341.99 363.216 1343.2 362.986M1346.43 362.296C1345.38 362.547 1344.3 362.777 1343.2 362.986M1342.23 357.016L1343.2 362.986" stroke="white" stroke-opacity="0.78" stroke-width="1.462"/>
<path d="M1336.38 310.234C1333.89 308.626 1328.76 309.564 1326.51 310.234L1323.59 310.965L1322.67 313.341C1322.06 314.011 1320.66 315.351 1319.93 315.351C1319.2 315.351 1318.53 317.666 1318.29 318.823L1320.84 321.382C1321.45 322.478 1323 324.379 1324.32 323.209C1325.96 321.747 1327.61 322.844 1329.07 323.209C1330.53 323.575 1330.9 326.316 1330.9 327.413C1330.9 328.29 1332.36 329.24 1333.09 329.606V332.895L1335.28 335.271L1336.38 338.56C1337.23 339.169 1338.94 340.205 1338.94 339.474C1338.94 338.56 1339.49 338.195 1340.22 338.56C1340.8 338.853 1342.17 336.489 1342.77 335.271V330.519V324.671C1342.77 322.624 1344.85 320.529 1345.88 319.737C1346.43 318.641 1347.2 316.228 1345.88 315.351C1344.24 314.255 1345.88 313.706 1345.88 312.062V309.32L1342.77 310.234C1341.68 310.904 1338.86 311.842 1336.38 310.234Z" stroke="white" stroke-opacity="0.78" stroke-width="0.730998"/>
<path d="M1357.58 304.933C1356.55 304.495 1355.32 306.334 1354.84 307.309C1354.17 308.832 1352.64 311.914 1351.91 312.061C1351 312.243 1353.19 316.447 1354.84 316.629C1356.48 316.812 1357.58 321.746 1359.04 322.843C1360.5 323.939 1361.23 324.67 1363.06 325.036C1364.89 325.401 1365.25 321.381 1365.25 319.736C1365.25 318.091 1368.36 316.447 1369.27 315.167C1370.19 313.888 1369.09 309.685 1368.36 309.685C1367.63 309.685 1366.71 309.685 1365.25 307.309C1363.79 304.933 1360.87 307.309 1359.95 307.309C1359.04 307.309 1358.86 305.482 1357.58 304.933Z" stroke="white" stroke-opacity="0.78" stroke-width="0.730998"/>
<path d="M1326.14 307.309L1321.94 304.933H1319.38L1318.47 302.009C1318.83 300.852 1319.86 298.756 1321.03 299.634C1322.49 300.73 1322.67 296.344 1321.94 295.248C1321.36 294.37 1321.7 292.811 1321.94 292.141H1325.05C1325.78 291.41 1327.57 289.692 1328.89 288.669C1330.2 287.645 1335.28 288.242 1337.66 288.669C1340 287.645 1342.04 289.095 1342.77 289.948L1345.15 292.141C1349.24 291.702 1350.27 294.029 1350.27 295.248L1351.91 297.075C1351.91 297.684 1351.4 298.829 1349.35 298.537C1347.31 298.245 1345.7 299.999 1345.15 300.913V302.923H1342.77C1342.17 303.593 1340.54 304.751 1338.94 304.02C1336.93 303.106 1331.63 304.933 1330.35 304.933C1329.32 304.933 1327.12 306.517 1326.14 307.309Z" stroke="white" stroke-opacity="0.78" stroke-width="0.730998"/>
<path d="M1310.61 296.891C1309.3 296.598 1308.11 299.084 1307.69 300.363L1306.04 303.287C1305.49 303.713 1304.11 305.041 1302.94 306.942C1301.47 309.318 1304.58 312.424 1304.4 311.328C1304.25 310.451 1306.53 309.744 1307.69 309.5L1310.61 307.856C1311.1 307.064 1312 305.297 1311.71 304.566C1311.42 303.835 1313.41 303.409 1314.45 303.287C1315.06 302.312 1316.2 300.363 1315.91 300.363C1315.62 300.363 1316.89 298.048 1317.56 296.891L1320.11 295.063V291.408H1317.56L1314.45 292.87L1313.17 295.063C1312.86 295.794 1311.93 297.183 1310.61 296.891Z" stroke="white" stroke-opacity="0.78" stroke-width="0.730998"/>
<path d="M1310.61 323.024C1309.73 321.416 1306.1 320.404 1304.4 320.1L1302.94 323.024L1305.13 327.41C1305.43 329.42 1306.04 333.879 1306.04 335.634C1306.04 337.388 1307.75 339.41 1308.6 340.202L1310.61 339.106C1310.98 337.766 1311.71 334.756 1311.71 333.441C1311.71 331.796 1314.45 330.517 1315.91 327.775C1317.08 325.582 1315.42 323.694 1314.45 323.024C1313.53 323.694 1311.49 324.632 1310.61 323.024Z" stroke="white" stroke-opacity="0.78" stroke-width="0.730998"/>
<path d="M1201.43 132.131L1202.14 113L1216.49 116.543L1216.32 137.091" stroke="#FFFDFD" stroke-opacity="0.6" stroke-width="1.77142" stroke-linejoin="bevel"/>
<circle cx="1199.66" cy="131.952" r="2.65712" fill="white"/>
<circle cx="1199.66" cy="131.952" r="2.47998" stroke="#FFFDFD" stroke-opacity="0.6" stroke-width="0.354283"/>
<circle cx="1214.54" cy="137.268" r="2.65712" fill="white"/>
<circle cx="1214.54" cy="137.268" r="2.47998" stroke="#FFFDFD" stroke-opacity="0.6" stroke-width="0.354283"/>
<circle cx="1225.52" cy="146.479" r="2.65712" fill="white"/>
<circle cx="1225.52" cy="146.479" r="2.47998" stroke="#FFFDFD" stroke-opacity="0.6" stroke-width="0.354283"/>
<path d="M1227.29 146.302L1229.24 127.525L1233.14 129.297" stroke="#FFFDFD" stroke-opacity="0.6" stroke-width="1.77142" stroke-linejoin="bevel"/>
<circle cx="1237.01" cy="149.168" r="1.74238" fill="white"/>
<circle cx="1237.01" cy="149.168" r="1.56523" stroke="#FFFDFD" stroke-opacity="0.6" stroke-width="0.354283"/>
<path d="M1238.17 149.051L1239.44 136.738L1242 137.9" stroke="#FFFDFD" stroke-opacity="0.6" stroke-width="1.77142" stroke-linejoin="bevel"/>
<path d="M520.165 454.428C439.279 451.581 283.746 452.062 203.91 454.553C167.55 455.688 100.505 458.975 141.302 462.079C148.498 462.626 157.245 463.071 166.294 463.455C265.887 467.69 404.794 467.259 511.68 464.725C527.621 464.347 543.307 463.899 557.739 463.289C568.533 462.833 578.968 462.268 587.373 461.608C611.978 459.677 605.551 457.734 579.078 456.096C548.385 454.198 506.412 453.61 466.808 453.288C432.177 453.006 397.589 452.952 362.794 453.067C297.539 453.283 222.336 453.626 167.606 456.221C143.702 457.354 118.019 459.776 138.51 461.737C160.714 463.861 213.069 464.549 248.283 464.997C343.28 466.206 493.592 465.607 580.123 462.433C589.454 462.091 598.907 461.772 607.254 461.322C613.85 460.967 620.165 460.561 625.643 460.122C664.467 457.013 577.835 455.058 547.282 454.722C451.168 453.666 308.913 452.141 220.397 454.951" stroke="#D2D2EA" stroke-width="1.07" stroke-miterlimit="1.5" stroke-linecap="round" stroke-linejoin="round"/>
<g clip-path="url(#clip1_3330_957)">
<path d="M319.535 454.58C319.73 454.69 319.971 454.236 320.568 452.645C321.198 450.962 321.276 450.567 321.011 450.523C320.646 450.466 319.225 454.393 319.535 454.58Z" fill="white"/>
<path d="M311.9 452.406C311.613 453.011 311.679 453.138 312.821 454.165C313.999 455.227 314.253 455.379 314.47 455.175C314.862 454.803 314.64 454.422 313.249 453.036C312.221 452.013 312.113 451.959 311.9 452.406Z" fill="white"/>
<path d="M315.574 450.047C315.362 450.48 315.373 450.68 315.645 451.438C316.461 453.686 316.866 455.356 317.263 454.505C317.428 454.159 317.319 453.726 316.452 451.065C315.965 449.597 315.863 449.47 315.574 450.047Z" fill="white"/>
</g>
<g filter="url(#filter0_d_3330_957)">
<path d="M331.745 465.33C331.745 465.545 331.853 464.731 332.19 464.194C332.462 463.389 333.334 462.957 334.139 463.228C334.944 463.499 335.377 464.371 335.106 465.176C335.106 466.174 335.106 466.128 335.106 466.803C335.106 467.478 335.106 468.076 335.106 468.644C335.05 469.542 334.927 470.435 334.737 471.314C334.491 472.094 334.14 472.838 333.694 473.523C332.949 474.352 332.333 475.288 331.868 476.301C331.754 476.804 331.703 477.319 331.715 477.835C331.713 478.312 331.775 478.786 331.899 479.247C331.271 479.313 330.639 479.313 330.012 479.247C329.413 479.155 328.677 477.958 328.477 477.59C328.378 477.392 328.176 477.267 327.955 477.267C327.734 477.267 327.532 477.392 327.434 477.59C327.096 478.173 326.344 479.231 325.899 479.293C324.871 479.416 322.739 479.293 321.081 479.293C321.081 479.293 321.358 477.758 320.728 477.206C320.099 476.654 319.455 476.009 318.979 475.58L317.706 474.168C316.807 473.335 316.15 472.275 315.803 471.099C315.481 469.657 315.512 468.951 315.803 468.383C316.1 467.902 316.565 467.547 317.107 467.386C317.558 467.305 318.022 467.337 318.458 467.478C318.759 467.603 319.02 467.811 319.209 468.076C319.562 468.552 319.67 468.782 319.532 468.261C319.394 467.739 319.225 466.956 318.903 465.882C318.58 464.808 318.381 464.563 318.181 463.995C317.982 463.427 317.721 462.89 317.414 462.184C317.134 461.463 316.898 460.725 316.708 459.975C316.572 459.347 316.718 458.691 317.107 458.18C317.658 457.642 318.452 457.438 319.194 457.643C319.776 457.896 320.267 458.318 320.606 458.855C321.058 459.578 321.429 460.35 321.71 461.156C322.218 462.473 322.578 463.842 322.785 465.238C322.755 464.414 322.827 463.589 322.999 462.783C323.17 462.285 323.561 461.895 324.058 461.724C324.515 461.584 324.998 461.552 325.47 461.632C325.945 461.731 326.367 462.005 326.651 462.399C327.006 463.295 327.203 464.245 327.234 465.207C327.255 464.388 327.374 463.574 327.587 462.783C327.844 462.422 328.219 462.162 328.646 462.046C329.153 461.954 329.673 461.954 330.18 462.046C330.596 462.185 330.96 462.447 331.224 462.798C331.549 463.612 331.746 464.471 331.807 465.345" fill="#FFCD5B"/>
<path d="M316.706 457.767C317.403 457.088 318.408 456.829 319.424 457.115C320.111 457.414 320.693 457.914 321.094 458.55C321.569 459.31 321.959 460.12 322.248 460.949C322.4 461.344 322.539 461.745 322.666 462.148C322.941 461.699 323.368 461.352 323.89 461.174C324.432 461.007 325.006 460.97 325.588 461.069C326.204 461.198 326.75 461.552 327.186 462.187C327.202 462.226 327.217 462.264 327.231 462.303C327.559 461.91 328.005 461.625 328.544 461.48C329.119 461.376 329.708 461.376 330.363 461.501C330.889 461.677 331.35 462.008 331.683 462.452L331.763 462.597C331.855 462.845 331.937 463.097 332.008 463.352C332.548 462.688 333.464 462.393 334.323 462.682C335.397 463.044 335.989 464.185 335.682 465.264V466.803C335.682 467.777 335.682 467.777 335.681 468.68C335.623 469.606 335.496 470.528 335.286 471.487C335.024 472.317 334.651 473.108 334.122 473.908C333.416 474.693 332.832 475.581 332.43 476.428C332.326 476.885 332.279 477.353 332.29 477.837C332.289 478.262 332.345 478.686 332.455 479.098C332.547 479.439 332.311 479.782 331.959 479.819C331.292 479.889 330.618 479.889 329.924 479.815C329.187 479.702 328.499 478.836 327.963 477.847C327.345 478.891 326.613 479.775 325.968 479.864C325.357 479.937 324.662 479.937 322.826 479.895C322.739 479.893 322.738 479.893 322.651 479.891C321.928 479.875 321.503 479.868 321.082 479.868C320.723 479.868 320.452 479.544 320.516 479.191C320.521 479.161 320.53 479.098 320.54 479.01C320.57 478.743 320.577 478.464 320.55 478.215C320.517 477.921 320.44 477.719 320.349 477.639C320.268 477.567 320.267 477.566 320.186 477.494C320.056 477.377 319.919 477.252 319.77 477.113C319.67 477.02 318.798 476.191 318.553 475.965L317.314 474.59C316.34 473.686 315.628 472.536 315.242 471.224C314.905 469.715 314.912 468.859 315.313 468.081C315.685 467.479 316.266 467.035 317.007 466.819C317.525 466.727 318.058 466.757 318.599 466.922C318.522 466.63 318.441 466.346 318.351 466.048C318.176 465.462 318.141 465.374 317.825 464.652C317.749 464.479 317.693 464.342 317.64 464.188C317.611 464.106 317.581 464.026 317.549 463.942C317.471 463.74 317.382 463.533 317.252 463.238C317.214 463.154 316.964 462.592 316.878 462.392C316.589 461.649 316.346 460.889 316.146 460.097C315.974 459.304 316.159 458.476 316.706 457.767ZM319.041 458.197C318.497 458.047 317.914 458.197 317.565 458.528C317.278 458.905 317.17 459.39 317.266 459.834C317.45 460.561 317.679 461.277 317.942 461.955C318.019 462.132 318.266 462.688 318.304 462.771C318.441 463.081 318.536 463.304 318.622 463.526C318.659 463.621 318.693 463.713 318.724 463.802C318.769 463.93 318.814 464.041 318.879 464.19C319.213 464.953 319.261 465.074 319.454 465.717C319.598 466.198 319.719 466.644 319.844 467.138C319.87 467.242 320.046 467.956 320.088 468.113C320.133 468.283 320.155 468.38 320.163 468.469C320.203 468.589 320.202 468.589 319.891 469.044C319.239 469.091 319.239 469.091 319.155 468.957C319.084 468.888 318.775 468.46 318.741 468.411C318.614 468.233 318.439 468.093 318.28 468.025C317.934 467.913 317.566 467.888 317.27 467.937C316.864 468.058 316.516 468.325 316.315 468.646C316.087 469.092 316.081 469.703 316.355 470.936C316.673 472.012 317.274 472.983 318.133 473.782L319.365 475.152C319.582 475.348 320.465 476.187 320.556 476.271C320.699 476.405 320.83 476.526 320.955 476.638C321.032 476.706 321.032 476.706 321.108 476.773C321.46 477.082 321.633 477.536 321.693 478.089C321.716 478.297 321.722 478.511 321.715 478.723C321.98 478.726 322.286 478.732 322.677 478.741C322.764 478.743 322.764 478.743 322.851 478.745C324.613 478.785 325.3 478.785 325.821 478.723C325.936 478.705 326.558 477.954 326.919 477.333C327.115 476.94 327.517 476.691 327.956 476.691C328.395 476.691 328.796 476.94 328.983 477.315C329.315 477.928 329.886 478.645 330.072 478.675C330.448 478.714 330.826 478.729 331.203 478.718C331.16 478.427 331.139 478.136 331.14 477.848C331.127 477.286 331.183 476.723 331.346 476.06C331.835 474.995 332.483 474.01 333.212 473.21C333.63 472.568 333.958 471.871 334.175 471.192C334.358 470.341 334.478 469.478 334.53 468.644V465.177L334.56 464.993C334.73 464.489 334.459 463.943 333.955 463.773C333.451 463.604 332.905 463.875 332.678 464.501C332.63 464.577 332.583 464.671 332.538 464.779C332.47 464.945 332.416 465.114 332.359 465.331C332.333 465.432 332.319 465.489 332.305 465.531C332.293 465.565 332.293 465.565 332.253 465.646C332.16 465.895 332.159 465.895 331.32 465.749C331.151 465.368 331.15 465.364 331.17 465.331C331.129 464.563 330.975 463.805 330.715 463.082C330.527 462.856 330.285 462.687 330.078 462.612C329.638 462.533 329.188 462.533 328.797 462.601C328.529 462.674 328.29 462.828 328.114 463.041C327.931 463.754 327.828 464.485 327.809 465.222C327.79 465.966 326.683 465.97 326.659 465.225C326.63 464.329 326.446 463.445 326.184 462.736C325.984 462.458 325.687 462.265 325.374 462.199C324.991 462.134 324.598 462.16 324.245 462.268C323.916 462.381 323.657 462.64 323.562 462.903C323.4 463.663 323.331 464.44 323.359 465.217C323.385 465.942 322.322 466.04 322.216 465.322C322.015 463.968 321.665 462.64 321.167 461.346C320.899 460.58 320.548 459.847 320.119 459.161C319.842 458.722 319.44 458.377 319.041 458.197Z" fill="white"/>
<path d="M330.81 474.56V469.263C330.81 468.946 330.552 468.689 330.235 468.689C329.917 468.689 329.659 468.946 329.659 469.263V474.56C329.659 474.877 329.917 475.134 330.235 475.134C330.552 475.134 330.81 474.877 330.81 474.56Z" fill="white"/>
<path d="M327.756 474.56L327.741 469.26C327.74 468.944 327.482 468.689 327.164 468.689C326.846 468.69 326.589 468.947 326.59 469.264L326.606 474.563C326.607 474.879 326.865 475.135 327.183 475.134C327.501 475.133 327.757 474.876 327.756 474.56Z" fill="white"/>
<path d="M323.521 469.272L323.552 474.558C323.554 474.878 323.813 475.136 324.131 475.134C324.449 475.132 324.705 474.871 324.703 474.551L324.672 469.266C324.67 468.946 324.411 468.688 324.094 468.689C323.776 468.691 323.52 468.952 323.521 469.272Z" fill="white"/>
</g>
<path d="M527.798 435.407L525.187 434.565C523.516 434.014 522.537 432.662 522.078 430.963L520.928 425.364C520.898 425.254 520.825 425.105 520.6 425.105C520.411 425.105 520.302 425.254 520.272 425.364L519.123 430.965C518.662 432.664 517.685 434.015 516.014 434.567L513.402 435.409C513.033 435.529 513.027 436.05 513.395 436.175L516.025 437.081C517.69 437.634 518.662 438.984 519.123 440.675L520.274 446.212C520.304 446.323 520.366 446.522 520.602 446.522C520.852 446.522 520.9 446.323 520.93 446.212L522.082 440.675C522.543 438.982 523.514 437.632 525.179 437.081L527.81 436.175C528.173 436.048 528.168 435.527 527.798 435.407Z" fill="#FDD835"/>
<path d="M528.046 435.641C528.005 435.538 527.924 435.448 527.798 435.407L525.187 434.565C523.516 434.014 522.537 432.662 522.078 430.963L520.928 425.364C520.912 425.3 520.852 425.184 520.782 425.15L521.153 430.77C521.429 433.335 521.665 434.542 523.713 434.895C525.472 435.199 527.506 435.547 528.046 435.641Z" fill="#FFEE58"/>
<path d="M528.051 435.934L523.521 436.972C521.925 437.377 521.046 438.302 521.046 440.72L520.602 446.522C520.753 446.507 520.877 446.424 520.93 446.212L522.081 440.675C522.542 438.982 523.513 437.632 525.178 437.081L527.809 436.175C527.933 436.13 528.012 436.039 528.051 435.934Z" fill="#F4B400"/>
<path d="M512.839 440.277C511.277 439.761 511.135 439.18 510.872 438.199L510.218 435.904C510.179 435.756 509.792 435.756 509.751 435.904L509.307 438.025C509.042 439.002 508.48 439.778 507.52 440.095L505.99 440.758C505.778 440.828 505.774 441.128 505.986 441.199L507.527 441.745C508.484 442.062 509.042 442.838 509.309 443.811L509.753 445.84C509.794 445.988 510.179 445.988 510.218 445.84L510.739 443.82C511.004 442.842 511.409 442.063 512.708 441.745L514.156 441.199C514.367 441.126 514.366 440.826 514.152 440.757L512.839 440.277Z" fill="#FDD835"/>
<path d="M510.342 438.165C510.501 439.639 510.582 440.048 511.776 440.354L514.265 440.839C514.238 440.804 514.201 440.774 514.15 440.759L512.838 440.277C511.467 439.808 511.088 439.212 510.831 438.019C510.575 436.827 510.301 436.049 510.301 436.049C510.205 435.792 510.068 435.805 510.068 435.805L510.342 438.165Z" fill="#FFEE58"/>
<path d="M510.387 443.311C510.387 441.921 511.146 441.233 512.354 441.233L514.233 441.156C514.233 441.156 514.124 441.301 513.935 441.346L512.708 441.745C511.668 442.163 511.193 442.373 510.871 443.796C510.871 443.796 510.455 445.452 510.376 445.626C510.267 445.87 510.138 445.921 510.138 445.921L510.387 443.311Z" fill="#F4B400"/>
<path d="M516.202 429.276C516.307 429.241 516.303 429.091 516.196 429.061L514.748 428.671C514.6 428.63 514.464 428.552 514.354 428.444C514.244 428.335 514.164 428.2 514.122 428.052L513.552 425.699C513.524 425.584 513.361 425.584 513.333 425.701L512.797 428.044C512.756 428.197 512.676 428.336 512.564 428.447C512.452 428.558 512.312 428.637 512.159 428.676L510.721 429.049C510.614 429.078 510.607 429.228 510.712 429.265L512.228 429.79C512.5 429.884 512.71 430.105 512.793 430.381L513.335 432.554C513.363 432.666 513.524 432.668 513.552 432.554L514.113 430.373C514.154 430.237 514.228 430.113 514.327 430.011C514.426 429.909 514.548 429.832 514.683 429.786L516.202 429.276Z" fill="#F4B400" stroke="#F4B400" stroke-width="0.1875" stroke-miterlimit="10"/>
<path d="M452.561 818.628C449.121 818.152 446.642 815.177 446.704 811.79C445.844 815.067 442.651 817.258 439.212 816.782C435.773 816.307 433.293 813.332 433.355 809.945C432.496 813.222 429.302 815.412 425.863 814.937C422.15 814.424 419.557 810.998 420.07 807.285C420.074 807.259 420.077 807.232 420.081 807.205L420.081 807.205C422.123 792.434 435.752 782.115 450.524 784.157C465.295 786.199 475.614 799.828 473.572 814.6L473.572 814.6C473.568 814.626 473.565 814.653 473.561 814.68C473.048 818.392 469.622 820.986 465.91 820.473C462.47 819.997 459.991 817.022 460.053 813.635C459.193 816.912 456 819.103 452.561 818.628Z" fill="#005637"/>
<path d="M714.167 -23.9798C714.167 -26.8333 711.854 -29.1465 709 -29.1465C706.147 -29.1465 703.833 -26.8333 703.833 -23.9798V-18.3158L701.035 -23.2402C699.625 -25.7211 696.471 -26.5894 693.99 -25.1796C691.509 -23.7698 690.641 -20.6158 692.051 -18.1349L695.235 -12.5312L689.632 -15.7156C687.151 -17.1254 683.997 -16.2571 682.587 -13.7763C681.177 -11.2954 682.045 -8.14136 684.526 -6.73155L689.451 -3.93316H683.787C680.933 -3.93316 678.62 -1.61996 678.62 1.23351C678.62 4.08698 680.933 6.40018 683.787 6.40018H689.451L684.526 9.19856C682.045 10.6084 681.177 13.7624 682.587 16.2433C683.997 18.7241 687.151 19.5924 689.632 18.1826L695.235 14.9982L692.051 20.6019C690.641 23.0828 691.509 26.2368 693.99 27.6466C696.471 29.0564 699.625 28.1881 701.035 25.7073L703.833 20.7828V26.4468C703.833 29.3003 706.147 31.6135 709 31.6135C711.854 31.6135 714.167 29.3003 714.167 26.4468V20.7828L716.965 25.7073C718.375 28.1881 721.529 29.0564 724.01 27.6466C726.491 26.2368 727.359 23.0828 725.949 20.6019L722.765 14.9982L728.369 18.1826C730.849 19.5924 734.003 18.7241 735.413 16.2433C736.823 13.7624 735.955 10.6084 733.474 9.19856L728.549 6.40018H734.213C737.067 6.40018 739.38 4.08698 739.38 1.23351C739.38 -1.61996 737.067 -3.93315 734.213 -3.93315H728.549L733.474 -6.73155C735.955 -8.14136 736.823 -11.2954 735.413 -13.7763C734.003 -16.2571 730.849 -17.1254 728.369 -15.7156L722.765 -12.5312L725.949 -18.1349C727.359 -20.6158 726.491 -23.7698 724.01 -25.1796C721.529 -26.5894 718.375 -25.7211 716.965 -23.2402L714.167 -18.3158V-23.9798Z" fill="#DEC8FE"/>
<path d="M-3.2091 212.065C0.286387 208.367 10.0967 200.72 21.374 199.713L38.7035 232.886C38.627 232.911 38.5491 232.937 38.47 232.964M-3.2091 212.065L11.7758 244.9M-3.2091 212.065C-4.21073 212.969 -6.15547 215.144 -5.92136 216.615L8.88184 248.855M11.7758 244.9C10.0283 245.97 9.11839 247.982 8.88184 248.855M11.7758 244.9C19.3791 239.959 32.5821 234.939 38.47 232.964M8.88184 248.855L36.6935 237.019C36.8243 236.199 37.3628 234.24 38.47 232.964" stroke="#E8E8E8" stroke-width="0.923584"/>
<path d="M5.53337 216.761L5.66107 217.051L4.75365 217.451L4.62595 217.161L5.53337 216.761ZM4.07916 215.596L4.87373 217.398L4.50234 217.562L3.70777 215.759L4.07916 215.596ZM5.77858 214.847L6.57315 216.649L6.203 216.812L5.40843 215.01L5.77858 214.847ZM7.19947 214.22L7.99403 216.023L7.62388 216.186L6.82931 214.383L7.19947 214.22ZM7.75407 213.976L7.88232 214.267L6.41162 214.915L6.28337 214.624L7.75407 213.976ZM10.1464 214.728L10.2741 215.018L9.31464 215.441L9.18694 215.151L10.1464 214.728ZM8.64139 213.585L9.43596 215.387L9.06457 215.551L8.27 213.748L8.64139 213.585ZM9.67807 214.004L9.80249 214.287L8.96811 214.654L8.84368 214.372L9.67807 214.004ZM9.47825 213.216L9.6065 213.507L8.64832 213.929L8.52007 213.638L9.47825 213.216ZM10.0004 212.985L10.6726 212.689C10.8104 212.628 10.9379 212.597 11.0552 212.594C11.1732 212.592 11.2769 212.619 11.3662 212.676C11.4555 212.733 11.5262 212.821 11.5782 212.939C11.6207 213.036 11.6408 213.126 11.6384 213.21C11.6364 213.292 11.6158 213.37 11.5768 213.442C11.5382 213.514 11.4853 213.58 11.4181 213.642L11.3278 213.756L10.7434 214.014L10.6133 213.725L11.0478 213.534C11.113 213.505 11.162 213.469 11.1947 213.427C11.2274 213.385 11.2454 213.339 11.2487 213.288C11.2528 213.237 11.2428 213.184 11.2188 213.13C11.1933 213.072 11.1606 213.027 11.1206 212.994C11.0806 212.962 11.0338 212.944 10.9802 212.941C10.9267 212.938 10.8669 212.951 10.8008 212.98L10.5 213.113L11.1663 214.624L10.7949 214.788L10.0004 212.985ZM11.8026 214.344L11.0375 213.721L11.4288 213.546L12.1924 214.151L12.2 214.169L11.8026 214.344ZM12.7976 212.121L12.966 213.831L12.5711 214.005L12.4463 211.907L12.6976 211.797L12.7976 212.121ZM13.8636 213.435L12.7134 212.158L12.5379 211.867L12.7917 211.755L14.2597 213.261L13.8636 213.435ZM13.5455 212.774L13.6737 213.065L12.7217 213.485L12.5935 213.194L13.5455 212.774ZM14.5889 210.963L15.3835 212.765L15.0133 212.928L14.2188 211.126L14.5889 210.963ZM15.1435 210.718L15.2718 211.009L13.8011 211.658L13.6728 211.367L15.1435 210.718ZM16.6548 210.052L17.0249 209.889L17.5499 211.08C17.611 211.219 17.6328 211.348 17.6152 211.469C17.5984 211.59 17.5486 211.697 17.4657 211.791C17.3837 211.885 17.2754 211.961 17.1409 212.02C17.0063 212.079 16.8761 212.108 16.7502 212.107C16.6251 212.105 16.5119 212.069 16.4107 212C16.3102 211.931 16.2295 211.828 16.1683 211.689L15.6433 210.498L16.0147 210.334L16.5397 211.525C16.5754 211.606 16.6173 211.666 16.6654 211.706C16.7136 211.746 16.7668 211.768 16.8253 211.77C16.8845 211.773 16.9471 211.76 17.0132 211.73C17.0808 211.701 17.1329 211.663 17.1694 211.619C17.2067 211.574 17.2265 211.52 17.2287 211.458C17.2317 211.396 17.2154 211.324 17.1797 211.243L16.6548 210.052ZM17.6349 209.62L18.3071 209.324C18.445 209.263 18.5725 209.231 18.6897 209.229C18.8078 209.226 18.9115 209.253 19.0008 209.311C19.0901 209.368 19.1607 209.456 19.2127 209.574C19.2553 209.67 19.2754 209.76 19.2729 209.844C19.2709 209.927 19.2504 210.004 19.2114 210.077C19.1728 210.148 19.1199 210.215 19.0526 210.277L18.9623 210.391L18.378 210.648L18.2478 210.36L18.6823 210.168C18.7475 210.139 18.7965 210.104 18.8292 210.062C18.862 210.02 18.88 209.974 18.8832 209.923C18.8873 209.872 18.8774 209.819 18.8534 209.765C18.8279 209.707 18.7951 209.662 18.7551 209.629C18.7151 209.596 18.6683 209.578 18.6148 209.575C18.5612 209.572 18.5014 209.586 18.4354 209.615L18.1346 209.747L18.8009 211.259L18.4295 211.422L17.6349 209.62ZM19.4372 210.978L18.672 210.356L19.0634 210.181L19.8269 210.786L19.8346 210.803L19.4372 210.978ZM21.4397 209.75L21.5674 210.039L20.608 210.462L20.4803 210.172L21.4397 209.75ZM19.9348 208.606L20.7293 210.409L20.3579 210.572L19.5634 208.77L19.9348 208.606ZM20.9714 209.026L21.0959 209.308L20.2615 209.676L20.1371 209.394L20.9714 209.026ZM20.7716 208.237L20.8999 208.528L19.9417 208.951L19.8134 208.66L20.7716 208.237Z" fill="#E8E8E8"/>
<path d="M1363.01 71.3602L1355.04 85.1571L1363.53 90.0571L1371.5 76.2602L1379.46 90.0571L1387.95 85.1571L1379.98 71.3602H1395.92V61.5602H1379.98L1387.95 47.7633L1379.46 42.8633L1371.5 56.6602L1363.53 42.8633L1355.04 47.7633L1363.01 61.5602H1347.08V71.3602H1363.01Z" fill="#F5BD33"/>
<path d="M37.1211 722.369C39.7607 723.475 42.4046 724.581 45.0442 725.687C45.4176 725.844 45.2587 726.667 44.8811 726.505C42.2415 725.399 39.5976 724.293 36.958 723.187C36.5889 723.036 36.7477 722.213 37.1211 722.369Z" fill="#646464"/>
<path d="M45.117 725.591C51.3876 722.61 57.6625 719.629 63.9331 716.648C64.2679 716.492 64.4524 717.177 64.1649 717.423C59.1518 721.702 54.1431 725.988 49.13 730.267C48.7952 730.555 48.4905 729.816 48.8253 729.534C53.8383 725.254 58.8471 720.969 63.8601 716.69C63.9374 716.948 64.0146 717.207 64.0919 717.465C57.8213 720.446 51.5464 723.427 45.2758 726.408C44.9067 726.589 44.7479 725.765 45.117 725.591Z" fill="#646464"/>
<path d="M36.7477 721.189C47.8124 717.985 58.9201 715.076 70.0621 712.462C70.4441 712.372 70.6072 713.189 70.2252 713.279C59.0832 715.894 47.9755 718.803 36.9108 722.006C36.5245 722.114 36.3614 721.297 36.7477 721.189Z" fill="#646464"/>
<path d="M48.9413 729.851C52.0015 730.127 55.0531 730.542 58.0962 731.095C58.4782 731.167 58.4825 732.015 58.0962 731.943C55.0531 731.39 52.0058 730.975 48.9413 730.698C48.5551 730.662 48.5508 729.815 48.9413 729.851Z" fill="#646464"/>
<path d="M71.0319 713.349C66.6884 720.194 62.0917 726.691 57.2375 732.834C56.9499 733.2 56.5164 732.599 56.8083 732.233C61.6625 726.096 66.2592 719.599 70.6027 712.748C70.8602 712.339 71.2894 712.94 71.0319 713.349Z" fill="#646464"/>
<path d="M44.6274 726.809C44.6189 730.757 44.46 734.688 44.1381 738.613C44.0952 739.147 43.4858 739.153 43.533 738.613C43.8506 734.688 44.0137 730.757 44.0223 726.809C44.0223 726.262 44.6274 726.262 44.6274 726.809Z" fill="#646464"/>
<path d="M48.8514 730.114C47.3663 733.089 45.8856 736.07 44.4006 739.045C44.1774 739.49 43.6537 739.069 43.8769 738.618C45.362 735.643 46.8427 732.662 48.3277 729.687C48.5466 729.242 49.0745 729.663 48.8514 730.114Z" fill="#646464"/>
<path d="M44.1041 738.519C46.778 735.622 49.5292 732.881 52.3619 730.303C52.6924 730.002 52.9928 730.742 52.6666 731.036C49.8768 733.578 47.1643 736.271 44.529 739.12C44.2243 739.45 43.7951 738.855 44.1041 738.519Z" fill="#646464"/>
<path d="M125.875 784.551C126.682 774.869 123.506 765.109 118.617 758.173C113.729 751.237 107.286 746.826 100.694 743.712C98.3074 742.588 95.861 741.597 93.6893 739.806C89.6634 736.488 86.9637 730.682 85.2512 724.6C83.9593 720.008 83.6803 713.451 86.8993 711.444C89.1483 710.043 91.9167 712.135 93.0068 715.224C94.0927 718.313 93.8481 722.01 93.1742 725.321C91.2857 734.607 86.2942 742.222 80.4313 747.294C74.5641 752.367 67.8471 755.162 61.1259 757.325C56.5935 758.786 51.9496 759.994 47.3185 759.423C42.6875 758.852 38.0178 756.316 35.0005 751.357C34.4125 750.39 33.8631 749.188 34.0305 747.937C34.1636 746.928 34.7258 746.158 35.2623 745.461C37.2066 742.919 39.1552 740.371 41.0994 737.828" stroke="#646464" stroke-width="0.6438" stroke-miterlimit="10" stroke-linecap="round" stroke-dasharray="4.18 4.18"/>
<path d="M58.0702 719.758C57.6153 720.972 57.1646 722.18 56.7096 723.394C56.5294 723.881 56.0058 723.448 56.186 722.968C56.641 721.753 57.0916 720.545 57.5466 719.331C57.7268 718.844 58.2505 719.277 58.0702 719.758Z" fill="#646464"/>
<path d="M55.7696 720.043C55.1473 722.038 54.525 724.028 53.9026 726.024C53.7481 726.523 53.2245 726.09 53.379 725.597C54.0013 723.601 54.6237 721.612 55.246 719.616C55.4005 719.111 55.9242 719.544 55.7696 720.043Z" fill="#646464"/>
<path d="M52.2155 722.947C51.6275 724.744 51.0438 726.548 50.4558 728.345C50.2927 728.844 49.769 728.411 49.9321 727.918C50.5201 726.121 51.1039 724.318 51.6919 722.52C51.855 722.021 52.3786 722.454 52.2155 722.947Z" fill="#646464"/>
<path d="M49.4476 724.455C48.8081 727.154 48.1214 729.829 47.3918 732.479C47.2544 732.984 46.6665 732.768 46.8081 732.251C47.5377 729.6 48.2244 726.926 48.8639 724.227C48.9841 723.71 49.5721 723.933 49.4476 724.455Z" fill="#646464"/>
<path d="M47.1942 726.658C46.6019 729.182 46.0139 731.707 45.4216 734.231C45.3015 734.748 44.7135 734.525 44.8379 734.003C45.4302 731.478 46.0182 728.954 46.6105 726.43C46.7307 725.919 47.3187 726.141 47.1942 726.658Z" fill="#646464"/>
<path d="M45.0954 726.937C44.825 728.235 44.649 729.552 44.576 730.904C44.546 731.445 43.9408 731.451 43.9709 730.904C44.0481 729.479 44.2284 728.085 44.5116 726.714C44.6189 726.191 45.2069 726.414 45.0954 726.937Z" fill="#646464"/>
<path d="M647.154 345.465C646.245 346.208 644.802 347.802 644.109 348.577C643.417 349.353 640.714 347.616 640.714 347.616C638.648 346.556 636.597 345.134 635.584 344.392C635.257 344.13 634.687 344.101 634.311 344.328C633.935 344.555 633.894 344.952 634.22 345.214C635.338 346.198 637.79 348.234 640.155 349.503C641.551 350.252 642.972 350.695 644.109 350.726C644.724 350.741 645.335 350.571 645.929 350.231C646.821 349.72 647.729 348.604 648.741 347.567C649.099 347.2 649.466 346.841 649.885 346.557C650.205 346.339 650.535 346.151 650.943 346.103C651.885 345.991 652.658 346.313 653.393 346.752C654.704 347.534 655.882 348.67 657.134 349.555C658.32 350.394 659.587 351.023 661.018 351.169C662.368 351.324 663.331 350.989 664.128 350.384C664.847 349.837 665.391 348.976 666.034 348.114C666.617 347.333 667.277 346.514 668.692 346.312C669.814 346.14 670.741 346.382 671.589 346.777C673.094 347.478 674.382 348.609 675.767 349.513C677.018 350.329 678.348 350.973 679.844 351.2C680.558 351.308 681.422 351.139 682.299 350.581C683.169 350.029 684.248 348.94 685.91 348.411C686.782 348.134 687.838 348.044 689.137 348.339C689.878 348.511 690.68 348.232 690.927 347.717C691.174 347.201 690.773 346.643 690.032 346.471C687.905 345.968 686.17 346.138 684.728 346.582C683.006 347.112 681.726 348.086 680.731 348.785C679.606 349.576 678.047 348.166 677.157 347.532C675.904 346.639 674.665 345.669 673.273 345.022C671.746 344.314 670.049 343.956 668.034 344.278C667.003 344.453 666.177 344.78 665.503 345.217C664.111 346.119 663.429 347.516 662.645 348.577C662.328 349.007 662.097 349.435 661.416 349.369C660.096 349.218 659.109 348.346 658.073 347.466C656.788 346.374 655.508 345.213 654.02 344.575C652.959 344.12 651.794 343.91 650.486 344.035C649.213 344.161 648.094 344.697 647.154 345.465Z" fill="#EDEDED"/>
</g>
<defs>
<filter id="filter0_d_3330_957" x="313.772" y="457" width="23.2177" height="25.6857" filterUnits="userSpaceOnUse" color-interpolation-filters="sRGB">
<feFlood flood-opacity="0" result="BackgroundImageFix"/>
<feColorMatrix in="SourceAlpha" type="matrix" values="0 0 0 0 0 0 0 0 0 0 0 0 0 0 0 0 0 0 127 0" result="hardAlpha"/>
<feOffset dy="1.53439"/>
<feGaussianBlur stdDeviation="0.613757"/>
<feColorMatrix type="matrix" values="0 0 0 0 0 0 0 0 0 0 0 0 0 0 0 0 0 0 0.5 0"/>
<feBlend mode="normal" in2="BackgroundImageFix" result="effect1_dropShadow_3330_957"/>
<feBlend mode="normal" in="SourceGraphic" in2="effect1_dropShadow_3330_957" result="shape"/>
</filter>
<clipPath id="clip0_3330_957">
<rect width="1440" height="785" fill="white"/>
</clipPath>
<clipPath id="clip1_3330_957">
<rect width="10.71" height="10.71" fill="white" transform="translate(311.215 457.922) rotate(-91.1483)"/>
</clipPath>
</defs>
</svg>
