<svg width="150" height="150" viewBox="0 0 150 150" fill="none" xmlns="http://www.w3.org/2000/svg">
<path fill-rule="evenodd" clip-rule="evenodd" d="M106.198 77.4536C110.951 83.0607 118.737 90.0163 120.01 97.4008C122.042 109.19 105.734 108.493 98.8487 106.909C97.022 106.488 95.1967 106.046 93.3955 105.523C91.2525 104.901 89.1173 104.24 87.0118 103.5C85.0021 110.487 81.427 118.761 76.0957 123.836C71.6283 128.088 66.1768 127.708 62.6905 122.493C58.5272 116.266 57.0501 107.712 55.8942 100.456C48.6039 97.8481 41.0878 95.2577 34.639 90.9679C28.4403 86.8434 28.7953 80.2557 34.5756 75.9373C36.4428 74.542 38.467 73.3645 40.5489 72.32C43.3508 70.9151 50.3316 68.0955 52.0851 67.3196C52.2293 67.1224 51.889 65.236 51.8638 64.9004C51.6948 62.6201 51.5721 60.3508 51.5395 58.0636C51.5157 56.3376 51.5054 54.6104 51.5151 52.8848C51.549 46.7433 50.5603 30.6927 60.5808 32.5399C61.5991 32.7281 62.5541 33.1092 63.4745 33.5742C64.9944 34.3431 66.3981 35.4233 67.7202 36.49C70.2024 38.4927 72.453 40.7576 74.7129 43.0003C78.0889 46.3492 81.2702 49.9501 84.787 53.1558C84.8307 53.1951 84.8695 53.2397 84.9063 53.2861C87.5433 52.1961 90.1792 51.0831 92.8436 50.0598C98.6561 47.8265 106.894 42.4117 111.898 46.9778C114.604 49.4464 114.546 53.3517 113.815 56.6491C112.328 63.3465 109.019 69.4714 105.846 75.4885" fill="#D3EAFF"/>
<path d="M106.198 77.4536C110.951 83.0607 118.737 90.0163 120.01 97.4008C122.042 109.19 105.734 108.493 98.8487 106.909C97.022 106.488 95.1967 106.046 93.3955 105.523C91.2525 104.901 89.1173 104.24 87.0118 103.5C85.0021 110.487 81.427 118.761 76.0957 123.836C71.6283 128.088 66.1768 127.708 62.6905 122.493C58.5272 116.266 57.0501 107.712 55.8942 100.456C48.6039 97.8481 41.0878 95.2577 34.639 90.9679C28.4403 86.8434 28.7953 80.2557 34.5756 75.9373C36.4428 74.542 38.467 73.3645 40.5489 72.32C43.3508 70.9151 50.3316 68.0955 52.0851 67.3196C52.2293 67.1224 51.889 65.236 51.8638 64.9004C51.6948 62.6201 51.5721 60.3508 51.5395 58.0636C51.5157 56.3376 51.5054 54.6104 51.5151 52.8848C51.549 46.7433 50.5603 30.6927 60.5808 32.5399C61.5991 32.7281 62.5541 33.1092 63.4745 33.5742C64.9944 34.3431 66.3981 35.4233 67.7202 36.49C70.2024 38.4927 72.453 40.7576 74.7129 43.0003C78.0889 46.3492 81.2702 49.9501 84.787 53.1558C84.8307 53.1951 84.8695 53.2397 84.9063 53.2861C87.5433 52.1961 90.1792 51.0831 92.8436 50.0598C98.6561 47.8265 106.894 42.4117 111.898 46.9778C114.604 49.4464 114.546 53.3517 113.815 56.6491C112.328 63.3465 109.019 69.4714 105.846 75.4885" stroke="#D3EAFF" stroke-width="6.30993" stroke-miterlimit="1.5" stroke-linecap="round" stroke-linejoin="round"/>
</svg>
