<svg width="25" height="24" viewBox="0 0 25 24" fill="none" xmlns="http://www.w3.org/2000/svg">
<path d="M20.5002 10.999H22.5002C22.5002 5.869 18.6272 2 13.4902 2V4C17.5522 4 20.5002 6.943 20.5002 10.999Z" fill="white"/>
<path d="M13.5003 8.00024C15.6033 8.00024 16.5003 8.89724 16.5003 11.0002H18.5003C18.5003 7.77524 16.7253 6.00024 13.5003 6.00024V8.00024ZM16.9223 13.4432C16.7301 13.2686 16.4776 13.1754 16.2181 13.1835C15.9585 13.1915 15.7123 13.3001 15.5313 13.4862L13.1383 15.9472C12.5623 15.8372 11.4043 15.4762 10.2123 14.2872C9.02028 13.0942 8.65928 11.9332 8.55228 11.3612L11.0113 8.96724C11.1977 8.78637 11.3064 8.54006 11.3144 8.28045C11.3225 8.02083 11.2292 7.76828 11.0543 7.57624L7.35928 3.51324C7.18432 3.3206 6.94116 3.20374 6.68143 3.1875C6.42171 3.17125 6.16588 3.2569 5.96828 3.42624L3.79828 5.28724C3.62539 5.46075 3.5222 5.69169 3.50828 5.93624C3.49328 6.18624 3.20728 12.1082 7.79928 16.7022C11.8053 20.7072 16.8233 21.0002 18.2053 21.0002C18.4073 21.0002 18.5313 20.9942 18.5643 20.9922C18.8088 20.9786 19.0396 20.8749 19.2123 20.7012L21.0723 18.5302C21.2417 18.3328 21.3276 18.077 21.3115 17.8173C21.2954 17.5576 21.1788 17.3143 20.9863 17.1392L16.9223 13.4432Z" fill="white"/>
</svg>
