<svg width="110" height="101" viewBox="0 0 110 101" fill="none" xmlns="http://www.w3.org/2000/svg">
<path d="M52.6428 25.6047C47.7925 26.7865 44.6804 31.4034 45.2626 36.2393C43.5552 31.6776 38.6681 29.0096 33.8178 30.1914C28.9675 31.3731 25.8555 35.9901 26.4377 40.8259C24.7302 36.2643 19.8432 33.5963 14.9929 34.7781C9.75712 36.0537 6.54685 41.3323 7.82253 46.5681C7.8317 46.6057 7.84108 46.6432 7.85066 46.6807L7.85001 46.6808C12.9254 67.5117 33.9266 80.284 54.7575 75.2086C75.5883 70.1332 88.3607 49.132 83.2852 28.3011L83.2846 28.3013C83.2759 28.2636 83.2669 28.226 83.2578 28.1884C81.9821 22.9526 76.7035 19.7423 71.4677 21.018C66.6174 22.1998 63.5053 26.8168 64.0876 31.6526C62.3801 27.0909 57.4931 24.4229 52.6428 25.6047Z" fill="#FFA6C1"/>
</svg>
