<svg width="1440" height="871" viewBox="0 0 1440 871" fill="none" xmlns="http://www.w3.org/2000/svg">
<g clip-path="url(#clip0_260_6366)">
<circle cx="51" cy="820" r="51" fill="#FFFBEA"/>
<circle cx="663" cy="820" r="51" fill="#FFFBEA"/>
<circle cx="357" cy="820" r="51" fill="#FFFBEA"/>
<circle cx="969" cy="820" r="51" fill="#FFFBEA"/>
<circle cx="153" cy="820" r="51" fill="#FFFBEA"/>
<circle cx="765" cy="820" r="51" fill="#FFFBEA"/>
<circle cx="459" cy="820" r="51" fill="#FFFBEA"/>
<circle cx="1071" cy="820" r="51" fill="#FFFBEA"/>
<circle cx="1275" cy="820" r="51" fill="#FFFBEA"/>
<circle cx="255" cy="820" r="51" fill="#FFFBEA"/>
<circle cx="867" cy="820" r="51" fill="#FFFBEA"/>
<circle cx="561" cy="820" r="51" fill="#FFFBEA"/>
<circle cx="1173" cy="820" r="51" fill="#FFFBEA"/>
<circle cx="1377" cy="820" r="51" fill="#FFFBEA"/>
<circle cx="1479" cy="820" r="51" fill="#FFFBEA"/>
</g>
<rect width="1440" height="812" fill="#FFFBEA"/>
<path d="M1349.88 793.954C1349.81 795.136 1351.38 799.167 1352.03 799.595C1353 800.204 1354.21 799.607 1354.12 798.589C1353.84 795.458 1350.01 791.264 1349.88 793.954Z" fill="#F4B400"/>
<path d="M1300.84 766.019C1301.14 767.513 1302.51 771.176 1303.33 773.359C1303.59 774.029 1304.29 774.369 1304.96 774.211C1306.9 773.728 1306.06 770.027 1302.85 764.57C1302.05 763.211 1300.54 764.276 1300.84 766.019Z" fill="#F4B400"/>
<path d="M1307.33 760.422C1310.12 759.464 1311.53 758.508 1311.27 757.73C1310.92 756.724 1308.5 757.267 1305.18 759.021C1301.64 760.961 1303.08 761.88 1307.33 760.422Z" fill="#F4B400"/>
<path d="M1294.81 748.661C1294.14 749.252 1297.82 759.227 1298.75 759.381C1301.28 759.781 1301.78 758.193 1300.32 754.78C1297.2 747.696 1296.65 747.05 1294.81 748.661Z" fill="#F4B400"/>
<path d="M1292.64 763.253C1290.56 764.258 1290.09 764.674 1290.32 765.355C1290.69 766.425 1297.26 764.458 1298.44 762.929C1299.85 761.106 1296.75 761.264 1292.64 763.253Z" fill="#F4B400"/>
<path d="M1348.79 789.614C1349.35 789.349 1349.65 788.739 1349.45 788.155C1348.29 784.273 1347.56 781.699 1345.51 783.452C1345.12 783.803 1345.85 786.236 1347.08 788.643C1347.8 790.024 1347.85 790.045 1348.79 789.614Z" fill="#F4B400"/>
<path d="M1351.83 790.128C1350.97 790.895 1351.33 791.64 1352.51 791.488C1353.56 791.381 1357.2 789.516 1357.79 788.806C1358.85 787.463 1353.5 788.65 1351.83 790.128Z" fill="#F4B400"/>
<path d="M1347.37 791.622C1346.2 791.59 1345.98 791.668 1344.49 792.722C1342.25 794.325 1343.63 794.974 1346.38 793.594C1348.31 792.644 1348.77 791.686 1347.37 791.622Z" fill="#F4B400"/>
<path d="M1338.37 777.64C1338.71 776 1337.86 774.37 1336.36 773.69C1332.62 772 1328.34 768.395 1325.14 764.239C1323.33 761.924 1317.31 752.209 1316.85 750.879C1316.27 749.193 1314.14 748.985 1313.37 750.553C1313.2 750.902 1313.26 752.148 1313.56 753.316C1314.9 759.235 1315.97 773.332 1315.39 777.88C1315.11 780.116 1313.8 782.633 1312.07 784.243C1310.58 785.622 1310.63 785.752 1313.45 786.887C1319.05 789.167 1324.78 795.502 1331 806.343C1336.59 816.061 1338.97 811.475 1337.85 809.501C1335.64 805.693 1335.7 790.339 1338 779.324L1338.37 777.64ZM1333.76 777.736C1332 782.837 1330.75 790.297 1330.79 795.686L1330.82 798.212L1329.68 796.249C1321.82 782.962 1315.57 784.308 1314.71 783.915C1315.17 782.924 1320.23 776.655 1320.01 766.291C1319.95 763.158 1319.78 763.214 1321.57 765.572C1324.95 770.03 1328.66 773.326 1332.25 775.136L1334.31 776.17L1333.76 777.736Z" fill="#F4B400"/>
<defs>
<clipPath id="clip0_260_6366">
<rect width="1440" height="102" fill="white" transform="translate(0 769)"/>
</clipPath>
</defs>
</svg>
