<?xml version="1.0" encoding="UTF-8" standalone="no"?>
<svg
   width="1620"
   height="1372"
   viewBox="0 0 1620 1372"
   fill="none"
   version="1.1"
   id="svg10"
   sodipodi:docname="transfrom-lessons-bg.svg"
   inkscape:version="1.3.2 (091e20e, 2023-11-25, custom)"
   xmlns:inkscape="http://www.inkscape.org/namespaces/inkscape"
   xmlns:sodipodi="http://sodipodi.sourceforge.net/DTD/sodipodi-0.dtd"
   xmlns="http://www.w3.org/2000/svg"
   xmlns:svg="http://www.w3.org/2000/svg">
  <defs
     id="defs10" />
  <sodipodi:namedview
     id="namedview10"
     pagecolor="#ffffff"
     bordercolor="#000000"
     borderopacity="0.25"
     inkscape:showpageshadow="2"
     inkscape:pageopacity="0.0"
     inkscape:pagecheckerboard="0"
     inkscape:deskcolor="#d1d1d1"
     inkscape:zoom="0.29956268"
     inkscape:cx="75.109489"
     inkscape:cy="-76.778589"
     inkscape:window-width="1920"
     inkscape:window-height="1018"
     inkscape:window-x="-6"
     inkscape:window-y="-6"
     inkscape:window-maximized="1"
     inkscape:current-layer="svg10" />
  <path
     d="m 16.989888,129.12488 c 0,0 194.151232,-237.08599 742.931012,-23.7931 548.7807,213.29311 491.4298,-84.499939 772.3966,23.7931 280.9668,108.29301 310.1474,632.06601 0,989.70702 -376.3482,433.98 -936.557,-230.00001 -1515.327612,197 -578.770608,427 0,-1186.70702 0,-1186.70702 z"
     fill="#fffbea"
     id="path1"
     style="stroke-width:1.02582" />
  <path
     d="m 149.08153,169.96117 c 0,42.712 85,0 85,0 0,0 -85,-42.713 -85,0 z"
     fill="#ffae5b"
     id="path2" />
  <path
     d="m 319.08153,169.96117 c 0,42.712 -85,0 -85,0 0,0 85,-42.713 85,0 z"
     fill="#ffae5b"
     id="path3" />
  <path
     d="m 191.58253,243.57317 c 36.99,21.356 42.5,-73.612 42.5,-73.612 0,0 -79.491,52.256 -42.5,73.612 z"
     fill="#ffae5b"
     id="path4" />
  <path
     d="m 276.58253,96.348672 c 36.99,21.356198 -42.5,73.612498 -42.5,73.612498 0,0 5.509,-94.968798 42.5,-73.612498 z"
     fill="#ffae5b"
     id="path5" />
  <path
     d="m 276.58053,243.57317 c -36.99,21.356 -42.5,-73.612 -42.5,-73.612 0,0 79.491,52.256 42.5,73.612 z"
     fill="#ffae5b"
     id="path6" />
  <path
     d="m 191.58053,96.348672 c -36.99,21.356198 42.5,73.612498 42.5,73.612498 0,0 -5.509,-94.968798 -42.5,-73.612498 z"
     fill="#ffae5b"
     id="path7" />
  <path
     fill-rule="evenodd"
     clip-rule="evenodd"
     d="m 1196.1982,1231.8937 c 22.66,0 41.04,18.37 41.04,41.04 h -10.48 c 0,-16.88 -13.68,-30.56 -30.56,-30.56 -16.88,0 -30.56,13.68 -30.56,30.56 h -10.48 c 0,-22.67 18.38,-41.04 41.04,-41.04 z"
     fill="#f84a00"
     id="path8" />
  <path
     fill-rule="evenodd"
     clip-rule="evenodd"
     d="m 1196.1982,1213.2937 c 32.94,0 59.64,26.7 59.64,59.64 h -10.48 c 0,-27.15 -22.01,-49.16 -49.16,-49.16 -27.15,0 -49.16,22.01 -49.16,49.16 h -10.48 c 0,-32.94 26.7,-59.64 59.64,-59.64 z"
     fill="#f84a00"
     id="path9" />
  <path
     fill-rule="evenodd"
     clip-rule="evenodd"
     d="m 1196.1982,1252.3837 c 12.86,0 23.61,10.64 23.61,23.5 l -11,0.5 c 0,-7.07 -5.54,-13.5 -12.61,-13.5 -7.07,0 -12.89,6.43 -12.89,13.5 l -10.5,-0.5 c 0,-12.86 10.53,-23.5 23.39,-23.5 z"
     fill="#f84a00"
     id="path10" />
</svg>
