<svg width="185" height="135" viewBox="0 0 185 135" fill="none" xmlns="http://www.w3.org/2000/svg">
<path fill-rule="evenodd" clip-rule="evenodd" d="M18.3174 33.2479C18.3777 33.2132 18.438 33.1789 18.4984 33.1442C18.6443 33.3402 18.7566 33.5807 18.944 33.7207C19.1482 33.8733 19.4885 33.871 19.6514 34.0457C19.9917 34.4108 20.4286 34.5752 20.8486 34.7858C20.9886 35.442 21.6002 35.6269 22.0434 35.9803C22.3909 36.2575 22.7501 36.5217 23.0813 36.817C23.1791 36.9042 23.1985 37.0793 23.2537 37.2141C22.8921 37.0671 22.6937 36.737 22.284 36.8498C21.98 36.9338 22.0111 36.6633 21.8964 36.5138C21.8005 36.3896 21.3746 36.4227 21.3628 36.3458C21.2985 35.9203 20.9535 35.8537 20.6751 35.6774C20.36 35.4783 20.024 35.274 19.7918 34.9932C19.5572 34.7093 19.2515 34.7306 18.9767 34.6482C19.0449 34.4759 19.1104 34.3095 19.2172 34.0397H18.3174V33.2479ZM121.933 12.2234C122.661 12.6166 122.914 13.3323 123.249 13.9892C123.564 14.6087 123.712 15.3095 123.997 15.9298C124.317 16.627 124.479 17.3541 124.509 18.0651C124.539 18.8084 125.039 19.5273 124.66 20.3022C124.552 20.1176 124.429 19.9536 124.359 19.7694C124.311 19.6448 124.358 19.4875 124.328 19.3526C124.218 18.8632 124.093 18.3774 123.975 17.8904C123.847 17.3652 123.596 16.8632 123.674 16.2989C123.117 15.1352 122.907 13.8272 122.183 12.7325C122.08 12.5759 122.016 12.3934 121.933 12.2234V12.2234ZM11.8246 40.9107C11.6838 40.9249 11.5876 40.9648 11.5509 40.9336C10.9401 40.4174 10.3068 39.9229 9.73698 39.3634C8.55673 38.2036 7.61033 36.8432 6.73214 35.4579C6.33662 34.834 5.8713 34.2043 5.68833 33.4266C5.60591 33.0761 5.89891 33.1549 5.93558 32.9905C6.67259 34.4196 7.32916 35.8995 8.37179 37.1291C9.4641 38.4174 10.6475 39.6292 11.8246 40.9107V40.9107ZM20.2103 14.1474C20.0107 14.2772 19.8459 14.3888 19.6763 14.4937C19.5068 14.599 19.3329 14.6971 19.1609 14.7985C19.4413 15.3119 19.4405 15.3072 19.09 15.5611C18.9531 15.6605 18.7548 15.7839 18.7366 15.9176C18.6645 16.4417 18.3447 16.1349 18.196 16.1593C18.2287 15.7808 18.2599 15.4235 18.2906 15.0666C17.8312 14.7693 18.2753 14.468 18.3052 14.1762C18.3242 13.9944 18.4665 13.8103 18.5978 13.6679C18.6235 13.6407 18.8545 13.804 19.0194 13.8951C19.14 13.6356 19.2355 13.4301 19.39 13.0977C19.0785 13.2251 18.9165 13.2913 18.7575 13.3564C18.5667 12.8883 19.0907 13.0677 19.1322 12.8741C19.1811 12.645 19.1436 12.3974 19.1436 12.0847H20.5947C20.6634 11.9005 20.7008 11.8007 20.7931 11.5539C20.8495 12.3844 20.8495 12.3844 20.4867 12.6998C20.4445 12.5752 20.4019 12.4506 20.3574 12.3193C20.1645 12.4999 19.9934 12.6604 19.8408 12.8031C19.6487 12.6963 19.5316 12.6312 19.3262 12.5169C19.42 13.1786 19.8964 13.302 20.2103 13.5465V14.1474ZM34.2908 101.954C34.4383 102.245 34.6379 102.526 34.5941 102.571C34.29 102.884 34.4545 103.25 34.4289 103.586C34.4012 103.942 34.3409 104.328 34.445 104.653C34.5531 104.989 34.0491 105.256 34.4103 105.562C34.0712 105.833 34.2329 106.21 34.2124 106.544C34.1903 106.9 34.2072 107.26 34.2072 107.619C34.2072 108.98 34.2096 110.342 34.2041 111.704C34.2037 111.84 34.1564 111.975 34.1307 112.11C34.0511 111.541 33.8456 111.011 33.8058 110.484C33.71 109.227 33.8204 107.96 33.5806 106.702C33.4793 106.17 33.7017 105.603 33.7348 105.071C33.7991 104.033 34.0416 103.051 34.2908 101.954V101.954ZM34.0757 127C33.8036 126.599 33.5406 126.28 33.3533 125.922C32.7385 124.746 31.7199 123.764 31.6095 122.341C31.6052 122.287 31.5078 122.244 31.464 122.188C31.1418 121.773 30.949 121.304 30.9861 120.776C31.0259 120.209 30.8481 119.702 30.6241 119.202C30.5196 118.968 30.4675 118.758 30.783 118.515C30.9246 118.699 31.1103 118.858 31.1844 119.059C31.3 119.372 31.3142 119.72 31.4159 120.04C31.6982 120.924 31.8654 121.85 32.3592 122.66C32.4262 122.771 32.5015 122.923 32.4771 123.034C32.3528 123.604 32.6636 124.107 32.9479 124.446C33.5355 125.147 33.6731 126.101 34.4235 126.653L34.0757 127ZM113.707 10.9312C114.203 10.6737 114.61 10.462 115.022 10.2479C115.093 10.311 115.197 10.4048 115.298 10.4951C115.223 10.5807 115.157 10.6548 115.119 10.6974C115.606 11.0787 116.082 11.453 116.554 11.8232C116.515 11.871 116.382 11.9904 116.399 12.0188C116.558 12.2787 116.756 12.5141 116.916 12.7728C117.275 13.3517 117.687 13.9235 117.364 14.6849C116.897 14.3639 116.643 13.7216 115.97 13.7831C116.04 13.6037 116.192 13.3927 116.141 13.3134C115.9 12.94 115.664 12.5054 115.308 12.2803C114.945 12.0504 114.634 11.7203 114.546 11.4194C114.412 10.9557 114.092 11.0992 113.707 10.9312V10.9312ZM83.8743 85.9819L83.7225 85.8296C83.7797 85.7792 83.8416 85.681 83.8933 85.6861C84.3089 85.7255 84.8133 85.7204 84.9572 85.5706C85.5246 84.9799 86.2289 85.2129 86.8417 85.3296C87.4092 85.4377 87.9269 85.806 88.468 86.0572C88.6391 86.1372 88.8087 86.2441 88.9885 86.2693C89.0646 86.28 89.1592 86.0398 89.2886 86.2366C89.3734 86.3663 89.4424 86.5063 89.6289 86.8391C88.9798 86.5805 88.5524 87.3273 88.0405 86.7634C88.0318 86.754 87.7866 86.8837 87.7783 86.9618C87.7479 87.2493 87.507 87.2378 87.3954 87.172C86.848 86.8506 86.24 87.0332 85.6611 86.9417C85.626 86.724 85.5944 86.5268 85.5858 86.472C85.4387 86.6187 85.2581 86.7989 85.109 86.9472C85.1504 86.9614 85.2754 87.0052 85.2313 86.9898C85.0901 87.131 84.9087 87.3124 84.7529 87.4685C84.6599 87.131 84.9907 86.5237 84.3117 86.3099C83.9792 86.584 83.6291 86.6219 83.2012 86.4259C83.4473 86.2634 83.661 86.1222 83.8743 85.9819V85.9819ZM80.9753 89.5456C81.2518 89.9746 81.7195 89.4174 82.003 89.7648C82.3382 89.4099 82.7995 89.628 83.1978 89.5073C83.3942 89.5507 82.9975 88.969 83.5019 89.2297C83.8189 89.3937 84.2546 89.3291 84.6837 89.3716C84.7322 89.1252 84.7756 88.9063 84.8446 88.5581C84.9341 88.8149 84.9779 88.9399 85.0299 89.0881C85.2981 88.9107 85.5631 88.7352 85.8671 88.5345C85.8091 88.331 85.7472 88.1133 85.6817 87.8834C86.097 87.622 86.5749 87.4997 87.2276 87.734C86.7859 87.9438 86.4365 88.1094 86.0587 88.2884C86.1699 88.5159 86.2654 88.7111 86.3608 88.9067C86.5548 88.8133 86.416 88.2249 86.9298 88.5944C86.8419 88.7908 86.7488 88.997 86.6573 89.2009C86.7386 89.2443 86.8056 89.3054 86.8332 89.2908C87.1873 89.1043 87.5359 88.9071 87.8861 88.7123C88.2122 89.3078 88.8116 89.5254 89.5257 89.7415C89.4563 89.5412 89.4063 89.3965 89.3305 89.178C89.534 89.0511 89.6188 88.6484 90.0577 88.695C89.9954 89.0302 89.9366 89.3444 89.8803 89.6473C90.2312 89.8046 90.2809 89.8989 90.1689 90.1248C90.6673 90.5176 90.7529 89.7624 91.1512 89.7179C91.1902 89.9746 91.2206 90.1718 91.2521 90.3772C91.4682 90.3445 91.5818 90.0653 91.8791 90.2983C92.2932 90.6221 92.8472 90.7664 93.2585 91.0921C93.6738 91.421 94.0019 91.2593 94.4092 91.0779C94.4234 91.2692 94.436 91.4388 94.4549 91.6935C95.0177 91.5886 95.4542 91.9561 95.9582 92.1158C97.1617 92.4976 98.3183 92.9992 99.4977 93.4404C100.552 93.8348 101.582 94.2922 102.628 94.7098C103.49 95.054 104.351 95.3991 105.225 95.7102C106.411 96.1333 107.553 96.67 108.725 97.1298C109.64 97.4891 110.557 97.8964 111.469 98.2915C111.77 98.4221 112.04 98.6871 112.425 98.5912C112.506 98.5711 112.634 98.6232 112.702 98.6843C113.527 99.4261 114.701 99.4272 115.582 100.047C115.633 100.082 115.717 100.098 115.778 100.086C116.673 99.9087 117.327 100.498 118.058 100.818C119.22 101.327 120.412 101.732 121.644 102.027C121.904 102.089 122.181 102.127 122.409 102.252C122.626 102.371 122.856 102.283 123.045 102.367C123.288 102.476 123.535 102.626 123.712 102.821C123.96 103.096 124.122 102.534 124.413 102.819C124.625 103.026 125.047 103.001 125.337 103.153C125.812 103.401 126.412 103.302 126.826 103.733C126.912 103.823 127.199 103.803 127.345 103.733C127.608 103.607 127.705 103.565 127.871 103.899C127.962 104.083 128.404 104.123 128.698 104.17C129.629 104.318 130.467 104.854 131.441 104.821C132.196 105.346 133.111 105.292 133.95 105.514C134.143 105.566 134.331 105.641 134.526 105.678C134.891 105.749 135.26 105.59 135.64 105.868C135.907 106.064 136.394 105.745 136.728 106.098C136.793 106.166 137.08 106.102 137.209 106.016C137.549 105.789 137.383 106.153 137.459 106.193C137.58 106.257 137.769 106.187 137.897 106.244C138.477 106.507 139.086 106.616 139.708 106.535C140.809 106.393 141.86 106.81 142.955 106.784C143.286 106.776 143.624 107.008 143.959 106.757C144.581 107.077 145.203 106.622 145.824 106.76C146.083 106.817 146.393 107.029 146.585 106.947C147.093 106.732 147.605 106.793 148.119 106.751C148.629 106.709 149.135 106.614 149.644 106.542C149.711 106.532 149.817 106.548 149.841 106.511C150.06 106.175 150.413 106.375 150.653 106.29C151.201 106.096 151.803 106.218 152.323 105.907C152.712 105.674 153.073 105.485 153.264 105.245C153.336 105.397 153.404 105.543 153.501 105.748C154.287 105.147 155.451 105.241 156.107 104.206H156.905C157.005 104.028 157.084 103.765 157.162 103.765C157.71 103.768 158.166 103.739 158.126 102.989C158.12 102.874 158.418 102.742 158.777 102.458C158.635 102.873 158.574 103.051 158.467 103.366C158.884 103.088 159.185 102.902 159.47 102.694C159.739 102.498 160.043 102.318 160.238 102.06C160.466 101.76 160.85 101.669 161.048 101.345C161.226 101.055 161.418 100.761 161.659 100.527C161.913 100.281 162.042 99.9462 162.38 99.7396C162.604 99.6023 162.648 99.1693 162.776 98.8625C162.706 98.788 162.61 98.6839 162.517 98.5834C162.434 98.6571 162.36 98.7233 162.187 98.8767C162.217 98.6532 162.194 98.5076 162.256 98.4193C162.498 98.0672 162.878 97.8984 163.251 97.719C163.402 97.646 163.598 97.5526 163.651 97.4197C163.725 97.2343 163.632 96.9812 163.71 96.7986C163.772 96.6507 164.104 96.562 164.102 96.4508C164.092 95.8896 164.484 95.3912 164.338 94.819C164.742 93.9061 164.486 92.9428 164.552 92.0042C164.674 90.2609 164.183 88.6173 163.609 87.0175C162.963 85.2142 162.011 83.5615 160.827 82.0362C160.002 80.9739 159.218 79.8867 158.317 78.8795C157.085 77.5017 156.002 75.9973 154.963 74.4665C154.645 73.9984 154.488 73.4448 154.143 72.9728C153.818 72.5287 153.623 71.9719 153.45 71.4392C153.295 70.9601 153.234 70.4482 153.158 69.947C153.097 69.544 153.276 69.1083 152.949 68.7368C152.885 68.6643 152.942 68.4639 152.976 68.331C153.017 68.1717 153.139 68.0238 153.147 67.8673C153.267 65.5604 154.521 63.6518 156.283 62.3864C157.359 61.6139 158.51 60.9928 159.608 60.2775C161.157 59.27 162.803 58.43 164.342 57.4087C165.54 56.6145 166.809 55.928 168.045 55.1913C169.432 54.3652 170.907 53.6791 172.137 52.6061C172.814 52.4957 173.174 51.871 173.766 51.6072C174.428 51.3123 174.872 50.703 175.478 50.302C176.173 49.843 176.751 49.2081 177.382 48.6525C177.745 48.3327 178.022 47.9253 178.502 47.7218C178.747 47.6185 179.005 47.3685 179.099 47.1236C179.289 46.6287 179.713 46.3681 180.032 46.0049C181.56 44.2639 182.766 42.3486 183.505 40.1277C183.81 39.2097 183.916 38.2349 184.342 37.3575C184.193 36.5775 184.592 35.8527 184.563 35.0802C184.535 34.3286 184.692 33.5435 184.525 32.8297C184.275 31.7599 184.306 30.6068 183.697 29.6297C183.497 28.1541 182.058 25.5546 181.403 24.5573C180.636 23.3897 179.597 22.459 178.561 21.5607C178.038 21.1061 177.401 20.6617 176.65 20.4945C176.165 20.3864 175.727 20.1388 175.226 20.0201C174.766 19.9112 174.41 19.8162 173.961 19.9968C173.795 20.0635 173.544 19.8801 173.329 19.8667C172.936 19.8422 172.538 19.83 172.147 19.8694C171.855 19.899 171.582 20.1833 171.272 19.916C170.94 20.25 170.515 19.9664 170.158 20.0832C169.845 20.1857 169.567 20.3927 169.255 20.498C168.75 20.6676 168.228 20.7867 167.716 20.9381C167.559 20.9846 167.396 21.0446 167.262 21.1364C166.449 21.6913 165.478 21.8537 164.586 22.2075C163.633 22.586 162.63 22.853 161.711 23.3132C161.055 23.6421 160.349 23.8455 159.677 24.1164C158.972 24.4015 158.293 24.758 157.574 25.0116C156.099 25.5317 154.735 26.2944 153.327 26.96C151.528 27.8106 149.732 28.6695 147.943 29.5409C144.81 31.0662 141.688 32.6128 138.551 34.1298C137.777 34.5045 136.984 34.8661 136.162 35.1027C135.764 35.2174 135.449 35.4682 135.058 35.5621C134.471 35.7028 133.889 35.8641 133.299 35.9864C132.832 36.0834 132.319 36.0471 131.892 36.2261C131.139 36.5412 130.326 36.5522 129.554 36.8042C128.74 37.07 127.868 36.719 127.178 36.1413C126.877 35.889 126.626 35.5774 126.336 35.3113C125.197 34.2678 124.927 33.021 125.401 31.5694C125.61 30.9298 125.861 30.2929 125.837 29.5985C126.268 29.2022 125.828 28.5559 126.251 28.1568C126.16 27.3662 126.388 26.5846 126.102 25.7616C125.914 25.2174 125.743 24.5837 125.824 23.9311C126.029 22.2706 125.673 20.6206 125.571 18.97C125.5 17.824 125.208 16.6564 124.882 15.5152C124.66 14.7379 124.307 14.0206 124.037 13.2765C123.734 12.4429 123.141 11.7067 122.628 10.9598C121.548 9.38876 120.109 8.19431 118.52 7.16943C117.369 6.42729 116.167 5.77742 114.864 5.35548C114.322 5.1804 113.725 5.12362 113.186 4.97495C112.589 4.81012 111.972 4.96864 111.447 4.77029C110.886 4.55814 110.345 4.55695 109.804 4.60388C108.784 4.69261 107.767 4.85271 106.756 5.02464C105.767 5.19302 104.851 5.60352 103.917 5.95685C102.689 6.42256 101.537 7.01604 100.492 7.81378C100.33 7.93721 100.12 8.01962 100.001 8.17381C99.353 9.01177 98.6763 9.83397 98.1041 10.7224C97.1345 12.2284 96.037 13.301 94.6896 14.3464C94.4711 14.5155 94.326 14.7786 94.1458 14.9994C93.7921 14.8744 93.5425 14.7206 93.2897 14.7143C92.9955 14.7076 92.7707 14.5759 92.5136 14.4998C92.2498 14.4217 91.9241 14.4166 91.6642 14.5002C91.385 14.5901 91.2336 14.1732 90.9355 14.3992C90.8531 14.4611 90.6031 14.3014 90.43 14.243C90.2411 14.1796 90.0329 14.1472 89.8684 14.0447C89.616 13.8874 89.5206 14.3554 89.2426 14.1547C89.0951 14.0482 88.8431 14.0967 88.6448 14.0482C88.4192 13.9934 88.2055 13.8866 87.9792 13.8424C87.6629 13.7805 87.3841 13.9749 87.0962 14.0187C86.8955 14.049 86.6629 13.7 86.4152 13.6381C86.0903 13.5573 85.7614 13.5821 85.4187 13.4414C85.1131 13.316 84.5764 13.2051 84.4215 13.8211C84.4112 13.8613 84.1044 13.8266 83.9041 13.8266C83.9987 13.6302 84.0654 13.4914 84.1356 13.3463C83.7862 13.2028 83.5235 12.7477 83.0992 13.1503C82.9514 12.9149 82.8189 13.1708 82.7223 13.159C82.445 13.1247 82.3429 12.4508 81.8957 12.9315C81.6004 12.8092 81.3125 12.6558 81.0057 12.5813C80.8803 12.5509 80.6914 12.7706 80.5715 12.7367C80.3972 12.6874 80.262 12.3849 80.0534 12.6349C79.8594 12.8672 79.7687 12.5143 79.6752 12.59C79.5853 12.6633 79.5672 12.8246 79.5171 12.9476C78.7907 12.7162 78.7907 12.7162 78.6152 12.0742C78.4295 12.1625 78.2335 12.2229 78.0789 12.3388C77.9429 12.4401 77.8526 12.6038 77.7548 12.7241C77.6369 12.5289 77.5158 12.3278 77.3991 12.1345C75.8888 12.5328 75.776 12.5009 75.2377 11.5091H74.5086C74.4609 11.6101 74.3939 11.7532 74.3162 11.9184C74.1809 11.3782 74.1809 11.3782 73.6375 11.0805C73.4076 11.0189 73.8173 11.6574 73.3272 11.3522C73.0618 11.1869 72.7578 11.1901 72.4502 11.3825C72.3118 11.4693 72.0519 11.446 71.8815 11.3817C71.5432 11.2536 71.0578 11.2575 71.1221 10.6558C71.1335 10.5524 70.9549 10.3647 70.6686 10.5627C70.3906 10.7543 69.9615 10.7279 69.5281 10.8107C69.5916 10.623 69.6528 10.442 69.7316 10.2078C69.1291 10.4255 68.6318 10.5698 68.1685 10.0714C68.0202 9.91165 67.8069 10.265 67.4867 10.0706C67.0478 9.8036 66.4571 9.78704 65.8581 9.64587C65.8419 9.5394 65.8119 9.34223 65.7839 9.15886C65.7315 9.13402 65.6999 9.10405 65.6719 9.1076C65.4132 9.13914 64.4065 8.98496 64.11 8.89347C63.5997 8.73692 63.0843 8.59575 62.5681 8.46089C60.1528 7.83034 57.838 6.88236 55.4484 6.18556C53.7507 5.69067 52.0523 5.18119 50.3279 4.76004C48.8771 4.40592 47.4165 4.0388 45.9831 3.58728C45.1826 3.3349 44.3296 3.25012 43.5027 3.07977C43.2417 3.02574 42.9909 2.92243 42.7298 2.87116C42.2965 2.78559 41.858 2.72408 41.4218 2.65231C40.9853 2.58054 40.5302 2.56516 40.1166 2.42556C39.1847 2.11128 38.189 2.15111 37.2505 1.82302C36.7237 1.63886 36.0971 1.79975 35.5154 1.59588C35.0403 1.42986 34.431 1.56433 34.0177 1.32734C33.5386 1.05288 33.0299 1.20549 32.541 0.978743C32.054 0.753183 31.3966 0.942464 30.8146 0.743719C30.5851 0.665246 30.2309 0.85295 29.9699 0.988602C29.598 1.18222 29.2758 1.25675 28.9355 0.937732C28.7817 0.793405 26.8956 0.0378563 26.8235 0.108048C26.4236 0.498047 26.0766 0.14551 25.5987 0C25.6555 0.233053 25.687 0.37462 25.7252 0.514215C25.7568 0.630544 25.7962 0.744902 25.8534 0.927085C25.3589 0.764619 25.3435 0.422729 25.396 0.0425884C25.1941 0.158918 25.0288 0.304033 24.9827 0.272487C24.7355 0.106077 24.5418 0.17824 24.2832 0.261445C24.1033 0.319018 23.8521 0.127765 23.6262 0.0768956C23.4898 0.0461374 23.3371 0.0512638 23.1979 0.0757126C22.9933 0.112386 22.8348 0.492132 22.5848 0.166804C22.3474 -0.141961 22.1395 0.358846 21.9976 0.208604C21.5922 -0.218857 21.2976 0.275641 20.9561 0.307188C20.6667 0.334003 20.2889 0.387633 20.2108 0.819826C20.2033 0.862414 19.9451 0.924325 19.8678 0.875427C19.7187 0.781181 19.5949 0.613193 19.4198 0.776449C18.9427 1.22284 18.2392 1.28159 17.7778 1.75677C17.6666 1.87152 17.4868 2.00165 17.348 1.9914C17.0274 1.96813 16.8957 2.19922 16.7533 2.37706C16.5514 2.63022 16.3381 2.85303 16.0778 3.04822C15.8037 3.25328 15.6267 3.52103 15.1953 3.54863C14.8656 3.56953 14.6921 4.05299 14.2934 4.19929C13.1644 4.61374 12.1222 5.25138 11.1442 5.91663C10.1896 6.5657 9.18361 7.1651 8.31134 7.95968C7.77228 8.45103 7.20089 8.91713 6.67406 9.42938C5.829 10.2512 5.2572 11.2922 4.50363 12.1775C3.45587 13.4078 2.8553 14.8578 2.15772 16.2695C1.5327 17.5342 1.15295 18.8686 0.831173 20.2433C0.634005 21.0868 0.659245 21.9941 0.224686 22.782C0.209307 22.8096 0.217185 22.8538 0.223495 22.8885C0.383595 23.7395 -0.0276878 24.538 0.00149315 25.3807C0.0298854 26.2041 -0.0123203 27.0302 0.0172549 27.8536C0.0294794 28.1844 0.171449 28.5086 0.216798 28.841C0.257809 29.1446 0.22862 29.4309 0.411198 29.7349C0.548427 29.9641 0.473897 30.3119 0.62335 30.6123C0.712076 30.7898 0.49165 31.1088 0.442358 31.3699C0.388334 31.6589 0.40963 31.9306 0.806332 31.9507C0.88796 32.5308 1.36866 32.9874 1.45068 33.502C1.61275 34.5151 2.40575 35.1934 2.63131 36.1417C3.11714 36.4276 3.00397 37.0743 3.44878 37.432C3.79658 37.7116 3.9555 38.2167 4.23351 38.5953C4.54031 39.0133 4.8885 39.4009 5.2158 39.8039C5.27929 39.882 5.39089 39.9857 5.37512 40.0536C5.23315 40.6746 5.72094 40.9384 6.05534 41.2827C6.60544 41.8478 7.14806 42.4227 7.73089 42.9527C8.72619 43.8573 9.73607 44.7414 10.8726 45.4808C11.6198 45.9666 12.2259 46.6867 12.9996 47.1122C13.8601 47.5858 14.6369 48.1694 15.4662 48.6793C16.5179 49.3256 17.6051 49.9092 18.6824 50.511C19.8177 51.1455 20.9948 51.6963 22.1214 52.3411C22.7898 52.7236 23.4061 53.2279 24.1132 53.5044C25.0904 53.8861 25.9204 54.5072 26.8262 54.9969C27.9497 55.6046 28.9773 56.3901 30.0436 57.1027C30.9608 57.7155 31.677 58.5503 32.4684 59.3031C32.7921 59.6111 33.0725 59.9502 33.5024 60.1706C33.8809 60.3654 34.1601 60.7641 34.3604 61.1916C34.7555 62.0331 35.1554 62.8738 35.405 63.769C35.506 64.1313 35.4456 64.5359 35.506 64.9137C35.5521 65.202 35.2524 65.6622 35.8585 65.7312C35.896 65.7355 35.924 65.9824 35.9248 66.1168C35.9315 66.8692 35.9165 67.6224 35.9323 68.3748C35.9425 68.8634 35.5525 69.2841 35.713 69.7913C35.2729 70.2231 35.5994 70.8366 35.3187 71.3536C35.0742 71.8036 35.1795 72.431 35.0576 72.9633C34.9015 73.6435 34.5442 74.3005 34.5079 74.9803C34.4649 75.7887 34.0375 76.4532 33.9129 77.2269C33.7993 77.9327 33.3241 78.5806 33.2098 79.2869C33.0575 80.2254 32.7488 81.1056 32.4984 82.009C32.4727 82.1024 32.6123 82.2413 32.6845 82.3769C32.5824 82.412 32.4574 82.455 32.3008 82.5086C32.2665 83.1719 32.138 83.8273 31.8903 84.4653C31.7937 84.7141 31.8765 85.0276 31.8343 85.3049C31.7945 85.5667 31.6647 85.8163 31.6348 86.0782C31.6001 86.3849 31.6068 86.6736 31.4273 86.9658C31.2767 87.2103 31.2187 87.54 31.2093 87.8349C31.1986 88.1551 31.147 88.4446 30.9802 88.7127C30.8236 88.9643 31.3946 89.2356 30.9411 89.4911C30.6237 89.6706 30.8871 90.0613 30.7499 90.2636C30.4234 90.7463 30.5421 91.3153 30.3741 91.8296C30.2664 92.1604 30.1911 92.5465 30.1284 92.912C30.0665 93.272 30.2234 93.6691 29.9375 93.9913C30.285 94.1755 29.9111 94.3115 29.8985 94.4712C29.8855 94.6345 29.7968 94.7906 29.7763 94.9543C29.7518 95.1459 29.7589 95.3423 29.7644 95.5359C29.7668 95.6124 29.8401 95.7374 29.8153 95.7571C29.2482 96.2067 29.5475 96.926 29.2802 97.4772C29.1575 97.73 29.1647 98.0597 29.0803 98.3566C28.9635 98.7687 28.7238 99.1764 28.8117 99.6587C28.8488 99.8602 28.7368 100.136 28.6039 100.311C28.3657 100.624 28.3874 100.964 28.4048 101.305C28.4308 101.822 28.3385 101.798 28.2155 102.354C28.0984 102.884 27.7762 103.357 27.7715 103.89C27.7667 104.372 27.1803 104.843 27.719 105.347C27.7241 105.352 27.5601 105.538 27.4745 105.639C27.2521 105.9 27.2809 106.232 27.1953 106.531C27.0857 106.914 27.0786 107.231 27.2983 107.567C27.1744 107.595 27.077 107.618 26.9792 107.64C26.9536 107.665 26.9094 107.688 26.9059 107.716C26.8278 108.33 26.7608 108.945 26.6768 109.559C26.6026 110.102 26.8672 110.678 26.4757 111.199C26.3479 111.37 26.8203 111.617 26.4824 111.895C26.4082 111.956 26.5672 112.3 26.6192 112.514C26.4985 112.557 26.3739 112.6 26.2544 112.642C26.286 113.259 26.9639 113.764 26.4966 114.425C26.8286 114.562 27.3665 114.463 27.3148 115.14C27.1216 115.045 26.9848 114.978 26.8578 114.916C26.7848 114.97 26.6847 115.013 26.6866 115.05C26.7 115.29 26.7347 115.529 26.7635 115.768C26.773 115.844 26.8065 115.983 26.7939 115.987C26.2418 116.172 26.8207 116.666 26.4958 117C26.1996 117.306 26.5944 117.792 26.7142 118.161C26.8247 118.499 26.8637 118.818 26.8996 119.157C26.9497 119.632 26.9209 120.169 27.1409 120.557C27.374 120.967 27.1914 121.393 27.383 121.751C27.5774 122.114 27.8227 122.445 27.7545 122.889C28.2585 123.466 28.2155 124.279 28.6232 124.892C28.7033 125.013 28.8926 125.06 29.0393 125.145V126.207C29.324 126.375 29.708 126.44 29.7053 126.883C30.2266 127.164 29.5452 127.479 29.7396 127.801C29.8267 127.809 29.9628 127.863 30.0152 127.818C30.1529 127.701 30.2317 127.584 30.4107 127.788C30.5361 127.932 30.4608 127.972 30.4104 128.106C30.2783 128.458 30.5681 128.95 30.632 128.886C31.0346 128.479 31.0724 129.005 31.2609 129.097C31.3347 129.133 31.4199 129.278 31.4021 129.348C31.2345 130.014 31.7767 130.18 32.1691 130.411C33.2918 131.071 33.2993 131.058 34.207 131.092C34.207 131.295 34.235 131.507 34.2007 131.707C34.1491 132.007 34.3025 132.201 34.515 132.329C35.1724 132.725 35.8258 133.137 36.5182 133.463C37.1752 133.773 37.8629 134.115 38.5676 134.205C39.6197 134.338 40.6036 134.805 41.6982 134.733C42.7334 134.666 43.7764 134.709 44.8159 134.722C45.9228 134.735 46.9603 134.402 48.0198 134.153C48.7419 133.983 49.4237 133.761 50.0984 133.45C50.5172 133.257 51.003 133.128 51.5062 133.209C52.1781 133.317 52.7779 133.043 53.3694 132.781C54.9862 132.066 56.1992 131.182 57.5691 130.192C58.2691 129.686 58.9938 129.23 59.598 128.594C60.5945 127.543 61.2822 126.388 61.9715 124.734C62.328 123.878 62.815 123.064 63.3268 122.286C64.319 120.779 64.9456 119.332 65.8636 117.422C66.629 115.829 67.1882 114.166 67.8364 112.538C68.1772 111.682 68.5612 110.83 68.855 109.946C69.1464 109.069 69.4524 108.196 69.973 107.392C70.2833 106.911 70.4698 106.303 70.7853 105.803C71.374 104.867 71.8043 103.858 72.2743 102.868C72.8433 101.669 73.4695 100.488 73.9605 99.2652C74.3986 98.1736 75.0903 97.2347 75.5256 96.1487C75.9566 95.0738 76.5473 94.0619 77.0829 93.0303C77.5947 92.0441 78.2659 91.2156 79.3333 90.7684C79.9745 90.4998 80.5424 90.1098 80.9753 89.5456V89.5456Z" fill="#FDBC64"/>
</svg>
