<svg width="166" height="140" viewBox="0 0 166 140" fill="none" xmlns="http://www.w3.org/2000/svg">
<path d="M147.068 2.05216C141.608 27.2625 130.978 79.1766 132.134 85.15C133.579 92.6168 142.25 94.3028 145.622 90.2081C148.32 86.9324 159.432 33.7658 164.651 7.59202M147.068 2.05216C149.958 7.25481 159.994 7.91317 164.651 7.59202M147.068 2.05216C151.323 0.526697 160.797 -0.500986 164.651 7.59202" stroke="#1A1A1A" stroke-width="1.92691"/>
<path d="M2.30773 36.9773C13.3072 38.2619 37.7147 36.9773 44.4588 20.5986L48.7944 13.8544M2.30773 36.9773C0.958894 36.2065 0.862556 34.8898 1.10342 33.8461C4.23464 21.0803 37.4738 16.5039 39.4007 16.5039C41.3276 16.5039 46.8675 13.1318 48.0718 13.1318C49.0352 13.1318 48.955 13.6136 48.7944 13.8544M2.30773 36.9773C3.86058 41.2594 5.93055 46.8378 8.15394 52.6334C13.5177 66.6149 19.7743 81.8608 21.8176 83.223C25.4306 85.6317 51.9255 87.7995 58.9106 69.253C54.5751 51.67 46.4821 15.974 48.7944 13.8544" stroke="#1A1A1A" stroke-width="1.92691"/>
<path d="M8.08789 52.6334C11.8614 53.4363 20.7091 54.0304 25.9118 49.9839" stroke="#1A1A1A" stroke-width="0.963453"/>
<path d="M11.2188 61.0636C14.9923 61.8664 23.84 62.4606 29.0426 58.4141" stroke="#1A1A1A" stroke-width="0.963453"/>
<path d="M15.0742 69.7347C18.8477 70.5376 27.6955 71.1317 32.8981 67.0852" stroke="#1A1A1A" stroke-width="0.963453"/>
<path d="M10.0156 57.2099C12.1031 57.531 17.1452 57.9324 20.6136 56.969" stroke="#1A1A1A" stroke-width="0.963453"/>
<path d="M13.6289 65.881C15.7164 66.2022 20.7585 66.6036 24.2269 65.6401" stroke="#1A1A1A" stroke-width="0.963453"/>
<path d="M141.31 30.93C142.975 32.6319 146.585 33.8461 151.402 34.087" stroke="#1A1A1A" stroke-width="0.963453"/>
<path d="M138.578 39.6859C140.335 41.4332 144.02 43.1546 149.235 43.4805" stroke="#1A1A1A" stroke-width="0.963453"/>
<path d="M137.114 48.8414C138.872 50.5887 141.526 52.3925 146.584 52.6334" stroke="#1A1A1A" stroke-width="0.963453"/>
<path d="M140.385 35.5692C141.411 36.4251 144.053 38.156 146.413 38.2318" stroke="#1A1A1A" stroke-width="0.963453"/>
<path d="M138.613 44.3489C139.64 45.2049 142.282 46.9358 144.641 47.0116" stroke="#1A1A1A" stroke-width="0.963453"/>
<path d="M79.3831 43.2399C79.8647 43.7217 94.3165 46.323 99.1338 40.3496C99.9106 39.3863 100.186 38.5874 100.073 37.9409M79.3831 43.2399C78.9014 42.7582 79.1422 42.0356 79.1422 42.0356C80.8205 36.1615 99.3095 33.5764 100.073 37.9409M79.3831 43.2399C82.2734 55.6845 88.0542 81.4409 88.0542 84.9093C88.0542 89.2448 78.9014 136.936 82.0326 138.622C85.1638 140.308 128.76 136.454 137.431 125.133L108.768 79.6103L100.073 37.9409" stroke="#1A1A1A" stroke-width="1.92691"/>
<path d="M86.3691 98.3975C87.3326 98.3975 89.5485 98.3975 90.7047 98.3975" stroke="#1A1A1A" stroke-width="0.963453"/>
<path d="M83.959 112.849C86.1268 113.813 87.3311 113.813 88.5354 113.813" stroke="#1A1A1A" stroke-width="0.963453"/>
<path d="M85.4043 104.927C86.6908 105.404 91.1414 106.06 98.6517 104.874" stroke="#1A1A1A" stroke-width="0.963453"/>
<path d="M83.0449 120.495C84.2855 121.081 88.6629 122.119 96.2475 121.585" stroke="#1A1A1A" stroke-width="0.963453"/>
</svg>
