<svg width="1440" height="731" viewBox="0 0 1440 731" fill="none" xmlns="http://www.w3.org/2000/svg">
<g clip-path="url(#clip0_271_4902)">
<path d="M0 22.75C0 22.75 182.5 -28.4375 720 22.75C1257.5 73.9375 1440 22.75 1440 22.75C1440 291.67 1440 442.443 1440 711.363C1440 711.363 1263 755.546 720 711.363C177 667.18 0 711.363 0 711.363V22.75Z" fill="#002A42"/>
<path opacity="0.85" fill-rule="evenodd" clip-rule="evenodd" d="M1299.51 164.368C1287.1 164.368 1277 154.278 1277 141.876C1277 129.49 1287.1 119.401 1299.51 119.401C1306.35 119.401 1312.74 122.468 1317.04 127.825L1322.01 134.048L1322.75 126.126C1324.98 102.099 1344.87 84 1369.02 84C1387.7 84 1404.51 95.0982 1411.81 112.294L1413.39 115.989L1416.65 113.623C1421.45 110.18 1427.1 108.358 1432.97 108.358C1448.43 108.358 1461 120.911 1461 136.369C1461 151.812 1448.43 164.368 1432.97 164.368H1299.51Z" fill="#F9F3FE"/>
<path opacity="0.85" fill-rule="evenodd" clip-rule="evenodd" d="M1340.03 173.45C1333.95 173.45 1329 168.497 1329 162.409C1329 156.329 1333.95 151.377 1340.03 151.377C1343.38 151.377 1346.51 152.883 1348.62 155.512L1351.06 158.567L1351.42 154.678C1352.51 142.884 1362.26 134 1374.09 134C1383.25 134 1391.48 139.448 1395.07 147.889L1395.84 149.702L1397.44 148.541C1399.79 146.851 1402.56 145.956 1405.44 145.956C1413.01 145.956 1419.17 152.118 1419.17 159.706C1419.17 167.287 1413.01 173.45 1405.44 173.45H1340.03Z" fill="#EEEEFA"/>
<path opacity="0.85" fill-rule="evenodd" clip-rule="evenodd" d="M58.1556 278.791C68.01 278.791 76.0234 270.783 76.0234 260.939C76.0234 251.107 68.01 243.099 58.1556 243.099C52.7279 243.099 47.6547 245.534 44.2445 249.786L40.2971 254.725L39.7068 248.437C37.9377 229.366 22.1482 215 2.98583 215C-11.845 215 -25.183 223.809 -30.9839 237.458L-32.233 240.391L-34.8251 238.513C-38.6335 235.78 -43.1196 234.334 -47.7806 234.334C-60.049 234.334 -70.0252 244.298 -70.0252 256.567C-70.0252 268.826 -60.049 278.791 -47.7806 278.791H58.1556Z" fill="#F9F3FE"/>
<path opacity="0.85" fill-rule="evenodd" clip-rule="evenodd" d="M25.9937 286C30.8229 286 34.75 282.069 34.75 277.237C34.75 272.411 30.8229 268.48 25.9937 268.48C23.3338 268.48 20.8477 269.675 19.1765 271.762L17.242 274.187L16.9528 271.1C16.0858 261.739 8.348 254.688 -1.04264 254.688C-8.3106 254.688 -14.847 259.012 -17.6898 265.711L-18.3019 267.151L-19.5722 266.229C-21.4385 264.888 -23.637 264.178 -25.9211 264.178C-31.9334 264.178 -36.8223 269.069 -36.8223 275.091C-36.8223 281.109 -31.9334 286 -25.9211 286H25.9937Z" fill="#EEEEFA"/>
</g>
<defs>
<clipPath id="clip0_271_4902">
<rect width="1440" height="731" fill="white"/>
</clipPath>
</defs>
</svg>
