<svg width="1440" height="670" viewBox="0 0 1440 670" fill="none" xmlns="http://www.w3.org/2000/svg">
<g clip-path="url(#clip0_271_4675)">
<path d="M0 570.965C80 574.501 160 578.038 240 601.417C320 624.795 400 668.017 480 669.932C560 671.848 640 632.457 720 624.255C800 616.053 880 639.031 960 639.481C1040 639.931 1120 617.862 1200 593.804C1280 569.745 1360 543.714 1440 517.675V-1.78044e-05C1360 -1.78044e-05 1280 -1.78044e-05 1200 -1.78044e-05C1120 -1.78044e-05 1040 -1.78044e-05 960 -1.78044e-05C880 -1.78044e-05 800 -1.78044e-05 720 -1.78044e-05C640 -1.78044e-05 560 -1.78044e-05 480 -1.78044e-05C400 -1.78044e-05 320 -1.78044e-05 240 -1.78044e-05C160 -1.78044e-05 80 -1.78044e-05 0 -1.78044e-05V570.965Z" fill="#00C1E4" fill-opacity="0.15"/>
<path d="M0 624.255C80 620.514 160 616.773 240 586.191C320 555.608 400 498.184 480 471.998C560 445.811 640 450.854 720 464.385C800 477.916 880 499.944 960 540.514C1040 581.083 1120 640.193 1200 631.868C1280 623.543 1360 547.766 1440 471.998V-3.05485e-05C1360 -3.05485e-05 1280 -3.05485e-05 1200 -3.05485e-05C1120 -3.05485e-05 1040 -3.05485e-05 960 -3.05485e-05C880 -3.05485e-05 800 -3.05485e-05 720 -3.05485e-05C640 -3.05485e-05 560 -3.05485e-05 480 -3.05485e-05C400 -3.05485e-05 320 -3.05485e-05 240 -3.05485e-05C160 -3.05485e-05 80 -3.05485e-05 0 -3.05485e-05V624.255Z" fill="#00C1E4" fill-opacity="0.15"/>
<path d="M0 441.546C80 471.605 160 501.663 240 525.288C320 548.912 400 566.111 480 555.739C560 545.368 640 507.443 720 471.998C800 436.553 880 403.605 960 411.095C1040 418.585 1120 466.53 1200 487.223C1280 507.917 1360 501.377 1440 494.836V-9.02454e-05C1360 -9.02454e-05 1280 -9.02454e-05 1200 -9.02454e-05C1120 -9.02454e-05 1040 -9.02454e-05 960 -9.02454e-05C880 -9.02454e-05 800 -9.02454e-05 720 -9.02454e-05C640 -9.02454e-05 560 -9.02454e-05 480 -9.02454e-05C400 -9.02454e-05 320 -9.02454e-05 240 -9.02454e-05C160 -9.02454e-05 80 -9.02454e-05 0 -9.02454e-05V441.546Z" fill="#00C1E4" fill-opacity="0.15"/>
<path d="M0 388.256C80 411.75 160 435.252 240 441.546C320 447.841 400 436.946 480 456.772C560 476.598 640 527.146 720 510.062C800 492.978 880 408.255 960 395.869C1040 383.484 1120 443.446 1200 471.998C1280 500.55 1360 497.693 1440 494.837V0.000147891C1360 0.000147891 1280 0.000147891 1200 0.000147891C1120 0.000147891 1040 0.000147891 960 0.000147891C880 0.000147891 800 0.000147891 720 0.000147891C640 0.000147891 560 0.000147891 480 0.000147891C400 0.000147891 320 0.000147891 240 0.000147891C160 0.000147891 80 0.000147891 0 0.000147891V388.256Z" fill="#00C1E4" fill-opacity="0.15"/>
<path d="M0 411.095C80 364.656 160 318.21 240 327.353C320 336.497 400 401.223 480 411.095C560 420.967 640 375.994 720 380.643C800 385.293 880 439.582 960 433.934C1040 428.285 1120 362.716 1200 357.805C1280 352.893 1360 408.639 1440 464.385V3.61368e-06C1360 3.61368e-06 1280 3.61368e-06 1200 3.61368e-06C1120 3.61368e-06 1040 3.61368e-06 960 3.61368e-06C880 3.61368e-06 800 3.61368e-06 720 3.61368e-06C640 3.61368e-06 560 3.61368e-06 480 3.61368e-06C400 3.61368e-06 320 3.61368e-06 240 3.61368e-06C160 3.61368e-06 80 3.61368e-06 0 3.61368e-06V411.095Z" fill="#00C1E4" fill-opacity="0.15"/>
<path d="M0 357.805C80 401.591 160 445.377 240 449.159C320 452.941 400 416.71 480 380.643C560 344.576 640 308.657 720 319.741C800 330.824 880 388.895 960 388.256C1040 387.618 1120 328.254 1200 319.741C1280 311.227 1360 353.548 1440 395.869V6.81237e-05C1360 6.81237e-05 1280 6.81237e-05 1200 6.81237e-05C1120 6.81237e-05 1040 6.81237e-05 960 6.81237e-05C880 6.81237e-05 800 6.81237e-05 720 6.81237e-05C640 6.81237e-05 560 6.81237e-05 480 6.81237e-05C400 6.81237e-05 320 6.81237e-05 240 6.81237e-05C160 6.81237e-05 80 6.81237e-05 0 6.81237e-05V357.805Z" fill="#00C1E4" fill-opacity="0.15"/>
<path d="M0 342.579C80 358.934 160 375.29 240 365.418C320 355.545 400 319.454 480 327.353C560 335.253 640 387.159 720 380.643C800 374.127 880 309.205 960 274.063C1040 238.921 1120 233.576 1200 243.612C1280 253.648 1360 279.081 1440 304.515V-0.000152478C1360 -0.000152478 1280 -0.000152478 1200 -0.000152478C1120 -0.000152478 1040 -0.000152478 960 -0.000152478C880 -0.000152478 800 -0.000152478 720 -0.000152478C640 -0.000152478 560 -0.000152478 480 -0.000152478C400 -0.000152478 320 -0.000152478 240 -0.000152478C160 -0.000152478 80 -0.000152478 0 -0.000152478V342.579Z" fill="#00C1E4" fill-opacity="0.15"/>
<path d="M0 357.805C80 343.791 160 329.776 240 296.902C320 264.027 400 212.301 480 228.386C560 244.471 640 328.368 720 334.966C800 341.564 880 270.863 960 235.999C1040 201.135 1120 202.109 1200 205.548C1280 208.986 1360 214.879 1440 220.773V9.54422e-05C1360 9.54422e-05 1280 9.54422e-05 1200 9.54422e-05C1120 9.54422e-05 1040 9.54422e-05 960 9.54422e-05C880 9.54422e-05 800 9.54422e-05 720 9.54422e-05C640 9.54422e-05 560 9.54422e-05 480 9.54422e-05C400 9.54422e-05 320 9.54422e-05 240 9.54422e-05C160 9.54422e-05 80 9.54422e-05 0 9.54422e-05V357.805Z" fill="#00C1E4" fill-opacity="0.15"/>
<path d="M0 137.032C80 127.2 160 117.377 240 137.032C320 156.686 400 205.834 480 213.16C560 220.487 640 186.008 720 182.709C800 179.41 880 207.291 960 228.386C1040 249.481 1120 263.774 1200 251.225C1280 238.676 1360 199.269 1440 159.87V-7.10007e-05C1360 -7.10007e-05 1280 -7.10007e-05 1200 -7.10007e-05C1120 -7.10007e-05 1040 -7.10007e-05 960 -7.10007e-05C880 -7.10007e-05 800 -7.10007e-05 720 -7.10007e-05C640 -7.10007e-05 560 -7.10007e-05 480 -7.10007e-05C400 -7.10007e-05 320 -7.10007e-05 240 -7.10007e-05C160 -7.10007e-05 80 -7.10007e-05 0 -7.10007e-05V137.032Z" fill="#00C1E4" fill-opacity="0.15"/>
<path d="M0 235.999C80 229.54 160 223.09 240 205.548C320 188.005 400 159.379 480 144.645C560 129.91 640 129.083 720 121.806C800 114.529 880 100.817 960 91.3545C1040 81.8917 1120 76.6854 1200 98.9674C1280 121.249 1360 171.011 1440 220.773V9.64862e-05C1360 9.64862e-05 1280 9.64862e-05 1200 9.64862e-05C1120 9.64862e-05 1040 9.64862e-05 960 9.64862e-05C880 9.64862e-05 800 9.64862e-05 720 9.64862e-05C640 9.64862e-05 560 9.64862e-05 480 9.64862e-05C400 9.64862e-05 320 9.64862e-05 240 9.64862e-05C160 9.64862e-05 80 9.64862e-05 0 9.64862e-05V235.999Z" fill="#00C1E4" fill-opacity="0.15"/>
<path d="M705.63 366.78C702.798 367.47 700.98 370.166 701.32 372.99C700.323 370.326 697.469 368.768 694.637 369.458C691.804 370.148 689.987 372.845 690.327 375.669C689.33 373.005 686.476 371.447 683.644 372.137C680.586 372.882 678.711 375.964 679.456 379.022C679.462 379.044 679.467 379.066 679.473 379.088L679.472 379.088C682.436 391.252 694.7 398.711 706.865 395.747C719.03 392.783 726.489 380.519 723.525 368.354L723.524 368.355C723.519 368.333 723.514 368.311 723.509 368.289C722.764 365.231 719.681 363.356 716.624 364.101C713.791 364.791 711.974 367.488 712.314 370.312C711.317 367.648 708.463 366.09 705.63 366.78Z" fill="#B9EEF8"/>
<path d="M756.166 -22.4198C756.166 -25.2732 753.853 -27.5864 750.999 -27.5864C748.146 -27.5864 745.832 -25.2732 745.832 -22.4198V-16.7558L743.034 -21.6802C741.624 -24.1611 738.47 -25.0293 735.989 -23.6195C733.508 -22.2097 732.64 -19.0557 734.05 -16.5748L737.234 -10.9711L731.631 -14.1555C729.15 -15.5653 725.996 -14.6971 724.586 -12.2162C723.176 -9.73532 724.045 -6.5813 726.525 -5.1715L731.45 -2.3731H725.786C722.932 -2.3731 720.619 -0.0599015 720.619 2.79357C720.619 5.64704 722.932 7.96023 725.786 7.96023H731.45L726.525 10.7586C724.045 12.1684 723.176 15.3225 724.586 17.8033C725.996 20.2842 729.15 21.1525 731.631 19.7427L737.234 16.5583L734.05 22.162C732.64 24.6428 733.508 27.7968 735.989 29.2067C738.47 30.6165 741.624 29.7482 743.034 27.2673L745.832 22.3429V28.0069C745.832 30.8604 748.146 33.1736 750.999 33.1736C753.853 33.1736 756.166 30.8604 756.166 28.0069V22.3429L758.964 27.2673C760.374 29.7482 763.528 30.6165 766.009 29.2067C768.49 27.7968 769.358 24.6428 767.948 22.162L764.764 16.5583L770.368 19.7427C772.848 21.1525 776.002 20.2842 777.412 17.8033C778.822 15.3225 777.954 12.1684 775.473 10.7586L770.548 7.96024H776.212C779.066 7.96024 781.379 5.64704 781.379 2.79357C781.379 -0.0598984 779.066 -2.37309 776.212 -2.37309H770.548L775.473 -5.1715C777.954 -6.5813 778.822 -9.73532 777.412 -12.2162C776.002 -14.6971 772.848 -15.5653 770.368 -14.1555L764.764 -10.9711L767.948 -16.5748C769.358 -19.0557 768.49 -22.2097 766.009 -23.6195C763.528 -25.0293 760.374 -24.1611 758.964 -21.6802L756.166 -16.7558V-22.4198Z" fill="white"/>
<path d="M732.637 185.421C736.946 181.478 738.595 179.48 737.811 179.159C737.403 178.999 737.223 179.034 736.505 179.409C735.118 180.158 730.074 184.868 730.074 185.421C730.074 186.188 731.772 186.206 732.637 185.421Z" fill="#336BB7"/>
<path d="M721.327 185.564C721.865 185.171 721.833 185.1 719.743 182.62C718.633 181.282 717.719 180.444 717.05 180.122C716.136 179.676 715.695 180.283 716.055 180.783C719.123 185.1 720.396 186.242 721.327 185.564Z" fill="#336BB7"/>
<path d="M735.853 191.38C734.857 191.059 729.765 189.292 729.389 189.132C729.21 189.061 729.079 188.704 729.014 188.097C728.475 183.566 727.626 178.909 727.251 178.392C726.974 178 726.027 178.124 725.766 178.57C725.504 179.016 724.297 183.53 723.578 186.813L723.105 188.954C713.834 192.165 713.328 192.093 717.523 193.503L721.228 194.752C723.334 195.465 723.383 195.483 723.497 196.054C723.66 196.874 724.721 200.871 725.129 202.78C725.994 206.883 727.757 204.35 729.308 196.714L729.667 194.966C729.863 194.93 731.103 194.805 736.457 193.538C737.681 193.235 737.322 191.844 735.853 191.38ZM733.535 192.254C733.405 192.379 729.83 193.324 729.128 193.324C728.279 193.324 728.083 193.77 727.12 197.963C726.484 200.728 726.435 200.781 726.076 199.176C725.635 197.16 724.737 194.805 724.623 194.252C724.525 193.753 723.611 193.396 720.069 192.468C718.29 192.004 718.013 191.844 718.682 191.63C719.514 191.362 723.513 189.935 723.97 189.935C724.411 189.935 724.786 189.578 724.917 189.043L726.19 183.619C726.419 182.674 726.419 182.674 727.055 186.367C727.79 190.523 727.708 190.345 728.883 190.612C730.352 190.951 733.682 192.111 733.535 192.254Z" fill="#336BB7"/>
<path d="M730.564 196.999C730.564 197.392 734.874 202.155 735.478 202.423C736.751 202.994 737.077 202.244 736.065 201.049C733.339 197.784 730.564 195.751 730.564 196.999Z" fill="#336BB7"/>
<path d="M717.996 198.141C714.862 200.46 714.503 200.996 716.07 200.996C716.837 200.996 721.684 197.321 721.538 196.839C721.309 196.09 720.215 196.482 717.996 198.141Z" fill="#336BB7"/>
</g>
<defs>
<clipPath id="clip0_271_4675">
<rect width="1440" height="670" fill="white"/>
</clipPath>
</defs>
</svg>
