<svg width="1440" height="670" viewBox="0 0 1440 670" fill="none" xmlns="http://www.w3.org/2000/svg">
<g clip-path="url(#clip0_4351_43873)">
<path d="M0 570.965C80 574.501 160 578.038 240 601.417C320 624.795 400 668.017 480 669.932C560 671.848 640 632.457 720 624.255C800 616.053 880 639.031 960 639.481C1040 639.931 1120 617.862 1200 593.804C1280 569.745 1360 543.714 1440 517.675V-1.78044e-05C1360 -1.78044e-05 1280 -1.78044e-05 1200 -1.78044e-05C1120 -1.78044e-05 1040 -1.78044e-05 960 -1.78044e-05C880 -1.78044e-05 800 -1.78044e-05 720 -1.78044e-05C640 -1.78044e-05 560 -1.78044e-05 480 -1.78044e-05C400 -1.78044e-05 320 -1.78044e-05 240 -1.78044e-05C160 -1.78044e-05 80 -1.78044e-05 0 -1.78044e-05V570.965Z" fill="#00C1E4" fill-opacity="0.15"/>
<path d="M0 624.255C80 620.514 160 616.773 240 586.191C320 555.608 400 498.184 480 471.998C560 445.811 640 450.853 720 464.385C800 477.916 880 499.944 960 540.513C1040 581.083 1120 640.193 1200 631.868C1280 623.543 1360 547.766 1440 471.998V-0.000274689C1360 -0.000274689 1280 -0.000274689 1200 -0.000274689C1120 -0.000274689 1040 -0.000274689 960 -0.000274689C880 -0.000274689 800 -0.000274689 720 -0.000274689C640 -0.000274689 560 -0.000274689 480 -0.000274689C400 -0.000274689 320 -0.000274689 240 -0.000274689C160 -0.000274689 80 -0.000274689 0 -0.000274689V624.255Z" fill="#00C1E4" fill-opacity="0.15"/>
<path d="M0 441.546C80 471.605 160 501.663 240 525.288C320 548.912 400 566.111 480 555.739C560 545.368 640 507.443 720 471.998C800 436.553 880 403.605 960 411.095C1040 418.585 1120 466.53 1200 487.224C1280 507.918 1360 501.377 1440 494.836V3.18249e-05C1360 3.18249e-05 1280 3.18249e-05 1200 3.18249e-05C1120 3.18249e-05 1040 3.18249e-05 960 3.18249e-05C880 3.18249e-05 800 3.18249e-05 720 3.18249e-05C640 3.18249e-05 560 3.18249e-05 480 3.18249e-05C400 3.18249e-05 320 3.18249e-05 240 3.18249e-05C160 3.18249e-05 80 3.18249e-05 0 3.18249e-05V441.546Z" fill="#00C1E4" fill-opacity="0.15"/>
<path d="M0 388.257C80 411.75 160 435.252 240 441.547C320 447.842 400 436.947 480 456.773C560 476.599 640 527.147 720 510.063C800 492.979 880 408.255 960 395.87C1040 383.485 1120 443.446 1200 471.998C1280 500.551 1360 497.694 1440 494.837V0.000636173C1360 0.000636173 1280 0.000636173 1200 0.000636173C1120 0.000636173 1040 0.000636173 960 0.000636173C880 0.000636173 800 0.000636173 720 0.000636173C640 0.000636173 560 0.000636173 480 0.000636173C400 0.000636173 320 0.000636173 240 0.000636173C160 0.000636173 80 0.000636173 0 0.000636173V388.257Z" fill="#00C1E4" fill-opacity="0.15"/>
<path d="M0 411.095C80 364.656 160 318.21 240 327.353C320 336.497 400 401.223 480 411.095C560 420.967 640 375.994 720 380.643C800 385.293 880 439.582 960 433.933C1040 428.285 1120 362.716 1200 357.805C1280 352.893 1360 408.639 1440 464.385V-0.000240527C1360 -0.000240527 1280 -0.000240527 1200 -0.000240527C1120 -0.000240527 1040 -0.000240527 960 -0.000240527C880 -0.000240527 800 -0.000240527 720 -0.000240527C640 -0.000240527 560 -0.000240527 480 -0.000240527C400 -0.000240527 320 -0.000240527 240 -0.000240527C160 -0.000240527 80 -0.000240527 0 -0.000240527V411.095Z" fill="#00C1E4" fill-opacity="0.15"/>
<path d="M0 357.805C80 401.591 160 445.377 240 449.159C320 452.941 400 416.71 480 380.643C560 344.576 640 308.657 720 319.74C800 330.824 880 388.895 960 388.256C1040 387.618 1120 328.254 1200 319.74C1280 311.227 1360 353.548 1440 395.869V-5.39466e-05C1360 -5.39466e-05 1280 -5.39466e-05 1200 -5.39466e-05C1120 -5.39466e-05 1040 -5.39466e-05 960 -5.39466e-05C880 -5.39466e-05 800 -5.39466e-05 720 -5.39466e-05C640 -5.39466e-05 560 -5.39466e-05 480 -5.39466e-05C400 -5.39466e-05 320 -5.39466e-05 240 -5.39466e-05C160 -5.39466e-05 80 -5.39466e-05 0 -5.39466e-05V357.805Z" fill="#00C1E4" fill-opacity="0.15"/>
<path d="M0 342.578C80 358.934 160 375.289 240 365.417C320 355.545 400 319.453 480 327.353C560 335.252 640 387.159 720 380.643C800 374.127 880 309.205 960 274.063C1040 238.921 1120 233.575 1200 243.611C1280 253.647 1360 279.081 1440 304.514V-0.00064076C1360 -0.00064076 1280 -0.00064076 1200 -0.00064076C1120 -0.00064076 1040 -0.00064076 960 -0.00064076C880 -0.00064076 800 -0.00064076 720 -0.00064076C640 -0.00064076 560 -0.00064076 480 -0.00064076C400 -0.00064076 320 -0.00064076 240 -0.00064076C160 -0.00064076 80 -0.00064076 0 -0.00064076V342.578Z" fill="#00C1E4" fill-opacity="0.15"/>
<path d="M0 357.805C80 343.79 160 329.776 240 296.902C320 264.027 400 212.301 480 228.386C560 244.471 640 328.368 720 334.966C800 341.564 880 270.862 960 235.999C1040 201.135 1120 202.109 1200 205.547C1280 208.985 1360 214.879 1440 220.773V-0.000148698C1360 -0.000148698 1280 -0.000148698 1200 -0.000148698C1120 -0.000148698 1040 -0.000148698 960 -0.000148698C880 -0.000148698 800 -0.000148698 720 -0.000148698C640 -0.000148698 560 -0.000148698 480 -0.000148698C400 -0.000148698 320 -0.000148698 240 -0.000148698C160 -0.000148698 80 -0.000148698 0 -0.000148698V357.805Z" fill="#00C1E4" fill-opacity="0.15"/>
<path d="M0 137.032C80 127.201 160 117.377 240 137.032C320 156.686 400 205.834 480 213.161C560 220.487 640 186.008 720 182.709C800 179.41 880 207.291 960 228.386C1040 249.481 1120 263.774 1200 251.225C1280 238.676 1360 199.269 1440 159.87V0.00017314C1360 0.00017314 1280 0.00017314 1200 0.00017314C1120 0.00017314 1040 0.00017314 960 0.00017314C880 0.00017314 800 0.00017314 720 0.00017314C640 0.00017314 560 0.00017314 480 0.00017314C400 0.00017314 320 0.00017314 240 0.00017314C160 0.00017314 80 0.00017314 0 0.00017314V137.032Z" fill="#00C1E4" fill-opacity="0.15"/>
<path d="M0 235.999C80 229.54 160 223.09 240 205.548C320 188.005 400 159.379 480 144.645C560 129.91 640 129.083 720 121.806C800 114.529 880 100.817 960 91.3545C1040 81.8917 1120 76.6854 1200 98.9674C1280 121.249 1360 171.011 1440 220.773V9.64862e-05C1360 9.64862e-05 1280 9.64862e-05 1200 9.64862e-05C1120 9.64862e-05 1040 9.64862e-05 960 9.64862e-05C880 9.64862e-05 800 9.64862e-05 720 9.64862e-05C640 9.64862e-05 560 9.64862e-05 480 9.64862e-05C400 9.64862e-05 320 9.64862e-05 240 9.64862e-05C160 9.64862e-05 80 9.64862e-05 0 9.64862e-05V235.999Z" fill="#00C1E4" fill-opacity="0.15"/>
<path d="M756.166 -22.4193C756.166 -25.2727 753.853 -27.5859 750.999 -27.5859C748.146 -27.5859 745.832 -25.2727 745.832 -22.4193V-16.7553L743.034 -21.6797C741.624 -24.1606 738.47 -25.0288 735.989 -23.619C733.508 -22.2092 732.64 -19.0552 734.05 -16.5743L737.234 -10.9706L731.631 -14.1551C729.15 -15.5649 725.996 -14.6966 724.586 -12.2157C723.176 -9.73483 724.045 -6.58081 726.525 -5.17101L731.45 -2.37261H725.786C722.932 -2.37261 720.619 -0.0594132 720.619 2.79406C720.619 5.64753 722.932 7.96072 725.786 7.96072H731.45L726.525 10.7591C724.045 12.1689 723.176 15.3229 724.586 17.8038C725.996 20.2847 729.15 21.153 731.631 19.7432L737.234 16.5587L734.05 22.1624C732.64 24.6433 733.508 27.7973 735.989 29.2071C738.47 30.6169 741.624 29.7487 743.034 27.2678L745.832 22.3434V28.0074C745.832 30.8609 748.146 33.1741 750.999 33.1741C753.853 33.1741 756.166 30.8609 756.166 28.0074V22.3434L758.964 27.2678C760.374 29.7487 763.528 30.6169 766.009 29.2071C768.49 27.7973 769.358 24.6433 767.948 22.1624L764.764 16.5587L770.368 19.7432C772.848 21.153 776.002 20.2847 777.412 17.8038C778.822 15.3229 777.954 12.1689 775.473 10.7591L770.548 7.96073H776.212C779.066 7.96073 781.379 5.64753 781.379 2.79406C781.379 -0.0594101 779.066 -2.37261 776.212 -2.37261H770.548L775.473 -5.17101C777.954 -6.58081 778.822 -9.73483 777.412 -12.2157C776.002 -14.6966 772.848 -15.5649 770.368 -14.1551L764.764 -10.9706L767.948 -16.5743C769.358 -19.0552 768.49 -22.2092 766.009 -23.619C763.528 -25.0288 760.374 -24.1606 758.964 -21.6797L756.166 -16.7553V-22.4193Z" fill="white"/>
<path d="M732.637 185.421C736.946 181.478 738.595 179.48 737.811 179.159C737.403 178.998 737.223 179.034 736.505 179.409C735.118 180.158 730.074 184.868 730.074 185.421C730.074 186.188 731.772 186.206 732.637 185.421Z" fill="#336BB7"/>
<path d="M721.327 185.563C721.865 185.171 721.833 185.1 719.743 182.62C718.633 181.282 717.719 180.443 717.05 180.122C716.136 179.676 715.695 180.283 716.055 180.782C719.123 185.1 720.396 186.241 721.327 185.563Z" fill="#336BB7"/>
<path d="M735.853 191.379C734.857 191.058 729.765 189.292 729.389 189.132C729.21 189.06 729.079 188.703 729.014 188.097C728.475 183.565 727.626 178.909 727.251 178.392C726.974 177.999 726.027 178.124 725.766 178.57C725.504 179.016 724.297 183.53 723.578 186.812L723.105 188.953C713.834 192.164 713.328 192.093 717.523 193.502L721.228 194.751C723.334 195.465 723.383 195.483 723.497 196.053C723.66 196.874 724.721 200.87 725.129 202.779C725.994 206.883 727.757 204.349 729.308 196.714L729.667 194.965C729.863 194.93 731.103 194.805 736.457 193.538C737.681 193.235 737.322 191.843 735.853 191.379ZM733.535 192.254C733.405 192.378 729.83 193.324 729.128 193.324C728.279 193.324 728.083 193.77 727.12 197.962C726.484 200.728 726.435 200.781 726.076 199.175C725.635 197.159 724.737 194.805 724.623 194.252C724.525 193.752 723.611 193.395 720.069 192.468C718.29 192.004 718.013 191.843 718.682 191.629C719.514 191.362 723.513 189.934 723.97 189.934C724.411 189.934 724.786 189.578 724.917 189.042L726.19 183.619C726.419 182.673 726.419 182.673 727.055 186.366C727.79 190.523 727.708 190.345 728.883 190.612C730.352 190.951 733.682 192.111 733.535 192.254Z" fill="#336BB7"/>
<path d="M730.564 196.999C730.564 197.391 734.874 202.155 735.478 202.422C736.751 202.993 737.077 202.244 736.065 201.048C733.339 197.784 730.564 195.75 730.564 196.999Z" fill="#336BB7"/>
<path d="M717.996 198.14C714.862 200.46 714.503 200.995 716.07 200.995C716.837 200.995 721.684 197.32 721.538 196.838C721.309 196.089 720.215 196.481 717.996 198.14Z" fill="#336BB7"/>
<g clip-path="url(#clip1_4351_43873)">
<path d="M892.704 276.403C887.556 271.397 882.148 266.667 876.505 262.231C876.792 261.645 877.041 261.039 877.248 260.419C880.533 250.723 872.269 241.46 862.267 243.1C853.655 244.51 848.646 255.482 853.536 262.612C853.931 263.297 854.388 263.944 854.903 264.544C855.401 265.12 855.945 265.654 856.531 266.14C854.718 268.944 853.075 271.92 851.448 274.59C849.219 278.245 846.677 282.004 844.812 285.964C843.659 285.383 842.364 285.145 841.08 285.278C839.796 285.412 838.577 285.911 837.567 286.718C837.382 286.869 837.206 287.031 837.039 287.202C836.312 287.534 835.683 288.047 835.211 288.694C833.725 290.82 833.725 293.915 834.55 296.309C834.946 297.567 835.643 298.708 836.579 299.634C837.515 300.559 838.663 301.241 839.922 301.619C841.181 301.997 842.513 302.06 843.802 301.803C845.091 301.545 846.297 300.976 847.316 300.143C851.53 296.727 850.37 290.253 846.521 287.023C848.795 283.578 850.697 279.811 852.852 276.343C854.658 273.449 856.82 270.57 858.797 267.616C861.388 269.016 864.374 269.496 867.27 268.977C870.166 268.459 872.803 266.973 874.751 264.76C879.338 269.695 884.174 274.39 889.242 278.827C887.921 280.408 887.004 282.288 886.572 284.306C886.139 286.323 886.204 288.416 886.76 290.402C886.656 290.901 886.697 291.42 886.879 291.896C887.061 292.372 887.375 292.786 887.785 293.087L887.852 293.229C888.925 295.263 890.507 296.98 892.444 298.211C893.159 298.79 893.987 299.212 894.874 299.449C897.25 300.381 899.845 300.595 902.341 300.064C904.836 299.534 907.122 298.284 908.919 296.466C914.692 290.603 912.575 279.863 905.441 276.112C904.922 275.845 904.383 275.62 903.828 275.44C906.139 270.965 907.782 265.998 909.922 261.441C911.787 257.465 913.778 253.55 915.866 249.679C916.886 249.797 917.92 249.66 918.874 249.28C919.828 248.9 920.674 248.289 921.336 247.501C924.62 243.593 922.948 237.328 917.843 236.157C916.59 235.852 915.275 235.931 914.068 236.383C912.86 236.835 911.815 237.639 911.066 238.693C910.604 239.374 910.264 240.131 910.063 240.93C909.484 242.344 909.468 243.927 910.018 245.353C910.398 246.317 910.988 247.184 911.746 247.888C912.503 248.593 913.409 249.118 914.395 249.425C912.245 253.403 910.212 257.433 908.294 261.515C906.281 265.819 903.836 270.466 902.543 275.135C899.941 274.607 897.243 274.851 894.778 275.836C894.067 275.945 893.372 276.135 892.704 276.403ZM838.83 295.892C838.453 295.257 838.2 294.556 838.087 293.826C838.344 293.747 838.575 293.6 838.756 293.4C838.879 293.251 838.986 293.088 839.075 292.916C839.254 294.251 839.447 295.608 839.737 296.913C839.379 296.627 839.072 296.282 838.83 295.892ZM841.06 297.592C840.713 295.497 840.251 293.423 839.677 291.379C839.77 291.115 839.898 290.864 840.056 290.633C840.168 290.47 840.304 290.325 840.458 290.201C840.409 292.833 841.033 295.435 842.271 297.756C841.861 297.765 841.452 297.71 841.06 297.592ZM844.723 296.742C844.393 297.055 844.011 297.308 843.593 297.488C843.192 296.339 842.627 295.25 842.278 294.064C841.902 292.656 841.599 291.23 841.372 289.79C841.975 289.702 842.59 289.812 843.125 290.104C843.129 290.146 843.129 290.188 843.125 290.231L843.073 290.395C843.052 290.47 843.054 290.551 843.079 290.626C843.104 290.7 843.151 290.765 843.214 290.812C843.475 292.762 844.105 294.643 845.072 296.354C844.97 296.496 844.853 296.626 844.723 296.742ZM844.344 291.066C845.19 292.023 845.662 293.255 845.674 294.534C845.228 293.371 844.76 292.237 844.344 291.066ZM858.463 263.335C858.322 263.216 858.165 263.104 858.024 262.97C856.865 261.916 855.977 260.595 855.438 259.121C854.903 255.541 855.639 251.79 857.913 249.336C859.861 252.661 860.951 256.422 861.086 260.277C860.149 261.239 859.276 262.261 858.47 263.335H858.463ZM863.724 265.677C862.651 265.541 861.607 265.231 860.633 264.76C860.744 264.573 860.841 264.387 860.945 264.208C860.979 264.269 861.03 264.319 861.092 264.352C861.154 264.385 861.225 264.399 861.295 264.393C861.364 264.386 861.431 264.36 861.486 264.317C861.541 264.273 861.583 264.215 861.606 264.148C861.738 263.59 861.84 263.025 861.911 262.455C862.215 261.859 862.513 261.254 862.78 260.65C862.837 260.527 862.862 260.391 862.852 260.256C862.842 260.12 862.798 259.989 862.723 259.876C862.649 259.762 862.547 259.67 862.426 259.607C862.306 259.544 862.172 259.513 862.037 259.517C861.928 255.69 860.591 252.002 858.225 249C858.997 248.258 859.906 247.673 860.9 247.277C862.13 249.899 863.062 252.651 863.679 255.482C863.88 256.421 865.136 264.283 863.724 265.677ZM866.072 265.677C865.767 265.677 865.463 265.737 865.158 265.744C865.819 264.118 865.425 261.336 865.373 260.24C865.187 255.603 863.914 251.075 861.658 247.024C862.307 246.825 862.974 246.692 863.649 246.628C863.976 246.628 864.303 246.628 864.623 246.628C864.623 246.628 864.623 246.673 864.623 246.703C865.816 249.477 866.631 252.4 867.045 255.392C867.164 256.369 867.231 264.208 866.079 265.67L866.072 265.677ZM869.133 264.738C868.624 264.997 868.091 265.209 867.543 265.371C868.45 263.343 868.376 260.233 868.376 258.547C868.433 254.355 867.343 250.227 865.225 246.613C866.455 246.689 867.662 246.99 868.784 247.501C869.572 250.73 870.857 253.513 870.835 256.981C870.762 259.648 870.188 262.277 869.141 264.73L869.133 264.738ZM873.978 258.898C873.448 260.684 872.416 262.279 871.006 263.492C872.7 258.532 872.648 252.066 869.795 248.023C871.621 249.088 873.03 250.745 873.791 252.722C874.551 254.699 874.618 256.878 873.978 258.898ZM918.98 245.786C918.671 246.143 918.288 246.428 917.858 246.621C918.777 245.057 919.404 243.339 919.708 241.549C919.998 242.252 920.083 243.023 919.954 243.773C919.826 244.523 919.488 245.221 918.98 245.786ZM917.449 239.602C918.182 239.802 918.829 240.237 919.292 240.841C918.755 242.239 918.08 243.581 917.278 244.846C917.168 244.846 917.059 244.877 916.965 244.934C916.871 244.992 916.794 245.075 916.743 245.174C916.416 245.741 916.104 246.315 915.785 246.889C915.511 246.843 915.242 246.77 914.982 246.673C916.47 244.603 917.29 242.125 917.33 239.573L917.449 239.602ZM913.734 245.994C913.488 245.806 913.264 245.591 913.065 245.353C913.271 245.121 913.385 244.821 913.385 244.51C913.385 242.332 913.808 239.513 916.164 239.431C916.124 240.464 915.949 241.487 915.644 242.474C915.184 243.728 914.553 244.913 913.771 245.994H913.734ZM908.443 284.838C909.205 287.192 909.057 289.749 908.027 291.998C905.478 297.376 897.906 298.838 893.321 295.243C894.515 295.46 895.731 295.517 896.94 295.414C899.699 295.017 902.275 293.796 904.333 291.91C906.391 290.024 907.836 287.56 908.48 284.838H908.443ZM905.389 280.109C906.263 280.84 907 281.722 907.566 282.712C906.883 286.442 905.508 289.708 902.253 292.035C900.314 293.444 898.014 294.267 895.625 294.407C894.451 294.447 893.276 294.35 892.125 294.116C890.934 292.87 890.034 291.375 889.487 289.738C890.321 290.487 891.304 291.051 892.371 291.393C893.437 291.735 894.564 291.847 895.677 291.722C900.254 291.193 906.236 284.756 905.426 280.109H905.389ZM902.082 278.372C902.466 278.472 902.841 278.601 903.204 278.759C906.021 282.243 901.621 287.941 898.084 289.656C896.945 290.251 895.668 290.528 894.386 290.458C893.103 290.389 891.863 289.975 890.795 289.261C889.965 288.681 889.335 287.857 888.989 286.904C888.947 286.041 889.014 285.177 889.19 284.331C889.306 284.317 889.42 284.281 889.524 284.226C890.602 283.514 891.533 282.6 892.266 281.534L897.23 285.972C899.021 287.538 901.621 284.965 899.875 283.287L895.491 279.08C897.56 278.11 899.893 277.86 902.119 278.372H902.082Z" fill="white"/>
</g>
<g clip-path="url(#clip2_4351_43873)">
<path d="M938.63 109.583C936.214 109.375 933.132 110.862 931.688 112.092C928.408 114.862 926.365 119.948 926.14 124.277L925.492 124.13C925.423 124.114 925.351 124.122 925.287 124.152C925.223 124.183 925.171 124.234 925.139 124.299C925.005 124.092 924.828 123.916 924.622 123.784C924.415 123.652 924.183 123.566 923.942 123.532C923.848 123.52 923.754 123.533 923.667 123.57C923.581 123.607 923.505 123.667 923.448 123.743L923.269 123.98C923.073 124.002 922.884 124.064 922.712 124.164C922.541 124.263 922.391 124.396 922.273 124.557C922.154 124.717 922.069 124.9 922.022 125.094C921.975 125.289 921.968 125.492 922.001 125.689C922.205 127.453 924.896 127.908 926.168 128.42C931.556 130.599 936.808 133.112 941.892 135.947C942.092 136.027 942.314 136.024 942.511 135.94C942.708 135.855 942.866 135.696 942.949 135.495C943.438 134.243 943.968 133.013 944.541 131.804C944.621 131.601 944.619 131.376 944.537 131.174C944.455 130.973 944.298 130.813 944.101 130.728C943.682 130.56 943.256 130.392 942.833 130.216C945.214 126.567 946.193 121.105 946.355 116.955C946.44 114.776 945.679 113.142 944.358 112.013C945.975 111.884 947.472 111.02 948.747 109.526C951.294 106.544 953.488 102.236 954.559 98.3652L955.873 99.0819C955.959 99.1183 956.051 99.137 956.144 99.137C956.237 99.137 956.329 99.1183 956.414 99.082C956.5 99.0457 956.578 98.9925 956.644 98.9254C956.709 98.8584 956.761 98.7788 956.796 98.6913C957.201 97.4835 958.367 95.5661 957.884 94.2508C957.374 92.8494 954.616 92.4767 953.4 92.0108C948.859 90.2731 944.412 88.2908 940.078 86.0721C939.886 85.996 939.672 85.9982 939.481 86.0783C939.29 86.1584 939.137 86.3102 939.053 86.5022C939.031 86.4711 939.003 86.4458 938.969 86.4283C938.936 86.4109 938.899 86.4017 938.861 86.4017C938.824 86.4017 938.787 86.4109 938.753 86.4283C938.72 86.4458 938.691 86.4711 938.669 86.5022C938.258 87.1423 937.932 87.8353 937.701 88.563C937.542 89.054 937.271 89.717 937.489 90.2295C937.708 90.742 938.366 90.9463 938.849 91.1399L939.134 91.2617C937.257 94.6091 935.879 98.6232 935.612 102.408C935.425 105.397 936.609 107.784 938.63 109.583ZM924.343 125.593C924.308 125.671 924.266 125.754 924.227 125.84C924.042 125.735 923.865 125.615 923.699 125.481C923.872 125.47 924.034 125.392 924.152 125.263C924.27 125.133 924.335 124.963 924.333 124.786C924.456 124.85 924.574 124.924 924.685 125.008C924.554 125.192 924.44 125.388 924.343 125.593ZM938.433 89.7027C938.254 89.2941 938.433 88.7995 938.581 88.3049C938.655 88.0648 938.736 87.8247 938.817 87.5881C938.883 87.7699 938.966 87.945 939.064 88.1114C938.743 88.5892 938.528 89.1321 938.433 89.7027ZM931.811 114.038C933.097 112.556 934.819 111.538 936.721 111.135C937.901 110.905 939.106 111.203 940.244 111.103C941.301 111.658 942.505 112.146 943.414 112.941C943.809 118.711 943.199 124.138 940.818 129.381C936.45 127.589 932.012 125.761 927.457 124.589C928.693 120.851 929.046 117.099 931.811 114.038ZM941.811 134.026C939.018 132.481 936.175 131.015 933.283 129.682C931.776 128.987 930.249 128.32 928.704 127.682C927.936 127.364 927.167 127.052 926.397 126.747L925.238 126.295C925.136 126.27 925.041 126.234 924.946 126.202C924.992 126.036 925.047 125.874 925.111 125.714C925.212 125.539 925.297 125.354 925.365 125.163C925.392 125.141 925.414 125.114 925.429 125.083C925.444 125.052 925.452 125.018 925.453 124.983C930.941 127.782 936.975 129.664 942.713 131.933C942.407 132.61 942.104 133.309 941.811 134.026ZM944.481 119.819C944.193 121.772 943.721 123.692 943.072 125.553C942.59 126.94 941.889 128.245 941.357 129.607L941.272 129.571C943.506 124.492 944.576 118.683 943.654 113.163C943.887 113.384 944.094 113.632 944.27 113.902C945.27 115.457 944.742 118.066 944.481 119.804V119.819ZM940.17 89.3765C940.233 88.9106 940.55 88.5737 940.645 88.1329C943.492 89.5665 946.38 90.8818 949.325 92.0753C950.868 92.7061 952.421 93.3082 953.992 93.8673C954.32 93.9855 956.176 94.3368 956.356 94.6844C956.63 95.2148 956.134 96.4764 955.771 97.3939C952.904 95.8635 950.005 94.4049 947.06 93.0465C945.54 92.3441 944.014 91.6655 942.481 91.0108C942.068 90.8352 941.424 90.6811 940.867 90.4625C940.844 90.3011 940.763 90.1539 940.641 90.0489C940.518 89.9439 940.362 89.8883 940.202 89.8926C940.165 89.7233 940.154 89.5492 940.17 89.3765ZM937.285 100.544C937.884 97.4405 939.046 94.5984 940.335 91.7635C940.427 91.7957 940.522 91.8208 940.617 91.8459C941.537 92.2043 942.533 92.4803 943.129 92.7455C946.595 94.2866 950.005 95.9711 953.362 97.7272C951.104 102.791 947.669 114.174 940.67 109.379C937.475 107.185 936.556 104.304 937.285 100.544Z" fill="white"/>
<path d="M940.004 106.26C940.328 106.472 940.888 106.167 940.666 105.744C940.078 104.622 939.307 103.827 939.074 102.519C938.832 101.076 939.112 99.5922 939.863 98.3434C939.871 98.3276 939.873 98.3094 939.87 98.2921C939.866 98.2748 939.856 98.2594 939.842 98.2487C939.828 98.2379 939.811 98.2326 939.794 98.2335C939.776 98.2344 939.76 98.2416 939.747 98.2538C938.824 99.3646 938.335 100.782 938.373 102.236C938.394 103.59 938.817 105.472 940.004 106.26Z" fill="white"/>
<path d="M935.925 113.762C933.459 113.601 930.402 116.081 930.204 118.658C930.196 118.771 930.227 118.883 930.292 118.975C930.357 119.067 930.451 119.133 930.559 119.162C930.666 119.191 930.78 119.18 930.881 119.132C930.982 119.083 931.063 119.001 931.11 118.898C931.596 117.633 931.846 116.579 932.871 115.615C933.755 114.795 934.829 114.382 935.946 114.01C935.972 114 935.994 113.981 936.008 113.958C936.023 113.934 936.03 113.906 936.027 113.878C936.025 113.85 936.014 113.823 935.995 113.803C935.977 113.782 935.952 113.768 935.925 113.762Z" fill="white"/>
</g>
<g clip-path="url(#clip3_4351_43873)">
<path d="M1024.29 255.14C1027.29 252.749 1029.99 249.819 1032.91 247.292C1034.77 245.67 1035.59 243.813 1034.05 241.616C1033.99 241.529 1033.92 241.45 1033.84 241.38L1034.08 241.14C1034.24 240.967 1034.34 240.748 1034.38 240.512C1035.93 238.555 1036.64 235.212 1035.26 233.412C1033.05 230.524 1029.04 232.607 1027.26 234.799C1027.2 234.873 1027.16 234.956 1027.13 235.045C1018.2 244.326 1009.36 253.764 1000.99 263.584C999.437 265.153 997.918 266.749 996.399 268.329C994.491 270.317 992.626 272.347 990.805 274.419C990.074 275.251 989.162 275.946 989.452 277.035C988.862 278.283 988.388 279.585 988.037 280.922C987.995 281.089 988.002 281.264 988.058 281.427C988.113 281.589 988.215 281.732 988.351 281.836C988.486 281.941 988.648 282.003 988.818 282.016C988.988 282.028 989.158 281.99 989.307 281.905C991.738 280.754 994.201 279.572 996.534 278.196C997.27 278.107 998.089 277.626 999.152 276.595C1003.01 272.834 1006.73 268.925 1010.52 265.085C1017.71 257.818 1024.96 250.588 1032.07 243.217C1032.18 243.604 1032.21 244.013 1032.15 244.414C1032.09 244.815 1031.95 245.198 1031.72 245.534C1030.99 246.581 1029.33 247.569 1028.38 248.438C1026.47 250.175 1024.42 251.964 1022.96 254.104C1022.36 254.967 1023.59 255.694 1024.29 255.14ZM990.261 279.426C990.577 278.472 990.944 277.535 991.36 276.621C991.593 276.098 991.878 275.575 992.117 275.052L992.241 275.198C993.019 276.004 993.662 276.705 994.263 277.228C992.925 277.966 991.598 278.704 990.261 279.426ZM1031.51 240.527C1025.18 246.738 1018.98 253.084 1012.74 259.362L1003.12 269.109L998.307 273.974C997.964 274.314 996.855 275.81 996.233 275.826C995.88 275.826 994.88 274.591 994.32 273.896C994.358 273.869 994.393 273.837 994.424 273.801C1005.55 261.428 1016.51 248.945 1028.05 236.959C1029.38 237.909 1030.59 239.002 1031.68 240.219C1031.61 240.311 1031.55 240.415 1031.51 240.527ZM1029.12 235.259C1030.4 234.323 1031.96 233.281 1033.33 234.317C1034.4 235.139 1033.91 237.09 1033.1 238.534C1031.88 237.324 1030.54 236.227 1029.12 235.259Z" fill="white"/>
</g>
<g clip-path="url(#clip4_4351_43873)">
<path d="M1049.73 98.1296C1042.92 99.177 1033.67 110.423 1040.26 116.754C1040.29 116.785 1040.32 116.808 1040.36 116.821C1040.4 116.835 1040.44 116.838 1040.48 116.83C1041.28 118.455 1042.41 119.885 1043.79 121.025C1045.17 122.164 1046.78 122.988 1048.49 123.439C1048.07 124.434 1047.89 125.581 1047.66 126.638C1047.49 127.424 1047.15 128.295 1047.13 129.144C1046.79 129.184 1046.46 129.297 1046.16 129.475C1046.11 129.503 1046.08 129.542 1046.05 129.587C1046.02 129.632 1046 129.684 1045.99 129.738C1045.99 129.792 1045.99 129.846 1046.01 129.898C1046.02 129.949 1046.05 129.996 1046.09 130.035H1046.1C1046.03 130.038 1045.97 130.056 1045.9 130.088C1045.84 130.121 1045.79 130.167 1045.74 130.224C1044.73 131.51 1044.45 133.207 1044.05 134.788C1043.53 136.744 1043.1 138.72 1042.76 140.715C1042.52 142.061 1041.88 144.029 1042.16 145.412C1042.4 146.648 1043.62 147.314 1044.68 147.775C1047.58 149.044 1047.69 144.484 1048.2 142.535C1049.22 138.607 1050.27 134.686 1051.24 130.745C1051.29 130.522 1051.27 130.286 1051.15 130.085C1051.04 129.885 1050.86 129.738 1050.65 129.674C1050.24 129.608 1049.8 129.495 1049.36 129.389C1049.81 127.573 1050.28 125.67 1050.4 123.801C1051.26 123.904 1052.13 123.916 1052.99 123.837C1059.55 123.227 1064.28 116.989 1063.99 110.347C1063.69 103.075 1056.82 97.0358 1049.73 98.1296ZM1039.47 109.475C1039.29 110.584 1039.25 111.714 1039.36 112.833C1039.44 113.559 1039.58 114.277 1039.78 114.977C1038.97 113.247 1038.94 111.338 1039.47 109.475ZM1045.23 145.786C1044.64 145.968 1044.32 145.746 1044.16 145.342C1044.33 145.393 1044.51 145.43 1044.69 145.455C1044.98 145.5 1045.27 145.515 1045.56 145.498C1045.48 145.628 1045.37 145.73 1045.23 145.786ZM1045.88 144.792C1045.55 144.775 1045.21 144.865 1044.88 144.842C1044.59 144.821 1044.3 144.775 1044.02 144.702C1043.99 144.179 1044.02 143.654 1044.11 143.138C1044.41 143.257 1044.72 143.337 1045.03 143.376C1045.43 143.475 1045.85 143.467 1046.24 143.353C1046.15 143.842 1046.03 144.324 1045.89 144.798L1045.88 144.792ZM1046.52 142.054C1046.47 142.253 1046.41 142.551 1046.34 142.889C1046.02 142.73 1045.6 142.823 1045.24 142.79C1044.87 142.757 1044.55 142.677 1044.21 142.621C1044.23 142.501 1044.25 142.392 1044.26 142.313C1044.33 141.865 1044.42 141.418 1044.49 140.97C1045.13 141.397 1045.87 141.632 1046.62 141.65L1046.52 142.054ZM1047.49 138.372L1046.79 141.046C1046.44 141.021 1046.08 140.975 1045.73 140.91C1045.34 140.815 1044.96 140.687 1044.58 140.529C1044.72 139.754 1044.88 138.981 1045.04 138.209C1045.31 136.974 1045.61 135.745 1045.94 134.523C1046.29 133.241 1046.85 131.998 1046.8 130.659C1046.8 130.629 1046.79 130.6 1046.78 130.572C1047.52 130.997 1048.49 131.099 1049.37 131.215C1048.72 133.605 1048.1 135.992 1047.48 138.378L1047.49 138.372ZM1054.59 122.25C1049.23 123.668 1043 120.755 1041.09 115.289C1039.8 111.537 1040.57 106.89 1042.91 103.668C1044.32 102.128 1046.03 100.912 1047.92 100.098C1048.69 99.8917 1049.49 99.7968 1050.29 99.8167C1050.45 99.8167 1050.5 99.5383 1050.33 99.4852C1055.94 98.9118 1061.68 103.519 1062.55 109.233C1063.41 114.812 1059.98 120.824 1054.57 122.256L1054.59 122.25Z" fill="white"/>
<path d="M1058.54 104.676C1056.57 102.827 1053.55 101.03 1050.8 101.116C1047.94 101.196 1045.38 103.688 1043.77 105.906C1042.02 108.299 1041.05 111.332 1041.78 114.305C1042.36 116.625 1043.88 118.654 1046.04 119.456C1049.44 122.054 1054.55 122.797 1057.71 119.953C1061.95 116.144 1062.81 108.677 1058.54 104.676ZM1042.27 112.631C1042.24 111.518 1042.44 110.411 1042.86 109.383C1042.31 111.66 1042.35 114.023 1043.14 115.873C1043.19 115.975 1043.24 116.078 1043.29 116.181C1042.66 115.103 1042.31 113.879 1042.27 112.624V112.631ZM1056.88 119.094C1054.12 121.55 1050.1 120.639 1047.28 118.763C1044.13 116.635 1043.04 113.47 1043.93 109.751C1044.32 108.015 1045.03 106.375 1046.04 104.921L1046.06 104.898C1047.17 103.904 1048.53 102.764 1050 102.459C1051.84 102.074 1053.92 103.078 1055.48 103.997C1058 105.478 1060.2 107.765 1060.2 110.927C1060.2 113.758 1058.97 117.225 1056.88 119.088V119.094Z" fill="white"/>
<path d="M1053.08 106.532C1050.68 104.716 1046.63 106.701 1048.05 109.94C1048.5 110.957 1049.74 110.271 1049.85 109.439C1050.18 107.066 1052.39 108.445 1052.39 110.228C1052.39 111.763 1051.42 113.132 1050.61 114.351C1049.75 115.677 1051.83 116.91 1052.68 115.591C1054.31 113.049 1056.15 108.853 1053.08 106.532Z" fill="white"/>
<path d="M1053.03 117.927C1052.96 117.652 1052.8 117.41 1052.58 117.245C1052.36 117.063 1052.08 116.964 1051.8 116.963C1051.58 116.974 1051.36 117.037 1051.16 117.145C1050.87 117.319 1050.67 117.6 1050.58 117.927C1050.58 117.99 1050.56 118.053 1050.55 118.116C1050.49 118.316 1050.49 118.527 1050.52 118.73C1050.56 118.934 1050.65 119.126 1050.77 119.291C1050.89 119.457 1051.05 119.59 1051.23 119.683C1051.41 119.775 1051.61 119.823 1051.81 119.823C1052.01 119.824 1052.21 119.776 1052.39 119.684C1052.58 119.592 1052.73 119.458 1052.86 119.293C1052.98 119.127 1053.06 118.935 1053.1 118.731C1053.14 118.527 1053.13 118.317 1053.08 118.116L1053.03 117.927Z" fill="white"/>
</g>
</g>

<path fill-rule="evenodd" clip-rule="evenodd" d="M1336.74 66.9024C1328.92 69.337 1325.19 78.8696 1327.55 90.2538C1328.31 93.8544 1331.29 93.9572 1334.93 91.6942C1338.77 89.2593 1343.29 84.1502 1346.62 77.6008C1350.18 70.5028 1344.6 64.4335 1336.74 66.9024ZM1340.41 70.057C1344.29 72.3545 1343.29 76.2979 1336.81 83.8759L1333.04 88.2994L1332.94 84.9732C1332.63 74.4462 1336.09 67.4853 1340.41 70.057ZM1359 73.2803C1353.68 75.7492 1345.56 86.3104 1345.56 90.7682C1345.56 93.6829 1347.65 93.58 1357.93 90.151C1366.06 87.4421 1369.97 85.8989 1371.72 83.7387C1377.51 76.6407 1367.71 69.2341 1359 73.2803ZM1367.02 76.5036C1368.84 79.2811 1364.38 85.0075 1359.07 86.7562C1354.71 88.1965 1351.73 88.985 1352.04 88.5395C1352.21 88.3337 1353.27 86.9277 1354.4 85.4191C1359.75 78.321 1365.55 74.2405 1367.02 76.5036ZM1346.72 97.7632C1339.21 99.0664 1336.5 104.21 1345.52 107.296C1347.1 107.845 1350.49 109.422 1353.06 110.794C1360.57 114.874 1364.31 114.942 1367.47 111.102C1369.9 108.153 1369.28 103.421 1366.95 99.9237C1361.23 91.3169 1350.77 97.0433 1346.72 97.7632ZM1364.07 101.295C1366.03 102.29 1365.96 104.553 1363.9 106.85C1361.12 109.936 1358.79 109.765 1352.17 105.959L1347.37 103.216C1348.13 103.078 1350.84 102.633 1355.36 101.569C1359.51 100.541 1362.43 100.472 1364.07 101.295Z" fill="white"/>
<defs>
<clipPath id="clip0_4351_43873">
<rect width="1440" height="670" fill="white"/>
</clipPath>
<clipPath id="clip1_4351_43873">
<rect width="89" height="66" fill="white" transform="translate(834 236)"/>
</clipPath>
<clipPath id="clip2_4351_43873">
<rect width="36" height="50" fill="white" transform="translate(922 86)"/>
</clipPath>
<clipPath id="clip3_4351_43873">
<rect width="48" height="50" fill="white" transform="translate(988 232)"/>
</clipPath>
<clipPath id="clip4_4351_43873">
<rect width="26" height="50" fill="white" transform="translate(1038 98)"/>
</clipPath>
</defs>
</svg>
